G75*
%MOIN*%
%OFA0B0*%
%FSLAX25Y25*%
%IPPOS*%
%LPD*%
%AMOC8*
5,1,8,0,0,1.08239X$1,22.5*
%
%ADD10C,0.13800*%
%ADD11C,0.07887*%
%ADD12C,0.05800*%
%ADD13C,0.08800*%
%ADD14C,0.03556*%
%ADD15C,0.03398*%
%ADD16C,0.04737*%
%ADD17C,0.05000*%
%ADD18C,0.06706*%
D10*
X0096750Y0038500D03*
X0301750Y0058500D03*
X0381750Y0038500D03*
X0586750Y0058500D03*
X0666750Y0038500D03*
X0871750Y0058500D03*
X0951750Y0038500D03*
X1156750Y0058500D03*
X1236750Y0038500D03*
X1441750Y0058500D03*
X1441750Y0168500D03*
X1241750Y0228500D03*
X1236750Y0250500D03*
X1156750Y0270500D03*
X0956750Y0228500D03*
X0951750Y0250500D03*
X0871750Y0270500D03*
X0671750Y0228500D03*
X0666750Y0250500D03*
X0586750Y0270500D03*
X0386750Y0228500D03*
X0381750Y0250500D03*
X0301750Y0270500D03*
X0101750Y0228500D03*
X0096750Y0250500D03*
X0301750Y0168500D03*
X0586750Y0168500D03*
X0871750Y0168500D03*
X1156750Y0168500D03*
X1441750Y0270500D03*
X1441750Y0380500D03*
X1241750Y0440500D03*
X1236750Y0462500D03*
X1156750Y0482500D03*
X0956750Y0440500D03*
X0951750Y0462500D03*
X0871750Y0482500D03*
X0671750Y0440500D03*
X0666750Y0462500D03*
X0586750Y0482500D03*
X0386750Y0440500D03*
X0381750Y0462500D03*
X0301750Y0482500D03*
X0101750Y0440500D03*
X0096750Y0462500D03*
X0301750Y0380500D03*
X0586750Y0380500D03*
X0871750Y0380500D03*
X1156750Y0380500D03*
X1441750Y0482500D03*
X1441750Y0592500D03*
X1241750Y0652500D03*
X1156750Y0592500D03*
X0956750Y0652500D03*
X0871750Y0592500D03*
X0671750Y0652500D03*
X0586750Y0592500D03*
X0386750Y0652500D03*
X0301750Y0592500D03*
X0101750Y0652500D03*
D11*
X0296750Y0567500D03*
X0296750Y0557500D03*
X0581750Y0557500D03*
X0581750Y0567500D03*
X0866750Y0567500D03*
X0866750Y0557500D03*
X1151750Y0557500D03*
X1151750Y0567500D03*
X1436750Y0567500D03*
X1436750Y0557500D03*
X1436750Y0355500D03*
X1436750Y0345500D03*
X1151750Y0345500D03*
X1151750Y0355500D03*
X0866750Y0355500D03*
X0866750Y0345500D03*
X0581750Y0345500D03*
X0581750Y0355500D03*
X0296750Y0355500D03*
X0296750Y0345500D03*
X0296750Y0143500D03*
X0296750Y0133500D03*
X0581750Y0133500D03*
X0581750Y0143500D03*
X0866750Y0143500D03*
X0866750Y0133500D03*
X1151750Y0133500D03*
X1151750Y0143500D03*
X1436750Y0143500D03*
X1436750Y0133500D03*
D12*
X1431750Y0128500D03*
X1441750Y0128500D03*
X1441750Y0138500D03*
X1431750Y0138500D03*
X1431750Y0148500D03*
X1441750Y0148500D03*
X1156750Y0148500D03*
X1156750Y0138500D03*
X1146750Y0138500D03*
X1146750Y0148500D03*
X1146750Y0128500D03*
X1156750Y0128500D03*
X0871750Y0128500D03*
X0861750Y0128500D03*
X0861750Y0138500D03*
X0861750Y0148500D03*
X0871750Y0148500D03*
X0871750Y0138500D03*
X0586750Y0138500D03*
X0586750Y0148500D03*
X0576750Y0148500D03*
X0576750Y0138500D03*
X0576750Y0128500D03*
X0586750Y0128500D03*
X0301750Y0128500D03*
X0291750Y0128500D03*
X0291750Y0138500D03*
X0291750Y0148500D03*
X0301750Y0148500D03*
X0301750Y0138500D03*
X0301750Y0340500D03*
X0301750Y0350500D03*
X0291750Y0350500D03*
X0291750Y0340500D03*
X0291750Y0360500D03*
X0301750Y0360500D03*
X0576750Y0360500D03*
X0586750Y0360500D03*
X0586750Y0350500D03*
X0586750Y0340500D03*
X0576750Y0340500D03*
X0576750Y0350500D03*
X0861750Y0350500D03*
X0861750Y0340500D03*
X0871750Y0340500D03*
X0871750Y0350500D03*
X0871750Y0360500D03*
X0861750Y0360500D03*
X1146750Y0360500D03*
X1156750Y0360500D03*
X1156750Y0350500D03*
X1156750Y0340500D03*
X1146750Y0340500D03*
X1146750Y0350500D03*
X1431750Y0350500D03*
X1441750Y0350500D03*
X1441750Y0340500D03*
X1431750Y0340500D03*
X1431750Y0360500D03*
X1441750Y0360500D03*
X1441750Y0552500D03*
X1431750Y0552500D03*
X1431750Y0562500D03*
X1441750Y0562500D03*
X1441750Y0572500D03*
X1431750Y0572500D03*
X1156750Y0572500D03*
X1156750Y0562500D03*
X1146750Y0562500D03*
X1146750Y0572500D03*
X1146750Y0552500D03*
X1156750Y0552500D03*
X0871750Y0552500D03*
X0861750Y0552500D03*
X0861750Y0562500D03*
X0861750Y0572500D03*
X0871750Y0572500D03*
X0871750Y0562500D03*
X0586750Y0562500D03*
X0586750Y0572500D03*
X0576750Y0572500D03*
X0576750Y0562500D03*
X0576750Y0552500D03*
X0586750Y0552500D03*
X0301750Y0552500D03*
X0291750Y0552500D03*
X0291750Y0562500D03*
X0291750Y0572500D03*
X0301750Y0572500D03*
X0301750Y0562500D03*
D13*
X0334750Y0486500D03*
X0352750Y0486500D03*
X0619750Y0486500D03*
X0637750Y0486500D03*
X0904750Y0486500D03*
X0922750Y0486500D03*
X1189750Y0486500D03*
X1207750Y0486500D03*
X1207750Y0274500D03*
X1189750Y0274500D03*
X0922750Y0274500D03*
X0904750Y0274500D03*
X0637750Y0274500D03*
X0619750Y0274500D03*
X0352750Y0274500D03*
X0334750Y0274500D03*
X0067750Y0274500D03*
X0049750Y0274500D03*
X0049750Y0062500D03*
X0067750Y0062500D03*
X0334750Y0062500D03*
X0352750Y0062500D03*
X0619750Y0062500D03*
X0637750Y0062500D03*
X0904750Y0062500D03*
X0922750Y0062500D03*
X1189750Y0062500D03*
X1207750Y0062500D03*
X0067750Y0486500D03*
X0049750Y0486500D03*
D14*
X0047285Y0406101D03*
X0046632Y0406101D03*
X0045848Y0406105D03*
X0045198Y0406105D03*
X0045198Y0384609D03*
X0045860Y0384609D03*
X0046620Y0384605D03*
X0047285Y0384601D03*
X0330198Y0384609D03*
X0330860Y0384609D03*
X0331620Y0384605D03*
X0332285Y0384601D03*
X0332285Y0406101D03*
X0331632Y0406101D03*
X0330848Y0406105D03*
X0330198Y0406105D03*
X0615198Y0406105D03*
X0615848Y0406105D03*
X0616632Y0406101D03*
X0617285Y0406101D03*
X0617285Y0384601D03*
X0616620Y0384605D03*
X0615860Y0384609D03*
X0615198Y0384609D03*
X0900198Y0384609D03*
X0900860Y0384609D03*
X0901620Y0384605D03*
X0902285Y0384601D03*
X0902285Y0406101D03*
X0901632Y0406101D03*
X0900848Y0406105D03*
X0900198Y0406105D03*
X1185198Y0406105D03*
X1185848Y0406105D03*
X1186632Y0406101D03*
X1187285Y0406101D03*
X1187285Y0384601D03*
X1186620Y0384605D03*
X1185860Y0384609D03*
X1185198Y0384609D03*
X1185198Y0194105D03*
X1185848Y0194105D03*
X1186632Y0194101D03*
X1187285Y0194101D03*
X1187285Y0172601D03*
X1186620Y0172605D03*
X1185860Y0172609D03*
X1185198Y0172609D03*
X0902285Y0172601D03*
X0901620Y0172605D03*
X0900860Y0172609D03*
X0900198Y0172609D03*
X0900198Y0194105D03*
X0900848Y0194105D03*
X0901632Y0194101D03*
X0902285Y0194101D03*
X0617285Y0194101D03*
X0616632Y0194101D03*
X0615848Y0194105D03*
X0615198Y0194105D03*
X0615198Y0172609D03*
X0615860Y0172609D03*
X0616620Y0172605D03*
X0617285Y0172601D03*
X0332285Y0172601D03*
X0331620Y0172605D03*
X0330860Y0172609D03*
X0330198Y0172609D03*
X0330198Y0194105D03*
X0330848Y0194105D03*
X0331632Y0194101D03*
X0332285Y0194101D03*
X0047285Y0194101D03*
X0046632Y0194101D03*
X0045848Y0194105D03*
X0045198Y0194105D03*
X0045198Y0172609D03*
X0045860Y0172609D03*
X0046620Y0172605D03*
X0047285Y0172601D03*
X0047285Y0596601D03*
X0046620Y0596605D03*
X0045860Y0596609D03*
X0045198Y0596609D03*
X0045198Y0618105D03*
X0045848Y0618105D03*
X0046632Y0618101D03*
X0047285Y0618101D03*
X0330198Y0618105D03*
X0330848Y0618105D03*
X0331632Y0618101D03*
X0332285Y0618101D03*
X0332285Y0596601D03*
X0331620Y0596605D03*
X0330860Y0596609D03*
X0330198Y0596609D03*
X0615198Y0596609D03*
X0615860Y0596609D03*
X0616620Y0596605D03*
X0617285Y0596601D03*
X0617285Y0618101D03*
X0616632Y0618101D03*
X0615848Y0618105D03*
X0615198Y0618105D03*
X0900198Y0618105D03*
X0900848Y0618105D03*
X0901632Y0618101D03*
X0902285Y0618101D03*
X0902285Y0596601D03*
X0901620Y0596605D03*
X0900860Y0596609D03*
X0900198Y0596609D03*
X1185198Y0596609D03*
X1185860Y0596609D03*
X1186620Y0596605D03*
X1187285Y0596601D03*
X1187285Y0618101D03*
X1186632Y0618101D03*
X1185848Y0618105D03*
X1185198Y0618105D03*
D15*
X1197387Y0616767D03*
X1197817Y0616788D03*
X1198407Y0616749D03*
X1198919Y0616788D03*
X1198919Y0597733D03*
X1198407Y0597694D03*
X1197817Y0597733D03*
X1197387Y0597712D03*
X0913919Y0597733D03*
X0913407Y0597694D03*
X0912817Y0597733D03*
X0912387Y0597712D03*
X0912387Y0616767D03*
X0912817Y0616788D03*
X0913407Y0616749D03*
X0913919Y0616788D03*
X0628919Y0616788D03*
X0628407Y0616749D03*
X0627817Y0616788D03*
X0627387Y0616767D03*
X0627817Y0597733D03*
X0627387Y0597712D03*
X0628407Y0597694D03*
X0628919Y0597733D03*
X0343919Y0597733D03*
X0343407Y0597694D03*
X0342817Y0597733D03*
X0342387Y0597712D03*
X0342387Y0616767D03*
X0342817Y0616788D03*
X0343407Y0616749D03*
X0343919Y0616788D03*
X0058919Y0616788D03*
X0058407Y0616749D03*
X0057817Y0616788D03*
X0057387Y0616767D03*
X0057817Y0597733D03*
X0057387Y0597712D03*
X0058407Y0597694D03*
X0058919Y0597733D03*
X0058919Y0404788D03*
X0058407Y0404749D03*
X0057817Y0404788D03*
X0057387Y0404767D03*
X0057817Y0385733D03*
X0057387Y0385712D03*
X0058407Y0385694D03*
X0058919Y0385733D03*
X0342387Y0385712D03*
X0342817Y0385733D03*
X0343407Y0385694D03*
X0343919Y0385733D03*
X0343407Y0404749D03*
X0343919Y0404788D03*
X0342817Y0404788D03*
X0342387Y0404767D03*
X0627387Y0404767D03*
X0627817Y0404788D03*
X0628407Y0404749D03*
X0628919Y0404788D03*
X0628919Y0385733D03*
X0628407Y0385694D03*
X0627817Y0385733D03*
X0627387Y0385712D03*
X0912387Y0385712D03*
X0912817Y0385733D03*
X0913407Y0385694D03*
X0913919Y0385733D03*
X0913407Y0404749D03*
X0913919Y0404788D03*
X0912817Y0404788D03*
X0912387Y0404767D03*
X1197387Y0404767D03*
X1197817Y0404788D03*
X1198407Y0404749D03*
X1198919Y0404788D03*
X1198919Y0385733D03*
X1198407Y0385694D03*
X1197817Y0385733D03*
X1197387Y0385712D03*
X1197817Y0192788D03*
X1197387Y0192767D03*
X1198407Y0192749D03*
X1198919Y0192788D03*
X1198919Y0173733D03*
X1198407Y0173694D03*
X1197817Y0173733D03*
X1197387Y0173712D03*
X0913919Y0173733D03*
X0913407Y0173694D03*
X0912817Y0173733D03*
X0912387Y0173712D03*
X0912387Y0192767D03*
X0912817Y0192788D03*
X0913407Y0192749D03*
X0913919Y0192788D03*
X0628919Y0192788D03*
X0628407Y0192749D03*
X0627817Y0192788D03*
X0627387Y0192767D03*
X0627817Y0173733D03*
X0627387Y0173712D03*
X0628407Y0173694D03*
X0628919Y0173733D03*
X0343919Y0173733D03*
X0343407Y0173694D03*
X0342817Y0173733D03*
X0342387Y0173712D03*
X0342387Y0192767D03*
X0342817Y0192788D03*
X0343407Y0192749D03*
X0343919Y0192788D03*
X0058919Y0192788D03*
X0058407Y0192749D03*
X0057817Y0192788D03*
X0057387Y0192767D03*
X0057817Y0173733D03*
X0057387Y0173712D03*
X0058407Y0173694D03*
X0058919Y0173733D03*
D16*
X0081750Y0670750D03*
X1411750Y0670750D03*
D17*
X0078185Y0020250D02*
X0078187Y0020369D01*
X0078193Y0020488D01*
X0078203Y0020607D01*
X0078217Y0020725D01*
X0078235Y0020843D01*
X0078256Y0020960D01*
X0078282Y0021076D01*
X0078312Y0021192D01*
X0078345Y0021306D01*
X0078382Y0021419D01*
X0078423Y0021531D01*
X0078468Y0021642D01*
X0078516Y0021751D01*
X0078568Y0021858D01*
X0078624Y0021963D01*
X0078683Y0022067D01*
X0078745Y0022168D01*
X0078811Y0022268D01*
X0078880Y0022365D01*
X0078952Y0022459D01*
X0079028Y0022552D01*
X0079106Y0022641D01*
X0079187Y0022728D01*
X0079272Y0022813D01*
X0079359Y0022894D01*
X0079448Y0022972D01*
X0079541Y0023048D01*
X0079635Y0023120D01*
X0079732Y0023189D01*
X0079832Y0023255D01*
X0079933Y0023317D01*
X0080037Y0023376D01*
X0080142Y0023432D01*
X0080249Y0023484D01*
X0080358Y0023532D01*
X0080469Y0023577D01*
X0080581Y0023618D01*
X0080694Y0023655D01*
X0080808Y0023688D01*
X0080924Y0023718D01*
X0081040Y0023744D01*
X0081157Y0023765D01*
X0081275Y0023783D01*
X0081393Y0023797D01*
X0081512Y0023807D01*
X0081631Y0023813D01*
X0081750Y0023815D01*
X0081869Y0023813D01*
X0081988Y0023807D01*
X0082107Y0023797D01*
X0082225Y0023783D01*
X0082343Y0023765D01*
X0082460Y0023744D01*
X0082576Y0023718D01*
X0082692Y0023688D01*
X0082806Y0023655D01*
X0082919Y0023618D01*
X0083031Y0023577D01*
X0083142Y0023532D01*
X0083251Y0023484D01*
X0083358Y0023432D01*
X0083463Y0023376D01*
X0083567Y0023317D01*
X0083668Y0023255D01*
X0083768Y0023189D01*
X0083865Y0023120D01*
X0083959Y0023048D01*
X0084052Y0022972D01*
X0084141Y0022894D01*
X0084228Y0022813D01*
X0084313Y0022728D01*
X0084394Y0022641D01*
X0084472Y0022552D01*
X0084548Y0022459D01*
X0084620Y0022365D01*
X0084689Y0022268D01*
X0084755Y0022168D01*
X0084817Y0022067D01*
X0084876Y0021963D01*
X0084932Y0021858D01*
X0084984Y0021751D01*
X0085032Y0021642D01*
X0085077Y0021531D01*
X0085118Y0021419D01*
X0085155Y0021306D01*
X0085188Y0021192D01*
X0085218Y0021076D01*
X0085244Y0020960D01*
X0085265Y0020843D01*
X0085283Y0020725D01*
X0085297Y0020607D01*
X0085307Y0020488D01*
X0085313Y0020369D01*
X0085315Y0020250D01*
X0085313Y0020131D01*
X0085307Y0020012D01*
X0085297Y0019893D01*
X0085283Y0019775D01*
X0085265Y0019657D01*
X0085244Y0019540D01*
X0085218Y0019424D01*
X0085188Y0019308D01*
X0085155Y0019194D01*
X0085118Y0019081D01*
X0085077Y0018969D01*
X0085032Y0018858D01*
X0084984Y0018749D01*
X0084932Y0018642D01*
X0084876Y0018537D01*
X0084817Y0018433D01*
X0084755Y0018332D01*
X0084689Y0018232D01*
X0084620Y0018135D01*
X0084548Y0018041D01*
X0084472Y0017948D01*
X0084394Y0017859D01*
X0084313Y0017772D01*
X0084228Y0017687D01*
X0084141Y0017606D01*
X0084052Y0017528D01*
X0083959Y0017452D01*
X0083865Y0017380D01*
X0083768Y0017311D01*
X0083668Y0017245D01*
X0083567Y0017183D01*
X0083463Y0017124D01*
X0083358Y0017068D01*
X0083251Y0017016D01*
X0083142Y0016968D01*
X0083031Y0016923D01*
X0082919Y0016882D01*
X0082806Y0016845D01*
X0082692Y0016812D01*
X0082576Y0016782D01*
X0082460Y0016756D01*
X0082343Y0016735D01*
X0082225Y0016717D01*
X0082107Y0016703D01*
X0081988Y0016693D01*
X0081869Y0016687D01*
X0081750Y0016685D01*
X0081631Y0016687D01*
X0081512Y0016693D01*
X0081393Y0016703D01*
X0081275Y0016717D01*
X0081157Y0016735D01*
X0081040Y0016756D01*
X0080924Y0016782D01*
X0080808Y0016812D01*
X0080694Y0016845D01*
X0080581Y0016882D01*
X0080469Y0016923D01*
X0080358Y0016968D01*
X0080249Y0017016D01*
X0080142Y0017068D01*
X0080037Y0017124D01*
X0079933Y0017183D01*
X0079832Y0017245D01*
X0079732Y0017311D01*
X0079635Y0017380D01*
X0079541Y0017452D01*
X0079448Y0017528D01*
X0079359Y0017606D01*
X0079272Y0017687D01*
X0079187Y0017772D01*
X0079106Y0017859D01*
X0079028Y0017948D01*
X0078952Y0018041D01*
X0078880Y0018135D01*
X0078811Y0018232D01*
X0078745Y0018332D01*
X0078683Y0018433D01*
X0078624Y0018537D01*
X0078568Y0018642D01*
X0078516Y0018749D01*
X0078468Y0018858D01*
X0078423Y0018969D01*
X0078382Y0019081D01*
X0078345Y0019194D01*
X0078312Y0019308D01*
X0078282Y0019424D01*
X0078256Y0019540D01*
X0078235Y0019657D01*
X0078217Y0019775D01*
X0078203Y0019893D01*
X0078193Y0020012D01*
X0078187Y0020131D01*
X0078185Y0020250D01*
D18*
X0081750Y0020250D03*
M02*
