%
M48
M72
T01C0.0150
T02C0.0256
T03C0.0709
T04C0.0800
T05C0.1300
%
T01
X12343Y12243
X11193Y12943
X17243Y16893
X17193Y17993
X17393Y18693
X19893Y18893
X21893Y20893
X20468Y21868
X20543Y23143
X20543Y24643
X19593Y24493
X18893Y25393
X18393Y25893
X18893Y26643
X19293Y27443
X20193Y27193
X20593Y27593
X19893Y26393
X17893Y27643
X15393Y26393
X14943Y27143
X14943Y27643
X13493Y27343
X13593Y26693
X13543Y25693
X13518Y25218
X12893Y23893
X10893Y25143
X12243Y26543
X13393Y28143
X13893Y30393
X12393Y30393
X12343Y33443
X11193Y34143
X17243Y38093
X17193Y39193
X17393Y39893
X19893Y40093
X19743Y37393
X19893Y36093
X21888Y34888
X23893Y35593
X24393Y38093
X26393Y39093
X27051Y39286
X27593Y39206
X29193Y39393
X29201Y39936
X27493Y40343
X26393Y40593
X25893Y39893
X23393Y41093
X22893Y40593
X21893Y42093
X20468Y43068
X20543Y44343
X20543Y45843
X19593Y45693
X18893Y46593
X18393Y47093
X18893Y47843
X19293Y48643
X20193Y48393
X20593Y48793
X21893Y49593
X21293Y52093
X22893Y54293
X24893Y54293
X26893Y54343
X26888Y56088
X23893Y56793
X21888Y56088
X19893Y57293
X19743Y58593
X17243Y59293
X17193Y60393
X17393Y61093
X19893Y61293
X21893Y63293
X20468Y64268
X20543Y65543
X20543Y67043
X19593Y66893
X18893Y67793
X18393Y68293
X18893Y69043
X19293Y69843
X20193Y69593
X20593Y69993
X19893Y68793
X17893Y70043
X15393Y68793
X14943Y69543
X14943Y70043
X13493Y69743
X13593Y69093
X13543Y68093
X13518Y67618
X12893Y66293
X10893Y67543
X12243Y68943
X13393Y70543
X13893Y72793
X12393Y72793
X21293Y73293
X21893Y70793
X16393Y66293
X15893Y65043
X15393Y63793
X12393Y62848
X11393Y62598
X11393Y61848
X11393Y61098
X12393Y60848
X10743Y63743
X22893Y61793
X23393Y62293
X25203Y63103
X24443Y63293
X23893Y63443
X25093Y64093
X25943Y63743
X26393Y61793
X25893Y61093
X26393Y60293
X27051Y60486
X27593Y60406
X27493Y61543
X29201Y61136
X29193Y60593
X30893Y58793
X31393Y58793
X31393Y59293
X33093Y59293
X34893Y58293
X36393Y59793
X39593Y61098
X39593Y61848
X39593Y62598
X40593Y62848
X38943Y63743
X36893Y63293
X36893Y64293
X36893Y65293
X34893Y65293
X34893Y64293
X34893Y63293
X36893Y61793
X40593Y60848
X43593Y63793
X44093Y65043
X44593Y66293
X47093Y67793
X46593Y68293
X47093Y69043
X47493Y69843
X48393Y69593
X48793Y69993
X48093Y68793
X46093Y70043
X43593Y68793
X43143Y69543
X43143Y70043
X41693Y69743
X41793Y69093
X41743Y68093
X41718Y67618
X41093Y66293
X39093Y67543
X40443Y68943
X41593Y70543
X42093Y72793
X40593Y72793
X34893Y73293
X33893Y73293
X35893Y68793
X29893Y63293
X28893Y63343
X32393Y62293
X32393Y61793
X24393Y59293
X33893Y56293
X34893Y56293
X34893Y54293
X33893Y54343
X33893Y52093
X34893Y52093
X39393Y55343
X40543Y54643
X40593Y51593
X42093Y51593
X41593Y49343
X41693Y48543
X41793Y47893
X40443Y47743
X41743Y46893
X41718Y46418
X43593Y47593
X43143Y48343
X43143Y48843
X46093Y48843
X47093Y47843
X47493Y48643
X48393Y48393
X48793Y48793
X50093Y49593
X49493Y52093
X51093Y54293
X53093Y54293
X55093Y54343
X55088Y56088
X52093Y56793
X50088Y56088
X48093Y57293
X47943Y58593
X45443Y59293
X45393Y60393
X45593Y61093
X48093Y61293
X51093Y61793
X51593Y62293
X52093Y63443
X52643Y63293
X53403Y63103
X54143Y63743
X53293Y64093
X50093Y63293
X48668Y64268
X48743Y65543
X48743Y67043
X47793Y66893
X50093Y70793
X49493Y73293
X62093Y73293
X63093Y73293
X68793Y72793
X70293Y72793
X69793Y70543
X69893Y69743
X69993Y69093
X69943Y68093
X69918Y67618
X69293Y66293
X67293Y67543
X68643Y68943
X71343Y69543
X71343Y70043
X71793Y68793
X74293Y70043
X75293Y69043
X75693Y69843
X76593Y69593
X76993Y69993
X76293Y68793
X74793Y68293
X75293Y67793
X75993Y66893
X76943Y67043
X76943Y65543
X76868Y64268
X78293Y63293
X79293Y61793
X79793Y62293
X80293Y63443
X80843Y63293
X81603Y63103
X82343Y63743
X81493Y64093
X85293Y63343
X86293Y63293
X88793Y62293
X88793Y61793
X91293Y63293
X91293Y64293
X91293Y65293
X93293Y65293
X93293Y64293
X93293Y63293
X93293Y61793
X95343Y63743
X95993Y62598
X95993Y61848
X95993Y61098
X96993Y60848
X96993Y62848
X99993Y63793
X100493Y65043
X100993Y66293
X103493Y67793
X102993Y68293
X103493Y69043
X103893Y69843
X104793Y69593
X105193Y69993
X104493Y68793
X102493Y70043
X99993Y68793
X99543Y69543
X99543Y70043
X98093Y69743
X98193Y69093
X98143Y68093
X98118Y67618
X97493Y66293
X95493Y67543
X96843Y68943
X97993Y70543
X98493Y72793
X96993Y72793
X91293Y73293
X90293Y73293
X92293Y68793
X82793Y61793
X82293Y61093
X82793Y60293
X83451Y60486
X83993Y60406
X83893Y61543
X85601Y61136
X85593Y60593
X87293Y58793
X87793Y58793
X87793Y59293
X89493Y59293
X91293Y58293
X92793Y59793
X91293Y56293
X90293Y56293
X90293Y54343
X91293Y54293
X91293Y52093
X90293Y52093
X95793Y55343
X96943Y54643
X96993Y51593
X98493Y51593
X97993Y49343
X98093Y48543
X98193Y47893
X96843Y47743
X98143Y46893
X98118Y46418
X97493Y45093
X95493Y46343
X92293Y47593
X91293Y44093
X93293Y44093
X93293Y43093
X93293Y42093
X91293Y42093
X91293Y43093
X88793Y41093
X88793Y40593
X86293Y42093
X85293Y42143
X83893Y40343
X82793Y40593
X82293Y39893
X82793Y39093
X83451Y39286
X83993Y39206
X85593Y39393
X85601Y39936
X87793Y38093
X87793Y37593
X87293Y37593
X89493Y38093
X91293Y37093
X92793Y38593
X93293Y40593
X95993Y40648
X95993Y39898
X96993Y39648
X96993Y41648
X95993Y41398
X95343Y42543
X99993Y42593
X100493Y43843
X100993Y45093
X103493Y46593
X102993Y47093
X103493Y47843
X103893Y48643
X104793Y48393
X105193Y48793
X106493Y49593
X105893Y52093
X107493Y54293
X109493Y54293
X111493Y54343
X111488Y56088
X108493Y56793
X106488Y56088
X104493Y57293
X104343Y58593
X101843Y59293
X101793Y60393
X101993Y61093
X104493Y61293
X107493Y61793
X107993Y62293
X109803Y63103
X109043Y63293
X108493Y63443
X109693Y64093
X110543Y63743
X110993Y61793
X110493Y61093
X110993Y60293
X111651Y60486
X112193Y60406
X112093Y61543
X113801Y61136
X113793Y60593
X115493Y58793
X115993Y58793
X115993Y59293
X117693Y59293
X119493Y58293
X120993Y59793
X121493Y61793
X121493Y63293
X121493Y64293
X121493Y65293
X119493Y65293
X119493Y64293
X119493Y63293
X116993Y62293
X116993Y61793
X114493Y63293
X113493Y63343
X108993Y59293
X106493Y63293
X105068Y64268
X105143Y65543
X105143Y67043
X104193Y66893
X106493Y70793
X105893Y73293
X118493Y73293
X119493Y73293
X120493Y68793
X119493Y56293
X118493Y56293
X118493Y54343
X119493Y54293
X119493Y52093
X118493Y52093
X120493Y47593
X119493Y44093
X119493Y43093
X119493Y42093
X121493Y42093
X121493Y43093
X121493Y44093
X116993Y41093
X116993Y40593
X114493Y42093
X113493Y42143
X112093Y40343
X110993Y40593
X110493Y39893
X110993Y39093
X111651Y39286
X112193Y39206
X113793Y39393
X113801Y39936
X115993Y38093
X115993Y37593
X115493Y37593
X117693Y38093
X119493Y37093
X120993Y38593
X121493Y40593
X119493Y35093
X118493Y35093
X118493Y33143
X119493Y33093
X119493Y30893
X118493Y30893
X111493Y33143
X109493Y33093
X107493Y33093
X105893Y30893
X106493Y28393
X105193Y27593
X104793Y27193
X104493Y26393
X103493Y26643
X103893Y27443
X102493Y27643
X99993Y26393
X99543Y27143
X99543Y27643
X98093Y27343
X98193Y26693
X98143Y25693
X98118Y25218
X97493Y23893
X95493Y25143
X96843Y26543
X97993Y28143
X98493Y30393
X96993Y30393
X96943Y33443
X95793Y34143
X91293Y35093
X90293Y35093
X90293Y33143
X91293Y33093
X91293Y30893
X90293Y30893
X83293Y33143
X81293Y33093
X79293Y33093
X77693Y30893
X78293Y28393
X76993Y27593
X76593Y27193
X76293Y26393
X75293Y26643
X75693Y27443
X74293Y27643
X74793Y25893
X75293Y25393
X75993Y24493
X76943Y24643
X76943Y23143
X76868Y21868
X78293Y20893
X79293Y19393
X79793Y19893
X80293Y21043
X80843Y20893
X81603Y20703
X82343Y21343
X81493Y21693
X85293Y20943
X86293Y20893
X88793Y19893
X88793Y19393
X91293Y20893
X91293Y21893
X91293Y22893
X93293Y22893
X93293Y21893
X93293Y20893
X93293Y19393
X95343Y21343
X95993Y20198
X95993Y19448
X95993Y18698
X96993Y18448
X96993Y20448
X99993Y21393
X100493Y22643
X100993Y23893
X103493Y25393
X102993Y25893
X104193Y24493
X105143Y24643
X105143Y23143
X105068Y21868
X106493Y20893
X107493Y19393
X107993Y19893
X109803Y20703
X109043Y20893
X108493Y21043
X109693Y21693
X110543Y21343
X110993Y19393
X110493Y18693
X110993Y17893
X111651Y18086
X112193Y18006
X112093Y19143
X113801Y18736
X113793Y18193
X115493Y16393
X115993Y16393
X115993Y16893
X117693Y16893
X119493Y15893
X119493Y13893
X118493Y13893
X118493Y11943
X119493Y11893
X111493Y11943
X109493Y11893
X107493Y11893
X106488Y13688
X108493Y14393
X111488Y13688
X108993Y16893
X104343Y16193
X104493Y14893
X101843Y16893
X101793Y17993
X101993Y18693
X104493Y18893
X113493Y20943
X114493Y20893
X116993Y19893
X116993Y19393
X119493Y20893
X119493Y21893
X119493Y22893
X121493Y22893
X121493Y21893
X121493Y20893
X121493Y19393
X120993Y17393
X120493Y26393
X111488Y34888
X108493Y35593
X106488Y34888
X104493Y36093
X104343Y37393
X101843Y38093
X101793Y39193
X101993Y39893
X104493Y40093
X107493Y40593
X107993Y41093
X108493Y42243
X109043Y42093
X109803Y41903
X110543Y42543
X109693Y42893
X106493Y42093
X105068Y43068
X105143Y44343
X105143Y45843
X104193Y45693
X104493Y47593
X102493Y48843
X99993Y47593
X99543Y48343
X99543Y48843
X83293Y54343
X83288Y56088
X81293Y54293
X79293Y54293
X78288Y56088
X80293Y56793
X80793Y59293
X76143Y58593
X76293Y57293
X73643Y59293
X73593Y60393
X73793Y61093
X76293Y61293
X71793Y63793
X72293Y65043
X72793Y66293
X68793Y62848
X67793Y62598
X67793Y61848
X67793Y61098
X68793Y60848
X65093Y61793
X65093Y63293
X65093Y64293
X65093Y65293
X63093Y65293
X63093Y64293
X63093Y63293
X60593Y62293
X60593Y61793
X58093Y63293
X57093Y63343
X54593Y61793
X54093Y61093
X54593Y60293
X55251Y60486
X55793Y60406
X55693Y61543
X57401Y61136
X57393Y60593
X59093Y58793
X59593Y58793
X59593Y59293
X61293Y59293
X63093Y58293
X64593Y59793
X63093Y56293
X62093Y56293
X62093Y54343
X63093Y54293
X63093Y52093
X62093Y52093
X67593Y55343
X68743Y54643
X68793Y51593
X70293Y51593
X69793Y49343
X69893Y48543
X69993Y47893
X68643Y47743
X69943Y46893
X69918Y46418
X71793Y47593
X71343Y48343
X71343Y48843
X74293Y48843
X75293Y47843
X75693Y48643
X76593Y48393
X76993Y48793
X78293Y49593
X77693Y52093
X76293Y47593
X75293Y46593
X74793Y47093
X75993Y45693
X76943Y45843
X76943Y44343
X76868Y43068
X78293Y42093
X79793Y41093
X79293Y40593
X80293Y42243
X80843Y42093
X81603Y41903
X82343Y42543
X81493Y42893
X76293Y40093
X73793Y39893
X73593Y39193
X73643Y38093
X76143Y37393
X76293Y36093
X78288Y34888
X80293Y35593
X83288Y34888
X80793Y38093
X71793Y42593
X72293Y43843
X72793Y45093
X69293Y45093
X67293Y46343
X64093Y47593
X63093Y44093
X65093Y44093
X65093Y43093
X65093Y42093
X63093Y42093
X63093Y43093
X60593Y41093
X60593Y40593
X58093Y42093
X57093Y42143
X55693Y40343
X54593Y40593
X54093Y39893
X54593Y39093
X55251Y39286
X55793Y39206
X57393Y39393
X57401Y39936
X59593Y38093
X59593Y37593
X59093Y37593
X61293Y38093
X63093Y37093
X64593Y38593
X65093Y40593
X67793Y40648
X67793Y39898
X68793Y39648
X68793Y41648
X67793Y41398
X67143Y42543
X63093Y35093
X62093Y35093
X62093Y33143
X63093Y33093
X63093Y30893
X62093Y30893
X67593Y34143
X68743Y33443
X68793Y30393
X70293Y30393
X69793Y28143
X69893Y27343
X69993Y26693
X69943Y25693
X69918Y25218
X69293Y23893
X67293Y25143
X68643Y26543
X71343Y27143
X71343Y27643
X71793Y26393
X72793Y23893
X72293Y22643
X71793Y21393
X68793Y20448
X67793Y20198
X67793Y19448
X67793Y18698
X68793Y18448
X65093Y19393
X65093Y20893
X65093Y21893
X65093Y22893
X63093Y22893
X63093Y21893
X63093Y20893
X60593Y19893
X60593Y19393
X58093Y20893
X57093Y20943
X54593Y19393
X54093Y18693
X54593Y17893
X55251Y18086
X55793Y18006
X55693Y19143
X57401Y18736
X57393Y18193
X59093Y16393
X59593Y16393
X59593Y16893
X61293Y16893
X63093Y15893
X63093Y13893
X62093Y13893
X62093Y11943
X63093Y11893
X67593Y12943
X68743Y12243
X73643Y16893
X73593Y17993
X73793Y18693
X76293Y18893
X80793Y16893
X82793Y17893
X83451Y18086
X83993Y18006
X83893Y19143
X82793Y19393
X82293Y18693
X85601Y18736
X85593Y18193
X87293Y16393
X87793Y16393
X87793Y16893
X89493Y16893
X91293Y15893
X91293Y13893
X90293Y13893
X90293Y11943
X91293Y11893
X95793Y12943
X96943Y12243
X92793Y17393
X83288Y13688
X83293Y11943
X81293Y11893
X79293Y11893
X78288Y13688
X80293Y14393
X76293Y14893
X76143Y16193
X67143Y21343
X64593Y17393
X55088Y13688
X55093Y11943
X53093Y11893
X51093Y11893
X50088Y13688
X52093Y14393
X52593Y16893
X48093Y14893
X47943Y16193
X45443Y16893
X45393Y17993
X45593Y18693
X48093Y18893
X51093Y19393
X51593Y19893
X52093Y21043
X52643Y20893
X53403Y20703
X54143Y21343
X53293Y21693
X50093Y20893
X48668Y21868
X48743Y23143
X48743Y24643
X47793Y24493
X47093Y25393
X46593Y25893
X47093Y26643
X47493Y27443
X48393Y27193
X48793Y27593
X48093Y26393
X46093Y27643
X43593Y26393
X43143Y27143
X43143Y27643
X41693Y27343
X41793Y26693
X41743Y25693
X41718Y25218
X41093Y23893
X39093Y25143
X40443Y26543
X41593Y28143
X42093Y30393
X40593Y30393
X40543Y33443
X39393Y34143
X34893Y35093
X33893Y35093
X33893Y33143
X34893Y33093
X34893Y30893
X33893Y30893
X26893Y33143
X24893Y33093
X22893Y33093
X21293Y30893
X21893Y28393
X16393Y23893
X15893Y22643
X15393Y21393
X12393Y20448
X11393Y20198
X11393Y19448
X11393Y18698
X12393Y18448
X10743Y21343
X19743Y16193
X19893Y14893
X21888Y13688
X23893Y14393
X24393Y16893
X26393Y17893
X27051Y18086
X27593Y18006
X27493Y19143
X26393Y19393
X25893Y18693
X25203Y20703
X24443Y20893
X23893Y21043
X25093Y21693
X25943Y21343
X23393Y19893
X22893Y19393
X28893Y20943
X29893Y20893
X32393Y19893
X32393Y19393
X34893Y20893
X34893Y21893
X34893Y22893
X36893Y22893
X36893Y21893
X36893Y20893
X36893Y19393
X39593Y19448
X39593Y18698
X40593Y18448
X40593Y20448
X39593Y20198
X38943Y21343
X43593Y21393
X44093Y22643
X44593Y23893
X50093Y28393
X49493Y30893
X51093Y33093
X53093Y33093
X55093Y33143
X55088Y34888
X52093Y35593
X50088Y34888
X48093Y36093
X47943Y37393
X45443Y38093
X45393Y39193
X45593Y39893
X48093Y40093
X51093Y40593
X51593Y41093
X52093Y42243
X52643Y42093
X53403Y41903
X54143Y42543
X53293Y42893
X50093Y42093
X48668Y43068
X48743Y44343
X48743Y45843
X47793Y45693
X47093Y46593
X46593Y47093
X48093Y47593
X44593Y45093
X44093Y43843
X43593Y42593
X40593Y41648
X39593Y41398
X39593Y40648
X39593Y39898
X40593Y39648
X36893Y40593
X36893Y42093
X36893Y43093
X34893Y43093
X34893Y42093
X32393Y41093
X32393Y40593
X29893Y42093
X28893Y42143
X25943Y42543
X25093Y42893
X25203Y41903
X24443Y42093
X23893Y42243
X16393Y45093
X15893Y43843
X15393Y42593
X12393Y41648
X11393Y41398
X11393Y40648
X11393Y39898
X12393Y39648
X10743Y42543
X12893Y45093
X13518Y46418
X13543Y46893
X12243Y47743
X13593Y47893
X13493Y48543
X13393Y49343
X14943Y48843
X14943Y48343
X15393Y47593
X17893Y48843
X19893Y47593
X13893Y51593
X12393Y51593
X12343Y54643
X11193Y55343
X10893Y46343
X26888Y34888
X30893Y37593
X31393Y37593
X31393Y38093
X33093Y38093
X34893Y37093
X36393Y38593
X38943Y42543
X36893Y44093
X34893Y44093
X39093Y46343
X41093Y45093
X35893Y47593
X52593Y38093
X64093Y26393
X40543Y12243
X39393Y12943
X34893Y13893
X33893Y13893
X34893Y15893
X33093Y16893
X31393Y16893
X31393Y16393
X30893Y16393
X29193Y18193
X29201Y18736
X36393Y17393
X34893Y11893
X33893Y11943
X26893Y11943
X26888Y13688
X24893Y11893
X22893Y11893
X35893Y26393
X52593Y59293
X67143Y63743
X64093Y68793
X77693Y73293
X78293Y70793
X108993Y38093
X92293Y26393
T02
X96924Y25256
X96924Y27531
X68724Y27531
X68724Y25256
X40524Y25256
X40524Y27531
X12324Y27531
X12324Y25256
X12324Y46456
X12324Y48731
X40524Y48731
X40524Y46456
X68724Y46456
X68724Y48731
X96924Y48731
X96924Y46456
X96924Y67656
X96924Y69931
X68724Y69931
X68724Y67656
X40524Y67656
X40524Y69931
X12324Y69931
X12324Y67656
T03
X35893Y64793
X35893Y63793
X64093Y63793
X64093Y64793
X92293Y64793
X92293Y63793
X120493Y63793
X120493Y64793
X120493Y43593
X120493Y42593
X92293Y42593
X92293Y43593
X64093Y43593
X64093Y42593
X35893Y42593
X35893Y43593
X35893Y22393
X35893Y21393
X64093Y21393
X64093Y22393
X92293Y22393
X92293Y21393
X120493Y21393
X120493Y22393
T04
X97593Y14293
X95793Y14293
X69393Y14293
X67593Y14293
X41193Y14293
X39393Y14293
X12993Y14293
X11193Y14293
X11193Y35493
X12993Y35493
X39393Y35493
X41193Y35493
X67593Y35493
X69393Y35493
X95793Y35493
X97593Y35493
X97593Y56693
X95793Y56693
X69393Y56693
X67593Y56693
X41193Y56693
X39393Y56693
X12993Y56693
X11193Y56693
T05
X15893Y54293
X16393Y52093
X36393Y56293
X44093Y54293
X44593Y52093
X36393Y46093
X36393Y35093
X44093Y33093
X44593Y30893
X36393Y24893
X36393Y13893
X44093Y11893
X64593Y13893
X72293Y11893
X92793Y13893
X100493Y11893
X120993Y13893
X120993Y24893
X120993Y35093
X120993Y46093
X120993Y56293
X120993Y67293
X100993Y73293
X92793Y67293
X92793Y56293
X100493Y54293
X100993Y52093
X92793Y46093
X92793Y35093
X100493Y33093
X100993Y30893
X92793Y24893
X72793Y30893
X72293Y33093
X64593Y35093
X64593Y24893
X64593Y46093
X72793Y52093
X72293Y54293
X64593Y56293
X64593Y67293
X72793Y73293
X44593Y73293
X36393Y67293
X16393Y73293
X15893Y33093
X16393Y30893
X15893Y11893
M30
