G04 EAGLE Gerber RS-274X export*
G75*
%MOMM*%
%FSLAX34Y34*%
%LPD*%
%INSoldermask Bottom*%
%IPPOS*%
%AMOC8*
5,1,8,0,0,1.08239X$1,22.5*%
G01*
%ADD10C,3.505200*%
%ADD11C,2.003200*%
%ADD12C,1.473200*%
%ADD13C,2.235200*%
%ADD14C,0.853200*%
%ADD15R,0.838200X1.473200*%
%ADD16R,3.203200X1.103200*%
%ADD17C,1.053200*%
%ADD18C,2.082800*%

G36*
X611570Y1303667D02*
X611570Y1303667D01*
X611636Y1303669D01*
X611679Y1303687D01*
X611726Y1303695D01*
X611783Y1303729D01*
X611843Y1303754D01*
X611878Y1303785D01*
X611919Y1303810D01*
X611961Y1303861D01*
X612009Y1303905D01*
X612031Y1303947D01*
X612060Y1303984D01*
X612081Y1304046D01*
X612112Y1304105D01*
X612120Y1304159D01*
X612132Y1304196D01*
X612131Y1304236D01*
X612139Y1304290D01*
X612139Y1306830D01*
X612128Y1306895D01*
X612126Y1306961D01*
X612108Y1307004D01*
X612100Y1307051D01*
X612066Y1307108D01*
X612041Y1307168D01*
X612010Y1307203D01*
X611985Y1307244D01*
X611934Y1307286D01*
X611890Y1307334D01*
X611848Y1307356D01*
X611811Y1307385D01*
X611749Y1307406D01*
X611690Y1307437D01*
X611636Y1307445D01*
X611599Y1307457D01*
X611559Y1307456D01*
X611505Y1307464D01*
X607695Y1307464D01*
X607630Y1307453D01*
X607564Y1307451D01*
X607521Y1307433D01*
X607474Y1307425D01*
X607417Y1307391D01*
X607357Y1307366D01*
X607322Y1307335D01*
X607281Y1307310D01*
X607240Y1307259D01*
X607191Y1307215D01*
X607169Y1307173D01*
X607140Y1307136D01*
X607119Y1307074D01*
X607088Y1307015D01*
X607080Y1306961D01*
X607068Y1306924D01*
X607068Y1306921D01*
X607069Y1306884D01*
X607061Y1306830D01*
X607061Y1304290D01*
X607072Y1304225D01*
X607074Y1304159D01*
X607092Y1304116D01*
X607100Y1304069D01*
X607134Y1304012D01*
X607159Y1303952D01*
X607190Y1303917D01*
X607215Y1303876D01*
X607266Y1303835D01*
X607310Y1303786D01*
X607352Y1303764D01*
X607389Y1303735D01*
X607451Y1303714D01*
X607510Y1303683D01*
X607564Y1303675D01*
X607601Y1303663D01*
X607641Y1303664D01*
X607695Y1303656D01*
X611505Y1303656D01*
X611570Y1303667D01*
G37*
G36*
X1331660Y1303667D02*
X1331660Y1303667D01*
X1331726Y1303669D01*
X1331769Y1303687D01*
X1331816Y1303695D01*
X1331873Y1303729D01*
X1331933Y1303754D01*
X1331968Y1303785D01*
X1332009Y1303810D01*
X1332051Y1303861D01*
X1332099Y1303905D01*
X1332121Y1303947D01*
X1332150Y1303984D01*
X1332171Y1304046D01*
X1332202Y1304105D01*
X1332210Y1304159D01*
X1332222Y1304196D01*
X1332221Y1304236D01*
X1332229Y1304290D01*
X1332229Y1306830D01*
X1332218Y1306895D01*
X1332216Y1306961D01*
X1332198Y1307004D01*
X1332190Y1307051D01*
X1332156Y1307108D01*
X1332131Y1307168D01*
X1332100Y1307203D01*
X1332075Y1307244D01*
X1332024Y1307286D01*
X1331980Y1307334D01*
X1331938Y1307356D01*
X1331901Y1307385D01*
X1331839Y1307406D01*
X1331780Y1307437D01*
X1331726Y1307445D01*
X1331689Y1307457D01*
X1331649Y1307456D01*
X1331595Y1307464D01*
X1327785Y1307464D01*
X1327720Y1307453D01*
X1327654Y1307451D01*
X1327611Y1307433D01*
X1327564Y1307425D01*
X1327507Y1307391D01*
X1327447Y1307366D01*
X1327412Y1307335D01*
X1327371Y1307310D01*
X1327330Y1307259D01*
X1327281Y1307215D01*
X1327259Y1307173D01*
X1327230Y1307136D01*
X1327209Y1307074D01*
X1327178Y1307015D01*
X1327170Y1306961D01*
X1327158Y1306924D01*
X1327158Y1306921D01*
X1327159Y1306884D01*
X1327151Y1306830D01*
X1327151Y1304290D01*
X1327162Y1304225D01*
X1327164Y1304159D01*
X1327182Y1304116D01*
X1327190Y1304069D01*
X1327224Y1304012D01*
X1327249Y1303952D01*
X1327280Y1303917D01*
X1327305Y1303876D01*
X1327356Y1303835D01*
X1327400Y1303786D01*
X1327442Y1303764D01*
X1327479Y1303735D01*
X1327541Y1303714D01*
X1327600Y1303683D01*
X1327654Y1303675D01*
X1327691Y1303663D01*
X1327731Y1303664D01*
X1327785Y1303656D01*
X1331595Y1303656D01*
X1331660Y1303667D01*
G37*
G36*
X573470Y1303667D02*
X573470Y1303667D01*
X573536Y1303669D01*
X573579Y1303687D01*
X573626Y1303695D01*
X573683Y1303729D01*
X573743Y1303754D01*
X573778Y1303785D01*
X573819Y1303810D01*
X573861Y1303861D01*
X573909Y1303905D01*
X573931Y1303947D01*
X573960Y1303984D01*
X573981Y1304046D01*
X574012Y1304105D01*
X574020Y1304159D01*
X574032Y1304196D01*
X574031Y1304236D01*
X574039Y1304290D01*
X574039Y1306830D01*
X574028Y1306895D01*
X574026Y1306961D01*
X574008Y1307004D01*
X574000Y1307051D01*
X573966Y1307108D01*
X573941Y1307168D01*
X573910Y1307203D01*
X573885Y1307244D01*
X573834Y1307286D01*
X573790Y1307334D01*
X573748Y1307356D01*
X573711Y1307385D01*
X573649Y1307406D01*
X573590Y1307437D01*
X573536Y1307445D01*
X573499Y1307457D01*
X573459Y1307456D01*
X573405Y1307464D01*
X569595Y1307464D01*
X569530Y1307453D01*
X569464Y1307451D01*
X569421Y1307433D01*
X569374Y1307425D01*
X569317Y1307391D01*
X569257Y1307366D01*
X569222Y1307335D01*
X569181Y1307310D01*
X569140Y1307259D01*
X569091Y1307215D01*
X569069Y1307173D01*
X569040Y1307136D01*
X569019Y1307074D01*
X568988Y1307015D01*
X568980Y1306961D01*
X568968Y1306924D01*
X568968Y1306921D01*
X568969Y1306884D01*
X568961Y1306830D01*
X568961Y1304290D01*
X568972Y1304225D01*
X568974Y1304159D01*
X568992Y1304116D01*
X569000Y1304069D01*
X569034Y1304012D01*
X569059Y1303952D01*
X569090Y1303917D01*
X569115Y1303876D01*
X569166Y1303835D01*
X569210Y1303786D01*
X569252Y1303764D01*
X569289Y1303735D01*
X569351Y1303714D01*
X569410Y1303683D01*
X569464Y1303675D01*
X569501Y1303663D01*
X569541Y1303664D01*
X569595Y1303656D01*
X573405Y1303656D01*
X573470Y1303667D01*
G37*
G36*
X2051750Y1303667D02*
X2051750Y1303667D01*
X2051816Y1303669D01*
X2051859Y1303687D01*
X2051906Y1303695D01*
X2051963Y1303729D01*
X2052023Y1303754D01*
X2052058Y1303785D01*
X2052099Y1303810D01*
X2052141Y1303861D01*
X2052189Y1303905D01*
X2052211Y1303947D01*
X2052240Y1303984D01*
X2052261Y1304046D01*
X2052292Y1304105D01*
X2052300Y1304159D01*
X2052312Y1304196D01*
X2052311Y1304236D01*
X2052319Y1304290D01*
X2052319Y1306830D01*
X2052308Y1306895D01*
X2052306Y1306961D01*
X2052288Y1307004D01*
X2052280Y1307051D01*
X2052246Y1307108D01*
X2052221Y1307168D01*
X2052190Y1307203D01*
X2052165Y1307244D01*
X2052114Y1307286D01*
X2052070Y1307334D01*
X2052028Y1307356D01*
X2051991Y1307385D01*
X2051929Y1307406D01*
X2051870Y1307437D01*
X2051816Y1307445D01*
X2051779Y1307457D01*
X2051739Y1307456D01*
X2051685Y1307464D01*
X2047875Y1307464D01*
X2047810Y1307453D01*
X2047744Y1307451D01*
X2047701Y1307433D01*
X2047654Y1307425D01*
X2047597Y1307391D01*
X2047537Y1307366D01*
X2047502Y1307335D01*
X2047461Y1307310D01*
X2047420Y1307259D01*
X2047371Y1307215D01*
X2047349Y1307173D01*
X2047320Y1307136D01*
X2047299Y1307074D01*
X2047268Y1307015D01*
X2047260Y1306961D01*
X2047248Y1306924D01*
X2047248Y1306921D01*
X2047249Y1306884D01*
X2047241Y1306830D01*
X2047241Y1304290D01*
X2047252Y1304225D01*
X2047254Y1304159D01*
X2047272Y1304116D01*
X2047280Y1304069D01*
X2047314Y1304012D01*
X2047339Y1303952D01*
X2047370Y1303917D01*
X2047395Y1303876D01*
X2047446Y1303835D01*
X2047490Y1303786D01*
X2047532Y1303764D01*
X2047569Y1303735D01*
X2047631Y1303714D01*
X2047690Y1303683D01*
X2047744Y1303675D01*
X2047781Y1303663D01*
X2047821Y1303664D01*
X2047875Y1303656D01*
X2051685Y1303656D01*
X2051750Y1303667D01*
G37*
G36*
X2013650Y1303667D02*
X2013650Y1303667D01*
X2013716Y1303669D01*
X2013759Y1303687D01*
X2013806Y1303695D01*
X2013863Y1303729D01*
X2013923Y1303754D01*
X2013958Y1303785D01*
X2013999Y1303810D01*
X2014041Y1303861D01*
X2014089Y1303905D01*
X2014111Y1303947D01*
X2014140Y1303984D01*
X2014161Y1304046D01*
X2014192Y1304105D01*
X2014200Y1304159D01*
X2014212Y1304196D01*
X2014211Y1304236D01*
X2014219Y1304290D01*
X2014219Y1306830D01*
X2014208Y1306895D01*
X2014206Y1306961D01*
X2014188Y1307004D01*
X2014180Y1307051D01*
X2014146Y1307108D01*
X2014121Y1307168D01*
X2014090Y1307203D01*
X2014065Y1307244D01*
X2014014Y1307286D01*
X2013970Y1307334D01*
X2013928Y1307356D01*
X2013891Y1307385D01*
X2013829Y1307406D01*
X2013770Y1307437D01*
X2013716Y1307445D01*
X2013679Y1307457D01*
X2013639Y1307456D01*
X2013585Y1307464D01*
X2009775Y1307464D01*
X2009710Y1307453D01*
X2009644Y1307451D01*
X2009601Y1307433D01*
X2009554Y1307425D01*
X2009497Y1307391D01*
X2009437Y1307366D01*
X2009402Y1307335D01*
X2009361Y1307310D01*
X2009320Y1307259D01*
X2009271Y1307215D01*
X2009249Y1307173D01*
X2009220Y1307136D01*
X2009199Y1307074D01*
X2009168Y1307015D01*
X2009160Y1306961D01*
X2009148Y1306924D01*
X2009148Y1306921D01*
X2009149Y1306884D01*
X2009141Y1306830D01*
X2009141Y1304290D01*
X2009152Y1304225D01*
X2009154Y1304159D01*
X2009172Y1304116D01*
X2009180Y1304069D01*
X2009214Y1304012D01*
X2009239Y1303952D01*
X2009270Y1303917D01*
X2009295Y1303876D01*
X2009346Y1303835D01*
X2009390Y1303786D01*
X2009432Y1303764D01*
X2009469Y1303735D01*
X2009531Y1303714D01*
X2009590Y1303683D01*
X2009644Y1303675D01*
X2009681Y1303663D01*
X2009721Y1303664D01*
X2009775Y1303656D01*
X2013585Y1303656D01*
X2013650Y1303667D01*
G37*
G36*
X1293560Y1303667D02*
X1293560Y1303667D01*
X1293626Y1303669D01*
X1293669Y1303687D01*
X1293716Y1303695D01*
X1293773Y1303729D01*
X1293833Y1303754D01*
X1293868Y1303785D01*
X1293909Y1303810D01*
X1293951Y1303861D01*
X1293999Y1303905D01*
X1294021Y1303947D01*
X1294050Y1303984D01*
X1294071Y1304046D01*
X1294102Y1304105D01*
X1294110Y1304159D01*
X1294122Y1304196D01*
X1294121Y1304236D01*
X1294129Y1304290D01*
X1294129Y1306830D01*
X1294118Y1306895D01*
X1294116Y1306961D01*
X1294098Y1307004D01*
X1294090Y1307051D01*
X1294056Y1307108D01*
X1294031Y1307168D01*
X1294000Y1307203D01*
X1293975Y1307244D01*
X1293924Y1307286D01*
X1293880Y1307334D01*
X1293838Y1307356D01*
X1293801Y1307385D01*
X1293739Y1307406D01*
X1293680Y1307437D01*
X1293626Y1307445D01*
X1293589Y1307457D01*
X1293549Y1307456D01*
X1293495Y1307464D01*
X1289685Y1307464D01*
X1289620Y1307453D01*
X1289554Y1307451D01*
X1289511Y1307433D01*
X1289464Y1307425D01*
X1289407Y1307391D01*
X1289347Y1307366D01*
X1289312Y1307335D01*
X1289271Y1307310D01*
X1289230Y1307259D01*
X1289181Y1307215D01*
X1289159Y1307173D01*
X1289130Y1307136D01*
X1289109Y1307074D01*
X1289078Y1307015D01*
X1289070Y1306961D01*
X1289058Y1306924D01*
X1289058Y1306921D01*
X1289059Y1306884D01*
X1289051Y1306830D01*
X1289051Y1304290D01*
X1289062Y1304225D01*
X1289064Y1304159D01*
X1289082Y1304116D01*
X1289090Y1304069D01*
X1289124Y1304012D01*
X1289149Y1303952D01*
X1289180Y1303917D01*
X1289205Y1303876D01*
X1289256Y1303835D01*
X1289300Y1303786D01*
X1289342Y1303764D01*
X1289379Y1303735D01*
X1289441Y1303714D01*
X1289500Y1303683D01*
X1289554Y1303675D01*
X1289591Y1303663D01*
X1289631Y1303664D01*
X1289685Y1303656D01*
X1293495Y1303656D01*
X1293560Y1303667D01*
G37*
G36*
X1293560Y714387D02*
X1293560Y714387D01*
X1293626Y714389D01*
X1293669Y714407D01*
X1293716Y714415D01*
X1293773Y714449D01*
X1293833Y714474D01*
X1293868Y714505D01*
X1293909Y714530D01*
X1293951Y714581D01*
X1293999Y714625D01*
X1294021Y714667D01*
X1294050Y714704D01*
X1294071Y714766D01*
X1294102Y714825D01*
X1294110Y714879D01*
X1294122Y714916D01*
X1294121Y714956D01*
X1294129Y715010D01*
X1294129Y717550D01*
X1294118Y717615D01*
X1294116Y717681D01*
X1294098Y717724D01*
X1294090Y717771D01*
X1294056Y717828D01*
X1294031Y717888D01*
X1294000Y717923D01*
X1293975Y717964D01*
X1293924Y718006D01*
X1293880Y718054D01*
X1293838Y718076D01*
X1293801Y718105D01*
X1293739Y718126D01*
X1293680Y718157D01*
X1293626Y718165D01*
X1293589Y718177D01*
X1293549Y718176D01*
X1293495Y718184D01*
X1289685Y718184D01*
X1289620Y718173D01*
X1289554Y718171D01*
X1289511Y718153D01*
X1289464Y718145D01*
X1289407Y718111D01*
X1289347Y718086D01*
X1289312Y718055D01*
X1289271Y718030D01*
X1289230Y717979D01*
X1289181Y717935D01*
X1289159Y717893D01*
X1289130Y717856D01*
X1289109Y717794D01*
X1289078Y717735D01*
X1289070Y717681D01*
X1289058Y717644D01*
X1289058Y717641D01*
X1289059Y717604D01*
X1289051Y717550D01*
X1289051Y715010D01*
X1289062Y714945D01*
X1289064Y714879D01*
X1289082Y714836D01*
X1289090Y714789D01*
X1289124Y714732D01*
X1289149Y714672D01*
X1289180Y714637D01*
X1289205Y714596D01*
X1289256Y714555D01*
X1289300Y714506D01*
X1289342Y714484D01*
X1289379Y714455D01*
X1289441Y714434D01*
X1289500Y714403D01*
X1289554Y714395D01*
X1289591Y714383D01*
X1289631Y714384D01*
X1289685Y714376D01*
X1293495Y714376D01*
X1293560Y714387D01*
G37*
G36*
X2013650Y714387D02*
X2013650Y714387D01*
X2013716Y714389D01*
X2013759Y714407D01*
X2013806Y714415D01*
X2013863Y714449D01*
X2013923Y714474D01*
X2013958Y714505D01*
X2013999Y714530D01*
X2014041Y714581D01*
X2014089Y714625D01*
X2014111Y714667D01*
X2014140Y714704D01*
X2014161Y714766D01*
X2014192Y714825D01*
X2014200Y714879D01*
X2014212Y714916D01*
X2014211Y714956D01*
X2014219Y715010D01*
X2014219Y717550D01*
X2014208Y717615D01*
X2014206Y717681D01*
X2014188Y717724D01*
X2014180Y717771D01*
X2014146Y717828D01*
X2014121Y717888D01*
X2014090Y717923D01*
X2014065Y717964D01*
X2014014Y718006D01*
X2013970Y718054D01*
X2013928Y718076D01*
X2013891Y718105D01*
X2013829Y718126D01*
X2013770Y718157D01*
X2013716Y718165D01*
X2013679Y718177D01*
X2013639Y718176D01*
X2013585Y718184D01*
X2009775Y718184D01*
X2009710Y718173D01*
X2009644Y718171D01*
X2009601Y718153D01*
X2009554Y718145D01*
X2009497Y718111D01*
X2009437Y718086D01*
X2009402Y718055D01*
X2009361Y718030D01*
X2009320Y717979D01*
X2009271Y717935D01*
X2009249Y717893D01*
X2009220Y717856D01*
X2009199Y717794D01*
X2009168Y717735D01*
X2009160Y717681D01*
X2009148Y717644D01*
X2009148Y717641D01*
X2009149Y717604D01*
X2009141Y717550D01*
X2009141Y715010D01*
X2009152Y714945D01*
X2009154Y714879D01*
X2009172Y714836D01*
X2009180Y714789D01*
X2009214Y714732D01*
X2009239Y714672D01*
X2009270Y714637D01*
X2009295Y714596D01*
X2009346Y714555D01*
X2009390Y714506D01*
X2009432Y714484D01*
X2009469Y714455D01*
X2009531Y714434D01*
X2009590Y714403D01*
X2009644Y714395D01*
X2009681Y714383D01*
X2009721Y714384D01*
X2009775Y714376D01*
X2013585Y714376D01*
X2013650Y714387D01*
G37*
G36*
X573470Y714387D02*
X573470Y714387D01*
X573536Y714389D01*
X573579Y714407D01*
X573626Y714415D01*
X573683Y714449D01*
X573743Y714474D01*
X573778Y714505D01*
X573819Y714530D01*
X573861Y714581D01*
X573909Y714625D01*
X573931Y714667D01*
X573960Y714704D01*
X573981Y714766D01*
X574012Y714825D01*
X574020Y714879D01*
X574032Y714916D01*
X574031Y714956D01*
X574039Y715010D01*
X574039Y717550D01*
X574028Y717615D01*
X574026Y717681D01*
X574008Y717724D01*
X574000Y717771D01*
X573966Y717828D01*
X573941Y717888D01*
X573910Y717923D01*
X573885Y717964D01*
X573834Y718006D01*
X573790Y718054D01*
X573748Y718076D01*
X573711Y718105D01*
X573649Y718126D01*
X573590Y718157D01*
X573536Y718165D01*
X573499Y718177D01*
X573459Y718176D01*
X573405Y718184D01*
X569595Y718184D01*
X569530Y718173D01*
X569464Y718171D01*
X569421Y718153D01*
X569374Y718145D01*
X569317Y718111D01*
X569257Y718086D01*
X569222Y718055D01*
X569181Y718030D01*
X569140Y717979D01*
X569091Y717935D01*
X569069Y717893D01*
X569040Y717856D01*
X569019Y717794D01*
X568988Y717735D01*
X568980Y717681D01*
X568968Y717644D01*
X568968Y717641D01*
X568969Y717604D01*
X568961Y717550D01*
X568961Y715010D01*
X568972Y714945D01*
X568974Y714879D01*
X568992Y714836D01*
X569000Y714789D01*
X569034Y714732D01*
X569059Y714672D01*
X569090Y714637D01*
X569115Y714596D01*
X569166Y714555D01*
X569210Y714506D01*
X569252Y714484D01*
X569289Y714455D01*
X569351Y714434D01*
X569410Y714403D01*
X569464Y714395D01*
X569501Y714383D01*
X569541Y714384D01*
X569595Y714376D01*
X573405Y714376D01*
X573470Y714387D01*
G37*
G36*
X611570Y714387D02*
X611570Y714387D01*
X611636Y714389D01*
X611679Y714407D01*
X611726Y714415D01*
X611783Y714449D01*
X611843Y714474D01*
X611878Y714505D01*
X611919Y714530D01*
X611961Y714581D01*
X612009Y714625D01*
X612031Y714667D01*
X612060Y714704D01*
X612081Y714766D01*
X612112Y714825D01*
X612120Y714879D01*
X612132Y714916D01*
X612131Y714956D01*
X612139Y715010D01*
X612139Y717550D01*
X612128Y717615D01*
X612126Y717681D01*
X612108Y717724D01*
X612100Y717771D01*
X612066Y717828D01*
X612041Y717888D01*
X612010Y717923D01*
X611985Y717964D01*
X611934Y718006D01*
X611890Y718054D01*
X611848Y718076D01*
X611811Y718105D01*
X611749Y718126D01*
X611690Y718157D01*
X611636Y718165D01*
X611599Y718177D01*
X611559Y718176D01*
X611505Y718184D01*
X607695Y718184D01*
X607630Y718173D01*
X607564Y718171D01*
X607521Y718153D01*
X607474Y718145D01*
X607417Y718111D01*
X607357Y718086D01*
X607322Y718055D01*
X607281Y718030D01*
X607240Y717979D01*
X607191Y717935D01*
X607169Y717893D01*
X607140Y717856D01*
X607119Y717794D01*
X607088Y717735D01*
X607080Y717681D01*
X607068Y717644D01*
X607068Y717641D01*
X607069Y717604D01*
X607061Y717550D01*
X607061Y715010D01*
X607072Y714945D01*
X607074Y714879D01*
X607092Y714836D01*
X607100Y714789D01*
X607134Y714732D01*
X607159Y714672D01*
X607190Y714637D01*
X607215Y714596D01*
X607266Y714555D01*
X607310Y714506D01*
X607352Y714484D01*
X607389Y714455D01*
X607451Y714434D01*
X607510Y714403D01*
X607564Y714395D01*
X607601Y714383D01*
X607641Y714384D01*
X607695Y714376D01*
X611505Y714376D01*
X611570Y714387D01*
G37*
G36*
X2051750Y714387D02*
X2051750Y714387D01*
X2051816Y714389D01*
X2051859Y714407D01*
X2051906Y714415D01*
X2051963Y714449D01*
X2052023Y714474D01*
X2052058Y714505D01*
X2052099Y714530D01*
X2052141Y714581D01*
X2052189Y714625D01*
X2052211Y714667D01*
X2052240Y714704D01*
X2052261Y714766D01*
X2052292Y714825D01*
X2052300Y714879D01*
X2052312Y714916D01*
X2052311Y714956D01*
X2052319Y715010D01*
X2052319Y717550D01*
X2052308Y717615D01*
X2052306Y717681D01*
X2052288Y717724D01*
X2052280Y717771D01*
X2052246Y717828D01*
X2052221Y717888D01*
X2052190Y717923D01*
X2052165Y717964D01*
X2052114Y718006D01*
X2052070Y718054D01*
X2052028Y718076D01*
X2051991Y718105D01*
X2051929Y718126D01*
X2051870Y718157D01*
X2051816Y718165D01*
X2051779Y718177D01*
X2051739Y718176D01*
X2051685Y718184D01*
X2047875Y718184D01*
X2047810Y718173D01*
X2047744Y718171D01*
X2047701Y718153D01*
X2047654Y718145D01*
X2047597Y718111D01*
X2047537Y718086D01*
X2047502Y718055D01*
X2047461Y718030D01*
X2047420Y717979D01*
X2047371Y717935D01*
X2047349Y717893D01*
X2047320Y717856D01*
X2047299Y717794D01*
X2047268Y717735D01*
X2047260Y717681D01*
X2047248Y717644D01*
X2047248Y717641D01*
X2047249Y717604D01*
X2047241Y717550D01*
X2047241Y715010D01*
X2047252Y714945D01*
X2047254Y714879D01*
X2047272Y714836D01*
X2047280Y714789D01*
X2047314Y714732D01*
X2047339Y714672D01*
X2047370Y714637D01*
X2047395Y714596D01*
X2047446Y714555D01*
X2047490Y714506D01*
X2047532Y714484D01*
X2047569Y714455D01*
X2047631Y714434D01*
X2047690Y714403D01*
X2047744Y714395D01*
X2047781Y714383D01*
X2047821Y714384D01*
X2047875Y714376D01*
X2051685Y714376D01*
X2051750Y714387D01*
G37*
G36*
X1331660Y714387D02*
X1331660Y714387D01*
X1331726Y714389D01*
X1331769Y714407D01*
X1331816Y714415D01*
X1331873Y714449D01*
X1331933Y714474D01*
X1331968Y714505D01*
X1332009Y714530D01*
X1332051Y714581D01*
X1332099Y714625D01*
X1332121Y714667D01*
X1332150Y714704D01*
X1332171Y714766D01*
X1332202Y714825D01*
X1332210Y714879D01*
X1332222Y714916D01*
X1332221Y714956D01*
X1332229Y715010D01*
X1332229Y717550D01*
X1332218Y717615D01*
X1332216Y717681D01*
X1332198Y717724D01*
X1332190Y717771D01*
X1332156Y717828D01*
X1332131Y717888D01*
X1332100Y717923D01*
X1332075Y717964D01*
X1332024Y718006D01*
X1331980Y718054D01*
X1331938Y718076D01*
X1331901Y718105D01*
X1331839Y718126D01*
X1331780Y718157D01*
X1331726Y718165D01*
X1331689Y718177D01*
X1331649Y718176D01*
X1331595Y718184D01*
X1327785Y718184D01*
X1327720Y718173D01*
X1327654Y718171D01*
X1327611Y718153D01*
X1327564Y718145D01*
X1327507Y718111D01*
X1327447Y718086D01*
X1327412Y718055D01*
X1327371Y718030D01*
X1327330Y717979D01*
X1327281Y717935D01*
X1327259Y717893D01*
X1327230Y717856D01*
X1327209Y717794D01*
X1327178Y717735D01*
X1327170Y717681D01*
X1327158Y717644D01*
X1327158Y717641D01*
X1327159Y717604D01*
X1327151Y717550D01*
X1327151Y715010D01*
X1327162Y714945D01*
X1327164Y714879D01*
X1327182Y714836D01*
X1327190Y714789D01*
X1327224Y714732D01*
X1327249Y714672D01*
X1327280Y714637D01*
X1327305Y714596D01*
X1327356Y714555D01*
X1327400Y714506D01*
X1327442Y714484D01*
X1327479Y714455D01*
X1327541Y714434D01*
X1327600Y714403D01*
X1327654Y714395D01*
X1327691Y714383D01*
X1327731Y714384D01*
X1327785Y714376D01*
X1331595Y714376D01*
X1331660Y714387D01*
G37*
G36*
X2051750Y125107D02*
X2051750Y125107D01*
X2051816Y125109D01*
X2051859Y125127D01*
X2051906Y125135D01*
X2051963Y125169D01*
X2052023Y125194D01*
X2052058Y125225D01*
X2052099Y125250D01*
X2052141Y125301D01*
X2052189Y125345D01*
X2052211Y125387D01*
X2052240Y125424D01*
X2052261Y125486D01*
X2052292Y125545D01*
X2052300Y125599D01*
X2052312Y125636D01*
X2052311Y125676D01*
X2052319Y125730D01*
X2052319Y128270D01*
X2052308Y128335D01*
X2052306Y128401D01*
X2052288Y128444D01*
X2052280Y128491D01*
X2052246Y128548D01*
X2052221Y128608D01*
X2052190Y128643D01*
X2052165Y128684D01*
X2052114Y128726D01*
X2052070Y128774D01*
X2052028Y128796D01*
X2051991Y128825D01*
X2051929Y128846D01*
X2051870Y128877D01*
X2051816Y128885D01*
X2051779Y128897D01*
X2051739Y128896D01*
X2051685Y128904D01*
X2047875Y128904D01*
X2047810Y128893D01*
X2047744Y128891D01*
X2047701Y128873D01*
X2047654Y128865D01*
X2047597Y128831D01*
X2047537Y128806D01*
X2047502Y128775D01*
X2047461Y128750D01*
X2047420Y128699D01*
X2047371Y128655D01*
X2047349Y128613D01*
X2047320Y128576D01*
X2047299Y128514D01*
X2047268Y128455D01*
X2047260Y128401D01*
X2047248Y128364D01*
X2047248Y128361D01*
X2047249Y128324D01*
X2047241Y128270D01*
X2047241Y125730D01*
X2047252Y125665D01*
X2047254Y125599D01*
X2047272Y125556D01*
X2047280Y125509D01*
X2047314Y125452D01*
X2047339Y125392D01*
X2047370Y125357D01*
X2047395Y125316D01*
X2047446Y125275D01*
X2047490Y125226D01*
X2047532Y125204D01*
X2047569Y125175D01*
X2047631Y125154D01*
X2047690Y125123D01*
X2047744Y125115D01*
X2047781Y125103D01*
X2047821Y125104D01*
X2047875Y125096D01*
X2051685Y125096D01*
X2051750Y125107D01*
G37*
G36*
X2013650Y125107D02*
X2013650Y125107D01*
X2013716Y125109D01*
X2013759Y125127D01*
X2013806Y125135D01*
X2013863Y125169D01*
X2013923Y125194D01*
X2013958Y125225D01*
X2013999Y125250D01*
X2014041Y125301D01*
X2014089Y125345D01*
X2014111Y125387D01*
X2014140Y125424D01*
X2014161Y125486D01*
X2014192Y125545D01*
X2014200Y125599D01*
X2014212Y125636D01*
X2014211Y125676D01*
X2014219Y125730D01*
X2014219Y128270D01*
X2014208Y128335D01*
X2014206Y128401D01*
X2014188Y128444D01*
X2014180Y128491D01*
X2014146Y128548D01*
X2014121Y128608D01*
X2014090Y128643D01*
X2014065Y128684D01*
X2014014Y128726D01*
X2013970Y128774D01*
X2013928Y128796D01*
X2013891Y128825D01*
X2013829Y128846D01*
X2013770Y128877D01*
X2013716Y128885D01*
X2013679Y128897D01*
X2013639Y128896D01*
X2013585Y128904D01*
X2009775Y128904D01*
X2009710Y128893D01*
X2009644Y128891D01*
X2009601Y128873D01*
X2009554Y128865D01*
X2009497Y128831D01*
X2009437Y128806D01*
X2009402Y128775D01*
X2009361Y128750D01*
X2009320Y128699D01*
X2009271Y128655D01*
X2009249Y128613D01*
X2009220Y128576D01*
X2009199Y128514D01*
X2009168Y128455D01*
X2009160Y128401D01*
X2009148Y128364D01*
X2009148Y128361D01*
X2009149Y128324D01*
X2009141Y128270D01*
X2009141Y125730D01*
X2009152Y125665D01*
X2009154Y125599D01*
X2009172Y125556D01*
X2009180Y125509D01*
X2009214Y125452D01*
X2009239Y125392D01*
X2009270Y125357D01*
X2009295Y125316D01*
X2009346Y125275D01*
X2009390Y125226D01*
X2009432Y125204D01*
X2009469Y125175D01*
X2009531Y125154D01*
X2009590Y125123D01*
X2009644Y125115D01*
X2009681Y125103D01*
X2009721Y125104D01*
X2009775Y125096D01*
X2013585Y125096D01*
X2013650Y125107D01*
G37*
G36*
X1331660Y125107D02*
X1331660Y125107D01*
X1331726Y125109D01*
X1331769Y125127D01*
X1331816Y125135D01*
X1331873Y125169D01*
X1331933Y125194D01*
X1331968Y125225D01*
X1332009Y125250D01*
X1332051Y125301D01*
X1332099Y125345D01*
X1332121Y125387D01*
X1332150Y125424D01*
X1332171Y125486D01*
X1332202Y125545D01*
X1332210Y125599D01*
X1332222Y125636D01*
X1332221Y125676D01*
X1332229Y125730D01*
X1332229Y128270D01*
X1332218Y128335D01*
X1332216Y128401D01*
X1332198Y128444D01*
X1332190Y128491D01*
X1332156Y128548D01*
X1332131Y128608D01*
X1332100Y128643D01*
X1332075Y128684D01*
X1332024Y128726D01*
X1331980Y128774D01*
X1331938Y128796D01*
X1331901Y128825D01*
X1331839Y128846D01*
X1331780Y128877D01*
X1331726Y128885D01*
X1331689Y128897D01*
X1331649Y128896D01*
X1331595Y128904D01*
X1327785Y128904D01*
X1327720Y128893D01*
X1327654Y128891D01*
X1327611Y128873D01*
X1327564Y128865D01*
X1327507Y128831D01*
X1327447Y128806D01*
X1327412Y128775D01*
X1327371Y128750D01*
X1327330Y128699D01*
X1327281Y128655D01*
X1327259Y128613D01*
X1327230Y128576D01*
X1327209Y128514D01*
X1327178Y128455D01*
X1327170Y128401D01*
X1327158Y128364D01*
X1327158Y128361D01*
X1327159Y128324D01*
X1327151Y128270D01*
X1327151Y125730D01*
X1327162Y125665D01*
X1327164Y125599D01*
X1327182Y125556D01*
X1327190Y125509D01*
X1327224Y125452D01*
X1327249Y125392D01*
X1327280Y125357D01*
X1327305Y125316D01*
X1327356Y125275D01*
X1327400Y125226D01*
X1327442Y125204D01*
X1327479Y125175D01*
X1327541Y125154D01*
X1327600Y125123D01*
X1327654Y125115D01*
X1327691Y125103D01*
X1327731Y125104D01*
X1327785Y125096D01*
X1331595Y125096D01*
X1331660Y125107D01*
G37*
G36*
X1293560Y125107D02*
X1293560Y125107D01*
X1293626Y125109D01*
X1293669Y125127D01*
X1293716Y125135D01*
X1293773Y125169D01*
X1293833Y125194D01*
X1293868Y125225D01*
X1293909Y125250D01*
X1293951Y125301D01*
X1293999Y125345D01*
X1294021Y125387D01*
X1294050Y125424D01*
X1294071Y125486D01*
X1294102Y125545D01*
X1294110Y125599D01*
X1294122Y125636D01*
X1294121Y125676D01*
X1294129Y125730D01*
X1294129Y128270D01*
X1294118Y128335D01*
X1294116Y128401D01*
X1294098Y128444D01*
X1294090Y128491D01*
X1294056Y128548D01*
X1294031Y128608D01*
X1294000Y128643D01*
X1293975Y128684D01*
X1293924Y128726D01*
X1293880Y128774D01*
X1293838Y128796D01*
X1293801Y128825D01*
X1293739Y128846D01*
X1293680Y128877D01*
X1293626Y128885D01*
X1293589Y128897D01*
X1293549Y128896D01*
X1293495Y128904D01*
X1289685Y128904D01*
X1289620Y128893D01*
X1289554Y128891D01*
X1289511Y128873D01*
X1289464Y128865D01*
X1289407Y128831D01*
X1289347Y128806D01*
X1289312Y128775D01*
X1289271Y128750D01*
X1289230Y128699D01*
X1289181Y128655D01*
X1289159Y128613D01*
X1289130Y128576D01*
X1289109Y128514D01*
X1289078Y128455D01*
X1289070Y128401D01*
X1289058Y128364D01*
X1289058Y128361D01*
X1289059Y128324D01*
X1289051Y128270D01*
X1289051Y125730D01*
X1289062Y125665D01*
X1289064Y125599D01*
X1289082Y125556D01*
X1289090Y125509D01*
X1289124Y125452D01*
X1289149Y125392D01*
X1289180Y125357D01*
X1289205Y125316D01*
X1289256Y125275D01*
X1289300Y125226D01*
X1289342Y125204D01*
X1289379Y125175D01*
X1289441Y125154D01*
X1289500Y125123D01*
X1289554Y125115D01*
X1289591Y125103D01*
X1289631Y125104D01*
X1289685Y125096D01*
X1293495Y125096D01*
X1293560Y125107D01*
G37*
G36*
X611570Y125107D02*
X611570Y125107D01*
X611636Y125109D01*
X611679Y125127D01*
X611726Y125135D01*
X611783Y125169D01*
X611843Y125194D01*
X611878Y125225D01*
X611919Y125250D01*
X611961Y125301D01*
X612009Y125345D01*
X612031Y125387D01*
X612060Y125424D01*
X612081Y125486D01*
X612112Y125545D01*
X612120Y125599D01*
X612132Y125636D01*
X612131Y125676D01*
X612139Y125730D01*
X612139Y128270D01*
X612128Y128335D01*
X612126Y128401D01*
X612108Y128444D01*
X612100Y128491D01*
X612066Y128548D01*
X612041Y128608D01*
X612010Y128643D01*
X611985Y128684D01*
X611934Y128726D01*
X611890Y128774D01*
X611848Y128796D01*
X611811Y128825D01*
X611749Y128846D01*
X611690Y128877D01*
X611636Y128885D01*
X611599Y128897D01*
X611559Y128896D01*
X611505Y128904D01*
X607695Y128904D01*
X607630Y128893D01*
X607564Y128891D01*
X607521Y128873D01*
X607474Y128865D01*
X607417Y128831D01*
X607357Y128806D01*
X607322Y128775D01*
X607281Y128750D01*
X607240Y128699D01*
X607191Y128655D01*
X607169Y128613D01*
X607140Y128576D01*
X607119Y128514D01*
X607088Y128455D01*
X607080Y128401D01*
X607068Y128364D01*
X607068Y128361D01*
X607069Y128324D01*
X607061Y128270D01*
X607061Y125730D01*
X607072Y125665D01*
X607074Y125599D01*
X607092Y125556D01*
X607100Y125509D01*
X607134Y125452D01*
X607159Y125392D01*
X607190Y125357D01*
X607215Y125316D01*
X607266Y125275D01*
X607310Y125226D01*
X607352Y125204D01*
X607389Y125175D01*
X607451Y125154D01*
X607510Y125123D01*
X607564Y125115D01*
X607601Y125103D01*
X607641Y125104D01*
X607695Y125096D01*
X611505Y125096D01*
X611570Y125107D01*
G37*
G36*
X573470Y125107D02*
X573470Y125107D01*
X573536Y125109D01*
X573579Y125127D01*
X573626Y125135D01*
X573683Y125169D01*
X573743Y125194D01*
X573778Y125225D01*
X573819Y125250D01*
X573861Y125301D01*
X573909Y125345D01*
X573931Y125387D01*
X573960Y125424D01*
X573981Y125486D01*
X574012Y125545D01*
X574020Y125599D01*
X574032Y125636D01*
X574031Y125676D01*
X574039Y125730D01*
X574039Y128270D01*
X574028Y128335D01*
X574026Y128401D01*
X574008Y128444D01*
X574000Y128491D01*
X573966Y128548D01*
X573941Y128608D01*
X573910Y128643D01*
X573885Y128684D01*
X573834Y128726D01*
X573790Y128774D01*
X573748Y128796D01*
X573711Y128825D01*
X573649Y128846D01*
X573590Y128877D01*
X573536Y128885D01*
X573499Y128897D01*
X573459Y128896D01*
X573405Y128904D01*
X569595Y128904D01*
X569530Y128893D01*
X569464Y128891D01*
X569421Y128873D01*
X569374Y128865D01*
X569317Y128831D01*
X569257Y128806D01*
X569222Y128775D01*
X569181Y128750D01*
X569140Y128699D01*
X569091Y128655D01*
X569069Y128613D01*
X569040Y128576D01*
X569019Y128514D01*
X568988Y128455D01*
X568980Y128401D01*
X568968Y128364D01*
X568968Y128361D01*
X568969Y128324D01*
X568961Y128270D01*
X568961Y125730D01*
X568972Y125665D01*
X568974Y125599D01*
X568992Y125556D01*
X569000Y125509D01*
X569034Y125452D01*
X569059Y125392D01*
X569090Y125357D01*
X569115Y125316D01*
X569166Y125275D01*
X569210Y125226D01*
X569252Y125204D01*
X569289Y125175D01*
X569351Y125154D01*
X569410Y125123D01*
X569464Y125115D01*
X569501Y125103D01*
X569541Y125104D01*
X569595Y125096D01*
X573405Y125096D01*
X573470Y125107D01*
G37*
D10*
X139700Y50800D03*
X660400Y101600D03*
X660400Y381000D03*
X152400Y533400D03*
D11*
X647700Y317500D03*
X647700Y292100D03*
D12*
X660400Y330200D03*
X660400Y304800D03*
X660400Y279400D03*
X635000Y330200D03*
X635000Y304800D03*
X635000Y279400D03*
D13*
X20320Y111760D03*
X66040Y111760D03*
D14*
X49050Y448000D03*
X49050Y390200D03*
D15*
X576580Y127000D03*
X566420Y127000D03*
X614680Y127000D03*
X604520Y127000D03*
D16*
X19050Y427990D03*
X19050Y445770D03*
X19050Y410210D03*
X19050Y392430D03*
D17*
X294400Y177800D03*
X264400Y177800D03*
D18*
X187960Y571500D03*
X213360Y571500D03*
X238760Y571500D03*
X264160Y571500D03*
X289560Y571500D03*
X314960Y571500D03*
X340360Y571500D03*
X365760Y571500D03*
X391160Y571500D03*
X416560Y571500D03*
X457200Y12700D03*
X431800Y12700D03*
X406400Y12700D03*
X381000Y12700D03*
X355600Y12700D03*
X330200Y12700D03*
X304800Y12700D03*
X279400Y12700D03*
X508000Y12700D03*
X533400Y12700D03*
X558800Y12700D03*
X584200Y12700D03*
X609600Y12700D03*
X635000Y12700D03*
X635000Y571500D03*
X609600Y571500D03*
X584200Y571500D03*
X558800Y571500D03*
X533400Y571500D03*
X508000Y571500D03*
X482600Y571500D03*
X457200Y571500D03*
D10*
X859790Y50800D03*
X1380490Y101600D03*
X1380490Y381000D03*
X872490Y533400D03*
D11*
X1367790Y317500D03*
X1367790Y292100D03*
D12*
X1380490Y330200D03*
X1380490Y304800D03*
X1380490Y279400D03*
X1355090Y330200D03*
X1355090Y304800D03*
X1355090Y279400D03*
D13*
X740410Y111760D03*
X786130Y111760D03*
D14*
X769140Y448000D03*
X769140Y390200D03*
D15*
X1296670Y127000D03*
X1286510Y127000D03*
X1334770Y127000D03*
X1324610Y127000D03*
D16*
X739140Y427990D03*
X739140Y445770D03*
X739140Y410210D03*
X739140Y392430D03*
D17*
X1014490Y177800D03*
X984490Y177800D03*
D18*
X908050Y571500D03*
X933450Y571500D03*
X958850Y571500D03*
X984250Y571500D03*
X1009650Y571500D03*
X1035050Y571500D03*
X1060450Y571500D03*
X1085850Y571500D03*
X1111250Y571500D03*
X1136650Y571500D03*
X1177290Y12700D03*
X1151890Y12700D03*
X1126490Y12700D03*
X1101090Y12700D03*
X1075690Y12700D03*
X1050290Y12700D03*
X1024890Y12700D03*
X999490Y12700D03*
X1228090Y12700D03*
X1253490Y12700D03*
X1278890Y12700D03*
X1304290Y12700D03*
X1329690Y12700D03*
X1355090Y12700D03*
X1355090Y571500D03*
X1329690Y571500D03*
X1304290Y571500D03*
X1278890Y571500D03*
X1253490Y571500D03*
X1228090Y571500D03*
X1202690Y571500D03*
X1177290Y571500D03*
D10*
X1579880Y50800D03*
X2100580Y101600D03*
X2100580Y381000D03*
X1592580Y533400D03*
D11*
X2087880Y317500D03*
X2087880Y292100D03*
D12*
X2100580Y330200D03*
X2100580Y304800D03*
X2100580Y279400D03*
X2075180Y330200D03*
X2075180Y304800D03*
X2075180Y279400D03*
D13*
X1460500Y111760D03*
X1506220Y111760D03*
D14*
X1489230Y448000D03*
X1489230Y390200D03*
D15*
X2016760Y127000D03*
X2006600Y127000D03*
X2054860Y127000D03*
X2044700Y127000D03*
D16*
X1459230Y427990D03*
X1459230Y445770D03*
X1459230Y410210D03*
X1459230Y392430D03*
D17*
X1734580Y177800D03*
X1704580Y177800D03*
D18*
X1628140Y571500D03*
X1653540Y571500D03*
X1678940Y571500D03*
X1704340Y571500D03*
X1729740Y571500D03*
X1755140Y571500D03*
X1780540Y571500D03*
X1805940Y571500D03*
X1831340Y571500D03*
X1856740Y571500D03*
X1897380Y12700D03*
X1871980Y12700D03*
X1846580Y12700D03*
X1821180Y12700D03*
X1795780Y12700D03*
X1770380Y12700D03*
X1744980Y12700D03*
X1719580Y12700D03*
X1948180Y12700D03*
X1973580Y12700D03*
X1998980Y12700D03*
X2024380Y12700D03*
X2049780Y12700D03*
X2075180Y12700D03*
X2075180Y571500D03*
X2049780Y571500D03*
X2024380Y571500D03*
X1998980Y571500D03*
X1973580Y571500D03*
X1948180Y571500D03*
X1922780Y571500D03*
X1897380Y571500D03*
D10*
X139700Y640080D03*
X660400Y690880D03*
X660400Y970280D03*
X152400Y1122680D03*
D11*
X647700Y906780D03*
X647700Y881380D03*
D12*
X660400Y919480D03*
X660400Y894080D03*
X660400Y868680D03*
X635000Y919480D03*
X635000Y894080D03*
X635000Y868680D03*
D13*
X20320Y701040D03*
X66040Y701040D03*
D14*
X49050Y1037280D03*
X49050Y979480D03*
D15*
X576580Y716280D03*
X566420Y716280D03*
X614680Y716280D03*
X604520Y716280D03*
D16*
X19050Y1017270D03*
X19050Y1035050D03*
X19050Y999490D03*
X19050Y981710D03*
D17*
X294400Y767080D03*
X264400Y767080D03*
D18*
X187960Y1160780D03*
X213360Y1160780D03*
X238760Y1160780D03*
X264160Y1160780D03*
X289560Y1160780D03*
X314960Y1160780D03*
X340360Y1160780D03*
X365760Y1160780D03*
X391160Y1160780D03*
X416560Y1160780D03*
X457200Y601980D03*
X431800Y601980D03*
X406400Y601980D03*
X381000Y601980D03*
X355600Y601980D03*
X330200Y601980D03*
X304800Y601980D03*
X279400Y601980D03*
X508000Y601980D03*
X533400Y601980D03*
X558800Y601980D03*
X584200Y601980D03*
X609600Y601980D03*
X635000Y601980D03*
X635000Y1160780D03*
X609600Y1160780D03*
X584200Y1160780D03*
X558800Y1160780D03*
X533400Y1160780D03*
X508000Y1160780D03*
X482600Y1160780D03*
X457200Y1160780D03*
D10*
X859790Y640080D03*
X1380490Y690880D03*
X1380490Y970280D03*
X872490Y1122680D03*
D11*
X1367790Y906780D03*
X1367790Y881380D03*
D12*
X1380490Y919480D03*
X1380490Y894080D03*
X1380490Y868680D03*
X1355090Y919480D03*
X1355090Y894080D03*
X1355090Y868680D03*
D13*
X740410Y701040D03*
X786130Y701040D03*
D14*
X769140Y1037280D03*
X769140Y979480D03*
D15*
X1296670Y716280D03*
X1286510Y716280D03*
X1334770Y716280D03*
X1324610Y716280D03*
D16*
X739140Y1017270D03*
X739140Y1035050D03*
X739140Y999490D03*
X739140Y981710D03*
D17*
X1014490Y767080D03*
X984490Y767080D03*
D18*
X908050Y1160780D03*
X933450Y1160780D03*
X958850Y1160780D03*
X984250Y1160780D03*
X1009650Y1160780D03*
X1035050Y1160780D03*
X1060450Y1160780D03*
X1085850Y1160780D03*
X1111250Y1160780D03*
X1136650Y1160780D03*
X1177290Y601980D03*
X1151890Y601980D03*
X1126490Y601980D03*
X1101090Y601980D03*
X1075690Y601980D03*
X1050290Y601980D03*
X1024890Y601980D03*
X999490Y601980D03*
X1228090Y601980D03*
X1253490Y601980D03*
X1278890Y601980D03*
X1304290Y601980D03*
X1329690Y601980D03*
X1355090Y601980D03*
X1355090Y1160780D03*
X1329690Y1160780D03*
X1304290Y1160780D03*
X1278890Y1160780D03*
X1253490Y1160780D03*
X1228090Y1160780D03*
X1202690Y1160780D03*
X1177290Y1160780D03*
D10*
X1579880Y640080D03*
X2100580Y690880D03*
X2100580Y970280D03*
X1592580Y1122680D03*
D11*
X2087880Y906780D03*
X2087880Y881380D03*
D12*
X2100580Y919480D03*
X2100580Y894080D03*
X2100580Y868680D03*
X2075180Y919480D03*
X2075180Y894080D03*
X2075180Y868680D03*
D13*
X1460500Y701040D03*
X1506220Y701040D03*
D14*
X1489230Y1037280D03*
X1489230Y979480D03*
D15*
X2016760Y716280D03*
X2006600Y716280D03*
X2054860Y716280D03*
X2044700Y716280D03*
D16*
X1459230Y1017270D03*
X1459230Y1035050D03*
X1459230Y999490D03*
X1459230Y981710D03*
D17*
X1734580Y767080D03*
X1704580Y767080D03*
D18*
X1628140Y1160780D03*
X1653540Y1160780D03*
X1678940Y1160780D03*
X1704340Y1160780D03*
X1729740Y1160780D03*
X1755140Y1160780D03*
X1780540Y1160780D03*
X1805940Y1160780D03*
X1831340Y1160780D03*
X1856740Y1160780D03*
X1897380Y601980D03*
X1871980Y601980D03*
X1846580Y601980D03*
X1821180Y601980D03*
X1795780Y601980D03*
X1770380Y601980D03*
X1744980Y601980D03*
X1719580Y601980D03*
X1948180Y601980D03*
X1973580Y601980D03*
X1998980Y601980D03*
X2024380Y601980D03*
X2049780Y601980D03*
X2075180Y601980D03*
X2075180Y1160780D03*
X2049780Y1160780D03*
X2024380Y1160780D03*
X1998980Y1160780D03*
X1973580Y1160780D03*
X1948180Y1160780D03*
X1922780Y1160780D03*
X1897380Y1160780D03*
D10*
X139700Y1229360D03*
X660400Y1280160D03*
X660400Y1559560D03*
X152400Y1711960D03*
D11*
X647700Y1496060D03*
X647700Y1470660D03*
D12*
X660400Y1508760D03*
X660400Y1483360D03*
X660400Y1457960D03*
X635000Y1508760D03*
X635000Y1483360D03*
X635000Y1457960D03*
D13*
X20320Y1290320D03*
X66040Y1290320D03*
D14*
X49050Y1626560D03*
X49050Y1568760D03*
D15*
X576580Y1305560D03*
X566420Y1305560D03*
X614680Y1305560D03*
X604520Y1305560D03*
D16*
X19050Y1606550D03*
X19050Y1624330D03*
X19050Y1588770D03*
X19050Y1570990D03*
D17*
X294400Y1356360D03*
X264400Y1356360D03*
D18*
X187960Y1750060D03*
X213360Y1750060D03*
X238760Y1750060D03*
X264160Y1750060D03*
X289560Y1750060D03*
X314960Y1750060D03*
X340360Y1750060D03*
X365760Y1750060D03*
X391160Y1750060D03*
X416560Y1750060D03*
X457200Y1191260D03*
X431800Y1191260D03*
X406400Y1191260D03*
X381000Y1191260D03*
X355600Y1191260D03*
X330200Y1191260D03*
X304800Y1191260D03*
X279400Y1191260D03*
X508000Y1191260D03*
X533400Y1191260D03*
X558800Y1191260D03*
X584200Y1191260D03*
X609600Y1191260D03*
X635000Y1191260D03*
X635000Y1750060D03*
X609600Y1750060D03*
X584200Y1750060D03*
X558800Y1750060D03*
X533400Y1750060D03*
X508000Y1750060D03*
X482600Y1750060D03*
X457200Y1750060D03*
D10*
X859790Y1229360D03*
X1380490Y1280160D03*
X1380490Y1559560D03*
X872490Y1711960D03*
D11*
X1367790Y1496060D03*
X1367790Y1470660D03*
D12*
X1380490Y1508760D03*
X1380490Y1483360D03*
X1380490Y1457960D03*
X1355090Y1508760D03*
X1355090Y1483360D03*
X1355090Y1457960D03*
D13*
X740410Y1290320D03*
X786130Y1290320D03*
D14*
X769140Y1626560D03*
X769140Y1568760D03*
D15*
X1296670Y1305560D03*
X1286510Y1305560D03*
X1334770Y1305560D03*
X1324610Y1305560D03*
D16*
X739140Y1606550D03*
X739140Y1624330D03*
X739140Y1588770D03*
X739140Y1570990D03*
D17*
X1014490Y1356360D03*
X984490Y1356360D03*
D18*
X908050Y1750060D03*
X933450Y1750060D03*
X958850Y1750060D03*
X984250Y1750060D03*
X1009650Y1750060D03*
X1035050Y1750060D03*
X1060450Y1750060D03*
X1085850Y1750060D03*
X1111250Y1750060D03*
X1136650Y1750060D03*
X1177290Y1191260D03*
X1151890Y1191260D03*
X1126490Y1191260D03*
X1101090Y1191260D03*
X1075690Y1191260D03*
X1050290Y1191260D03*
X1024890Y1191260D03*
X999490Y1191260D03*
X1228090Y1191260D03*
X1253490Y1191260D03*
X1278890Y1191260D03*
X1304290Y1191260D03*
X1329690Y1191260D03*
X1355090Y1191260D03*
X1355090Y1750060D03*
X1329690Y1750060D03*
X1304290Y1750060D03*
X1278890Y1750060D03*
X1253490Y1750060D03*
X1228090Y1750060D03*
X1202690Y1750060D03*
X1177290Y1750060D03*
D10*
X1579880Y1229360D03*
X2100580Y1280160D03*
X2100580Y1559560D03*
X1592580Y1711960D03*
D11*
X2087880Y1496060D03*
X2087880Y1470660D03*
D12*
X2100580Y1508760D03*
X2100580Y1483360D03*
X2100580Y1457960D03*
X2075180Y1508760D03*
X2075180Y1483360D03*
X2075180Y1457960D03*
D13*
X1460500Y1290320D03*
X1506220Y1290320D03*
D14*
X1489230Y1626560D03*
X1489230Y1568760D03*
D15*
X2016760Y1305560D03*
X2006600Y1305560D03*
X2054860Y1305560D03*
X2044700Y1305560D03*
D16*
X1459230Y1606550D03*
X1459230Y1624330D03*
X1459230Y1588770D03*
X1459230Y1570990D03*
D17*
X1734580Y1356360D03*
X1704580Y1356360D03*
D18*
X1628140Y1750060D03*
X1653540Y1750060D03*
X1678940Y1750060D03*
X1704340Y1750060D03*
X1729740Y1750060D03*
X1755140Y1750060D03*
X1780540Y1750060D03*
X1805940Y1750060D03*
X1831340Y1750060D03*
X1856740Y1750060D03*
X1897380Y1191260D03*
X1871980Y1191260D03*
X1846580Y1191260D03*
X1821180Y1191260D03*
X1795780Y1191260D03*
X1770380Y1191260D03*
X1744980Y1191260D03*
X1719580Y1191260D03*
X1948180Y1191260D03*
X1973580Y1191260D03*
X1998980Y1191260D03*
X2024380Y1191260D03*
X2049780Y1191260D03*
X2075180Y1191260D03*
X2075180Y1750060D03*
X2049780Y1750060D03*
X2024380Y1750060D03*
X1998980Y1750060D03*
X1973580Y1750060D03*
X1948180Y1750060D03*
X1922780Y1750060D03*
X1897380Y1750060D03*
M02*
