M48
;GenerationSoftware,Autodesk,EAGLE,9.5.2*%
;CreationDate,2020-01-27T21:00:16Z*%
FMAT,2
ICI,OFF
METRIC,TZ,000.000
T7C0.381
T6C0.650
T5C0.850
T4C1.016
T3C1.800
T2C2.032
T1C3.302
%
G90
M71
T1
X85979Y64008
X13970Y5080
X66040Y10160
X66040Y38100
X15240Y53340
X159258Y53340
X66040Y155956
X138049Y69088
X138049Y97028
X210058Y155956
X13970Y122936
X66040Y128016
X87249Y112268
X85979Y5080
X138049Y10160
X138049Y38100
X87249Y53340
X157988Y122936
X210058Y69088
X87249Y171196
X157988Y64008
X15240Y171196
X210058Y97028
X159258Y112268
X159258Y171196
X157988Y5080
X210058Y10160
X210058Y38100
X13970Y64008
X66040Y69088
X66040Y97028
X15240Y112268
X85979Y122936
X138049Y128016
X138049Y155956
X210058Y128016
T2
X2032Y11176
X6604Y11176
X146050Y129032
X146050Y11176
X74041Y11176
X78613Y11176
X150622Y11176
X6604Y129032
X2032Y129032
X150622Y129032
X74041Y129032
X2032Y70104
X6604Y70104
X74041Y70104
X146050Y70104
X150622Y70104
X78613Y129032
X78613Y70104
T3
X136779Y88138
X64770Y149606
X64770Y147066
X208788Y31750
X136779Y149606
X136779Y147066
X208788Y29210
X208788Y147066
X136779Y90678
X64770Y31750
X64770Y29210
X208788Y90678
X208788Y88138
X136779Y31750
X136779Y29210
X64770Y90678
X64770Y88138
X208788Y149606
T4
X125349Y175006
X122809Y175006
X120269Y175006
X117729Y175006
X162814Y175006
X165354Y175006
X167894Y175006
X170434Y175006
X172974Y175006
X175514Y175006
X178054Y175006
X180594Y175006
X183134Y175006
X185674Y175006
X189738Y119126
X187198Y119126
X184658Y119126
X182118Y119126
X179578Y119126
X63500Y60198
X177038Y119126
X174498Y119126
X171958Y119126
X194818Y119126
X197358Y119126
X199898Y119126
X202438Y119126
X204978Y119126
X207518Y119126
X207518Y175006
X204978Y175006
X202438Y175006
X189738Y175006
X199898Y175006
X197358Y175006
X194818Y175006
X192278Y175006
X18796Y57150
X21336Y57150
X23876Y57150
X26416Y57150
X28956Y57150
X31496Y57150
X34036Y57150
X36576Y57150
X39116Y57150
X41656Y57150
X45720Y1270
X43180Y1270
X40640Y1270
X38100Y1270
X35560Y1270
X33020Y1270
X30480Y1270
X27940Y1270
X50800Y1270
X53340Y1270
X55880Y1270
X58420Y1270
X60960Y1270
X63500Y1270
X63500Y57150
X60960Y57150
X58420Y57150
X55880Y57150
X53340Y57150
X50800Y57150
X48260Y57150
X45720Y57150
X90805Y57150
X93345Y57150
X95885Y57150
X98425Y57150
X100965Y57150
X103505Y57150
X106045Y57150
X108585Y57150
X111125Y57150
X113665Y57150
X117729Y1270
X115189Y1270
X112649Y1270
X110109Y1270
X107569Y1270
X105029Y1270
X102489Y1270
X99949Y1270
X122809Y1270
X125349Y1270
X127889Y1270
X130429Y1270
X132969Y1270
X135509Y1270
X135509Y57150
X132969Y57150
X130429Y57150
X127889Y57150
X125349Y57150
X122809Y57150
X120269Y57150
X117729Y57150
X162814Y57150
X165354Y57150
X167894Y57150
X170434Y57150
X172974Y57150
X175514Y57150
X178054Y57150
X180594Y57150
X183134Y57150
X185674Y57150
X189738Y1270
X187198Y1270
X184658Y1270
X182118Y1270
X179578Y1270
X177038Y1270
X174498Y1270
X171958Y1270
X194818Y1270
X197358Y1270
X199898Y1270
X202438Y1270
X204978Y1270
X207518Y1270
X207518Y57150
X204978Y57150
X202438Y57150
X199898Y57150
X197358Y57150
X194818Y57150
X192278Y57150
X189738Y57150
X18796Y116078
X21336Y116078
X23876Y116078
X26416Y116078
X28956Y116078
X31496Y116078
X34036Y116078
X36576Y116078
X39116Y116078
X41656Y116078
X45720Y60198
X43180Y60198
X40640Y60198
X38100Y60198
X35560Y60198
X33020Y60198
X30480Y60198
X27940Y60198
X50800Y60198
X53340Y60198
X55880Y60198
X58420Y60198
X60960Y60198
X63500Y116078
X60960Y116078
X58420Y116078
X55880Y116078
X53340Y116078
X50800Y116078
X48260Y116078
X45720Y116078
X90805Y116078
X93345Y116078
X95885Y116078
X98425Y116078
X100965Y116078
X103505Y116078
X106045Y116078
X108585Y116078
X111125Y116078
X113665Y116078
X117729Y60198
X115189Y60198
X112649Y60198
X110109Y60198
X107569Y60198
X105029Y60198
X102489Y60198
X99949Y60198
X122809Y60198
X125349Y60198
X127889Y60198
X130429Y60198
X132969Y60198
X135509Y60198
X135509Y116078
X132969Y116078
X130429Y116078
X127889Y116078
X125349Y116078
X122809Y116078
X120269Y116078
X117729Y116078
X162814Y116078
X165354Y116078
X167894Y116078
X170434Y116078
X172974Y116078
X175514Y116078
X178054Y116078
X180594Y116078
X183134Y116078
X185674Y116078
X189738Y60198
X187198Y60198
X184658Y60198
X182118Y60198
X179578Y60198
X177038Y60198
X174498Y60198
X171958Y60198
X194818Y60198
X197358Y60198
X199898Y60198
X202438Y60198
X204978Y60198
X207518Y60198
X207518Y116078
X204978Y116078
X202438Y116078
X199898Y116078
X197358Y116078
X194818Y116078
X192278Y116078
X189738Y116078
X18796Y175006
X21336Y175006
X23876Y175006
X26416Y175006
X28956Y175006
X31496Y175006
X34036Y175006
X36576Y175006
X39116Y175006
X41656Y175006
X45720Y119126
X43180Y119126
X40640Y119126
X38100Y119126
X35560Y119126
X33020Y119126
X30480Y119126
X27940Y119126
X50800Y119126
X53340Y119126
X55880Y119126
X58420Y119126
X60960Y119126
X63500Y119126
X63500Y175006
X60960Y175006
X58420Y175006
X55880Y175006
X53340Y175006
X50800Y175006
X48260Y175006
X45720Y175006
X90805Y175006
X93345Y175006
X95885Y175006
X98425Y175006
X100965Y175006
X103505Y175006
X106045Y175006
X108585Y175006
X111125Y175006
X113665Y175006
X117729Y119126
X115189Y119126
X112649Y119126
X110109Y119126
X107569Y119126
X105029Y119126
X102489Y119126
X99949Y119126
X122809Y119126
X125349Y119126
X127889Y119126
X130429Y119126
X132969Y119126
X135509Y119126
X135509Y175006
X132969Y175006
X130429Y175006
X127889Y175006
T5
X101449Y76708
X98449Y76708
X29440Y17780
X26440Y17780
X173458Y76708
X170458Y76708
X101449Y17780
X98449Y17780
X29440Y135636
X26440Y135636
X173458Y17780
X170458Y17780
X101449Y135636
X98449Y135636
X29440Y76708
X26440Y76708
X173458Y135636
X170458Y135636
T6
X4905Y39020
X76914Y44800
X76914Y39020
X148923Y44800
X148923Y39020
X4905Y103728
X4905Y97948
X76914Y103728
X76914Y97948
X76914Y162656
X76914Y156876
X4905Y162656
X4905Y156876
X148923Y162656
X148923Y156876
X148923Y103728
X148923Y97948
X4905Y44800
T7
X29197Y68059
X41897Y68059
X7874Y103251
X7937Y97853
X4953Y64897
X889Y88011
X47771Y81388
X55880Y84328
X67310Y91948
X40640Y83058
X31750Y83058
X57658Y76708
X25781Y96393
X25590Y89344
X25781Y92583
X2413Y104521
X4699Y101219
X8001Y99314
X8001Y101600
X62230Y74168
X53340Y76708
X42310Y79737
X33020Y84328
X29210Y86868
X62230Y86868
X52070Y75438
X55880Y83058
X24130Y100838
X95377Y96012
X134239Y112268
X83566Y104013
X91059Y104013
X93599Y101473
X93599Y98298
X131699Y112268
X83566Y102743
X115697Y79534
X118999Y86995
X96901Y102870
X131699Y64135
X125349Y75438
X131699Y69088
X94615Y103505
X134239Y64008
X134239Y69088
X111506Y88011
X139319Y89408
X109347Y88900
X134239Y91948
X109626Y86385
X134239Y89408
X74549Y83197
X77089Y85737
X77089Y80657
X74549Y81292
X74549Y85102
X108839Y64008
X89281Y79502
X103759Y64008
X77089Y110998
X136779Y100838
X112649Y79248
X119761Y80010
X113919Y64008
X99695Y112268
X115443Y82423
X121539Y86868
X107696Y86868
X73279Y66548
X101219Y105918
X139319Y83058
X89789Y81788
X89408Y76708
X139319Y86868
X78740Y95631
X85979Y91313
X87249Y94488
X84709Y88138
X84709Y100838
X80899Y110998
X92329Y99568
X95758Y74930
X107569Y76708
X111379Y81280
X79629Y105283
X73279Y94488
X92329Y79248
X94869Y79248
X94869Y80645
X94869Y77470
X92329Y77343
X89154Y83820
X88265Y107188
X75819Y62738
X75819Y66548
X73152Y62484
X93599Y62738
X136779Y74168
X138811Y76708
X116459Y64008
X111379Y64008
X97917Y103886
X106299Y87249
X106299Y70358
X96139Y81788
X138049Y77978
X101206Y68059
X113906Y68059
X79883Y103251
X79947Y97853
X76962Y64897
X72898Y88011
X119780Y81388
X127889Y84328
X139319Y91948
X112649Y83058
X103759Y83058
X129667Y76708
X97790Y96393
X97599Y89344
X97790Y92583
X74422Y104521
X76708Y101219
X80010Y99314
X80010Y101600
X134239Y74168
X125349Y76708
X114319Y79737
X105029Y84328
X101219Y86868
X134239Y86868
X124079Y75438
X127889Y83058
X96139Y100838
X167386Y96012
X206248Y112268
X155575Y104013
X163068Y104013
X165608Y101473
X165608Y98298
X203708Y112268
X155575Y102743
X187706Y79534
X191008Y86995
X168910Y102870
X203708Y64135
X197358Y75438
X203708Y69088
X166624Y103505
X206248Y64008
X206248Y69088
X183515Y88011
X211328Y89408
X181356Y88900
X206248Y91948
X181635Y86385
X206248Y89408
X146558Y83197
X149098Y85737
X149098Y80657
X146558Y81292
X146558Y85102
X180848Y64008
X161290Y79502
X175768Y64008
X149098Y110998
X208788Y100838
X184658Y79248
X191770Y80010
X185928Y64008
X171704Y112268
X187452Y82423
X193548Y86868
X179705Y86868
X145288Y66548
X173228Y105918
X211328Y83058
X161798Y81788
X161417Y76708
X211328Y86868
X150749Y95631
X157988Y91313
X159258Y94488
X156718Y88138
X156718Y100838
X152908Y110998
X164338Y99568
X167767Y74930
X179578Y76708
X183388Y81280
X151638Y105283
X145288Y94488
X164338Y79248
X166878Y79248
X166878Y80645
X166878Y77470
X164338Y77343
X161163Y83820
X160274Y107188
X147828Y62738
X147828Y66548
X145161Y62484
X165608Y62738
X208788Y74168
X210820Y76708
X188468Y64008
X183388Y64008
X169926Y103886
X178308Y87249
X178308Y70358
X168148Y81788
X210058Y77978
X173215Y68059
X185915Y68059
X151892Y103251
X151956Y97853
X148971Y64897
X144907Y88011
X191789Y81388
X199898Y84328
X211328Y91948
X184658Y83058
X175768Y83058
X201676Y76708
X169799Y96393
X169609Y89344
X169799Y92583
X146431Y104521
X148717Y101219
X152019Y99314
X152019Y101600
X206248Y74168
X197358Y76708
X186328Y79737
X177038Y84328
X173228Y86868
X206248Y86868
X196088Y75438
X199898Y83058
X168148Y100838
X23368Y154940
X62230Y171196
X11557Y162941
X19050Y162941
X21590Y160401
X21590Y157226
X59690Y171196
X11557Y161671
X43688Y138462
X46990Y145923
X24892Y161798
X59690Y123063
X53340Y134366
X59690Y128016
X22606Y162433
X62230Y122936
X62230Y128016
X39497Y146939
X67310Y148336
X37338Y147828
X62230Y150876
X37617Y145313
X62230Y148336
X2540Y142125
X5080Y144665
X5080Y139585
X2540Y140220
X2540Y144030
X36830Y122936
X17272Y138430
X31750Y122936
X5080Y169926
X64770Y159766
X40640Y138176
X47752Y138938
X41910Y122936
X27686Y171196
X43434Y141351
X49530Y145796
X92329Y18415
X1270Y125476
X29210Y164846
X67310Y141986
X17780Y140716
X17399Y135636
X67310Y145796
X6731Y154559
X13970Y150241
X15240Y153416
X12700Y147066
X12700Y159766
X8890Y169926
X20320Y158496
X23749Y133858
X35560Y135636
X39370Y140208
X7620Y164211
X1270Y153416
X20320Y138176
X22860Y138176
X22860Y139573
X22860Y136398
X20320Y136271
X17145Y142748
X16256Y166116
X3810Y121666
X3810Y125476
X1143Y121412
X21590Y121666
X64770Y133096
X66802Y135636
X44450Y122936
X39370Y122936
X25908Y162814
X34290Y146177
X34290Y129286
X24130Y140716
X66040Y136906
X29197Y126987
X41897Y126987
X7874Y162179
X7937Y156782
X4953Y123825
X889Y146939
X47771Y140316
X55880Y143256
X67310Y150876
X40640Y141986
X31750Y141986
X57658Y135636
X25781Y155321
X25590Y148273
X25781Y151511
X2413Y163449
X4699Y160147
X8001Y158242
X8001Y160528
X62230Y133096
X53340Y135636
X42310Y138665
X33020Y143256
X29210Y145796
X62230Y145796
X52070Y134366
X55880Y141986
X24130Y159766
X95377Y154940
X134239Y171196
X83566Y162941
X91059Y162941
X93599Y160401
X93599Y157226
X131699Y171196
X83566Y161671
X115697Y138462
X118999Y145923
X96901Y161798
X131699Y123063
X125349Y134366
X131699Y128016
X94615Y162433
X134239Y122936
X134239Y128016
X111506Y146939
X139319Y148336
X109347Y147828
X134239Y150876
X109626Y145313
X134239Y148336
X74549Y142125
X77089Y144665
X77089Y139585
X74549Y140220
X74549Y144030
X108839Y122936
X89281Y138430
X103759Y122936
X77089Y169926
X136779Y159766
X112649Y138176
X119761Y138938
X113919Y122936
X99695Y171196
X115443Y141351
X121539Y145796
X107696Y145796
X73279Y125476
X101219Y164846
X139319Y141986
X89789Y140716
X89408Y135636
X139319Y145796
X78740Y154559
X85979Y150241
X87249Y153416
X84709Y147066
X84709Y159766
X80899Y169926
X92329Y158496
X95758Y133858
X107569Y135636
X111379Y140208
X79629Y164211
X73279Y153416
X92329Y138176
X94869Y138176
X94869Y139573
X94869Y136398
X92329Y136271
X89154Y142748
X88265Y166116
X75819Y121666
X75819Y125476
X73152Y121412
X93599Y121666
X136779Y133096
X138811Y135636
X116459Y122936
X111379Y122936
X97917Y162814
X106299Y146177
X106299Y129286
X96139Y140716
X138049Y136906
X101206Y126987
X113906Y126987
X79883Y162179
X79947Y156782
X76962Y123825
X72898Y146939
X119780Y140316
X127889Y143256
X139319Y150876
X112649Y141986
X103759Y141986
X129667Y135636
X97790Y155321
X97599Y148273
X97790Y151511
X74422Y163449
X76708Y160147
X80010Y158242
X80010Y160528
X134239Y133096
X125349Y135636
X114319Y138665
X105029Y143256
X101219Y145796
X134239Y145796
X124079Y134366
X127889Y141986
X96139Y159766
X167386Y154940
X206248Y171196
X155575Y162941
X163068Y162941
X165608Y160401
X165608Y157226
X203708Y171196
X155575Y161671
X187706Y138462
X191008Y145923
X168910Y161798
X203708Y123063
X197358Y134366
X203708Y128016
X166624Y162433
X206248Y122936
X206248Y128016
X183515Y146939
X211328Y148336
X181356Y147828
X206248Y150876
X181635Y145313
X206248Y148336
X146558Y142125
X149098Y144665
X149098Y139585
X146558Y140220
X146558Y144030
X180848Y122936
X161290Y138430
X175768Y122936
X149098Y169926
X208788Y159766
X184658Y138176
X191770Y138938
X185928Y122936
X171704Y171196
X187452Y141351
X193548Y145796
X179705Y145796
X145288Y125476
X173228Y164846
X211328Y141986
X161798Y140716
X161417Y135636
X211328Y145796
X150749Y154559
X157988Y150241
X159258Y153416
X156718Y147066
X156718Y159766
X152908Y169926
X164338Y158496
X167767Y133858
X179578Y135636
X183388Y140208
X151638Y164211
X145288Y153416
X164338Y138176
X166878Y138176
X166878Y139573
X166878Y136398
X164338Y136271
X161163Y142748
X160274Y166116
X147828Y121666
X147828Y125476
X145161Y121412
X165608Y121666
X208788Y133096
X210820Y135636
X188468Y122936
X183388Y122936
X169926Y162814
X178308Y146177
X178308Y129286
X168148Y140716
X210058Y136906
X173215Y126987
X185915Y126987
X151892Y162179
X151956Y156782
X148971Y123825
X144907Y146939
X191789Y140316
X199898Y143256
X211328Y150876
X184658Y141986
X175768Y141986
X201676Y135636
X169799Y155321
X169609Y148273
X169799Y151511
X146431Y163449
X148717Y160147
X152019Y158242
X152019Y160528
X206248Y133096
X197358Y135636
X186328Y138665
X177038Y143256
X173228Y145796
X206248Y145796
X196088Y134366
X199898Y141986
X168148Y159766
X23368Y37084
X62230Y53340
X11557Y45085
X19050Y45085
X21590Y42545
X21590Y39370
X59690Y53340
X11557Y43815
X43688Y20606
X46990Y28067
X24892Y43942
X59690Y5207
X53340Y16510
X59690Y10160
X22606Y44577
X62230Y5080
X62230Y10160
X39497Y29083
X67310Y30480
X37338Y29972
X62230Y33020
X37617Y27457
X62230Y30480
X2540Y24269
X5080Y26809
X5080Y21729
X2540Y22364
X2540Y26174
X36830Y5080
X17272Y20574
X31750Y5080
X5080Y52070
X64770Y41910
X40640Y20320
X47752Y21082
X41910Y5080
X27686Y53340
X43434Y23495
X49530Y27940
X35687Y27940
X1270Y7620
X29210Y46990
X67310Y24130
X17780Y22860
X17399Y17780
X67310Y27940
X6731Y36703
X13970Y32385
X15240Y35560
X12700Y29210
X12700Y41910
X8890Y52070
X20320Y40640
X23749Y16002
X35560Y17780
X39370Y22352
X7620Y46355
X1270Y35560
X20320Y20320
X22860Y20320
X22860Y21717
X22860Y18542
X20320Y18415
X17145Y24892
X16256Y48260
X3810Y3810
X3810Y7620
X1143Y3556
X21590Y3810
X64770Y15240
X66802Y17780
X44450Y5080
X39370Y5080
X25908Y44958
X34290Y28321
X34290Y11430
X24130Y22860
X66040Y19050
X29197Y9131
X41897Y9131
X7874Y44323
X7937Y38926
X4953Y5969
X889Y29083
X47771Y22460
X55880Y25400
X67310Y33020
X40640Y24130
X31750Y24130
X57658Y17780
X25781Y37465
X25590Y30416
X25781Y33655
X2413Y45593
X4699Y42291
X8001Y40386
X8001Y42672
X62230Y15240
X53340Y17780
X42310Y20809
X33020Y25400
X29210Y27940
X62230Y27940
X52070Y16510
X55880Y24130
X24130Y41910
X95377Y37084
X134239Y53340
X83566Y45085
X91059Y45085
X93599Y42545
X93599Y39370
X131699Y53340
X83566Y43815
X115697Y20606
X118999Y28067
X96901Y43942
X131699Y5207
X125349Y16510
X131699Y10160
X94615Y44577
X134239Y5080
X134239Y10160
X111506Y29083
X139319Y30480
X109347Y29972
X134239Y33020
X109626Y27457
X134239Y30480
X74549Y24269
X77089Y26809
X77089Y21729
X74549Y22364
X74549Y26174
X108839Y5080
X89281Y20574
X103759Y5080
X77089Y52070
X136779Y41910
X112649Y20320
X119761Y21082
X113919Y5080
X99695Y53340
X115443Y23495
X121539Y27940
X107696Y27940
X73279Y7620
X101219Y46990
X139319Y24130
X89789Y22860
X89408Y17780
X139319Y27940
X78740Y36703
X85979Y32385
X87249Y35560
X84709Y29210
X84709Y41910
X80899Y52070
X92329Y40640
X95758Y16002
X107569Y17780
X111379Y22352
X79629Y46355
X73279Y35560
X92329Y20320
X94869Y20320
X94869Y21717
X94869Y18542
X89154Y24892
X88265Y48260
X75819Y3810
X75819Y7620
X73152Y3556
X93599Y3810
X136779Y15240
X138811Y17780
X116459Y5080
X111379Y5080
X97917Y44958
X106299Y28321
X106299Y11430
X96139Y22860
X138049Y19050
X101206Y9131
X113906Y9131
X79883Y44323
X79947Y38926
X76962Y5969
X72898Y29083
X119780Y22460
X127889Y25400
X139319Y33020
X112649Y24130
X103759Y24130
X129667Y17780
X97790Y37465
X97599Y30416
X97790Y33655
X74422Y45593
X76708Y42291
X80010Y40386
X80010Y42672
X134239Y15240
X125349Y17780
X114319Y20809
X105029Y25400
X101219Y27940
X134239Y27940
X124079Y16510
X127889Y24130
X96139Y41910
X167386Y37084
X206248Y53340
X155575Y45085
X163068Y45085
X165608Y42545
X165608Y39370
X203708Y53340
X155575Y43815
X187706Y20606
X191008Y28067
X168910Y43942
X203708Y5207
X197358Y16510
X203708Y10160
X166624Y44577
X206248Y5080
X35687Y145796
X206248Y10160
X183515Y29083
X211328Y30480
X181356Y29972
X206248Y33020
X181635Y27457
X206248Y30480
X146558Y24269
X149098Y26809
X149098Y21729
X146558Y22364
X146558Y26174
X180848Y5080
X161290Y20574
X175768Y5080
X149098Y52070
X208788Y41910
X184658Y20320
X191770Y21082
X185928Y5080
X171704Y53340
X187452Y23495
X193548Y27940
X179705Y27940
X145288Y7620
X173228Y46990
X211328Y24130
X161798Y22860
X161417Y17780
X211328Y27940
X150749Y36703
X157988Y32385
X159258Y35560
X156718Y29210
X156718Y41910
X152908Y52070
X164338Y40640
X167767Y16002
X179578Y17780
X183388Y22352
X151638Y46355
X145288Y35560
X164338Y20320
X166878Y20320
X166878Y21717
X166878Y18542
X164338Y18415
X161163Y24892
X160274Y48260
X147828Y3810
X147828Y7620
X145161Y3556
X165608Y3810
X208788Y15240
X210820Y17780
X188468Y5080
X183388Y5080
X169926Y44958
X178308Y28321
X178308Y11430
X168148Y22860
X210058Y19050
X173215Y9131
X185915Y9131
X151892Y44323
X151956Y38926
X148971Y5969
X144907Y29083
X191789Y22460
X199898Y25400
X211328Y33020
X184658Y24130
X175768Y24130
X201676Y17780
X169799Y37465
X169609Y30416
X169799Y33655
X146431Y45593
X148717Y42291
X152019Y40386
X152019Y42672
X206248Y15240
X197358Y17780
X186328Y20809
X177038Y25400
X173228Y27940
X206248Y27940
X196088Y16510
X199898Y24130
X168148Y41910
X23368Y96012
X62230Y112268
X11557Y104013
X19050Y104013
X21590Y101473
X21590Y98298
X59690Y112268
X11557Y102743
X43688Y79534
X46990Y86995
X24892Y102870
X59690Y64135
X53340Y75438
X59690Y69088
X22606Y103505
X62230Y64008
X62230Y69088
X39497Y88011
X67310Y89408
X37338Y88900
X62230Y91948
X37617Y86385
X62230Y89408
X2540Y83197
X5080Y85737
X5080Y80657
X2540Y81292
X2540Y85102
X36830Y64008
X17272Y79502
X31750Y64008
X5080Y110998
X64770Y100838
X40640Y79248
X47752Y80010
X41910Y64008
X27686Y112268
X43434Y82423
X49530Y86868
X35687Y86868
X1270Y66548
X29210Y105918
X67310Y83058
X17780Y81788
X17399Y76708
X67310Y86868
X6731Y95631
X13970Y91313
X15240Y94488
X12700Y88138
X12700Y100838
X8890Y110998
X20320Y99568
X23749Y74930
X35560Y76708
X39370Y81280
X7620Y105283
X1270Y94488
X20320Y79248
X22860Y79248
X22860Y80645
X22860Y77470
X20320Y77343
X17145Y83820
X16256Y107188
X3810Y62738
X3810Y66548
X1143Y62484
X21590Y62738
X64770Y74168
X66802Y76708
X44450Y64008
X39370Y64008
X25908Y103886
X34290Y87249
X34290Y70358
X24130Y81788
X66040Y77978
M30