G04 EAGLE Gerber RS-274X export*
G75*
%MOMM*%
%FSLAX34Y34*%
%LPD*%
%INSoldermask Top*%
%IPPOS*%
%AMOC8*
5,1,8,0,0,1.08239X$1,22.5*%
G01*
%ADD10R,1.203200X1.303200*%
%ADD11R,1.303200X1.203200*%
%ADD12R,1.603200X1.803200*%
%ADD13R,1.603200X3.203200*%
%ADD14R,1.103200X1.003200*%
%ADD15R,1.727200X1.041400*%
%ADD16R,1.981200X3.327400*%
%ADD17C,3.505200*%
%ADD18C,1.203200*%
%ADD19R,1.203200X2.203200*%
%ADD20C,0.653200*%
%ADD21R,1.534156X3.495038*%
%ADD22C,2.003200*%
%ADD23R,3.373200X1.203200*%
%ADD24R,1.403200X1.603200*%
%ADD25R,1.673200X1.473200*%
%ADD26C,0.793150*%
%ADD27C,2.235200*%
%ADD28R,0.903200X0.903200*%
%ADD29R,1.473200X0.762000*%
%ADD30R,0.762000X1.473200*%
%ADD31R,1.403200X0.753200*%
%ADD32R,2.203200X1.403200*%
%ADD33R,1.553200X0.803200*%
%ADD34R,1.653200X0.503200*%
%ADD35R,1.653200X0.803200*%
%ADD36R,1.653200X0.753200*%
%ADD37C,0.853200*%
%ADD38R,1.403200X0.803200*%
%ADD39R,1.727200X0.965200*%
%ADD40R,1.473200X0.838200*%
%ADD41R,1.203200X3.003200*%
%ADD42R,1.203200X1.353200*%
%ADD43C,1.053200*%
%ADD44C,2.082800*%
%ADD45C,1.270000*%
%ADD46C,1.703200*%

G36*
X780394Y959134D02*
X780394Y959134D01*
X780397Y959131D01*
X781519Y959286D01*
X781524Y959291D01*
X781528Y959288D01*
X782599Y959659D01*
X782603Y959665D01*
X782608Y959663D01*
X783585Y960236D01*
X783588Y960242D01*
X783593Y960241D01*
X784440Y960994D01*
X784442Y961001D01*
X784447Y961001D01*
X785131Y961904D01*
X785131Y961911D01*
X785136Y961912D01*
X785631Y962931D01*
X785629Y962938D01*
X785634Y962940D01*
X785921Y964037D01*
X785919Y964041D01*
X785921Y964042D01*
X785919Y964044D01*
X785922Y964046D01*
X785989Y965177D01*
X785987Y965181D01*
X785989Y965183D01*
X785922Y966314D01*
X785917Y966319D01*
X785921Y966323D01*
X785634Y967420D01*
X785628Y967424D01*
X785631Y967429D01*
X785136Y968448D01*
X785130Y968451D01*
X785131Y968456D01*
X784447Y969359D01*
X784440Y969361D01*
X784440Y969366D01*
X783593Y970119D01*
X783586Y970119D01*
X783585Y970124D01*
X782608Y970697D01*
X782601Y970696D01*
X782599Y970701D01*
X781528Y971072D01*
X781522Y971069D01*
X781519Y971074D01*
X780397Y971229D01*
X780392Y971226D01*
X780390Y971229D01*
X768390Y971229D01*
X768385Y971226D01*
X768382Y971229D01*
X767115Y971024D01*
X767109Y971018D01*
X767105Y971021D01*
X765915Y970539D01*
X765911Y970532D01*
X765905Y970534D01*
X764852Y969800D01*
X764850Y969792D01*
X764844Y969793D01*
X763981Y968843D01*
X763980Y968834D01*
X763975Y968834D01*
X763345Y967715D01*
X763346Y967707D01*
X763340Y967705D01*
X762975Y966475D01*
X762978Y966467D01*
X762973Y966464D01*
X762891Y965183D01*
X762894Y965179D01*
X762891Y965177D01*
X762973Y963896D01*
X762979Y963890D01*
X762975Y963885D01*
X763340Y962655D01*
X763347Y962650D01*
X763345Y962645D01*
X763975Y961526D01*
X763982Y961523D01*
X763981Y961517D01*
X764844Y960567D01*
X764852Y960566D01*
X764852Y960560D01*
X765905Y959826D01*
X765913Y959826D01*
X765915Y959821D01*
X767105Y959339D01*
X767112Y959341D01*
X767115Y959336D01*
X768382Y959131D01*
X768387Y959134D01*
X768390Y959131D01*
X780390Y959131D01*
X780394Y959134D01*
G37*
G36*
X1500484Y1634814D02*
X1500484Y1634814D01*
X1500487Y1634811D01*
X1501609Y1634966D01*
X1501614Y1634971D01*
X1501618Y1634968D01*
X1502689Y1635339D01*
X1502693Y1635345D01*
X1502698Y1635343D01*
X1503675Y1635916D01*
X1503678Y1635922D01*
X1503683Y1635921D01*
X1504530Y1636674D01*
X1504532Y1636681D01*
X1504537Y1636681D01*
X1505221Y1637584D01*
X1505221Y1637591D01*
X1505226Y1637592D01*
X1505721Y1638611D01*
X1505719Y1638618D01*
X1505724Y1638620D01*
X1506011Y1639717D01*
X1506009Y1639721D01*
X1506011Y1639722D01*
X1506009Y1639724D01*
X1506012Y1639726D01*
X1506079Y1640857D01*
X1506077Y1640861D01*
X1506079Y1640863D01*
X1506012Y1641994D01*
X1506007Y1641999D01*
X1506011Y1642003D01*
X1505724Y1643100D01*
X1505718Y1643104D01*
X1505721Y1643109D01*
X1505226Y1644128D01*
X1505220Y1644131D01*
X1505221Y1644136D01*
X1504537Y1645039D01*
X1504530Y1645041D01*
X1504530Y1645046D01*
X1503683Y1645799D01*
X1503676Y1645799D01*
X1503675Y1645804D01*
X1502698Y1646377D01*
X1502691Y1646376D01*
X1502689Y1646381D01*
X1501618Y1646752D01*
X1501612Y1646749D01*
X1501609Y1646754D01*
X1500487Y1646909D01*
X1500482Y1646906D01*
X1500480Y1646909D01*
X1488480Y1646909D01*
X1488475Y1646906D01*
X1488472Y1646909D01*
X1487205Y1646704D01*
X1487199Y1646698D01*
X1487195Y1646701D01*
X1486005Y1646219D01*
X1486001Y1646212D01*
X1485995Y1646214D01*
X1484942Y1645480D01*
X1484940Y1645472D01*
X1484934Y1645473D01*
X1484071Y1644523D01*
X1484070Y1644514D01*
X1484065Y1644514D01*
X1483435Y1643395D01*
X1483436Y1643387D01*
X1483430Y1643385D01*
X1483065Y1642155D01*
X1483068Y1642147D01*
X1483063Y1642144D01*
X1482981Y1640863D01*
X1482984Y1640859D01*
X1482981Y1640857D01*
X1483063Y1639576D01*
X1483069Y1639570D01*
X1483065Y1639565D01*
X1483430Y1638335D01*
X1483437Y1638330D01*
X1483435Y1638325D01*
X1484065Y1637206D01*
X1484072Y1637203D01*
X1484071Y1637197D01*
X1484934Y1636247D01*
X1484942Y1636246D01*
X1484942Y1636240D01*
X1485995Y1635506D01*
X1486003Y1635506D01*
X1486005Y1635501D01*
X1487195Y1635019D01*
X1487202Y1635021D01*
X1487205Y1635016D01*
X1488472Y1634811D01*
X1488477Y1634814D01*
X1488480Y1634811D01*
X1500480Y1634811D01*
X1500484Y1634814D01*
G37*
G36*
X60304Y1634814D02*
X60304Y1634814D01*
X60307Y1634811D01*
X61429Y1634966D01*
X61434Y1634971D01*
X61438Y1634968D01*
X62509Y1635339D01*
X62513Y1635345D01*
X62518Y1635343D01*
X63495Y1635916D01*
X63498Y1635922D01*
X63503Y1635921D01*
X64350Y1636674D01*
X64352Y1636681D01*
X64357Y1636681D01*
X65041Y1637584D01*
X65041Y1637591D01*
X65046Y1637592D01*
X65541Y1638611D01*
X65539Y1638618D01*
X65544Y1638620D01*
X65831Y1639717D01*
X65829Y1639721D01*
X65831Y1639722D01*
X65829Y1639724D01*
X65832Y1639726D01*
X65899Y1640857D01*
X65897Y1640861D01*
X65899Y1640863D01*
X65832Y1641994D01*
X65827Y1641999D01*
X65831Y1642003D01*
X65544Y1643100D01*
X65538Y1643104D01*
X65541Y1643109D01*
X65046Y1644128D01*
X65040Y1644131D01*
X65041Y1644136D01*
X64357Y1645039D01*
X64350Y1645041D01*
X64350Y1645046D01*
X63503Y1645799D01*
X63496Y1645799D01*
X63495Y1645804D01*
X62518Y1646377D01*
X62511Y1646376D01*
X62509Y1646381D01*
X61438Y1646752D01*
X61432Y1646749D01*
X61429Y1646754D01*
X60307Y1646909D01*
X60302Y1646906D01*
X60300Y1646909D01*
X48300Y1646909D01*
X48295Y1646906D01*
X48292Y1646909D01*
X47025Y1646704D01*
X47019Y1646698D01*
X47015Y1646701D01*
X45825Y1646219D01*
X45821Y1646212D01*
X45815Y1646214D01*
X44762Y1645480D01*
X44760Y1645472D01*
X44754Y1645473D01*
X43891Y1644523D01*
X43890Y1644514D01*
X43885Y1644514D01*
X43255Y1643395D01*
X43256Y1643387D01*
X43250Y1643385D01*
X42885Y1642155D01*
X42888Y1642147D01*
X42883Y1642144D01*
X42801Y1640863D01*
X42804Y1640859D01*
X42801Y1640857D01*
X42883Y1639576D01*
X42889Y1639570D01*
X42885Y1639565D01*
X43250Y1638335D01*
X43257Y1638330D01*
X43255Y1638325D01*
X43885Y1637206D01*
X43892Y1637203D01*
X43891Y1637197D01*
X44754Y1636247D01*
X44762Y1636246D01*
X44762Y1636240D01*
X45815Y1635506D01*
X45823Y1635506D01*
X45825Y1635501D01*
X47015Y1635019D01*
X47022Y1635021D01*
X47025Y1635016D01*
X48292Y1634811D01*
X48297Y1634814D01*
X48300Y1634811D01*
X60300Y1634811D01*
X60304Y1634814D01*
G37*
G36*
X780394Y1634814D02*
X780394Y1634814D01*
X780397Y1634811D01*
X781519Y1634966D01*
X781524Y1634971D01*
X781528Y1634968D01*
X782599Y1635339D01*
X782603Y1635345D01*
X782608Y1635343D01*
X783585Y1635916D01*
X783588Y1635922D01*
X783593Y1635921D01*
X784440Y1636674D01*
X784442Y1636681D01*
X784447Y1636681D01*
X785131Y1637584D01*
X785131Y1637591D01*
X785136Y1637592D01*
X785631Y1638611D01*
X785629Y1638618D01*
X785634Y1638620D01*
X785921Y1639717D01*
X785919Y1639721D01*
X785921Y1639722D01*
X785919Y1639724D01*
X785922Y1639726D01*
X785989Y1640857D01*
X785987Y1640861D01*
X785989Y1640863D01*
X785922Y1641994D01*
X785917Y1641999D01*
X785921Y1642003D01*
X785634Y1643100D01*
X785628Y1643104D01*
X785631Y1643109D01*
X785136Y1644128D01*
X785130Y1644131D01*
X785131Y1644136D01*
X784447Y1645039D01*
X784440Y1645041D01*
X784440Y1645046D01*
X783593Y1645799D01*
X783586Y1645799D01*
X783585Y1645804D01*
X782608Y1646377D01*
X782601Y1646376D01*
X782599Y1646381D01*
X781528Y1646752D01*
X781522Y1646749D01*
X781519Y1646754D01*
X780397Y1646909D01*
X780392Y1646906D01*
X780390Y1646909D01*
X768390Y1646909D01*
X768385Y1646906D01*
X768382Y1646909D01*
X767115Y1646704D01*
X767109Y1646698D01*
X767105Y1646701D01*
X765915Y1646219D01*
X765911Y1646212D01*
X765905Y1646214D01*
X764852Y1645480D01*
X764850Y1645472D01*
X764844Y1645473D01*
X763981Y1644523D01*
X763980Y1644514D01*
X763975Y1644514D01*
X763345Y1643395D01*
X763346Y1643387D01*
X763340Y1643385D01*
X762975Y1642155D01*
X762978Y1642147D01*
X762973Y1642144D01*
X762891Y1640863D01*
X762894Y1640859D01*
X762891Y1640857D01*
X762973Y1639576D01*
X762979Y1639570D01*
X762975Y1639565D01*
X763340Y1638335D01*
X763347Y1638330D01*
X763345Y1638325D01*
X763975Y1637206D01*
X763982Y1637203D01*
X763981Y1637197D01*
X764844Y1636247D01*
X764852Y1636246D01*
X764852Y1636240D01*
X765905Y1635506D01*
X765913Y1635506D01*
X765915Y1635501D01*
X767105Y1635019D01*
X767112Y1635021D01*
X767115Y1635016D01*
X768382Y1634811D01*
X768387Y1634814D01*
X768390Y1634811D01*
X780390Y1634811D01*
X780394Y1634814D01*
G37*
G36*
X1500484Y959134D02*
X1500484Y959134D01*
X1500487Y959131D01*
X1501609Y959286D01*
X1501614Y959291D01*
X1501618Y959288D01*
X1502689Y959659D01*
X1502693Y959665D01*
X1502698Y959663D01*
X1503675Y960236D01*
X1503678Y960242D01*
X1503683Y960241D01*
X1504530Y960994D01*
X1504532Y961001D01*
X1504537Y961001D01*
X1505221Y961904D01*
X1505221Y961911D01*
X1505226Y961912D01*
X1505721Y962931D01*
X1505719Y962938D01*
X1505724Y962940D01*
X1506011Y964037D01*
X1506009Y964041D01*
X1506011Y964042D01*
X1506009Y964044D01*
X1506012Y964046D01*
X1506079Y965177D01*
X1506077Y965181D01*
X1506079Y965183D01*
X1506012Y966314D01*
X1506007Y966319D01*
X1506011Y966323D01*
X1505724Y967420D01*
X1505718Y967424D01*
X1505721Y967429D01*
X1505226Y968448D01*
X1505220Y968451D01*
X1505221Y968456D01*
X1504537Y969359D01*
X1504530Y969361D01*
X1504530Y969366D01*
X1503683Y970119D01*
X1503676Y970119D01*
X1503675Y970124D01*
X1502698Y970697D01*
X1502691Y970696D01*
X1502689Y970701D01*
X1501618Y971072D01*
X1501612Y971069D01*
X1501609Y971074D01*
X1500487Y971229D01*
X1500482Y971226D01*
X1500480Y971229D01*
X1488480Y971229D01*
X1488475Y971226D01*
X1488472Y971229D01*
X1487205Y971024D01*
X1487199Y971018D01*
X1487195Y971021D01*
X1486005Y970539D01*
X1486001Y970532D01*
X1485995Y970534D01*
X1484942Y969800D01*
X1484940Y969792D01*
X1484934Y969793D01*
X1484071Y968843D01*
X1484070Y968834D01*
X1484065Y968834D01*
X1483435Y967715D01*
X1483436Y967707D01*
X1483430Y967705D01*
X1483065Y966475D01*
X1483068Y966467D01*
X1483063Y966464D01*
X1482981Y965183D01*
X1482984Y965179D01*
X1482981Y965177D01*
X1483063Y963896D01*
X1483069Y963890D01*
X1483065Y963885D01*
X1483430Y962655D01*
X1483437Y962650D01*
X1483435Y962645D01*
X1484065Y961526D01*
X1484072Y961523D01*
X1484071Y961517D01*
X1484934Y960567D01*
X1484942Y960566D01*
X1484942Y960560D01*
X1485995Y959826D01*
X1486003Y959826D01*
X1486005Y959821D01*
X1487195Y959339D01*
X1487202Y959341D01*
X1487205Y959336D01*
X1488472Y959131D01*
X1488477Y959134D01*
X1488480Y959131D01*
X1500480Y959131D01*
X1500484Y959134D01*
G37*
G36*
X60304Y959134D02*
X60304Y959134D01*
X60307Y959131D01*
X61429Y959286D01*
X61434Y959291D01*
X61438Y959288D01*
X62509Y959659D01*
X62513Y959665D01*
X62518Y959663D01*
X63495Y960236D01*
X63498Y960242D01*
X63503Y960241D01*
X64350Y960994D01*
X64352Y961001D01*
X64357Y961001D01*
X65041Y961904D01*
X65041Y961911D01*
X65046Y961912D01*
X65541Y962931D01*
X65539Y962938D01*
X65544Y962940D01*
X65831Y964037D01*
X65829Y964041D01*
X65831Y964042D01*
X65829Y964044D01*
X65832Y964046D01*
X65899Y965177D01*
X65897Y965181D01*
X65899Y965183D01*
X65832Y966314D01*
X65827Y966319D01*
X65831Y966323D01*
X65544Y967420D01*
X65538Y967424D01*
X65541Y967429D01*
X65046Y968448D01*
X65040Y968451D01*
X65041Y968456D01*
X64357Y969359D01*
X64350Y969361D01*
X64350Y969366D01*
X63503Y970119D01*
X63496Y970119D01*
X63495Y970124D01*
X62518Y970697D01*
X62511Y970696D01*
X62509Y970701D01*
X61438Y971072D01*
X61432Y971069D01*
X61429Y971074D01*
X60307Y971229D01*
X60302Y971226D01*
X60300Y971229D01*
X48300Y971229D01*
X48295Y971226D01*
X48292Y971229D01*
X47025Y971024D01*
X47019Y971018D01*
X47015Y971021D01*
X45825Y970539D01*
X45821Y970532D01*
X45815Y970534D01*
X44762Y969800D01*
X44760Y969792D01*
X44754Y969793D01*
X43891Y968843D01*
X43890Y968834D01*
X43885Y968834D01*
X43255Y967715D01*
X43256Y967707D01*
X43250Y967705D01*
X42885Y966475D01*
X42888Y966467D01*
X42883Y966464D01*
X42801Y965183D01*
X42804Y965179D01*
X42801Y965177D01*
X42883Y963896D01*
X42889Y963890D01*
X42885Y963885D01*
X43250Y962655D01*
X43257Y962650D01*
X43255Y962645D01*
X43885Y961526D01*
X43892Y961523D01*
X43891Y961517D01*
X44754Y960567D01*
X44762Y960566D01*
X44762Y960560D01*
X45815Y959826D01*
X45823Y959826D01*
X45825Y959821D01*
X47015Y959339D01*
X47022Y959341D01*
X47025Y959336D01*
X48292Y959131D01*
X48297Y959134D01*
X48300Y959131D01*
X60300Y959131D01*
X60304Y959134D01*
G37*
G36*
X780394Y1045534D02*
X780394Y1045534D01*
X780397Y1045531D01*
X781519Y1045686D01*
X781524Y1045691D01*
X781528Y1045688D01*
X782599Y1046059D01*
X782603Y1046065D01*
X782608Y1046063D01*
X783585Y1046636D01*
X783588Y1046642D01*
X783593Y1046641D01*
X784440Y1047394D01*
X784442Y1047401D01*
X784447Y1047401D01*
X785131Y1048304D01*
X785131Y1048311D01*
X785136Y1048312D01*
X785631Y1049331D01*
X785629Y1049338D01*
X785634Y1049340D01*
X785921Y1050437D01*
X785919Y1050441D01*
X785921Y1050442D01*
X785919Y1050444D01*
X785922Y1050446D01*
X785989Y1051577D01*
X785987Y1051581D01*
X785989Y1051583D01*
X785922Y1052714D01*
X785917Y1052719D01*
X785921Y1052723D01*
X785634Y1053820D01*
X785628Y1053824D01*
X785631Y1053829D01*
X785136Y1054848D01*
X785130Y1054851D01*
X785131Y1054856D01*
X784447Y1055759D01*
X784440Y1055761D01*
X784440Y1055766D01*
X783593Y1056519D01*
X783586Y1056519D01*
X783585Y1056524D01*
X782608Y1057097D01*
X782601Y1057096D01*
X782599Y1057101D01*
X781528Y1057472D01*
X781522Y1057469D01*
X781519Y1057474D01*
X780397Y1057629D01*
X780392Y1057626D01*
X780390Y1057629D01*
X768390Y1057629D01*
X768385Y1057626D01*
X768382Y1057629D01*
X767115Y1057424D01*
X767109Y1057418D01*
X767105Y1057421D01*
X765915Y1056939D01*
X765911Y1056932D01*
X765905Y1056934D01*
X764852Y1056200D01*
X764850Y1056192D01*
X764844Y1056193D01*
X763981Y1055243D01*
X763980Y1055234D01*
X763975Y1055234D01*
X763345Y1054115D01*
X763346Y1054107D01*
X763340Y1054105D01*
X762975Y1052875D01*
X762978Y1052867D01*
X762973Y1052864D01*
X762891Y1051583D01*
X762894Y1051579D01*
X762891Y1051577D01*
X762973Y1050296D01*
X762979Y1050290D01*
X762975Y1050285D01*
X763340Y1049055D01*
X763347Y1049050D01*
X763345Y1049045D01*
X763975Y1047926D01*
X763982Y1047923D01*
X763981Y1047917D01*
X764844Y1046967D01*
X764852Y1046966D01*
X764852Y1046960D01*
X765905Y1046226D01*
X765913Y1046226D01*
X765915Y1046221D01*
X767105Y1045739D01*
X767112Y1045741D01*
X767115Y1045736D01*
X768382Y1045531D01*
X768387Y1045534D01*
X768390Y1045531D01*
X780390Y1045531D01*
X780394Y1045534D01*
G37*
G36*
X1500484Y1548414D02*
X1500484Y1548414D01*
X1500487Y1548411D01*
X1501609Y1548566D01*
X1501614Y1548571D01*
X1501618Y1548568D01*
X1502689Y1548939D01*
X1502693Y1548945D01*
X1502698Y1548943D01*
X1503675Y1549516D01*
X1503678Y1549522D01*
X1503683Y1549521D01*
X1504530Y1550274D01*
X1504532Y1550281D01*
X1504537Y1550281D01*
X1505221Y1551184D01*
X1505221Y1551191D01*
X1505226Y1551192D01*
X1505721Y1552211D01*
X1505719Y1552218D01*
X1505724Y1552220D01*
X1506011Y1553317D01*
X1506009Y1553321D01*
X1506011Y1553322D01*
X1506009Y1553324D01*
X1506012Y1553326D01*
X1506079Y1554457D01*
X1506077Y1554461D01*
X1506079Y1554463D01*
X1506012Y1555594D01*
X1506007Y1555599D01*
X1506011Y1555603D01*
X1505724Y1556700D01*
X1505718Y1556704D01*
X1505721Y1556709D01*
X1505226Y1557728D01*
X1505220Y1557731D01*
X1505221Y1557736D01*
X1504537Y1558639D01*
X1504530Y1558641D01*
X1504530Y1558646D01*
X1503683Y1559399D01*
X1503676Y1559399D01*
X1503675Y1559404D01*
X1502698Y1559977D01*
X1502691Y1559976D01*
X1502689Y1559981D01*
X1501618Y1560352D01*
X1501612Y1560349D01*
X1501609Y1560354D01*
X1500487Y1560509D01*
X1500482Y1560506D01*
X1500480Y1560509D01*
X1488480Y1560509D01*
X1488475Y1560506D01*
X1488472Y1560509D01*
X1487205Y1560304D01*
X1487199Y1560298D01*
X1487195Y1560301D01*
X1486005Y1559819D01*
X1486001Y1559812D01*
X1485995Y1559814D01*
X1484942Y1559080D01*
X1484940Y1559072D01*
X1484934Y1559073D01*
X1484071Y1558123D01*
X1484070Y1558114D01*
X1484065Y1558114D01*
X1483435Y1556995D01*
X1483436Y1556987D01*
X1483430Y1556985D01*
X1483065Y1555755D01*
X1483068Y1555747D01*
X1483063Y1555744D01*
X1482981Y1554463D01*
X1482984Y1554459D01*
X1482981Y1554457D01*
X1483063Y1553176D01*
X1483069Y1553170D01*
X1483065Y1553165D01*
X1483430Y1551935D01*
X1483437Y1551930D01*
X1483435Y1551925D01*
X1484065Y1550806D01*
X1484072Y1550803D01*
X1484071Y1550797D01*
X1484934Y1549847D01*
X1484942Y1549846D01*
X1484942Y1549840D01*
X1485995Y1549106D01*
X1486003Y1549106D01*
X1486005Y1549101D01*
X1487195Y1548619D01*
X1487202Y1548621D01*
X1487205Y1548616D01*
X1488472Y1548411D01*
X1488477Y1548414D01*
X1488480Y1548411D01*
X1500480Y1548411D01*
X1500484Y1548414D01*
G37*
G36*
X780394Y456254D02*
X780394Y456254D01*
X780397Y456251D01*
X781519Y456406D01*
X781524Y456411D01*
X781528Y456408D01*
X782599Y456779D01*
X782603Y456785D01*
X782608Y456783D01*
X783585Y457356D01*
X783588Y457362D01*
X783593Y457361D01*
X784440Y458114D01*
X784442Y458121D01*
X784447Y458121D01*
X785131Y459024D01*
X785131Y459031D01*
X785136Y459032D01*
X785631Y460051D01*
X785629Y460058D01*
X785634Y460060D01*
X785921Y461157D01*
X785919Y461161D01*
X785921Y461162D01*
X785919Y461164D01*
X785922Y461166D01*
X785989Y462297D01*
X785987Y462301D01*
X785989Y462303D01*
X785922Y463434D01*
X785917Y463439D01*
X785921Y463443D01*
X785634Y464540D01*
X785628Y464544D01*
X785631Y464549D01*
X785136Y465568D01*
X785130Y465571D01*
X785131Y465576D01*
X784447Y466479D01*
X784440Y466481D01*
X784440Y466486D01*
X783593Y467239D01*
X783586Y467239D01*
X783585Y467244D01*
X782608Y467817D01*
X782601Y467816D01*
X782599Y467821D01*
X781528Y468192D01*
X781522Y468189D01*
X781519Y468194D01*
X780397Y468349D01*
X780392Y468346D01*
X780390Y468349D01*
X768390Y468349D01*
X768385Y468346D01*
X768382Y468349D01*
X767115Y468144D01*
X767109Y468138D01*
X767105Y468141D01*
X765915Y467659D01*
X765911Y467652D01*
X765905Y467654D01*
X764852Y466920D01*
X764850Y466912D01*
X764844Y466913D01*
X763981Y465963D01*
X763980Y465954D01*
X763975Y465954D01*
X763345Y464835D01*
X763346Y464827D01*
X763340Y464825D01*
X762975Y463595D01*
X762978Y463587D01*
X762973Y463584D01*
X762891Y462303D01*
X762894Y462299D01*
X762891Y462297D01*
X762973Y461016D01*
X762979Y461010D01*
X762975Y461005D01*
X763340Y459775D01*
X763347Y459770D01*
X763345Y459765D01*
X763975Y458646D01*
X763982Y458643D01*
X763981Y458637D01*
X764844Y457687D01*
X764852Y457686D01*
X764852Y457680D01*
X765905Y456946D01*
X765913Y456946D01*
X765915Y456941D01*
X767105Y456459D01*
X767112Y456461D01*
X767115Y456456D01*
X768382Y456251D01*
X768387Y456254D01*
X768390Y456251D01*
X780390Y456251D01*
X780394Y456254D01*
G37*
G36*
X1500484Y456254D02*
X1500484Y456254D01*
X1500487Y456251D01*
X1501609Y456406D01*
X1501614Y456411D01*
X1501618Y456408D01*
X1502689Y456779D01*
X1502693Y456785D01*
X1502698Y456783D01*
X1503675Y457356D01*
X1503678Y457362D01*
X1503683Y457361D01*
X1504530Y458114D01*
X1504532Y458121D01*
X1504537Y458121D01*
X1505221Y459024D01*
X1505221Y459031D01*
X1505226Y459032D01*
X1505721Y460051D01*
X1505719Y460058D01*
X1505724Y460060D01*
X1506011Y461157D01*
X1506009Y461161D01*
X1506011Y461162D01*
X1506009Y461164D01*
X1506012Y461166D01*
X1506079Y462297D01*
X1506077Y462301D01*
X1506079Y462303D01*
X1506012Y463434D01*
X1506007Y463439D01*
X1506011Y463443D01*
X1505724Y464540D01*
X1505718Y464544D01*
X1505721Y464549D01*
X1505226Y465568D01*
X1505220Y465571D01*
X1505221Y465576D01*
X1504537Y466479D01*
X1504530Y466481D01*
X1504530Y466486D01*
X1503683Y467239D01*
X1503676Y467239D01*
X1503675Y467244D01*
X1502698Y467817D01*
X1502691Y467816D01*
X1502689Y467821D01*
X1501618Y468192D01*
X1501612Y468189D01*
X1501609Y468194D01*
X1500487Y468349D01*
X1500482Y468346D01*
X1500480Y468349D01*
X1488480Y468349D01*
X1488475Y468346D01*
X1488472Y468349D01*
X1487205Y468144D01*
X1487199Y468138D01*
X1487195Y468141D01*
X1486005Y467659D01*
X1486001Y467652D01*
X1485995Y467654D01*
X1484942Y466920D01*
X1484940Y466912D01*
X1484934Y466913D01*
X1484071Y465963D01*
X1484070Y465954D01*
X1484065Y465954D01*
X1483435Y464835D01*
X1483436Y464827D01*
X1483430Y464825D01*
X1483065Y463595D01*
X1483068Y463587D01*
X1483063Y463584D01*
X1482981Y462303D01*
X1482984Y462299D01*
X1482981Y462297D01*
X1483063Y461016D01*
X1483069Y461010D01*
X1483065Y461005D01*
X1483430Y459775D01*
X1483437Y459770D01*
X1483435Y459765D01*
X1484065Y458646D01*
X1484072Y458643D01*
X1484071Y458637D01*
X1484934Y457687D01*
X1484942Y457686D01*
X1484942Y457680D01*
X1485995Y456946D01*
X1486003Y456946D01*
X1486005Y456941D01*
X1487195Y456459D01*
X1487202Y456461D01*
X1487205Y456456D01*
X1488472Y456251D01*
X1488477Y456254D01*
X1488480Y456251D01*
X1500480Y456251D01*
X1500484Y456254D01*
G37*
G36*
X780394Y1548414D02*
X780394Y1548414D01*
X780397Y1548411D01*
X781519Y1548566D01*
X781524Y1548571D01*
X781528Y1548568D01*
X782599Y1548939D01*
X782603Y1548945D01*
X782608Y1548943D01*
X783585Y1549516D01*
X783588Y1549522D01*
X783593Y1549521D01*
X784440Y1550274D01*
X784442Y1550281D01*
X784447Y1550281D01*
X785131Y1551184D01*
X785131Y1551191D01*
X785136Y1551192D01*
X785631Y1552211D01*
X785629Y1552218D01*
X785634Y1552220D01*
X785921Y1553317D01*
X785919Y1553321D01*
X785921Y1553322D01*
X785919Y1553324D01*
X785922Y1553326D01*
X785989Y1554457D01*
X785987Y1554461D01*
X785989Y1554463D01*
X785922Y1555594D01*
X785917Y1555599D01*
X785921Y1555603D01*
X785634Y1556700D01*
X785628Y1556704D01*
X785631Y1556709D01*
X785136Y1557728D01*
X785130Y1557731D01*
X785131Y1557736D01*
X784447Y1558639D01*
X784440Y1558641D01*
X784440Y1558646D01*
X783593Y1559399D01*
X783586Y1559399D01*
X783585Y1559404D01*
X782608Y1559977D01*
X782601Y1559976D01*
X782599Y1559981D01*
X781528Y1560352D01*
X781522Y1560349D01*
X781519Y1560354D01*
X780397Y1560509D01*
X780392Y1560506D01*
X780390Y1560509D01*
X768390Y1560509D01*
X768385Y1560506D01*
X768382Y1560509D01*
X767115Y1560304D01*
X767109Y1560298D01*
X767105Y1560301D01*
X765915Y1559819D01*
X765911Y1559812D01*
X765905Y1559814D01*
X764852Y1559080D01*
X764850Y1559072D01*
X764844Y1559073D01*
X763981Y1558123D01*
X763980Y1558114D01*
X763975Y1558114D01*
X763345Y1556995D01*
X763346Y1556987D01*
X763340Y1556985D01*
X762975Y1555755D01*
X762978Y1555747D01*
X762973Y1555744D01*
X762891Y1554463D01*
X762894Y1554459D01*
X762891Y1554457D01*
X762973Y1553176D01*
X762979Y1553170D01*
X762975Y1553165D01*
X763340Y1551935D01*
X763347Y1551930D01*
X763345Y1551925D01*
X763975Y1550806D01*
X763982Y1550803D01*
X763981Y1550797D01*
X764844Y1549847D01*
X764852Y1549846D01*
X764852Y1549840D01*
X765905Y1549106D01*
X765913Y1549106D01*
X765915Y1549101D01*
X767105Y1548619D01*
X767112Y1548621D01*
X767115Y1548616D01*
X768382Y1548411D01*
X768387Y1548414D01*
X768390Y1548411D01*
X780390Y1548411D01*
X780394Y1548414D01*
G37*
G36*
X60304Y1548414D02*
X60304Y1548414D01*
X60307Y1548411D01*
X61429Y1548566D01*
X61434Y1548571D01*
X61438Y1548568D01*
X62509Y1548939D01*
X62513Y1548945D01*
X62518Y1548943D01*
X63495Y1549516D01*
X63498Y1549522D01*
X63503Y1549521D01*
X64350Y1550274D01*
X64352Y1550281D01*
X64357Y1550281D01*
X65041Y1551184D01*
X65041Y1551191D01*
X65046Y1551192D01*
X65541Y1552211D01*
X65539Y1552218D01*
X65544Y1552220D01*
X65831Y1553317D01*
X65829Y1553321D01*
X65831Y1553322D01*
X65829Y1553324D01*
X65832Y1553326D01*
X65899Y1554457D01*
X65897Y1554461D01*
X65899Y1554463D01*
X65832Y1555594D01*
X65827Y1555599D01*
X65831Y1555603D01*
X65544Y1556700D01*
X65538Y1556704D01*
X65541Y1556709D01*
X65046Y1557728D01*
X65040Y1557731D01*
X65041Y1557736D01*
X64357Y1558639D01*
X64350Y1558641D01*
X64350Y1558646D01*
X63503Y1559399D01*
X63496Y1559399D01*
X63495Y1559404D01*
X62518Y1559977D01*
X62511Y1559976D01*
X62509Y1559981D01*
X61438Y1560352D01*
X61432Y1560349D01*
X61429Y1560354D01*
X60307Y1560509D01*
X60302Y1560506D01*
X60300Y1560509D01*
X48300Y1560509D01*
X48295Y1560506D01*
X48292Y1560509D01*
X47025Y1560304D01*
X47019Y1560298D01*
X47015Y1560301D01*
X45825Y1559819D01*
X45821Y1559812D01*
X45815Y1559814D01*
X44762Y1559080D01*
X44760Y1559072D01*
X44754Y1559073D01*
X43891Y1558123D01*
X43890Y1558114D01*
X43885Y1558114D01*
X43255Y1556995D01*
X43256Y1556987D01*
X43250Y1556985D01*
X42885Y1555755D01*
X42888Y1555747D01*
X42883Y1555744D01*
X42801Y1554463D01*
X42804Y1554459D01*
X42801Y1554457D01*
X42883Y1553176D01*
X42889Y1553170D01*
X42885Y1553165D01*
X43250Y1551935D01*
X43257Y1551930D01*
X43255Y1551925D01*
X43885Y1550806D01*
X43892Y1550803D01*
X43891Y1550797D01*
X44754Y1549847D01*
X44762Y1549846D01*
X44762Y1549840D01*
X45815Y1549106D01*
X45823Y1549106D01*
X45825Y1549101D01*
X47015Y1548619D01*
X47022Y1548621D01*
X47025Y1548616D01*
X48292Y1548411D01*
X48297Y1548414D01*
X48300Y1548411D01*
X60300Y1548411D01*
X60304Y1548414D01*
G37*
G36*
X60304Y456254D02*
X60304Y456254D01*
X60307Y456251D01*
X61429Y456406D01*
X61434Y456411D01*
X61438Y456408D01*
X62509Y456779D01*
X62513Y456785D01*
X62518Y456783D01*
X63495Y457356D01*
X63498Y457362D01*
X63503Y457361D01*
X64350Y458114D01*
X64352Y458121D01*
X64357Y458121D01*
X65041Y459024D01*
X65041Y459031D01*
X65046Y459032D01*
X65541Y460051D01*
X65539Y460058D01*
X65544Y460060D01*
X65831Y461157D01*
X65829Y461161D01*
X65831Y461162D01*
X65829Y461164D01*
X65832Y461166D01*
X65899Y462297D01*
X65897Y462301D01*
X65899Y462303D01*
X65832Y463434D01*
X65827Y463439D01*
X65831Y463443D01*
X65544Y464540D01*
X65538Y464544D01*
X65541Y464549D01*
X65046Y465568D01*
X65040Y465571D01*
X65041Y465576D01*
X64357Y466479D01*
X64350Y466481D01*
X64350Y466486D01*
X63503Y467239D01*
X63496Y467239D01*
X63495Y467244D01*
X62518Y467817D01*
X62511Y467816D01*
X62509Y467821D01*
X61438Y468192D01*
X61432Y468189D01*
X61429Y468194D01*
X60307Y468349D01*
X60302Y468346D01*
X60300Y468349D01*
X48300Y468349D01*
X48295Y468346D01*
X48292Y468349D01*
X47025Y468144D01*
X47019Y468138D01*
X47015Y468141D01*
X45825Y467659D01*
X45821Y467652D01*
X45815Y467654D01*
X44762Y466920D01*
X44760Y466912D01*
X44754Y466913D01*
X43891Y465963D01*
X43890Y465954D01*
X43885Y465954D01*
X43255Y464835D01*
X43256Y464827D01*
X43250Y464825D01*
X42885Y463595D01*
X42888Y463587D01*
X42883Y463584D01*
X42801Y462303D01*
X42804Y462299D01*
X42801Y462297D01*
X42883Y461016D01*
X42889Y461010D01*
X42885Y461005D01*
X43250Y459775D01*
X43257Y459770D01*
X43255Y459765D01*
X43885Y458646D01*
X43892Y458643D01*
X43891Y458637D01*
X44754Y457687D01*
X44762Y457686D01*
X44762Y457680D01*
X45815Y456946D01*
X45823Y456946D01*
X45825Y456941D01*
X47015Y456459D01*
X47022Y456461D01*
X47025Y456456D01*
X48292Y456251D01*
X48297Y456254D01*
X48300Y456251D01*
X60300Y456251D01*
X60304Y456254D01*
G37*
G36*
X60304Y1045534D02*
X60304Y1045534D01*
X60307Y1045531D01*
X61429Y1045686D01*
X61434Y1045691D01*
X61438Y1045688D01*
X62509Y1046059D01*
X62513Y1046065D01*
X62518Y1046063D01*
X63495Y1046636D01*
X63498Y1046642D01*
X63503Y1046641D01*
X64350Y1047394D01*
X64352Y1047401D01*
X64357Y1047401D01*
X65041Y1048304D01*
X65041Y1048311D01*
X65046Y1048312D01*
X65541Y1049331D01*
X65539Y1049338D01*
X65544Y1049340D01*
X65831Y1050437D01*
X65829Y1050441D01*
X65831Y1050442D01*
X65829Y1050444D01*
X65832Y1050446D01*
X65899Y1051577D01*
X65897Y1051581D01*
X65899Y1051583D01*
X65832Y1052714D01*
X65827Y1052719D01*
X65831Y1052723D01*
X65544Y1053820D01*
X65538Y1053824D01*
X65541Y1053829D01*
X65046Y1054848D01*
X65040Y1054851D01*
X65041Y1054856D01*
X64357Y1055759D01*
X64350Y1055761D01*
X64350Y1055766D01*
X63503Y1056519D01*
X63496Y1056519D01*
X63495Y1056524D01*
X62518Y1057097D01*
X62511Y1057096D01*
X62509Y1057101D01*
X61438Y1057472D01*
X61432Y1057469D01*
X61429Y1057474D01*
X60307Y1057629D01*
X60302Y1057626D01*
X60300Y1057629D01*
X48300Y1057629D01*
X48295Y1057626D01*
X48292Y1057629D01*
X47025Y1057424D01*
X47019Y1057418D01*
X47015Y1057421D01*
X45825Y1056939D01*
X45821Y1056932D01*
X45815Y1056934D01*
X44762Y1056200D01*
X44760Y1056192D01*
X44754Y1056193D01*
X43891Y1055243D01*
X43890Y1055234D01*
X43885Y1055234D01*
X43255Y1054115D01*
X43256Y1054107D01*
X43250Y1054105D01*
X42885Y1052875D01*
X42888Y1052867D01*
X42883Y1052864D01*
X42801Y1051583D01*
X42804Y1051579D01*
X42801Y1051577D01*
X42883Y1050296D01*
X42889Y1050290D01*
X42885Y1050285D01*
X43250Y1049055D01*
X43257Y1049050D01*
X43255Y1049045D01*
X43885Y1047926D01*
X43892Y1047923D01*
X43891Y1047917D01*
X44754Y1046967D01*
X44762Y1046966D01*
X44762Y1046960D01*
X45815Y1046226D01*
X45823Y1046226D01*
X45825Y1046221D01*
X47015Y1045739D01*
X47022Y1045741D01*
X47025Y1045736D01*
X48292Y1045531D01*
X48297Y1045534D01*
X48300Y1045531D01*
X60300Y1045531D01*
X60304Y1045534D01*
G37*
G36*
X1500484Y1045534D02*
X1500484Y1045534D01*
X1500487Y1045531D01*
X1501609Y1045686D01*
X1501614Y1045691D01*
X1501618Y1045688D01*
X1502689Y1046059D01*
X1502693Y1046065D01*
X1502698Y1046063D01*
X1503675Y1046636D01*
X1503678Y1046642D01*
X1503683Y1046641D01*
X1504530Y1047394D01*
X1504532Y1047401D01*
X1504537Y1047401D01*
X1505221Y1048304D01*
X1505221Y1048311D01*
X1505226Y1048312D01*
X1505721Y1049331D01*
X1505719Y1049338D01*
X1505724Y1049340D01*
X1506011Y1050437D01*
X1506009Y1050441D01*
X1506011Y1050442D01*
X1506009Y1050444D01*
X1506012Y1050446D01*
X1506079Y1051577D01*
X1506077Y1051581D01*
X1506079Y1051583D01*
X1506012Y1052714D01*
X1506007Y1052719D01*
X1506011Y1052723D01*
X1505724Y1053820D01*
X1505718Y1053824D01*
X1505721Y1053829D01*
X1505226Y1054848D01*
X1505220Y1054851D01*
X1505221Y1054856D01*
X1504537Y1055759D01*
X1504530Y1055761D01*
X1504530Y1055766D01*
X1503683Y1056519D01*
X1503676Y1056519D01*
X1503675Y1056524D01*
X1502698Y1057097D01*
X1502691Y1057096D01*
X1502689Y1057101D01*
X1501618Y1057472D01*
X1501612Y1057469D01*
X1501609Y1057474D01*
X1500487Y1057629D01*
X1500482Y1057626D01*
X1500480Y1057629D01*
X1488480Y1057629D01*
X1488475Y1057626D01*
X1488472Y1057629D01*
X1487205Y1057424D01*
X1487199Y1057418D01*
X1487195Y1057421D01*
X1486005Y1056939D01*
X1486001Y1056932D01*
X1485995Y1056934D01*
X1484942Y1056200D01*
X1484940Y1056192D01*
X1484934Y1056193D01*
X1484071Y1055243D01*
X1484070Y1055234D01*
X1484065Y1055234D01*
X1483435Y1054115D01*
X1483436Y1054107D01*
X1483430Y1054105D01*
X1483065Y1052875D01*
X1483068Y1052867D01*
X1483063Y1052864D01*
X1482981Y1051583D01*
X1482984Y1051579D01*
X1482981Y1051577D01*
X1483063Y1050296D01*
X1483069Y1050290D01*
X1483065Y1050285D01*
X1483430Y1049055D01*
X1483437Y1049050D01*
X1483435Y1049045D01*
X1484065Y1047926D01*
X1484072Y1047923D01*
X1484071Y1047917D01*
X1484934Y1046967D01*
X1484942Y1046966D01*
X1484942Y1046960D01*
X1485995Y1046226D01*
X1486003Y1046226D01*
X1486005Y1046221D01*
X1487195Y1045739D01*
X1487202Y1045741D01*
X1487205Y1045736D01*
X1488472Y1045531D01*
X1488477Y1045534D01*
X1488480Y1045531D01*
X1500480Y1045531D01*
X1500484Y1045534D01*
G37*
G36*
X60304Y369854D02*
X60304Y369854D01*
X60307Y369851D01*
X61429Y370006D01*
X61434Y370011D01*
X61438Y370008D01*
X62509Y370379D01*
X62513Y370385D01*
X62518Y370383D01*
X63495Y370956D01*
X63498Y370962D01*
X63503Y370961D01*
X64350Y371714D01*
X64352Y371721D01*
X64357Y371721D01*
X65041Y372624D01*
X65041Y372631D01*
X65046Y372632D01*
X65541Y373651D01*
X65539Y373658D01*
X65544Y373660D01*
X65831Y374757D01*
X65829Y374761D01*
X65831Y374762D01*
X65829Y374764D01*
X65832Y374766D01*
X65899Y375897D01*
X65897Y375901D01*
X65899Y375903D01*
X65832Y377034D01*
X65827Y377039D01*
X65831Y377043D01*
X65544Y378140D01*
X65538Y378144D01*
X65541Y378149D01*
X65046Y379168D01*
X65040Y379171D01*
X65041Y379176D01*
X64357Y380079D01*
X64350Y380081D01*
X64350Y380086D01*
X63503Y380839D01*
X63496Y380839D01*
X63495Y380844D01*
X62518Y381417D01*
X62511Y381416D01*
X62509Y381421D01*
X61438Y381792D01*
X61432Y381789D01*
X61429Y381794D01*
X60307Y381949D01*
X60302Y381946D01*
X60300Y381949D01*
X48300Y381949D01*
X48295Y381946D01*
X48292Y381949D01*
X47025Y381744D01*
X47019Y381738D01*
X47015Y381741D01*
X45825Y381259D01*
X45821Y381252D01*
X45815Y381254D01*
X44762Y380520D01*
X44760Y380512D01*
X44754Y380513D01*
X43891Y379563D01*
X43890Y379554D01*
X43885Y379554D01*
X43255Y378435D01*
X43256Y378427D01*
X43250Y378425D01*
X42885Y377195D01*
X42888Y377187D01*
X42883Y377184D01*
X42801Y375903D01*
X42804Y375899D01*
X42801Y375897D01*
X42883Y374616D01*
X42889Y374610D01*
X42885Y374605D01*
X43250Y373375D01*
X43257Y373370D01*
X43255Y373365D01*
X43885Y372246D01*
X43892Y372243D01*
X43891Y372237D01*
X44754Y371287D01*
X44762Y371286D01*
X44762Y371280D01*
X45815Y370546D01*
X45823Y370546D01*
X45825Y370541D01*
X47015Y370059D01*
X47022Y370061D01*
X47025Y370056D01*
X48292Y369851D01*
X48297Y369854D01*
X48300Y369851D01*
X60300Y369851D01*
X60304Y369854D01*
G37*
G36*
X780394Y369854D02*
X780394Y369854D01*
X780397Y369851D01*
X781519Y370006D01*
X781524Y370011D01*
X781528Y370008D01*
X782599Y370379D01*
X782603Y370385D01*
X782608Y370383D01*
X783585Y370956D01*
X783588Y370962D01*
X783593Y370961D01*
X784440Y371714D01*
X784442Y371721D01*
X784447Y371721D01*
X785131Y372624D01*
X785131Y372631D01*
X785136Y372632D01*
X785631Y373651D01*
X785629Y373658D01*
X785634Y373660D01*
X785921Y374757D01*
X785919Y374761D01*
X785921Y374762D01*
X785919Y374764D01*
X785922Y374766D01*
X785989Y375897D01*
X785987Y375901D01*
X785989Y375903D01*
X785922Y377034D01*
X785917Y377039D01*
X785921Y377043D01*
X785634Y378140D01*
X785628Y378144D01*
X785631Y378149D01*
X785136Y379168D01*
X785130Y379171D01*
X785131Y379176D01*
X784447Y380079D01*
X784440Y380081D01*
X784440Y380086D01*
X783593Y380839D01*
X783586Y380839D01*
X783585Y380844D01*
X782608Y381417D01*
X782601Y381416D01*
X782599Y381421D01*
X781528Y381792D01*
X781522Y381789D01*
X781519Y381794D01*
X780397Y381949D01*
X780392Y381946D01*
X780390Y381949D01*
X768390Y381949D01*
X768385Y381946D01*
X768382Y381949D01*
X767115Y381744D01*
X767109Y381738D01*
X767105Y381741D01*
X765915Y381259D01*
X765911Y381252D01*
X765905Y381254D01*
X764852Y380520D01*
X764850Y380512D01*
X764844Y380513D01*
X763981Y379563D01*
X763980Y379554D01*
X763975Y379554D01*
X763345Y378435D01*
X763346Y378427D01*
X763340Y378425D01*
X762975Y377195D01*
X762978Y377187D01*
X762973Y377184D01*
X762891Y375903D01*
X762894Y375899D01*
X762891Y375897D01*
X762973Y374616D01*
X762979Y374610D01*
X762975Y374605D01*
X763340Y373375D01*
X763347Y373370D01*
X763345Y373365D01*
X763975Y372246D01*
X763982Y372243D01*
X763981Y372237D01*
X764844Y371287D01*
X764852Y371286D01*
X764852Y371280D01*
X765905Y370546D01*
X765913Y370546D01*
X765915Y370541D01*
X767105Y370059D01*
X767112Y370061D01*
X767115Y370056D01*
X768382Y369851D01*
X768387Y369854D01*
X768390Y369851D01*
X780390Y369851D01*
X780394Y369854D01*
G37*
G36*
X1500484Y369854D02*
X1500484Y369854D01*
X1500487Y369851D01*
X1501609Y370006D01*
X1501614Y370011D01*
X1501618Y370008D01*
X1502689Y370379D01*
X1502693Y370385D01*
X1502698Y370383D01*
X1503675Y370956D01*
X1503678Y370962D01*
X1503683Y370961D01*
X1504530Y371714D01*
X1504532Y371721D01*
X1504537Y371721D01*
X1505221Y372624D01*
X1505221Y372631D01*
X1505226Y372632D01*
X1505721Y373651D01*
X1505719Y373658D01*
X1505724Y373660D01*
X1506011Y374757D01*
X1506009Y374761D01*
X1506011Y374762D01*
X1506009Y374764D01*
X1506012Y374766D01*
X1506079Y375897D01*
X1506077Y375901D01*
X1506079Y375903D01*
X1506012Y377034D01*
X1506007Y377039D01*
X1506011Y377043D01*
X1505724Y378140D01*
X1505718Y378144D01*
X1505721Y378149D01*
X1505226Y379168D01*
X1505220Y379171D01*
X1505221Y379176D01*
X1504537Y380079D01*
X1504530Y380081D01*
X1504530Y380086D01*
X1503683Y380839D01*
X1503676Y380839D01*
X1503675Y380844D01*
X1502698Y381417D01*
X1502691Y381416D01*
X1502689Y381421D01*
X1501618Y381792D01*
X1501612Y381789D01*
X1501609Y381794D01*
X1500487Y381949D01*
X1500482Y381946D01*
X1500480Y381949D01*
X1488480Y381949D01*
X1488475Y381946D01*
X1488472Y381949D01*
X1487205Y381744D01*
X1487199Y381738D01*
X1487195Y381741D01*
X1486005Y381259D01*
X1486001Y381252D01*
X1485995Y381254D01*
X1484942Y380520D01*
X1484940Y380512D01*
X1484934Y380513D01*
X1484071Y379563D01*
X1484070Y379554D01*
X1484065Y379554D01*
X1483435Y378435D01*
X1483436Y378427D01*
X1483430Y378425D01*
X1483065Y377195D01*
X1483068Y377187D01*
X1483063Y377184D01*
X1482981Y375903D01*
X1482984Y375899D01*
X1482981Y375897D01*
X1483063Y374616D01*
X1483069Y374610D01*
X1483065Y374605D01*
X1483430Y373375D01*
X1483437Y373370D01*
X1483435Y373365D01*
X1484065Y372246D01*
X1484072Y372243D01*
X1484071Y372237D01*
X1484934Y371287D01*
X1484942Y371286D01*
X1484942Y371280D01*
X1485995Y370546D01*
X1486003Y370546D01*
X1486005Y370541D01*
X1487195Y370059D01*
X1487202Y370061D01*
X1487205Y370056D01*
X1488472Y369851D01*
X1488477Y369854D01*
X1488480Y369851D01*
X1500480Y369851D01*
X1500484Y369854D01*
G37*
G36*
X15503Y959133D02*
X15503Y959133D01*
X15505Y959131D01*
X16681Y959242D01*
X16686Y959247D01*
X16690Y959244D01*
X17822Y959582D01*
X17826Y959588D01*
X17831Y959586D01*
X18875Y960138D01*
X18878Y960145D01*
X18883Y960143D01*
X19799Y960889D01*
X19800Y960896D01*
X19806Y960896D01*
X20559Y961806D01*
X20559Y961813D01*
X20564Y961814D01*
X21125Y962853D01*
X21124Y962858D01*
X21128Y962860D01*
X21127Y962861D01*
X21129Y962862D01*
X21476Y963991D01*
X21476Y963992D01*
X21477Y963993D01*
X21474Y963997D01*
X21478Y964000D01*
X21599Y965175D01*
X21595Y965182D01*
X21599Y965186D01*
X21442Y966526D01*
X21437Y966532D01*
X21440Y966537D01*
X20989Y967808D01*
X20982Y967813D01*
X20984Y967818D01*
X20262Y968957D01*
X20254Y968960D01*
X20255Y968966D01*
X19297Y969916D01*
X19289Y969917D01*
X19288Y969923D01*
X18143Y970636D01*
X18135Y970635D01*
X18133Y970641D01*
X16857Y971081D01*
X16850Y971079D01*
X16847Y971083D01*
X15505Y971229D01*
X15502Y971227D01*
X15500Y971229D01*
X9500Y971229D01*
X9497Y971227D01*
X9494Y971229D01*
X8165Y971074D01*
X8159Y971068D01*
X8155Y971071D01*
X6894Y970624D01*
X6889Y970617D01*
X6884Y970619D01*
X5754Y969902D01*
X5751Y969895D01*
X5745Y969896D01*
X4803Y968946D01*
X4802Y968937D01*
X4796Y968937D01*
X4089Y967801D01*
X4090Y967793D01*
X4084Y967791D01*
X3648Y966526D01*
X3650Y966518D01*
X3645Y966516D01*
X3501Y965185D01*
X3505Y965179D01*
X3501Y965175D01*
X3611Y964009D01*
X3616Y964004D01*
X3613Y964000D01*
X3948Y962877D01*
X3954Y962873D01*
X3952Y962869D01*
X4500Y961833D01*
X4506Y961830D01*
X4505Y961825D01*
X5244Y960917D01*
X5251Y960915D01*
X5251Y960910D01*
X6153Y960163D01*
X6161Y960163D01*
X6161Y960158D01*
X7192Y959601D01*
X7199Y959602D01*
X7201Y959597D01*
X8320Y959253D01*
X8327Y959255D01*
X8330Y959251D01*
X9495Y959131D01*
X9498Y959133D01*
X9500Y959131D01*
X15500Y959131D01*
X15503Y959133D01*
G37*
G36*
X1455683Y959133D02*
X1455683Y959133D01*
X1455685Y959131D01*
X1456861Y959242D01*
X1456866Y959247D01*
X1456870Y959244D01*
X1458002Y959582D01*
X1458006Y959588D01*
X1458011Y959586D01*
X1459055Y960138D01*
X1459058Y960145D01*
X1459063Y960143D01*
X1459979Y960889D01*
X1459980Y960896D01*
X1459986Y960896D01*
X1460739Y961806D01*
X1460739Y961813D01*
X1460744Y961814D01*
X1461305Y962853D01*
X1461304Y962858D01*
X1461308Y962860D01*
X1461307Y962861D01*
X1461309Y962862D01*
X1461656Y963991D01*
X1461656Y963992D01*
X1461657Y963993D01*
X1461654Y963997D01*
X1461658Y964000D01*
X1461779Y965175D01*
X1461775Y965182D01*
X1461779Y965186D01*
X1461622Y966526D01*
X1461617Y966532D01*
X1461620Y966537D01*
X1461169Y967808D01*
X1461162Y967813D01*
X1461164Y967818D01*
X1460442Y968957D01*
X1460434Y968960D01*
X1460435Y968966D01*
X1459477Y969916D01*
X1459469Y969917D01*
X1459468Y969923D01*
X1458323Y970636D01*
X1458315Y970635D01*
X1458313Y970641D01*
X1457037Y971081D01*
X1457030Y971079D01*
X1457027Y971083D01*
X1455685Y971229D01*
X1455682Y971227D01*
X1455680Y971229D01*
X1449680Y971229D01*
X1449677Y971227D01*
X1449674Y971229D01*
X1448345Y971074D01*
X1448339Y971068D01*
X1448335Y971071D01*
X1447074Y970624D01*
X1447069Y970617D01*
X1447064Y970619D01*
X1445934Y969902D01*
X1445931Y969895D01*
X1445925Y969896D01*
X1444983Y968946D01*
X1444982Y968937D01*
X1444976Y968937D01*
X1444269Y967801D01*
X1444270Y967793D01*
X1444264Y967791D01*
X1443828Y966526D01*
X1443830Y966518D01*
X1443825Y966516D01*
X1443681Y965185D01*
X1443685Y965179D01*
X1443681Y965175D01*
X1443791Y964009D01*
X1443796Y964004D01*
X1443793Y964000D01*
X1444128Y962877D01*
X1444134Y962873D01*
X1444132Y962869D01*
X1444680Y961833D01*
X1444686Y961830D01*
X1444685Y961825D01*
X1445424Y960917D01*
X1445431Y960915D01*
X1445431Y960910D01*
X1446333Y960163D01*
X1446341Y960163D01*
X1446341Y960158D01*
X1447372Y959601D01*
X1447379Y959602D01*
X1447381Y959597D01*
X1448500Y959253D01*
X1448507Y959255D01*
X1448510Y959251D01*
X1449675Y959131D01*
X1449678Y959133D01*
X1449680Y959131D01*
X1455680Y959131D01*
X1455683Y959133D01*
G37*
G36*
X735593Y959133D02*
X735593Y959133D01*
X735595Y959131D01*
X736771Y959242D01*
X736776Y959247D01*
X736780Y959244D01*
X737912Y959582D01*
X737916Y959588D01*
X737921Y959586D01*
X738965Y960138D01*
X738968Y960145D01*
X738973Y960143D01*
X739889Y960889D01*
X739890Y960896D01*
X739896Y960896D01*
X740649Y961806D01*
X740649Y961813D01*
X740654Y961814D01*
X741215Y962853D01*
X741214Y962858D01*
X741218Y962860D01*
X741217Y962861D01*
X741219Y962862D01*
X741566Y963991D01*
X741566Y963992D01*
X741567Y963993D01*
X741564Y963997D01*
X741568Y964000D01*
X741689Y965175D01*
X741685Y965182D01*
X741689Y965186D01*
X741532Y966526D01*
X741527Y966532D01*
X741530Y966537D01*
X741079Y967808D01*
X741072Y967813D01*
X741074Y967818D01*
X740352Y968957D01*
X740344Y968960D01*
X740345Y968966D01*
X739387Y969916D01*
X739379Y969917D01*
X739378Y969923D01*
X738233Y970636D01*
X738225Y970635D01*
X738223Y970641D01*
X736947Y971081D01*
X736940Y971079D01*
X736937Y971083D01*
X735595Y971229D01*
X735592Y971227D01*
X735590Y971229D01*
X729590Y971229D01*
X729587Y971227D01*
X729584Y971229D01*
X728255Y971074D01*
X728249Y971068D01*
X728245Y971071D01*
X726984Y970624D01*
X726979Y970617D01*
X726974Y970619D01*
X725844Y969902D01*
X725841Y969895D01*
X725835Y969896D01*
X724893Y968946D01*
X724892Y968937D01*
X724886Y968937D01*
X724179Y967801D01*
X724180Y967793D01*
X724174Y967791D01*
X723738Y966526D01*
X723740Y966518D01*
X723735Y966516D01*
X723591Y965185D01*
X723595Y965179D01*
X723591Y965175D01*
X723701Y964009D01*
X723706Y964004D01*
X723703Y964000D01*
X724038Y962877D01*
X724044Y962873D01*
X724042Y962869D01*
X724590Y961833D01*
X724596Y961830D01*
X724595Y961825D01*
X725334Y960917D01*
X725341Y960915D01*
X725341Y960910D01*
X726243Y960163D01*
X726251Y960163D01*
X726251Y960158D01*
X727282Y959601D01*
X727289Y959602D01*
X727291Y959597D01*
X728410Y959253D01*
X728417Y959255D01*
X728420Y959251D01*
X729585Y959131D01*
X729588Y959133D01*
X729590Y959131D01*
X735590Y959131D01*
X735593Y959133D01*
G37*
G36*
X15503Y1634813D02*
X15503Y1634813D01*
X15505Y1634811D01*
X16681Y1634922D01*
X16686Y1634927D01*
X16690Y1634924D01*
X17822Y1635262D01*
X17826Y1635268D01*
X17831Y1635266D01*
X18875Y1635818D01*
X18878Y1635825D01*
X18883Y1635823D01*
X19799Y1636569D01*
X19800Y1636576D01*
X19806Y1636576D01*
X20559Y1637486D01*
X20559Y1637493D01*
X20564Y1637494D01*
X21125Y1638533D01*
X21124Y1638538D01*
X21128Y1638540D01*
X21127Y1638541D01*
X21129Y1638542D01*
X21476Y1639671D01*
X21476Y1639672D01*
X21477Y1639673D01*
X21474Y1639677D01*
X21478Y1639680D01*
X21599Y1640855D01*
X21595Y1640862D01*
X21599Y1640866D01*
X21442Y1642206D01*
X21437Y1642212D01*
X21440Y1642217D01*
X20989Y1643488D01*
X20982Y1643493D01*
X20984Y1643498D01*
X20262Y1644637D01*
X20254Y1644640D01*
X20255Y1644646D01*
X19297Y1645596D01*
X19289Y1645597D01*
X19288Y1645603D01*
X18143Y1646316D01*
X18135Y1646315D01*
X18133Y1646321D01*
X16857Y1646761D01*
X16850Y1646759D01*
X16847Y1646763D01*
X15505Y1646909D01*
X15502Y1646907D01*
X15500Y1646909D01*
X9500Y1646909D01*
X9497Y1646907D01*
X9494Y1646909D01*
X8165Y1646754D01*
X8159Y1646748D01*
X8155Y1646751D01*
X6894Y1646304D01*
X6889Y1646297D01*
X6884Y1646299D01*
X5754Y1645582D01*
X5751Y1645575D01*
X5745Y1645576D01*
X4803Y1644626D01*
X4802Y1644617D01*
X4796Y1644617D01*
X4089Y1643481D01*
X4090Y1643473D01*
X4084Y1643471D01*
X3648Y1642206D01*
X3650Y1642198D01*
X3645Y1642196D01*
X3501Y1640865D01*
X3505Y1640859D01*
X3501Y1640855D01*
X3611Y1639689D01*
X3616Y1639684D01*
X3613Y1639680D01*
X3948Y1638557D01*
X3954Y1638553D01*
X3952Y1638549D01*
X4500Y1637513D01*
X4506Y1637510D01*
X4505Y1637505D01*
X5244Y1636597D01*
X5251Y1636595D01*
X5251Y1636590D01*
X6153Y1635843D01*
X6161Y1635843D01*
X6161Y1635838D01*
X7192Y1635281D01*
X7199Y1635282D01*
X7201Y1635277D01*
X8320Y1634933D01*
X8327Y1634935D01*
X8330Y1634931D01*
X9495Y1634811D01*
X9498Y1634813D01*
X9500Y1634811D01*
X15500Y1634811D01*
X15503Y1634813D01*
G37*
G36*
X735593Y1634813D02*
X735593Y1634813D01*
X735595Y1634811D01*
X736771Y1634922D01*
X736776Y1634927D01*
X736780Y1634924D01*
X737912Y1635262D01*
X737916Y1635268D01*
X737921Y1635266D01*
X738965Y1635818D01*
X738968Y1635825D01*
X738973Y1635823D01*
X739889Y1636569D01*
X739890Y1636576D01*
X739896Y1636576D01*
X740649Y1637486D01*
X740649Y1637493D01*
X740654Y1637494D01*
X741215Y1638533D01*
X741214Y1638538D01*
X741218Y1638540D01*
X741217Y1638541D01*
X741219Y1638542D01*
X741566Y1639671D01*
X741566Y1639672D01*
X741567Y1639673D01*
X741564Y1639677D01*
X741568Y1639680D01*
X741689Y1640855D01*
X741685Y1640862D01*
X741689Y1640866D01*
X741532Y1642206D01*
X741527Y1642212D01*
X741530Y1642217D01*
X741079Y1643488D01*
X741072Y1643493D01*
X741074Y1643498D01*
X740352Y1644637D01*
X740344Y1644640D01*
X740345Y1644646D01*
X739387Y1645596D01*
X739379Y1645597D01*
X739378Y1645603D01*
X738233Y1646316D01*
X738225Y1646315D01*
X738223Y1646321D01*
X736947Y1646761D01*
X736940Y1646759D01*
X736937Y1646763D01*
X735595Y1646909D01*
X735592Y1646907D01*
X735590Y1646909D01*
X729590Y1646909D01*
X729587Y1646907D01*
X729584Y1646909D01*
X728255Y1646754D01*
X728249Y1646748D01*
X728245Y1646751D01*
X726984Y1646304D01*
X726979Y1646297D01*
X726974Y1646299D01*
X725844Y1645582D01*
X725841Y1645575D01*
X725835Y1645576D01*
X724893Y1644626D01*
X724892Y1644617D01*
X724886Y1644617D01*
X724179Y1643481D01*
X724180Y1643473D01*
X724174Y1643471D01*
X723738Y1642206D01*
X723740Y1642198D01*
X723735Y1642196D01*
X723591Y1640865D01*
X723595Y1640859D01*
X723591Y1640855D01*
X723701Y1639689D01*
X723706Y1639684D01*
X723703Y1639680D01*
X724038Y1638557D01*
X724044Y1638553D01*
X724042Y1638549D01*
X724590Y1637513D01*
X724596Y1637510D01*
X724595Y1637505D01*
X725334Y1636597D01*
X725341Y1636595D01*
X725341Y1636590D01*
X726243Y1635843D01*
X726251Y1635843D01*
X726251Y1635838D01*
X727282Y1635281D01*
X727289Y1635282D01*
X727291Y1635277D01*
X728410Y1634933D01*
X728417Y1634935D01*
X728420Y1634931D01*
X729585Y1634811D01*
X729588Y1634813D01*
X729590Y1634811D01*
X735590Y1634811D01*
X735593Y1634813D01*
G37*
G36*
X1455683Y1634813D02*
X1455683Y1634813D01*
X1455685Y1634811D01*
X1456861Y1634922D01*
X1456866Y1634927D01*
X1456870Y1634924D01*
X1458002Y1635262D01*
X1458006Y1635268D01*
X1458011Y1635266D01*
X1459055Y1635818D01*
X1459058Y1635825D01*
X1459063Y1635823D01*
X1459979Y1636569D01*
X1459980Y1636576D01*
X1459986Y1636576D01*
X1460739Y1637486D01*
X1460739Y1637493D01*
X1460744Y1637494D01*
X1461305Y1638533D01*
X1461304Y1638538D01*
X1461308Y1638540D01*
X1461307Y1638541D01*
X1461309Y1638542D01*
X1461656Y1639671D01*
X1461656Y1639672D01*
X1461657Y1639673D01*
X1461654Y1639677D01*
X1461658Y1639680D01*
X1461779Y1640855D01*
X1461775Y1640862D01*
X1461779Y1640866D01*
X1461622Y1642206D01*
X1461617Y1642212D01*
X1461620Y1642217D01*
X1461169Y1643488D01*
X1461162Y1643493D01*
X1461164Y1643498D01*
X1460442Y1644637D01*
X1460434Y1644640D01*
X1460435Y1644646D01*
X1459477Y1645596D01*
X1459469Y1645597D01*
X1459468Y1645603D01*
X1458323Y1646316D01*
X1458315Y1646315D01*
X1458313Y1646321D01*
X1457037Y1646761D01*
X1457030Y1646759D01*
X1457027Y1646763D01*
X1455685Y1646909D01*
X1455682Y1646907D01*
X1455680Y1646909D01*
X1449680Y1646909D01*
X1449677Y1646907D01*
X1449674Y1646909D01*
X1448345Y1646754D01*
X1448339Y1646748D01*
X1448335Y1646751D01*
X1447074Y1646304D01*
X1447069Y1646297D01*
X1447064Y1646299D01*
X1445934Y1645582D01*
X1445931Y1645575D01*
X1445925Y1645576D01*
X1444983Y1644626D01*
X1444982Y1644617D01*
X1444976Y1644617D01*
X1444269Y1643481D01*
X1444270Y1643473D01*
X1444264Y1643471D01*
X1443828Y1642206D01*
X1443830Y1642198D01*
X1443825Y1642196D01*
X1443681Y1640865D01*
X1443685Y1640859D01*
X1443681Y1640855D01*
X1443791Y1639689D01*
X1443796Y1639684D01*
X1443793Y1639680D01*
X1444128Y1638557D01*
X1444134Y1638553D01*
X1444132Y1638549D01*
X1444680Y1637513D01*
X1444686Y1637510D01*
X1444685Y1637505D01*
X1445424Y1636597D01*
X1445431Y1636595D01*
X1445431Y1636590D01*
X1446333Y1635843D01*
X1446341Y1635843D01*
X1446341Y1635838D01*
X1447372Y1635281D01*
X1447379Y1635282D01*
X1447381Y1635277D01*
X1448500Y1634933D01*
X1448507Y1634935D01*
X1448510Y1634931D01*
X1449675Y1634811D01*
X1449678Y1634813D01*
X1449680Y1634811D01*
X1455680Y1634811D01*
X1455683Y1634813D01*
G37*
G36*
X1455683Y1548413D02*
X1455683Y1548413D01*
X1455685Y1548411D01*
X1456861Y1548522D01*
X1456866Y1548527D01*
X1456870Y1548524D01*
X1458002Y1548862D01*
X1458006Y1548868D01*
X1458011Y1548866D01*
X1459055Y1549418D01*
X1459058Y1549425D01*
X1459063Y1549423D01*
X1459979Y1550169D01*
X1459980Y1550176D01*
X1459986Y1550176D01*
X1460739Y1551086D01*
X1460739Y1551093D01*
X1460744Y1551094D01*
X1461305Y1552133D01*
X1461304Y1552138D01*
X1461308Y1552140D01*
X1461307Y1552141D01*
X1461309Y1552142D01*
X1461656Y1553271D01*
X1461656Y1553272D01*
X1461657Y1553273D01*
X1461654Y1553277D01*
X1461658Y1553280D01*
X1461779Y1554455D01*
X1461775Y1554462D01*
X1461779Y1554466D01*
X1461622Y1555806D01*
X1461617Y1555812D01*
X1461620Y1555817D01*
X1461169Y1557088D01*
X1461162Y1557093D01*
X1461164Y1557098D01*
X1460442Y1558237D01*
X1460434Y1558240D01*
X1460435Y1558246D01*
X1459477Y1559196D01*
X1459469Y1559197D01*
X1459468Y1559203D01*
X1458323Y1559916D01*
X1458315Y1559915D01*
X1458313Y1559921D01*
X1457037Y1560361D01*
X1457030Y1560359D01*
X1457027Y1560363D01*
X1455685Y1560509D01*
X1455682Y1560507D01*
X1455680Y1560509D01*
X1449680Y1560509D01*
X1449677Y1560507D01*
X1449674Y1560509D01*
X1448345Y1560354D01*
X1448339Y1560348D01*
X1448335Y1560351D01*
X1447074Y1559904D01*
X1447069Y1559897D01*
X1447064Y1559899D01*
X1445934Y1559182D01*
X1445931Y1559175D01*
X1445925Y1559176D01*
X1444983Y1558226D01*
X1444982Y1558217D01*
X1444976Y1558217D01*
X1444269Y1557081D01*
X1444270Y1557073D01*
X1444264Y1557071D01*
X1443828Y1555806D01*
X1443830Y1555798D01*
X1443825Y1555796D01*
X1443681Y1554465D01*
X1443685Y1554459D01*
X1443681Y1554455D01*
X1443791Y1553289D01*
X1443796Y1553284D01*
X1443793Y1553280D01*
X1444128Y1552157D01*
X1444134Y1552153D01*
X1444132Y1552149D01*
X1444680Y1551113D01*
X1444686Y1551110D01*
X1444685Y1551105D01*
X1445424Y1550197D01*
X1445431Y1550195D01*
X1445431Y1550190D01*
X1446333Y1549443D01*
X1446341Y1549443D01*
X1446341Y1549438D01*
X1447372Y1548881D01*
X1447379Y1548882D01*
X1447381Y1548877D01*
X1448500Y1548533D01*
X1448507Y1548535D01*
X1448510Y1548531D01*
X1449675Y1548411D01*
X1449678Y1548413D01*
X1449680Y1548411D01*
X1455680Y1548411D01*
X1455683Y1548413D01*
G37*
G36*
X15503Y456253D02*
X15503Y456253D01*
X15505Y456251D01*
X16681Y456362D01*
X16686Y456367D01*
X16690Y456364D01*
X17822Y456702D01*
X17826Y456708D01*
X17831Y456706D01*
X18875Y457258D01*
X18878Y457265D01*
X18883Y457263D01*
X19799Y458009D01*
X19800Y458016D01*
X19806Y458016D01*
X20559Y458926D01*
X20559Y458933D01*
X20564Y458934D01*
X21125Y459973D01*
X21124Y459978D01*
X21128Y459980D01*
X21127Y459981D01*
X21129Y459982D01*
X21476Y461111D01*
X21476Y461112D01*
X21477Y461113D01*
X21474Y461117D01*
X21478Y461120D01*
X21599Y462295D01*
X21595Y462302D01*
X21599Y462306D01*
X21442Y463646D01*
X21437Y463652D01*
X21440Y463657D01*
X20989Y464928D01*
X20982Y464933D01*
X20984Y464938D01*
X20262Y466077D01*
X20254Y466080D01*
X20255Y466086D01*
X19297Y467036D01*
X19289Y467037D01*
X19288Y467043D01*
X18143Y467756D01*
X18135Y467755D01*
X18133Y467761D01*
X16857Y468201D01*
X16850Y468199D01*
X16847Y468203D01*
X15505Y468349D01*
X15502Y468347D01*
X15500Y468349D01*
X9500Y468349D01*
X9497Y468347D01*
X9494Y468349D01*
X8165Y468194D01*
X8159Y468188D01*
X8155Y468191D01*
X6894Y467744D01*
X6889Y467737D01*
X6884Y467739D01*
X5754Y467022D01*
X5751Y467015D01*
X5745Y467016D01*
X4803Y466066D01*
X4802Y466057D01*
X4796Y466057D01*
X4089Y464921D01*
X4090Y464913D01*
X4084Y464911D01*
X3648Y463646D01*
X3650Y463638D01*
X3645Y463636D01*
X3501Y462305D01*
X3505Y462299D01*
X3501Y462295D01*
X3611Y461129D01*
X3616Y461124D01*
X3613Y461120D01*
X3948Y459997D01*
X3954Y459993D01*
X3952Y459989D01*
X4500Y458953D01*
X4506Y458950D01*
X4505Y458945D01*
X5244Y458037D01*
X5251Y458035D01*
X5251Y458030D01*
X6153Y457283D01*
X6161Y457283D01*
X6161Y457278D01*
X7192Y456721D01*
X7199Y456722D01*
X7201Y456717D01*
X8320Y456373D01*
X8327Y456375D01*
X8330Y456371D01*
X9495Y456251D01*
X9498Y456253D01*
X9500Y456251D01*
X15500Y456251D01*
X15503Y456253D01*
G37*
G36*
X15503Y1548413D02*
X15503Y1548413D01*
X15505Y1548411D01*
X16681Y1548522D01*
X16686Y1548527D01*
X16690Y1548524D01*
X17822Y1548862D01*
X17826Y1548868D01*
X17831Y1548866D01*
X18875Y1549418D01*
X18878Y1549425D01*
X18883Y1549423D01*
X19799Y1550169D01*
X19800Y1550176D01*
X19806Y1550176D01*
X20559Y1551086D01*
X20559Y1551093D01*
X20564Y1551094D01*
X21125Y1552133D01*
X21124Y1552138D01*
X21128Y1552140D01*
X21127Y1552141D01*
X21129Y1552142D01*
X21476Y1553271D01*
X21476Y1553272D01*
X21477Y1553273D01*
X21474Y1553277D01*
X21478Y1553280D01*
X21599Y1554455D01*
X21595Y1554462D01*
X21599Y1554466D01*
X21442Y1555806D01*
X21437Y1555812D01*
X21440Y1555817D01*
X20989Y1557088D01*
X20982Y1557093D01*
X20984Y1557098D01*
X20262Y1558237D01*
X20254Y1558240D01*
X20255Y1558246D01*
X19297Y1559196D01*
X19289Y1559197D01*
X19288Y1559203D01*
X18143Y1559916D01*
X18135Y1559915D01*
X18133Y1559921D01*
X16857Y1560361D01*
X16850Y1560359D01*
X16847Y1560363D01*
X15505Y1560509D01*
X15502Y1560507D01*
X15500Y1560509D01*
X9500Y1560509D01*
X9497Y1560507D01*
X9494Y1560509D01*
X8165Y1560354D01*
X8159Y1560348D01*
X8155Y1560351D01*
X6894Y1559904D01*
X6889Y1559897D01*
X6884Y1559899D01*
X5754Y1559182D01*
X5751Y1559175D01*
X5745Y1559176D01*
X4803Y1558226D01*
X4802Y1558217D01*
X4796Y1558217D01*
X4089Y1557081D01*
X4090Y1557073D01*
X4084Y1557071D01*
X3648Y1555806D01*
X3650Y1555798D01*
X3645Y1555796D01*
X3501Y1554465D01*
X3505Y1554459D01*
X3501Y1554455D01*
X3611Y1553289D01*
X3616Y1553284D01*
X3613Y1553280D01*
X3948Y1552157D01*
X3954Y1552153D01*
X3952Y1552149D01*
X4500Y1551113D01*
X4506Y1551110D01*
X4505Y1551105D01*
X5244Y1550197D01*
X5251Y1550195D01*
X5251Y1550190D01*
X6153Y1549443D01*
X6161Y1549443D01*
X6161Y1549438D01*
X7192Y1548881D01*
X7199Y1548882D01*
X7201Y1548877D01*
X8320Y1548533D01*
X8327Y1548535D01*
X8330Y1548531D01*
X9495Y1548411D01*
X9498Y1548413D01*
X9500Y1548411D01*
X15500Y1548411D01*
X15503Y1548413D01*
G37*
G36*
X735593Y456253D02*
X735593Y456253D01*
X735595Y456251D01*
X736771Y456362D01*
X736776Y456367D01*
X736780Y456364D01*
X737912Y456702D01*
X737916Y456708D01*
X737921Y456706D01*
X738965Y457258D01*
X738968Y457265D01*
X738973Y457263D01*
X739889Y458009D01*
X739890Y458016D01*
X739896Y458016D01*
X740649Y458926D01*
X740649Y458933D01*
X740654Y458934D01*
X741215Y459973D01*
X741214Y459978D01*
X741218Y459980D01*
X741217Y459981D01*
X741219Y459982D01*
X741566Y461111D01*
X741566Y461112D01*
X741567Y461113D01*
X741564Y461117D01*
X741568Y461120D01*
X741689Y462295D01*
X741685Y462302D01*
X741689Y462306D01*
X741532Y463646D01*
X741527Y463652D01*
X741530Y463657D01*
X741079Y464928D01*
X741072Y464933D01*
X741074Y464938D01*
X740352Y466077D01*
X740344Y466080D01*
X740345Y466086D01*
X739387Y467036D01*
X739379Y467037D01*
X739378Y467043D01*
X738233Y467756D01*
X738225Y467755D01*
X738223Y467761D01*
X736947Y468201D01*
X736940Y468199D01*
X736937Y468203D01*
X735595Y468349D01*
X735592Y468347D01*
X735590Y468349D01*
X729590Y468349D01*
X729587Y468347D01*
X729584Y468349D01*
X728255Y468194D01*
X728249Y468188D01*
X728245Y468191D01*
X726984Y467744D01*
X726979Y467737D01*
X726974Y467739D01*
X725844Y467022D01*
X725841Y467015D01*
X725835Y467016D01*
X724893Y466066D01*
X724892Y466057D01*
X724886Y466057D01*
X724179Y464921D01*
X724180Y464913D01*
X724174Y464911D01*
X723738Y463646D01*
X723740Y463638D01*
X723735Y463636D01*
X723591Y462305D01*
X723595Y462299D01*
X723591Y462295D01*
X723701Y461129D01*
X723706Y461124D01*
X723703Y461120D01*
X724038Y459997D01*
X724044Y459993D01*
X724042Y459989D01*
X724590Y458953D01*
X724596Y458950D01*
X724595Y458945D01*
X725334Y458037D01*
X725341Y458035D01*
X725341Y458030D01*
X726243Y457283D01*
X726251Y457283D01*
X726251Y457278D01*
X727282Y456721D01*
X727289Y456722D01*
X727291Y456717D01*
X728410Y456373D01*
X728417Y456375D01*
X728420Y456371D01*
X729585Y456251D01*
X729588Y456253D01*
X729590Y456251D01*
X735590Y456251D01*
X735593Y456253D01*
G37*
G36*
X735593Y1548413D02*
X735593Y1548413D01*
X735595Y1548411D01*
X736771Y1548522D01*
X736776Y1548527D01*
X736780Y1548524D01*
X737912Y1548862D01*
X737916Y1548868D01*
X737921Y1548866D01*
X738965Y1549418D01*
X738968Y1549425D01*
X738973Y1549423D01*
X739889Y1550169D01*
X739890Y1550176D01*
X739896Y1550176D01*
X740649Y1551086D01*
X740649Y1551093D01*
X740654Y1551094D01*
X741215Y1552133D01*
X741214Y1552138D01*
X741218Y1552140D01*
X741217Y1552141D01*
X741219Y1552142D01*
X741566Y1553271D01*
X741566Y1553272D01*
X741567Y1553273D01*
X741564Y1553277D01*
X741568Y1553280D01*
X741689Y1554455D01*
X741685Y1554462D01*
X741689Y1554466D01*
X741532Y1555806D01*
X741527Y1555812D01*
X741530Y1555817D01*
X741079Y1557088D01*
X741072Y1557093D01*
X741074Y1557098D01*
X740352Y1558237D01*
X740344Y1558240D01*
X740345Y1558246D01*
X739387Y1559196D01*
X739379Y1559197D01*
X739378Y1559203D01*
X738233Y1559916D01*
X738225Y1559915D01*
X738223Y1559921D01*
X736947Y1560361D01*
X736940Y1560359D01*
X736937Y1560363D01*
X735595Y1560509D01*
X735592Y1560507D01*
X735590Y1560509D01*
X729590Y1560509D01*
X729587Y1560507D01*
X729584Y1560509D01*
X728255Y1560354D01*
X728249Y1560348D01*
X728245Y1560351D01*
X726984Y1559904D01*
X726979Y1559897D01*
X726974Y1559899D01*
X725844Y1559182D01*
X725841Y1559175D01*
X725835Y1559176D01*
X724893Y1558226D01*
X724892Y1558217D01*
X724886Y1558217D01*
X724179Y1557081D01*
X724180Y1557073D01*
X724174Y1557071D01*
X723738Y1555806D01*
X723740Y1555798D01*
X723735Y1555796D01*
X723591Y1554465D01*
X723595Y1554459D01*
X723591Y1554455D01*
X723701Y1553289D01*
X723706Y1553284D01*
X723703Y1553280D01*
X724038Y1552157D01*
X724044Y1552153D01*
X724042Y1552149D01*
X724590Y1551113D01*
X724596Y1551110D01*
X724595Y1551105D01*
X725334Y1550197D01*
X725341Y1550195D01*
X725341Y1550190D01*
X726243Y1549443D01*
X726251Y1549443D01*
X726251Y1549438D01*
X727282Y1548881D01*
X727289Y1548882D01*
X727291Y1548877D01*
X728410Y1548533D01*
X728417Y1548535D01*
X728420Y1548531D01*
X729585Y1548411D01*
X729588Y1548413D01*
X729590Y1548411D01*
X735590Y1548411D01*
X735593Y1548413D01*
G37*
G36*
X1455683Y456253D02*
X1455683Y456253D01*
X1455685Y456251D01*
X1456861Y456362D01*
X1456866Y456367D01*
X1456870Y456364D01*
X1458002Y456702D01*
X1458006Y456708D01*
X1458011Y456706D01*
X1459055Y457258D01*
X1459058Y457265D01*
X1459063Y457263D01*
X1459979Y458009D01*
X1459980Y458016D01*
X1459986Y458016D01*
X1460739Y458926D01*
X1460739Y458933D01*
X1460744Y458934D01*
X1461305Y459973D01*
X1461304Y459978D01*
X1461308Y459980D01*
X1461307Y459981D01*
X1461309Y459982D01*
X1461656Y461111D01*
X1461656Y461112D01*
X1461657Y461113D01*
X1461654Y461117D01*
X1461658Y461120D01*
X1461779Y462295D01*
X1461775Y462302D01*
X1461779Y462306D01*
X1461622Y463646D01*
X1461617Y463652D01*
X1461620Y463657D01*
X1461169Y464928D01*
X1461162Y464933D01*
X1461164Y464938D01*
X1460442Y466077D01*
X1460434Y466080D01*
X1460435Y466086D01*
X1459477Y467036D01*
X1459469Y467037D01*
X1459468Y467043D01*
X1458323Y467756D01*
X1458315Y467755D01*
X1458313Y467761D01*
X1457037Y468201D01*
X1457030Y468199D01*
X1457027Y468203D01*
X1455685Y468349D01*
X1455682Y468347D01*
X1455680Y468349D01*
X1449680Y468349D01*
X1449677Y468347D01*
X1449674Y468349D01*
X1448345Y468194D01*
X1448339Y468188D01*
X1448335Y468191D01*
X1447074Y467744D01*
X1447069Y467737D01*
X1447064Y467739D01*
X1445934Y467022D01*
X1445931Y467015D01*
X1445925Y467016D01*
X1444983Y466066D01*
X1444982Y466057D01*
X1444976Y466057D01*
X1444269Y464921D01*
X1444270Y464913D01*
X1444264Y464911D01*
X1443828Y463646D01*
X1443830Y463638D01*
X1443825Y463636D01*
X1443681Y462305D01*
X1443685Y462299D01*
X1443681Y462295D01*
X1443791Y461129D01*
X1443796Y461124D01*
X1443793Y461120D01*
X1444128Y459997D01*
X1444134Y459993D01*
X1444132Y459989D01*
X1444680Y458953D01*
X1444686Y458950D01*
X1444685Y458945D01*
X1445424Y458037D01*
X1445431Y458035D01*
X1445431Y458030D01*
X1446333Y457283D01*
X1446341Y457283D01*
X1446341Y457278D01*
X1447372Y456721D01*
X1447379Y456722D01*
X1447381Y456717D01*
X1448500Y456373D01*
X1448507Y456375D01*
X1448510Y456371D01*
X1449675Y456251D01*
X1449678Y456253D01*
X1449680Y456251D01*
X1455680Y456251D01*
X1455683Y456253D01*
G37*
G36*
X735593Y1045533D02*
X735593Y1045533D01*
X735595Y1045531D01*
X736771Y1045642D01*
X736776Y1045647D01*
X736780Y1045644D01*
X737912Y1045982D01*
X737916Y1045988D01*
X737921Y1045986D01*
X738965Y1046538D01*
X738968Y1046545D01*
X738973Y1046543D01*
X739889Y1047289D01*
X739890Y1047296D01*
X739896Y1047296D01*
X740649Y1048206D01*
X740649Y1048213D01*
X740654Y1048214D01*
X741215Y1049253D01*
X741214Y1049258D01*
X741218Y1049260D01*
X741217Y1049261D01*
X741219Y1049262D01*
X741566Y1050391D01*
X741566Y1050392D01*
X741567Y1050393D01*
X741564Y1050397D01*
X741568Y1050400D01*
X741689Y1051575D01*
X741685Y1051582D01*
X741689Y1051586D01*
X741532Y1052926D01*
X741527Y1052932D01*
X741530Y1052937D01*
X741079Y1054208D01*
X741072Y1054213D01*
X741074Y1054218D01*
X740352Y1055357D01*
X740344Y1055360D01*
X740345Y1055366D01*
X739387Y1056316D01*
X739379Y1056317D01*
X739378Y1056323D01*
X738233Y1057036D01*
X738225Y1057035D01*
X738223Y1057041D01*
X736947Y1057481D01*
X736940Y1057479D01*
X736937Y1057483D01*
X735595Y1057629D01*
X735592Y1057627D01*
X735590Y1057629D01*
X729590Y1057629D01*
X729587Y1057627D01*
X729584Y1057629D01*
X728255Y1057474D01*
X728249Y1057468D01*
X728245Y1057471D01*
X726984Y1057024D01*
X726979Y1057017D01*
X726974Y1057019D01*
X725844Y1056302D01*
X725841Y1056295D01*
X725835Y1056296D01*
X724893Y1055346D01*
X724892Y1055337D01*
X724886Y1055337D01*
X724179Y1054201D01*
X724180Y1054193D01*
X724174Y1054191D01*
X723738Y1052926D01*
X723740Y1052918D01*
X723735Y1052916D01*
X723591Y1051585D01*
X723595Y1051579D01*
X723591Y1051575D01*
X723701Y1050409D01*
X723706Y1050404D01*
X723703Y1050400D01*
X724038Y1049277D01*
X724044Y1049273D01*
X724042Y1049269D01*
X724590Y1048233D01*
X724596Y1048230D01*
X724595Y1048225D01*
X725334Y1047317D01*
X725341Y1047315D01*
X725341Y1047310D01*
X726243Y1046563D01*
X726251Y1046563D01*
X726251Y1046558D01*
X727282Y1046001D01*
X727289Y1046002D01*
X727291Y1045997D01*
X728410Y1045653D01*
X728417Y1045655D01*
X728420Y1045651D01*
X729585Y1045531D01*
X729588Y1045533D01*
X729590Y1045531D01*
X735590Y1045531D01*
X735593Y1045533D01*
G37*
G36*
X15503Y1045533D02*
X15503Y1045533D01*
X15505Y1045531D01*
X16681Y1045642D01*
X16686Y1045647D01*
X16690Y1045644D01*
X17822Y1045982D01*
X17826Y1045988D01*
X17831Y1045986D01*
X18875Y1046538D01*
X18878Y1046545D01*
X18883Y1046543D01*
X19799Y1047289D01*
X19800Y1047296D01*
X19806Y1047296D01*
X20559Y1048206D01*
X20559Y1048213D01*
X20564Y1048214D01*
X21125Y1049253D01*
X21124Y1049258D01*
X21128Y1049260D01*
X21127Y1049261D01*
X21129Y1049262D01*
X21476Y1050391D01*
X21476Y1050392D01*
X21477Y1050393D01*
X21474Y1050397D01*
X21478Y1050400D01*
X21599Y1051575D01*
X21595Y1051582D01*
X21599Y1051586D01*
X21442Y1052926D01*
X21437Y1052932D01*
X21440Y1052937D01*
X20989Y1054208D01*
X20982Y1054213D01*
X20984Y1054218D01*
X20262Y1055357D01*
X20254Y1055360D01*
X20255Y1055366D01*
X19297Y1056316D01*
X19289Y1056317D01*
X19288Y1056323D01*
X18143Y1057036D01*
X18135Y1057035D01*
X18133Y1057041D01*
X16857Y1057481D01*
X16850Y1057479D01*
X16847Y1057483D01*
X15505Y1057629D01*
X15502Y1057627D01*
X15500Y1057629D01*
X9500Y1057629D01*
X9497Y1057627D01*
X9494Y1057629D01*
X8165Y1057474D01*
X8159Y1057468D01*
X8155Y1057471D01*
X6894Y1057024D01*
X6889Y1057017D01*
X6884Y1057019D01*
X5754Y1056302D01*
X5751Y1056295D01*
X5745Y1056296D01*
X4803Y1055346D01*
X4802Y1055337D01*
X4796Y1055337D01*
X4089Y1054201D01*
X4090Y1054193D01*
X4084Y1054191D01*
X3648Y1052926D01*
X3650Y1052918D01*
X3645Y1052916D01*
X3501Y1051585D01*
X3505Y1051579D01*
X3501Y1051575D01*
X3611Y1050409D01*
X3616Y1050404D01*
X3613Y1050400D01*
X3948Y1049277D01*
X3954Y1049273D01*
X3952Y1049269D01*
X4500Y1048233D01*
X4506Y1048230D01*
X4505Y1048225D01*
X5244Y1047317D01*
X5251Y1047315D01*
X5251Y1047310D01*
X6153Y1046563D01*
X6161Y1046563D01*
X6161Y1046558D01*
X7192Y1046001D01*
X7199Y1046002D01*
X7201Y1045997D01*
X8320Y1045653D01*
X8327Y1045655D01*
X8330Y1045651D01*
X9495Y1045531D01*
X9498Y1045533D01*
X9500Y1045531D01*
X15500Y1045531D01*
X15503Y1045533D01*
G37*
G36*
X1455683Y1045533D02*
X1455683Y1045533D01*
X1455685Y1045531D01*
X1456861Y1045642D01*
X1456866Y1045647D01*
X1456870Y1045644D01*
X1458002Y1045982D01*
X1458006Y1045988D01*
X1458011Y1045986D01*
X1459055Y1046538D01*
X1459058Y1046545D01*
X1459063Y1046543D01*
X1459979Y1047289D01*
X1459980Y1047296D01*
X1459986Y1047296D01*
X1460739Y1048206D01*
X1460739Y1048213D01*
X1460744Y1048214D01*
X1461305Y1049253D01*
X1461304Y1049258D01*
X1461308Y1049260D01*
X1461307Y1049261D01*
X1461309Y1049262D01*
X1461656Y1050391D01*
X1461656Y1050392D01*
X1461657Y1050393D01*
X1461654Y1050397D01*
X1461658Y1050400D01*
X1461779Y1051575D01*
X1461775Y1051582D01*
X1461779Y1051586D01*
X1461622Y1052926D01*
X1461617Y1052932D01*
X1461620Y1052937D01*
X1461169Y1054208D01*
X1461162Y1054213D01*
X1461164Y1054218D01*
X1460442Y1055357D01*
X1460434Y1055360D01*
X1460435Y1055366D01*
X1459477Y1056316D01*
X1459469Y1056317D01*
X1459468Y1056323D01*
X1458323Y1057036D01*
X1458315Y1057035D01*
X1458313Y1057041D01*
X1457037Y1057481D01*
X1457030Y1057479D01*
X1457027Y1057483D01*
X1455685Y1057629D01*
X1455682Y1057627D01*
X1455680Y1057629D01*
X1449680Y1057629D01*
X1449677Y1057627D01*
X1449674Y1057629D01*
X1448345Y1057474D01*
X1448339Y1057468D01*
X1448335Y1057471D01*
X1447074Y1057024D01*
X1447069Y1057017D01*
X1447064Y1057019D01*
X1445934Y1056302D01*
X1445931Y1056295D01*
X1445925Y1056296D01*
X1444983Y1055346D01*
X1444982Y1055337D01*
X1444976Y1055337D01*
X1444269Y1054201D01*
X1444270Y1054193D01*
X1444264Y1054191D01*
X1443828Y1052926D01*
X1443830Y1052918D01*
X1443825Y1052916D01*
X1443681Y1051585D01*
X1443685Y1051579D01*
X1443681Y1051575D01*
X1443791Y1050409D01*
X1443796Y1050404D01*
X1443793Y1050400D01*
X1444128Y1049277D01*
X1444134Y1049273D01*
X1444132Y1049269D01*
X1444680Y1048233D01*
X1444686Y1048230D01*
X1444685Y1048225D01*
X1445424Y1047317D01*
X1445431Y1047315D01*
X1445431Y1047310D01*
X1446333Y1046563D01*
X1446341Y1046563D01*
X1446341Y1046558D01*
X1447372Y1046001D01*
X1447379Y1046002D01*
X1447381Y1045997D01*
X1448500Y1045653D01*
X1448507Y1045655D01*
X1448510Y1045651D01*
X1449675Y1045531D01*
X1449678Y1045533D01*
X1449680Y1045531D01*
X1455680Y1045531D01*
X1455683Y1045533D01*
G37*
G36*
X735593Y369853D02*
X735593Y369853D01*
X735595Y369851D01*
X736771Y369962D01*
X736776Y369967D01*
X736780Y369964D01*
X737912Y370302D01*
X737916Y370308D01*
X737921Y370306D01*
X738965Y370858D01*
X738968Y370865D01*
X738973Y370863D01*
X739889Y371609D01*
X739890Y371616D01*
X739896Y371616D01*
X740649Y372526D01*
X740649Y372533D01*
X740654Y372534D01*
X741215Y373573D01*
X741214Y373578D01*
X741218Y373580D01*
X741217Y373581D01*
X741219Y373582D01*
X741566Y374711D01*
X741566Y374712D01*
X741567Y374713D01*
X741564Y374717D01*
X741568Y374720D01*
X741689Y375895D01*
X741685Y375902D01*
X741689Y375906D01*
X741532Y377246D01*
X741527Y377252D01*
X741530Y377257D01*
X741079Y378528D01*
X741072Y378533D01*
X741074Y378538D01*
X740352Y379677D01*
X740344Y379680D01*
X740345Y379686D01*
X739387Y380636D01*
X739379Y380637D01*
X739378Y380643D01*
X738233Y381356D01*
X738225Y381355D01*
X738223Y381361D01*
X736947Y381801D01*
X736940Y381799D01*
X736937Y381803D01*
X735595Y381949D01*
X735592Y381947D01*
X735590Y381949D01*
X729590Y381949D01*
X729587Y381947D01*
X729584Y381949D01*
X728255Y381794D01*
X728249Y381788D01*
X728245Y381791D01*
X726984Y381344D01*
X726979Y381337D01*
X726974Y381339D01*
X725844Y380622D01*
X725841Y380615D01*
X725835Y380616D01*
X724893Y379666D01*
X724892Y379657D01*
X724886Y379657D01*
X724179Y378521D01*
X724180Y378513D01*
X724174Y378511D01*
X723738Y377246D01*
X723740Y377238D01*
X723735Y377236D01*
X723591Y375905D01*
X723595Y375899D01*
X723591Y375895D01*
X723701Y374729D01*
X723706Y374724D01*
X723703Y374720D01*
X724038Y373597D01*
X724044Y373593D01*
X724042Y373589D01*
X724590Y372553D01*
X724596Y372550D01*
X724595Y372545D01*
X725334Y371637D01*
X725341Y371635D01*
X725341Y371630D01*
X726243Y370883D01*
X726251Y370883D01*
X726251Y370878D01*
X727282Y370321D01*
X727289Y370322D01*
X727291Y370317D01*
X728410Y369973D01*
X728417Y369975D01*
X728420Y369971D01*
X729585Y369851D01*
X729588Y369853D01*
X729590Y369851D01*
X735590Y369851D01*
X735593Y369853D01*
G37*
G36*
X1455683Y369853D02*
X1455683Y369853D01*
X1455685Y369851D01*
X1456861Y369962D01*
X1456866Y369967D01*
X1456870Y369964D01*
X1458002Y370302D01*
X1458006Y370308D01*
X1458011Y370306D01*
X1459055Y370858D01*
X1459058Y370865D01*
X1459063Y370863D01*
X1459979Y371609D01*
X1459980Y371616D01*
X1459986Y371616D01*
X1460739Y372526D01*
X1460739Y372533D01*
X1460744Y372534D01*
X1461305Y373573D01*
X1461304Y373578D01*
X1461308Y373580D01*
X1461307Y373581D01*
X1461309Y373582D01*
X1461656Y374711D01*
X1461656Y374712D01*
X1461657Y374713D01*
X1461654Y374717D01*
X1461658Y374720D01*
X1461779Y375895D01*
X1461775Y375902D01*
X1461779Y375906D01*
X1461622Y377246D01*
X1461617Y377252D01*
X1461620Y377257D01*
X1461169Y378528D01*
X1461162Y378533D01*
X1461164Y378538D01*
X1460442Y379677D01*
X1460434Y379680D01*
X1460435Y379686D01*
X1459477Y380636D01*
X1459469Y380637D01*
X1459468Y380643D01*
X1458323Y381356D01*
X1458315Y381355D01*
X1458313Y381361D01*
X1457037Y381801D01*
X1457030Y381799D01*
X1457027Y381803D01*
X1455685Y381949D01*
X1455682Y381947D01*
X1455680Y381949D01*
X1449680Y381949D01*
X1449677Y381947D01*
X1449674Y381949D01*
X1448345Y381794D01*
X1448339Y381788D01*
X1448335Y381791D01*
X1447074Y381344D01*
X1447069Y381337D01*
X1447064Y381339D01*
X1445934Y380622D01*
X1445931Y380615D01*
X1445925Y380616D01*
X1444983Y379666D01*
X1444982Y379657D01*
X1444976Y379657D01*
X1444269Y378521D01*
X1444270Y378513D01*
X1444264Y378511D01*
X1443828Y377246D01*
X1443830Y377238D01*
X1443825Y377236D01*
X1443681Y375905D01*
X1443685Y375899D01*
X1443681Y375895D01*
X1443791Y374729D01*
X1443796Y374724D01*
X1443793Y374720D01*
X1444128Y373597D01*
X1444134Y373593D01*
X1444132Y373589D01*
X1444680Y372553D01*
X1444686Y372550D01*
X1444685Y372545D01*
X1445424Y371637D01*
X1445431Y371635D01*
X1445431Y371630D01*
X1446333Y370883D01*
X1446341Y370883D01*
X1446341Y370878D01*
X1447372Y370321D01*
X1447379Y370322D01*
X1447381Y370317D01*
X1448500Y369973D01*
X1448507Y369975D01*
X1448510Y369971D01*
X1449675Y369851D01*
X1449678Y369853D01*
X1449680Y369851D01*
X1455680Y369851D01*
X1455683Y369853D01*
G37*
G36*
X15503Y369853D02*
X15503Y369853D01*
X15505Y369851D01*
X16681Y369962D01*
X16686Y369967D01*
X16690Y369964D01*
X17822Y370302D01*
X17826Y370308D01*
X17831Y370306D01*
X18875Y370858D01*
X18878Y370865D01*
X18883Y370863D01*
X19799Y371609D01*
X19800Y371616D01*
X19806Y371616D01*
X20559Y372526D01*
X20559Y372533D01*
X20564Y372534D01*
X21125Y373573D01*
X21124Y373578D01*
X21128Y373580D01*
X21127Y373581D01*
X21129Y373582D01*
X21476Y374711D01*
X21476Y374712D01*
X21477Y374713D01*
X21474Y374717D01*
X21478Y374720D01*
X21599Y375895D01*
X21595Y375902D01*
X21599Y375906D01*
X21442Y377246D01*
X21437Y377252D01*
X21440Y377257D01*
X20989Y378528D01*
X20982Y378533D01*
X20984Y378538D01*
X20262Y379677D01*
X20254Y379680D01*
X20255Y379686D01*
X19297Y380636D01*
X19289Y380637D01*
X19288Y380643D01*
X18143Y381356D01*
X18135Y381355D01*
X18133Y381361D01*
X16857Y381801D01*
X16850Y381799D01*
X16847Y381803D01*
X15505Y381949D01*
X15502Y381947D01*
X15500Y381949D01*
X9500Y381949D01*
X9497Y381947D01*
X9494Y381949D01*
X8165Y381794D01*
X8159Y381788D01*
X8155Y381791D01*
X6894Y381344D01*
X6889Y381337D01*
X6884Y381339D01*
X5754Y380622D01*
X5751Y380615D01*
X5745Y380616D01*
X4803Y379666D01*
X4802Y379657D01*
X4796Y379657D01*
X4089Y378521D01*
X4090Y378513D01*
X4084Y378511D01*
X3648Y377246D01*
X3650Y377238D01*
X3645Y377236D01*
X3501Y375905D01*
X3505Y375899D01*
X3501Y375895D01*
X3611Y374729D01*
X3616Y374724D01*
X3613Y374720D01*
X3948Y373597D01*
X3954Y373593D01*
X3952Y373589D01*
X4500Y372553D01*
X4506Y372550D01*
X4505Y372545D01*
X5244Y371637D01*
X5251Y371635D01*
X5251Y371630D01*
X6153Y370883D01*
X6161Y370883D01*
X6161Y370878D01*
X7192Y370321D01*
X7199Y370322D01*
X7201Y370317D01*
X8320Y369973D01*
X8327Y369975D01*
X8330Y369971D01*
X9495Y369851D01*
X9498Y369853D01*
X9500Y369851D01*
X15500Y369851D01*
X15503Y369853D01*
G37*
D10*
X355600Y211700D03*
X355600Y194700D03*
D11*
X287900Y414020D03*
X270900Y414020D03*
X575700Y363220D03*
X592700Y363220D03*
X287900Y298450D03*
X270900Y298450D03*
D10*
X355600Y265600D03*
X355600Y248600D03*
D12*
X217200Y160020D03*
X189200Y160020D03*
D11*
X93100Y287020D03*
X110100Y287020D03*
D13*
X215900Y107820D03*
X215900Y59820D03*
D10*
X38100Y301870D03*
X38100Y284870D03*
D14*
X53500Y304140D03*
X53500Y285140D03*
X74500Y294640D03*
D11*
X270900Y318770D03*
X287900Y318770D03*
X26280Y321310D03*
X9280Y321310D03*
D15*
X106400Y218593D03*
X106400Y241300D03*
X106400Y264185D03*
D16*
X46990Y241300D03*
D11*
X141850Y198120D03*
X124850Y198120D03*
X124850Y223520D03*
X141850Y223520D03*
D17*
X139700Y50800D03*
X660400Y101600D03*
X660400Y381000D03*
X152400Y533400D03*
D18*
X660400Y139700D03*
X114300Y546100D03*
D11*
X93100Y302260D03*
X110100Y302260D03*
D12*
X120680Y330200D03*
X92680Y330200D03*
D19*
X340360Y516900D03*
X289560Y516900D03*
X238760Y516900D03*
X365760Y549900D03*
X314960Y549900D03*
X264160Y549900D03*
X213360Y549900D03*
X187960Y549900D03*
X213360Y516900D03*
X238760Y549900D03*
X264160Y516900D03*
X289560Y549900D03*
X314960Y516900D03*
X340360Y549900D03*
X365760Y516900D03*
X187960Y516900D03*
X391160Y549900D03*
X416560Y549900D03*
X391160Y516900D03*
X416560Y516900D03*
X304800Y67300D03*
X355600Y67300D03*
X406400Y67300D03*
X279400Y34300D03*
X330200Y34300D03*
X381000Y34300D03*
X431800Y34300D03*
X457200Y34300D03*
X431800Y67300D03*
X406400Y34300D03*
X381000Y67300D03*
X355600Y34300D03*
X330200Y67300D03*
X304800Y34300D03*
X279400Y67300D03*
X457200Y67300D03*
D20*
X488025Y236920D02*
X502575Y236920D01*
X502575Y248920D02*
X488025Y248920D01*
X488025Y260920D02*
X502575Y260920D01*
D21*
X495325Y248895D03*
D22*
X647700Y317500D03*
X647700Y292100D03*
D23*
X673100Y304800D03*
X622300Y304800D03*
X622300Y279400D03*
X673100Y279400D03*
X673100Y330200D03*
X622300Y330200D03*
D12*
X189200Y248920D03*
X217200Y248920D03*
D24*
X569200Y382270D03*
X599200Y382270D03*
X264400Y433070D03*
X294400Y433070D03*
D25*
X160020Y87720D03*
X160020Y130720D03*
D19*
X482600Y549900D03*
X533400Y549900D03*
X584200Y549900D03*
X457200Y516900D03*
X508000Y516900D03*
X558800Y516900D03*
X609600Y516900D03*
X635000Y516900D03*
X609600Y549900D03*
X584200Y516900D03*
X558800Y549900D03*
X533400Y516900D03*
X508000Y549900D03*
X482600Y516900D03*
X457200Y549900D03*
X635000Y549900D03*
X609600Y34300D03*
X558800Y34300D03*
X508000Y34300D03*
X635000Y67300D03*
X584200Y67300D03*
X533400Y67300D03*
X508000Y67300D03*
X533400Y34300D03*
X558800Y67300D03*
X584200Y34300D03*
X609600Y67300D03*
X635000Y34300D03*
D26*
X27370Y159710D02*
X13270Y159710D01*
X13270Y177810D01*
X27370Y177810D01*
X27370Y159710D01*
X27370Y167245D02*
X13270Y167245D01*
X13270Y174780D02*
X27370Y174780D01*
X27370Y45710D02*
X13270Y45710D01*
X13270Y63810D01*
X27370Y63810D01*
X27370Y45710D01*
X27370Y53245D02*
X13270Y53245D01*
X13270Y60780D02*
X27370Y60780D01*
X74270Y159710D02*
X88370Y159710D01*
X74270Y159710D02*
X74270Y177810D01*
X88370Y177810D01*
X88370Y159710D01*
X88370Y167245D02*
X74270Y167245D01*
X74270Y174780D02*
X88370Y174780D01*
X88370Y45710D02*
X74270Y45710D01*
X74270Y63810D01*
X88370Y63810D01*
X88370Y45710D01*
X88370Y53245D02*
X74270Y53245D01*
X74270Y60780D02*
X88370Y60780D01*
D27*
X20320Y111760D03*
X66040Y111760D03*
D28*
X603610Y184000D03*
X603610Y197000D03*
X585110Y190500D03*
D11*
X602860Y215900D03*
X585860Y215900D03*
X602860Y165100D03*
X585860Y165100D03*
D29*
X462026Y200600D03*
X462026Y208600D03*
X462026Y216600D03*
X462026Y224600D03*
X462026Y232600D03*
X462026Y240600D03*
X462026Y248600D03*
X462026Y256600D03*
D30*
X447100Y271526D03*
X439100Y271526D03*
X431100Y271526D03*
X423100Y271526D03*
X415100Y271526D03*
X407100Y271526D03*
X399100Y271526D03*
X391100Y271526D03*
D29*
X376174Y256600D03*
X376174Y248600D03*
X376174Y240600D03*
X376174Y232600D03*
X376174Y224600D03*
X376174Y216600D03*
X376174Y208600D03*
X376174Y200600D03*
D30*
X391100Y185674D03*
X399100Y185674D03*
X407100Y185674D03*
X415100Y185674D03*
X423100Y185674D03*
X431100Y185674D03*
X439100Y185674D03*
X447100Y185674D03*
D31*
X190199Y212700D03*
X190199Y203200D03*
X190199Y193700D03*
X216201Y193700D03*
X216201Y212700D03*
D11*
X211700Y228600D03*
X194700Y228600D03*
X118500Y355600D03*
X135500Y355600D03*
D24*
X294400Y355600D03*
X264400Y355600D03*
D11*
X287900Y336550D03*
X270900Y336550D03*
X131200Y482600D03*
X148200Y482600D03*
X287900Y374650D03*
X270900Y374650D03*
D24*
X294400Y393700D03*
X264400Y393700D03*
D32*
X671750Y162500D03*
X671750Y218500D03*
D33*
X635000Y175500D03*
X635000Y185500D03*
X635000Y195500D03*
X635000Y205500D03*
D28*
X549550Y197000D03*
X549550Y184000D03*
X568050Y190500D03*
D11*
X550300Y215900D03*
X567300Y215900D03*
X550300Y165100D03*
X567300Y165100D03*
D34*
X63500Y411600D03*
X63500Y416600D03*
D35*
X63500Y386850D03*
D36*
X63500Y394600D03*
D34*
X63500Y401600D03*
X63500Y406600D03*
X63500Y426600D03*
X63500Y421600D03*
D35*
X63500Y451350D03*
D36*
X63500Y443600D03*
D34*
X63500Y436600D03*
X63500Y431600D03*
D37*
X49050Y448000D03*
X49050Y390200D03*
D38*
X99000Y463550D03*
X99000Y450850D03*
X99000Y438150D03*
X99000Y425450D03*
X99000Y412750D03*
X99000Y400050D03*
X99000Y387350D03*
X99000Y374650D03*
X155000Y374650D03*
X155000Y387350D03*
X155000Y400050D03*
X155000Y412750D03*
X155000Y425450D03*
X155000Y438150D03*
X155000Y450850D03*
X155000Y463550D03*
D11*
X9280Y339090D03*
X26280Y339090D03*
X110100Y482600D03*
X93100Y482600D03*
D39*
X78740Y501650D03*
X22860Y501650D03*
X78740Y539750D03*
X22860Y539750D03*
D40*
X87630Y358394D03*
X87630Y350266D03*
D41*
X42150Y330200D03*
X72150Y330200D03*
D42*
X304400Y206050D03*
X279400Y206050D03*
X254400Y206050D03*
X304400Y149550D03*
X279400Y149550D03*
X254400Y149550D03*
D43*
X294400Y177800D03*
X264400Y177800D03*
D44*
X187960Y571500D03*
X213360Y571500D03*
X238760Y571500D03*
X264160Y571500D03*
X289560Y571500D03*
X314960Y571500D03*
X340360Y571500D03*
X365760Y571500D03*
X391160Y571500D03*
X416560Y571500D03*
X457200Y12700D03*
X431800Y12700D03*
X406400Y12700D03*
X381000Y12700D03*
X355600Y12700D03*
X330200Y12700D03*
X304800Y12700D03*
X279400Y12700D03*
X508000Y12700D03*
X533400Y12700D03*
X558800Y12700D03*
X584200Y12700D03*
X609600Y12700D03*
X635000Y12700D03*
X635000Y571500D03*
X609600Y571500D03*
X584200Y571500D03*
X558800Y571500D03*
X533400Y571500D03*
X508000Y571500D03*
X482600Y571500D03*
X457200Y571500D03*
D10*
X1075690Y211700D03*
X1075690Y194700D03*
D11*
X1007990Y414020D03*
X990990Y414020D03*
X1295790Y363220D03*
X1312790Y363220D03*
X1007990Y298450D03*
X990990Y298450D03*
D10*
X1075690Y265600D03*
X1075690Y248600D03*
D12*
X937290Y160020D03*
X909290Y160020D03*
D11*
X813190Y287020D03*
X830190Y287020D03*
D13*
X935990Y107820D03*
X935990Y59820D03*
D10*
X758190Y301870D03*
X758190Y284870D03*
D14*
X773590Y304140D03*
X773590Y285140D03*
X794590Y294640D03*
D11*
X990990Y318770D03*
X1007990Y318770D03*
X746370Y321310D03*
X729370Y321310D03*
D15*
X826490Y218593D03*
X826490Y241300D03*
X826490Y264185D03*
D16*
X767080Y241300D03*
D11*
X861940Y198120D03*
X844940Y198120D03*
X844940Y223520D03*
X861940Y223520D03*
D17*
X859790Y50800D03*
X1380490Y101600D03*
X1380490Y381000D03*
X872490Y533400D03*
D18*
X1380490Y139700D03*
X834390Y546100D03*
D11*
X813190Y302260D03*
X830190Y302260D03*
D12*
X840770Y330200D03*
X812770Y330200D03*
D19*
X1060450Y516900D03*
X1009650Y516900D03*
X958850Y516900D03*
X1085850Y549900D03*
X1035050Y549900D03*
X984250Y549900D03*
X933450Y549900D03*
X908050Y549900D03*
X933450Y516900D03*
X958850Y549900D03*
X984250Y516900D03*
X1009650Y549900D03*
X1035050Y516900D03*
X1060450Y549900D03*
X1085850Y516900D03*
X908050Y516900D03*
X1111250Y549900D03*
X1136650Y549900D03*
X1111250Y516900D03*
X1136650Y516900D03*
X1024890Y67300D03*
X1075690Y67300D03*
X1126490Y67300D03*
X999490Y34300D03*
X1050290Y34300D03*
X1101090Y34300D03*
X1151890Y34300D03*
X1177290Y34300D03*
X1151890Y67300D03*
X1126490Y34300D03*
X1101090Y67300D03*
X1075690Y34300D03*
X1050290Y67300D03*
X1024890Y34300D03*
X999490Y67300D03*
X1177290Y67300D03*
D20*
X1208115Y236920D02*
X1222665Y236920D01*
X1222665Y248920D02*
X1208115Y248920D01*
X1208115Y260920D02*
X1222665Y260920D01*
D21*
X1215415Y248895D03*
D22*
X1367790Y317500D03*
X1367790Y292100D03*
D23*
X1393190Y304800D03*
X1342390Y304800D03*
X1342390Y279400D03*
X1393190Y279400D03*
X1393190Y330200D03*
X1342390Y330200D03*
D12*
X909290Y248920D03*
X937290Y248920D03*
D24*
X1289290Y382270D03*
X1319290Y382270D03*
X984490Y433070D03*
X1014490Y433070D03*
D25*
X880110Y87720D03*
X880110Y130720D03*
D19*
X1202690Y549900D03*
X1253490Y549900D03*
X1304290Y549900D03*
X1177290Y516900D03*
X1228090Y516900D03*
X1278890Y516900D03*
X1329690Y516900D03*
X1355090Y516900D03*
X1329690Y549900D03*
X1304290Y516900D03*
X1278890Y549900D03*
X1253490Y516900D03*
X1228090Y549900D03*
X1202690Y516900D03*
X1177290Y549900D03*
X1355090Y549900D03*
X1329690Y34300D03*
X1278890Y34300D03*
X1228090Y34300D03*
X1355090Y67300D03*
X1304290Y67300D03*
X1253490Y67300D03*
X1228090Y67300D03*
X1253490Y34300D03*
X1278890Y67300D03*
X1304290Y34300D03*
X1329690Y67300D03*
X1355090Y34300D03*
D26*
X747460Y159710D02*
X733360Y159710D01*
X733360Y177810D01*
X747460Y177810D01*
X747460Y159710D01*
X747460Y167245D02*
X733360Y167245D01*
X733360Y174780D02*
X747460Y174780D01*
X747460Y45710D02*
X733360Y45710D01*
X733360Y63810D01*
X747460Y63810D01*
X747460Y45710D01*
X747460Y53245D02*
X733360Y53245D01*
X733360Y60780D02*
X747460Y60780D01*
X794360Y159710D02*
X808460Y159710D01*
X794360Y159710D02*
X794360Y177810D01*
X808460Y177810D01*
X808460Y159710D01*
X808460Y167245D02*
X794360Y167245D01*
X794360Y174780D02*
X808460Y174780D01*
X808460Y45710D02*
X794360Y45710D01*
X794360Y63810D01*
X808460Y63810D01*
X808460Y45710D01*
X808460Y53245D02*
X794360Y53245D01*
X794360Y60780D02*
X808460Y60780D01*
D27*
X740410Y111760D03*
X786130Y111760D03*
D28*
X1323700Y184000D03*
X1323700Y197000D03*
X1305200Y190500D03*
D11*
X1322950Y215900D03*
X1305950Y215900D03*
X1322950Y165100D03*
X1305950Y165100D03*
D29*
X1182116Y200600D03*
X1182116Y208600D03*
X1182116Y216600D03*
X1182116Y224600D03*
X1182116Y232600D03*
X1182116Y240600D03*
X1182116Y248600D03*
X1182116Y256600D03*
D30*
X1167190Y271526D03*
X1159190Y271526D03*
X1151190Y271526D03*
X1143190Y271526D03*
X1135190Y271526D03*
X1127190Y271526D03*
X1119190Y271526D03*
X1111190Y271526D03*
D29*
X1096264Y256600D03*
X1096264Y248600D03*
X1096264Y240600D03*
X1096264Y232600D03*
X1096264Y224600D03*
X1096264Y216600D03*
X1096264Y208600D03*
X1096264Y200600D03*
D30*
X1111190Y185674D03*
X1119190Y185674D03*
X1127190Y185674D03*
X1135190Y185674D03*
X1143190Y185674D03*
X1151190Y185674D03*
X1159190Y185674D03*
X1167190Y185674D03*
D31*
X910289Y212700D03*
X910289Y203200D03*
X910289Y193700D03*
X936291Y193700D03*
X936291Y212700D03*
D11*
X931790Y228600D03*
X914790Y228600D03*
X838590Y355600D03*
X855590Y355600D03*
D24*
X1014490Y355600D03*
X984490Y355600D03*
D11*
X1007990Y336550D03*
X990990Y336550D03*
X851290Y482600D03*
X868290Y482600D03*
X1007990Y374650D03*
X990990Y374650D03*
D24*
X1014490Y393700D03*
X984490Y393700D03*
D32*
X1391840Y162500D03*
X1391840Y218500D03*
D33*
X1355090Y175500D03*
X1355090Y185500D03*
X1355090Y195500D03*
X1355090Y205500D03*
D28*
X1269640Y197000D03*
X1269640Y184000D03*
X1288140Y190500D03*
D11*
X1270390Y215900D03*
X1287390Y215900D03*
X1270390Y165100D03*
X1287390Y165100D03*
D34*
X783590Y411600D03*
X783590Y416600D03*
D35*
X783590Y386850D03*
D36*
X783590Y394600D03*
D34*
X783590Y401600D03*
X783590Y406600D03*
X783590Y426600D03*
X783590Y421600D03*
D35*
X783590Y451350D03*
D36*
X783590Y443600D03*
D34*
X783590Y436600D03*
X783590Y431600D03*
D37*
X769140Y448000D03*
X769140Y390200D03*
D38*
X819090Y463550D03*
X819090Y450850D03*
X819090Y438150D03*
X819090Y425450D03*
X819090Y412750D03*
X819090Y400050D03*
X819090Y387350D03*
X819090Y374650D03*
X875090Y374650D03*
X875090Y387350D03*
X875090Y400050D03*
X875090Y412750D03*
X875090Y425450D03*
X875090Y438150D03*
X875090Y450850D03*
X875090Y463550D03*
D11*
X729370Y339090D03*
X746370Y339090D03*
X830190Y482600D03*
X813190Y482600D03*
D39*
X798830Y501650D03*
X742950Y501650D03*
X798830Y539750D03*
X742950Y539750D03*
D40*
X807720Y358394D03*
X807720Y350266D03*
D41*
X762240Y330200D03*
X792240Y330200D03*
D42*
X1024490Y206050D03*
X999490Y206050D03*
X974490Y206050D03*
X1024490Y149550D03*
X999490Y149550D03*
X974490Y149550D03*
D43*
X1014490Y177800D03*
X984490Y177800D03*
D44*
X908050Y571500D03*
X933450Y571500D03*
X958850Y571500D03*
X984250Y571500D03*
X1009650Y571500D03*
X1035050Y571500D03*
X1060450Y571500D03*
X1085850Y571500D03*
X1111250Y571500D03*
X1136650Y571500D03*
X1177290Y12700D03*
X1151890Y12700D03*
X1126490Y12700D03*
X1101090Y12700D03*
X1075690Y12700D03*
X1050290Y12700D03*
X1024890Y12700D03*
X999490Y12700D03*
X1228090Y12700D03*
X1253490Y12700D03*
X1278890Y12700D03*
X1304290Y12700D03*
X1329690Y12700D03*
X1355090Y12700D03*
X1355090Y571500D03*
X1329690Y571500D03*
X1304290Y571500D03*
X1278890Y571500D03*
X1253490Y571500D03*
X1228090Y571500D03*
X1202690Y571500D03*
X1177290Y571500D03*
D10*
X1795780Y211700D03*
X1795780Y194700D03*
D11*
X1728080Y414020D03*
X1711080Y414020D03*
X2015880Y363220D03*
X2032880Y363220D03*
X1728080Y298450D03*
X1711080Y298450D03*
D10*
X1795780Y265600D03*
X1795780Y248600D03*
D12*
X1657380Y160020D03*
X1629380Y160020D03*
D11*
X1533280Y287020D03*
X1550280Y287020D03*
D13*
X1656080Y107820D03*
X1656080Y59820D03*
D10*
X1478280Y301870D03*
X1478280Y284870D03*
D14*
X1493680Y304140D03*
X1493680Y285140D03*
X1514680Y294640D03*
D11*
X1711080Y318770D03*
X1728080Y318770D03*
X1466460Y321310D03*
X1449460Y321310D03*
D15*
X1546580Y218593D03*
X1546580Y241300D03*
X1546580Y264185D03*
D16*
X1487170Y241300D03*
D11*
X1582030Y198120D03*
X1565030Y198120D03*
X1565030Y223520D03*
X1582030Y223520D03*
D17*
X1579880Y50800D03*
X2100580Y101600D03*
X2100580Y381000D03*
X1592580Y533400D03*
D18*
X2100580Y139700D03*
X1554480Y546100D03*
D11*
X1533280Y302260D03*
X1550280Y302260D03*
D12*
X1560860Y330200D03*
X1532860Y330200D03*
D19*
X1780540Y516900D03*
X1729740Y516900D03*
X1678940Y516900D03*
X1805940Y549900D03*
X1755140Y549900D03*
X1704340Y549900D03*
X1653540Y549900D03*
X1628140Y549900D03*
X1653540Y516900D03*
X1678940Y549900D03*
X1704340Y516900D03*
X1729740Y549900D03*
X1755140Y516900D03*
X1780540Y549900D03*
X1805940Y516900D03*
X1628140Y516900D03*
X1831340Y549900D03*
X1856740Y549900D03*
X1831340Y516900D03*
X1856740Y516900D03*
X1744980Y67300D03*
X1795780Y67300D03*
X1846580Y67300D03*
X1719580Y34300D03*
X1770380Y34300D03*
X1821180Y34300D03*
X1871980Y34300D03*
X1897380Y34300D03*
X1871980Y67300D03*
X1846580Y34300D03*
X1821180Y67300D03*
X1795780Y34300D03*
X1770380Y67300D03*
X1744980Y34300D03*
X1719580Y67300D03*
X1897380Y67300D03*
D20*
X1928205Y236920D02*
X1942755Y236920D01*
X1942755Y248920D02*
X1928205Y248920D01*
X1928205Y260920D02*
X1942755Y260920D01*
D21*
X1935505Y248895D03*
D22*
X2087880Y317500D03*
X2087880Y292100D03*
D23*
X2113280Y304800D03*
X2062480Y304800D03*
X2062480Y279400D03*
X2113280Y279400D03*
X2113280Y330200D03*
X2062480Y330200D03*
D12*
X1629380Y248920D03*
X1657380Y248920D03*
D24*
X2009380Y382270D03*
X2039380Y382270D03*
X1704580Y433070D03*
X1734580Y433070D03*
D25*
X1600200Y87720D03*
X1600200Y130720D03*
D19*
X1922780Y549900D03*
X1973580Y549900D03*
X2024380Y549900D03*
X1897380Y516900D03*
X1948180Y516900D03*
X1998980Y516900D03*
X2049780Y516900D03*
X2075180Y516900D03*
X2049780Y549900D03*
X2024380Y516900D03*
X1998980Y549900D03*
X1973580Y516900D03*
X1948180Y549900D03*
X1922780Y516900D03*
X1897380Y549900D03*
X2075180Y549900D03*
X2049780Y34300D03*
X1998980Y34300D03*
X1948180Y34300D03*
X2075180Y67300D03*
X2024380Y67300D03*
X1973580Y67300D03*
X1948180Y67300D03*
X1973580Y34300D03*
X1998980Y67300D03*
X2024380Y34300D03*
X2049780Y67300D03*
X2075180Y34300D03*
D26*
X1467550Y159710D02*
X1453450Y159710D01*
X1453450Y177810D01*
X1467550Y177810D01*
X1467550Y159710D01*
X1467550Y167245D02*
X1453450Y167245D01*
X1453450Y174780D02*
X1467550Y174780D01*
X1467550Y45710D02*
X1453450Y45710D01*
X1453450Y63810D01*
X1467550Y63810D01*
X1467550Y45710D01*
X1467550Y53245D02*
X1453450Y53245D01*
X1453450Y60780D02*
X1467550Y60780D01*
X1514450Y159710D02*
X1528550Y159710D01*
X1514450Y159710D02*
X1514450Y177810D01*
X1528550Y177810D01*
X1528550Y159710D01*
X1528550Y167245D02*
X1514450Y167245D01*
X1514450Y174780D02*
X1528550Y174780D01*
X1528550Y45710D02*
X1514450Y45710D01*
X1514450Y63810D01*
X1528550Y63810D01*
X1528550Y45710D01*
X1528550Y53245D02*
X1514450Y53245D01*
X1514450Y60780D02*
X1528550Y60780D01*
D27*
X1460500Y111760D03*
X1506220Y111760D03*
D28*
X2043790Y184000D03*
X2043790Y197000D03*
X2025290Y190500D03*
D11*
X2043040Y215900D03*
X2026040Y215900D03*
X2043040Y165100D03*
X2026040Y165100D03*
D29*
X1902206Y200600D03*
X1902206Y208600D03*
X1902206Y216600D03*
X1902206Y224600D03*
X1902206Y232600D03*
X1902206Y240600D03*
X1902206Y248600D03*
X1902206Y256600D03*
D30*
X1887280Y271526D03*
X1879280Y271526D03*
X1871280Y271526D03*
X1863280Y271526D03*
X1855280Y271526D03*
X1847280Y271526D03*
X1839280Y271526D03*
X1831280Y271526D03*
D29*
X1816354Y256600D03*
X1816354Y248600D03*
X1816354Y240600D03*
X1816354Y232600D03*
X1816354Y224600D03*
X1816354Y216600D03*
X1816354Y208600D03*
X1816354Y200600D03*
D30*
X1831280Y185674D03*
X1839280Y185674D03*
X1847280Y185674D03*
X1855280Y185674D03*
X1863280Y185674D03*
X1871280Y185674D03*
X1879280Y185674D03*
X1887280Y185674D03*
D31*
X1630379Y212700D03*
X1630379Y203200D03*
X1630379Y193700D03*
X1656381Y193700D03*
X1656381Y212700D03*
D11*
X1651880Y228600D03*
X1634880Y228600D03*
X1558680Y355600D03*
X1575680Y355600D03*
D24*
X1734580Y355600D03*
X1704580Y355600D03*
D11*
X1728080Y336550D03*
X1711080Y336550D03*
X1571380Y482600D03*
X1588380Y482600D03*
X1728080Y374650D03*
X1711080Y374650D03*
D24*
X1734580Y393700D03*
X1704580Y393700D03*
D32*
X2111930Y162500D03*
X2111930Y218500D03*
D33*
X2075180Y175500D03*
X2075180Y185500D03*
X2075180Y195500D03*
X2075180Y205500D03*
D28*
X1989730Y197000D03*
X1989730Y184000D03*
X2008230Y190500D03*
D11*
X1990480Y215900D03*
X2007480Y215900D03*
X1990480Y165100D03*
X2007480Y165100D03*
D34*
X1503680Y411600D03*
X1503680Y416600D03*
D35*
X1503680Y386850D03*
D36*
X1503680Y394600D03*
D34*
X1503680Y401600D03*
X1503680Y406600D03*
X1503680Y426600D03*
X1503680Y421600D03*
D35*
X1503680Y451350D03*
D36*
X1503680Y443600D03*
D34*
X1503680Y436600D03*
X1503680Y431600D03*
D37*
X1489230Y448000D03*
X1489230Y390200D03*
D38*
X1539180Y463550D03*
X1539180Y450850D03*
X1539180Y438150D03*
X1539180Y425450D03*
X1539180Y412750D03*
X1539180Y400050D03*
X1539180Y387350D03*
X1539180Y374650D03*
X1595180Y374650D03*
X1595180Y387350D03*
X1595180Y400050D03*
X1595180Y412750D03*
X1595180Y425450D03*
X1595180Y438150D03*
X1595180Y450850D03*
X1595180Y463550D03*
D11*
X1449460Y339090D03*
X1466460Y339090D03*
X1550280Y482600D03*
X1533280Y482600D03*
D39*
X1518920Y501650D03*
X1463040Y501650D03*
X1518920Y539750D03*
X1463040Y539750D03*
D40*
X1527810Y358394D03*
X1527810Y350266D03*
D41*
X1482330Y330200D03*
X1512330Y330200D03*
D42*
X1744580Y206050D03*
X1719580Y206050D03*
X1694580Y206050D03*
X1744580Y149550D03*
X1719580Y149550D03*
X1694580Y149550D03*
D43*
X1734580Y177800D03*
X1704580Y177800D03*
D44*
X1628140Y571500D03*
X1653540Y571500D03*
X1678940Y571500D03*
X1704340Y571500D03*
X1729740Y571500D03*
X1755140Y571500D03*
X1780540Y571500D03*
X1805940Y571500D03*
X1831340Y571500D03*
X1856740Y571500D03*
X1897380Y12700D03*
X1871980Y12700D03*
X1846580Y12700D03*
X1821180Y12700D03*
X1795780Y12700D03*
X1770380Y12700D03*
X1744980Y12700D03*
X1719580Y12700D03*
X1948180Y12700D03*
X1973580Y12700D03*
X1998980Y12700D03*
X2024380Y12700D03*
X2049780Y12700D03*
X2075180Y12700D03*
X2075180Y571500D03*
X2049780Y571500D03*
X2024380Y571500D03*
X1998980Y571500D03*
X1973580Y571500D03*
X1948180Y571500D03*
X1922780Y571500D03*
X1897380Y571500D03*
D10*
X355600Y800980D03*
X355600Y783980D03*
D11*
X287900Y1003300D03*
X270900Y1003300D03*
X575700Y952500D03*
X592700Y952500D03*
X287900Y887730D03*
X270900Y887730D03*
D10*
X355600Y854880D03*
X355600Y837880D03*
D12*
X217200Y749300D03*
X189200Y749300D03*
D11*
X93100Y876300D03*
X110100Y876300D03*
D13*
X215900Y697100D03*
X215900Y649100D03*
D10*
X38100Y891150D03*
X38100Y874150D03*
D14*
X53500Y893420D03*
X53500Y874420D03*
X74500Y883920D03*
D11*
X270900Y908050D03*
X287900Y908050D03*
X26280Y910590D03*
X9280Y910590D03*
D15*
X106400Y807873D03*
X106400Y830580D03*
X106400Y853465D03*
D16*
X46990Y830580D03*
D11*
X141850Y787400D03*
X124850Y787400D03*
X124850Y812800D03*
X141850Y812800D03*
D17*
X139700Y640080D03*
X660400Y690880D03*
X660400Y970280D03*
X152400Y1122680D03*
D18*
X660400Y728980D03*
X114300Y1135380D03*
D11*
X93100Y891540D03*
X110100Y891540D03*
D12*
X120680Y919480D03*
X92680Y919480D03*
D19*
X340360Y1106180D03*
X289560Y1106180D03*
X238760Y1106180D03*
X365760Y1139180D03*
X314960Y1139180D03*
X264160Y1139180D03*
X213360Y1139180D03*
X187960Y1139180D03*
X213360Y1106180D03*
X238760Y1139180D03*
X264160Y1106180D03*
X289560Y1139180D03*
X314960Y1106180D03*
X340360Y1139180D03*
X365760Y1106180D03*
X187960Y1106180D03*
X391160Y1139180D03*
X416560Y1139180D03*
X391160Y1106180D03*
X416560Y1106180D03*
X304800Y656580D03*
X355600Y656580D03*
X406400Y656580D03*
X279400Y623580D03*
X330200Y623580D03*
X381000Y623580D03*
X431800Y623580D03*
X457200Y623580D03*
X431800Y656580D03*
X406400Y623580D03*
X381000Y656580D03*
X355600Y623580D03*
X330200Y656580D03*
X304800Y623580D03*
X279400Y656580D03*
X457200Y656580D03*
D20*
X488025Y826200D02*
X502575Y826200D01*
X502575Y838200D02*
X488025Y838200D01*
X488025Y850200D02*
X502575Y850200D01*
D21*
X495325Y838175D03*
D22*
X647700Y906780D03*
X647700Y881380D03*
D23*
X673100Y894080D03*
X622300Y894080D03*
X622300Y868680D03*
X673100Y868680D03*
X673100Y919480D03*
X622300Y919480D03*
D12*
X189200Y838200D03*
X217200Y838200D03*
D24*
X569200Y971550D03*
X599200Y971550D03*
X264400Y1022350D03*
X294400Y1022350D03*
D25*
X160020Y677000D03*
X160020Y720000D03*
D19*
X482600Y1139180D03*
X533400Y1139180D03*
X584200Y1139180D03*
X457200Y1106180D03*
X508000Y1106180D03*
X558800Y1106180D03*
X609600Y1106180D03*
X635000Y1106180D03*
X609600Y1139180D03*
X584200Y1106180D03*
X558800Y1139180D03*
X533400Y1106180D03*
X508000Y1139180D03*
X482600Y1106180D03*
X457200Y1139180D03*
X635000Y1139180D03*
X609600Y623580D03*
X558800Y623580D03*
X508000Y623580D03*
X635000Y656580D03*
X584200Y656580D03*
X533400Y656580D03*
X508000Y656580D03*
X533400Y623580D03*
X558800Y656580D03*
X584200Y623580D03*
X609600Y656580D03*
X635000Y623580D03*
D26*
X27370Y748990D02*
X13270Y748990D01*
X13270Y767090D01*
X27370Y767090D01*
X27370Y748990D01*
X27370Y756525D02*
X13270Y756525D01*
X13270Y764060D02*
X27370Y764060D01*
X27370Y634990D02*
X13270Y634990D01*
X13270Y653090D01*
X27370Y653090D01*
X27370Y634990D01*
X27370Y642525D02*
X13270Y642525D01*
X13270Y650060D02*
X27370Y650060D01*
X74270Y748990D02*
X88370Y748990D01*
X74270Y748990D02*
X74270Y767090D01*
X88370Y767090D01*
X88370Y748990D01*
X88370Y756525D02*
X74270Y756525D01*
X74270Y764060D02*
X88370Y764060D01*
X88370Y634990D02*
X74270Y634990D01*
X74270Y653090D01*
X88370Y653090D01*
X88370Y634990D01*
X88370Y642525D02*
X74270Y642525D01*
X74270Y650060D02*
X88370Y650060D01*
D27*
X20320Y701040D03*
X66040Y701040D03*
D28*
X603610Y773280D03*
X603610Y786280D03*
X585110Y779780D03*
D11*
X602860Y805180D03*
X585860Y805180D03*
X602860Y754380D03*
X585860Y754380D03*
D29*
X462026Y789880D03*
X462026Y797880D03*
X462026Y805880D03*
X462026Y813880D03*
X462026Y821880D03*
X462026Y829880D03*
X462026Y837880D03*
X462026Y845880D03*
D30*
X447100Y860806D03*
X439100Y860806D03*
X431100Y860806D03*
X423100Y860806D03*
X415100Y860806D03*
X407100Y860806D03*
X399100Y860806D03*
X391100Y860806D03*
D29*
X376174Y845880D03*
X376174Y837880D03*
X376174Y829880D03*
X376174Y821880D03*
X376174Y813880D03*
X376174Y805880D03*
X376174Y797880D03*
X376174Y789880D03*
D30*
X391100Y774954D03*
X399100Y774954D03*
X407100Y774954D03*
X415100Y774954D03*
X423100Y774954D03*
X431100Y774954D03*
X439100Y774954D03*
X447100Y774954D03*
D31*
X190199Y801980D03*
X190199Y792480D03*
X190199Y782980D03*
X216201Y782980D03*
X216201Y801980D03*
D11*
X211700Y817880D03*
X194700Y817880D03*
X118500Y944880D03*
X135500Y944880D03*
D24*
X294400Y944880D03*
X264400Y944880D03*
D11*
X287900Y925830D03*
X270900Y925830D03*
X131200Y1071880D03*
X148200Y1071880D03*
X287900Y963930D03*
X270900Y963930D03*
D24*
X294400Y982980D03*
X264400Y982980D03*
D32*
X671750Y751780D03*
X671750Y807780D03*
D33*
X635000Y764780D03*
X635000Y774780D03*
X635000Y784780D03*
X635000Y794780D03*
D28*
X549550Y786280D03*
X549550Y773280D03*
X568050Y779780D03*
D11*
X550300Y805180D03*
X567300Y805180D03*
X550300Y754380D03*
X567300Y754380D03*
D34*
X63500Y1000880D03*
X63500Y1005880D03*
D35*
X63500Y976130D03*
D36*
X63500Y983880D03*
D34*
X63500Y990880D03*
X63500Y995880D03*
X63500Y1015880D03*
X63500Y1010880D03*
D35*
X63500Y1040630D03*
D36*
X63500Y1032880D03*
D34*
X63500Y1025880D03*
X63500Y1020880D03*
D37*
X49050Y1037280D03*
X49050Y979480D03*
D38*
X99000Y1052830D03*
X99000Y1040130D03*
X99000Y1027430D03*
X99000Y1014730D03*
X99000Y1002030D03*
X99000Y989330D03*
X99000Y976630D03*
X99000Y963930D03*
X155000Y963930D03*
X155000Y976630D03*
X155000Y989330D03*
X155000Y1002030D03*
X155000Y1014730D03*
X155000Y1027430D03*
X155000Y1040130D03*
X155000Y1052830D03*
D11*
X9280Y928370D03*
X26280Y928370D03*
X110100Y1071880D03*
X93100Y1071880D03*
D39*
X78740Y1090930D03*
X22860Y1090930D03*
X78740Y1129030D03*
X22860Y1129030D03*
D40*
X87630Y947674D03*
X87630Y939546D03*
D41*
X42150Y919480D03*
X72150Y919480D03*
D42*
X304400Y795330D03*
X279400Y795330D03*
X254400Y795330D03*
X304400Y738830D03*
X279400Y738830D03*
X254400Y738830D03*
D43*
X294400Y767080D03*
X264400Y767080D03*
D44*
X187960Y1160780D03*
X213360Y1160780D03*
X238760Y1160780D03*
X264160Y1160780D03*
X289560Y1160780D03*
X314960Y1160780D03*
X340360Y1160780D03*
X365760Y1160780D03*
X391160Y1160780D03*
X416560Y1160780D03*
X457200Y601980D03*
X431800Y601980D03*
X406400Y601980D03*
X381000Y601980D03*
X355600Y601980D03*
X330200Y601980D03*
X304800Y601980D03*
X279400Y601980D03*
X508000Y601980D03*
X533400Y601980D03*
X558800Y601980D03*
X584200Y601980D03*
X609600Y601980D03*
X635000Y601980D03*
X635000Y1160780D03*
X609600Y1160780D03*
X584200Y1160780D03*
X558800Y1160780D03*
X533400Y1160780D03*
X508000Y1160780D03*
X482600Y1160780D03*
X457200Y1160780D03*
D10*
X1075690Y800980D03*
X1075690Y783980D03*
D11*
X1007990Y1003300D03*
X990990Y1003300D03*
X1295790Y952500D03*
X1312790Y952500D03*
X1007990Y887730D03*
X990990Y887730D03*
D10*
X1075690Y854880D03*
X1075690Y837880D03*
D12*
X937290Y749300D03*
X909290Y749300D03*
D11*
X813190Y876300D03*
X830190Y876300D03*
D13*
X935990Y697100D03*
X935990Y649100D03*
D10*
X758190Y891150D03*
X758190Y874150D03*
D14*
X773590Y893420D03*
X773590Y874420D03*
X794590Y883920D03*
D11*
X990990Y908050D03*
X1007990Y908050D03*
X746370Y910590D03*
X729370Y910590D03*
D15*
X826490Y807873D03*
X826490Y830580D03*
X826490Y853465D03*
D16*
X767080Y830580D03*
D11*
X861940Y787400D03*
X844940Y787400D03*
X844940Y812800D03*
X861940Y812800D03*
D17*
X859790Y640080D03*
X1380490Y690880D03*
X1380490Y970280D03*
X872490Y1122680D03*
D18*
X1380490Y728980D03*
X834390Y1135380D03*
D11*
X813190Y891540D03*
X830190Y891540D03*
D12*
X840770Y919480D03*
X812770Y919480D03*
D19*
X1060450Y1106180D03*
X1009650Y1106180D03*
X958850Y1106180D03*
X1085850Y1139180D03*
X1035050Y1139180D03*
X984250Y1139180D03*
X933450Y1139180D03*
X908050Y1139180D03*
X933450Y1106180D03*
X958850Y1139180D03*
X984250Y1106180D03*
X1009650Y1139180D03*
X1035050Y1106180D03*
X1060450Y1139180D03*
X1085850Y1106180D03*
X908050Y1106180D03*
X1111250Y1139180D03*
X1136650Y1139180D03*
X1111250Y1106180D03*
X1136650Y1106180D03*
X1024890Y656580D03*
X1075690Y656580D03*
X1126490Y656580D03*
X999490Y623580D03*
X1050290Y623580D03*
X1101090Y623580D03*
X1151890Y623580D03*
X1177290Y623580D03*
X1151890Y656580D03*
X1126490Y623580D03*
X1101090Y656580D03*
X1075690Y623580D03*
X1050290Y656580D03*
X1024890Y623580D03*
X999490Y656580D03*
X1177290Y656580D03*
D20*
X1208115Y826200D02*
X1222665Y826200D01*
X1222665Y838200D02*
X1208115Y838200D01*
X1208115Y850200D02*
X1222665Y850200D01*
D21*
X1215415Y838175D03*
D22*
X1367790Y906780D03*
X1367790Y881380D03*
D23*
X1393190Y894080D03*
X1342390Y894080D03*
X1342390Y868680D03*
X1393190Y868680D03*
X1393190Y919480D03*
X1342390Y919480D03*
D12*
X909290Y838200D03*
X937290Y838200D03*
D24*
X1289290Y971550D03*
X1319290Y971550D03*
X984490Y1022350D03*
X1014490Y1022350D03*
D25*
X880110Y677000D03*
X880110Y720000D03*
D19*
X1202690Y1139180D03*
X1253490Y1139180D03*
X1304290Y1139180D03*
X1177290Y1106180D03*
X1228090Y1106180D03*
X1278890Y1106180D03*
X1329690Y1106180D03*
X1355090Y1106180D03*
X1329690Y1139180D03*
X1304290Y1106180D03*
X1278890Y1139180D03*
X1253490Y1106180D03*
X1228090Y1139180D03*
X1202690Y1106180D03*
X1177290Y1139180D03*
X1355090Y1139180D03*
X1329690Y623580D03*
X1278890Y623580D03*
X1228090Y623580D03*
X1355090Y656580D03*
X1304290Y656580D03*
X1253490Y656580D03*
X1228090Y656580D03*
X1253490Y623580D03*
X1278890Y656580D03*
X1304290Y623580D03*
X1329690Y656580D03*
X1355090Y623580D03*
D26*
X747460Y748990D02*
X733360Y748990D01*
X733360Y767090D01*
X747460Y767090D01*
X747460Y748990D01*
X747460Y756525D02*
X733360Y756525D01*
X733360Y764060D02*
X747460Y764060D01*
X747460Y634990D02*
X733360Y634990D01*
X733360Y653090D01*
X747460Y653090D01*
X747460Y634990D01*
X747460Y642525D02*
X733360Y642525D01*
X733360Y650060D02*
X747460Y650060D01*
X794360Y748990D02*
X808460Y748990D01*
X794360Y748990D02*
X794360Y767090D01*
X808460Y767090D01*
X808460Y748990D01*
X808460Y756525D02*
X794360Y756525D01*
X794360Y764060D02*
X808460Y764060D01*
X808460Y634990D02*
X794360Y634990D01*
X794360Y653090D01*
X808460Y653090D01*
X808460Y634990D01*
X808460Y642525D02*
X794360Y642525D01*
X794360Y650060D02*
X808460Y650060D01*
D27*
X740410Y701040D03*
X786130Y701040D03*
D28*
X1323700Y773280D03*
X1323700Y786280D03*
X1305200Y779780D03*
D11*
X1322950Y805180D03*
X1305950Y805180D03*
X1322950Y754380D03*
X1305950Y754380D03*
D29*
X1182116Y789880D03*
X1182116Y797880D03*
X1182116Y805880D03*
X1182116Y813880D03*
X1182116Y821880D03*
X1182116Y829880D03*
X1182116Y837880D03*
X1182116Y845880D03*
D30*
X1167190Y860806D03*
X1159190Y860806D03*
X1151190Y860806D03*
X1143190Y860806D03*
X1135190Y860806D03*
X1127190Y860806D03*
X1119190Y860806D03*
X1111190Y860806D03*
D29*
X1096264Y845880D03*
X1096264Y837880D03*
X1096264Y829880D03*
X1096264Y821880D03*
X1096264Y813880D03*
X1096264Y805880D03*
X1096264Y797880D03*
X1096264Y789880D03*
D30*
X1111190Y774954D03*
X1119190Y774954D03*
X1127190Y774954D03*
X1135190Y774954D03*
X1143190Y774954D03*
X1151190Y774954D03*
X1159190Y774954D03*
X1167190Y774954D03*
D31*
X910289Y801980D03*
X910289Y792480D03*
X910289Y782980D03*
X936291Y782980D03*
X936291Y801980D03*
D11*
X931790Y817880D03*
X914790Y817880D03*
X838590Y944880D03*
X855590Y944880D03*
D24*
X1014490Y944880D03*
X984490Y944880D03*
D11*
X1007990Y925830D03*
X990990Y925830D03*
X851290Y1071880D03*
X868290Y1071880D03*
X1007990Y963930D03*
X990990Y963930D03*
D24*
X1014490Y982980D03*
X984490Y982980D03*
D32*
X1391840Y751780D03*
X1391840Y807780D03*
D33*
X1355090Y764780D03*
X1355090Y774780D03*
X1355090Y784780D03*
X1355090Y794780D03*
D28*
X1269640Y786280D03*
X1269640Y773280D03*
X1288140Y779780D03*
D11*
X1270390Y805180D03*
X1287390Y805180D03*
X1270390Y754380D03*
X1287390Y754380D03*
D34*
X783590Y1000880D03*
X783590Y1005880D03*
D35*
X783590Y976130D03*
D36*
X783590Y983880D03*
D34*
X783590Y990880D03*
X783590Y995880D03*
X783590Y1015880D03*
X783590Y1010880D03*
D35*
X783590Y1040630D03*
D36*
X783590Y1032880D03*
D34*
X783590Y1025880D03*
X783590Y1020880D03*
D37*
X769140Y1037280D03*
X769140Y979480D03*
D38*
X819090Y1052830D03*
X819090Y1040130D03*
X819090Y1027430D03*
X819090Y1014730D03*
X819090Y1002030D03*
X819090Y989330D03*
X819090Y976630D03*
X819090Y963930D03*
X875090Y963930D03*
X875090Y976630D03*
X875090Y989330D03*
X875090Y1002030D03*
X875090Y1014730D03*
X875090Y1027430D03*
X875090Y1040130D03*
X875090Y1052830D03*
D11*
X729370Y928370D03*
X746370Y928370D03*
X830190Y1071880D03*
X813190Y1071880D03*
D39*
X798830Y1090930D03*
X742950Y1090930D03*
X798830Y1129030D03*
X742950Y1129030D03*
D40*
X807720Y947674D03*
X807720Y939546D03*
D41*
X762240Y919480D03*
X792240Y919480D03*
D42*
X1024490Y795330D03*
X999490Y795330D03*
X974490Y795330D03*
X1024490Y738830D03*
X999490Y738830D03*
X974490Y738830D03*
D43*
X1014490Y767080D03*
X984490Y767080D03*
D44*
X908050Y1160780D03*
X933450Y1160780D03*
X958850Y1160780D03*
X984250Y1160780D03*
X1009650Y1160780D03*
X1035050Y1160780D03*
X1060450Y1160780D03*
X1085850Y1160780D03*
X1111250Y1160780D03*
X1136650Y1160780D03*
X1177290Y601980D03*
X1151890Y601980D03*
X1126490Y601980D03*
X1101090Y601980D03*
X1075690Y601980D03*
X1050290Y601980D03*
X1024890Y601980D03*
X999490Y601980D03*
X1228090Y601980D03*
X1253490Y601980D03*
X1278890Y601980D03*
X1304290Y601980D03*
X1329690Y601980D03*
X1355090Y601980D03*
X1355090Y1160780D03*
X1329690Y1160780D03*
X1304290Y1160780D03*
X1278890Y1160780D03*
X1253490Y1160780D03*
X1228090Y1160780D03*
X1202690Y1160780D03*
X1177290Y1160780D03*
D10*
X1795780Y800980D03*
X1795780Y783980D03*
D11*
X1728080Y1003300D03*
X1711080Y1003300D03*
X2015880Y952500D03*
X2032880Y952500D03*
X1728080Y887730D03*
X1711080Y887730D03*
D10*
X1795780Y854880D03*
X1795780Y837880D03*
D12*
X1657380Y749300D03*
X1629380Y749300D03*
D11*
X1533280Y876300D03*
X1550280Y876300D03*
D13*
X1656080Y697100D03*
X1656080Y649100D03*
D10*
X1478280Y891150D03*
X1478280Y874150D03*
D14*
X1493680Y893420D03*
X1493680Y874420D03*
X1514680Y883920D03*
D11*
X1711080Y908050D03*
X1728080Y908050D03*
X1466460Y910590D03*
X1449460Y910590D03*
D15*
X1546580Y807873D03*
X1546580Y830580D03*
X1546580Y853465D03*
D16*
X1487170Y830580D03*
D11*
X1582030Y787400D03*
X1565030Y787400D03*
X1565030Y812800D03*
X1582030Y812800D03*
D17*
X1579880Y640080D03*
X2100580Y690880D03*
X2100580Y970280D03*
X1592580Y1122680D03*
D18*
X2100580Y728980D03*
X1554480Y1135380D03*
D11*
X1533280Y891540D03*
X1550280Y891540D03*
D12*
X1560860Y919480D03*
X1532860Y919480D03*
D19*
X1780540Y1106180D03*
X1729740Y1106180D03*
X1678940Y1106180D03*
X1805940Y1139180D03*
X1755140Y1139180D03*
X1704340Y1139180D03*
X1653540Y1139180D03*
X1628140Y1139180D03*
X1653540Y1106180D03*
X1678940Y1139180D03*
X1704340Y1106180D03*
X1729740Y1139180D03*
X1755140Y1106180D03*
X1780540Y1139180D03*
X1805940Y1106180D03*
X1628140Y1106180D03*
X1831340Y1139180D03*
X1856740Y1139180D03*
X1831340Y1106180D03*
X1856740Y1106180D03*
X1744980Y656580D03*
X1795780Y656580D03*
X1846580Y656580D03*
X1719580Y623580D03*
X1770380Y623580D03*
X1821180Y623580D03*
X1871980Y623580D03*
X1897380Y623580D03*
X1871980Y656580D03*
X1846580Y623580D03*
X1821180Y656580D03*
X1795780Y623580D03*
X1770380Y656580D03*
X1744980Y623580D03*
X1719580Y656580D03*
X1897380Y656580D03*
D20*
X1928205Y826200D02*
X1942755Y826200D01*
X1942755Y838200D02*
X1928205Y838200D01*
X1928205Y850200D02*
X1942755Y850200D01*
D21*
X1935505Y838175D03*
D22*
X2087880Y906780D03*
X2087880Y881380D03*
D23*
X2113280Y894080D03*
X2062480Y894080D03*
X2062480Y868680D03*
X2113280Y868680D03*
X2113280Y919480D03*
X2062480Y919480D03*
D12*
X1629380Y838200D03*
X1657380Y838200D03*
D24*
X2009380Y971550D03*
X2039380Y971550D03*
X1704580Y1022350D03*
X1734580Y1022350D03*
D25*
X1600200Y677000D03*
X1600200Y720000D03*
D19*
X1922780Y1139180D03*
X1973580Y1139180D03*
X2024380Y1139180D03*
X1897380Y1106180D03*
X1948180Y1106180D03*
X1998980Y1106180D03*
X2049780Y1106180D03*
X2075180Y1106180D03*
X2049780Y1139180D03*
X2024380Y1106180D03*
X1998980Y1139180D03*
X1973580Y1106180D03*
X1948180Y1139180D03*
X1922780Y1106180D03*
X1897380Y1139180D03*
X2075180Y1139180D03*
X2049780Y623580D03*
X1998980Y623580D03*
X1948180Y623580D03*
X2075180Y656580D03*
X2024380Y656580D03*
X1973580Y656580D03*
X1948180Y656580D03*
X1973580Y623580D03*
X1998980Y656580D03*
X2024380Y623580D03*
X2049780Y656580D03*
X2075180Y623580D03*
D26*
X1467550Y748990D02*
X1453450Y748990D01*
X1453450Y767090D01*
X1467550Y767090D01*
X1467550Y748990D01*
X1467550Y756525D02*
X1453450Y756525D01*
X1453450Y764060D02*
X1467550Y764060D01*
X1467550Y634990D02*
X1453450Y634990D01*
X1453450Y653090D01*
X1467550Y653090D01*
X1467550Y634990D01*
X1467550Y642525D02*
X1453450Y642525D01*
X1453450Y650060D02*
X1467550Y650060D01*
X1514450Y748990D02*
X1528550Y748990D01*
X1514450Y748990D02*
X1514450Y767090D01*
X1528550Y767090D01*
X1528550Y748990D01*
X1528550Y756525D02*
X1514450Y756525D01*
X1514450Y764060D02*
X1528550Y764060D01*
X1528550Y634990D02*
X1514450Y634990D01*
X1514450Y653090D01*
X1528550Y653090D01*
X1528550Y634990D01*
X1528550Y642525D02*
X1514450Y642525D01*
X1514450Y650060D02*
X1528550Y650060D01*
D27*
X1460500Y701040D03*
X1506220Y701040D03*
D28*
X2043790Y773280D03*
X2043790Y786280D03*
X2025290Y779780D03*
D11*
X2043040Y805180D03*
X2026040Y805180D03*
X2043040Y754380D03*
X2026040Y754380D03*
D29*
X1902206Y789880D03*
X1902206Y797880D03*
X1902206Y805880D03*
X1902206Y813880D03*
X1902206Y821880D03*
X1902206Y829880D03*
X1902206Y837880D03*
X1902206Y845880D03*
D30*
X1887280Y860806D03*
X1879280Y860806D03*
X1871280Y860806D03*
X1863280Y860806D03*
X1855280Y860806D03*
X1847280Y860806D03*
X1839280Y860806D03*
X1831280Y860806D03*
D29*
X1816354Y845880D03*
X1816354Y837880D03*
X1816354Y829880D03*
X1816354Y821880D03*
X1816354Y813880D03*
X1816354Y805880D03*
X1816354Y797880D03*
X1816354Y789880D03*
D30*
X1831280Y774954D03*
X1839280Y774954D03*
X1847280Y774954D03*
X1855280Y774954D03*
X1863280Y774954D03*
X1871280Y774954D03*
X1879280Y774954D03*
X1887280Y774954D03*
D31*
X1630379Y801980D03*
X1630379Y792480D03*
X1630379Y782980D03*
X1656381Y782980D03*
X1656381Y801980D03*
D11*
X1651880Y817880D03*
X1634880Y817880D03*
X1558680Y944880D03*
X1575680Y944880D03*
D24*
X1734580Y944880D03*
X1704580Y944880D03*
D11*
X1728080Y925830D03*
X1711080Y925830D03*
X1571380Y1071880D03*
X1588380Y1071880D03*
X1728080Y963930D03*
X1711080Y963930D03*
D24*
X1734580Y982980D03*
X1704580Y982980D03*
D32*
X2111930Y751780D03*
X2111930Y807780D03*
D33*
X2075180Y764780D03*
X2075180Y774780D03*
X2075180Y784780D03*
X2075180Y794780D03*
D28*
X1989730Y786280D03*
X1989730Y773280D03*
X2008230Y779780D03*
D11*
X1990480Y805180D03*
X2007480Y805180D03*
X1990480Y754380D03*
X2007480Y754380D03*
D34*
X1503680Y1000880D03*
X1503680Y1005880D03*
D35*
X1503680Y976130D03*
D36*
X1503680Y983880D03*
D34*
X1503680Y990880D03*
X1503680Y995880D03*
X1503680Y1015880D03*
X1503680Y1010880D03*
D35*
X1503680Y1040630D03*
D36*
X1503680Y1032880D03*
D34*
X1503680Y1025880D03*
X1503680Y1020880D03*
D37*
X1489230Y1037280D03*
X1489230Y979480D03*
D38*
X1539180Y1052830D03*
X1539180Y1040130D03*
X1539180Y1027430D03*
X1539180Y1014730D03*
X1539180Y1002030D03*
X1539180Y989330D03*
X1539180Y976630D03*
X1539180Y963930D03*
X1595180Y963930D03*
X1595180Y976630D03*
X1595180Y989330D03*
X1595180Y1002030D03*
X1595180Y1014730D03*
X1595180Y1027430D03*
X1595180Y1040130D03*
X1595180Y1052830D03*
D11*
X1449460Y928370D03*
X1466460Y928370D03*
X1550280Y1071880D03*
X1533280Y1071880D03*
D39*
X1518920Y1090930D03*
X1463040Y1090930D03*
X1518920Y1129030D03*
X1463040Y1129030D03*
D40*
X1527810Y947674D03*
X1527810Y939546D03*
D41*
X1482330Y919480D03*
X1512330Y919480D03*
D42*
X1744580Y795330D03*
X1719580Y795330D03*
X1694580Y795330D03*
X1744580Y738830D03*
X1719580Y738830D03*
X1694580Y738830D03*
D43*
X1734580Y767080D03*
X1704580Y767080D03*
D44*
X1628140Y1160780D03*
X1653540Y1160780D03*
X1678940Y1160780D03*
X1704340Y1160780D03*
X1729740Y1160780D03*
X1755140Y1160780D03*
X1780540Y1160780D03*
X1805940Y1160780D03*
X1831340Y1160780D03*
X1856740Y1160780D03*
X1897380Y601980D03*
X1871980Y601980D03*
X1846580Y601980D03*
X1821180Y601980D03*
X1795780Y601980D03*
X1770380Y601980D03*
X1744980Y601980D03*
X1719580Y601980D03*
X1948180Y601980D03*
X1973580Y601980D03*
X1998980Y601980D03*
X2024380Y601980D03*
X2049780Y601980D03*
X2075180Y601980D03*
X2075180Y1160780D03*
X2049780Y1160780D03*
X2024380Y1160780D03*
X1998980Y1160780D03*
X1973580Y1160780D03*
X1948180Y1160780D03*
X1922780Y1160780D03*
X1897380Y1160780D03*
D10*
X355600Y1390260D03*
X355600Y1373260D03*
D11*
X287900Y1592580D03*
X270900Y1592580D03*
X575700Y1541780D03*
X592700Y1541780D03*
X287900Y1477010D03*
X270900Y1477010D03*
D10*
X355600Y1444160D03*
X355600Y1427160D03*
D12*
X217200Y1338580D03*
X189200Y1338580D03*
D11*
X93100Y1465580D03*
X110100Y1465580D03*
D13*
X215900Y1286380D03*
X215900Y1238380D03*
D10*
X38100Y1480430D03*
X38100Y1463430D03*
D14*
X53500Y1482700D03*
X53500Y1463700D03*
X74500Y1473200D03*
D11*
X270900Y1497330D03*
X287900Y1497330D03*
X26280Y1499870D03*
X9280Y1499870D03*
D15*
X106400Y1397153D03*
X106400Y1419860D03*
X106400Y1442745D03*
D16*
X46990Y1419860D03*
D11*
X141850Y1376680D03*
X124850Y1376680D03*
X124850Y1402080D03*
X141850Y1402080D03*
D17*
X139700Y1229360D03*
X660400Y1280160D03*
X660400Y1559560D03*
X152400Y1711960D03*
D18*
X660400Y1318260D03*
X114300Y1724660D03*
D11*
X93100Y1480820D03*
X110100Y1480820D03*
D12*
X120680Y1508760D03*
X92680Y1508760D03*
D19*
X340360Y1695460D03*
X289560Y1695460D03*
X238760Y1695460D03*
X365760Y1728460D03*
X314960Y1728460D03*
X264160Y1728460D03*
X213360Y1728460D03*
X187960Y1728460D03*
X213360Y1695460D03*
X238760Y1728460D03*
X264160Y1695460D03*
X289560Y1728460D03*
X314960Y1695460D03*
X340360Y1728460D03*
X365760Y1695460D03*
X187960Y1695460D03*
X391160Y1728460D03*
X416560Y1728460D03*
X391160Y1695460D03*
X416560Y1695460D03*
X304800Y1245860D03*
X355600Y1245860D03*
X406400Y1245860D03*
X279400Y1212860D03*
X330200Y1212860D03*
X381000Y1212860D03*
X431800Y1212860D03*
X457200Y1212860D03*
X431800Y1245860D03*
X406400Y1212860D03*
X381000Y1245860D03*
X355600Y1212860D03*
X330200Y1245860D03*
X304800Y1212860D03*
X279400Y1245860D03*
X457200Y1245860D03*
D20*
X488025Y1415480D02*
X502575Y1415480D01*
X502575Y1427480D02*
X488025Y1427480D01*
X488025Y1439480D02*
X502575Y1439480D01*
D21*
X495325Y1427455D03*
D22*
X647700Y1496060D03*
X647700Y1470660D03*
D23*
X673100Y1483360D03*
X622300Y1483360D03*
X622300Y1457960D03*
X673100Y1457960D03*
X673100Y1508760D03*
X622300Y1508760D03*
D12*
X189200Y1427480D03*
X217200Y1427480D03*
D24*
X569200Y1560830D03*
X599200Y1560830D03*
X264400Y1611630D03*
X294400Y1611630D03*
D25*
X160020Y1266280D03*
X160020Y1309280D03*
D19*
X482600Y1728460D03*
X533400Y1728460D03*
X584200Y1728460D03*
X457200Y1695460D03*
X508000Y1695460D03*
X558800Y1695460D03*
X609600Y1695460D03*
X635000Y1695460D03*
X609600Y1728460D03*
X584200Y1695460D03*
X558800Y1728460D03*
X533400Y1695460D03*
X508000Y1728460D03*
X482600Y1695460D03*
X457200Y1728460D03*
X635000Y1728460D03*
X609600Y1212860D03*
X558800Y1212860D03*
X508000Y1212860D03*
X635000Y1245860D03*
X584200Y1245860D03*
X533400Y1245860D03*
X508000Y1245860D03*
X533400Y1212860D03*
X558800Y1245860D03*
X584200Y1212860D03*
X609600Y1245860D03*
X635000Y1212860D03*
D26*
X27370Y1338270D02*
X13270Y1338270D01*
X13270Y1356370D01*
X27370Y1356370D01*
X27370Y1338270D01*
X27370Y1345805D02*
X13270Y1345805D01*
X13270Y1353340D02*
X27370Y1353340D01*
X27370Y1224270D02*
X13270Y1224270D01*
X13270Y1242370D01*
X27370Y1242370D01*
X27370Y1224270D01*
X27370Y1231805D02*
X13270Y1231805D01*
X13270Y1239340D02*
X27370Y1239340D01*
X74270Y1338270D02*
X88370Y1338270D01*
X74270Y1338270D02*
X74270Y1356370D01*
X88370Y1356370D01*
X88370Y1338270D01*
X88370Y1345805D02*
X74270Y1345805D01*
X74270Y1353340D02*
X88370Y1353340D01*
X88370Y1224270D02*
X74270Y1224270D01*
X74270Y1242370D01*
X88370Y1242370D01*
X88370Y1224270D01*
X88370Y1231805D02*
X74270Y1231805D01*
X74270Y1239340D02*
X88370Y1239340D01*
D27*
X20320Y1290320D03*
X66040Y1290320D03*
D28*
X603610Y1362560D03*
X603610Y1375560D03*
X585110Y1369060D03*
D11*
X602860Y1394460D03*
X585860Y1394460D03*
X602860Y1343660D03*
X585860Y1343660D03*
D29*
X462026Y1379160D03*
X462026Y1387160D03*
X462026Y1395160D03*
X462026Y1403160D03*
X462026Y1411160D03*
X462026Y1419160D03*
X462026Y1427160D03*
X462026Y1435160D03*
D30*
X447100Y1450086D03*
X439100Y1450086D03*
X431100Y1450086D03*
X423100Y1450086D03*
X415100Y1450086D03*
X407100Y1450086D03*
X399100Y1450086D03*
X391100Y1450086D03*
D29*
X376174Y1435160D03*
X376174Y1427160D03*
X376174Y1419160D03*
X376174Y1411160D03*
X376174Y1403160D03*
X376174Y1395160D03*
X376174Y1387160D03*
X376174Y1379160D03*
D30*
X391100Y1364234D03*
X399100Y1364234D03*
X407100Y1364234D03*
X415100Y1364234D03*
X423100Y1364234D03*
X431100Y1364234D03*
X439100Y1364234D03*
X447100Y1364234D03*
D31*
X190199Y1391260D03*
X190199Y1381760D03*
X190199Y1372260D03*
X216201Y1372260D03*
X216201Y1391260D03*
D11*
X211700Y1407160D03*
X194700Y1407160D03*
X118500Y1534160D03*
X135500Y1534160D03*
D24*
X294400Y1534160D03*
X264400Y1534160D03*
D11*
X287900Y1515110D03*
X270900Y1515110D03*
X131200Y1661160D03*
X148200Y1661160D03*
X287900Y1553210D03*
X270900Y1553210D03*
D24*
X294400Y1572260D03*
X264400Y1572260D03*
D32*
X671750Y1341060D03*
X671750Y1397060D03*
D33*
X635000Y1354060D03*
X635000Y1364060D03*
X635000Y1374060D03*
X635000Y1384060D03*
D28*
X549550Y1375560D03*
X549550Y1362560D03*
X568050Y1369060D03*
D11*
X550300Y1394460D03*
X567300Y1394460D03*
X550300Y1343660D03*
X567300Y1343660D03*
D34*
X63500Y1590160D03*
X63500Y1595160D03*
D35*
X63500Y1565410D03*
D36*
X63500Y1573160D03*
D34*
X63500Y1580160D03*
X63500Y1585160D03*
X63500Y1605160D03*
X63500Y1600160D03*
D35*
X63500Y1629910D03*
D36*
X63500Y1622160D03*
D34*
X63500Y1615160D03*
X63500Y1610160D03*
D37*
X49050Y1626560D03*
X49050Y1568760D03*
D38*
X99000Y1642110D03*
X99000Y1629410D03*
X99000Y1616710D03*
X99000Y1604010D03*
X99000Y1591310D03*
X99000Y1578610D03*
X99000Y1565910D03*
X99000Y1553210D03*
X155000Y1553210D03*
X155000Y1565910D03*
X155000Y1578610D03*
X155000Y1591310D03*
X155000Y1604010D03*
X155000Y1616710D03*
X155000Y1629410D03*
X155000Y1642110D03*
D11*
X9280Y1517650D03*
X26280Y1517650D03*
X110100Y1661160D03*
X93100Y1661160D03*
D39*
X78740Y1680210D03*
X22860Y1680210D03*
X78740Y1718310D03*
X22860Y1718310D03*
D40*
X87630Y1536954D03*
X87630Y1528826D03*
D41*
X42150Y1508760D03*
X72150Y1508760D03*
D42*
X304400Y1384610D03*
X279400Y1384610D03*
X254400Y1384610D03*
X304400Y1328110D03*
X279400Y1328110D03*
X254400Y1328110D03*
D43*
X294400Y1356360D03*
X264400Y1356360D03*
D44*
X187960Y1750060D03*
X213360Y1750060D03*
X238760Y1750060D03*
X264160Y1750060D03*
X289560Y1750060D03*
X314960Y1750060D03*
X340360Y1750060D03*
X365760Y1750060D03*
X391160Y1750060D03*
X416560Y1750060D03*
X457200Y1191260D03*
X431800Y1191260D03*
X406400Y1191260D03*
X381000Y1191260D03*
X355600Y1191260D03*
X330200Y1191260D03*
X304800Y1191260D03*
X279400Y1191260D03*
X508000Y1191260D03*
X533400Y1191260D03*
X558800Y1191260D03*
X584200Y1191260D03*
X609600Y1191260D03*
X635000Y1191260D03*
X635000Y1750060D03*
X609600Y1750060D03*
X584200Y1750060D03*
X558800Y1750060D03*
X533400Y1750060D03*
X508000Y1750060D03*
X482600Y1750060D03*
X457200Y1750060D03*
D10*
X1075690Y1390260D03*
X1075690Y1373260D03*
D11*
X1007990Y1592580D03*
X990990Y1592580D03*
X1295790Y1541780D03*
X1312790Y1541780D03*
X1007990Y1477010D03*
X990990Y1477010D03*
D10*
X1075690Y1444160D03*
X1075690Y1427160D03*
D12*
X937290Y1338580D03*
X909290Y1338580D03*
D11*
X813190Y1465580D03*
X830190Y1465580D03*
D13*
X935990Y1286380D03*
X935990Y1238380D03*
D10*
X758190Y1480430D03*
X758190Y1463430D03*
D14*
X773590Y1482700D03*
X773590Y1463700D03*
X794590Y1473200D03*
D11*
X990990Y1497330D03*
X1007990Y1497330D03*
X746370Y1499870D03*
X729370Y1499870D03*
D15*
X826490Y1397153D03*
X826490Y1419860D03*
X826490Y1442745D03*
D16*
X767080Y1419860D03*
D11*
X861940Y1376680D03*
X844940Y1376680D03*
X844940Y1402080D03*
X861940Y1402080D03*
D17*
X859790Y1229360D03*
X1380490Y1280160D03*
X1380490Y1559560D03*
X872490Y1711960D03*
D18*
X1380490Y1318260D03*
X834390Y1724660D03*
D11*
X813190Y1480820D03*
X830190Y1480820D03*
D12*
X840770Y1508760D03*
X812770Y1508760D03*
D19*
X1060450Y1695460D03*
X1009650Y1695460D03*
X958850Y1695460D03*
X1085850Y1728460D03*
X1035050Y1728460D03*
X984250Y1728460D03*
X933450Y1728460D03*
X908050Y1728460D03*
X933450Y1695460D03*
X958850Y1728460D03*
X984250Y1695460D03*
X1009650Y1728460D03*
X1035050Y1695460D03*
X1060450Y1728460D03*
X1085850Y1695460D03*
X908050Y1695460D03*
X1111250Y1728460D03*
X1136650Y1728460D03*
X1111250Y1695460D03*
X1136650Y1695460D03*
X1024890Y1245860D03*
X1075690Y1245860D03*
X1126490Y1245860D03*
X999490Y1212860D03*
X1050290Y1212860D03*
X1101090Y1212860D03*
X1151890Y1212860D03*
X1177290Y1212860D03*
X1151890Y1245860D03*
X1126490Y1212860D03*
X1101090Y1245860D03*
X1075690Y1212860D03*
X1050290Y1245860D03*
X1024890Y1212860D03*
X999490Y1245860D03*
X1177290Y1245860D03*
D20*
X1208115Y1415480D02*
X1222665Y1415480D01*
X1222665Y1427480D02*
X1208115Y1427480D01*
X1208115Y1439480D02*
X1222665Y1439480D01*
D21*
X1215415Y1427455D03*
D22*
X1367790Y1496060D03*
X1367790Y1470660D03*
D23*
X1393190Y1483360D03*
X1342390Y1483360D03*
X1342390Y1457960D03*
X1393190Y1457960D03*
X1393190Y1508760D03*
X1342390Y1508760D03*
D12*
X909290Y1427480D03*
X937290Y1427480D03*
D24*
X1289290Y1560830D03*
X1319290Y1560830D03*
X984490Y1611630D03*
X1014490Y1611630D03*
D25*
X880110Y1266280D03*
X880110Y1309280D03*
D19*
X1202690Y1728460D03*
X1253490Y1728460D03*
X1304290Y1728460D03*
X1177290Y1695460D03*
X1228090Y1695460D03*
X1278890Y1695460D03*
X1329690Y1695460D03*
X1355090Y1695460D03*
X1329690Y1728460D03*
X1304290Y1695460D03*
X1278890Y1728460D03*
X1253490Y1695460D03*
X1228090Y1728460D03*
X1202690Y1695460D03*
X1177290Y1728460D03*
X1355090Y1728460D03*
X1329690Y1212860D03*
X1278890Y1212860D03*
X1228090Y1212860D03*
X1355090Y1245860D03*
X1304290Y1245860D03*
X1253490Y1245860D03*
X1228090Y1245860D03*
X1253490Y1212860D03*
X1278890Y1245860D03*
X1304290Y1212860D03*
X1329690Y1245860D03*
X1355090Y1212860D03*
D26*
X747460Y1338270D02*
X733360Y1338270D01*
X733360Y1356370D01*
X747460Y1356370D01*
X747460Y1338270D01*
X747460Y1345805D02*
X733360Y1345805D01*
X733360Y1353340D02*
X747460Y1353340D01*
X747460Y1224270D02*
X733360Y1224270D01*
X733360Y1242370D01*
X747460Y1242370D01*
X747460Y1224270D01*
X747460Y1231805D02*
X733360Y1231805D01*
X733360Y1239340D02*
X747460Y1239340D01*
X794360Y1338270D02*
X808460Y1338270D01*
X794360Y1338270D02*
X794360Y1356370D01*
X808460Y1356370D01*
X808460Y1338270D01*
X808460Y1345805D02*
X794360Y1345805D01*
X794360Y1353340D02*
X808460Y1353340D01*
X808460Y1224270D02*
X794360Y1224270D01*
X794360Y1242370D01*
X808460Y1242370D01*
X808460Y1224270D01*
X808460Y1231805D02*
X794360Y1231805D01*
X794360Y1239340D02*
X808460Y1239340D01*
D27*
X740410Y1290320D03*
X786130Y1290320D03*
D28*
X1323700Y1362560D03*
X1323700Y1375560D03*
X1305200Y1369060D03*
D11*
X1322950Y1394460D03*
X1305950Y1394460D03*
X1322950Y1343660D03*
X1305950Y1343660D03*
D29*
X1182116Y1379160D03*
X1182116Y1387160D03*
X1182116Y1395160D03*
X1182116Y1403160D03*
X1182116Y1411160D03*
X1182116Y1419160D03*
X1182116Y1427160D03*
X1182116Y1435160D03*
D30*
X1167190Y1450086D03*
X1159190Y1450086D03*
X1151190Y1450086D03*
X1143190Y1450086D03*
X1135190Y1450086D03*
X1127190Y1450086D03*
X1119190Y1450086D03*
X1111190Y1450086D03*
D29*
X1096264Y1435160D03*
X1096264Y1427160D03*
X1096264Y1419160D03*
X1096264Y1411160D03*
X1096264Y1403160D03*
X1096264Y1395160D03*
X1096264Y1387160D03*
X1096264Y1379160D03*
D30*
X1111190Y1364234D03*
X1119190Y1364234D03*
X1127190Y1364234D03*
X1135190Y1364234D03*
X1143190Y1364234D03*
X1151190Y1364234D03*
X1159190Y1364234D03*
X1167190Y1364234D03*
D31*
X910289Y1391260D03*
X910289Y1381760D03*
X910289Y1372260D03*
X936291Y1372260D03*
X936291Y1391260D03*
D11*
X931790Y1407160D03*
X914790Y1407160D03*
X838590Y1534160D03*
X855590Y1534160D03*
D24*
X1014490Y1534160D03*
X984490Y1534160D03*
D11*
X1007990Y1515110D03*
X990990Y1515110D03*
X851290Y1661160D03*
X868290Y1661160D03*
X1007990Y1553210D03*
X990990Y1553210D03*
D24*
X1014490Y1572260D03*
X984490Y1572260D03*
D32*
X1391840Y1341060D03*
X1391840Y1397060D03*
D33*
X1355090Y1354060D03*
X1355090Y1364060D03*
X1355090Y1374060D03*
X1355090Y1384060D03*
D28*
X1269640Y1375560D03*
X1269640Y1362560D03*
X1288140Y1369060D03*
D11*
X1270390Y1394460D03*
X1287390Y1394460D03*
X1270390Y1343660D03*
X1287390Y1343660D03*
D34*
X783590Y1590160D03*
X783590Y1595160D03*
D35*
X783590Y1565410D03*
D36*
X783590Y1573160D03*
D34*
X783590Y1580160D03*
X783590Y1585160D03*
X783590Y1605160D03*
X783590Y1600160D03*
D35*
X783590Y1629910D03*
D36*
X783590Y1622160D03*
D34*
X783590Y1615160D03*
X783590Y1610160D03*
D37*
X769140Y1626560D03*
X769140Y1568760D03*
D38*
X819090Y1642110D03*
X819090Y1629410D03*
X819090Y1616710D03*
X819090Y1604010D03*
X819090Y1591310D03*
X819090Y1578610D03*
X819090Y1565910D03*
X819090Y1553210D03*
X875090Y1553210D03*
X875090Y1565910D03*
X875090Y1578610D03*
X875090Y1591310D03*
X875090Y1604010D03*
X875090Y1616710D03*
X875090Y1629410D03*
X875090Y1642110D03*
D11*
X729370Y1517650D03*
X746370Y1517650D03*
X830190Y1661160D03*
X813190Y1661160D03*
D39*
X798830Y1680210D03*
X742950Y1680210D03*
X798830Y1718310D03*
X742950Y1718310D03*
D40*
X807720Y1536954D03*
X807720Y1528826D03*
D41*
X762240Y1508760D03*
X792240Y1508760D03*
D42*
X1024490Y1384610D03*
X999490Y1384610D03*
X974490Y1384610D03*
X1024490Y1328110D03*
X999490Y1328110D03*
X974490Y1328110D03*
D43*
X1014490Y1356360D03*
X984490Y1356360D03*
D44*
X908050Y1750060D03*
X933450Y1750060D03*
X958850Y1750060D03*
X984250Y1750060D03*
X1009650Y1750060D03*
X1035050Y1750060D03*
X1060450Y1750060D03*
X1085850Y1750060D03*
X1111250Y1750060D03*
X1136650Y1750060D03*
X1177290Y1191260D03*
X1151890Y1191260D03*
X1126490Y1191260D03*
X1101090Y1191260D03*
X1075690Y1191260D03*
X1050290Y1191260D03*
X1024890Y1191260D03*
X999490Y1191260D03*
X1228090Y1191260D03*
X1253490Y1191260D03*
X1278890Y1191260D03*
X1304290Y1191260D03*
X1329690Y1191260D03*
X1355090Y1191260D03*
X1355090Y1750060D03*
X1329690Y1750060D03*
X1304290Y1750060D03*
X1278890Y1750060D03*
X1253490Y1750060D03*
X1228090Y1750060D03*
X1202690Y1750060D03*
X1177290Y1750060D03*
D10*
X1795780Y1390260D03*
X1795780Y1373260D03*
D11*
X1728080Y1592580D03*
X1711080Y1592580D03*
X2015880Y1541780D03*
X2032880Y1541780D03*
X1728080Y1477010D03*
X1711080Y1477010D03*
D10*
X1795780Y1444160D03*
X1795780Y1427160D03*
D12*
X1657380Y1338580D03*
X1629380Y1338580D03*
D11*
X1533280Y1465580D03*
X1550280Y1465580D03*
D13*
X1656080Y1286380D03*
X1656080Y1238380D03*
D10*
X1478280Y1480430D03*
X1478280Y1463430D03*
D14*
X1493680Y1482700D03*
X1493680Y1463700D03*
X1514680Y1473200D03*
D11*
X1711080Y1497330D03*
X1728080Y1497330D03*
X1466460Y1499870D03*
X1449460Y1499870D03*
D15*
X1546580Y1397153D03*
X1546580Y1419860D03*
X1546580Y1442745D03*
D16*
X1487170Y1419860D03*
D11*
X1582030Y1376680D03*
X1565030Y1376680D03*
X1565030Y1402080D03*
X1582030Y1402080D03*
D17*
X1579880Y1229360D03*
X2100580Y1280160D03*
X2100580Y1559560D03*
X1592580Y1711960D03*
D18*
X2100580Y1318260D03*
X1554480Y1724660D03*
D11*
X1533280Y1480820D03*
X1550280Y1480820D03*
D12*
X1560860Y1508760D03*
X1532860Y1508760D03*
D19*
X1780540Y1695460D03*
X1729740Y1695460D03*
X1678940Y1695460D03*
X1805940Y1728460D03*
X1755140Y1728460D03*
X1704340Y1728460D03*
X1653540Y1728460D03*
X1628140Y1728460D03*
X1653540Y1695460D03*
X1678940Y1728460D03*
X1704340Y1695460D03*
X1729740Y1728460D03*
X1755140Y1695460D03*
X1780540Y1728460D03*
X1805940Y1695460D03*
X1628140Y1695460D03*
X1831340Y1728460D03*
X1856740Y1728460D03*
X1831340Y1695460D03*
X1856740Y1695460D03*
X1744980Y1245860D03*
X1795780Y1245860D03*
X1846580Y1245860D03*
X1719580Y1212860D03*
X1770380Y1212860D03*
X1821180Y1212860D03*
X1871980Y1212860D03*
X1897380Y1212860D03*
X1871980Y1245860D03*
X1846580Y1212860D03*
X1821180Y1245860D03*
X1795780Y1212860D03*
X1770380Y1245860D03*
X1744980Y1212860D03*
X1719580Y1245860D03*
X1897380Y1245860D03*
D20*
X1928205Y1415480D02*
X1942755Y1415480D01*
X1942755Y1427480D02*
X1928205Y1427480D01*
X1928205Y1439480D02*
X1942755Y1439480D01*
D21*
X1935505Y1427455D03*
D22*
X2087880Y1496060D03*
X2087880Y1470660D03*
D23*
X2113280Y1483360D03*
X2062480Y1483360D03*
X2062480Y1457960D03*
X2113280Y1457960D03*
X2113280Y1508760D03*
X2062480Y1508760D03*
D12*
X1629380Y1427480D03*
X1657380Y1427480D03*
D24*
X2009380Y1560830D03*
X2039380Y1560830D03*
X1704580Y1611630D03*
X1734580Y1611630D03*
D25*
X1600200Y1266280D03*
X1600200Y1309280D03*
D19*
X1922780Y1728460D03*
X1973580Y1728460D03*
X2024380Y1728460D03*
X1897380Y1695460D03*
X1948180Y1695460D03*
X1998980Y1695460D03*
X2049780Y1695460D03*
X2075180Y1695460D03*
X2049780Y1728460D03*
X2024380Y1695460D03*
X1998980Y1728460D03*
X1973580Y1695460D03*
X1948180Y1728460D03*
X1922780Y1695460D03*
X1897380Y1728460D03*
X2075180Y1728460D03*
X2049780Y1212860D03*
X1998980Y1212860D03*
X1948180Y1212860D03*
X2075180Y1245860D03*
X2024380Y1245860D03*
X1973580Y1245860D03*
X1948180Y1245860D03*
X1973580Y1212860D03*
X1998980Y1245860D03*
X2024380Y1212860D03*
X2049780Y1245860D03*
X2075180Y1212860D03*
D26*
X1467550Y1338270D02*
X1453450Y1338270D01*
X1453450Y1356370D01*
X1467550Y1356370D01*
X1467550Y1338270D01*
X1467550Y1345805D02*
X1453450Y1345805D01*
X1453450Y1353340D02*
X1467550Y1353340D01*
X1467550Y1224270D02*
X1453450Y1224270D01*
X1453450Y1242370D01*
X1467550Y1242370D01*
X1467550Y1224270D01*
X1467550Y1231805D02*
X1453450Y1231805D01*
X1453450Y1239340D02*
X1467550Y1239340D01*
X1514450Y1338270D02*
X1528550Y1338270D01*
X1514450Y1338270D02*
X1514450Y1356370D01*
X1528550Y1356370D01*
X1528550Y1338270D01*
X1528550Y1345805D02*
X1514450Y1345805D01*
X1514450Y1353340D02*
X1528550Y1353340D01*
X1528550Y1224270D02*
X1514450Y1224270D01*
X1514450Y1242370D01*
X1528550Y1242370D01*
X1528550Y1224270D01*
X1528550Y1231805D02*
X1514450Y1231805D01*
X1514450Y1239340D02*
X1528550Y1239340D01*
D27*
X1460500Y1290320D03*
X1506220Y1290320D03*
D28*
X2043790Y1362560D03*
X2043790Y1375560D03*
X2025290Y1369060D03*
D11*
X2043040Y1394460D03*
X2026040Y1394460D03*
X2043040Y1343660D03*
X2026040Y1343660D03*
D29*
X1902206Y1379160D03*
X1902206Y1387160D03*
X1902206Y1395160D03*
X1902206Y1403160D03*
X1902206Y1411160D03*
X1902206Y1419160D03*
X1902206Y1427160D03*
X1902206Y1435160D03*
D30*
X1887280Y1450086D03*
X1879280Y1450086D03*
X1871280Y1450086D03*
X1863280Y1450086D03*
X1855280Y1450086D03*
X1847280Y1450086D03*
X1839280Y1450086D03*
X1831280Y1450086D03*
D29*
X1816354Y1435160D03*
X1816354Y1427160D03*
X1816354Y1419160D03*
X1816354Y1411160D03*
X1816354Y1403160D03*
X1816354Y1395160D03*
X1816354Y1387160D03*
X1816354Y1379160D03*
D30*
X1831280Y1364234D03*
X1839280Y1364234D03*
X1847280Y1364234D03*
X1855280Y1364234D03*
X1863280Y1364234D03*
X1871280Y1364234D03*
X1879280Y1364234D03*
X1887280Y1364234D03*
D31*
X1630379Y1391260D03*
X1630379Y1381760D03*
X1630379Y1372260D03*
X1656381Y1372260D03*
X1656381Y1391260D03*
D11*
X1651880Y1407160D03*
X1634880Y1407160D03*
X1558680Y1534160D03*
X1575680Y1534160D03*
D24*
X1734580Y1534160D03*
X1704580Y1534160D03*
D11*
X1728080Y1515110D03*
X1711080Y1515110D03*
X1571380Y1661160D03*
X1588380Y1661160D03*
X1728080Y1553210D03*
X1711080Y1553210D03*
D24*
X1734580Y1572260D03*
X1704580Y1572260D03*
D32*
X2111930Y1341060D03*
X2111930Y1397060D03*
D33*
X2075180Y1354060D03*
X2075180Y1364060D03*
X2075180Y1374060D03*
X2075180Y1384060D03*
D28*
X1989730Y1375560D03*
X1989730Y1362560D03*
X2008230Y1369060D03*
D11*
X1990480Y1394460D03*
X2007480Y1394460D03*
X1990480Y1343660D03*
X2007480Y1343660D03*
D34*
X1503680Y1590160D03*
X1503680Y1595160D03*
D35*
X1503680Y1565410D03*
D36*
X1503680Y1573160D03*
D34*
X1503680Y1580160D03*
X1503680Y1585160D03*
X1503680Y1605160D03*
X1503680Y1600160D03*
D35*
X1503680Y1629910D03*
D36*
X1503680Y1622160D03*
D34*
X1503680Y1615160D03*
X1503680Y1610160D03*
D37*
X1489230Y1626560D03*
X1489230Y1568760D03*
D38*
X1539180Y1642110D03*
X1539180Y1629410D03*
X1539180Y1616710D03*
X1539180Y1604010D03*
X1539180Y1591310D03*
X1539180Y1578610D03*
X1539180Y1565910D03*
X1539180Y1553210D03*
X1595180Y1553210D03*
X1595180Y1565910D03*
X1595180Y1578610D03*
X1595180Y1591310D03*
X1595180Y1604010D03*
X1595180Y1616710D03*
X1595180Y1629410D03*
X1595180Y1642110D03*
D11*
X1449460Y1517650D03*
X1466460Y1517650D03*
X1550280Y1661160D03*
X1533280Y1661160D03*
D39*
X1518920Y1680210D03*
X1463040Y1680210D03*
X1518920Y1718310D03*
X1463040Y1718310D03*
D40*
X1527810Y1536954D03*
X1527810Y1528826D03*
D41*
X1482330Y1508760D03*
X1512330Y1508760D03*
D42*
X1744580Y1384610D03*
X1719580Y1384610D03*
X1694580Y1384610D03*
X1744580Y1328110D03*
X1719580Y1328110D03*
X1694580Y1328110D03*
D43*
X1734580Y1356360D03*
X1704580Y1356360D03*
D44*
X1628140Y1750060D03*
X1653540Y1750060D03*
X1678940Y1750060D03*
X1704340Y1750060D03*
X1729740Y1750060D03*
X1755140Y1750060D03*
X1780540Y1750060D03*
X1805940Y1750060D03*
X1831340Y1750060D03*
X1856740Y1750060D03*
X1897380Y1191260D03*
X1871980Y1191260D03*
X1846580Y1191260D03*
X1821180Y1191260D03*
X1795780Y1191260D03*
X1770380Y1191260D03*
X1744980Y1191260D03*
X1719580Y1191260D03*
X1948180Y1191260D03*
X1973580Y1191260D03*
X1998980Y1191260D03*
X2024380Y1191260D03*
X2049780Y1191260D03*
X2075180Y1191260D03*
X2075180Y1750060D03*
X2049780Y1750060D03*
X2024380Y1750060D03*
X1998980Y1750060D03*
X1973580Y1750060D03*
X1948180Y1750060D03*
X1922780Y1750060D03*
X1897380Y1750060D03*
D18*
X97790Y1783715D03*
X2028190Y1783715D03*
D45*
X88735Y-20955D02*
X88738Y-20733D01*
X88746Y-20511D01*
X88760Y-20289D01*
X88779Y-20067D01*
X88803Y-19847D01*
X88833Y-19626D01*
X88868Y-19407D01*
X88909Y-19188D01*
X88955Y-18971D01*
X89006Y-18755D01*
X89063Y-18540D01*
X89125Y-18326D01*
X89192Y-18115D01*
X89264Y-17904D01*
X89342Y-17696D01*
X89424Y-17490D01*
X89512Y-17286D01*
X89604Y-17083D01*
X89702Y-16884D01*
X89804Y-16687D01*
X89911Y-16492D01*
X90023Y-16300D01*
X90140Y-16111D01*
X90261Y-15924D01*
X90387Y-15741D01*
X90517Y-15561D01*
X90652Y-15384D01*
X90790Y-15211D01*
X90933Y-15041D01*
X91081Y-14874D01*
X91232Y-14711D01*
X91387Y-14552D01*
X91546Y-14397D01*
X91709Y-14246D01*
X91876Y-14098D01*
X92046Y-13955D01*
X92219Y-13817D01*
X92396Y-13682D01*
X92576Y-13552D01*
X92759Y-13426D01*
X92946Y-13305D01*
X93135Y-13188D01*
X93327Y-13076D01*
X93522Y-12969D01*
X93719Y-12867D01*
X93918Y-12769D01*
X94121Y-12677D01*
X94325Y-12589D01*
X94531Y-12507D01*
X94739Y-12429D01*
X94950Y-12357D01*
X95161Y-12290D01*
X95375Y-12228D01*
X95590Y-12171D01*
X95806Y-12120D01*
X96023Y-12074D01*
X96242Y-12033D01*
X96461Y-11998D01*
X96682Y-11968D01*
X96902Y-11944D01*
X97124Y-11925D01*
X97346Y-11911D01*
X97568Y-11903D01*
X97790Y-11900D01*
X98012Y-11903D01*
X98234Y-11911D01*
X98456Y-11925D01*
X98678Y-11944D01*
X98898Y-11968D01*
X99119Y-11998D01*
X99338Y-12033D01*
X99557Y-12074D01*
X99774Y-12120D01*
X99990Y-12171D01*
X100205Y-12228D01*
X100419Y-12290D01*
X100630Y-12357D01*
X100841Y-12429D01*
X101049Y-12507D01*
X101255Y-12589D01*
X101459Y-12677D01*
X101662Y-12769D01*
X101861Y-12867D01*
X102058Y-12969D01*
X102253Y-13076D01*
X102445Y-13188D01*
X102634Y-13305D01*
X102821Y-13426D01*
X103004Y-13552D01*
X103184Y-13682D01*
X103361Y-13817D01*
X103534Y-13955D01*
X103704Y-14098D01*
X103871Y-14246D01*
X104034Y-14397D01*
X104193Y-14552D01*
X104348Y-14711D01*
X104499Y-14874D01*
X104647Y-15041D01*
X104790Y-15211D01*
X104928Y-15384D01*
X105063Y-15561D01*
X105193Y-15741D01*
X105319Y-15924D01*
X105440Y-16111D01*
X105557Y-16300D01*
X105669Y-16492D01*
X105776Y-16687D01*
X105878Y-16884D01*
X105976Y-17083D01*
X106068Y-17286D01*
X106156Y-17490D01*
X106238Y-17696D01*
X106316Y-17904D01*
X106388Y-18115D01*
X106455Y-18326D01*
X106517Y-18540D01*
X106574Y-18755D01*
X106625Y-18971D01*
X106671Y-19188D01*
X106712Y-19407D01*
X106747Y-19626D01*
X106777Y-19847D01*
X106801Y-20067D01*
X106820Y-20289D01*
X106834Y-20511D01*
X106842Y-20733D01*
X106845Y-20955D01*
X106842Y-21177D01*
X106834Y-21399D01*
X106820Y-21621D01*
X106801Y-21843D01*
X106777Y-22063D01*
X106747Y-22284D01*
X106712Y-22503D01*
X106671Y-22722D01*
X106625Y-22939D01*
X106574Y-23155D01*
X106517Y-23370D01*
X106455Y-23584D01*
X106388Y-23795D01*
X106316Y-24006D01*
X106238Y-24214D01*
X106156Y-24420D01*
X106068Y-24624D01*
X105976Y-24827D01*
X105878Y-25026D01*
X105776Y-25223D01*
X105669Y-25418D01*
X105557Y-25610D01*
X105440Y-25799D01*
X105319Y-25986D01*
X105193Y-26169D01*
X105063Y-26349D01*
X104928Y-26526D01*
X104790Y-26699D01*
X104647Y-26869D01*
X104499Y-27036D01*
X104348Y-27199D01*
X104193Y-27358D01*
X104034Y-27513D01*
X103871Y-27664D01*
X103704Y-27812D01*
X103534Y-27955D01*
X103361Y-28093D01*
X103184Y-28228D01*
X103004Y-28358D01*
X102821Y-28484D01*
X102634Y-28605D01*
X102445Y-28722D01*
X102253Y-28834D01*
X102058Y-28941D01*
X101861Y-29043D01*
X101662Y-29141D01*
X101459Y-29233D01*
X101255Y-29321D01*
X101049Y-29403D01*
X100841Y-29481D01*
X100630Y-29553D01*
X100419Y-29620D01*
X100205Y-29682D01*
X99990Y-29739D01*
X99774Y-29790D01*
X99557Y-29836D01*
X99338Y-29877D01*
X99119Y-29912D01*
X98898Y-29942D01*
X98678Y-29966D01*
X98456Y-29985D01*
X98234Y-29999D01*
X98012Y-30007D01*
X97790Y-30010D01*
X97568Y-30007D01*
X97346Y-29999D01*
X97124Y-29985D01*
X96902Y-29966D01*
X96682Y-29942D01*
X96461Y-29912D01*
X96242Y-29877D01*
X96023Y-29836D01*
X95806Y-29790D01*
X95590Y-29739D01*
X95375Y-29682D01*
X95161Y-29620D01*
X94950Y-29553D01*
X94739Y-29481D01*
X94531Y-29403D01*
X94325Y-29321D01*
X94121Y-29233D01*
X93918Y-29141D01*
X93719Y-29043D01*
X93522Y-28941D01*
X93327Y-28834D01*
X93135Y-28722D01*
X92946Y-28605D01*
X92759Y-28484D01*
X92576Y-28358D01*
X92396Y-28228D01*
X92219Y-28093D01*
X92046Y-27955D01*
X91876Y-27812D01*
X91709Y-27664D01*
X91546Y-27513D01*
X91387Y-27358D01*
X91232Y-27199D01*
X91081Y-27036D01*
X90933Y-26869D01*
X90790Y-26699D01*
X90652Y-26526D01*
X90517Y-26349D01*
X90387Y-26169D01*
X90261Y-25986D01*
X90140Y-25799D01*
X90023Y-25610D01*
X89911Y-25418D01*
X89804Y-25223D01*
X89702Y-25026D01*
X89604Y-24827D01*
X89512Y-24624D01*
X89424Y-24420D01*
X89342Y-24214D01*
X89264Y-24006D01*
X89192Y-23795D01*
X89125Y-23584D01*
X89063Y-23370D01*
X89006Y-23155D01*
X88955Y-22939D01*
X88909Y-22722D01*
X88868Y-22503D01*
X88833Y-22284D01*
X88803Y-22063D01*
X88779Y-21843D01*
X88760Y-21621D01*
X88746Y-21399D01*
X88738Y-21177D01*
X88735Y-20955D01*
D46*
X97790Y-20955D03*
M02*
