G75*
%MOIN*%
%OFA0B0*%
%FSLAX25Y25*%
%IPPOS*%
%LPD*%
%AMOC8*
5,1,8,0,0,1.08239X$1,22.5*
%
%ADD10C,0.13800*%
%ADD11C,0.07887*%
%ADD12C,0.05800*%
%ADD13C,0.08800*%
%ADD14C,0.03359*%
%ADD15R,0.03300X0.05800*%
%ADD16C,0.00500*%
%ADD17R,0.12611X0.04343*%
%ADD18C,0.04737*%
%ADD19C,0.05000*%
%ADD20C,0.06706*%
D10*
X0158933Y0118933D03*
X0363933Y0138933D03*
X0440933Y0118933D03*
X0645933Y0138933D03*
X0722933Y0118933D03*
X0927933Y0138933D03*
X1004933Y0118933D03*
X1209933Y0138933D03*
X1209933Y0248933D03*
X1209933Y0350933D03*
X1209933Y0460933D03*
X1209933Y0562933D03*
X1209933Y0672933D03*
X1009933Y0732933D03*
X0927933Y0672933D03*
X0927933Y0562933D03*
X1004933Y0542933D03*
X1009933Y0520933D03*
X0927933Y0460933D03*
X0927933Y0350933D03*
X1004933Y0330933D03*
X1009933Y0308933D03*
X0927933Y0248933D03*
X0727933Y0308933D03*
X0722933Y0330933D03*
X0645933Y0350933D03*
X0645933Y0248933D03*
X0445933Y0308933D03*
X0440933Y0330933D03*
X0363933Y0350933D03*
X0363933Y0248933D03*
X0163933Y0308933D03*
X0158933Y0330933D03*
X0363933Y0460933D03*
X0445933Y0520933D03*
X0440933Y0542933D03*
X0363933Y0562933D03*
X0363933Y0672933D03*
X0445933Y0732933D03*
X0645933Y0672933D03*
X0727933Y0732933D03*
X0645933Y0562933D03*
X0722933Y0542933D03*
X0727933Y0520933D03*
X0645933Y0460933D03*
X0163933Y0520933D03*
X0158933Y0542933D03*
X0163933Y0732933D03*
D11*
X0358933Y0647933D03*
X0358933Y0637933D03*
X0640933Y0637933D03*
X0640933Y0647933D03*
X0922933Y0647933D03*
X0922933Y0637933D03*
X1204933Y0637933D03*
X1204933Y0647933D03*
X1204933Y0435933D03*
X1204933Y0425933D03*
X0922933Y0425933D03*
X0922933Y0435933D03*
X0640933Y0435933D03*
X0640933Y0425933D03*
X0358933Y0425933D03*
X0358933Y0435933D03*
X0358933Y0223933D03*
X0358933Y0213933D03*
X0640933Y0213933D03*
X0640933Y0223933D03*
X0922933Y0223933D03*
X0922933Y0213933D03*
X1204933Y0213933D03*
X1204933Y0223933D03*
D12*
X1199933Y0218933D03*
X1199933Y0208933D03*
X1209933Y0208933D03*
X1209933Y0218933D03*
X1209933Y0228933D03*
X1199933Y0228933D03*
X0927933Y0228933D03*
X0927933Y0218933D03*
X0927933Y0208933D03*
X0917933Y0208933D03*
X0917933Y0218933D03*
X0917933Y0228933D03*
X0645933Y0228933D03*
X0645933Y0218933D03*
X0645933Y0208933D03*
X0635933Y0208933D03*
X0635933Y0218933D03*
X0635933Y0228933D03*
X0363933Y0228933D03*
X0363933Y0218933D03*
X0363933Y0208933D03*
X0353933Y0208933D03*
X0353933Y0218933D03*
X0353933Y0228933D03*
X0353933Y0420933D03*
X0353933Y0430933D03*
X0363933Y0430933D03*
X0363933Y0420933D03*
X0363933Y0440933D03*
X0353933Y0440933D03*
X0635933Y0440933D03*
X0645933Y0440933D03*
X0645933Y0430933D03*
X0645933Y0420933D03*
X0635933Y0420933D03*
X0635933Y0430933D03*
X0917933Y0430933D03*
X0917933Y0420933D03*
X0927933Y0420933D03*
X0927933Y0430933D03*
X0927933Y0440933D03*
X0917933Y0440933D03*
X1199933Y0440933D03*
X1209933Y0440933D03*
X1209933Y0430933D03*
X1199933Y0430933D03*
X1199933Y0420933D03*
X1209933Y0420933D03*
X1209933Y0632933D03*
X1199933Y0632933D03*
X1199933Y0642933D03*
X1209933Y0642933D03*
X1209933Y0652933D03*
X1199933Y0652933D03*
X0927933Y0652933D03*
X0927933Y0642933D03*
X0927933Y0632933D03*
X0917933Y0632933D03*
X0917933Y0642933D03*
X0917933Y0652933D03*
X0645933Y0652933D03*
X0645933Y0642933D03*
X0645933Y0632933D03*
X0635933Y0632933D03*
X0635933Y0642933D03*
X0635933Y0652933D03*
X0363933Y0652933D03*
X0363933Y0642933D03*
X0363933Y0632933D03*
X0353933Y0632933D03*
X0353933Y0642933D03*
X0353933Y0652933D03*
D13*
X0393933Y0566933D03*
X0411933Y0566933D03*
X0675933Y0566933D03*
X0693933Y0566933D03*
X0957933Y0566933D03*
X0975933Y0566933D03*
X0975933Y0354933D03*
X0957933Y0354933D03*
X0693933Y0354933D03*
X0675933Y0354933D03*
X0411933Y0354933D03*
X0393933Y0354933D03*
X0129933Y0354933D03*
X0111933Y0354933D03*
X0111933Y0566933D03*
X0129933Y0566933D03*
X0129933Y0142933D03*
X0111933Y0142933D03*
X0393933Y0142933D03*
X0411933Y0142933D03*
X0675933Y0142933D03*
X0693933Y0142933D03*
X0957933Y0142933D03*
X0975933Y0142933D03*
D14*
X0969244Y0252555D03*
X0969244Y0275311D03*
X0687244Y0275311D03*
X0687244Y0252555D03*
X0405244Y0252555D03*
X0405244Y0275311D03*
X0123244Y0275311D03*
X0123244Y0252555D03*
X0123244Y0464555D03*
X0123244Y0487311D03*
X0405244Y0487311D03*
X0405244Y0464555D03*
X0687244Y0464555D03*
X0687244Y0487311D03*
X0969244Y0487311D03*
X0969244Y0464555D03*
X0969244Y0676555D03*
X0969244Y0699311D03*
X0687244Y0699311D03*
X0687244Y0676555D03*
X0405244Y0676555D03*
X0405244Y0699311D03*
X0123244Y0699311D03*
X0123244Y0676555D03*
D15*
X0326933Y0572933D03*
X0330933Y0572933D03*
X0341933Y0572933D03*
X0345933Y0572933D03*
X0608933Y0572933D03*
X0612933Y0572933D03*
X0623933Y0572933D03*
X0627933Y0572933D03*
X0890933Y0572933D03*
X0894933Y0572933D03*
X0905933Y0572933D03*
X0909933Y0572933D03*
X1172933Y0572933D03*
X1176933Y0572933D03*
X1187933Y0572933D03*
X1191933Y0572933D03*
X1191933Y0360933D03*
X1187933Y0360933D03*
X1176933Y0360933D03*
X1172933Y0360933D03*
X0909933Y0360933D03*
X0905933Y0360933D03*
X0894933Y0360933D03*
X0890933Y0360933D03*
X0627933Y0360933D03*
X0623933Y0360933D03*
X0612933Y0360933D03*
X0608933Y0360933D03*
X0345933Y0360933D03*
X0341933Y0360933D03*
X0330933Y0360933D03*
X0326933Y0360933D03*
X0326933Y0148933D03*
X0330933Y0148933D03*
X0341933Y0148933D03*
X0345933Y0148933D03*
X0608933Y0148933D03*
X0612933Y0148933D03*
X0623933Y0148933D03*
X0627933Y0148933D03*
X0890933Y0148933D03*
X0894933Y0148933D03*
X0905933Y0148933D03*
X0909933Y0148933D03*
X1172933Y0148933D03*
X1176933Y0148933D03*
X1187933Y0148933D03*
X1191933Y0148933D03*
D16*
X1190683Y0148814D02*
X1189183Y0148814D01*
X1189183Y0148433D02*
X1190683Y0148433D01*
X1190683Y0149433D01*
X1189183Y0149433D01*
X1189183Y0148433D01*
X1189183Y0149312D02*
X1190683Y0149312D01*
X1175683Y0149312D02*
X1174183Y0149312D01*
X1174183Y0149433D02*
X1174183Y0148433D01*
X1175683Y0148433D01*
X1175683Y0149433D01*
X1174183Y0149433D01*
X1174183Y0148814D02*
X1175683Y0148814D01*
X0908683Y0148814D02*
X0907183Y0148814D01*
X0907183Y0148433D02*
X0908683Y0148433D01*
X0908683Y0149433D01*
X0907183Y0149433D01*
X0907183Y0148433D01*
X0907183Y0149312D02*
X0908683Y0149312D01*
X0893683Y0149312D02*
X0892183Y0149312D01*
X0892183Y0149433D02*
X0892183Y0148433D01*
X0893683Y0148433D01*
X0893683Y0149433D01*
X0892183Y0149433D01*
X0892183Y0148814D02*
X0893683Y0148814D01*
X0626683Y0148814D02*
X0625183Y0148814D01*
X0625183Y0148433D02*
X0626683Y0148433D01*
X0626683Y0149433D01*
X0625183Y0149433D01*
X0625183Y0148433D01*
X0625183Y0149312D02*
X0626683Y0149312D01*
X0611683Y0149312D02*
X0610183Y0149312D01*
X0610183Y0149433D02*
X0610183Y0148433D01*
X0611683Y0148433D01*
X0611683Y0149433D01*
X0610183Y0149433D01*
X0610183Y0148814D02*
X0611683Y0148814D01*
X0344683Y0148814D02*
X0343183Y0148814D01*
X0343183Y0148433D02*
X0344683Y0148433D01*
X0344683Y0149433D01*
X0343183Y0149433D01*
X0343183Y0148433D01*
X0343183Y0149312D02*
X0344683Y0149312D01*
X0329683Y0149312D02*
X0328183Y0149312D01*
X0328183Y0149433D02*
X0328183Y0148433D01*
X0329683Y0148433D01*
X0329683Y0149433D01*
X0328183Y0149433D01*
X0328183Y0148814D02*
X0329683Y0148814D01*
X0329683Y0360433D02*
X0329683Y0361433D01*
X0328183Y0361433D01*
X0328183Y0360433D01*
X0329683Y0360433D01*
X0329683Y0360681D02*
X0328183Y0360681D01*
X0328183Y0361180D02*
X0329683Y0361180D01*
X0343183Y0361180D02*
X0344683Y0361180D01*
X0344683Y0361433D02*
X0344683Y0360433D01*
X0343183Y0360433D01*
X0343183Y0361433D01*
X0344683Y0361433D01*
X0344683Y0360681D02*
X0343183Y0360681D01*
X0610183Y0360681D02*
X0611683Y0360681D01*
X0611683Y0360433D02*
X0611683Y0361433D01*
X0610183Y0361433D01*
X0610183Y0360433D01*
X0611683Y0360433D01*
X0611683Y0361180D02*
X0610183Y0361180D01*
X0625183Y0361180D02*
X0626683Y0361180D01*
X0626683Y0361433D02*
X0626683Y0360433D01*
X0625183Y0360433D01*
X0625183Y0361433D01*
X0626683Y0361433D01*
X0626683Y0360681D02*
X0625183Y0360681D01*
X0892183Y0360681D02*
X0893683Y0360681D01*
X0893683Y0360433D02*
X0893683Y0361433D01*
X0892183Y0361433D01*
X0892183Y0360433D01*
X0893683Y0360433D01*
X0893683Y0361180D02*
X0892183Y0361180D01*
X0907183Y0361180D02*
X0908683Y0361180D01*
X0908683Y0361433D02*
X0908683Y0360433D01*
X0907183Y0360433D01*
X0907183Y0361433D01*
X0908683Y0361433D01*
X0908683Y0360681D02*
X0907183Y0360681D01*
X1174183Y0360681D02*
X1175683Y0360681D01*
X1175683Y0360433D02*
X1175683Y0361433D01*
X1174183Y0361433D01*
X1174183Y0360433D01*
X1175683Y0360433D01*
X1175683Y0361180D02*
X1174183Y0361180D01*
X1189183Y0361180D02*
X1190683Y0361180D01*
X1190683Y0361433D02*
X1190683Y0360433D01*
X1189183Y0360433D01*
X1189183Y0361433D01*
X1190683Y0361433D01*
X1190683Y0360681D02*
X1189183Y0360681D01*
X1189183Y0572433D02*
X1190683Y0572433D01*
X1190683Y0573433D01*
X1189183Y0573433D01*
X1189183Y0572433D01*
X1189183Y0572549D02*
X1190683Y0572549D01*
X1190683Y0573047D02*
X1189183Y0573047D01*
X1175683Y0573047D02*
X1174183Y0573047D01*
X1174183Y0573433D02*
X1174183Y0572433D01*
X1175683Y0572433D01*
X1175683Y0573433D01*
X1174183Y0573433D01*
X1174183Y0572549D02*
X1175683Y0572549D01*
X0908683Y0572549D02*
X0907183Y0572549D01*
X0907183Y0572433D02*
X0908683Y0572433D01*
X0908683Y0573433D01*
X0907183Y0573433D01*
X0907183Y0572433D01*
X0907183Y0573047D02*
X0908683Y0573047D01*
X0893683Y0573047D02*
X0892183Y0573047D01*
X0892183Y0573433D02*
X0892183Y0572433D01*
X0893683Y0572433D01*
X0893683Y0573433D01*
X0892183Y0573433D01*
X0892183Y0572549D02*
X0893683Y0572549D01*
X0626683Y0572549D02*
X0625183Y0572549D01*
X0625183Y0572433D02*
X0626683Y0572433D01*
X0626683Y0573433D01*
X0625183Y0573433D01*
X0625183Y0572433D01*
X0625183Y0573047D02*
X0626683Y0573047D01*
X0611683Y0573047D02*
X0610183Y0573047D01*
X0610183Y0573433D02*
X0610183Y0572433D01*
X0611683Y0572433D01*
X0611683Y0573433D01*
X0610183Y0573433D01*
X0610183Y0572549D02*
X0611683Y0572549D01*
X0344683Y0572549D02*
X0343183Y0572549D01*
X0343183Y0572433D02*
X0344683Y0572433D01*
X0344683Y0573433D01*
X0343183Y0573433D01*
X0343183Y0572433D01*
X0343183Y0573047D02*
X0344683Y0573047D01*
X0329683Y0573047D02*
X0328183Y0573047D01*
X0328183Y0573433D02*
X0328183Y0572433D01*
X0329683Y0572433D01*
X0329683Y0573433D01*
X0328183Y0573433D01*
X0328183Y0572549D02*
X0329683Y0572549D01*
D17*
X0393433Y0483433D03*
X0393433Y0478433D03*
X0393433Y0473433D03*
X0393433Y0468433D03*
X0111433Y0468433D03*
X0111433Y0473433D03*
X0111433Y0478433D03*
X0111433Y0483433D03*
X0111433Y0680433D03*
X0111433Y0685433D03*
X0111433Y0690433D03*
X0111433Y0695433D03*
X0393433Y0695433D03*
X0393433Y0690433D03*
X0393433Y0685433D03*
X0393433Y0680433D03*
X0675433Y0680433D03*
X0675433Y0685433D03*
X0675433Y0690433D03*
X0675433Y0695433D03*
X0957433Y0695433D03*
X0957433Y0690433D03*
X0957433Y0685433D03*
X0957433Y0680433D03*
X0957433Y0483433D03*
X0957433Y0478433D03*
X0957433Y0473433D03*
X0957433Y0468433D03*
X0675433Y0468433D03*
X0675433Y0473433D03*
X0675433Y0478433D03*
X0675433Y0483433D03*
X0675433Y0271433D03*
X0675433Y0266433D03*
X0675433Y0261433D03*
X0675433Y0256433D03*
X0393433Y0256433D03*
X0393433Y0261433D03*
X0393433Y0266433D03*
X0393433Y0271433D03*
X0111433Y0271433D03*
X0111433Y0266433D03*
X0111433Y0261433D03*
X0111433Y0256433D03*
X0957433Y0256433D03*
X0957433Y0261433D03*
X0957433Y0266433D03*
X0957433Y0271433D03*
D18*
X1182933Y0751183D03*
X0140933Y0751183D03*
D19*
X0137368Y0100683D02*
X0137370Y0100802D01*
X0137376Y0100921D01*
X0137386Y0101040D01*
X0137400Y0101158D01*
X0137418Y0101276D01*
X0137439Y0101393D01*
X0137465Y0101509D01*
X0137495Y0101625D01*
X0137528Y0101739D01*
X0137565Y0101852D01*
X0137606Y0101964D01*
X0137651Y0102075D01*
X0137699Y0102184D01*
X0137751Y0102291D01*
X0137807Y0102396D01*
X0137866Y0102500D01*
X0137928Y0102601D01*
X0137994Y0102701D01*
X0138063Y0102798D01*
X0138135Y0102892D01*
X0138211Y0102985D01*
X0138289Y0103074D01*
X0138370Y0103161D01*
X0138455Y0103246D01*
X0138542Y0103327D01*
X0138631Y0103405D01*
X0138724Y0103481D01*
X0138818Y0103553D01*
X0138915Y0103622D01*
X0139015Y0103688D01*
X0139116Y0103750D01*
X0139220Y0103809D01*
X0139325Y0103865D01*
X0139432Y0103917D01*
X0139541Y0103965D01*
X0139652Y0104010D01*
X0139764Y0104051D01*
X0139877Y0104088D01*
X0139991Y0104121D01*
X0140107Y0104151D01*
X0140223Y0104177D01*
X0140340Y0104198D01*
X0140458Y0104216D01*
X0140576Y0104230D01*
X0140695Y0104240D01*
X0140814Y0104246D01*
X0140933Y0104248D01*
X0141052Y0104246D01*
X0141171Y0104240D01*
X0141290Y0104230D01*
X0141408Y0104216D01*
X0141526Y0104198D01*
X0141643Y0104177D01*
X0141759Y0104151D01*
X0141875Y0104121D01*
X0141989Y0104088D01*
X0142102Y0104051D01*
X0142214Y0104010D01*
X0142325Y0103965D01*
X0142434Y0103917D01*
X0142541Y0103865D01*
X0142646Y0103809D01*
X0142750Y0103750D01*
X0142851Y0103688D01*
X0142951Y0103622D01*
X0143048Y0103553D01*
X0143142Y0103481D01*
X0143235Y0103405D01*
X0143324Y0103327D01*
X0143411Y0103246D01*
X0143496Y0103161D01*
X0143577Y0103074D01*
X0143655Y0102985D01*
X0143731Y0102892D01*
X0143803Y0102798D01*
X0143872Y0102701D01*
X0143938Y0102601D01*
X0144000Y0102500D01*
X0144059Y0102396D01*
X0144115Y0102291D01*
X0144167Y0102184D01*
X0144215Y0102075D01*
X0144260Y0101964D01*
X0144301Y0101852D01*
X0144338Y0101739D01*
X0144371Y0101625D01*
X0144401Y0101509D01*
X0144427Y0101393D01*
X0144448Y0101276D01*
X0144466Y0101158D01*
X0144480Y0101040D01*
X0144490Y0100921D01*
X0144496Y0100802D01*
X0144498Y0100683D01*
X0144496Y0100564D01*
X0144490Y0100445D01*
X0144480Y0100326D01*
X0144466Y0100208D01*
X0144448Y0100090D01*
X0144427Y0099973D01*
X0144401Y0099857D01*
X0144371Y0099741D01*
X0144338Y0099627D01*
X0144301Y0099514D01*
X0144260Y0099402D01*
X0144215Y0099291D01*
X0144167Y0099182D01*
X0144115Y0099075D01*
X0144059Y0098970D01*
X0144000Y0098866D01*
X0143938Y0098765D01*
X0143872Y0098665D01*
X0143803Y0098568D01*
X0143731Y0098474D01*
X0143655Y0098381D01*
X0143577Y0098292D01*
X0143496Y0098205D01*
X0143411Y0098120D01*
X0143324Y0098039D01*
X0143235Y0097961D01*
X0143142Y0097885D01*
X0143048Y0097813D01*
X0142951Y0097744D01*
X0142851Y0097678D01*
X0142750Y0097616D01*
X0142646Y0097557D01*
X0142541Y0097501D01*
X0142434Y0097449D01*
X0142325Y0097401D01*
X0142214Y0097356D01*
X0142102Y0097315D01*
X0141989Y0097278D01*
X0141875Y0097245D01*
X0141759Y0097215D01*
X0141643Y0097189D01*
X0141526Y0097168D01*
X0141408Y0097150D01*
X0141290Y0097136D01*
X0141171Y0097126D01*
X0141052Y0097120D01*
X0140933Y0097118D01*
X0140814Y0097120D01*
X0140695Y0097126D01*
X0140576Y0097136D01*
X0140458Y0097150D01*
X0140340Y0097168D01*
X0140223Y0097189D01*
X0140107Y0097215D01*
X0139991Y0097245D01*
X0139877Y0097278D01*
X0139764Y0097315D01*
X0139652Y0097356D01*
X0139541Y0097401D01*
X0139432Y0097449D01*
X0139325Y0097501D01*
X0139220Y0097557D01*
X0139116Y0097616D01*
X0139015Y0097678D01*
X0138915Y0097744D01*
X0138818Y0097813D01*
X0138724Y0097885D01*
X0138631Y0097961D01*
X0138542Y0098039D01*
X0138455Y0098120D01*
X0138370Y0098205D01*
X0138289Y0098292D01*
X0138211Y0098381D01*
X0138135Y0098474D01*
X0138063Y0098568D01*
X0137994Y0098665D01*
X0137928Y0098765D01*
X0137866Y0098866D01*
X0137807Y0098970D01*
X0137751Y0099075D01*
X0137699Y0099182D01*
X0137651Y0099291D01*
X0137606Y0099402D01*
X0137565Y0099514D01*
X0137528Y0099627D01*
X0137495Y0099741D01*
X0137465Y0099857D01*
X0137439Y0099973D01*
X0137418Y0100090D01*
X0137400Y0100208D01*
X0137386Y0100326D01*
X0137376Y0100445D01*
X0137370Y0100564D01*
X0137368Y0100683D01*
D20*
X0140933Y0100683D03*
M02*
