G04 EAGLE Gerber RS-274X export*
G75*
%MOMM*%
%FSLAX34Y34*%
%LPD*%
%INSolderpaste Top*%
%IPPOS*%
%AMOC8*
5,1,8,0,0,1.08239X$1,22.5*%
G01*
%ADD10R,1.000000X1.100000*%
%ADD11R,1.100000X1.000000*%
%ADD12R,1.400000X1.600000*%
%ADD13R,1.400000X3.000000*%
%ADD14R,0.900000X0.800000*%
%ADD15R,1.524000X0.838200*%
%ADD16R,1.778000X3.124200*%
%ADD17R,1.000000X2.000000*%
%ADD18C,0.450000*%
%ADD19R,3.170000X1.000000*%
%ADD20R,1.200000X1.400000*%
%ADD21R,1.470000X1.270000*%
%ADD22C,0.600000*%
%ADD23R,0.700000X0.700000*%
%ADD24R,1.270000X0.558800*%
%ADD25R,0.558800X1.270000*%
%ADD26R,1.200000X0.550000*%
%ADD27R,2.000000X1.200000*%
%ADD28R,1.350000X0.600000*%
%ADD29R,1.450000X0.300000*%
%ADD30R,1.450000X0.600000*%
%ADD31R,1.450000X0.550000*%
%ADD32R,1.200000X0.600000*%
%ADD33R,1.524000X0.762000*%
%ADD34R,1.000000X2.800000*%
%ADD35R,1.000000X1.150000*%

G36*
X1529635Y746086D02*
X1529635Y746086D01*
X1529665Y746091D01*
X1529706Y746090D01*
X1530547Y746194D01*
X1530595Y746209D01*
X1530684Y746226D01*
X1531482Y746513D01*
X1531525Y746538D01*
X1531608Y746575D01*
X1532323Y747031D01*
X1532360Y747065D01*
X1532432Y747119D01*
X1533028Y747722D01*
X1533057Y747763D01*
X1533116Y747832D01*
X1533564Y748552D01*
X1533583Y748598D01*
X1533625Y748679D01*
X1533903Y749479D01*
X1533911Y749529D01*
X1533934Y749617D01*
X1534028Y750459D01*
X1534026Y750490D01*
X1534032Y750530D01*
X1534032Y772922D01*
X1534037Y773633D01*
X1534029Y773683D01*
X1534023Y773775D01*
X1533868Y774474D01*
X1533849Y774521D01*
X1533822Y774608D01*
X1533516Y775256D01*
X1533487Y775297D01*
X1533442Y775377D01*
X1532999Y775940D01*
X1532962Y775973D01*
X1532900Y776041D01*
X1532343Y776491D01*
X1532299Y776516D01*
X1532223Y776568D01*
X1531580Y776883D01*
X1531532Y776897D01*
X1531447Y776931D01*
X1530750Y777095D01*
X1530699Y777098D01*
X1530604Y777112D01*
X1512824Y777112D01*
X1512775Y777104D01*
X1512670Y777093D01*
X1511835Y776885D01*
X1511789Y776864D01*
X1511702Y776835D01*
X1510934Y776446D01*
X1510894Y776416D01*
X1510816Y776368D01*
X1510154Y775818D01*
X1510121Y775779D01*
X1510056Y775715D01*
X1509533Y775032D01*
X1509510Y774987D01*
X1509460Y774910D01*
X1509102Y774127D01*
X1509090Y774078D01*
X1509058Y773992D01*
X1508883Y773149D01*
X1508882Y773099D01*
X1508870Y773008D01*
X1508888Y772153D01*
X1508888Y750357D01*
X1508893Y750326D01*
X1508892Y750285D01*
X1508989Y749432D01*
X1509003Y749383D01*
X1509021Y749292D01*
X1509306Y748482D01*
X1509331Y748438D01*
X1509369Y748354D01*
X1509828Y747628D01*
X1509863Y747591D01*
X1509918Y747517D01*
X1510529Y746913D01*
X1510570Y746884D01*
X1510641Y746824D01*
X1511371Y746372D01*
X1511418Y746354D01*
X1511501Y746311D01*
X1512314Y746034D01*
X1512363Y746027D01*
X1512453Y746004D01*
X1513308Y745916D01*
X1513339Y745918D01*
X1513379Y745913D01*
X1529635Y746086D01*
G37*
G36*
X89455Y746086D02*
X89455Y746086D01*
X89485Y746091D01*
X89526Y746090D01*
X90367Y746194D01*
X90415Y746209D01*
X90504Y746226D01*
X91302Y746513D01*
X91345Y746538D01*
X91428Y746575D01*
X92143Y747031D01*
X92180Y747065D01*
X92252Y747119D01*
X92848Y747722D01*
X92877Y747763D01*
X92936Y747832D01*
X93384Y748552D01*
X93403Y748598D01*
X93445Y748679D01*
X93723Y749479D01*
X93731Y749529D01*
X93754Y749617D01*
X93848Y750459D01*
X93846Y750490D01*
X93852Y750530D01*
X93852Y772922D01*
X93857Y773633D01*
X93849Y773683D01*
X93843Y773775D01*
X93688Y774474D01*
X93669Y774521D01*
X93642Y774608D01*
X93336Y775256D01*
X93307Y775297D01*
X93262Y775377D01*
X92819Y775940D01*
X92782Y775973D01*
X92720Y776041D01*
X92163Y776491D01*
X92119Y776516D01*
X92043Y776568D01*
X91400Y776883D01*
X91352Y776897D01*
X91267Y776931D01*
X90570Y777095D01*
X90519Y777098D01*
X90424Y777112D01*
X72644Y777112D01*
X72595Y777104D01*
X72490Y777093D01*
X71655Y776885D01*
X71609Y776864D01*
X71522Y776835D01*
X70754Y776446D01*
X70714Y776416D01*
X70636Y776368D01*
X69974Y775818D01*
X69941Y775779D01*
X69876Y775715D01*
X69353Y775032D01*
X69330Y774987D01*
X69280Y774910D01*
X68922Y774127D01*
X68910Y774078D01*
X68878Y773992D01*
X68703Y773149D01*
X68702Y773099D01*
X68690Y773008D01*
X68708Y772153D01*
X68708Y750357D01*
X68713Y750326D01*
X68712Y750285D01*
X68809Y749432D01*
X68823Y749383D01*
X68841Y749292D01*
X69126Y748482D01*
X69151Y748438D01*
X69189Y748354D01*
X69648Y747628D01*
X69683Y747591D01*
X69738Y747517D01*
X70349Y746913D01*
X70390Y746884D01*
X70461Y746824D01*
X71191Y746372D01*
X71238Y746354D01*
X71321Y746311D01*
X72134Y746034D01*
X72183Y746027D01*
X72273Y746004D01*
X73128Y745916D01*
X73159Y745918D01*
X73199Y745913D01*
X89455Y746086D01*
G37*
G36*
X809545Y1335366D02*
X809545Y1335366D01*
X809575Y1335371D01*
X809616Y1335370D01*
X810457Y1335474D01*
X810505Y1335489D01*
X810594Y1335506D01*
X811392Y1335793D01*
X811435Y1335818D01*
X811518Y1335855D01*
X812233Y1336311D01*
X812270Y1336345D01*
X812342Y1336399D01*
X812938Y1337002D01*
X812967Y1337043D01*
X813026Y1337112D01*
X813474Y1337832D01*
X813493Y1337878D01*
X813535Y1337959D01*
X813813Y1338759D01*
X813821Y1338809D01*
X813844Y1338897D01*
X813938Y1339739D01*
X813936Y1339770D01*
X813942Y1339810D01*
X813942Y1362202D01*
X813947Y1362913D01*
X813939Y1362963D01*
X813933Y1363055D01*
X813778Y1363754D01*
X813759Y1363801D01*
X813732Y1363888D01*
X813426Y1364536D01*
X813397Y1364577D01*
X813352Y1364657D01*
X812909Y1365220D01*
X812872Y1365253D01*
X812810Y1365321D01*
X812253Y1365771D01*
X812209Y1365796D01*
X812133Y1365848D01*
X811490Y1366163D01*
X811442Y1366177D01*
X811357Y1366211D01*
X810660Y1366375D01*
X810609Y1366378D01*
X810514Y1366392D01*
X792734Y1366392D01*
X792685Y1366384D01*
X792580Y1366373D01*
X791745Y1366165D01*
X791699Y1366144D01*
X791612Y1366115D01*
X790844Y1365726D01*
X790804Y1365696D01*
X790726Y1365648D01*
X790064Y1365098D01*
X790031Y1365059D01*
X789966Y1364995D01*
X789443Y1364312D01*
X789420Y1364267D01*
X789370Y1364190D01*
X789012Y1363407D01*
X789000Y1363358D01*
X788968Y1363272D01*
X788793Y1362429D01*
X788792Y1362379D01*
X788780Y1362288D01*
X788798Y1361433D01*
X788798Y1339637D01*
X788803Y1339606D01*
X788802Y1339565D01*
X788899Y1338712D01*
X788913Y1338663D01*
X788931Y1338572D01*
X789216Y1337762D01*
X789241Y1337718D01*
X789279Y1337634D01*
X789738Y1336908D01*
X789773Y1336871D01*
X789828Y1336797D01*
X790439Y1336193D01*
X790480Y1336164D01*
X790551Y1336104D01*
X791281Y1335652D01*
X791328Y1335634D01*
X791411Y1335591D01*
X792224Y1335314D01*
X792273Y1335307D01*
X792363Y1335284D01*
X793218Y1335196D01*
X793249Y1335198D01*
X793289Y1335193D01*
X809545Y1335366D01*
G37*
G36*
X1529635Y1335366D02*
X1529635Y1335366D01*
X1529665Y1335371D01*
X1529706Y1335370D01*
X1530547Y1335474D01*
X1530595Y1335489D01*
X1530684Y1335506D01*
X1531482Y1335793D01*
X1531525Y1335818D01*
X1531608Y1335855D01*
X1532323Y1336311D01*
X1532360Y1336345D01*
X1532432Y1336399D01*
X1533028Y1337002D01*
X1533057Y1337043D01*
X1533116Y1337112D01*
X1533564Y1337832D01*
X1533583Y1337878D01*
X1533625Y1337959D01*
X1533903Y1338759D01*
X1533911Y1338809D01*
X1533934Y1338897D01*
X1534028Y1339739D01*
X1534026Y1339770D01*
X1534032Y1339810D01*
X1534032Y1362202D01*
X1534037Y1362913D01*
X1534029Y1362963D01*
X1534023Y1363055D01*
X1533868Y1363754D01*
X1533849Y1363801D01*
X1533822Y1363888D01*
X1533516Y1364536D01*
X1533487Y1364577D01*
X1533442Y1364657D01*
X1532999Y1365220D01*
X1532962Y1365253D01*
X1532900Y1365321D01*
X1532343Y1365771D01*
X1532299Y1365796D01*
X1532223Y1365848D01*
X1531580Y1366163D01*
X1531532Y1366177D01*
X1531447Y1366211D01*
X1530750Y1366375D01*
X1530699Y1366378D01*
X1530604Y1366392D01*
X1512824Y1366392D01*
X1512775Y1366384D01*
X1512670Y1366373D01*
X1511835Y1366165D01*
X1511789Y1366144D01*
X1511702Y1366115D01*
X1510934Y1365726D01*
X1510894Y1365696D01*
X1510816Y1365648D01*
X1510154Y1365098D01*
X1510121Y1365059D01*
X1510056Y1364995D01*
X1509533Y1364312D01*
X1509510Y1364267D01*
X1509460Y1364190D01*
X1509102Y1363407D01*
X1509090Y1363358D01*
X1509058Y1363272D01*
X1508883Y1362429D01*
X1508882Y1362379D01*
X1508870Y1362288D01*
X1508888Y1361433D01*
X1508888Y1339637D01*
X1508893Y1339606D01*
X1508892Y1339565D01*
X1508989Y1338712D01*
X1509003Y1338663D01*
X1509021Y1338572D01*
X1509306Y1337762D01*
X1509331Y1337718D01*
X1509369Y1337634D01*
X1509828Y1336908D01*
X1509863Y1336871D01*
X1509918Y1336797D01*
X1510529Y1336193D01*
X1510570Y1336164D01*
X1510641Y1336104D01*
X1511371Y1335652D01*
X1511418Y1335634D01*
X1511501Y1335591D01*
X1512314Y1335314D01*
X1512363Y1335307D01*
X1512453Y1335284D01*
X1513308Y1335196D01*
X1513339Y1335198D01*
X1513379Y1335193D01*
X1529635Y1335366D01*
G37*
G36*
X809545Y746086D02*
X809545Y746086D01*
X809575Y746091D01*
X809616Y746090D01*
X810457Y746194D01*
X810505Y746209D01*
X810594Y746226D01*
X811392Y746513D01*
X811435Y746538D01*
X811518Y746575D01*
X812233Y747031D01*
X812270Y747065D01*
X812342Y747119D01*
X812938Y747722D01*
X812967Y747763D01*
X813026Y747832D01*
X813474Y748552D01*
X813493Y748598D01*
X813535Y748679D01*
X813813Y749479D01*
X813821Y749529D01*
X813844Y749617D01*
X813938Y750459D01*
X813936Y750490D01*
X813942Y750530D01*
X813942Y772922D01*
X813947Y773633D01*
X813939Y773683D01*
X813933Y773775D01*
X813778Y774474D01*
X813759Y774521D01*
X813732Y774608D01*
X813426Y775256D01*
X813397Y775297D01*
X813352Y775377D01*
X812909Y775940D01*
X812872Y775973D01*
X812810Y776041D01*
X812253Y776491D01*
X812209Y776516D01*
X812133Y776568D01*
X811490Y776883D01*
X811442Y776897D01*
X811357Y776931D01*
X810660Y777095D01*
X810609Y777098D01*
X810514Y777112D01*
X792734Y777112D01*
X792685Y777104D01*
X792580Y777093D01*
X791745Y776885D01*
X791699Y776864D01*
X791612Y776835D01*
X790844Y776446D01*
X790804Y776416D01*
X790726Y776368D01*
X790064Y775818D01*
X790031Y775779D01*
X789966Y775715D01*
X789443Y775032D01*
X789420Y774987D01*
X789370Y774910D01*
X789012Y774127D01*
X789000Y774078D01*
X788968Y773992D01*
X788793Y773149D01*
X788792Y773099D01*
X788780Y773008D01*
X788798Y772153D01*
X788798Y750357D01*
X788803Y750326D01*
X788802Y750285D01*
X788899Y749432D01*
X788913Y749383D01*
X788931Y749292D01*
X789216Y748482D01*
X789241Y748438D01*
X789279Y748354D01*
X789738Y747628D01*
X789773Y747591D01*
X789828Y747517D01*
X790439Y746913D01*
X790480Y746884D01*
X790551Y746824D01*
X791281Y746372D01*
X791328Y746354D01*
X791411Y746311D01*
X792224Y746034D01*
X792273Y746027D01*
X792363Y746004D01*
X793218Y745916D01*
X793249Y745918D01*
X793289Y745913D01*
X809545Y746086D01*
G37*
G36*
X89455Y1335366D02*
X89455Y1335366D01*
X89485Y1335371D01*
X89526Y1335370D01*
X90367Y1335474D01*
X90415Y1335489D01*
X90504Y1335506D01*
X91302Y1335793D01*
X91345Y1335818D01*
X91428Y1335855D01*
X92143Y1336311D01*
X92180Y1336345D01*
X92252Y1336399D01*
X92848Y1337002D01*
X92877Y1337043D01*
X92936Y1337112D01*
X93384Y1337832D01*
X93403Y1337878D01*
X93445Y1337959D01*
X93723Y1338759D01*
X93731Y1338809D01*
X93754Y1338897D01*
X93848Y1339739D01*
X93846Y1339770D01*
X93852Y1339810D01*
X93852Y1362202D01*
X93857Y1362913D01*
X93849Y1362963D01*
X93843Y1363055D01*
X93688Y1363754D01*
X93669Y1363801D01*
X93642Y1363888D01*
X93336Y1364536D01*
X93307Y1364577D01*
X93262Y1364657D01*
X92819Y1365220D01*
X92782Y1365253D01*
X92720Y1365321D01*
X92163Y1365771D01*
X92119Y1365796D01*
X92043Y1365848D01*
X91400Y1366163D01*
X91352Y1366177D01*
X91267Y1366211D01*
X90570Y1366375D01*
X90519Y1366378D01*
X90424Y1366392D01*
X72644Y1366392D01*
X72595Y1366384D01*
X72490Y1366373D01*
X71655Y1366165D01*
X71609Y1366144D01*
X71522Y1366115D01*
X70754Y1365726D01*
X70714Y1365696D01*
X70636Y1365648D01*
X69974Y1365098D01*
X69941Y1365059D01*
X69876Y1364995D01*
X69353Y1364312D01*
X69330Y1364267D01*
X69280Y1364190D01*
X68922Y1363407D01*
X68910Y1363358D01*
X68878Y1363272D01*
X68703Y1362429D01*
X68702Y1362379D01*
X68690Y1362288D01*
X68708Y1361433D01*
X68708Y1339637D01*
X68713Y1339606D01*
X68712Y1339565D01*
X68809Y1338712D01*
X68823Y1338663D01*
X68841Y1338572D01*
X69126Y1337762D01*
X69151Y1337718D01*
X69189Y1337634D01*
X69648Y1336908D01*
X69683Y1336871D01*
X69738Y1336797D01*
X70349Y1336193D01*
X70390Y1336164D01*
X70461Y1336104D01*
X71191Y1335652D01*
X71238Y1335634D01*
X71321Y1335591D01*
X72134Y1335314D01*
X72183Y1335307D01*
X72273Y1335284D01*
X73128Y1335196D01*
X73159Y1335198D01*
X73199Y1335193D01*
X89455Y1335366D01*
G37*
G36*
X89455Y156806D02*
X89455Y156806D01*
X89485Y156811D01*
X89526Y156810D01*
X90367Y156914D01*
X90415Y156929D01*
X90504Y156946D01*
X91302Y157233D01*
X91345Y157258D01*
X91428Y157295D01*
X92143Y157751D01*
X92180Y157785D01*
X92252Y157839D01*
X92848Y158442D01*
X92877Y158483D01*
X92936Y158552D01*
X93384Y159272D01*
X93403Y159318D01*
X93445Y159399D01*
X93723Y160199D01*
X93731Y160249D01*
X93754Y160337D01*
X93848Y161179D01*
X93846Y161210D01*
X93852Y161250D01*
X93852Y183642D01*
X93857Y184353D01*
X93849Y184403D01*
X93843Y184495D01*
X93688Y185194D01*
X93669Y185241D01*
X93642Y185328D01*
X93336Y185976D01*
X93307Y186017D01*
X93262Y186097D01*
X92819Y186660D01*
X92782Y186693D01*
X92720Y186761D01*
X92163Y187211D01*
X92119Y187236D01*
X92043Y187288D01*
X91400Y187603D01*
X91352Y187617D01*
X91267Y187651D01*
X90570Y187815D01*
X90519Y187818D01*
X90424Y187832D01*
X72644Y187832D01*
X72595Y187824D01*
X72490Y187813D01*
X71655Y187605D01*
X71609Y187584D01*
X71522Y187555D01*
X70754Y187166D01*
X70714Y187136D01*
X70636Y187088D01*
X69974Y186538D01*
X69941Y186499D01*
X69876Y186435D01*
X69353Y185752D01*
X69330Y185707D01*
X69280Y185630D01*
X68922Y184847D01*
X68910Y184798D01*
X68878Y184712D01*
X68703Y183869D01*
X68702Y183819D01*
X68690Y183728D01*
X68708Y182873D01*
X68708Y161077D01*
X68713Y161046D01*
X68712Y161005D01*
X68809Y160152D01*
X68823Y160103D01*
X68841Y160012D01*
X69126Y159202D01*
X69151Y159158D01*
X69189Y159074D01*
X69648Y158348D01*
X69683Y158311D01*
X69738Y158237D01*
X70349Y157633D01*
X70390Y157604D01*
X70461Y157544D01*
X71191Y157092D01*
X71238Y157074D01*
X71321Y157031D01*
X72134Y156754D01*
X72183Y156747D01*
X72273Y156724D01*
X73128Y156636D01*
X73159Y156638D01*
X73199Y156633D01*
X89455Y156806D01*
G37*
G36*
X809545Y156806D02*
X809545Y156806D01*
X809575Y156811D01*
X809616Y156810D01*
X810457Y156914D01*
X810505Y156929D01*
X810594Y156946D01*
X811392Y157233D01*
X811435Y157258D01*
X811518Y157295D01*
X812233Y157751D01*
X812270Y157785D01*
X812342Y157839D01*
X812938Y158442D01*
X812967Y158483D01*
X813026Y158552D01*
X813474Y159272D01*
X813493Y159318D01*
X813535Y159399D01*
X813813Y160199D01*
X813821Y160249D01*
X813844Y160337D01*
X813938Y161179D01*
X813936Y161210D01*
X813942Y161250D01*
X813942Y183642D01*
X813947Y184353D01*
X813939Y184403D01*
X813933Y184495D01*
X813778Y185194D01*
X813759Y185241D01*
X813732Y185328D01*
X813426Y185976D01*
X813397Y186017D01*
X813352Y186097D01*
X812909Y186660D01*
X812872Y186693D01*
X812810Y186761D01*
X812253Y187211D01*
X812209Y187236D01*
X812133Y187288D01*
X811490Y187603D01*
X811442Y187617D01*
X811357Y187651D01*
X810660Y187815D01*
X810609Y187818D01*
X810514Y187832D01*
X792734Y187832D01*
X792685Y187824D01*
X792580Y187813D01*
X791745Y187605D01*
X791699Y187584D01*
X791612Y187555D01*
X790844Y187166D01*
X790804Y187136D01*
X790726Y187088D01*
X790064Y186538D01*
X790031Y186499D01*
X789966Y186435D01*
X789443Y185752D01*
X789420Y185707D01*
X789370Y185630D01*
X789012Y184847D01*
X789000Y184798D01*
X788968Y184712D01*
X788793Y183869D01*
X788792Y183819D01*
X788780Y183728D01*
X788798Y182873D01*
X788798Y161077D01*
X788803Y161046D01*
X788802Y161005D01*
X788899Y160152D01*
X788913Y160103D01*
X788931Y160012D01*
X789216Y159202D01*
X789241Y159158D01*
X789279Y159074D01*
X789738Y158348D01*
X789773Y158311D01*
X789828Y158237D01*
X790439Y157633D01*
X790480Y157604D01*
X790551Y157544D01*
X791281Y157092D01*
X791328Y157074D01*
X791411Y157031D01*
X792224Y156754D01*
X792273Y156747D01*
X792363Y156724D01*
X793218Y156636D01*
X793249Y156638D01*
X793289Y156633D01*
X809545Y156806D01*
G37*
G36*
X1529635Y156806D02*
X1529635Y156806D01*
X1529665Y156811D01*
X1529706Y156810D01*
X1530547Y156914D01*
X1530595Y156929D01*
X1530684Y156946D01*
X1531482Y157233D01*
X1531525Y157258D01*
X1531608Y157295D01*
X1532323Y157751D01*
X1532360Y157785D01*
X1532432Y157839D01*
X1533028Y158442D01*
X1533057Y158483D01*
X1533116Y158552D01*
X1533564Y159272D01*
X1533583Y159318D01*
X1533625Y159399D01*
X1533903Y160199D01*
X1533911Y160249D01*
X1533934Y160337D01*
X1534028Y161179D01*
X1534026Y161210D01*
X1534032Y161250D01*
X1534032Y183642D01*
X1534037Y184353D01*
X1534029Y184403D01*
X1534023Y184495D01*
X1533868Y185194D01*
X1533849Y185241D01*
X1533822Y185328D01*
X1533516Y185976D01*
X1533487Y186017D01*
X1533442Y186097D01*
X1532999Y186660D01*
X1532962Y186693D01*
X1532900Y186761D01*
X1532343Y187211D01*
X1532299Y187236D01*
X1532223Y187288D01*
X1531580Y187603D01*
X1531532Y187617D01*
X1531447Y187651D01*
X1530750Y187815D01*
X1530699Y187818D01*
X1530604Y187832D01*
X1512824Y187832D01*
X1512775Y187824D01*
X1512670Y187813D01*
X1511835Y187605D01*
X1511789Y187584D01*
X1511702Y187555D01*
X1510934Y187166D01*
X1510894Y187136D01*
X1510816Y187088D01*
X1510154Y186538D01*
X1510121Y186499D01*
X1510056Y186435D01*
X1509533Y185752D01*
X1509510Y185707D01*
X1509460Y185630D01*
X1509102Y184847D01*
X1509090Y184798D01*
X1509058Y184712D01*
X1508883Y183869D01*
X1508882Y183819D01*
X1508870Y183728D01*
X1508888Y182873D01*
X1508888Y161077D01*
X1508893Y161046D01*
X1508892Y161005D01*
X1508989Y160152D01*
X1509003Y160103D01*
X1509021Y160012D01*
X1509306Y159202D01*
X1509331Y159158D01*
X1509369Y159074D01*
X1509828Y158348D01*
X1509863Y158311D01*
X1509918Y158237D01*
X1510529Y157633D01*
X1510570Y157604D01*
X1510641Y157544D01*
X1511371Y157092D01*
X1511418Y157074D01*
X1511501Y157031D01*
X1512314Y156754D01*
X1512363Y156747D01*
X1512453Y156724D01*
X1513308Y156636D01*
X1513339Y156638D01*
X1513379Y156633D01*
X1529635Y156806D01*
G37*
G36*
X1530145Y1214256D02*
X1530145Y1214256D01*
X1530250Y1214267D01*
X1531085Y1214475D01*
X1531131Y1214496D01*
X1531218Y1214525D01*
X1531986Y1214914D01*
X1532026Y1214944D01*
X1532104Y1214992D01*
X1532766Y1215542D01*
X1532799Y1215581D01*
X1532864Y1215645D01*
X1533387Y1216328D01*
X1533410Y1216373D01*
X1533460Y1216450D01*
X1533818Y1217233D01*
X1533830Y1217282D01*
X1533862Y1217368D01*
X1534037Y1218211D01*
X1534038Y1218261D01*
X1534050Y1218352D01*
X1534032Y1219207D01*
X1534032Y1241003D01*
X1534027Y1241034D01*
X1534028Y1241075D01*
X1533931Y1241928D01*
X1533917Y1241977D01*
X1533899Y1242068D01*
X1533614Y1242878D01*
X1533589Y1242922D01*
X1533551Y1243006D01*
X1533092Y1243732D01*
X1533057Y1243769D01*
X1533002Y1243843D01*
X1532391Y1244447D01*
X1532350Y1244476D01*
X1532279Y1244536D01*
X1531549Y1244988D01*
X1531502Y1245006D01*
X1531419Y1245049D01*
X1530606Y1245326D01*
X1530557Y1245333D01*
X1530467Y1245356D01*
X1529612Y1245444D01*
X1529581Y1245442D01*
X1529541Y1245447D01*
X1513285Y1245274D01*
X1513255Y1245269D01*
X1513214Y1245270D01*
X1512373Y1245166D01*
X1512325Y1245151D01*
X1512236Y1245134D01*
X1511438Y1244847D01*
X1511395Y1244822D01*
X1511312Y1244785D01*
X1510597Y1244329D01*
X1510560Y1244295D01*
X1510488Y1244241D01*
X1509892Y1243638D01*
X1509863Y1243597D01*
X1509804Y1243528D01*
X1509356Y1242808D01*
X1509337Y1242762D01*
X1509295Y1242681D01*
X1509017Y1241881D01*
X1509009Y1241831D01*
X1508986Y1241743D01*
X1508892Y1240901D01*
X1508894Y1240870D01*
X1508888Y1240830D01*
X1508888Y1218438D01*
X1508883Y1217727D01*
X1508891Y1217677D01*
X1508897Y1217585D01*
X1509052Y1216886D01*
X1509071Y1216839D01*
X1509098Y1216752D01*
X1509404Y1216104D01*
X1509433Y1216063D01*
X1509478Y1215983D01*
X1509921Y1215420D01*
X1509958Y1215387D01*
X1510021Y1215319D01*
X1510577Y1214869D01*
X1510621Y1214844D01*
X1510697Y1214792D01*
X1511340Y1214477D01*
X1511388Y1214463D01*
X1511473Y1214429D01*
X1512170Y1214265D01*
X1512221Y1214262D01*
X1512316Y1214248D01*
X1530096Y1214248D01*
X1530145Y1214256D01*
G37*
G36*
X810055Y624976D02*
X810055Y624976D01*
X810160Y624987D01*
X810995Y625195D01*
X811041Y625216D01*
X811128Y625245D01*
X811896Y625634D01*
X811936Y625664D01*
X812014Y625712D01*
X812676Y626262D01*
X812709Y626301D01*
X812774Y626365D01*
X813297Y627048D01*
X813320Y627093D01*
X813370Y627170D01*
X813728Y627953D01*
X813740Y628002D01*
X813772Y628088D01*
X813947Y628931D01*
X813948Y628981D01*
X813960Y629072D01*
X813942Y629927D01*
X813942Y651723D01*
X813937Y651754D01*
X813938Y651795D01*
X813841Y652648D01*
X813827Y652697D01*
X813809Y652788D01*
X813524Y653598D01*
X813499Y653642D01*
X813461Y653726D01*
X813002Y654452D01*
X812967Y654489D01*
X812912Y654563D01*
X812301Y655167D01*
X812260Y655196D01*
X812189Y655256D01*
X811459Y655708D01*
X811412Y655726D01*
X811329Y655769D01*
X810516Y656046D01*
X810467Y656053D01*
X810377Y656076D01*
X809522Y656164D01*
X809491Y656162D01*
X809451Y656167D01*
X793195Y655994D01*
X793165Y655989D01*
X793124Y655990D01*
X792283Y655886D01*
X792235Y655871D01*
X792146Y655854D01*
X791348Y655567D01*
X791305Y655542D01*
X791222Y655505D01*
X790507Y655049D01*
X790470Y655015D01*
X790398Y654961D01*
X789802Y654358D01*
X789773Y654317D01*
X789714Y654248D01*
X789266Y653528D01*
X789247Y653482D01*
X789205Y653401D01*
X788927Y652601D01*
X788919Y652551D01*
X788896Y652463D01*
X788802Y651621D01*
X788804Y651590D01*
X788798Y651550D01*
X788798Y629158D01*
X788793Y628447D01*
X788801Y628397D01*
X788807Y628305D01*
X788962Y627606D01*
X788981Y627559D01*
X789008Y627472D01*
X789314Y626824D01*
X789343Y626783D01*
X789388Y626703D01*
X789831Y626140D01*
X789868Y626107D01*
X789931Y626039D01*
X790487Y625589D01*
X790531Y625564D01*
X790607Y625512D01*
X791250Y625197D01*
X791298Y625183D01*
X791383Y625149D01*
X792080Y624985D01*
X792131Y624982D01*
X792226Y624968D01*
X810006Y624968D01*
X810055Y624976D01*
G37*
G36*
X1530145Y624976D02*
X1530145Y624976D01*
X1530250Y624987D01*
X1531085Y625195D01*
X1531131Y625216D01*
X1531218Y625245D01*
X1531986Y625634D01*
X1532026Y625664D01*
X1532104Y625712D01*
X1532766Y626262D01*
X1532799Y626301D01*
X1532864Y626365D01*
X1533387Y627048D01*
X1533410Y627093D01*
X1533460Y627170D01*
X1533818Y627953D01*
X1533830Y628002D01*
X1533862Y628088D01*
X1534037Y628931D01*
X1534038Y628981D01*
X1534050Y629072D01*
X1534032Y629927D01*
X1534032Y651723D01*
X1534027Y651754D01*
X1534028Y651795D01*
X1533931Y652648D01*
X1533917Y652697D01*
X1533899Y652788D01*
X1533614Y653598D01*
X1533589Y653642D01*
X1533551Y653726D01*
X1533092Y654452D01*
X1533057Y654489D01*
X1533002Y654563D01*
X1532391Y655167D01*
X1532350Y655196D01*
X1532279Y655256D01*
X1531549Y655708D01*
X1531502Y655726D01*
X1531419Y655769D01*
X1530606Y656046D01*
X1530557Y656053D01*
X1530467Y656076D01*
X1529612Y656164D01*
X1529581Y656162D01*
X1529541Y656167D01*
X1513285Y655994D01*
X1513255Y655989D01*
X1513214Y655990D01*
X1512373Y655886D01*
X1512325Y655871D01*
X1512236Y655854D01*
X1511438Y655567D01*
X1511395Y655542D01*
X1511312Y655505D01*
X1510597Y655049D01*
X1510560Y655015D01*
X1510488Y654961D01*
X1509892Y654358D01*
X1509863Y654317D01*
X1509804Y654248D01*
X1509356Y653528D01*
X1509337Y653482D01*
X1509295Y653401D01*
X1509017Y652601D01*
X1509009Y652551D01*
X1508986Y652463D01*
X1508892Y651621D01*
X1508894Y651590D01*
X1508888Y651550D01*
X1508888Y629158D01*
X1508883Y628447D01*
X1508891Y628397D01*
X1508897Y628305D01*
X1509052Y627606D01*
X1509071Y627559D01*
X1509098Y627472D01*
X1509404Y626824D01*
X1509433Y626783D01*
X1509478Y626703D01*
X1509921Y626140D01*
X1509958Y626107D01*
X1510021Y626039D01*
X1510577Y625589D01*
X1510621Y625564D01*
X1510697Y625512D01*
X1511340Y625197D01*
X1511388Y625183D01*
X1511473Y625149D01*
X1512170Y624985D01*
X1512221Y624982D01*
X1512316Y624968D01*
X1530096Y624968D01*
X1530145Y624976D01*
G37*
G36*
X89965Y35696D02*
X89965Y35696D01*
X90070Y35707D01*
X90905Y35915D01*
X90951Y35936D01*
X91038Y35965D01*
X91806Y36354D01*
X91846Y36384D01*
X91924Y36432D01*
X92586Y36982D01*
X92619Y37021D01*
X92684Y37085D01*
X93207Y37768D01*
X93230Y37813D01*
X93280Y37890D01*
X93638Y38673D01*
X93650Y38722D01*
X93682Y38808D01*
X93857Y39651D01*
X93858Y39701D01*
X93870Y39792D01*
X93852Y40647D01*
X93852Y62443D01*
X93847Y62474D01*
X93848Y62515D01*
X93751Y63368D01*
X93737Y63417D01*
X93719Y63508D01*
X93434Y64318D01*
X93409Y64362D01*
X93371Y64446D01*
X92912Y65172D01*
X92877Y65209D01*
X92822Y65283D01*
X92211Y65887D01*
X92170Y65916D01*
X92099Y65976D01*
X91369Y66428D01*
X91322Y66446D01*
X91239Y66489D01*
X90426Y66766D01*
X90377Y66773D01*
X90287Y66796D01*
X89432Y66884D01*
X89401Y66882D01*
X89361Y66887D01*
X73105Y66714D01*
X73075Y66709D01*
X73034Y66710D01*
X72193Y66606D01*
X72145Y66591D01*
X72056Y66574D01*
X71258Y66287D01*
X71215Y66262D01*
X71132Y66225D01*
X70417Y65769D01*
X70380Y65735D01*
X70308Y65681D01*
X69712Y65078D01*
X69683Y65037D01*
X69624Y64968D01*
X69176Y64248D01*
X69157Y64202D01*
X69115Y64121D01*
X68837Y63321D01*
X68829Y63271D01*
X68806Y63183D01*
X68712Y62341D01*
X68714Y62310D01*
X68708Y62270D01*
X68708Y39878D01*
X68703Y39167D01*
X68711Y39117D01*
X68717Y39025D01*
X68872Y38326D01*
X68891Y38279D01*
X68918Y38192D01*
X69224Y37544D01*
X69253Y37503D01*
X69298Y37423D01*
X69741Y36860D01*
X69778Y36827D01*
X69841Y36759D01*
X70397Y36309D01*
X70441Y36284D01*
X70517Y36232D01*
X71160Y35917D01*
X71208Y35903D01*
X71293Y35869D01*
X71990Y35705D01*
X72041Y35702D01*
X72136Y35688D01*
X89916Y35688D01*
X89965Y35696D01*
G37*
G36*
X89965Y624976D02*
X89965Y624976D01*
X90070Y624987D01*
X90905Y625195D01*
X90951Y625216D01*
X91038Y625245D01*
X91806Y625634D01*
X91846Y625664D01*
X91924Y625712D01*
X92586Y626262D01*
X92619Y626301D01*
X92684Y626365D01*
X93207Y627048D01*
X93230Y627093D01*
X93280Y627170D01*
X93638Y627953D01*
X93650Y628002D01*
X93682Y628088D01*
X93857Y628931D01*
X93858Y628981D01*
X93870Y629072D01*
X93852Y629927D01*
X93852Y651723D01*
X93847Y651754D01*
X93848Y651795D01*
X93751Y652648D01*
X93737Y652697D01*
X93719Y652788D01*
X93434Y653598D01*
X93409Y653642D01*
X93371Y653726D01*
X92912Y654452D01*
X92877Y654489D01*
X92822Y654563D01*
X92211Y655167D01*
X92170Y655196D01*
X92099Y655256D01*
X91369Y655708D01*
X91322Y655726D01*
X91239Y655769D01*
X90426Y656046D01*
X90377Y656053D01*
X90287Y656076D01*
X89432Y656164D01*
X89401Y656162D01*
X89361Y656167D01*
X73105Y655994D01*
X73075Y655989D01*
X73034Y655990D01*
X72193Y655886D01*
X72145Y655871D01*
X72056Y655854D01*
X71258Y655567D01*
X71215Y655542D01*
X71132Y655505D01*
X70417Y655049D01*
X70380Y655015D01*
X70308Y654961D01*
X69712Y654358D01*
X69683Y654317D01*
X69624Y654248D01*
X69176Y653528D01*
X69157Y653482D01*
X69115Y653401D01*
X68837Y652601D01*
X68829Y652551D01*
X68806Y652463D01*
X68712Y651621D01*
X68714Y651590D01*
X68708Y651550D01*
X68708Y629158D01*
X68703Y628447D01*
X68711Y628397D01*
X68717Y628305D01*
X68872Y627606D01*
X68891Y627559D01*
X68918Y627472D01*
X69224Y626824D01*
X69253Y626783D01*
X69298Y626703D01*
X69741Y626140D01*
X69778Y626107D01*
X69841Y626039D01*
X70397Y625589D01*
X70441Y625564D01*
X70517Y625512D01*
X71160Y625197D01*
X71208Y625183D01*
X71293Y625149D01*
X71990Y624985D01*
X72041Y624982D01*
X72136Y624968D01*
X89916Y624968D01*
X89965Y624976D01*
G37*
G36*
X810055Y35696D02*
X810055Y35696D01*
X810160Y35707D01*
X810995Y35915D01*
X811041Y35936D01*
X811128Y35965D01*
X811896Y36354D01*
X811936Y36384D01*
X812014Y36432D01*
X812676Y36982D01*
X812709Y37021D01*
X812774Y37085D01*
X813297Y37768D01*
X813320Y37813D01*
X813370Y37890D01*
X813728Y38673D01*
X813740Y38722D01*
X813772Y38808D01*
X813947Y39651D01*
X813948Y39701D01*
X813960Y39792D01*
X813942Y40647D01*
X813942Y62443D01*
X813937Y62474D01*
X813938Y62515D01*
X813841Y63368D01*
X813827Y63417D01*
X813809Y63508D01*
X813524Y64318D01*
X813499Y64362D01*
X813461Y64446D01*
X813002Y65172D01*
X812967Y65209D01*
X812912Y65283D01*
X812301Y65887D01*
X812260Y65916D01*
X812189Y65976D01*
X811459Y66428D01*
X811412Y66446D01*
X811329Y66489D01*
X810516Y66766D01*
X810467Y66773D01*
X810377Y66796D01*
X809522Y66884D01*
X809491Y66882D01*
X809451Y66887D01*
X793195Y66714D01*
X793165Y66709D01*
X793124Y66710D01*
X792283Y66606D01*
X792235Y66591D01*
X792146Y66574D01*
X791348Y66287D01*
X791305Y66262D01*
X791222Y66225D01*
X790507Y65769D01*
X790470Y65735D01*
X790398Y65681D01*
X789802Y65078D01*
X789773Y65037D01*
X789714Y64968D01*
X789266Y64248D01*
X789247Y64202D01*
X789205Y64121D01*
X788927Y63321D01*
X788919Y63271D01*
X788896Y63183D01*
X788802Y62341D01*
X788804Y62310D01*
X788798Y62270D01*
X788798Y39878D01*
X788793Y39167D01*
X788801Y39117D01*
X788807Y39025D01*
X788962Y38326D01*
X788981Y38279D01*
X789008Y38192D01*
X789314Y37544D01*
X789343Y37503D01*
X789388Y37423D01*
X789831Y36860D01*
X789868Y36827D01*
X789931Y36759D01*
X790487Y36309D01*
X790531Y36284D01*
X790607Y36232D01*
X791250Y35917D01*
X791298Y35903D01*
X791383Y35869D01*
X792080Y35705D01*
X792131Y35702D01*
X792226Y35688D01*
X810006Y35688D01*
X810055Y35696D01*
G37*
G36*
X1530145Y35696D02*
X1530145Y35696D01*
X1530250Y35707D01*
X1531085Y35915D01*
X1531131Y35936D01*
X1531218Y35965D01*
X1531986Y36354D01*
X1532026Y36384D01*
X1532104Y36432D01*
X1532766Y36982D01*
X1532799Y37021D01*
X1532864Y37085D01*
X1533387Y37768D01*
X1533410Y37813D01*
X1533460Y37890D01*
X1533818Y38673D01*
X1533830Y38722D01*
X1533862Y38808D01*
X1534037Y39651D01*
X1534038Y39701D01*
X1534050Y39792D01*
X1534032Y40647D01*
X1534032Y62443D01*
X1534027Y62474D01*
X1534028Y62515D01*
X1533931Y63368D01*
X1533917Y63417D01*
X1533899Y63508D01*
X1533614Y64318D01*
X1533589Y64362D01*
X1533551Y64446D01*
X1533092Y65172D01*
X1533057Y65209D01*
X1533002Y65283D01*
X1532391Y65887D01*
X1532350Y65916D01*
X1532279Y65976D01*
X1531549Y66428D01*
X1531502Y66446D01*
X1531419Y66489D01*
X1530606Y66766D01*
X1530557Y66773D01*
X1530467Y66796D01*
X1529612Y66884D01*
X1529581Y66882D01*
X1529541Y66887D01*
X1513285Y66714D01*
X1513255Y66709D01*
X1513214Y66710D01*
X1512373Y66606D01*
X1512325Y66591D01*
X1512236Y66574D01*
X1511438Y66287D01*
X1511395Y66262D01*
X1511312Y66225D01*
X1510597Y65769D01*
X1510560Y65735D01*
X1510488Y65681D01*
X1509892Y65078D01*
X1509863Y65037D01*
X1509804Y64968D01*
X1509356Y64248D01*
X1509337Y64202D01*
X1509295Y64121D01*
X1509017Y63321D01*
X1509009Y63271D01*
X1508986Y63183D01*
X1508892Y62341D01*
X1508894Y62310D01*
X1508888Y62270D01*
X1508888Y39878D01*
X1508883Y39167D01*
X1508891Y39117D01*
X1508897Y39025D01*
X1509052Y38326D01*
X1509071Y38279D01*
X1509098Y38192D01*
X1509404Y37544D01*
X1509433Y37503D01*
X1509478Y37423D01*
X1509921Y36860D01*
X1509958Y36827D01*
X1510021Y36759D01*
X1510577Y36309D01*
X1510621Y36284D01*
X1510697Y36232D01*
X1511340Y35917D01*
X1511388Y35903D01*
X1511473Y35869D01*
X1512170Y35705D01*
X1512221Y35702D01*
X1512316Y35688D01*
X1530096Y35688D01*
X1530145Y35696D01*
G37*
G36*
X810055Y1214256D02*
X810055Y1214256D01*
X810160Y1214267D01*
X810995Y1214475D01*
X811041Y1214496D01*
X811128Y1214525D01*
X811896Y1214914D01*
X811936Y1214944D01*
X812014Y1214992D01*
X812676Y1215542D01*
X812709Y1215581D01*
X812774Y1215645D01*
X813297Y1216328D01*
X813320Y1216373D01*
X813370Y1216450D01*
X813728Y1217233D01*
X813740Y1217282D01*
X813772Y1217368D01*
X813947Y1218211D01*
X813948Y1218261D01*
X813960Y1218352D01*
X813942Y1219207D01*
X813942Y1241003D01*
X813937Y1241034D01*
X813938Y1241075D01*
X813841Y1241928D01*
X813827Y1241977D01*
X813809Y1242068D01*
X813524Y1242878D01*
X813499Y1242922D01*
X813461Y1243006D01*
X813002Y1243732D01*
X812967Y1243769D01*
X812912Y1243843D01*
X812301Y1244447D01*
X812260Y1244476D01*
X812189Y1244536D01*
X811459Y1244988D01*
X811412Y1245006D01*
X811329Y1245049D01*
X810516Y1245326D01*
X810467Y1245333D01*
X810377Y1245356D01*
X809522Y1245444D01*
X809491Y1245442D01*
X809451Y1245447D01*
X793195Y1245274D01*
X793165Y1245269D01*
X793124Y1245270D01*
X792283Y1245166D01*
X792235Y1245151D01*
X792146Y1245134D01*
X791348Y1244847D01*
X791305Y1244822D01*
X791222Y1244785D01*
X790507Y1244329D01*
X790470Y1244295D01*
X790398Y1244241D01*
X789802Y1243638D01*
X789773Y1243597D01*
X789714Y1243528D01*
X789266Y1242808D01*
X789247Y1242762D01*
X789205Y1242681D01*
X788927Y1241881D01*
X788919Y1241831D01*
X788896Y1241743D01*
X788802Y1240901D01*
X788804Y1240870D01*
X788798Y1240830D01*
X788798Y1218438D01*
X788793Y1217727D01*
X788801Y1217677D01*
X788807Y1217585D01*
X788962Y1216886D01*
X788981Y1216839D01*
X789008Y1216752D01*
X789314Y1216104D01*
X789343Y1216063D01*
X789388Y1215983D01*
X789831Y1215420D01*
X789868Y1215387D01*
X789931Y1215319D01*
X790487Y1214869D01*
X790531Y1214844D01*
X790607Y1214792D01*
X791250Y1214477D01*
X791298Y1214463D01*
X791383Y1214429D01*
X792080Y1214265D01*
X792131Y1214262D01*
X792226Y1214248D01*
X810006Y1214248D01*
X810055Y1214256D01*
G37*
G36*
X89965Y1214256D02*
X89965Y1214256D01*
X90070Y1214267D01*
X90905Y1214475D01*
X90951Y1214496D01*
X91038Y1214525D01*
X91806Y1214914D01*
X91846Y1214944D01*
X91924Y1214992D01*
X92586Y1215542D01*
X92619Y1215581D01*
X92684Y1215645D01*
X93207Y1216328D01*
X93230Y1216373D01*
X93280Y1216450D01*
X93638Y1217233D01*
X93650Y1217282D01*
X93682Y1217368D01*
X93857Y1218211D01*
X93858Y1218261D01*
X93870Y1218352D01*
X93852Y1219207D01*
X93852Y1241003D01*
X93847Y1241034D01*
X93848Y1241075D01*
X93751Y1241928D01*
X93737Y1241977D01*
X93719Y1242068D01*
X93434Y1242878D01*
X93409Y1242922D01*
X93371Y1243006D01*
X92912Y1243732D01*
X92877Y1243769D01*
X92822Y1243843D01*
X92211Y1244447D01*
X92170Y1244476D01*
X92099Y1244536D01*
X91369Y1244988D01*
X91322Y1245006D01*
X91239Y1245049D01*
X90426Y1245326D01*
X90377Y1245333D01*
X90287Y1245356D01*
X89432Y1245444D01*
X89401Y1245442D01*
X89361Y1245447D01*
X73105Y1245274D01*
X73075Y1245269D01*
X73034Y1245270D01*
X72193Y1245166D01*
X72145Y1245151D01*
X72056Y1245134D01*
X71258Y1244847D01*
X71215Y1244822D01*
X71132Y1244785D01*
X70417Y1244329D01*
X70380Y1244295D01*
X70308Y1244241D01*
X69712Y1243638D01*
X69683Y1243597D01*
X69624Y1243528D01*
X69176Y1242808D01*
X69157Y1242762D01*
X69115Y1242681D01*
X68837Y1241881D01*
X68829Y1241831D01*
X68806Y1241743D01*
X68712Y1240901D01*
X68714Y1240870D01*
X68708Y1240830D01*
X68708Y1218438D01*
X68703Y1217727D01*
X68711Y1217677D01*
X68717Y1217585D01*
X68872Y1216886D01*
X68891Y1216839D01*
X68918Y1216752D01*
X69224Y1216104D01*
X69253Y1216063D01*
X69298Y1215983D01*
X69741Y1215420D01*
X69778Y1215387D01*
X69841Y1215319D01*
X70397Y1214869D01*
X70441Y1214844D01*
X70517Y1214792D01*
X71160Y1214477D01*
X71208Y1214463D01*
X71293Y1214429D01*
X71990Y1214265D01*
X72041Y1214262D01*
X72136Y1214248D01*
X89916Y1214248D01*
X89965Y1214256D01*
G37*
G36*
X746555Y624976D02*
X746555Y624976D01*
X746660Y624987D01*
X747495Y625195D01*
X747541Y625216D01*
X747628Y625245D01*
X748396Y625634D01*
X748436Y625664D01*
X748514Y625712D01*
X749176Y626262D01*
X749209Y626301D01*
X749274Y626365D01*
X749797Y627048D01*
X749820Y627093D01*
X749870Y627170D01*
X750228Y627953D01*
X750240Y628002D01*
X750272Y628088D01*
X750447Y628931D01*
X750448Y628981D01*
X750460Y629072D01*
X750442Y629927D01*
X750442Y644652D01*
X750430Y644721D01*
X750430Y644723D01*
X750429Y644760D01*
X750428Y644761D01*
X750427Y644791D01*
X750410Y644830D01*
X750403Y644873D01*
X750367Y644933D01*
X750340Y644998D01*
X750310Y645029D01*
X750288Y645066D01*
X750234Y645110D01*
X750186Y645161D01*
X750148Y645180D01*
X750114Y645207D01*
X750048Y645230D01*
X749985Y645261D01*
X749936Y645268D01*
X749902Y645279D01*
X749860Y645278D01*
X749799Y645286D01*
X731003Y645032D01*
X730943Y645020D01*
X730881Y645019D01*
X730834Y644999D01*
X730783Y644990D01*
X730731Y644957D01*
X730674Y644934D01*
X730636Y644900D01*
X730592Y644873D01*
X730553Y644825D01*
X730508Y644783D01*
X730484Y644737D01*
X730453Y644697D01*
X730434Y644638D01*
X730405Y644583D01*
X730396Y644523D01*
X730384Y644483D01*
X730385Y644447D01*
X730378Y644398D01*
X730378Y629158D01*
X730373Y628447D01*
X730381Y628397D01*
X730387Y628305D01*
X730542Y627606D01*
X730561Y627559D01*
X730588Y627472D01*
X730894Y626824D01*
X730923Y626783D01*
X730968Y626703D01*
X731411Y626140D01*
X731448Y626107D01*
X731511Y626039D01*
X732067Y625589D01*
X732111Y625564D01*
X732187Y625512D01*
X732830Y625197D01*
X732878Y625183D01*
X732963Y625149D01*
X733660Y624985D01*
X733711Y624982D01*
X733806Y624968D01*
X746506Y624968D01*
X746555Y624976D01*
G37*
G36*
X1466645Y624976D02*
X1466645Y624976D01*
X1466750Y624987D01*
X1467585Y625195D01*
X1467631Y625216D01*
X1467718Y625245D01*
X1468486Y625634D01*
X1468526Y625664D01*
X1468604Y625712D01*
X1469266Y626262D01*
X1469299Y626301D01*
X1469364Y626365D01*
X1469887Y627048D01*
X1469910Y627093D01*
X1469960Y627170D01*
X1470318Y627953D01*
X1470330Y628002D01*
X1470362Y628088D01*
X1470537Y628931D01*
X1470538Y628981D01*
X1470550Y629072D01*
X1470532Y629927D01*
X1470532Y644652D01*
X1470520Y644721D01*
X1470520Y644723D01*
X1470519Y644760D01*
X1470518Y644761D01*
X1470517Y644791D01*
X1470500Y644830D01*
X1470493Y644873D01*
X1470457Y644933D01*
X1470430Y644998D01*
X1470400Y645029D01*
X1470378Y645066D01*
X1470324Y645110D01*
X1470276Y645161D01*
X1470238Y645180D01*
X1470204Y645207D01*
X1470138Y645230D01*
X1470075Y645261D01*
X1470026Y645268D01*
X1469992Y645279D01*
X1469950Y645278D01*
X1469889Y645286D01*
X1451093Y645032D01*
X1451033Y645020D01*
X1450971Y645019D01*
X1450924Y644999D01*
X1450873Y644990D01*
X1450821Y644957D01*
X1450764Y644934D01*
X1450726Y644900D01*
X1450682Y644873D01*
X1450643Y644825D01*
X1450598Y644783D01*
X1450574Y644737D01*
X1450543Y644697D01*
X1450524Y644638D01*
X1450495Y644583D01*
X1450486Y644523D01*
X1450474Y644483D01*
X1450475Y644447D01*
X1450468Y644398D01*
X1450468Y629158D01*
X1450463Y628447D01*
X1450471Y628397D01*
X1450477Y628305D01*
X1450632Y627606D01*
X1450651Y627559D01*
X1450678Y627472D01*
X1450984Y626824D01*
X1451013Y626783D01*
X1451058Y626703D01*
X1451501Y626140D01*
X1451538Y626107D01*
X1451601Y626039D01*
X1452157Y625589D01*
X1452201Y625564D01*
X1452277Y625512D01*
X1452920Y625197D01*
X1452968Y625183D01*
X1453053Y625149D01*
X1453750Y624985D01*
X1453801Y624982D01*
X1453896Y624968D01*
X1466596Y624968D01*
X1466645Y624976D01*
G37*
G36*
X26465Y624976D02*
X26465Y624976D01*
X26570Y624987D01*
X27405Y625195D01*
X27451Y625216D01*
X27538Y625245D01*
X28306Y625634D01*
X28346Y625664D01*
X28424Y625712D01*
X29086Y626262D01*
X29119Y626301D01*
X29184Y626365D01*
X29707Y627048D01*
X29730Y627093D01*
X29780Y627170D01*
X30138Y627953D01*
X30150Y628002D01*
X30182Y628088D01*
X30357Y628931D01*
X30358Y628981D01*
X30370Y629072D01*
X30352Y629927D01*
X30352Y644652D01*
X30340Y644721D01*
X30340Y644723D01*
X30339Y644760D01*
X30338Y644761D01*
X30337Y644791D01*
X30320Y644830D01*
X30313Y644873D01*
X30277Y644933D01*
X30250Y644998D01*
X30220Y645029D01*
X30198Y645066D01*
X30144Y645110D01*
X30096Y645161D01*
X30058Y645180D01*
X30024Y645207D01*
X29958Y645230D01*
X29895Y645261D01*
X29846Y645268D01*
X29812Y645279D01*
X29770Y645278D01*
X29709Y645286D01*
X10913Y645032D01*
X10853Y645020D01*
X10791Y645019D01*
X10744Y644999D01*
X10693Y644990D01*
X10641Y644957D01*
X10584Y644934D01*
X10546Y644900D01*
X10502Y644873D01*
X10463Y644825D01*
X10418Y644783D01*
X10394Y644737D01*
X10363Y644697D01*
X10344Y644638D01*
X10315Y644583D01*
X10306Y644523D01*
X10294Y644483D01*
X10295Y644447D01*
X10288Y644398D01*
X10288Y629158D01*
X10283Y628447D01*
X10291Y628397D01*
X10297Y628305D01*
X10452Y627606D01*
X10471Y627559D01*
X10498Y627472D01*
X10804Y626824D01*
X10833Y626783D01*
X10878Y626703D01*
X11321Y626140D01*
X11358Y626107D01*
X11421Y626039D01*
X11977Y625589D01*
X12021Y625564D01*
X12097Y625512D01*
X12740Y625197D01*
X12788Y625183D01*
X12873Y625149D01*
X13570Y624985D01*
X13621Y624982D01*
X13716Y624968D01*
X26416Y624968D01*
X26465Y624976D01*
G37*
G36*
X1466645Y35696D02*
X1466645Y35696D01*
X1466750Y35707D01*
X1467585Y35915D01*
X1467631Y35936D01*
X1467718Y35965D01*
X1468486Y36354D01*
X1468526Y36384D01*
X1468604Y36432D01*
X1469266Y36982D01*
X1469299Y37021D01*
X1469364Y37085D01*
X1469887Y37768D01*
X1469910Y37813D01*
X1469960Y37890D01*
X1470318Y38673D01*
X1470330Y38722D01*
X1470362Y38808D01*
X1470537Y39651D01*
X1470538Y39701D01*
X1470550Y39792D01*
X1470532Y40647D01*
X1470532Y55372D01*
X1470520Y55441D01*
X1470520Y55443D01*
X1470519Y55480D01*
X1470518Y55481D01*
X1470517Y55511D01*
X1470500Y55550D01*
X1470493Y55593D01*
X1470457Y55653D01*
X1470430Y55718D01*
X1470400Y55749D01*
X1470378Y55786D01*
X1470324Y55830D01*
X1470276Y55881D01*
X1470238Y55900D01*
X1470204Y55927D01*
X1470138Y55950D01*
X1470075Y55981D01*
X1470026Y55988D01*
X1469992Y55999D01*
X1469950Y55998D01*
X1469889Y56006D01*
X1451093Y55752D01*
X1451033Y55740D01*
X1450971Y55739D01*
X1450924Y55719D01*
X1450873Y55710D01*
X1450821Y55677D01*
X1450764Y55654D01*
X1450726Y55620D01*
X1450682Y55593D01*
X1450643Y55545D01*
X1450598Y55503D01*
X1450574Y55457D01*
X1450543Y55417D01*
X1450524Y55358D01*
X1450495Y55303D01*
X1450486Y55243D01*
X1450474Y55203D01*
X1450475Y55167D01*
X1450468Y55118D01*
X1450468Y39878D01*
X1450463Y39167D01*
X1450471Y39117D01*
X1450477Y39025D01*
X1450632Y38326D01*
X1450651Y38279D01*
X1450678Y38192D01*
X1450984Y37544D01*
X1451013Y37503D01*
X1451058Y37423D01*
X1451501Y36860D01*
X1451538Y36827D01*
X1451601Y36759D01*
X1452157Y36309D01*
X1452201Y36284D01*
X1452277Y36232D01*
X1452920Y35917D01*
X1452968Y35903D01*
X1453053Y35869D01*
X1453750Y35705D01*
X1453801Y35702D01*
X1453896Y35688D01*
X1466596Y35688D01*
X1466645Y35696D01*
G37*
G36*
X746555Y35696D02*
X746555Y35696D01*
X746660Y35707D01*
X747495Y35915D01*
X747541Y35936D01*
X747628Y35965D01*
X748396Y36354D01*
X748436Y36384D01*
X748514Y36432D01*
X749176Y36982D01*
X749209Y37021D01*
X749274Y37085D01*
X749797Y37768D01*
X749820Y37813D01*
X749870Y37890D01*
X750228Y38673D01*
X750240Y38722D01*
X750272Y38808D01*
X750447Y39651D01*
X750448Y39701D01*
X750460Y39792D01*
X750442Y40647D01*
X750442Y55372D01*
X750430Y55441D01*
X750430Y55443D01*
X750429Y55480D01*
X750428Y55481D01*
X750427Y55511D01*
X750410Y55550D01*
X750403Y55593D01*
X750367Y55653D01*
X750340Y55718D01*
X750310Y55749D01*
X750288Y55786D01*
X750234Y55830D01*
X750186Y55881D01*
X750148Y55900D01*
X750114Y55927D01*
X750048Y55950D01*
X749985Y55981D01*
X749936Y55988D01*
X749902Y55999D01*
X749860Y55998D01*
X749799Y56006D01*
X731003Y55752D01*
X730943Y55740D01*
X730881Y55739D01*
X730834Y55719D01*
X730783Y55710D01*
X730731Y55677D01*
X730674Y55654D01*
X730636Y55620D01*
X730592Y55593D01*
X730553Y55545D01*
X730508Y55503D01*
X730484Y55457D01*
X730453Y55417D01*
X730434Y55358D01*
X730405Y55303D01*
X730396Y55243D01*
X730384Y55203D01*
X730385Y55167D01*
X730378Y55118D01*
X730378Y39878D01*
X730373Y39167D01*
X730381Y39117D01*
X730387Y39025D01*
X730542Y38326D01*
X730561Y38279D01*
X730588Y38192D01*
X730894Y37544D01*
X730923Y37503D01*
X730968Y37423D01*
X731411Y36860D01*
X731448Y36827D01*
X731511Y36759D01*
X732067Y36309D01*
X732111Y36284D01*
X732187Y36232D01*
X732830Y35917D01*
X732878Y35903D01*
X732963Y35869D01*
X733660Y35705D01*
X733711Y35702D01*
X733806Y35688D01*
X746506Y35688D01*
X746555Y35696D01*
G37*
G36*
X1466645Y1214256D02*
X1466645Y1214256D01*
X1466750Y1214267D01*
X1467585Y1214475D01*
X1467631Y1214496D01*
X1467718Y1214525D01*
X1468486Y1214914D01*
X1468526Y1214944D01*
X1468604Y1214992D01*
X1469266Y1215542D01*
X1469299Y1215581D01*
X1469364Y1215645D01*
X1469887Y1216328D01*
X1469910Y1216373D01*
X1469960Y1216450D01*
X1470318Y1217233D01*
X1470330Y1217282D01*
X1470362Y1217368D01*
X1470537Y1218211D01*
X1470538Y1218261D01*
X1470550Y1218352D01*
X1470532Y1219207D01*
X1470532Y1233932D01*
X1470520Y1234001D01*
X1470520Y1234003D01*
X1470519Y1234040D01*
X1470518Y1234041D01*
X1470517Y1234071D01*
X1470500Y1234110D01*
X1470493Y1234153D01*
X1470457Y1234213D01*
X1470430Y1234278D01*
X1470400Y1234309D01*
X1470378Y1234346D01*
X1470324Y1234390D01*
X1470276Y1234441D01*
X1470238Y1234460D01*
X1470204Y1234487D01*
X1470138Y1234510D01*
X1470075Y1234541D01*
X1470026Y1234548D01*
X1469992Y1234559D01*
X1469950Y1234558D01*
X1469889Y1234566D01*
X1451093Y1234312D01*
X1451033Y1234300D01*
X1450971Y1234299D01*
X1450924Y1234279D01*
X1450873Y1234270D01*
X1450821Y1234237D01*
X1450764Y1234214D01*
X1450726Y1234180D01*
X1450682Y1234153D01*
X1450643Y1234105D01*
X1450598Y1234063D01*
X1450574Y1234017D01*
X1450543Y1233977D01*
X1450524Y1233918D01*
X1450495Y1233863D01*
X1450486Y1233803D01*
X1450474Y1233763D01*
X1450475Y1233727D01*
X1450468Y1233678D01*
X1450468Y1218438D01*
X1450463Y1217727D01*
X1450471Y1217677D01*
X1450477Y1217585D01*
X1450632Y1216886D01*
X1450651Y1216839D01*
X1450678Y1216752D01*
X1450984Y1216104D01*
X1451013Y1216063D01*
X1451058Y1215983D01*
X1451501Y1215420D01*
X1451538Y1215387D01*
X1451601Y1215319D01*
X1452157Y1214869D01*
X1452201Y1214844D01*
X1452277Y1214792D01*
X1452920Y1214477D01*
X1452968Y1214463D01*
X1453053Y1214429D01*
X1453750Y1214265D01*
X1453801Y1214262D01*
X1453896Y1214248D01*
X1466596Y1214248D01*
X1466645Y1214256D01*
G37*
G36*
X746555Y1214256D02*
X746555Y1214256D01*
X746660Y1214267D01*
X747495Y1214475D01*
X747541Y1214496D01*
X747628Y1214525D01*
X748396Y1214914D01*
X748436Y1214944D01*
X748514Y1214992D01*
X749176Y1215542D01*
X749209Y1215581D01*
X749274Y1215645D01*
X749797Y1216328D01*
X749820Y1216373D01*
X749870Y1216450D01*
X750228Y1217233D01*
X750240Y1217282D01*
X750272Y1217368D01*
X750447Y1218211D01*
X750448Y1218261D01*
X750460Y1218352D01*
X750442Y1219207D01*
X750442Y1233932D01*
X750430Y1234001D01*
X750430Y1234003D01*
X750429Y1234040D01*
X750428Y1234041D01*
X750427Y1234071D01*
X750410Y1234110D01*
X750403Y1234153D01*
X750367Y1234213D01*
X750340Y1234278D01*
X750310Y1234309D01*
X750288Y1234346D01*
X750234Y1234390D01*
X750186Y1234441D01*
X750148Y1234460D01*
X750114Y1234487D01*
X750048Y1234510D01*
X749985Y1234541D01*
X749936Y1234548D01*
X749902Y1234559D01*
X749860Y1234558D01*
X749799Y1234566D01*
X731003Y1234312D01*
X730943Y1234300D01*
X730881Y1234299D01*
X730834Y1234279D01*
X730783Y1234270D01*
X730731Y1234237D01*
X730674Y1234214D01*
X730636Y1234180D01*
X730592Y1234153D01*
X730553Y1234105D01*
X730508Y1234063D01*
X730484Y1234017D01*
X730453Y1233977D01*
X730434Y1233918D01*
X730405Y1233863D01*
X730396Y1233803D01*
X730384Y1233763D01*
X730385Y1233727D01*
X730378Y1233678D01*
X730378Y1218438D01*
X730373Y1217727D01*
X730381Y1217677D01*
X730387Y1217585D01*
X730542Y1216886D01*
X730561Y1216839D01*
X730588Y1216752D01*
X730894Y1216104D01*
X730923Y1216063D01*
X730968Y1215983D01*
X731411Y1215420D01*
X731448Y1215387D01*
X731511Y1215319D01*
X732067Y1214869D01*
X732111Y1214844D01*
X732187Y1214792D01*
X732830Y1214477D01*
X732878Y1214463D01*
X732963Y1214429D01*
X733660Y1214265D01*
X733711Y1214262D01*
X733806Y1214248D01*
X746506Y1214248D01*
X746555Y1214256D01*
G37*
G36*
X26465Y1214256D02*
X26465Y1214256D01*
X26570Y1214267D01*
X27405Y1214475D01*
X27451Y1214496D01*
X27538Y1214525D01*
X28306Y1214914D01*
X28346Y1214944D01*
X28424Y1214992D01*
X29086Y1215542D01*
X29119Y1215581D01*
X29184Y1215645D01*
X29707Y1216328D01*
X29730Y1216373D01*
X29780Y1216450D01*
X30138Y1217233D01*
X30150Y1217282D01*
X30182Y1217368D01*
X30357Y1218211D01*
X30358Y1218261D01*
X30370Y1218352D01*
X30352Y1219207D01*
X30352Y1233932D01*
X30340Y1234001D01*
X30340Y1234003D01*
X30339Y1234040D01*
X30338Y1234041D01*
X30337Y1234071D01*
X30320Y1234110D01*
X30313Y1234153D01*
X30277Y1234213D01*
X30250Y1234278D01*
X30220Y1234309D01*
X30198Y1234346D01*
X30144Y1234390D01*
X30096Y1234441D01*
X30058Y1234460D01*
X30024Y1234487D01*
X29958Y1234510D01*
X29895Y1234541D01*
X29846Y1234548D01*
X29812Y1234559D01*
X29770Y1234558D01*
X29709Y1234566D01*
X10913Y1234312D01*
X10853Y1234300D01*
X10791Y1234299D01*
X10744Y1234279D01*
X10693Y1234270D01*
X10641Y1234237D01*
X10584Y1234214D01*
X10546Y1234180D01*
X10502Y1234153D01*
X10463Y1234105D01*
X10418Y1234063D01*
X10394Y1234017D01*
X10363Y1233977D01*
X10344Y1233918D01*
X10315Y1233863D01*
X10306Y1233803D01*
X10294Y1233763D01*
X10295Y1233727D01*
X10288Y1233678D01*
X10288Y1218438D01*
X10283Y1217727D01*
X10291Y1217677D01*
X10297Y1217585D01*
X10452Y1216886D01*
X10471Y1216839D01*
X10498Y1216752D01*
X10804Y1216104D01*
X10833Y1216063D01*
X10878Y1215983D01*
X11321Y1215420D01*
X11358Y1215387D01*
X11421Y1215319D01*
X11977Y1214869D01*
X12021Y1214844D01*
X12097Y1214792D01*
X12740Y1214477D01*
X12788Y1214463D01*
X12873Y1214429D01*
X13570Y1214265D01*
X13621Y1214262D01*
X13716Y1214248D01*
X26416Y1214248D01*
X26465Y1214256D01*
G37*
G36*
X26465Y35696D02*
X26465Y35696D01*
X26570Y35707D01*
X27405Y35915D01*
X27451Y35936D01*
X27538Y35965D01*
X28306Y36354D01*
X28346Y36384D01*
X28424Y36432D01*
X29086Y36982D01*
X29119Y37021D01*
X29184Y37085D01*
X29707Y37768D01*
X29730Y37813D01*
X29780Y37890D01*
X30138Y38673D01*
X30150Y38722D01*
X30182Y38808D01*
X30357Y39651D01*
X30358Y39701D01*
X30370Y39792D01*
X30352Y40647D01*
X30352Y55372D01*
X30340Y55441D01*
X30340Y55443D01*
X30339Y55480D01*
X30338Y55481D01*
X30337Y55511D01*
X30320Y55550D01*
X30313Y55593D01*
X30277Y55653D01*
X30250Y55718D01*
X30220Y55749D01*
X30198Y55786D01*
X30144Y55830D01*
X30096Y55881D01*
X30058Y55900D01*
X30024Y55927D01*
X29958Y55950D01*
X29895Y55981D01*
X29846Y55988D01*
X29812Y55999D01*
X29770Y55998D01*
X29709Y56006D01*
X10913Y55752D01*
X10853Y55740D01*
X10791Y55739D01*
X10744Y55719D01*
X10693Y55710D01*
X10641Y55677D01*
X10584Y55654D01*
X10546Y55620D01*
X10502Y55593D01*
X10463Y55545D01*
X10418Y55503D01*
X10394Y55457D01*
X10363Y55417D01*
X10344Y55358D01*
X10315Y55303D01*
X10306Y55243D01*
X10294Y55203D01*
X10295Y55167D01*
X10288Y55118D01*
X10288Y39878D01*
X10283Y39167D01*
X10291Y39117D01*
X10297Y39025D01*
X10452Y38326D01*
X10471Y38279D01*
X10498Y38192D01*
X10804Y37544D01*
X10833Y37503D01*
X10878Y37423D01*
X11321Y36860D01*
X11358Y36827D01*
X11421Y36759D01*
X11977Y36309D01*
X12021Y36284D01*
X12097Y36232D01*
X12740Y35917D01*
X12788Y35903D01*
X12873Y35869D01*
X13570Y35705D01*
X13621Y35702D01*
X13716Y35688D01*
X26416Y35688D01*
X26465Y35696D01*
G37*
G36*
X29727Y167768D02*
X29727Y167768D01*
X29787Y167780D01*
X29849Y167781D01*
X29896Y167801D01*
X29947Y167810D01*
X30000Y167843D01*
X30056Y167866D01*
X30094Y167900D01*
X30138Y167927D01*
X30177Y167975D01*
X30222Y168017D01*
X30246Y168063D01*
X30278Y168103D01*
X30296Y168162D01*
X30325Y168217D01*
X30334Y168277D01*
X30347Y168317D01*
X30345Y168353D01*
X30352Y168402D01*
X30352Y183642D01*
X30357Y184353D01*
X30349Y184403D01*
X30343Y184495D01*
X30188Y185194D01*
X30169Y185241D01*
X30142Y185328D01*
X29836Y185976D01*
X29807Y186017D01*
X29762Y186097D01*
X29319Y186660D01*
X29282Y186693D01*
X29220Y186761D01*
X28663Y187211D01*
X28619Y187236D01*
X28543Y187288D01*
X27900Y187603D01*
X27852Y187617D01*
X27767Y187651D01*
X27070Y187815D01*
X27019Y187818D01*
X26924Y187832D01*
X14224Y187832D01*
X14175Y187824D01*
X14070Y187813D01*
X13235Y187605D01*
X13189Y187584D01*
X13102Y187555D01*
X12334Y187166D01*
X12294Y187136D01*
X12216Y187088D01*
X11554Y186538D01*
X11521Y186499D01*
X11456Y186435D01*
X10933Y185752D01*
X10910Y185707D01*
X10860Y185630D01*
X10502Y184847D01*
X10490Y184798D01*
X10458Y184712D01*
X10283Y183869D01*
X10282Y183819D01*
X10270Y183728D01*
X10288Y182873D01*
X10288Y168148D01*
X10300Y168079D01*
X10303Y168009D01*
X10320Y167970D01*
X10327Y167927D01*
X10363Y167867D01*
X10390Y167802D01*
X10420Y167771D01*
X10442Y167734D01*
X10496Y167690D01*
X10544Y167639D01*
X10582Y167620D01*
X10616Y167593D01*
X10682Y167570D01*
X10745Y167539D01*
X10794Y167532D01*
X10828Y167521D01*
X10870Y167522D01*
X10931Y167514D01*
X29727Y167768D01*
G37*
G36*
X29727Y757048D02*
X29727Y757048D01*
X29787Y757060D01*
X29849Y757061D01*
X29896Y757081D01*
X29947Y757090D01*
X30000Y757123D01*
X30056Y757146D01*
X30094Y757180D01*
X30138Y757207D01*
X30177Y757255D01*
X30222Y757297D01*
X30246Y757343D01*
X30278Y757383D01*
X30296Y757442D01*
X30325Y757497D01*
X30334Y757557D01*
X30347Y757597D01*
X30345Y757633D01*
X30352Y757682D01*
X30352Y772922D01*
X30357Y773633D01*
X30349Y773683D01*
X30343Y773775D01*
X30188Y774474D01*
X30169Y774521D01*
X30142Y774608D01*
X29836Y775256D01*
X29807Y775297D01*
X29762Y775377D01*
X29319Y775940D01*
X29282Y775973D01*
X29220Y776041D01*
X28663Y776491D01*
X28619Y776516D01*
X28543Y776568D01*
X27900Y776883D01*
X27852Y776897D01*
X27767Y776931D01*
X27070Y777095D01*
X27019Y777098D01*
X26924Y777112D01*
X14224Y777112D01*
X14175Y777104D01*
X14070Y777093D01*
X13235Y776885D01*
X13189Y776864D01*
X13102Y776835D01*
X12334Y776446D01*
X12294Y776416D01*
X12216Y776368D01*
X11554Y775818D01*
X11521Y775779D01*
X11456Y775715D01*
X10933Y775032D01*
X10910Y774987D01*
X10860Y774910D01*
X10502Y774127D01*
X10490Y774078D01*
X10458Y773992D01*
X10283Y773149D01*
X10282Y773099D01*
X10270Y773008D01*
X10288Y772153D01*
X10288Y757428D01*
X10300Y757359D01*
X10303Y757289D01*
X10320Y757250D01*
X10327Y757207D01*
X10363Y757147D01*
X10390Y757082D01*
X10420Y757051D01*
X10442Y757014D01*
X10496Y756970D01*
X10544Y756919D01*
X10582Y756900D01*
X10616Y756873D01*
X10682Y756850D01*
X10745Y756819D01*
X10794Y756812D01*
X10828Y756801D01*
X10870Y756802D01*
X10931Y756794D01*
X29727Y757048D01*
G37*
G36*
X1469907Y757048D02*
X1469907Y757048D01*
X1469967Y757060D01*
X1470029Y757061D01*
X1470076Y757081D01*
X1470127Y757090D01*
X1470180Y757123D01*
X1470236Y757146D01*
X1470274Y757180D01*
X1470318Y757207D01*
X1470357Y757255D01*
X1470402Y757297D01*
X1470426Y757343D01*
X1470458Y757383D01*
X1470476Y757442D01*
X1470505Y757497D01*
X1470514Y757557D01*
X1470527Y757597D01*
X1470525Y757633D01*
X1470532Y757682D01*
X1470532Y772922D01*
X1470537Y773633D01*
X1470529Y773683D01*
X1470523Y773775D01*
X1470368Y774474D01*
X1470349Y774521D01*
X1470322Y774608D01*
X1470016Y775256D01*
X1469987Y775297D01*
X1469942Y775377D01*
X1469499Y775940D01*
X1469462Y775973D01*
X1469400Y776041D01*
X1468843Y776491D01*
X1468799Y776516D01*
X1468723Y776568D01*
X1468080Y776883D01*
X1468032Y776897D01*
X1467947Y776931D01*
X1467250Y777095D01*
X1467199Y777098D01*
X1467104Y777112D01*
X1454404Y777112D01*
X1454355Y777104D01*
X1454250Y777093D01*
X1453415Y776885D01*
X1453369Y776864D01*
X1453282Y776835D01*
X1452514Y776446D01*
X1452474Y776416D01*
X1452396Y776368D01*
X1451734Y775818D01*
X1451701Y775779D01*
X1451636Y775715D01*
X1451113Y775032D01*
X1451090Y774987D01*
X1451040Y774910D01*
X1450682Y774127D01*
X1450670Y774078D01*
X1450638Y773992D01*
X1450463Y773149D01*
X1450462Y773099D01*
X1450450Y773008D01*
X1450468Y772153D01*
X1450468Y757428D01*
X1450480Y757359D01*
X1450483Y757289D01*
X1450500Y757250D01*
X1450507Y757207D01*
X1450543Y757147D01*
X1450570Y757082D01*
X1450600Y757051D01*
X1450622Y757014D01*
X1450676Y756970D01*
X1450724Y756919D01*
X1450762Y756900D01*
X1450796Y756873D01*
X1450862Y756850D01*
X1450925Y756819D01*
X1450974Y756812D01*
X1451008Y756801D01*
X1451050Y756802D01*
X1451111Y756794D01*
X1469907Y757048D01*
G37*
G36*
X1469907Y167768D02*
X1469907Y167768D01*
X1469967Y167780D01*
X1470029Y167781D01*
X1470076Y167801D01*
X1470127Y167810D01*
X1470180Y167843D01*
X1470236Y167866D01*
X1470274Y167900D01*
X1470318Y167927D01*
X1470357Y167975D01*
X1470402Y168017D01*
X1470426Y168063D01*
X1470458Y168103D01*
X1470476Y168162D01*
X1470505Y168217D01*
X1470514Y168277D01*
X1470527Y168317D01*
X1470525Y168353D01*
X1470532Y168402D01*
X1470532Y183642D01*
X1470537Y184353D01*
X1470529Y184403D01*
X1470523Y184495D01*
X1470368Y185194D01*
X1470349Y185241D01*
X1470322Y185328D01*
X1470016Y185976D01*
X1469987Y186017D01*
X1469942Y186097D01*
X1469499Y186660D01*
X1469462Y186693D01*
X1469400Y186761D01*
X1468843Y187211D01*
X1468799Y187236D01*
X1468723Y187288D01*
X1468080Y187603D01*
X1468032Y187617D01*
X1467947Y187651D01*
X1467250Y187815D01*
X1467199Y187818D01*
X1467104Y187832D01*
X1454404Y187832D01*
X1454355Y187824D01*
X1454250Y187813D01*
X1453415Y187605D01*
X1453369Y187584D01*
X1453282Y187555D01*
X1452514Y187166D01*
X1452474Y187136D01*
X1452396Y187088D01*
X1451734Y186538D01*
X1451701Y186499D01*
X1451636Y186435D01*
X1451113Y185752D01*
X1451090Y185707D01*
X1451040Y185630D01*
X1450682Y184847D01*
X1450670Y184798D01*
X1450638Y184712D01*
X1450463Y183869D01*
X1450462Y183819D01*
X1450450Y183728D01*
X1450468Y182873D01*
X1450468Y168148D01*
X1450480Y168079D01*
X1450483Y168009D01*
X1450500Y167970D01*
X1450507Y167927D01*
X1450543Y167867D01*
X1450570Y167802D01*
X1450600Y167771D01*
X1450622Y167734D01*
X1450676Y167690D01*
X1450724Y167639D01*
X1450762Y167620D01*
X1450796Y167593D01*
X1450862Y167570D01*
X1450925Y167539D01*
X1450974Y167532D01*
X1451008Y167521D01*
X1451050Y167522D01*
X1451111Y167514D01*
X1469907Y167768D01*
G37*
G36*
X749817Y167768D02*
X749817Y167768D01*
X749877Y167780D01*
X749939Y167781D01*
X749986Y167801D01*
X750037Y167810D01*
X750090Y167843D01*
X750146Y167866D01*
X750184Y167900D01*
X750228Y167927D01*
X750267Y167975D01*
X750312Y168017D01*
X750336Y168063D01*
X750368Y168103D01*
X750386Y168162D01*
X750415Y168217D01*
X750424Y168277D01*
X750437Y168317D01*
X750435Y168353D01*
X750442Y168402D01*
X750442Y183642D01*
X750447Y184353D01*
X750439Y184403D01*
X750433Y184495D01*
X750278Y185194D01*
X750259Y185241D01*
X750232Y185328D01*
X749926Y185976D01*
X749897Y186017D01*
X749852Y186097D01*
X749409Y186660D01*
X749372Y186693D01*
X749310Y186761D01*
X748753Y187211D01*
X748709Y187236D01*
X748633Y187288D01*
X747990Y187603D01*
X747942Y187617D01*
X747857Y187651D01*
X747160Y187815D01*
X747109Y187818D01*
X747014Y187832D01*
X734314Y187832D01*
X734265Y187824D01*
X734160Y187813D01*
X733325Y187605D01*
X733279Y187584D01*
X733192Y187555D01*
X732424Y187166D01*
X732384Y187136D01*
X732306Y187088D01*
X731644Y186538D01*
X731611Y186499D01*
X731546Y186435D01*
X731023Y185752D01*
X731000Y185707D01*
X730950Y185630D01*
X730592Y184847D01*
X730580Y184798D01*
X730548Y184712D01*
X730373Y183869D01*
X730372Y183819D01*
X730360Y183728D01*
X730378Y182873D01*
X730378Y168148D01*
X730390Y168079D01*
X730393Y168009D01*
X730410Y167970D01*
X730417Y167927D01*
X730453Y167867D01*
X730480Y167802D01*
X730510Y167771D01*
X730532Y167734D01*
X730586Y167690D01*
X730634Y167639D01*
X730672Y167620D01*
X730706Y167593D01*
X730772Y167570D01*
X730835Y167539D01*
X730884Y167532D01*
X730918Y167521D01*
X730960Y167522D01*
X731021Y167514D01*
X749817Y167768D01*
G37*
G36*
X749817Y757048D02*
X749817Y757048D01*
X749877Y757060D01*
X749939Y757061D01*
X749986Y757081D01*
X750037Y757090D01*
X750090Y757123D01*
X750146Y757146D01*
X750184Y757180D01*
X750228Y757207D01*
X750267Y757255D01*
X750312Y757297D01*
X750336Y757343D01*
X750368Y757383D01*
X750386Y757442D01*
X750415Y757497D01*
X750424Y757557D01*
X750437Y757597D01*
X750435Y757633D01*
X750442Y757682D01*
X750442Y772922D01*
X750447Y773633D01*
X750439Y773683D01*
X750433Y773775D01*
X750278Y774474D01*
X750259Y774521D01*
X750232Y774608D01*
X749926Y775256D01*
X749897Y775297D01*
X749852Y775377D01*
X749409Y775940D01*
X749372Y775973D01*
X749310Y776041D01*
X748753Y776491D01*
X748709Y776516D01*
X748633Y776568D01*
X747990Y776883D01*
X747942Y776897D01*
X747857Y776931D01*
X747160Y777095D01*
X747109Y777098D01*
X747014Y777112D01*
X734314Y777112D01*
X734265Y777104D01*
X734160Y777093D01*
X733325Y776885D01*
X733279Y776864D01*
X733192Y776835D01*
X732424Y776446D01*
X732384Y776416D01*
X732306Y776368D01*
X731644Y775818D01*
X731611Y775779D01*
X731546Y775715D01*
X731023Y775032D01*
X731000Y774987D01*
X730950Y774910D01*
X730592Y774127D01*
X730580Y774078D01*
X730548Y773992D01*
X730373Y773149D01*
X730372Y773099D01*
X730360Y773008D01*
X730378Y772153D01*
X730378Y757428D01*
X730390Y757359D01*
X730393Y757289D01*
X730410Y757250D01*
X730417Y757207D01*
X730453Y757147D01*
X730480Y757082D01*
X730510Y757051D01*
X730532Y757014D01*
X730586Y756970D01*
X730634Y756919D01*
X730672Y756900D01*
X730706Y756873D01*
X730772Y756850D01*
X730835Y756819D01*
X730884Y756812D01*
X730918Y756801D01*
X730960Y756802D01*
X731021Y756794D01*
X749817Y757048D01*
G37*
G36*
X1469907Y1346328D02*
X1469907Y1346328D01*
X1469967Y1346340D01*
X1470029Y1346341D01*
X1470076Y1346361D01*
X1470127Y1346370D01*
X1470180Y1346403D01*
X1470236Y1346426D01*
X1470274Y1346460D01*
X1470318Y1346487D01*
X1470357Y1346535D01*
X1470402Y1346577D01*
X1470426Y1346623D01*
X1470458Y1346663D01*
X1470476Y1346722D01*
X1470505Y1346777D01*
X1470514Y1346837D01*
X1470527Y1346877D01*
X1470525Y1346913D01*
X1470532Y1346962D01*
X1470532Y1362202D01*
X1470537Y1362913D01*
X1470529Y1362963D01*
X1470523Y1363055D01*
X1470368Y1363754D01*
X1470349Y1363801D01*
X1470322Y1363888D01*
X1470016Y1364536D01*
X1469987Y1364577D01*
X1469942Y1364657D01*
X1469499Y1365220D01*
X1469462Y1365253D01*
X1469400Y1365321D01*
X1468843Y1365771D01*
X1468799Y1365796D01*
X1468723Y1365848D01*
X1468080Y1366163D01*
X1468032Y1366177D01*
X1467947Y1366211D01*
X1467250Y1366375D01*
X1467199Y1366378D01*
X1467104Y1366392D01*
X1454404Y1366392D01*
X1454355Y1366384D01*
X1454250Y1366373D01*
X1453415Y1366165D01*
X1453369Y1366144D01*
X1453282Y1366115D01*
X1452514Y1365726D01*
X1452474Y1365696D01*
X1452396Y1365648D01*
X1451734Y1365098D01*
X1451701Y1365059D01*
X1451636Y1364995D01*
X1451113Y1364312D01*
X1451090Y1364267D01*
X1451040Y1364190D01*
X1450682Y1363407D01*
X1450670Y1363358D01*
X1450638Y1363272D01*
X1450463Y1362429D01*
X1450462Y1362379D01*
X1450450Y1362288D01*
X1450468Y1361433D01*
X1450468Y1346708D01*
X1450480Y1346639D01*
X1450483Y1346569D01*
X1450500Y1346530D01*
X1450507Y1346487D01*
X1450543Y1346427D01*
X1450570Y1346362D01*
X1450600Y1346331D01*
X1450622Y1346294D01*
X1450676Y1346250D01*
X1450724Y1346199D01*
X1450762Y1346180D01*
X1450796Y1346153D01*
X1450862Y1346130D01*
X1450925Y1346099D01*
X1450974Y1346092D01*
X1451008Y1346081D01*
X1451050Y1346082D01*
X1451111Y1346074D01*
X1469907Y1346328D01*
G37*
G36*
X749817Y1346328D02*
X749817Y1346328D01*
X749877Y1346340D01*
X749939Y1346341D01*
X749986Y1346361D01*
X750037Y1346370D01*
X750090Y1346403D01*
X750146Y1346426D01*
X750184Y1346460D01*
X750228Y1346487D01*
X750267Y1346535D01*
X750312Y1346577D01*
X750336Y1346623D01*
X750368Y1346663D01*
X750386Y1346722D01*
X750415Y1346777D01*
X750424Y1346837D01*
X750437Y1346877D01*
X750435Y1346913D01*
X750442Y1346962D01*
X750442Y1362202D01*
X750447Y1362913D01*
X750439Y1362963D01*
X750433Y1363055D01*
X750278Y1363754D01*
X750259Y1363801D01*
X750232Y1363888D01*
X749926Y1364536D01*
X749897Y1364577D01*
X749852Y1364657D01*
X749409Y1365220D01*
X749372Y1365253D01*
X749310Y1365321D01*
X748753Y1365771D01*
X748709Y1365796D01*
X748633Y1365848D01*
X747990Y1366163D01*
X747942Y1366177D01*
X747857Y1366211D01*
X747160Y1366375D01*
X747109Y1366378D01*
X747014Y1366392D01*
X734314Y1366392D01*
X734265Y1366384D01*
X734160Y1366373D01*
X733325Y1366165D01*
X733279Y1366144D01*
X733192Y1366115D01*
X732424Y1365726D01*
X732384Y1365696D01*
X732306Y1365648D01*
X731644Y1365098D01*
X731611Y1365059D01*
X731546Y1364995D01*
X731023Y1364312D01*
X731000Y1364267D01*
X730950Y1364190D01*
X730592Y1363407D01*
X730580Y1363358D01*
X730548Y1363272D01*
X730373Y1362429D01*
X730372Y1362379D01*
X730360Y1362288D01*
X730378Y1361433D01*
X730378Y1346708D01*
X730390Y1346639D01*
X730393Y1346569D01*
X730410Y1346530D01*
X730417Y1346487D01*
X730453Y1346427D01*
X730480Y1346362D01*
X730510Y1346331D01*
X730532Y1346294D01*
X730586Y1346250D01*
X730634Y1346199D01*
X730672Y1346180D01*
X730706Y1346153D01*
X730772Y1346130D01*
X730835Y1346099D01*
X730884Y1346092D01*
X730918Y1346081D01*
X730960Y1346082D01*
X731021Y1346074D01*
X749817Y1346328D01*
G37*
G36*
X29727Y1346328D02*
X29727Y1346328D01*
X29787Y1346340D01*
X29849Y1346341D01*
X29896Y1346361D01*
X29947Y1346370D01*
X30000Y1346403D01*
X30056Y1346426D01*
X30094Y1346460D01*
X30138Y1346487D01*
X30177Y1346535D01*
X30222Y1346577D01*
X30246Y1346623D01*
X30278Y1346663D01*
X30296Y1346722D01*
X30325Y1346777D01*
X30334Y1346837D01*
X30347Y1346877D01*
X30345Y1346913D01*
X30352Y1346962D01*
X30352Y1362202D01*
X30357Y1362913D01*
X30349Y1362963D01*
X30343Y1363055D01*
X30188Y1363754D01*
X30169Y1363801D01*
X30142Y1363888D01*
X29836Y1364536D01*
X29807Y1364577D01*
X29762Y1364657D01*
X29319Y1365220D01*
X29282Y1365253D01*
X29220Y1365321D01*
X28663Y1365771D01*
X28619Y1365796D01*
X28543Y1365848D01*
X27900Y1366163D01*
X27852Y1366177D01*
X27767Y1366211D01*
X27070Y1366375D01*
X27019Y1366378D01*
X26924Y1366392D01*
X14224Y1366392D01*
X14175Y1366384D01*
X14070Y1366373D01*
X13235Y1366165D01*
X13189Y1366144D01*
X13102Y1366115D01*
X12334Y1365726D01*
X12294Y1365696D01*
X12216Y1365648D01*
X11554Y1365098D01*
X11521Y1365059D01*
X11456Y1364995D01*
X10933Y1364312D01*
X10910Y1364267D01*
X10860Y1364190D01*
X10502Y1363407D01*
X10490Y1363358D01*
X10458Y1363272D01*
X10283Y1362429D01*
X10282Y1362379D01*
X10270Y1362288D01*
X10288Y1361433D01*
X10288Y1346708D01*
X10300Y1346639D01*
X10303Y1346569D01*
X10320Y1346530D01*
X10327Y1346487D01*
X10363Y1346427D01*
X10390Y1346362D01*
X10420Y1346331D01*
X10442Y1346294D01*
X10496Y1346250D01*
X10544Y1346199D01*
X10582Y1346180D01*
X10616Y1346153D01*
X10682Y1346130D01*
X10745Y1346099D01*
X10794Y1346092D01*
X10828Y1346081D01*
X10870Y1346082D01*
X10931Y1346074D01*
X29727Y1346328D01*
G37*
G36*
X60304Y1634814D02*
X60304Y1634814D01*
X60307Y1634811D01*
X61429Y1634966D01*
X61434Y1634971D01*
X61438Y1634968D01*
X62509Y1635339D01*
X62513Y1635345D01*
X62518Y1635343D01*
X63495Y1635916D01*
X63498Y1635922D01*
X63503Y1635921D01*
X64350Y1636674D01*
X64352Y1636681D01*
X64357Y1636681D01*
X65041Y1637584D01*
X65041Y1637591D01*
X65046Y1637592D01*
X65541Y1638611D01*
X65539Y1638618D01*
X65544Y1638620D01*
X65831Y1639717D01*
X65829Y1639721D01*
X65831Y1639722D01*
X65829Y1639724D01*
X65832Y1639726D01*
X65899Y1640857D01*
X65897Y1640861D01*
X65899Y1640863D01*
X65832Y1641994D01*
X65827Y1641999D01*
X65831Y1642003D01*
X65544Y1643100D01*
X65538Y1643104D01*
X65541Y1643109D01*
X65046Y1644128D01*
X65040Y1644131D01*
X65041Y1644136D01*
X64357Y1645039D01*
X64350Y1645041D01*
X64350Y1645046D01*
X63503Y1645799D01*
X63496Y1645799D01*
X63495Y1645804D01*
X62518Y1646377D01*
X62511Y1646376D01*
X62509Y1646381D01*
X61438Y1646752D01*
X61432Y1646749D01*
X61429Y1646754D01*
X60307Y1646909D01*
X60302Y1646906D01*
X60300Y1646909D01*
X48300Y1646909D01*
X48295Y1646906D01*
X48292Y1646909D01*
X47025Y1646704D01*
X47019Y1646698D01*
X47015Y1646701D01*
X45825Y1646219D01*
X45821Y1646212D01*
X45815Y1646214D01*
X44762Y1645480D01*
X44760Y1645472D01*
X44754Y1645473D01*
X43891Y1644523D01*
X43890Y1644514D01*
X43885Y1644514D01*
X43255Y1643395D01*
X43256Y1643387D01*
X43250Y1643385D01*
X42885Y1642155D01*
X42888Y1642147D01*
X42883Y1642144D01*
X42801Y1640863D01*
X42804Y1640859D01*
X42801Y1640857D01*
X42883Y1639576D01*
X42889Y1639570D01*
X42885Y1639565D01*
X43250Y1638335D01*
X43257Y1638330D01*
X43255Y1638325D01*
X43885Y1637206D01*
X43892Y1637203D01*
X43891Y1637197D01*
X44754Y1636247D01*
X44762Y1636246D01*
X44762Y1636240D01*
X45815Y1635506D01*
X45823Y1635506D01*
X45825Y1635501D01*
X47015Y1635019D01*
X47022Y1635021D01*
X47025Y1635016D01*
X48292Y1634811D01*
X48297Y1634814D01*
X48300Y1634811D01*
X60300Y1634811D01*
X60304Y1634814D01*
G37*
G36*
X780394Y1634814D02*
X780394Y1634814D01*
X780397Y1634811D01*
X781519Y1634966D01*
X781524Y1634971D01*
X781528Y1634968D01*
X782599Y1635339D01*
X782603Y1635345D01*
X782608Y1635343D01*
X783585Y1635916D01*
X783588Y1635922D01*
X783593Y1635921D01*
X784440Y1636674D01*
X784442Y1636681D01*
X784447Y1636681D01*
X785131Y1637584D01*
X785131Y1637591D01*
X785136Y1637592D01*
X785631Y1638611D01*
X785629Y1638618D01*
X785634Y1638620D01*
X785921Y1639717D01*
X785919Y1639721D01*
X785921Y1639722D01*
X785919Y1639724D01*
X785922Y1639726D01*
X785989Y1640857D01*
X785987Y1640861D01*
X785989Y1640863D01*
X785922Y1641994D01*
X785917Y1641999D01*
X785921Y1642003D01*
X785634Y1643100D01*
X785628Y1643104D01*
X785631Y1643109D01*
X785136Y1644128D01*
X785130Y1644131D01*
X785131Y1644136D01*
X784447Y1645039D01*
X784440Y1645041D01*
X784440Y1645046D01*
X783593Y1645799D01*
X783586Y1645799D01*
X783585Y1645804D01*
X782608Y1646377D01*
X782601Y1646376D01*
X782599Y1646381D01*
X781528Y1646752D01*
X781522Y1646749D01*
X781519Y1646754D01*
X780397Y1646909D01*
X780392Y1646906D01*
X780390Y1646909D01*
X768390Y1646909D01*
X768385Y1646906D01*
X768382Y1646909D01*
X767115Y1646704D01*
X767109Y1646698D01*
X767105Y1646701D01*
X765915Y1646219D01*
X765911Y1646212D01*
X765905Y1646214D01*
X764852Y1645480D01*
X764850Y1645472D01*
X764844Y1645473D01*
X763981Y1644523D01*
X763980Y1644514D01*
X763975Y1644514D01*
X763345Y1643395D01*
X763346Y1643387D01*
X763340Y1643385D01*
X762975Y1642155D01*
X762978Y1642147D01*
X762973Y1642144D01*
X762891Y1640863D01*
X762894Y1640859D01*
X762891Y1640857D01*
X762973Y1639576D01*
X762979Y1639570D01*
X762975Y1639565D01*
X763340Y1638335D01*
X763347Y1638330D01*
X763345Y1638325D01*
X763975Y1637206D01*
X763982Y1637203D01*
X763981Y1637197D01*
X764844Y1636247D01*
X764852Y1636246D01*
X764852Y1636240D01*
X765905Y1635506D01*
X765913Y1635506D01*
X765915Y1635501D01*
X767105Y1635019D01*
X767112Y1635021D01*
X767115Y1635016D01*
X768382Y1634811D01*
X768387Y1634814D01*
X768390Y1634811D01*
X780390Y1634811D01*
X780394Y1634814D01*
G37*
G36*
X60304Y959134D02*
X60304Y959134D01*
X60307Y959131D01*
X61429Y959286D01*
X61434Y959291D01*
X61438Y959288D01*
X62509Y959659D01*
X62513Y959665D01*
X62518Y959663D01*
X63495Y960236D01*
X63498Y960242D01*
X63503Y960241D01*
X64350Y960994D01*
X64352Y961001D01*
X64357Y961001D01*
X65041Y961904D01*
X65041Y961911D01*
X65046Y961912D01*
X65541Y962931D01*
X65539Y962938D01*
X65544Y962940D01*
X65831Y964037D01*
X65829Y964041D01*
X65831Y964042D01*
X65829Y964044D01*
X65832Y964046D01*
X65899Y965177D01*
X65897Y965181D01*
X65899Y965183D01*
X65832Y966314D01*
X65827Y966319D01*
X65831Y966323D01*
X65544Y967420D01*
X65538Y967424D01*
X65541Y967429D01*
X65046Y968448D01*
X65040Y968451D01*
X65041Y968456D01*
X64357Y969359D01*
X64350Y969361D01*
X64350Y969366D01*
X63503Y970119D01*
X63496Y970119D01*
X63495Y970124D01*
X62518Y970697D01*
X62511Y970696D01*
X62509Y970701D01*
X61438Y971072D01*
X61432Y971069D01*
X61429Y971074D01*
X60307Y971229D01*
X60302Y971226D01*
X60300Y971229D01*
X48300Y971229D01*
X48295Y971226D01*
X48292Y971229D01*
X47025Y971024D01*
X47019Y971018D01*
X47015Y971021D01*
X45825Y970539D01*
X45821Y970532D01*
X45815Y970534D01*
X44762Y969800D01*
X44760Y969792D01*
X44754Y969793D01*
X43891Y968843D01*
X43890Y968834D01*
X43885Y968834D01*
X43255Y967715D01*
X43256Y967707D01*
X43250Y967705D01*
X42885Y966475D01*
X42888Y966467D01*
X42883Y966464D01*
X42801Y965183D01*
X42804Y965179D01*
X42801Y965177D01*
X42883Y963896D01*
X42889Y963890D01*
X42885Y963885D01*
X43250Y962655D01*
X43257Y962650D01*
X43255Y962645D01*
X43885Y961526D01*
X43892Y961523D01*
X43891Y961517D01*
X44754Y960567D01*
X44762Y960566D01*
X44762Y960560D01*
X45815Y959826D01*
X45823Y959826D01*
X45825Y959821D01*
X47015Y959339D01*
X47022Y959341D01*
X47025Y959336D01*
X48292Y959131D01*
X48297Y959134D01*
X48300Y959131D01*
X60300Y959131D01*
X60304Y959134D01*
G37*
G36*
X780394Y959134D02*
X780394Y959134D01*
X780397Y959131D01*
X781519Y959286D01*
X781524Y959291D01*
X781528Y959288D01*
X782599Y959659D01*
X782603Y959665D01*
X782608Y959663D01*
X783585Y960236D01*
X783588Y960242D01*
X783593Y960241D01*
X784440Y960994D01*
X784442Y961001D01*
X784447Y961001D01*
X785131Y961904D01*
X785131Y961911D01*
X785136Y961912D01*
X785631Y962931D01*
X785629Y962938D01*
X785634Y962940D01*
X785921Y964037D01*
X785919Y964041D01*
X785921Y964042D01*
X785919Y964044D01*
X785922Y964046D01*
X785989Y965177D01*
X785987Y965181D01*
X785989Y965183D01*
X785922Y966314D01*
X785917Y966319D01*
X785921Y966323D01*
X785634Y967420D01*
X785628Y967424D01*
X785631Y967429D01*
X785136Y968448D01*
X785130Y968451D01*
X785131Y968456D01*
X784447Y969359D01*
X784440Y969361D01*
X784440Y969366D01*
X783593Y970119D01*
X783586Y970119D01*
X783585Y970124D01*
X782608Y970697D01*
X782601Y970696D01*
X782599Y970701D01*
X781528Y971072D01*
X781522Y971069D01*
X781519Y971074D01*
X780397Y971229D01*
X780392Y971226D01*
X780390Y971229D01*
X768390Y971229D01*
X768385Y971226D01*
X768382Y971229D01*
X767115Y971024D01*
X767109Y971018D01*
X767105Y971021D01*
X765915Y970539D01*
X765911Y970532D01*
X765905Y970534D01*
X764852Y969800D01*
X764850Y969792D01*
X764844Y969793D01*
X763981Y968843D01*
X763980Y968834D01*
X763975Y968834D01*
X763345Y967715D01*
X763346Y967707D01*
X763340Y967705D01*
X762975Y966475D01*
X762978Y966467D01*
X762973Y966464D01*
X762891Y965183D01*
X762894Y965179D01*
X762891Y965177D01*
X762973Y963896D01*
X762979Y963890D01*
X762975Y963885D01*
X763340Y962655D01*
X763347Y962650D01*
X763345Y962645D01*
X763975Y961526D01*
X763982Y961523D01*
X763981Y961517D01*
X764844Y960567D01*
X764852Y960566D01*
X764852Y960560D01*
X765905Y959826D01*
X765913Y959826D01*
X765915Y959821D01*
X767105Y959339D01*
X767112Y959341D01*
X767115Y959336D01*
X768382Y959131D01*
X768387Y959134D01*
X768390Y959131D01*
X780390Y959131D01*
X780394Y959134D01*
G37*
G36*
X1500484Y1634814D02*
X1500484Y1634814D01*
X1500487Y1634811D01*
X1501609Y1634966D01*
X1501614Y1634971D01*
X1501618Y1634968D01*
X1502689Y1635339D01*
X1502693Y1635345D01*
X1502698Y1635343D01*
X1503675Y1635916D01*
X1503678Y1635922D01*
X1503683Y1635921D01*
X1504530Y1636674D01*
X1504532Y1636681D01*
X1504537Y1636681D01*
X1505221Y1637584D01*
X1505221Y1637591D01*
X1505226Y1637592D01*
X1505721Y1638611D01*
X1505719Y1638618D01*
X1505724Y1638620D01*
X1506011Y1639717D01*
X1506009Y1639721D01*
X1506011Y1639722D01*
X1506009Y1639724D01*
X1506012Y1639726D01*
X1506079Y1640857D01*
X1506077Y1640861D01*
X1506079Y1640863D01*
X1506012Y1641994D01*
X1506007Y1641999D01*
X1506011Y1642003D01*
X1505724Y1643100D01*
X1505718Y1643104D01*
X1505721Y1643109D01*
X1505226Y1644128D01*
X1505220Y1644131D01*
X1505221Y1644136D01*
X1504537Y1645039D01*
X1504530Y1645041D01*
X1504530Y1645046D01*
X1503683Y1645799D01*
X1503676Y1645799D01*
X1503675Y1645804D01*
X1502698Y1646377D01*
X1502691Y1646376D01*
X1502689Y1646381D01*
X1501618Y1646752D01*
X1501612Y1646749D01*
X1501609Y1646754D01*
X1500487Y1646909D01*
X1500482Y1646906D01*
X1500480Y1646909D01*
X1488480Y1646909D01*
X1488475Y1646906D01*
X1488472Y1646909D01*
X1487205Y1646704D01*
X1487199Y1646698D01*
X1487195Y1646701D01*
X1486005Y1646219D01*
X1486001Y1646212D01*
X1485995Y1646214D01*
X1484942Y1645480D01*
X1484940Y1645472D01*
X1484934Y1645473D01*
X1484071Y1644523D01*
X1484070Y1644514D01*
X1484065Y1644514D01*
X1483435Y1643395D01*
X1483436Y1643387D01*
X1483430Y1643385D01*
X1483065Y1642155D01*
X1483068Y1642147D01*
X1483063Y1642144D01*
X1482981Y1640863D01*
X1482984Y1640859D01*
X1482981Y1640857D01*
X1483063Y1639576D01*
X1483069Y1639570D01*
X1483065Y1639565D01*
X1483430Y1638335D01*
X1483437Y1638330D01*
X1483435Y1638325D01*
X1484065Y1637206D01*
X1484072Y1637203D01*
X1484071Y1637197D01*
X1484934Y1636247D01*
X1484942Y1636246D01*
X1484942Y1636240D01*
X1485995Y1635506D01*
X1486003Y1635506D01*
X1486005Y1635501D01*
X1487195Y1635019D01*
X1487202Y1635021D01*
X1487205Y1635016D01*
X1488472Y1634811D01*
X1488477Y1634814D01*
X1488480Y1634811D01*
X1500480Y1634811D01*
X1500484Y1634814D01*
G37*
G36*
X1500484Y959134D02*
X1500484Y959134D01*
X1500487Y959131D01*
X1501609Y959286D01*
X1501614Y959291D01*
X1501618Y959288D01*
X1502689Y959659D01*
X1502693Y959665D01*
X1502698Y959663D01*
X1503675Y960236D01*
X1503678Y960242D01*
X1503683Y960241D01*
X1504530Y960994D01*
X1504532Y961001D01*
X1504537Y961001D01*
X1505221Y961904D01*
X1505221Y961911D01*
X1505226Y961912D01*
X1505721Y962931D01*
X1505719Y962938D01*
X1505724Y962940D01*
X1506011Y964037D01*
X1506009Y964041D01*
X1506011Y964042D01*
X1506009Y964044D01*
X1506012Y964046D01*
X1506079Y965177D01*
X1506077Y965181D01*
X1506079Y965183D01*
X1506012Y966314D01*
X1506007Y966319D01*
X1506011Y966323D01*
X1505724Y967420D01*
X1505718Y967424D01*
X1505721Y967429D01*
X1505226Y968448D01*
X1505220Y968451D01*
X1505221Y968456D01*
X1504537Y969359D01*
X1504530Y969361D01*
X1504530Y969366D01*
X1503683Y970119D01*
X1503676Y970119D01*
X1503675Y970124D01*
X1502698Y970697D01*
X1502691Y970696D01*
X1502689Y970701D01*
X1501618Y971072D01*
X1501612Y971069D01*
X1501609Y971074D01*
X1500487Y971229D01*
X1500482Y971226D01*
X1500480Y971229D01*
X1488480Y971229D01*
X1488475Y971226D01*
X1488472Y971229D01*
X1487205Y971024D01*
X1487199Y971018D01*
X1487195Y971021D01*
X1486005Y970539D01*
X1486001Y970532D01*
X1485995Y970534D01*
X1484942Y969800D01*
X1484940Y969792D01*
X1484934Y969793D01*
X1484071Y968843D01*
X1484070Y968834D01*
X1484065Y968834D01*
X1483435Y967715D01*
X1483436Y967707D01*
X1483430Y967705D01*
X1483065Y966475D01*
X1483068Y966467D01*
X1483063Y966464D01*
X1482981Y965183D01*
X1482984Y965179D01*
X1482981Y965177D01*
X1483063Y963896D01*
X1483069Y963890D01*
X1483065Y963885D01*
X1483430Y962655D01*
X1483437Y962650D01*
X1483435Y962645D01*
X1484065Y961526D01*
X1484072Y961523D01*
X1484071Y961517D01*
X1484934Y960567D01*
X1484942Y960566D01*
X1484942Y960560D01*
X1485995Y959826D01*
X1486003Y959826D01*
X1486005Y959821D01*
X1487195Y959339D01*
X1487202Y959341D01*
X1487205Y959336D01*
X1488472Y959131D01*
X1488477Y959134D01*
X1488480Y959131D01*
X1500480Y959131D01*
X1500484Y959134D01*
G37*
G36*
X1500484Y456254D02*
X1500484Y456254D01*
X1500487Y456251D01*
X1501609Y456406D01*
X1501614Y456411D01*
X1501618Y456408D01*
X1502689Y456779D01*
X1502693Y456785D01*
X1502698Y456783D01*
X1503675Y457356D01*
X1503678Y457362D01*
X1503683Y457361D01*
X1504530Y458114D01*
X1504532Y458121D01*
X1504537Y458121D01*
X1505221Y459024D01*
X1505221Y459031D01*
X1505226Y459032D01*
X1505721Y460051D01*
X1505719Y460058D01*
X1505724Y460060D01*
X1506011Y461157D01*
X1506009Y461161D01*
X1506011Y461162D01*
X1506009Y461164D01*
X1506012Y461166D01*
X1506079Y462297D01*
X1506077Y462301D01*
X1506079Y462303D01*
X1506012Y463434D01*
X1506007Y463439D01*
X1506011Y463443D01*
X1505724Y464540D01*
X1505718Y464544D01*
X1505721Y464549D01*
X1505226Y465568D01*
X1505220Y465571D01*
X1505221Y465576D01*
X1504537Y466479D01*
X1504530Y466481D01*
X1504530Y466486D01*
X1503683Y467239D01*
X1503676Y467239D01*
X1503675Y467244D01*
X1502698Y467817D01*
X1502691Y467816D01*
X1502689Y467821D01*
X1501618Y468192D01*
X1501612Y468189D01*
X1501609Y468194D01*
X1500487Y468349D01*
X1500482Y468346D01*
X1500480Y468349D01*
X1488480Y468349D01*
X1488475Y468346D01*
X1488472Y468349D01*
X1487205Y468144D01*
X1487199Y468138D01*
X1487195Y468141D01*
X1486005Y467659D01*
X1486001Y467652D01*
X1485995Y467654D01*
X1484942Y466920D01*
X1484940Y466912D01*
X1484934Y466913D01*
X1484071Y465963D01*
X1484070Y465954D01*
X1484065Y465954D01*
X1483435Y464835D01*
X1483436Y464827D01*
X1483430Y464825D01*
X1483065Y463595D01*
X1483068Y463587D01*
X1483063Y463584D01*
X1482981Y462303D01*
X1482984Y462299D01*
X1482981Y462297D01*
X1483063Y461016D01*
X1483069Y461010D01*
X1483065Y461005D01*
X1483430Y459775D01*
X1483437Y459770D01*
X1483435Y459765D01*
X1484065Y458646D01*
X1484072Y458643D01*
X1484071Y458637D01*
X1484934Y457687D01*
X1484942Y457686D01*
X1484942Y457680D01*
X1485995Y456946D01*
X1486003Y456946D01*
X1486005Y456941D01*
X1487195Y456459D01*
X1487202Y456461D01*
X1487205Y456456D01*
X1488472Y456251D01*
X1488477Y456254D01*
X1488480Y456251D01*
X1500480Y456251D01*
X1500484Y456254D01*
G37*
G36*
X60304Y369854D02*
X60304Y369854D01*
X60307Y369851D01*
X61429Y370006D01*
X61434Y370011D01*
X61438Y370008D01*
X62509Y370379D01*
X62513Y370385D01*
X62518Y370383D01*
X63495Y370956D01*
X63498Y370962D01*
X63503Y370961D01*
X64350Y371714D01*
X64352Y371721D01*
X64357Y371721D01*
X65041Y372624D01*
X65041Y372631D01*
X65046Y372632D01*
X65541Y373651D01*
X65539Y373658D01*
X65544Y373660D01*
X65831Y374757D01*
X65829Y374761D01*
X65831Y374762D01*
X65829Y374764D01*
X65832Y374766D01*
X65899Y375897D01*
X65897Y375901D01*
X65899Y375903D01*
X65832Y377034D01*
X65827Y377039D01*
X65831Y377043D01*
X65544Y378140D01*
X65538Y378144D01*
X65541Y378149D01*
X65046Y379168D01*
X65040Y379171D01*
X65041Y379176D01*
X64357Y380079D01*
X64350Y380081D01*
X64350Y380086D01*
X63503Y380839D01*
X63496Y380839D01*
X63495Y380844D01*
X62518Y381417D01*
X62511Y381416D01*
X62509Y381421D01*
X61438Y381792D01*
X61432Y381789D01*
X61429Y381794D01*
X60307Y381949D01*
X60302Y381946D01*
X60300Y381949D01*
X48300Y381949D01*
X48295Y381946D01*
X48292Y381949D01*
X47025Y381744D01*
X47019Y381738D01*
X47015Y381741D01*
X45825Y381259D01*
X45821Y381252D01*
X45815Y381254D01*
X44762Y380520D01*
X44760Y380512D01*
X44754Y380513D01*
X43891Y379563D01*
X43890Y379554D01*
X43885Y379554D01*
X43255Y378435D01*
X43256Y378427D01*
X43250Y378425D01*
X42885Y377195D01*
X42888Y377187D01*
X42883Y377184D01*
X42801Y375903D01*
X42804Y375899D01*
X42801Y375897D01*
X42883Y374616D01*
X42889Y374610D01*
X42885Y374605D01*
X43250Y373375D01*
X43257Y373370D01*
X43255Y373365D01*
X43885Y372246D01*
X43892Y372243D01*
X43891Y372237D01*
X44754Y371287D01*
X44762Y371286D01*
X44762Y371280D01*
X45815Y370546D01*
X45823Y370546D01*
X45825Y370541D01*
X47015Y370059D01*
X47022Y370061D01*
X47025Y370056D01*
X48292Y369851D01*
X48297Y369854D01*
X48300Y369851D01*
X60300Y369851D01*
X60304Y369854D01*
G37*
G36*
X1500484Y369854D02*
X1500484Y369854D01*
X1500487Y369851D01*
X1501609Y370006D01*
X1501614Y370011D01*
X1501618Y370008D01*
X1502689Y370379D01*
X1502693Y370385D01*
X1502698Y370383D01*
X1503675Y370956D01*
X1503678Y370962D01*
X1503683Y370961D01*
X1504530Y371714D01*
X1504532Y371721D01*
X1504537Y371721D01*
X1505221Y372624D01*
X1505221Y372631D01*
X1505226Y372632D01*
X1505721Y373651D01*
X1505719Y373658D01*
X1505724Y373660D01*
X1506011Y374757D01*
X1506009Y374761D01*
X1506011Y374762D01*
X1506009Y374764D01*
X1506012Y374766D01*
X1506079Y375897D01*
X1506077Y375901D01*
X1506079Y375903D01*
X1506012Y377034D01*
X1506007Y377039D01*
X1506011Y377043D01*
X1505724Y378140D01*
X1505718Y378144D01*
X1505721Y378149D01*
X1505226Y379168D01*
X1505220Y379171D01*
X1505221Y379176D01*
X1504537Y380079D01*
X1504530Y380081D01*
X1504530Y380086D01*
X1503683Y380839D01*
X1503676Y380839D01*
X1503675Y380844D01*
X1502698Y381417D01*
X1502691Y381416D01*
X1502689Y381421D01*
X1501618Y381792D01*
X1501612Y381789D01*
X1501609Y381794D01*
X1500487Y381949D01*
X1500482Y381946D01*
X1500480Y381949D01*
X1488480Y381949D01*
X1488475Y381946D01*
X1488472Y381949D01*
X1487205Y381744D01*
X1487199Y381738D01*
X1487195Y381741D01*
X1486005Y381259D01*
X1486001Y381252D01*
X1485995Y381254D01*
X1484942Y380520D01*
X1484940Y380512D01*
X1484934Y380513D01*
X1484071Y379563D01*
X1484070Y379554D01*
X1484065Y379554D01*
X1483435Y378435D01*
X1483436Y378427D01*
X1483430Y378425D01*
X1483065Y377195D01*
X1483068Y377187D01*
X1483063Y377184D01*
X1482981Y375903D01*
X1482984Y375899D01*
X1482981Y375897D01*
X1483063Y374616D01*
X1483069Y374610D01*
X1483065Y374605D01*
X1483430Y373375D01*
X1483437Y373370D01*
X1483435Y373365D01*
X1484065Y372246D01*
X1484072Y372243D01*
X1484071Y372237D01*
X1484934Y371287D01*
X1484942Y371286D01*
X1484942Y371280D01*
X1485995Y370546D01*
X1486003Y370546D01*
X1486005Y370541D01*
X1487195Y370059D01*
X1487202Y370061D01*
X1487205Y370056D01*
X1488472Y369851D01*
X1488477Y369854D01*
X1488480Y369851D01*
X1500480Y369851D01*
X1500484Y369854D01*
G37*
G36*
X780394Y456254D02*
X780394Y456254D01*
X780397Y456251D01*
X781519Y456406D01*
X781524Y456411D01*
X781528Y456408D01*
X782599Y456779D01*
X782603Y456785D01*
X782608Y456783D01*
X783585Y457356D01*
X783588Y457362D01*
X783593Y457361D01*
X784440Y458114D01*
X784442Y458121D01*
X784447Y458121D01*
X785131Y459024D01*
X785131Y459031D01*
X785136Y459032D01*
X785631Y460051D01*
X785629Y460058D01*
X785634Y460060D01*
X785921Y461157D01*
X785919Y461161D01*
X785921Y461162D01*
X785919Y461164D01*
X785922Y461166D01*
X785989Y462297D01*
X785987Y462301D01*
X785989Y462303D01*
X785922Y463434D01*
X785917Y463439D01*
X785921Y463443D01*
X785634Y464540D01*
X785628Y464544D01*
X785631Y464549D01*
X785136Y465568D01*
X785130Y465571D01*
X785131Y465576D01*
X784447Y466479D01*
X784440Y466481D01*
X784440Y466486D01*
X783593Y467239D01*
X783586Y467239D01*
X783585Y467244D01*
X782608Y467817D01*
X782601Y467816D01*
X782599Y467821D01*
X781528Y468192D01*
X781522Y468189D01*
X781519Y468194D01*
X780397Y468349D01*
X780392Y468346D01*
X780390Y468349D01*
X768390Y468349D01*
X768385Y468346D01*
X768382Y468349D01*
X767115Y468144D01*
X767109Y468138D01*
X767105Y468141D01*
X765915Y467659D01*
X765911Y467652D01*
X765905Y467654D01*
X764852Y466920D01*
X764850Y466912D01*
X764844Y466913D01*
X763981Y465963D01*
X763980Y465954D01*
X763975Y465954D01*
X763345Y464835D01*
X763346Y464827D01*
X763340Y464825D01*
X762975Y463595D01*
X762978Y463587D01*
X762973Y463584D01*
X762891Y462303D01*
X762894Y462299D01*
X762891Y462297D01*
X762973Y461016D01*
X762979Y461010D01*
X762975Y461005D01*
X763340Y459775D01*
X763347Y459770D01*
X763345Y459765D01*
X763975Y458646D01*
X763982Y458643D01*
X763981Y458637D01*
X764844Y457687D01*
X764852Y457686D01*
X764852Y457680D01*
X765905Y456946D01*
X765913Y456946D01*
X765915Y456941D01*
X767105Y456459D01*
X767112Y456461D01*
X767115Y456456D01*
X768382Y456251D01*
X768387Y456254D01*
X768390Y456251D01*
X780390Y456251D01*
X780394Y456254D01*
G37*
G36*
X780394Y369854D02*
X780394Y369854D01*
X780397Y369851D01*
X781519Y370006D01*
X781524Y370011D01*
X781528Y370008D01*
X782599Y370379D01*
X782603Y370385D01*
X782608Y370383D01*
X783585Y370956D01*
X783588Y370962D01*
X783593Y370961D01*
X784440Y371714D01*
X784442Y371721D01*
X784447Y371721D01*
X785131Y372624D01*
X785131Y372631D01*
X785136Y372632D01*
X785631Y373651D01*
X785629Y373658D01*
X785634Y373660D01*
X785921Y374757D01*
X785919Y374761D01*
X785921Y374762D01*
X785919Y374764D01*
X785922Y374766D01*
X785989Y375897D01*
X785987Y375901D01*
X785989Y375903D01*
X785922Y377034D01*
X785917Y377039D01*
X785921Y377043D01*
X785634Y378140D01*
X785628Y378144D01*
X785631Y378149D01*
X785136Y379168D01*
X785130Y379171D01*
X785131Y379176D01*
X784447Y380079D01*
X784440Y380081D01*
X784440Y380086D01*
X783593Y380839D01*
X783586Y380839D01*
X783585Y380844D01*
X782608Y381417D01*
X782601Y381416D01*
X782599Y381421D01*
X781528Y381792D01*
X781522Y381789D01*
X781519Y381794D01*
X780397Y381949D01*
X780392Y381946D01*
X780390Y381949D01*
X768390Y381949D01*
X768385Y381946D01*
X768382Y381949D01*
X767115Y381744D01*
X767109Y381738D01*
X767105Y381741D01*
X765915Y381259D01*
X765911Y381252D01*
X765905Y381254D01*
X764852Y380520D01*
X764850Y380512D01*
X764844Y380513D01*
X763981Y379563D01*
X763980Y379554D01*
X763975Y379554D01*
X763345Y378435D01*
X763346Y378427D01*
X763340Y378425D01*
X762975Y377195D01*
X762978Y377187D01*
X762973Y377184D01*
X762891Y375903D01*
X762894Y375899D01*
X762891Y375897D01*
X762973Y374616D01*
X762979Y374610D01*
X762975Y374605D01*
X763340Y373375D01*
X763347Y373370D01*
X763345Y373365D01*
X763975Y372246D01*
X763982Y372243D01*
X763981Y372237D01*
X764844Y371287D01*
X764852Y371286D01*
X764852Y371280D01*
X765905Y370546D01*
X765913Y370546D01*
X765915Y370541D01*
X767105Y370059D01*
X767112Y370061D01*
X767115Y370056D01*
X768382Y369851D01*
X768387Y369854D01*
X768390Y369851D01*
X780390Y369851D01*
X780394Y369854D01*
G37*
G36*
X1500484Y1045534D02*
X1500484Y1045534D01*
X1500487Y1045531D01*
X1501609Y1045686D01*
X1501614Y1045691D01*
X1501618Y1045688D01*
X1502689Y1046059D01*
X1502693Y1046065D01*
X1502698Y1046063D01*
X1503675Y1046636D01*
X1503678Y1046642D01*
X1503683Y1046641D01*
X1504530Y1047394D01*
X1504532Y1047401D01*
X1504537Y1047401D01*
X1505221Y1048304D01*
X1505221Y1048311D01*
X1505226Y1048312D01*
X1505721Y1049331D01*
X1505719Y1049338D01*
X1505724Y1049340D01*
X1506011Y1050437D01*
X1506009Y1050441D01*
X1506011Y1050442D01*
X1506009Y1050444D01*
X1506012Y1050446D01*
X1506079Y1051577D01*
X1506077Y1051581D01*
X1506079Y1051583D01*
X1506012Y1052714D01*
X1506007Y1052719D01*
X1506011Y1052723D01*
X1505724Y1053820D01*
X1505718Y1053824D01*
X1505721Y1053829D01*
X1505226Y1054848D01*
X1505220Y1054851D01*
X1505221Y1054856D01*
X1504537Y1055759D01*
X1504530Y1055761D01*
X1504530Y1055766D01*
X1503683Y1056519D01*
X1503676Y1056519D01*
X1503675Y1056524D01*
X1502698Y1057097D01*
X1502691Y1057096D01*
X1502689Y1057101D01*
X1501618Y1057472D01*
X1501612Y1057469D01*
X1501609Y1057474D01*
X1500487Y1057629D01*
X1500482Y1057626D01*
X1500480Y1057629D01*
X1488480Y1057629D01*
X1488475Y1057626D01*
X1488472Y1057629D01*
X1487205Y1057424D01*
X1487199Y1057418D01*
X1487195Y1057421D01*
X1486005Y1056939D01*
X1486001Y1056932D01*
X1485995Y1056934D01*
X1484942Y1056200D01*
X1484940Y1056192D01*
X1484934Y1056193D01*
X1484071Y1055243D01*
X1484070Y1055234D01*
X1484065Y1055234D01*
X1483435Y1054115D01*
X1483436Y1054107D01*
X1483430Y1054105D01*
X1483065Y1052875D01*
X1483068Y1052867D01*
X1483063Y1052864D01*
X1482981Y1051583D01*
X1482984Y1051579D01*
X1482981Y1051577D01*
X1483063Y1050296D01*
X1483069Y1050290D01*
X1483065Y1050285D01*
X1483430Y1049055D01*
X1483437Y1049050D01*
X1483435Y1049045D01*
X1484065Y1047926D01*
X1484072Y1047923D01*
X1484071Y1047917D01*
X1484934Y1046967D01*
X1484942Y1046966D01*
X1484942Y1046960D01*
X1485995Y1046226D01*
X1486003Y1046226D01*
X1486005Y1046221D01*
X1487195Y1045739D01*
X1487202Y1045741D01*
X1487205Y1045736D01*
X1488472Y1045531D01*
X1488477Y1045534D01*
X1488480Y1045531D01*
X1500480Y1045531D01*
X1500484Y1045534D01*
G37*
G36*
X60304Y1045534D02*
X60304Y1045534D01*
X60307Y1045531D01*
X61429Y1045686D01*
X61434Y1045691D01*
X61438Y1045688D01*
X62509Y1046059D01*
X62513Y1046065D01*
X62518Y1046063D01*
X63495Y1046636D01*
X63498Y1046642D01*
X63503Y1046641D01*
X64350Y1047394D01*
X64352Y1047401D01*
X64357Y1047401D01*
X65041Y1048304D01*
X65041Y1048311D01*
X65046Y1048312D01*
X65541Y1049331D01*
X65539Y1049338D01*
X65544Y1049340D01*
X65831Y1050437D01*
X65829Y1050441D01*
X65831Y1050442D01*
X65829Y1050444D01*
X65832Y1050446D01*
X65899Y1051577D01*
X65897Y1051581D01*
X65899Y1051583D01*
X65832Y1052714D01*
X65827Y1052719D01*
X65831Y1052723D01*
X65544Y1053820D01*
X65538Y1053824D01*
X65541Y1053829D01*
X65046Y1054848D01*
X65040Y1054851D01*
X65041Y1054856D01*
X64357Y1055759D01*
X64350Y1055761D01*
X64350Y1055766D01*
X63503Y1056519D01*
X63496Y1056519D01*
X63495Y1056524D01*
X62518Y1057097D01*
X62511Y1057096D01*
X62509Y1057101D01*
X61438Y1057472D01*
X61432Y1057469D01*
X61429Y1057474D01*
X60307Y1057629D01*
X60302Y1057626D01*
X60300Y1057629D01*
X48300Y1057629D01*
X48295Y1057626D01*
X48292Y1057629D01*
X47025Y1057424D01*
X47019Y1057418D01*
X47015Y1057421D01*
X45825Y1056939D01*
X45821Y1056932D01*
X45815Y1056934D01*
X44762Y1056200D01*
X44760Y1056192D01*
X44754Y1056193D01*
X43891Y1055243D01*
X43890Y1055234D01*
X43885Y1055234D01*
X43255Y1054115D01*
X43256Y1054107D01*
X43250Y1054105D01*
X42885Y1052875D01*
X42888Y1052867D01*
X42883Y1052864D01*
X42801Y1051583D01*
X42804Y1051579D01*
X42801Y1051577D01*
X42883Y1050296D01*
X42889Y1050290D01*
X42885Y1050285D01*
X43250Y1049055D01*
X43257Y1049050D01*
X43255Y1049045D01*
X43885Y1047926D01*
X43892Y1047923D01*
X43891Y1047917D01*
X44754Y1046967D01*
X44762Y1046966D01*
X44762Y1046960D01*
X45815Y1046226D01*
X45823Y1046226D01*
X45825Y1046221D01*
X47015Y1045739D01*
X47022Y1045741D01*
X47025Y1045736D01*
X48292Y1045531D01*
X48297Y1045534D01*
X48300Y1045531D01*
X60300Y1045531D01*
X60304Y1045534D01*
G37*
G36*
X60304Y456254D02*
X60304Y456254D01*
X60307Y456251D01*
X61429Y456406D01*
X61434Y456411D01*
X61438Y456408D01*
X62509Y456779D01*
X62513Y456785D01*
X62518Y456783D01*
X63495Y457356D01*
X63498Y457362D01*
X63503Y457361D01*
X64350Y458114D01*
X64352Y458121D01*
X64357Y458121D01*
X65041Y459024D01*
X65041Y459031D01*
X65046Y459032D01*
X65541Y460051D01*
X65539Y460058D01*
X65544Y460060D01*
X65831Y461157D01*
X65829Y461161D01*
X65831Y461162D01*
X65829Y461164D01*
X65832Y461166D01*
X65899Y462297D01*
X65897Y462301D01*
X65899Y462303D01*
X65832Y463434D01*
X65827Y463439D01*
X65831Y463443D01*
X65544Y464540D01*
X65538Y464544D01*
X65541Y464549D01*
X65046Y465568D01*
X65040Y465571D01*
X65041Y465576D01*
X64357Y466479D01*
X64350Y466481D01*
X64350Y466486D01*
X63503Y467239D01*
X63496Y467239D01*
X63495Y467244D01*
X62518Y467817D01*
X62511Y467816D01*
X62509Y467821D01*
X61438Y468192D01*
X61432Y468189D01*
X61429Y468194D01*
X60307Y468349D01*
X60302Y468346D01*
X60300Y468349D01*
X48300Y468349D01*
X48295Y468346D01*
X48292Y468349D01*
X47025Y468144D01*
X47019Y468138D01*
X47015Y468141D01*
X45825Y467659D01*
X45821Y467652D01*
X45815Y467654D01*
X44762Y466920D01*
X44760Y466912D01*
X44754Y466913D01*
X43891Y465963D01*
X43890Y465954D01*
X43885Y465954D01*
X43255Y464835D01*
X43256Y464827D01*
X43250Y464825D01*
X42885Y463595D01*
X42888Y463587D01*
X42883Y463584D01*
X42801Y462303D01*
X42804Y462299D01*
X42801Y462297D01*
X42883Y461016D01*
X42889Y461010D01*
X42885Y461005D01*
X43250Y459775D01*
X43257Y459770D01*
X43255Y459765D01*
X43885Y458646D01*
X43892Y458643D01*
X43891Y458637D01*
X44754Y457687D01*
X44762Y457686D01*
X44762Y457680D01*
X45815Y456946D01*
X45823Y456946D01*
X45825Y456941D01*
X47015Y456459D01*
X47022Y456461D01*
X47025Y456456D01*
X48292Y456251D01*
X48297Y456254D01*
X48300Y456251D01*
X60300Y456251D01*
X60304Y456254D01*
G37*
G36*
X780394Y1045534D02*
X780394Y1045534D01*
X780397Y1045531D01*
X781519Y1045686D01*
X781524Y1045691D01*
X781528Y1045688D01*
X782599Y1046059D01*
X782603Y1046065D01*
X782608Y1046063D01*
X783585Y1046636D01*
X783588Y1046642D01*
X783593Y1046641D01*
X784440Y1047394D01*
X784442Y1047401D01*
X784447Y1047401D01*
X785131Y1048304D01*
X785131Y1048311D01*
X785136Y1048312D01*
X785631Y1049331D01*
X785629Y1049338D01*
X785634Y1049340D01*
X785921Y1050437D01*
X785919Y1050441D01*
X785921Y1050442D01*
X785919Y1050444D01*
X785922Y1050446D01*
X785989Y1051577D01*
X785987Y1051581D01*
X785989Y1051583D01*
X785922Y1052714D01*
X785917Y1052719D01*
X785921Y1052723D01*
X785634Y1053820D01*
X785628Y1053824D01*
X785631Y1053829D01*
X785136Y1054848D01*
X785130Y1054851D01*
X785131Y1054856D01*
X784447Y1055759D01*
X784440Y1055761D01*
X784440Y1055766D01*
X783593Y1056519D01*
X783586Y1056519D01*
X783585Y1056524D01*
X782608Y1057097D01*
X782601Y1057096D01*
X782599Y1057101D01*
X781528Y1057472D01*
X781522Y1057469D01*
X781519Y1057474D01*
X780397Y1057629D01*
X780392Y1057626D01*
X780390Y1057629D01*
X768390Y1057629D01*
X768385Y1057626D01*
X768382Y1057629D01*
X767115Y1057424D01*
X767109Y1057418D01*
X767105Y1057421D01*
X765915Y1056939D01*
X765911Y1056932D01*
X765905Y1056934D01*
X764852Y1056200D01*
X764850Y1056192D01*
X764844Y1056193D01*
X763981Y1055243D01*
X763980Y1055234D01*
X763975Y1055234D01*
X763345Y1054115D01*
X763346Y1054107D01*
X763340Y1054105D01*
X762975Y1052875D01*
X762978Y1052867D01*
X762973Y1052864D01*
X762891Y1051583D01*
X762894Y1051579D01*
X762891Y1051577D01*
X762973Y1050296D01*
X762979Y1050290D01*
X762975Y1050285D01*
X763340Y1049055D01*
X763347Y1049050D01*
X763345Y1049045D01*
X763975Y1047926D01*
X763982Y1047923D01*
X763981Y1047917D01*
X764844Y1046967D01*
X764852Y1046966D01*
X764852Y1046960D01*
X765905Y1046226D01*
X765913Y1046226D01*
X765915Y1046221D01*
X767105Y1045739D01*
X767112Y1045741D01*
X767115Y1045736D01*
X768382Y1045531D01*
X768387Y1045534D01*
X768390Y1045531D01*
X780390Y1045531D01*
X780394Y1045534D01*
G37*
G36*
X1500484Y1548414D02*
X1500484Y1548414D01*
X1500487Y1548411D01*
X1501609Y1548566D01*
X1501614Y1548571D01*
X1501618Y1548568D01*
X1502689Y1548939D01*
X1502693Y1548945D01*
X1502698Y1548943D01*
X1503675Y1549516D01*
X1503678Y1549522D01*
X1503683Y1549521D01*
X1504530Y1550274D01*
X1504532Y1550281D01*
X1504537Y1550281D01*
X1505221Y1551184D01*
X1505221Y1551191D01*
X1505226Y1551192D01*
X1505721Y1552211D01*
X1505719Y1552218D01*
X1505724Y1552220D01*
X1506011Y1553317D01*
X1506009Y1553321D01*
X1506011Y1553322D01*
X1506009Y1553324D01*
X1506012Y1553326D01*
X1506079Y1554457D01*
X1506077Y1554461D01*
X1506079Y1554463D01*
X1506012Y1555594D01*
X1506007Y1555599D01*
X1506011Y1555603D01*
X1505724Y1556700D01*
X1505718Y1556704D01*
X1505721Y1556709D01*
X1505226Y1557728D01*
X1505220Y1557731D01*
X1505221Y1557736D01*
X1504537Y1558639D01*
X1504530Y1558641D01*
X1504530Y1558646D01*
X1503683Y1559399D01*
X1503676Y1559399D01*
X1503675Y1559404D01*
X1502698Y1559977D01*
X1502691Y1559976D01*
X1502689Y1559981D01*
X1501618Y1560352D01*
X1501612Y1560349D01*
X1501609Y1560354D01*
X1500487Y1560509D01*
X1500482Y1560506D01*
X1500480Y1560509D01*
X1488480Y1560509D01*
X1488475Y1560506D01*
X1488472Y1560509D01*
X1487205Y1560304D01*
X1487199Y1560298D01*
X1487195Y1560301D01*
X1486005Y1559819D01*
X1486001Y1559812D01*
X1485995Y1559814D01*
X1484942Y1559080D01*
X1484940Y1559072D01*
X1484934Y1559073D01*
X1484071Y1558123D01*
X1484070Y1558114D01*
X1484065Y1558114D01*
X1483435Y1556995D01*
X1483436Y1556987D01*
X1483430Y1556985D01*
X1483065Y1555755D01*
X1483068Y1555747D01*
X1483063Y1555744D01*
X1482981Y1554463D01*
X1482984Y1554459D01*
X1482981Y1554457D01*
X1483063Y1553176D01*
X1483069Y1553170D01*
X1483065Y1553165D01*
X1483430Y1551935D01*
X1483437Y1551930D01*
X1483435Y1551925D01*
X1484065Y1550806D01*
X1484072Y1550803D01*
X1484071Y1550797D01*
X1484934Y1549847D01*
X1484942Y1549846D01*
X1484942Y1549840D01*
X1485995Y1549106D01*
X1486003Y1549106D01*
X1486005Y1549101D01*
X1487195Y1548619D01*
X1487202Y1548621D01*
X1487205Y1548616D01*
X1488472Y1548411D01*
X1488477Y1548414D01*
X1488480Y1548411D01*
X1500480Y1548411D01*
X1500484Y1548414D01*
G37*
G36*
X60304Y1548414D02*
X60304Y1548414D01*
X60307Y1548411D01*
X61429Y1548566D01*
X61434Y1548571D01*
X61438Y1548568D01*
X62509Y1548939D01*
X62513Y1548945D01*
X62518Y1548943D01*
X63495Y1549516D01*
X63498Y1549522D01*
X63503Y1549521D01*
X64350Y1550274D01*
X64352Y1550281D01*
X64357Y1550281D01*
X65041Y1551184D01*
X65041Y1551191D01*
X65046Y1551192D01*
X65541Y1552211D01*
X65539Y1552218D01*
X65544Y1552220D01*
X65831Y1553317D01*
X65829Y1553321D01*
X65831Y1553322D01*
X65829Y1553324D01*
X65832Y1553326D01*
X65899Y1554457D01*
X65897Y1554461D01*
X65899Y1554463D01*
X65832Y1555594D01*
X65827Y1555599D01*
X65831Y1555603D01*
X65544Y1556700D01*
X65538Y1556704D01*
X65541Y1556709D01*
X65046Y1557728D01*
X65040Y1557731D01*
X65041Y1557736D01*
X64357Y1558639D01*
X64350Y1558641D01*
X64350Y1558646D01*
X63503Y1559399D01*
X63496Y1559399D01*
X63495Y1559404D01*
X62518Y1559977D01*
X62511Y1559976D01*
X62509Y1559981D01*
X61438Y1560352D01*
X61432Y1560349D01*
X61429Y1560354D01*
X60307Y1560509D01*
X60302Y1560506D01*
X60300Y1560509D01*
X48300Y1560509D01*
X48295Y1560506D01*
X48292Y1560509D01*
X47025Y1560304D01*
X47019Y1560298D01*
X47015Y1560301D01*
X45825Y1559819D01*
X45821Y1559812D01*
X45815Y1559814D01*
X44762Y1559080D01*
X44760Y1559072D01*
X44754Y1559073D01*
X43891Y1558123D01*
X43890Y1558114D01*
X43885Y1558114D01*
X43255Y1556995D01*
X43256Y1556987D01*
X43250Y1556985D01*
X42885Y1555755D01*
X42888Y1555747D01*
X42883Y1555744D01*
X42801Y1554463D01*
X42804Y1554459D01*
X42801Y1554457D01*
X42883Y1553176D01*
X42889Y1553170D01*
X42885Y1553165D01*
X43250Y1551935D01*
X43257Y1551930D01*
X43255Y1551925D01*
X43885Y1550806D01*
X43892Y1550803D01*
X43891Y1550797D01*
X44754Y1549847D01*
X44762Y1549846D01*
X44762Y1549840D01*
X45815Y1549106D01*
X45823Y1549106D01*
X45825Y1549101D01*
X47015Y1548619D01*
X47022Y1548621D01*
X47025Y1548616D01*
X48292Y1548411D01*
X48297Y1548414D01*
X48300Y1548411D01*
X60300Y1548411D01*
X60304Y1548414D01*
G37*
G36*
X780394Y1548414D02*
X780394Y1548414D01*
X780397Y1548411D01*
X781519Y1548566D01*
X781524Y1548571D01*
X781528Y1548568D01*
X782599Y1548939D01*
X782603Y1548945D01*
X782608Y1548943D01*
X783585Y1549516D01*
X783588Y1549522D01*
X783593Y1549521D01*
X784440Y1550274D01*
X784442Y1550281D01*
X784447Y1550281D01*
X785131Y1551184D01*
X785131Y1551191D01*
X785136Y1551192D01*
X785631Y1552211D01*
X785629Y1552218D01*
X785634Y1552220D01*
X785921Y1553317D01*
X785919Y1553321D01*
X785921Y1553322D01*
X785919Y1553324D01*
X785922Y1553326D01*
X785989Y1554457D01*
X785987Y1554461D01*
X785989Y1554463D01*
X785922Y1555594D01*
X785917Y1555599D01*
X785921Y1555603D01*
X785634Y1556700D01*
X785628Y1556704D01*
X785631Y1556709D01*
X785136Y1557728D01*
X785130Y1557731D01*
X785131Y1557736D01*
X784447Y1558639D01*
X784440Y1558641D01*
X784440Y1558646D01*
X783593Y1559399D01*
X783586Y1559399D01*
X783585Y1559404D01*
X782608Y1559977D01*
X782601Y1559976D01*
X782599Y1559981D01*
X781528Y1560352D01*
X781522Y1560349D01*
X781519Y1560354D01*
X780397Y1560509D01*
X780392Y1560506D01*
X780390Y1560509D01*
X768390Y1560509D01*
X768385Y1560506D01*
X768382Y1560509D01*
X767115Y1560304D01*
X767109Y1560298D01*
X767105Y1560301D01*
X765915Y1559819D01*
X765911Y1559812D01*
X765905Y1559814D01*
X764852Y1559080D01*
X764850Y1559072D01*
X764844Y1559073D01*
X763981Y1558123D01*
X763980Y1558114D01*
X763975Y1558114D01*
X763345Y1556995D01*
X763346Y1556987D01*
X763340Y1556985D01*
X762975Y1555755D01*
X762978Y1555747D01*
X762973Y1555744D01*
X762891Y1554463D01*
X762894Y1554459D01*
X762891Y1554457D01*
X762973Y1553176D01*
X762979Y1553170D01*
X762975Y1553165D01*
X763340Y1551935D01*
X763347Y1551930D01*
X763345Y1551925D01*
X763975Y1550806D01*
X763982Y1550803D01*
X763981Y1550797D01*
X764844Y1549847D01*
X764852Y1549846D01*
X764852Y1549840D01*
X765905Y1549106D01*
X765913Y1549106D01*
X765915Y1549101D01*
X767105Y1548619D01*
X767112Y1548621D01*
X767115Y1548616D01*
X768382Y1548411D01*
X768387Y1548414D01*
X768390Y1548411D01*
X780390Y1548411D01*
X780394Y1548414D01*
G37*
G36*
X1455683Y1634813D02*
X1455683Y1634813D01*
X1455685Y1634811D01*
X1456861Y1634922D01*
X1456866Y1634927D01*
X1456870Y1634924D01*
X1458002Y1635262D01*
X1458006Y1635268D01*
X1458011Y1635266D01*
X1459055Y1635818D01*
X1459058Y1635825D01*
X1459063Y1635823D01*
X1459979Y1636569D01*
X1459980Y1636576D01*
X1459986Y1636576D01*
X1460739Y1637486D01*
X1460739Y1637493D01*
X1460744Y1637494D01*
X1461305Y1638533D01*
X1461304Y1638538D01*
X1461308Y1638540D01*
X1461307Y1638541D01*
X1461309Y1638542D01*
X1461656Y1639671D01*
X1461656Y1639672D01*
X1461657Y1639673D01*
X1461654Y1639677D01*
X1461658Y1639680D01*
X1461779Y1640855D01*
X1461775Y1640862D01*
X1461779Y1640866D01*
X1461622Y1642206D01*
X1461617Y1642212D01*
X1461620Y1642217D01*
X1461169Y1643488D01*
X1461162Y1643493D01*
X1461164Y1643498D01*
X1460442Y1644637D01*
X1460434Y1644640D01*
X1460435Y1644646D01*
X1459477Y1645596D01*
X1459469Y1645597D01*
X1459468Y1645603D01*
X1458323Y1646316D01*
X1458315Y1646315D01*
X1458313Y1646321D01*
X1457037Y1646761D01*
X1457030Y1646759D01*
X1457027Y1646763D01*
X1455685Y1646909D01*
X1455682Y1646907D01*
X1455680Y1646909D01*
X1449680Y1646909D01*
X1449677Y1646907D01*
X1449674Y1646909D01*
X1448345Y1646754D01*
X1448339Y1646748D01*
X1448335Y1646751D01*
X1447074Y1646304D01*
X1447069Y1646297D01*
X1447064Y1646299D01*
X1445934Y1645582D01*
X1445931Y1645575D01*
X1445925Y1645576D01*
X1444983Y1644626D01*
X1444982Y1644617D01*
X1444976Y1644617D01*
X1444269Y1643481D01*
X1444270Y1643473D01*
X1444264Y1643471D01*
X1443828Y1642206D01*
X1443830Y1642198D01*
X1443825Y1642196D01*
X1443681Y1640865D01*
X1443685Y1640859D01*
X1443681Y1640855D01*
X1443791Y1639689D01*
X1443796Y1639684D01*
X1443793Y1639680D01*
X1444128Y1638557D01*
X1444134Y1638553D01*
X1444132Y1638549D01*
X1444680Y1637513D01*
X1444686Y1637510D01*
X1444685Y1637505D01*
X1445424Y1636597D01*
X1445431Y1636595D01*
X1445431Y1636590D01*
X1446333Y1635843D01*
X1446341Y1635843D01*
X1446341Y1635838D01*
X1447372Y1635281D01*
X1447379Y1635282D01*
X1447381Y1635277D01*
X1448500Y1634933D01*
X1448507Y1634935D01*
X1448510Y1634931D01*
X1449675Y1634811D01*
X1449678Y1634813D01*
X1449680Y1634811D01*
X1455680Y1634811D01*
X1455683Y1634813D01*
G37*
G36*
X15503Y959133D02*
X15503Y959133D01*
X15505Y959131D01*
X16681Y959242D01*
X16686Y959247D01*
X16690Y959244D01*
X17822Y959582D01*
X17826Y959588D01*
X17831Y959586D01*
X18875Y960138D01*
X18878Y960145D01*
X18883Y960143D01*
X19799Y960889D01*
X19800Y960896D01*
X19806Y960896D01*
X20559Y961806D01*
X20559Y961813D01*
X20564Y961814D01*
X21125Y962853D01*
X21124Y962858D01*
X21128Y962860D01*
X21127Y962861D01*
X21129Y962862D01*
X21476Y963991D01*
X21476Y963992D01*
X21477Y963993D01*
X21474Y963997D01*
X21478Y964000D01*
X21599Y965175D01*
X21595Y965182D01*
X21599Y965186D01*
X21442Y966526D01*
X21437Y966532D01*
X21440Y966537D01*
X20989Y967808D01*
X20982Y967813D01*
X20984Y967818D01*
X20262Y968957D01*
X20254Y968960D01*
X20255Y968966D01*
X19297Y969916D01*
X19289Y969917D01*
X19288Y969923D01*
X18143Y970636D01*
X18135Y970635D01*
X18133Y970641D01*
X16857Y971081D01*
X16850Y971079D01*
X16847Y971083D01*
X15505Y971229D01*
X15502Y971227D01*
X15500Y971229D01*
X9500Y971229D01*
X9497Y971227D01*
X9494Y971229D01*
X8165Y971074D01*
X8159Y971068D01*
X8155Y971071D01*
X6894Y970624D01*
X6889Y970617D01*
X6884Y970619D01*
X5754Y969902D01*
X5751Y969895D01*
X5745Y969896D01*
X4803Y968946D01*
X4802Y968937D01*
X4796Y968937D01*
X4089Y967801D01*
X4090Y967793D01*
X4084Y967791D01*
X3648Y966526D01*
X3650Y966518D01*
X3645Y966516D01*
X3501Y965185D01*
X3505Y965179D01*
X3501Y965175D01*
X3611Y964009D01*
X3616Y964004D01*
X3613Y964000D01*
X3948Y962877D01*
X3954Y962873D01*
X3952Y962869D01*
X4500Y961833D01*
X4506Y961830D01*
X4505Y961825D01*
X5244Y960917D01*
X5251Y960915D01*
X5251Y960910D01*
X6153Y960163D01*
X6161Y960163D01*
X6161Y960158D01*
X7192Y959601D01*
X7199Y959602D01*
X7201Y959597D01*
X8320Y959253D01*
X8327Y959255D01*
X8330Y959251D01*
X9495Y959131D01*
X9498Y959133D01*
X9500Y959131D01*
X15500Y959131D01*
X15503Y959133D01*
G37*
G36*
X735593Y1634813D02*
X735593Y1634813D01*
X735595Y1634811D01*
X736771Y1634922D01*
X736776Y1634927D01*
X736780Y1634924D01*
X737912Y1635262D01*
X737916Y1635268D01*
X737921Y1635266D01*
X738965Y1635818D01*
X738968Y1635825D01*
X738973Y1635823D01*
X739889Y1636569D01*
X739890Y1636576D01*
X739896Y1636576D01*
X740649Y1637486D01*
X740649Y1637493D01*
X740654Y1637494D01*
X741215Y1638533D01*
X741214Y1638538D01*
X741218Y1638540D01*
X741217Y1638541D01*
X741219Y1638542D01*
X741566Y1639671D01*
X741566Y1639672D01*
X741567Y1639673D01*
X741564Y1639677D01*
X741568Y1639680D01*
X741689Y1640855D01*
X741685Y1640862D01*
X741689Y1640866D01*
X741532Y1642206D01*
X741527Y1642212D01*
X741530Y1642217D01*
X741079Y1643488D01*
X741072Y1643493D01*
X741074Y1643498D01*
X740352Y1644637D01*
X740344Y1644640D01*
X740345Y1644646D01*
X739387Y1645596D01*
X739379Y1645597D01*
X739378Y1645603D01*
X738233Y1646316D01*
X738225Y1646315D01*
X738223Y1646321D01*
X736947Y1646761D01*
X736940Y1646759D01*
X736937Y1646763D01*
X735595Y1646909D01*
X735592Y1646907D01*
X735590Y1646909D01*
X729590Y1646909D01*
X729587Y1646907D01*
X729584Y1646909D01*
X728255Y1646754D01*
X728249Y1646748D01*
X728245Y1646751D01*
X726984Y1646304D01*
X726979Y1646297D01*
X726974Y1646299D01*
X725844Y1645582D01*
X725841Y1645575D01*
X725835Y1645576D01*
X724893Y1644626D01*
X724892Y1644617D01*
X724886Y1644617D01*
X724179Y1643481D01*
X724180Y1643473D01*
X724174Y1643471D01*
X723738Y1642206D01*
X723740Y1642198D01*
X723735Y1642196D01*
X723591Y1640865D01*
X723595Y1640859D01*
X723591Y1640855D01*
X723701Y1639689D01*
X723706Y1639684D01*
X723703Y1639680D01*
X724038Y1638557D01*
X724044Y1638553D01*
X724042Y1638549D01*
X724590Y1637513D01*
X724596Y1637510D01*
X724595Y1637505D01*
X725334Y1636597D01*
X725341Y1636595D01*
X725341Y1636590D01*
X726243Y1635843D01*
X726251Y1635843D01*
X726251Y1635838D01*
X727282Y1635281D01*
X727289Y1635282D01*
X727291Y1635277D01*
X728410Y1634933D01*
X728417Y1634935D01*
X728420Y1634931D01*
X729585Y1634811D01*
X729588Y1634813D01*
X729590Y1634811D01*
X735590Y1634811D01*
X735593Y1634813D01*
G37*
G36*
X15503Y1634813D02*
X15503Y1634813D01*
X15505Y1634811D01*
X16681Y1634922D01*
X16686Y1634927D01*
X16690Y1634924D01*
X17822Y1635262D01*
X17826Y1635268D01*
X17831Y1635266D01*
X18875Y1635818D01*
X18878Y1635825D01*
X18883Y1635823D01*
X19799Y1636569D01*
X19800Y1636576D01*
X19806Y1636576D01*
X20559Y1637486D01*
X20559Y1637493D01*
X20564Y1637494D01*
X21125Y1638533D01*
X21124Y1638538D01*
X21128Y1638540D01*
X21127Y1638541D01*
X21129Y1638542D01*
X21476Y1639671D01*
X21476Y1639672D01*
X21477Y1639673D01*
X21474Y1639677D01*
X21478Y1639680D01*
X21599Y1640855D01*
X21595Y1640862D01*
X21599Y1640866D01*
X21442Y1642206D01*
X21437Y1642212D01*
X21440Y1642217D01*
X20989Y1643488D01*
X20982Y1643493D01*
X20984Y1643498D01*
X20262Y1644637D01*
X20254Y1644640D01*
X20255Y1644646D01*
X19297Y1645596D01*
X19289Y1645597D01*
X19288Y1645603D01*
X18143Y1646316D01*
X18135Y1646315D01*
X18133Y1646321D01*
X16857Y1646761D01*
X16850Y1646759D01*
X16847Y1646763D01*
X15505Y1646909D01*
X15502Y1646907D01*
X15500Y1646909D01*
X9500Y1646909D01*
X9497Y1646907D01*
X9494Y1646909D01*
X8165Y1646754D01*
X8159Y1646748D01*
X8155Y1646751D01*
X6894Y1646304D01*
X6889Y1646297D01*
X6884Y1646299D01*
X5754Y1645582D01*
X5751Y1645575D01*
X5745Y1645576D01*
X4803Y1644626D01*
X4802Y1644617D01*
X4796Y1644617D01*
X4089Y1643481D01*
X4090Y1643473D01*
X4084Y1643471D01*
X3648Y1642206D01*
X3650Y1642198D01*
X3645Y1642196D01*
X3501Y1640865D01*
X3505Y1640859D01*
X3501Y1640855D01*
X3611Y1639689D01*
X3616Y1639684D01*
X3613Y1639680D01*
X3948Y1638557D01*
X3954Y1638553D01*
X3952Y1638549D01*
X4500Y1637513D01*
X4506Y1637510D01*
X4505Y1637505D01*
X5244Y1636597D01*
X5251Y1636595D01*
X5251Y1636590D01*
X6153Y1635843D01*
X6161Y1635843D01*
X6161Y1635838D01*
X7192Y1635281D01*
X7199Y1635282D01*
X7201Y1635277D01*
X8320Y1634933D01*
X8327Y1634935D01*
X8330Y1634931D01*
X9495Y1634811D01*
X9498Y1634813D01*
X9500Y1634811D01*
X15500Y1634811D01*
X15503Y1634813D01*
G37*
G36*
X735593Y959133D02*
X735593Y959133D01*
X735595Y959131D01*
X736771Y959242D01*
X736776Y959247D01*
X736780Y959244D01*
X737912Y959582D01*
X737916Y959588D01*
X737921Y959586D01*
X738965Y960138D01*
X738968Y960145D01*
X738973Y960143D01*
X739889Y960889D01*
X739890Y960896D01*
X739896Y960896D01*
X740649Y961806D01*
X740649Y961813D01*
X740654Y961814D01*
X741215Y962853D01*
X741214Y962858D01*
X741218Y962860D01*
X741217Y962861D01*
X741219Y962862D01*
X741566Y963991D01*
X741566Y963992D01*
X741567Y963993D01*
X741564Y963997D01*
X741568Y964000D01*
X741689Y965175D01*
X741685Y965182D01*
X741689Y965186D01*
X741532Y966526D01*
X741527Y966532D01*
X741530Y966537D01*
X741079Y967808D01*
X741072Y967813D01*
X741074Y967818D01*
X740352Y968957D01*
X740344Y968960D01*
X740345Y968966D01*
X739387Y969916D01*
X739379Y969917D01*
X739378Y969923D01*
X738233Y970636D01*
X738225Y970635D01*
X738223Y970641D01*
X736947Y971081D01*
X736940Y971079D01*
X736937Y971083D01*
X735595Y971229D01*
X735592Y971227D01*
X735590Y971229D01*
X729590Y971229D01*
X729587Y971227D01*
X729584Y971229D01*
X728255Y971074D01*
X728249Y971068D01*
X728245Y971071D01*
X726984Y970624D01*
X726979Y970617D01*
X726974Y970619D01*
X725844Y969902D01*
X725841Y969895D01*
X725835Y969896D01*
X724893Y968946D01*
X724892Y968937D01*
X724886Y968937D01*
X724179Y967801D01*
X724180Y967793D01*
X724174Y967791D01*
X723738Y966526D01*
X723740Y966518D01*
X723735Y966516D01*
X723591Y965185D01*
X723595Y965179D01*
X723591Y965175D01*
X723701Y964009D01*
X723706Y964004D01*
X723703Y964000D01*
X724038Y962877D01*
X724044Y962873D01*
X724042Y962869D01*
X724590Y961833D01*
X724596Y961830D01*
X724595Y961825D01*
X725334Y960917D01*
X725341Y960915D01*
X725341Y960910D01*
X726243Y960163D01*
X726251Y960163D01*
X726251Y960158D01*
X727282Y959601D01*
X727289Y959602D01*
X727291Y959597D01*
X728410Y959253D01*
X728417Y959255D01*
X728420Y959251D01*
X729585Y959131D01*
X729588Y959133D01*
X729590Y959131D01*
X735590Y959131D01*
X735593Y959133D01*
G37*
G36*
X1455683Y959133D02*
X1455683Y959133D01*
X1455685Y959131D01*
X1456861Y959242D01*
X1456866Y959247D01*
X1456870Y959244D01*
X1458002Y959582D01*
X1458006Y959588D01*
X1458011Y959586D01*
X1459055Y960138D01*
X1459058Y960145D01*
X1459063Y960143D01*
X1459979Y960889D01*
X1459980Y960896D01*
X1459986Y960896D01*
X1460739Y961806D01*
X1460739Y961813D01*
X1460744Y961814D01*
X1461305Y962853D01*
X1461304Y962858D01*
X1461308Y962860D01*
X1461307Y962861D01*
X1461309Y962862D01*
X1461656Y963991D01*
X1461656Y963992D01*
X1461657Y963993D01*
X1461654Y963997D01*
X1461658Y964000D01*
X1461779Y965175D01*
X1461775Y965182D01*
X1461779Y965186D01*
X1461622Y966526D01*
X1461617Y966532D01*
X1461620Y966537D01*
X1461169Y967808D01*
X1461162Y967813D01*
X1461164Y967818D01*
X1460442Y968957D01*
X1460434Y968960D01*
X1460435Y968966D01*
X1459477Y969916D01*
X1459469Y969917D01*
X1459468Y969923D01*
X1458323Y970636D01*
X1458315Y970635D01*
X1458313Y970641D01*
X1457037Y971081D01*
X1457030Y971079D01*
X1457027Y971083D01*
X1455685Y971229D01*
X1455682Y971227D01*
X1455680Y971229D01*
X1449680Y971229D01*
X1449677Y971227D01*
X1449674Y971229D01*
X1448345Y971074D01*
X1448339Y971068D01*
X1448335Y971071D01*
X1447074Y970624D01*
X1447069Y970617D01*
X1447064Y970619D01*
X1445934Y969902D01*
X1445931Y969895D01*
X1445925Y969896D01*
X1444983Y968946D01*
X1444982Y968937D01*
X1444976Y968937D01*
X1444269Y967801D01*
X1444270Y967793D01*
X1444264Y967791D01*
X1443828Y966526D01*
X1443830Y966518D01*
X1443825Y966516D01*
X1443681Y965185D01*
X1443685Y965179D01*
X1443681Y965175D01*
X1443791Y964009D01*
X1443796Y964004D01*
X1443793Y964000D01*
X1444128Y962877D01*
X1444134Y962873D01*
X1444132Y962869D01*
X1444680Y961833D01*
X1444686Y961830D01*
X1444685Y961825D01*
X1445424Y960917D01*
X1445431Y960915D01*
X1445431Y960910D01*
X1446333Y960163D01*
X1446341Y960163D01*
X1446341Y960158D01*
X1447372Y959601D01*
X1447379Y959602D01*
X1447381Y959597D01*
X1448500Y959253D01*
X1448507Y959255D01*
X1448510Y959251D01*
X1449675Y959131D01*
X1449678Y959133D01*
X1449680Y959131D01*
X1455680Y959131D01*
X1455683Y959133D01*
G37*
G36*
X15503Y456253D02*
X15503Y456253D01*
X15505Y456251D01*
X16681Y456362D01*
X16686Y456367D01*
X16690Y456364D01*
X17822Y456702D01*
X17826Y456708D01*
X17831Y456706D01*
X18875Y457258D01*
X18878Y457265D01*
X18883Y457263D01*
X19799Y458009D01*
X19800Y458016D01*
X19806Y458016D01*
X20559Y458926D01*
X20559Y458933D01*
X20564Y458934D01*
X21125Y459973D01*
X21124Y459978D01*
X21128Y459980D01*
X21127Y459981D01*
X21129Y459982D01*
X21476Y461111D01*
X21476Y461112D01*
X21477Y461113D01*
X21474Y461117D01*
X21478Y461120D01*
X21599Y462295D01*
X21595Y462302D01*
X21599Y462306D01*
X21442Y463646D01*
X21437Y463652D01*
X21440Y463657D01*
X20989Y464928D01*
X20982Y464933D01*
X20984Y464938D01*
X20262Y466077D01*
X20254Y466080D01*
X20255Y466086D01*
X19297Y467036D01*
X19289Y467037D01*
X19288Y467043D01*
X18143Y467756D01*
X18135Y467755D01*
X18133Y467761D01*
X16857Y468201D01*
X16850Y468199D01*
X16847Y468203D01*
X15505Y468349D01*
X15502Y468347D01*
X15500Y468349D01*
X9500Y468349D01*
X9497Y468347D01*
X9494Y468349D01*
X8165Y468194D01*
X8159Y468188D01*
X8155Y468191D01*
X6894Y467744D01*
X6889Y467737D01*
X6884Y467739D01*
X5754Y467022D01*
X5751Y467015D01*
X5745Y467016D01*
X4803Y466066D01*
X4802Y466057D01*
X4796Y466057D01*
X4089Y464921D01*
X4090Y464913D01*
X4084Y464911D01*
X3648Y463646D01*
X3650Y463638D01*
X3645Y463636D01*
X3501Y462305D01*
X3505Y462299D01*
X3501Y462295D01*
X3611Y461129D01*
X3616Y461124D01*
X3613Y461120D01*
X3948Y459997D01*
X3954Y459993D01*
X3952Y459989D01*
X4500Y458953D01*
X4506Y458950D01*
X4505Y458945D01*
X5244Y458037D01*
X5251Y458035D01*
X5251Y458030D01*
X6153Y457283D01*
X6161Y457283D01*
X6161Y457278D01*
X7192Y456721D01*
X7199Y456722D01*
X7201Y456717D01*
X8320Y456373D01*
X8327Y456375D01*
X8330Y456371D01*
X9495Y456251D01*
X9498Y456253D01*
X9500Y456251D01*
X15500Y456251D01*
X15503Y456253D01*
G37*
G36*
X1455683Y369853D02*
X1455683Y369853D01*
X1455685Y369851D01*
X1456861Y369962D01*
X1456866Y369967D01*
X1456870Y369964D01*
X1458002Y370302D01*
X1458006Y370308D01*
X1458011Y370306D01*
X1459055Y370858D01*
X1459058Y370865D01*
X1459063Y370863D01*
X1459979Y371609D01*
X1459980Y371616D01*
X1459986Y371616D01*
X1460739Y372526D01*
X1460739Y372533D01*
X1460744Y372534D01*
X1461305Y373573D01*
X1461304Y373578D01*
X1461308Y373580D01*
X1461307Y373581D01*
X1461309Y373582D01*
X1461656Y374711D01*
X1461656Y374712D01*
X1461657Y374713D01*
X1461654Y374717D01*
X1461658Y374720D01*
X1461779Y375895D01*
X1461775Y375902D01*
X1461779Y375906D01*
X1461622Y377246D01*
X1461617Y377252D01*
X1461620Y377257D01*
X1461169Y378528D01*
X1461162Y378533D01*
X1461164Y378538D01*
X1460442Y379677D01*
X1460434Y379680D01*
X1460435Y379686D01*
X1459477Y380636D01*
X1459469Y380637D01*
X1459468Y380643D01*
X1458323Y381356D01*
X1458315Y381355D01*
X1458313Y381361D01*
X1457037Y381801D01*
X1457030Y381799D01*
X1457027Y381803D01*
X1455685Y381949D01*
X1455682Y381947D01*
X1455680Y381949D01*
X1449680Y381949D01*
X1449677Y381947D01*
X1449674Y381949D01*
X1448345Y381794D01*
X1448339Y381788D01*
X1448335Y381791D01*
X1447074Y381344D01*
X1447069Y381337D01*
X1447064Y381339D01*
X1445934Y380622D01*
X1445931Y380615D01*
X1445925Y380616D01*
X1444983Y379666D01*
X1444982Y379657D01*
X1444976Y379657D01*
X1444269Y378521D01*
X1444270Y378513D01*
X1444264Y378511D01*
X1443828Y377246D01*
X1443830Y377238D01*
X1443825Y377236D01*
X1443681Y375905D01*
X1443685Y375899D01*
X1443681Y375895D01*
X1443791Y374729D01*
X1443796Y374724D01*
X1443793Y374720D01*
X1444128Y373597D01*
X1444134Y373593D01*
X1444132Y373589D01*
X1444680Y372553D01*
X1444686Y372550D01*
X1444685Y372545D01*
X1445424Y371637D01*
X1445431Y371635D01*
X1445431Y371630D01*
X1446333Y370883D01*
X1446341Y370883D01*
X1446341Y370878D01*
X1447372Y370321D01*
X1447379Y370322D01*
X1447381Y370317D01*
X1448500Y369973D01*
X1448507Y369975D01*
X1448510Y369971D01*
X1449675Y369851D01*
X1449678Y369853D01*
X1449680Y369851D01*
X1455680Y369851D01*
X1455683Y369853D01*
G37*
G36*
X1455683Y1045533D02*
X1455683Y1045533D01*
X1455685Y1045531D01*
X1456861Y1045642D01*
X1456866Y1045647D01*
X1456870Y1045644D01*
X1458002Y1045982D01*
X1458006Y1045988D01*
X1458011Y1045986D01*
X1459055Y1046538D01*
X1459058Y1046545D01*
X1459063Y1046543D01*
X1459979Y1047289D01*
X1459980Y1047296D01*
X1459986Y1047296D01*
X1460739Y1048206D01*
X1460739Y1048213D01*
X1460744Y1048214D01*
X1461305Y1049253D01*
X1461304Y1049258D01*
X1461308Y1049260D01*
X1461307Y1049261D01*
X1461309Y1049262D01*
X1461656Y1050391D01*
X1461656Y1050392D01*
X1461657Y1050393D01*
X1461654Y1050397D01*
X1461658Y1050400D01*
X1461779Y1051575D01*
X1461775Y1051582D01*
X1461779Y1051586D01*
X1461622Y1052926D01*
X1461617Y1052932D01*
X1461620Y1052937D01*
X1461169Y1054208D01*
X1461162Y1054213D01*
X1461164Y1054218D01*
X1460442Y1055357D01*
X1460434Y1055360D01*
X1460435Y1055366D01*
X1459477Y1056316D01*
X1459469Y1056317D01*
X1459468Y1056323D01*
X1458323Y1057036D01*
X1458315Y1057035D01*
X1458313Y1057041D01*
X1457037Y1057481D01*
X1457030Y1057479D01*
X1457027Y1057483D01*
X1455685Y1057629D01*
X1455682Y1057627D01*
X1455680Y1057629D01*
X1449680Y1057629D01*
X1449677Y1057627D01*
X1449674Y1057629D01*
X1448345Y1057474D01*
X1448339Y1057468D01*
X1448335Y1057471D01*
X1447074Y1057024D01*
X1447069Y1057017D01*
X1447064Y1057019D01*
X1445934Y1056302D01*
X1445931Y1056295D01*
X1445925Y1056296D01*
X1444983Y1055346D01*
X1444982Y1055337D01*
X1444976Y1055337D01*
X1444269Y1054201D01*
X1444270Y1054193D01*
X1444264Y1054191D01*
X1443828Y1052926D01*
X1443830Y1052918D01*
X1443825Y1052916D01*
X1443681Y1051585D01*
X1443685Y1051579D01*
X1443681Y1051575D01*
X1443791Y1050409D01*
X1443796Y1050404D01*
X1443793Y1050400D01*
X1444128Y1049277D01*
X1444134Y1049273D01*
X1444132Y1049269D01*
X1444680Y1048233D01*
X1444686Y1048230D01*
X1444685Y1048225D01*
X1445424Y1047317D01*
X1445431Y1047315D01*
X1445431Y1047310D01*
X1446333Y1046563D01*
X1446341Y1046563D01*
X1446341Y1046558D01*
X1447372Y1046001D01*
X1447379Y1046002D01*
X1447381Y1045997D01*
X1448500Y1045653D01*
X1448507Y1045655D01*
X1448510Y1045651D01*
X1449675Y1045531D01*
X1449678Y1045533D01*
X1449680Y1045531D01*
X1455680Y1045531D01*
X1455683Y1045533D01*
G37*
G36*
X735593Y1045533D02*
X735593Y1045533D01*
X735595Y1045531D01*
X736771Y1045642D01*
X736776Y1045647D01*
X736780Y1045644D01*
X737912Y1045982D01*
X737916Y1045988D01*
X737921Y1045986D01*
X738965Y1046538D01*
X738968Y1046545D01*
X738973Y1046543D01*
X739889Y1047289D01*
X739890Y1047296D01*
X739896Y1047296D01*
X740649Y1048206D01*
X740649Y1048213D01*
X740654Y1048214D01*
X741215Y1049253D01*
X741214Y1049258D01*
X741218Y1049260D01*
X741217Y1049261D01*
X741219Y1049262D01*
X741566Y1050391D01*
X741566Y1050392D01*
X741567Y1050393D01*
X741564Y1050397D01*
X741568Y1050400D01*
X741689Y1051575D01*
X741685Y1051582D01*
X741689Y1051586D01*
X741532Y1052926D01*
X741527Y1052932D01*
X741530Y1052937D01*
X741079Y1054208D01*
X741072Y1054213D01*
X741074Y1054218D01*
X740352Y1055357D01*
X740344Y1055360D01*
X740345Y1055366D01*
X739387Y1056316D01*
X739379Y1056317D01*
X739378Y1056323D01*
X738233Y1057036D01*
X738225Y1057035D01*
X738223Y1057041D01*
X736947Y1057481D01*
X736940Y1057479D01*
X736937Y1057483D01*
X735595Y1057629D01*
X735592Y1057627D01*
X735590Y1057629D01*
X729590Y1057629D01*
X729587Y1057627D01*
X729584Y1057629D01*
X728255Y1057474D01*
X728249Y1057468D01*
X728245Y1057471D01*
X726984Y1057024D01*
X726979Y1057017D01*
X726974Y1057019D01*
X725844Y1056302D01*
X725841Y1056295D01*
X725835Y1056296D01*
X724893Y1055346D01*
X724892Y1055337D01*
X724886Y1055337D01*
X724179Y1054201D01*
X724180Y1054193D01*
X724174Y1054191D01*
X723738Y1052926D01*
X723740Y1052918D01*
X723735Y1052916D01*
X723591Y1051585D01*
X723595Y1051579D01*
X723591Y1051575D01*
X723701Y1050409D01*
X723706Y1050404D01*
X723703Y1050400D01*
X724038Y1049277D01*
X724044Y1049273D01*
X724042Y1049269D01*
X724590Y1048233D01*
X724596Y1048230D01*
X724595Y1048225D01*
X725334Y1047317D01*
X725341Y1047315D01*
X725341Y1047310D01*
X726243Y1046563D01*
X726251Y1046563D01*
X726251Y1046558D01*
X727282Y1046001D01*
X727289Y1046002D01*
X727291Y1045997D01*
X728410Y1045653D01*
X728417Y1045655D01*
X728420Y1045651D01*
X729585Y1045531D01*
X729588Y1045533D01*
X729590Y1045531D01*
X735590Y1045531D01*
X735593Y1045533D01*
G37*
G36*
X735593Y369853D02*
X735593Y369853D01*
X735595Y369851D01*
X736771Y369962D01*
X736776Y369967D01*
X736780Y369964D01*
X737912Y370302D01*
X737916Y370308D01*
X737921Y370306D01*
X738965Y370858D01*
X738968Y370865D01*
X738973Y370863D01*
X739889Y371609D01*
X739890Y371616D01*
X739896Y371616D01*
X740649Y372526D01*
X740649Y372533D01*
X740654Y372534D01*
X741215Y373573D01*
X741214Y373578D01*
X741218Y373580D01*
X741217Y373581D01*
X741219Y373582D01*
X741566Y374711D01*
X741566Y374712D01*
X741567Y374713D01*
X741564Y374717D01*
X741568Y374720D01*
X741689Y375895D01*
X741685Y375902D01*
X741689Y375906D01*
X741532Y377246D01*
X741527Y377252D01*
X741530Y377257D01*
X741079Y378528D01*
X741072Y378533D01*
X741074Y378538D01*
X740352Y379677D01*
X740344Y379680D01*
X740345Y379686D01*
X739387Y380636D01*
X739379Y380637D01*
X739378Y380643D01*
X738233Y381356D01*
X738225Y381355D01*
X738223Y381361D01*
X736947Y381801D01*
X736940Y381799D01*
X736937Y381803D01*
X735595Y381949D01*
X735592Y381947D01*
X735590Y381949D01*
X729590Y381949D01*
X729587Y381947D01*
X729584Y381949D01*
X728255Y381794D01*
X728249Y381788D01*
X728245Y381791D01*
X726984Y381344D01*
X726979Y381337D01*
X726974Y381339D01*
X725844Y380622D01*
X725841Y380615D01*
X725835Y380616D01*
X724893Y379666D01*
X724892Y379657D01*
X724886Y379657D01*
X724179Y378521D01*
X724180Y378513D01*
X724174Y378511D01*
X723738Y377246D01*
X723740Y377238D01*
X723735Y377236D01*
X723591Y375905D01*
X723595Y375899D01*
X723591Y375895D01*
X723701Y374729D01*
X723706Y374724D01*
X723703Y374720D01*
X724038Y373597D01*
X724044Y373593D01*
X724042Y373589D01*
X724590Y372553D01*
X724596Y372550D01*
X724595Y372545D01*
X725334Y371637D01*
X725341Y371635D01*
X725341Y371630D01*
X726243Y370883D01*
X726251Y370883D01*
X726251Y370878D01*
X727282Y370321D01*
X727289Y370322D01*
X727291Y370317D01*
X728410Y369973D01*
X728417Y369975D01*
X728420Y369971D01*
X729585Y369851D01*
X729588Y369853D01*
X729590Y369851D01*
X735590Y369851D01*
X735593Y369853D01*
G37*
G36*
X15503Y1548413D02*
X15503Y1548413D01*
X15505Y1548411D01*
X16681Y1548522D01*
X16686Y1548527D01*
X16690Y1548524D01*
X17822Y1548862D01*
X17826Y1548868D01*
X17831Y1548866D01*
X18875Y1549418D01*
X18878Y1549425D01*
X18883Y1549423D01*
X19799Y1550169D01*
X19800Y1550176D01*
X19806Y1550176D01*
X20559Y1551086D01*
X20559Y1551093D01*
X20564Y1551094D01*
X21125Y1552133D01*
X21124Y1552138D01*
X21128Y1552140D01*
X21127Y1552141D01*
X21129Y1552142D01*
X21476Y1553271D01*
X21476Y1553272D01*
X21477Y1553273D01*
X21474Y1553277D01*
X21478Y1553280D01*
X21599Y1554455D01*
X21595Y1554462D01*
X21599Y1554466D01*
X21442Y1555806D01*
X21437Y1555812D01*
X21440Y1555817D01*
X20989Y1557088D01*
X20982Y1557093D01*
X20984Y1557098D01*
X20262Y1558237D01*
X20254Y1558240D01*
X20255Y1558246D01*
X19297Y1559196D01*
X19289Y1559197D01*
X19288Y1559203D01*
X18143Y1559916D01*
X18135Y1559915D01*
X18133Y1559921D01*
X16857Y1560361D01*
X16850Y1560359D01*
X16847Y1560363D01*
X15505Y1560509D01*
X15502Y1560507D01*
X15500Y1560509D01*
X9500Y1560509D01*
X9497Y1560507D01*
X9494Y1560509D01*
X8165Y1560354D01*
X8159Y1560348D01*
X8155Y1560351D01*
X6894Y1559904D01*
X6889Y1559897D01*
X6884Y1559899D01*
X5754Y1559182D01*
X5751Y1559175D01*
X5745Y1559176D01*
X4803Y1558226D01*
X4802Y1558217D01*
X4796Y1558217D01*
X4089Y1557081D01*
X4090Y1557073D01*
X4084Y1557071D01*
X3648Y1555806D01*
X3650Y1555798D01*
X3645Y1555796D01*
X3501Y1554465D01*
X3505Y1554459D01*
X3501Y1554455D01*
X3611Y1553289D01*
X3616Y1553284D01*
X3613Y1553280D01*
X3948Y1552157D01*
X3954Y1552153D01*
X3952Y1552149D01*
X4500Y1551113D01*
X4506Y1551110D01*
X4505Y1551105D01*
X5244Y1550197D01*
X5251Y1550195D01*
X5251Y1550190D01*
X6153Y1549443D01*
X6161Y1549443D01*
X6161Y1549438D01*
X7192Y1548881D01*
X7199Y1548882D01*
X7201Y1548877D01*
X8320Y1548533D01*
X8327Y1548535D01*
X8330Y1548531D01*
X9495Y1548411D01*
X9498Y1548413D01*
X9500Y1548411D01*
X15500Y1548411D01*
X15503Y1548413D01*
G37*
G36*
X15503Y1045533D02*
X15503Y1045533D01*
X15505Y1045531D01*
X16681Y1045642D01*
X16686Y1045647D01*
X16690Y1045644D01*
X17822Y1045982D01*
X17826Y1045988D01*
X17831Y1045986D01*
X18875Y1046538D01*
X18878Y1046545D01*
X18883Y1046543D01*
X19799Y1047289D01*
X19800Y1047296D01*
X19806Y1047296D01*
X20559Y1048206D01*
X20559Y1048213D01*
X20564Y1048214D01*
X21125Y1049253D01*
X21124Y1049258D01*
X21128Y1049260D01*
X21127Y1049261D01*
X21129Y1049262D01*
X21476Y1050391D01*
X21476Y1050392D01*
X21477Y1050393D01*
X21474Y1050397D01*
X21478Y1050400D01*
X21599Y1051575D01*
X21595Y1051582D01*
X21599Y1051586D01*
X21442Y1052926D01*
X21437Y1052932D01*
X21440Y1052937D01*
X20989Y1054208D01*
X20982Y1054213D01*
X20984Y1054218D01*
X20262Y1055357D01*
X20254Y1055360D01*
X20255Y1055366D01*
X19297Y1056316D01*
X19289Y1056317D01*
X19288Y1056323D01*
X18143Y1057036D01*
X18135Y1057035D01*
X18133Y1057041D01*
X16857Y1057481D01*
X16850Y1057479D01*
X16847Y1057483D01*
X15505Y1057629D01*
X15502Y1057627D01*
X15500Y1057629D01*
X9500Y1057629D01*
X9497Y1057627D01*
X9494Y1057629D01*
X8165Y1057474D01*
X8159Y1057468D01*
X8155Y1057471D01*
X6894Y1057024D01*
X6889Y1057017D01*
X6884Y1057019D01*
X5754Y1056302D01*
X5751Y1056295D01*
X5745Y1056296D01*
X4803Y1055346D01*
X4802Y1055337D01*
X4796Y1055337D01*
X4089Y1054201D01*
X4090Y1054193D01*
X4084Y1054191D01*
X3648Y1052926D01*
X3650Y1052918D01*
X3645Y1052916D01*
X3501Y1051585D01*
X3505Y1051579D01*
X3501Y1051575D01*
X3611Y1050409D01*
X3616Y1050404D01*
X3613Y1050400D01*
X3948Y1049277D01*
X3954Y1049273D01*
X3952Y1049269D01*
X4500Y1048233D01*
X4506Y1048230D01*
X4505Y1048225D01*
X5244Y1047317D01*
X5251Y1047315D01*
X5251Y1047310D01*
X6153Y1046563D01*
X6161Y1046563D01*
X6161Y1046558D01*
X7192Y1046001D01*
X7199Y1046002D01*
X7201Y1045997D01*
X8320Y1045653D01*
X8327Y1045655D01*
X8330Y1045651D01*
X9495Y1045531D01*
X9498Y1045533D01*
X9500Y1045531D01*
X15500Y1045531D01*
X15503Y1045533D01*
G37*
G36*
X735593Y456253D02*
X735593Y456253D01*
X735595Y456251D01*
X736771Y456362D01*
X736776Y456367D01*
X736780Y456364D01*
X737912Y456702D01*
X737916Y456708D01*
X737921Y456706D01*
X738965Y457258D01*
X738968Y457265D01*
X738973Y457263D01*
X739889Y458009D01*
X739890Y458016D01*
X739896Y458016D01*
X740649Y458926D01*
X740649Y458933D01*
X740654Y458934D01*
X741215Y459973D01*
X741214Y459978D01*
X741218Y459980D01*
X741217Y459981D01*
X741219Y459982D01*
X741566Y461111D01*
X741566Y461112D01*
X741567Y461113D01*
X741564Y461117D01*
X741568Y461120D01*
X741689Y462295D01*
X741685Y462302D01*
X741689Y462306D01*
X741532Y463646D01*
X741527Y463652D01*
X741530Y463657D01*
X741079Y464928D01*
X741072Y464933D01*
X741074Y464938D01*
X740352Y466077D01*
X740344Y466080D01*
X740345Y466086D01*
X739387Y467036D01*
X739379Y467037D01*
X739378Y467043D01*
X738233Y467756D01*
X738225Y467755D01*
X738223Y467761D01*
X736947Y468201D01*
X736940Y468199D01*
X736937Y468203D01*
X735595Y468349D01*
X735592Y468347D01*
X735590Y468349D01*
X729590Y468349D01*
X729587Y468347D01*
X729584Y468349D01*
X728255Y468194D01*
X728249Y468188D01*
X728245Y468191D01*
X726984Y467744D01*
X726979Y467737D01*
X726974Y467739D01*
X725844Y467022D01*
X725841Y467015D01*
X725835Y467016D01*
X724893Y466066D01*
X724892Y466057D01*
X724886Y466057D01*
X724179Y464921D01*
X724180Y464913D01*
X724174Y464911D01*
X723738Y463646D01*
X723740Y463638D01*
X723735Y463636D01*
X723591Y462305D01*
X723595Y462299D01*
X723591Y462295D01*
X723701Y461129D01*
X723706Y461124D01*
X723703Y461120D01*
X724038Y459997D01*
X724044Y459993D01*
X724042Y459989D01*
X724590Y458953D01*
X724596Y458950D01*
X724595Y458945D01*
X725334Y458037D01*
X725341Y458035D01*
X725341Y458030D01*
X726243Y457283D01*
X726251Y457283D01*
X726251Y457278D01*
X727282Y456721D01*
X727289Y456722D01*
X727291Y456717D01*
X728410Y456373D01*
X728417Y456375D01*
X728420Y456371D01*
X729585Y456251D01*
X729588Y456253D01*
X729590Y456251D01*
X735590Y456251D01*
X735593Y456253D01*
G37*
G36*
X735593Y1548413D02*
X735593Y1548413D01*
X735595Y1548411D01*
X736771Y1548522D01*
X736776Y1548527D01*
X736780Y1548524D01*
X737912Y1548862D01*
X737916Y1548868D01*
X737921Y1548866D01*
X738965Y1549418D01*
X738968Y1549425D01*
X738973Y1549423D01*
X739889Y1550169D01*
X739890Y1550176D01*
X739896Y1550176D01*
X740649Y1551086D01*
X740649Y1551093D01*
X740654Y1551094D01*
X741215Y1552133D01*
X741214Y1552138D01*
X741218Y1552140D01*
X741217Y1552141D01*
X741219Y1552142D01*
X741566Y1553271D01*
X741566Y1553272D01*
X741567Y1553273D01*
X741564Y1553277D01*
X741568Y1553280D01*
X741689Y1554455D01*
X741685Y1554462D01*
X741689Y1554466D01*
X741532Y1555806D01*
X741527Y1555812D01*
X741530Y1555817D01*
X741079Y1557088D01*
X741072Y1557093D01*
X741074Y1557098D01*
X740352Y1558237D01*
X740344Y1558240D01*
X740345Y1558246D01*
X739387Y1559196D01*
X739379Y1559197D01*
X739378Y1559203D01*
X738233Y1559916D01*
X738225Y1559915D01*
X738223Y1559921D01*
X736947Y1560361D01*
X736940Y1560359D01*
X736937Y1560363D01*
X735595Y1560509D01*
X735592Y1560507D01*
X735590Y1560509D01*
X729590Y1560509D01*
X729587Y1560507D01*
X729584Y1560509D01*
X728255Y1560354D01*
X728249Y1560348D01*
X728245Y1560351D01*
X726984Y1559904D01*
X726979Y1559897D01*
X726974Y1559899D01*
X725844Y1559182D01*
X725841Y1559175D01*
X725835Y1559176D01*
X724893Y1558226D01*
X724892Y1558217D01*
X724886Y1558217D01*
X724179Y1557081D01*
X724180Y1557073D01*
X724174Y1557071D01*
X723738Y1555806D01*
X723740Y1555798D01*
X723735Y1555796D01*
X723591Y1554465D01*
X723595Y1554459D01*
X723591Y1554455D01*
X723701Y1553289D01*
X723706Y1553284D01*
X723703Y1553280D01*
X724038Y1552157D01*
X724044Y1552153D01*
X724042Y1552149D01*
X724590Y1551113D01*
X724596Y1551110D01*
X724595Y1551105D01*
X725334Y1550197D01*
X725341Y1550195D01*
X725341Y1550190D01*
X726243Y1549443D01*
X726251Y1549443D01*
X726251Y1549438D01*
X727282Y1548881D01*
X727289Y1548882D01*
X727291Y1548877D01*
X728410Y1548533D01*
X728417Y1548535D01*
X728420Y1548531D01*
X729585Y1548411D01*
X729588Y1548413D01*
X729590Y1548411D01*
X735590Y1548411D01*
X735593Y1548413D01*
G37*
G36*
X1455683Y456253D02*
X1455683Y456253D01*
X1455685Y456251D01*
X1456861Y456362D01*
X1456866Y456367D01*
X1456870Y456364D01*
X1458002Y456702D01*
X1458006Y456708D01*
X1458011Y456706D01*
X1459055Y457258D01*
X1459058Y457265D01*
X1459063Y457263D01*
X1459979Y458009D01*
X1459980Y458016D01*
X1459986Y458016D01*
X1460739Y458926D01*
X1460739Y458933D01*
X1460744Y458934D01*
X1461305Y459973D01*
X1461304Y459978D01*
X1461308Y459980D01*
X1461307Y459981D01*
X1461309Y459982D01*
X1461656Y461111D01*
X1461656Y461112D01*
X1461657Y461113D01*
X1461654Y461117D01*
X1461658Y461120D01*
X1461779Y462295D01*
X1461775Y462302D01*
X1461779Y462306D01*
X1461622Y463646D01*
X1461617Y463652D01*
X1461620Y463657D01*
X1461169Y464928D01*
X1461162Y464933D01*
X1461164Y464938D01*
X1460442Y466077D01*
X1460434Y466080D01*
X1460435Y466086D01*
X1459477Y467036D01*
X1459469Y467037D01*
X1459468Y467043D01*
X1458323Y467756D01*
X1458315Y467755D01*
X1458313Y467761D01*
X1457037Y468201D01*
X1457030Y468199D01*
X1457027Y468203D01*
X1455685Y468349D01*
X1455682Y468347D01*
X1455680Y468349D01*
X1449680Y468349D01*
X1449677Y468347D01*
X1449674Y468349D01*
X1448345Y468194D01*
X1448339Y468188D01*
X1448335Y468191D01*
X1447074Y467744D01*
X1447069Y467737D01*
X1447064Y467739D01*
X1445934Y467022D01*
X1445931Y467015D01*
X1445925Y467016D01*
X1444983Y466066D01*
X1444982Y466057D01*
X1444976Y466057D01*
X1444269Y464921D01*
X1444270Y464913D01*
X1444264Y464911D01*
X1443828Y463646D01*
X1443830Y463638D01*
X1443825Y463636D01*
X1443681Y462305D01*
X1443685Y462299D01*
X1443681Y462295D01*
X1443791Y461129D01*
X1443796Y461124D01*
X1443793Y461120D01*
X1444128Y459997D01*
X1444134Y459993D01*
X1444132Y459989D01*
X1444680Y458953D01*
X1444686Y458950D01*
X1444685Y458945D01*
X1445424Y458037D01*
X1445431Y458035D01*
X1445431Y458030D01*
X1446333Y457283D01*
X1446341Y457283D01*
X1446341Y457278D01*
X1447372Y456721D01*
X1447379Y456722D01*
X1447381Y456717D01*
X1448500Y456373D01*
X1448507Y456375D01*
X1448510Y456371D01*
X1449675Y456251D01*
X1449678Y456253D01*
X1449680Y456251D01*
X1455680Y456251D01*
X1455683Y456253D01*
G37*
G36*
X1455683Y1548413D02*
X1455683Y1548413D01*
X1455685Y1548411D01*
X1456861Y1548522D01*
X1456866Y1548527D01*
X1456870Y1548524D01*
X1458002Y1548862D01*
X1458006Y1548868D01*
X1458011Y1548866D01*
X1459055Y1549418D01*
X1459058Y1549425D01*
X1459063Y1549423D01*
X1459979Y1550169D01*
X1459980Y1550176D01*
X1459986Y1550176D01*
X1460739Y1551086D01*
X1460739Y1551093D01*
X1460744Y1551094D01*
X1461305Y1552133D01*
X1461304Y1552138D01*
X1461308Y1552140D01*
X1461307Y1552141D01*
X1461309Y1552142D01*
X1461656Y1553271D01*
X1461656Y1553272D01*
X1461657Y1553273D01*
X1461654Y1553277D01*
X1461658Y1553280D01*
X1461779Y1554455D01*
X1461775Y1554462D01*
X1461779Y1554466D01*
X1461622Y1555806D01*
X1461617Y1555812D01*
X1461620Y1555817D01*
X1461169Y1557088D01*
X1461162Y1557093D01*
X1461164Y1557098D01*
X1460442Y1558237D01*
X1460434Y1558240D01*
X1460435Y1558246D01*
X1459477Y1559196D01*
X1459469Y1559197D01*
X1459468Y1559203D01*
X1458323Y1559916D01*
X1458315Y1559915D01*
X1458313Y1559921D01*
X1457037Y1560361D01*
X1457030Y1560359D01*
X1457027Y1560363D01*
X1455685Y1560509D01*
X1455682Y1560507D01*
X1455680Y1560509D01*
X1449680Y1560509D01*
X1449677Y1560507D01*
X1449674Y1560509D01*
X1448345Y1560354D01*
X1448339Y1560348D01*
X1448335Y1560351D01*
X1447074Y1559904D01*
X1447069Y1559897D01*
X1447064Y1559899D01*
X1445934Y1559182D01*
X1445931Y1559175D01*
X1445925Y1559176D01*
X1444983Y1558226D01*
X1444982Y1558217D01*
X1444976Y1558217D01*
X1444269Y1557081D01*
X1444270Y1557073D01*
X1444264Y1557071D01*
X1443828Y1555806D01*
X1443830Y1555798D01*
X1443825Y1555796D01*
X1443681Y1554465D01*
X1443685Y1554459D01*
X1443681Y1554455D01*
X1443791Y1553289D01*
X1443796Y1553284D01*
X1443793Y1553280D01*
X1444128Y1552157D01*
X1444134Y1552153D01*
X1444132Y1552149D01*
X1444680Y1551113D01*
X1444686Y1551110D01*
X1444685Y1551105D01*
X1445424Y1550197D01*
X1445431Y1550195D01*
X1445431Y1550190D01*
X1446333Y1549443D01*
X1446341Y1549443D01*
X1446341Y1549438D01*
X1447372Y1548881D01*
X1447379Y1548882D01*
X1447381Y1548877D01*
X1448500Y1548533D01*
X1448507Y1548535D01*
X1448510Y1548531D01*
X1449675Y1548411D01*
X1449678Y1548413D01*
X1449680Y1548411D01*
X1455680Y1548411D01*
X1455683Y1548413D01*
G37*
G36*
X15503Y369853D02*
X15503Y369853D01*
X15505Y369851D01*
X16681Y369962D01*
X16686Y369967D01*
X16690Y369964D01*
X17822Y370302D01*
X17826Y370308D01*
X17831Y370306D01*
X18875Y370858D01*
X18878Y370865D01*
X18883Y370863D01*
X19799Y371609D01*
X19800Y371616D01*
X19806Y371616D01*
X20559Y372526D01*
X20559Y372533D01*
X20564Y372534D01*
X21125Y373573D01*
X21124Y373578D01*
X21128Y373580D01*
X21127Y373581D01*
X21129Y373582D01*
X21476Y374711D01*
X21476Y374712D01*
X21477Y374713D01*
X21474Y374717D01*
X21478Y374720D01*
X21599Y375895D01*
X21595Y375902D01*
X21599Y375906D01*
X21442Y377246D01*
X21437Y377252D01*
X21440Y377257D01*
X20989Y378528D01*
X20982Y378533D01*
X20984Y378538D01*
X20262Y379677D01*
X20254Y379680D01*
X20255Y379686D01*
X19297Y380636D01*
X19289Y380637D01*
X19288Y380643D01*
X18143Y381356D01*
X18135Y381355D01*
X18133Y381361D01*
X16857Y381801D01*
X16850Y381799D01*
X16847Y381803D01*
X15505Y381949D01*
X15502Y381947D01*
X15500Y381949D01*
X9500Y381949D01*
X9497Y381947D01*
X9494Y381949D01*
X8165Y381794D01*
X8159Y381788D01*
X8155Y381791D01*
X6894Y381344D01*
X6889Y381337D01*
X6884Y381339D01*
X5754Y380622D01*
X5751Y380615D01*
X5745Y380616D01*
X4803Y379666D01*
X4802Y379657D01*
X4796Y379657D01*
X4089Y378521D01*
X4090Y378513D01*
X4084Y378511D01*
X3648Y377246D01*
X3650Y377238D01*
X3645Y377236D01*
X3501Y375905D01*
X3505Y375899D01*
X3501Y375895D01*
X3611Y374729D01*
X3616Y374724D01*
X3613Y374720D01*
X3948Y373597D01*
X3954Y373593D01*
X3952Y373589D01*
X4500Y372553D01*
X4506Y372550D01*
X4505Y372545D01*
X5244Y371637D01*
X5251Y371635D01*
X5251Y371630D01*
X6153Y370883D01*
X6161Y370883D01*
X6161Y370878D01*
X7192Y370321D01*
X7199Y370322D01*
X7201Y370317D01*
X8320Y369973D01*
X8327Y369975D01*
X8330Y369971D01*
X9495Y369851D01*
X9498Y369853D01*
X9500Y369851D01*
X15500Y369851D01*
X15503Y369853D01*
G37*
D10*
X355600Y211700D03*
X355600Y194700D03*
D11*
X287900Y414020D03*
X270900Y414020D03*
X575700Y363220D03*
X592700Y363220D03*
X287900Y298450D03*
X270900Y298450D03*
D10*
X355600Y265600D03*
X355600Y248600D03*
D12*
X217200Y160020D03*
X189200Y160020D03*
D11*
X93100Y287020D03*
X110100Y287020D03*
D13*
X215900Y107820D03*
X215900Y59820D03*
D10*
X38100Y301870D03*
X38100Y284870D03*
D14*
X53500Y304140D03*
X53500Y285140D03*
X74500Y294640D03*
D11*
X270900Y318770D03*
X287900Y318770D03*
X26280Y321310D03*
X9280Y321310D03*
D15*
X106400Y218593D03*
X106400Y241300D03*
X106400Y264185D03*
D16*
X46990Y241300D03*
D11*
X141850Y198120D03*
X124850Y198120D03*
X124850Y223520D03*
X141850Y223520D03*
X93100Y302260D03*
X110100Y302260D03*
D12*
X120680Y330200D03*
X92680Y330200D03*
D17*
X340360Y516900D03*
X289560Y516900D03*
X238760Y516900D03*
X365760Y549900D03*
X314960Y549900D03*
X264160Y549900D03*
X213360Y549900D03*
X187960Y549900D03*
X213360Y516900D03*
X238760Y549900D03*
X264160Y516900D03*
X289560Y549900D03*
X314960Y516900D03*
X340360Y549900D03*
X365760Y516900D03*
X187960Y516900D03*
X391160Y549900D03*
X416560Y549900D03*
X391160Y516900D03*
X416560Y516900D03*
X304800Y67300D03*
X355600Y67300D03*
X406400Y67300D03*
X279400Y34300D03*
X330200Y34300D03*
X381000Y34300D03*
X431800Y34300D03*
X457200Y34300D03*
X431800Y67300D03*
X406400Y34300D03*
X381000Y67300D03*
X355600Y34300D03*
X330200Y67300D03*
X304800Y34300D03*
X279400Y67300D03*
X457200Y67300D03*
D18*
X488025Y236920D02*
X502575Y236920D01*
X502575Y248920D02*
X488025Y248920D01*
X488025Y260920D02*
X502575Y260920D01*
D19*
X673100Y304800D03*
X622300Y304800D03*
X622300Y279400D03*
X673100Y279400D03*
X673100Y330200D03*
X622300Y330200D03*
D12*
X189200Y248920D03*
X217200Y248920D03*
D20*
X569200Y382270D03*
X599200Y382270D03*
X264400Y433070D03*
X294400Y433070D03*
D21*
X160020Y87720D03*
X160020Y130720D03*
D17*
X482600Y549900D03*
X533400Y549900D03*
X584200Y549900D03*
X457200Y516900D03*
X508000Y516900D03*
X558800Y516900D03*
X609600Y516900D03*
X635000Y516900D03*
X609600Y549900D03*
X584200Y516900D03*
X558800Y549900D03*
X533400Y516900D03*
X508000Y549900D03*
X482600Y516900D03*
X457200Y549900D03*
X635000Y549900D03*
X609600Y34300D03*
X558800Y34300D03*
X508000Y34300D03*
X635000Y67300D03*
X584200Y67300D03*
X533400Y67300D03*
X508000Y67300D03*
X533400Y34300D03*
X558800Y67300D03*
X584200Y34300D03*
X609600Y67300D03*
X635000Y34300D03*
D22*
X27320Y159760D02*
X13320Y159760D01*
X13320Y177760D01*
X27320Y177760D01*
X27320Y159760D01*
X27320Y165460D02*
X13320Y165460D01*
X13320Y171160D02*
X27320Y171160D01*
X27320Y176860D02*
X13320Y176860D01*
X13320Y45760D02*
X27320Y45760D01*
X13320Y45760D02*
X13320Y63760D01*
X27320Y63760D01*
X27320Y45760D01*
X27320Y51460D02*
X13320Y51460D01*
X13320Y57160D02*
X27320Y57160D01*
X27320Y62860D02*
X13320Y62860D01*
X74320Y159760D02*
X88320Y159760D01*
X74320Y159760D02*
X74320Y177760D01*
X88320Y177760D01*
X88320Y159760D01*
X88320Y165460D02*
X74320Y165460D01*
X74320Y171160D02*
X88320Y171160D01*
X88320Y176860D02*
X74320Y176860D01*
X74320Y45760D02*
X88320Y45760D01*
X74320Y45760D02*
X74320Y63760D01*
X88320Y63760D01*
X88320Y45760D01*
X88320Y51460D02*
X74320Y51460D01*
X74320Y57160D02*
X88320Y57160D01*
X88320Y62860D02*
X74320Y62860D01*
D23*
X603610Y184000D03*
X603610Y197000D03*
X585110Y190500D03*
D11*
X602860Y215900D03*
X585860Y215900D03*
X602860Y165100D03*
X585860Y165100D03*
D24*
X462026Y200600D03*
X462026Y208600D03*
X462026Y216600D03*
X462026Y224600D03*
X462026Y232600D03*
X462026Y240600D03*
X462026Y248600D03*
X462026Y256600D03*
D25*
X447100Y271526D03*
X439100Y271526D03*
X431100Y271526D03*
X423100Y271526D03*
X415100Y271526D03*
X407100Y271526D03*
X399100Y271526D03*
X391100Y271526D03*
D24*
X376174Y256600D03*
X376174Y248600D03*
X376174Y240600D03*
X376174Y232600D03*
X376174Y224600D03*
X376174Y216600D03*
X376174Y208600D03*
X376174Y200600D03*
D25*
X391100Y185674D03*
X399100Y185674D03*
X407100Y185674D03*
X415100Y185674D03*
X423100Y185674D03*
X431100Y185674D03*
X439100Y185674D03*
X447100Y185674D03*
D26*
X190199Y212700D03*
X190199Y203200D03*
X190199Y193700D03*
X216201Y193700D03*
X216201Y212700D03*
D11*
X211700Y228600D03*
X194700Y228600D03*
X118500Y355600D03*
X135500Y355600D03*
D20*
X294400Y355600D03*
X264400Y355600D03*
D11*
X287900Y336550D03*
X270900Y336550D03*
X131200Y482600D03*
X148200Y482600D03*
X287900Y374650D03*
X270900Y374650D03*
D20*
X294400Y393700D03*
X264400Y393700D03*
D27*
X671750Y162500D03*
X671750Y218500D03*
D28*
X635000Y175500D03*
X635000Y185500D03*
X635000Y195500D03*
X635000Y205500D03*
D23*
X549550Y197000D03*
X549550Y184000D03*
X568050Y190500D03*
D11*
X550300Y215900D03*
X567300Y215900D03*
X550300Y165100D03*
X567300Y165100D03*
D29*
X63500Y411600D03*
X63500Y416600D03*
D30*
X63500Y386850D03*
D31*
X63500Y394600D03*
D29*
X63500Y401600D03*
X63500Y406600D03*
X63500Y426600D03*
X63500Y421600D03*
D30*
X63500Y451350D03*
D31*
X63500Y443600D03*
D29*
X63500Y436600D03*
X63500Y431600D03*
D32*
X99000Y463550D03*
X99000Y450850D03*
X99000Y438150D03*
X99000Y425450D03*
X99000Y412750D03*
X99000Y400050D03*
X99000Y387350D03*
X99000Y374650D03*
X155000Y374650D03*
X155000Y387350D03*
X155000Y400050D03*
X155000Y412750D03*
X155000Y425450D03*
X155000Y438150D03*
X155000Y450850D03*
X155000Y463550D03*
D11*
X9280Y339090D03*
X26280Y339090D03*
X110100Y482600D03*
X93100Y482600D03*
D33*
X78740Y501650D03*
X22860Y501650D03*
X78740Y539750D03*
X22860Y539750D03*
D34*
X42150Y330200D03*
X72150Y330200D03*
D35*
X304400Y206050D03*
X279400Y206050D03*
X254400Y206050D03*
X304400Y149550D03*
X279400Y149550D03*
X254400Y149550D03*
D10*
X1075690Y211700D03*
X1075690Y194700D03*
D11*
X1007990Y414020D03*
X990990Y414020D03*
X1295790Y363220D03*
X1312790Y363220D03*
X1007990Y298450D03*
X990990Y298450D03*
D10*
X1075690Y265600D03*
X1075690Y248600D03*
D12*
X937290Y160020D03*
X909290Y160020D03*
D11*
X813190Y287020D03*
X830190Y287020D03*
D13*
X935990Y107820D03*
X935990Y59820D03*
D10*
X758190Y301870D03*
X758190Y284870D03*
D14*
X773590Y304140D03*
X773590Y285140D03*
X794590Y294640D03*
D11*
X990990Y318770D03*
X1007990Y318770D03*
X746370Y321310D03*
X729370Y321310D03*
D15*
X826490Y218593D03*
X826490Y241300D03*
X826490Y264185D03*
D16*
X767080Y241300D03*
D11*
X861940Y198120D03*
X844940Y198120D03*
X844940Y223520D03*
X861940Y223520D03*
X813190Y302260D03*
X830190Y302260D03*
D12*
X840770Y330200D03*
X812770Y330200D03*
D17*
X1060450Y516900D03*
X1009650Y516900D03*
X958850Y516900D03*
X1085850Y549900D03*
X1035050Y549900D03*
X984250Y549900D03*
X933450Y549900D03*
X908050Y549900D03*
X933450Y516900D03*
X958850Y549900D03*
X984250Y516900D03*
X1009650Y549900D03*
X1035050Y516900D03*
X1060450Y549900D03*
X1085850Y516900D03*
X908050Y516900D03*
X1111250Y549900D03*
X1136650Y549900D03*
X1111250Y516900D03*
X1136650Y516900D03*
X1024890Y67300D03*
X1075690Y67300D03*
X1126490Y67300D03*
X999490Y34300D03*
X1050290Y34300D03*
X1101090Y34300D03*
X1151890Y34300D03*
X1177290Y34300D03*
X1151890Y67300D03*
X1126490Y34300D03*
X1101090Y67300D03*
X1075690Y34300D03*
X1050290Y67300D03*
X1024890Y34300D03*
X999490Y67300D03*
X1177290Y67300D03*
D18*
X1208115Y236920D02*
X1222665Y236920D01*
X1222665Y248920D02*
X1208115Y248920D01*
X1208115Y260920D02*
X1222665Y260920D01*
D19*
X1393190Y304800D03*
X1342390Y304800D03*
X1342390Y279400D03*
X1393190Y279400D03*
X1393190Y330200D03*
X1342390Y330200D03*
D12*
X909290Y248920D03*
X937290Y248920D03*
D20*
X1289290Y382270D03*
X1319290Y382270D03*
X984490Y433070D03*
X1014490Y433070D03*
D21*
X880110Y87720D03*
X880110Y130720D03*
D17*
X1202690Y549900D03*
X1253490Y549900D03*
X1304290Y549900D03*
X1177290Y516900D03*
X1228090Y516900D03*
X1278890Y516900D03*
X1329690Y516900D03*
X1355090Y516900D03*
X1329690Y549900D03*
X1304290Y516900D03*
X1278890Y549900D03*
X1253490Y516900D03*
X1228090Y549900D03*
X1202690Y516900D03*
X1177290Y549900D03*
X1355090Y549900D03*
X1329690Y34300D03*
X1278890Y34300D03*
X1228090Y34300D03*
X1355090Y67300D03*
X1304290Y67300D03*
X1253490Y67300D03*
X1228090Y67300D03*
X1253490Y34300D03*
X1278890Y67300D03*
X1304290Y34300D03*
X1329690Y67300D03*
X1355090Y34300D03*
D22*
X747410Y159760D02*
X733410Y159760D01*
X733410Y177760D01*
X747410Y177760D01*
X747410Y159760D01*
X747410Y165460D02*
X733410Y165460D01*
X733410Y171160D02*
X747410Y171160D01*
X747410Y176860D02*
X733410Y176860D01*
X733410Y45760D02*
X747410Y45760D01*
X733410Y45760D02*
X733410Y63760D01*
X747410Y63760D01*
X747410Y45760D01*
X747410Y51460D02*
X733410Y51460D01*
X733410Y57160D02*
X747410Y57160D01*
X747410Y62860D02*
X733410Y62860D01*
X794410Y159760D02*
X808410Y159760D01*
X794410Y159760D02*
X794410Y177760D01*
X808410Y177760D01*
X808410Y159760D01*
X808410Y165460D02*
X794410Y165460D01*
X794410Y171160D02*
X808410Y171160D01*
X808410Y176860D02*
X794410Y176860D01*
X794410Y45760D02*
X808410Y45760D01*
X794410Y45760D02*
X794410Y63760D01*
X808410Y63760D01*
X808410Y45760D01*
X808410Y51460D02*
X794410Y51460D01*
X794410Y57160D02*
X808410Y57160D01*
X808410Y62860D02*
X794410Y62860D01*
D23*
X1323700Y184000D03*
X1323700Y197000D03*
X1305200Y190500D03*
D11*
X1322950Y215900D03*
X1305950Y215900D03*
X1322950Y165100D03*
X1305950Y165100D03*
D24*
X1182116Y200600D03*
X1182116Y208600D03*
X1182116Y216600D03*
X1182116Y224600D03*
X1182116Y232600D03*
X1182116Y240600D03*
X1182116Y248600D03*
X1182116Y256600D03*
D25*
X1167190Y271526D03*
X1159190Y271526D03*
X1151190Y271526D03*
X1143190Y271526D03*
X1135190Y271526D03*
X1127190Y271526D03*
X1119190Y271526D03*
X1111190Y271526D03*
D24*
X1096264Y256600D03*
X1096264Y248600D03*
X1096264Y240600D03*
X1096264Y232600D03*
X1096264Y224600D03*
X1096264Y216600D03*
X1096264Y208600D03*
X1096264Y200600D03*
D25*
X1111190Y185674D03*
X1119190Y185674D03*
X1127190Y185674D03*
X1135190Y185674D03*
X1143190Y185674D03*
X1151190Y185674D03*
X1159190Y185674D03*
X1167190Y185674D03*
D26*
X910289Y212700D03*
X910289Y203200D03*
X910289Y193700D03*
X936291Y193700D03*
X936291Y212700D03*
D11*
X931790Y228600D03*
X914790Y228600D03*
X838590Y355600D03*
X855590Y355600D03*
D20*
X1014490Y355600D03*
X984490Y355600D03*
D11*
X1007990Y336550D03*
X990990Y336550D03*
X851290Y482600D03*
X868290Y482600D03*
X1007990Y374650D03*
X990990Y374650D03*
D20*
X1014490Y393700D03*
X984490Y393700D03*
D27*
X1391840Y162500D03*
X1391840Y218500D03*
D28*
X1355090Y175500D03*
X1355090Y185500D03*
X1355090Y195500D03*
X1355090Y205500D03*
D23*
X1269640Y197000D03*
X1269640Y184000D03*
X1288140Y190500D03*
D11*
X1270390Y215900D03*
X1287390Y215900D03*
X1270390Y165100D03*
X1287390Y165100D03*
D29*
X783590Y411600D03*
X783590Y416600D03*
D30*
X783590Y386850D03*
D31*
X783590Y394600D03*
D29*
X783590Y401600D03*
X783590Y406600D03*
X783590Y426600D03*
X783590Y421600D03*
D30*
X783590Y451350D03*
D31*
X783590Y443600D03*
D29*
X783590Y436600D03*
X783590Y431600D03*
D32*
X819090Y463550D03*
X819090Y450850D03*
X819090Y438150D03*
X819090Y425450D03*
X819090Y412750D03*
X819090Y400050D03*
X819090Y387350D03*
X819090Y374650D03*
X875090Y374650D03*
X875090Y387350D03*
X875090Y400050D03*
X875090Y412750D03*
X875090Y425450D03*
X875090Y438150D03*
X875090Y450850D03*
X875090Y463550D03*
D11*
X729370Y339090D03*
X746370Y339090D03*
X830190Y482600D03*
X813190Y482600D03*
D33*
X798830Y501650D03*
X742950Y501650D03*
X798830Y539750D03*
X742950Y539750D03*
D34*
X762240Y330200D03*
X792240Y330200D03*
D35*
X1024490Y206050D03*
X999490Y206050D03*
X974490Y206050D03*
X1024490Y149550D03*
X999490Y149550D03*
X974490Y149550D03*
D10*
X1795780Y211700D03*
X1795780Y194700D03*
D11*
X1728080Y414020D03*
X1711080Y414020D03*
X2015880Y363220D03*
X2032880Y363220D03*
X1728080Y298450D03*
X1711080Y298450D03*
D10*
X1795780Y265600D03*
X1795780Y248600D03*
D12*
X1657380Y160020D03*
X1629380Y160020D03*
D11*
X1533280Y287020D03*
X1550280Y287020D03*
D13*
X1656080Y107820D03*
X1656080Y59820D03*
D10*
X1478280Y301870D03*
X1478280Y284870D03*
D14*
X1493680Y304140D03*
X1493680Y285140D03*
X1514680Y294640D03*
D11*
X1711080Y318770D03*
X1728080Y318770D03*
X1466460Y321310D03*
X1449460Y321310D03*
D15*
X1546580Y218593D03*
X1546580Y241300D03*
X1546580Y264185D03*
D16*
X1487170Y241300D03*
D11*
X1582030Y198120D03*
X1565030Y198120D03*
X1565030Y223520D03*
X1582030Y223520D03*
X1533280Y302260D03*
X1550280Y302260D03*
D12*
X1560860Y330200D03*
X1532860Y330200D03*
D17*
X1780540Y516900D03*
X1729740Y516900D03*
X1678940Y516900D03*
X1805940Y549900D03*
X1755140Y549900D03*
X1704340Y549900D03*
X1653540Y549900D03*
X1628140Y549900D03*
X1653540Y516900D03*
X1678940Y549900D03*
X1704340Y516900D03*
X1729740Y549900D03*
X1755140Y516900D03*
X1780540Y549900D03*
X1805940Y516900D03*
X1628140Y516900D03*
X1831340Y549900D03*
X1856740Y549900D03*
X1831340Y516900D03*
X1856740Y516900D03*
X1744980Y67300D03*
X1795780Y67300D03*
X1846580Y67300D03*
X1719580Y34300D03*
X1770380Y34300D03*
X1821180Y34300D03*
X1871980Y34300D03*
X1897380Y34300D03*
X1871980Y67300D03*
X1846580Y34300D03*
X1821180Y67300D03*
X1795780Y34300D03*
X1770380Y67300D03*
X1744980Y34300D03*
X1719580Y67300D03*
X1897380Y67300D03*
D18*
X1928205Y236920D02*
X1942755Y236920D01*
X1942755Y248920D02*
X1928205Y248920D01*
X1928205Y260920D02*
X1942755Y260920D01*
D19*
X2113280Y304800D03*
X2062480Y304800D03*
X2062480Y279400D03*
X2113280Y279400D03*
X2113280Y330200D03*
X2062480Y330200D03*
D12*
X1629380Y248920D03*
X1657380Y248920D03*
D20*
X2009380Y382270D03*
X2039380Y382270D03*
X1704580Y433070D03*
X1734580Y433070D03*
D21*
X1600200Y87720D03*
X1600200Y130720D03*
D17*
X1922780Y549900D03*
X1973580Y549900D03*
X2024380Y549900D03*
X1897380Y516900D03*
X1948180Y516900D03*
X1998980Y516900D03*
X2049780Y516900D03*
X2075180Y516900D03*
X2049780Y549900D03*
X2024380Y516900D03*
X1998980Y549900D03*
X1973580Y516900D03*
X1948180Y549900D03*
X1922780Y516900D03*
X1897380Y549900D03*
X2075180Y549900D03*
X2049780Y34300D03*
X1998980Y34300D03*
X1948180Y34300D03*
X2075180Y67300D03*
X2024380Y67300D03*
X1973580Y67300D03*
X1948180Y67300D03*
X1973580Y34300D03*
X1998980Y67300D03*
X2024380Y34300D03*
X2049780Y67300D03*
X2075180Y34300D03*
D22*
X1467500Y159760D02*
X1453500Y159760D01*
X1453500Y177760D01*
X1467500Y177760D01*
X1467500Y159760D01*
X1467500Y165460D02*
X1453500Y165460D01*
X1453500Y171160D02*
X1467500Y171160D01*
X1467500Y176860D02*
X1453500Y176860D01*
X1453500Y45760D02*
X1467500Y45760D01*
X1453500Y45760D02*
X1453500Y63760D01*
X1467500Y63760D01*
X1467500Y45760D01*
X1467500Y51460D02*
X1453500Y51460D01*
X1453500Y57160D02*
X1467500Y57160D01*
X1467500Y62860D02*
X1453500Y62860D01*
X1514500Y159760D02*
X1528500Y159760D01*
X1514500Y159760D02*
X1514500Y177760D01*
X1528500Y177760D01*
X1528500Y159760D01*
X1528500Y165460D02*
X1514500Y165460D01*
X1514500Y171160D02*
X1528500Y171160D01*
X1528500Y176860D02*
X1514500Y176860D01*
X1514500Y45760D02*
X1528500Y45760D01*
X1514500Y45760D02*
X1514500Y63760D01*
X1528500Y63760D01*
X1528500Y45760D01*
X1528500Y51460D02*
X1514500Y51460D01*
X1514500Y57160D02*
X1528500Y57160D01*
X1528500Y62860D02*
X1514500Y62860D01*
D23*
X2043790Y184000D03*
X2043790Y197000D03*
X2025290Y190500D03*
D11*
X2043040Y215900D03*
X2026040Y215900D03*
X2043040Y165100D03*
X2026040Y165100D03*
D24*
X1902206Y200600D03*
X1902206Y208600D03*
X1902206Y216600D03*
X1902206Y224600D03*
X1902206Y232600D03*
X1902206Y240600D03*
X1902206Y248600D03*
X1902206Y256600D03*
D25*
X1887280Y271526D03*
X1879280Y271526D03*
X1871280Y271526D03*
X1863280Y271526D03*
X1855280Y271526D03*
X1847280Y271526D03*
X1839280Y271526D03*
X1831280Y271526D03*
D24*
X1816354Y256600D03*
X1816354Y248600D03*
X1816354Y240600D03*
X1816354Y232600D03*
X1816354Y224600D03*
X1816354Y216600D03*
X1816354Y208600D03*
X1816354Y200600D03*
D25*
X1831280Y185674D03*
X1839280Y185674D03*
X1847280Y185674D03*
X1855280Y185674D03*
X1863280Y185674D03*
X1871280Y185674D03*
X1879280Y185674D03*
X1887280Y185674D03*
D26*
X1630379Y212700D03*
X1630379Y203200D03*
X1630379Y193700D03*
X1656381Y193700D03*
X1656381Y212700D03*
D11*
X1651880Y228600D03*
X1634880Y228600D03*
X1558680Y355600D03*
X1575680Y355600D03*
D20*
X1734580Y355600D03*
X1704580Y355600D03*
D11*
X1728080Y336550D03*
X1711080Y336550D03*
X1571380Y482600D03*
X1588380Y482600D03*
X1728080Y374650D03*
X1711080Y374650D03*
D20*
X1734580Y393700D03*
X1704580Y393700D03*
D27*
X2111930Y162500D03*
X2111930Y218500D03*
D28*
X2075180Y175500D03*
X2075180Y185500D03*
X2075180Y195500D03*
X2075180Y205500D03*
D23*
X1989730Y197000D03*
X1989730Y184000D03*
X2008230Y190500D03*
D11*
X1990480Y215900D03*
X2007480Y215900D03*
X1990480Y165100D03*
X2007480Y165100D03*
D29*
X1503680Y411600D03*
X1503680Y416600D03*
D30*
X1503680Y386850D03*
D31*
X1503680Y394600D03*
D29*
X1503680Y401600D03*
X1503680Y406600D03*
X1503680Y426600D03*
X1503680Y421600D03*
D30*
X1503680Y451350D03*
D31*
X1503680Y443600D03*
D29*
X1503680Y436600D03*
X1503680Y431600D03*
D32*
X1539180Y463550D03*
X1539180Y450850D03*
X1539180Y438150D03*
X1539180Y425450D03*
X1539180Y412750D03*
X1539180Y400050D03*
X1539180Y387350D03*
X1539180Y374650D03*
X1595180Y374650D03*
X1595180Y387350D03*
X1595180Y400050D03*
X1595180Y412750D03*
X1595180Y425450D03*
X1595180Y438150D03*
X1595180Y450850D03*
X1595180Y463550D03*
D11*
X1449460Y339090D03*
X1466460Y339090D03*
X1550280Y482600D03*
X1533280Y482600D03*
D33*
X1518920Y501650D03*
X1463040Y501650D03*
X1518920Y539750D03*
X1463040Y539750D03*
D34*
X1482330Y330200D03*
X1512330Y330200D03*
D35*
X1744580Y206050D03*
X1719580Y206050D03*
X1694580Y206050D03*
X1744580Y149550D03*
X1719580Y149550D03*
X1694580Y149550D03*
D10*
X355600Y800980D03*
X355600Y783980D03*
D11*
X287900Y1003300D03*
X270900Y1003300D03*
X575700Y952500D03*
X592700Y952500D03*
X287900Y887730D03*
X270900Y887730D03*
D10*
X355600Y854880D03*
X355600Y837880D03*
D12*
X217200Y749300D03*
X189200Y749300D03*
D11*
X93100Y876300D03*
X110100Y876300D03*
D13*
X215900Y697100D03*
X215900Y649100D03*
D10*
X38100Y891150D03*
X38100Y874150D03*
D14*
X53500Y893420D03*
X53500Y874420D03*
X74500Y883920D03*
D11*
X270900Y908050D03*
X287900Y908050D03*
X26280Y910590D03*
X9280Y910590D03*
D15*
X106400Y807873D03*
X106400Y830580D03*
X106400Y853465D03*
D16*
X46990Y830580D03*
D11*
X141850Y787400D03*
X124850Y787400D03*
X124850Y812800D03*
X141850Y812800D03*
X93100Y891540D03*
X110100Y891540D03*
D12*
X120680Y919480D03*
X92680Y919480D03*
D17*
X340360Y1106180D03*
X289560Y1106180D03*
X238760Y1106180D03*
X365760Y1139180D03*
X314960Y1139180D03*
X264160Y1139180D03*
X213360Y1139180D03*
X187960Y1139180D03*
X213360Y1106180D03*
X238760Y1139180D03*
X264160Y1106180D03*
X289560Y1139180D03*
X314960Y1106180D03*
X340360Y1139180D03*
X365760Y1106180D03*
X187960Y1106180D03*
X391160Y1139180D03*
X416560Y1139180D03*
X391160Y1106180D03*
X416560Y1106180D03*
X304800Y656580D03*
X355600Y656580D03*
X406400Y656580D03*
X279400Y623580D03*
X330200Y623580D03*
X381000Y623580D03*
X431800Y623580D03*
X457200Y623580D03*
X431800Y656580D03*
X406400Y623580D03*
X381000Y656580D03*
X355600Y623580D03*
X330200Y656580D03*
X304800Y623580D03*
X279400Y656580D03*
X457200Y656580D03*
D18*
X488025Y826200D02*
X502575Y826200D01*
X502575Y838200D02*
X488025Y838200D01*
X488025Y850200D02*
X502575Y850200D01*
D19*
X673100Y894080D03*
X622300Y894080D03*
X622300Y868680D03*
X673100Y868680D03*
X673100Y919480D03*
X622300Y919480D03*
D12*
X189200Y838200D03*
X217200Y838200D03*
D20*
X569200Y971550D03*
X599200Y971550D03*
X264400Y1022350D03*
X294400Y1022350D03*
D21*
X160020Y677000D03*
X160020Y720000D03*
D17*
X482600Y1139180D03*
X533400Y1139180D03*
X584200Y1139180D03*
X457200Y1106180D03*
X508000Y1106180D03*
X558800Y1106180D03*
X609600Y1106180D03*
X635000Y1106180D03*
X609600Y1139180D03*
X584200Y1106180D03*
X558800Y1139180D03*
X533400Y1106180D03*
X508000Y1139180D03*
X482600Y1106180D03*
X457200Y1139180D03*
X635000Y1139180D03*
X609600Y623580D03*
X558800Y623580D03*
X508000Y623580D03*
X635000Y656580D03*
X584200Y656580D03*
X533400Y656580D03*
X508000Y656580D03*
X533400Y623580D03*
X558800Y656580D03*
X584200Y623580D03*
X609600Y656580D03*
X635000Y623580D03*
D22*
X27320Y749040D02*
X13320Y749040D01*
X13320Y767040D01*
X27320Y767040D01*
X27320Y749040D01*
X27320Y754740D02*
X13320Y754740D01*
X13320Y760440D02*
X27320Y760440D01*
X27320Y766140D02*
X13320Y766140D01*
X13320Y635040D02*
X27320Y635040D01*
X13320Y635040D02*
X13320Y653040D01*
X27320Y653040D01*
X27320Y635040D01*
X27320Y640740D02*
X13320Y640740D01*
X13320Y646440D02*
X27320Y646440D01*
X27320Y652140D02*
X13320Y652140D01*
X74320Y749040D02*
X88320Y749040D01*
X74320Y749040D02*
X74320Y767040D01*
X88320Y767040D01*
X88320Y749040D01*
X88320Y754740D02*
X74320Y754740D01*
X74320Y760440D02*
X88320Y760440D01*
X88320Y766140D02*
X74320Y766140D01*
X74320Y635040D02*
X88320Y635040D01*
X74320Y635040D02*
X74320Y653040D01*
X88320Y653040D01*
X88320Y635040D01*
X88320Y640740D02*
X74320Y640740D01*
X74320Y646440D02*
X88320Y646440D01*
X88320Y652140D02*
X74320Y652140D01*
D23*
X603610Y773280D03*
X603610Y786280D03*
X585110Y779780D03*
D11*
X602860Y805180D03*
X585860Y805180D03*
X602860Y754380D03*
X585860Y754380D03*
D24*
X462026Y789880D03*
X462026Y797880D03*
X462026Y805880D03*
X462026Y813880D03*
X462026Y821880D03*
X462026Y829880D03*
X462026Y837880D03*
X462026Y845880D03*
D25*
X447100Y860806D03*
X439100Y860806D03*
X431100Y860806D03*
X423100Y860806D03*
X415100Y860806D03*
X407100Y860806D03*
X399100Y860806D03*
X391100Y860806D03*
D24*
X376174Y845880D03*
X376174Y837880D03*
X376174Y829880D03*
X376174Y821880D03*
X376174Y813880D03*
X376174Y805880D03*
X376174Y797880D03*
X376174Y789880D03*
D25*
X391100Y774954D03*
X399100Y774954D03*
X407100Y774954D03*
X415100Y774954D03*
X423100Y774954D03*
X431100Y774954D03*
X439100Y774954D03*
X447100Y774954D03*
D26*
X190199Y801980D03*
X190199Y792480D03*
X190199Y782980D03*
X216201Y782980D03*
X216201Y801980D03*
D11*
X211700Y817880D03*
X194700Y817880D03*
X118500Y944880D03*
X135500Y944880D03*
D20*
X294400Y944880D03*
X264400Y944880D03*
D11*
X287900Y925830D03*
X270900Y925830D03*
X131200Y1071880D03*
X148200Y1071880D03*
X287900Y963930D03*
X270900Y963930D03*
D20*
X294400Y982980D03*
X264400Y982980D03*
D27*
X671750Y751780D03*
X671750Y807780D03*
D28*
X635000Y764780D03*
X635000Y774780D03*
X635000Y784780D03*
X635000Y794780D03*
D23*
X549550Y786280D03*
X549550Y773280D03*
X568050Y779780D03*
D11*
X550300Y805180D03*
X567300Y805180D03*
X550300Y754380D03*
X567300Y754380D03*
D29*
X63500Y1000880D03*
X63500Y1005880D03*
D30*
X63500Y976130D03*
D31*
X63500Y983880D03*
D29*
X63500Y990880D03*
X63500Y995880D03*
X63500Y1015880D03*
X63500Y1010880D03*
D30*
X63500Y1040630D03*
D31*
X63500Y1032880D03*
D29*
X63500Y1025880D03*
X63500Y1020880D03*
D32*
X99000Y1052830D03*
X99000Y1040130D03*
X99000Y1027430D03*
X99000Y1014730D03*
X99000Y1002030D03*
X99000Y989330D03*
X99000Y976630D03*
X99000Y963930D03*
X155000Y963930D03*
X155000Y976630D03*
X155000Y989330D03*
X155000Y1002030D03*
X155000Y1014730D03*
X155000Y1027430D03*
X155000Y1040130D03*
X155000Y1052830D03*
D11*
X9280Y928370D03*
X26280Y928370D03*
X110100Y1071880D03*
X93100Y1071880D03*
D33*
X78740Y1090930D03*
X22860Y1090930D03*
X78740Y1129030D03*
X22860Y1129030D03*
D34*
X42150Y919480D03*
X72150Y919480D03*
D35*
X304400Y795330D03*
X279400Y795330D03*
X254400Y795330D03*
X304400Y738830D03*
X279400Y738830D03*
X254400Y738830D03*
D10*
X1075690Y800980D03*
X1075690Y783980D03*
D11*
X1007990Y1003300D03*
X990990Y1003300D03*
X1295790Y952500D03*
X1312790Y952500D03*
X1007990Y887730D03*
X990990Y887730D03*
D10*
X1075690Y854880D03*
X1075690Y837880D03*
D12*
X937290Y749300D03*
X909290Y749300D03*
D11*
X813190Y876300D03*
X830190Y876300D03*
D13*
X935990Y697100D03*
X935990Y649100D03*
D10*
X758190Y891150D03*
X758190Y874150D03*
D14*
X773590Y893420D03*
X773590Y874420D03*
X794590Y883920D03*
D11*
X990990Y908050D03*
X1007990Y908050D03*
X746370Y910590D03*
X729370Y910590D03*
D15*
X826490Y807873D03*
X826490Y830580D03*
X826490Y853465D03*
D16*
X767080Y830580D03*
D11*
X861940Y787400D03*
X844940Y787400D03*
X844940Y812800D03*
X861940Y812800D03*
X813190Y891540D03*
X830190Y891540D03*
D12*
X840770Y919480D03*
X812770Y919480D03*
D17*
X1060450Y1106180D03*
X1009650Y1106180D03*
X958850Y1106180D03*
X1085850Y1139180D03*
X1035050Y1139180D03*
X984250Y1139180D03*
X933450Y1139180D03*
X908050Y1139180D03*
X933450Y1106180D03*
X958850Y1139180D03*
X984250Y1106180D03*
X1009650Y1139180D03*
X1035050Y1106180D03*
X1060450Y1139180D03*
X1085850Y1106180D03*
X908050Y1106180D03*
X1111250Y1139180D03*
X1136650Y1139180D03*
X1111250Y1106180D03*
X1136650Y1106180D03*
X1024890Y656580D03*
X1075690Y656580D03*
X1126490Y656580D03*
X999490Y623580D03*
X1050290Y623580D03*
X1101090Y623580D03*
X1151890Y623580D03*
X1177290Y623580D03*
X1151890Y656580D03*
X1126490Y623580D03*
X1101090Y656580D03*
X1075690Y623580D03*
X1050290Y656580D03*
X1024890Y623580D03*
X999490Y656580D03*
X1177290Y656580D03*
D18*
X1208115Y826200D02*
X1222665Y826200D01*
X1222665Y838200D02*
X1208115Y838200D01*
X1208115Y850200D02*
X1222665Y850200D01*
D19*
X1393190Y894080D03*
X1342390Y894080D03*
X1342390Y868680D03*
X1393190Y868680D03*
X1393190Y919480D03*
X1342390Y919480D03*
D12*
X909290Y838200D03*
X937290Y838200D03*
D20*
X1289290Y971550D03*
X1319290Y971550D03*
X984490Y1022350D03*
X1014490Y1022350D03*
D21*
X880110Y677000D03*
X880110Y720000D03*
D17*
X1202690Y1139180D03*
X1253490Y1139180D03*
X1304290Y1139180D03*
X1177290Y1106180D03*
X1228090Y1106180D03*
X1278890Y1106180D03*
X1329690Y1106180D03*
X1355090Y1106180D03*
X1329690Y1139180D03*
X1304290Y1106180D03*
X1278890Y1139180D03*
X1253490Y1106180D03*
X1228090Y1139180D03*
X1202690Y1106180D03*
X1177290Y1139180D03*
X1355090Y1139180D03*
X1329690Y623580D03*
X1278890Y623580D03*
X1228090Y623580D03*
X1355090Y656580D03*
X1304290Y656580D03*
X1253490Y656580D03*
X1228090Y656580D03*
X1253490Y623580D03*
X1278890Y656580D03*
X1304290Y623580D03*
X1329690Y656580D03*
X1355090Y623580D03*
D22*
X747410Y749040D02*
X733410Y749040D01*
X733410Y767040D01*
X747410Y767040D01*
X747410Y749040D01*
X747410Y754740D02*
X733410Y754740D01*
X733410Y760440D02*
X747410Y760440D01*
X747410Y766140D02*
X733410Y766140D01*
X733410Y635040D02*
X747410Y635040D01*
X733410Y635040D02*
X733410Y653040D01*
X747410Y653040D01*
X747410Y635040D01*
X747410Y640740D02*
X733410Y640740D01*
X733410Y646440D02*
X747410Y646440D01*
X747410Y652140D02*
X733410Y652140D01*
X794410Y749040D02*
X808410Y749040D01*
X794410Y749040D02*
X794410Y767040D01*
X808410Y767040D01*
X808410Y749040D01*
X808410Y754740D02*
X794410Y754740D01*
X794410Y760440D02*
X808410Y760440D01*
X808410Y766140D02*
X794410Y766140D01*
X794410Y635040D02*
X808410Y635040D01*
X794410Y635040D02*
X794410Y653040D01*
X808410Y653040D01*
X808410Y635040D01*
X808410Y640740D02*
X794410Y640740D01*
X794410Y646440D02*
X808410Y646440D01*
X808410Y652140D02*
X794410Y652140D01*
D23*
X1323700Y773280D03*
X1323700Y786280D03*
X1305200Y779780D03*
D11*
X1322950Y805180D03*
X1305950Y805180D03*
X1322950Y754380D03*
X1305950Y754380D03*
D24*
X1182116Y789880D03*
X1182116Y797880D03*
X1182116Y805880D03*
X1182116Y813880D03*
X1182116Y821880D03*
X1182116Y829880D03*
X1182116Y837880D03*
X1182116Y845880D03*
D25*
X1167190Y860806D03*
X1159190Y860806D03*
X1151190Y860806D03*
X1143190Y860806D03*
X1135190Y860806D03*
X1127190Y860806D03*
X1119190Y860806D03*
X1111190Y860806D03*
D24*
X1096264Y845880D03*
X1096264Y837880D03*
X1096264Y829880D03*
X1096264Y821880D03*
X1096264Y813880D03*
X1096264Y805880D03*
X1096264Y797880D03*
X1096264Y789880D03*
D25*
X1111190Y774954D03*
X1119190Y774954D03*
X1127190Y774954D03*
X1135190Y774954D03*
X1143190Y774954D03*
X1151190Y774954D03*
X1159190Y774954D03*
X1167190Y774954D03*
D26*
X910289Y801980D03*
X910289Y792480D03*
X910289Y782980D03*
X936291Y782980D03*
X936291Y801980D03*
D11*
X931790Y817880D03*
X914790Y817880D03*
X838590Y944880D03*
X855590Y944880D03*
D20*
X1014490Y944880D03*
X984490Y944880D03*
D11*
X1007990Y925830D03*
X990990Y925830D03*
X851290Y1071880D03*
X868290Y1071880D03*
X1007990Y963930D03*
X990990Y963930D03*
D20*
X1014490Y982980D03*
X984490Y982980D03*
D27*
X1391840Y751780D03*
X1391840Y807780D03*
D28*
X1355090Y764780D03*
X1355090Y774780D03*
X1355090Y784780D03*
X1355090Y794780D03*
D23*
X1269640Y786280D03*
X1269640Y773280D03*
X1288140Y779780D03*
D11*
X1270390Y805180D03*
X1287390Y805180D03*
X1270390Y754380D03*
X1287390Y754380D03*
D29*
X783590Y1000880D03*
X783590Y1005880D03*
D30*
X783590Y976130D03*
D31*
X783590Y983880D03*
D29*
X783590Y990880D03*
X783590Y995880D03*
X783590Y1015880D03*
X783590Y1010880D03*
D30*
X783590Y1040630D03*
D31*
X783590Y1032880D03*
D29*
X783590Y1025880D03*
X783590Y1020880D03*
D32*
X819090Y1052830D03*
X819090Y1040130D03*
X819090Y1027430D03*
X819090Y1014730D03*
X819090Y1002030D03*
X819090Y989330D03*
X819090Y976630D03*
X819090Y963930D03*
X875090Y963930D03*
X875090Y976630D03*
X875090Y989330D03*
X875090Y1002030D03*
X875090Y1014730D03*
X875090Y1027430D03*
X875090Y1040130D03*
X875090Y1052830D03*
D11*
X729370Y928370D03*
X746370Y928370D03*
X830190Y1071880D03*
X813190Y1071880D03*
D33*
X798830Y1090930D03*
X742950Y1090930D03*
X798830Y1129030D03*
X742950Y1129030D03*
D34*
X762240Y919480D03*
X792240Y919480D03*
D35*
X1024490Y795330D03*
X999490Y795330D03*
X974490Y795330D03*
X1024490Y738830D03*
X999490Y738830D03*
X974490Y738830D03*
D10*
X1795780Y800980D03*
X1795780Y783980D03*
D11*
X1728080Y1003300D03*
X1711080Y1003300D03*
X2015880Y952500D03*
X2032880Y952500D03*
X1728080Y887730D03*
X1711080Y887730D03*
D10*
X1795780Y854880D03*
X1795780Y837880D03*
D12*
X1657380Y749300D03*
X1629380Y749300D03*
D11*
X1533280Y876300D03*
X1550280Y876300D03*
D13*
X1656080Y697100D03*
X1656080Y649100D03*
D10*
X1478280Y891150D03*
X1478280Y874150D03*
D14*
X1493680Y893420D03*
X1493680Y874420D03*
X1514680Y883920D03*
D11*
X1711080Y908050D03*
X1728080Y908050D03*
X1466460Y910590D03*
X1449460Y910590D03*
D15*
X1546580Y807873D03*
X1546580Y830580D03*
X1546580Y853465D03*
D16*
X1487170Y830580D03*
D11*
X1582030Y787400D03*
X1565030Y787400D03*
X1565030Y812800D03*
X1582030Y812800D03*
X1533280Y891540D03*
X1550280Y891540D03*
D12*
X1560860Y919480D03*
X1532860Y919480D03*
D17*
X1780540Y1106180D03*
X1729740Y1106180D03*
X1678940Y1106180D03*
X1805940Y1139180D03*
X1755140Y1139180D03*
X1704340Y1139180D03*
X1653540Y1139180D03*
X1628140Y1139180D03*
X1653540Y1106180D03*
X1678940Y1139180D03*
X1704340Y1106180D03*
X1729740Y1139180D03*
X1755140Y1106180D03*
X1780540Y1139180D03*
X1805940Y1106180D03*
X1628140Y1106180D03*
X1831340Y1139180D03*
X1856740Y1139180D03*
X1831340Y1106180D03*
X1856740Y1106180D03*
X1744980Y656580D03*
X1795780Y656580D03*
X1846580Y656580D03*
X1719580Y623580D03*
X1770380Y623580D03*
X1821180Y623580D03*
X1871980Y623580D03*
X1897380Y623580D03*
X1871980Y656580D03*
X1846580Y623580D03*
X1821180Y656580D03*
X1795780Y623580D03*
X1770380Y656580D03*
X1744980Y623580D03*
X1719580Y656580D03*
X1897380Y656580D03*
D18*
X1928205Y826200D02*
X1942755Y826200D01*
X1942755Y838200D02*
X1928205Y838200D01*
X1928205Y850200D02*
X1942755Y850200D01*
D19*
X2113280Y894080D03*
X2062480Y894080D03*
X2062480Y868680D03*
X2113280Y868680D03*
X2113280Y919480D03*
X2062480Y919480D03*
D12*
X1629380Y838200D03*
X1657380Y838200D03*
D20*
X2009380Y971550D03*
X2039380Y971550D03*
X1704580Y1022350D03*
X1734580Y1022350D03*
D21*
X1600200Y677000D03*
X1600200Y720000D03*
D17*
X1922780Y1139180D03*
X1973580Y1139180D03*
X2024380Y1139180D03*
X1897380Y1106180D03*
X1948180Y1106180D03*
X1998980Y1106180D03*
X2049780Y1106180D03*
X2075180Y1106180D03*
X2049780Y1139180D03*
X2024380Y1106180D03*
X1998980Y1139180D03*
X1973580Y1106180D03*
X1948180Y1139180D03*
X1922780Y1106180D03*
X1897380Y1139180D03*
X2075180Y1139180D03*
X2049780Y623580D03*
X1998980Y623580D03*
X1948180Y623580D03*
X2075180Y656580D03*
X2024380Y656580D03*
X1973580Y656580D03*
X1948180Y656580D03*
X1973580Y623580D03*
X1998980Y656580D03*
X2024380Y623580D03*
X2049780Y656580D03*
X2075180Y623580D03*
D22*
X1467500Y749040D02*
X1453500Y749040D01*
X1453500Y767040D01*
X1467500Y767040D01*
X1467500Y749040D01*
X1467500Y754740D02*
X1453500Y754740D01*
X1453500Y760440D02*
X1467500Y760440D01*
X1467500Y766140D02*
X1453500Y766140D01*
X1453500Y635040D02*
X1467500Y635040D01*
X1453500Y635040D02*
X1453500Y653040D01*
X1467500Y653040D01*
X1467500Y635040D01*
X1467500Y640740D02*
X1453500Y640740D01*
X1453500Y646440D02*
X1467500Y646440D01*
X1467500Y652140D02*
X1453500Y652140D01*
X1514500Y749040D02*
X1528500Y749040D01*
X1514500Y749040D02*
X1514500Y767040D01*
X1528500Y767040D01*
X1528500Y749040D01*
X1528500Y754740D02*
X1514500Y754740D01*
X1514500Y760440D02*
X1528500Y760440D01*
X1528500Y766140D02*
X1514500Y766140D01*
X1514500Y635040D02*
X1528500Y635040D01*
X1514500Y635040D02*
X1514500Y653040D01*
X1528500Y653040D01*
X1528500Y635040D01*
X1528500Y640740D02*
X1514500Y640740D01*
X1514500Y646440D02*
X1528500Y646440D01*
X1528500Y652140D02*
X1514500Y652140D01*
D23*
X2043790Y773280D03*
X2043790Y786280D03*
X2025290Y779780D03*
D11*
X2043040Y805180D03*
X2026040Y805180D03*
X2043040Y754380D03*
X2026040Y754380D03*
D24*
X1902206Y789880D03*
X1902206Y797880D03*
X1902206Y805880D03*
X1902206Y813880D03*
X1902206Y821880D03*
X1902206Y829880D03*
X1902206Y837880D03*
X1902206Y845880D03*
D25*
X1887280Y860806D03*
X1879280Y860806D03*
X1871280Y860806D03*
X1863280Y860806D03*
X1855280Y860806D03*
X1847280Y860806D03*
X1839280Y860806D03*
X1831280Y860806D03*
D24*
X1816354Y845880D03*
X1816354Y837880D03*
X1816354Y829880D03*
X1816354Y821880D03*
X1816354Y813880D03*
X1816354Y805880D03*
X1816354Y797880D03*
X1816354Y789880D03*
D25*
X1831280Y774954D03*
X1839280Y774954D03*
X1847280Y774954D03*
X1855280Y774954D03*
X1863280Y774954D03*
X1871280Y774954D03*
X1879280Y774954D03*
X1887280Y774954D03*
D26*
X1630379Y801980D03*
X1630379Y792480D03*
X1630379Y782980D03*
X1656381Y782980D03*
X1656381Y801980D03*
D11*
X1651880Y817880D03*
X1634880Y817880D03*
X1558680Y944880D03*
X1575680Y944880D03*
D20*
X1734580Y944880D03*
X1704580Y944880D03*
D11*
X1728080Y925830D03*
X1711080Y925830D03*
X1571380Y1071880D03*
X1588380Y1071880D03*
X1728080Y963930D03*
X1711080Y963930D03*
D20*
X1734580Y982980D03*
X1704580Y982980D03*
D27*
X2111930Y751780D03*
X2111930Y807780D03*
D28*
X2075180Y764780D03*
X2075180Y774780D03*
X2075180Y784780D03*
X2075180Y794780D03*
D23*
X1989730Y786280D03*
X1989730Y773280D03*
X2008230Y779780D03*
D11*
X1990480Y805180D03*
X2007480Y805180D03*
X1990480Y754380D03*
X2007480Y754380D03*
D29*
X1503680Y1000880D03*
X1503680Y1005880D03*
D30*
X1503680Y976130D03*
D31*
X1503680Y983880D03*
D29*
X1503680Y990880D03*
X1503680Y995880D03*
X1503680Y1015880D03*
X1503680Y1010880D03*
D30*
X1503680Y1040630D03*
D31*
X1503680Y1032880D03*
D29*
X1503680Y1025880D03*
X1503680Y1020880D03*
D32*
X1539180Y1052830D03*
X1539180Y1040130D03*
X1539180Y1027430D03*
X1539180Y1014730D03*
X1539180Y1002030D03*
X1539180Y989330D03*
X1539180Y976630D03*
X1539180Y963930D03*
X1595180Y963930D03*
X1595180Y976630D03*
X1595180Y989330D03*
X1595180Y1002030D03*
X1595180Y1014730D03*
X1595180Y1027430D03*
X1595180Y1040130D03*
X1595180Y1052830D03*
D11*
X1449460Y928370D03*
X1466460Y928370D03*
X1550280Y1071880D03*
X1533280Y1071880D03*
D33*
X1518920Y1090930D03*
X1463040Y1090930D03*
X1518920Y1129030D03*
X1463040Y1129030D03*
D34*
X1482330Y919480D03*
X1512330Y919480D03*
D35*
X1744580Y795330D03*
X1719580Y795330D03*
X1694580Y795330D03*
X1744580Y738830D03*
X1719580Y738830D03*
X1694580Y738830D03*
D10*
X355600Y1390260D03*
X355600Y1373260D03*
D11*
X287900Y1592580D03*
X270900Y1592580D03*
X575700Y1541780D03*
X592700Y1541780D03*
X287900Y1477010D03*
X270900Y1477010D03*
D10*
X355600Y1444160D03*
X355600Y1427160D03*
D12*
X217200Y1338580D03*
X189200Y1338580D03*
D11*
X93100Y1465580D03*
X110100Y1465580D03*
D13*
X215900Y1286380D03*
X215900Y1238380D03*
D10*
X38100Y1480430D03*
X38100Y1463430D03*
D14*
X53500Y1482700D03*
X53500Y1463700D03*
X74500Y1473200D03*
D11*
X270900Y1497330D03*
X287900Y1497330D03*
X26280Y1499870D03*
X9280Y1499870D03*
D15*
X106400Y1397153D03*
X106400Y1419860D03*
X106400Y1442745D03*
D16*
X46990Y1419860D03*
D11*
X141850Y1376680D03*
X124850Y1376680D03*
X124850Y1402080D03*
X141850Y1402080D03*
X93100Y1480820D03*
X110100Y1480820D03*
D12*
X120680Y1508760D03*
X92680Y1508760D03*
D17*
X340360Y1695460D03*
X289560Y1695460D03*
X238760Y1695460D03*
X365760Y1728460D03*
X314960Y1728460D03*
X264160Y1728460D03*
X213360Y1728460D03*
X187960Y1728460D03*
X213360Y1695460D03*
X238760Y1728460D03*
X264160Y1695460D03*
X289560Y1728460D03*
X314960Y1695460D03*
X340360Y1728460D03*
X365760Y1695460D03*
X187960Y1695460D03*
X391160Y1728460D03*
X416560Y1728460D03*
X391160Y1695460D03*
X416560Y1695460D03*
X304800Y1245860D03*
X355600Y1245860D03*
X406400Y1245860D03*
X279400Y1212860D03*
X330200Y1212860D03*
X381000Y1212860D03*
X431800Y1212860D03*
X457200Y1212860D03*
X431800Y1245860D03*
X406400Y1212860D03*
X381000Y1245860D03*
X355600Y1212860D03*
X330200Y1245860D03*
X304800Y1212860D03*
X279400Y1245860D03*
X457200Y1245860D03*
D18*
X488025Y1415480D02*
X502575Y1415480D01*
X502575Y1427480D02*
X488025Y1427480D01*
X488025Y1439480D02*
X502575Y1439480D01*
D19*
X673100Y1483360D03*
X622300Y1483360D03*
X622300Y1457960D03*
X673100Y1457960D03*
X673100Y1508760D03*
X622300Y1508760D03*
D12*
X189200Y1427480D03*
X217200Y1427480D03*
D20*
X569200Y1560830D03*
X599200Y1560830D03*
X264400Y1611630D03*
X294400Y1611630D03*
D21*
X160020Y1266280D03*
X160020Y1309280D03*
D17*
X482600Y1728460D03*
X533400Y1728460D03*
X584200Y1728460D03*
X457200Y1695460D03*
X508000Y1695460D03*
X558800Y1695460D03*
X609600Y1695460D03*
X635000Y1695460D03*
X609600Y1728460D03*
X584200Y1695460D03*
X558800Y1728460D03*
X533400Y1695460D03*
X508000Y1728460D03*
X482600Y1695460D03*
X457200Y1728460D03*
X635000Y1728460D03*
X609600Y1212860D03*
X558800Y1212860D03*
X508000Y1212860D03*
X635000Y1245860D03*
X584200Y1245860D03*
X533400Y1245860D03*
X508000Y1245860D03*
X533400Y1212860D03*
X558800Y1245860D03*
X584200Y1212860D03*
X609600Y1245860D03*
X635000Y1212860D03*
D22*
X27320Y1338320D02*
X13320Y1338320D01*
X13320Y1356320D01*
X27320Y1356320D01*
X27320Y1338320D01*
X27320Y1344020D02*
X13320Y1344020D01*
X13320Y1349720D02*
X27320Y1349720D01*
X27320Y1355420D02*
X13320Y1355420D01*
X13320Y1224320D02*
X27320Y1224320D01*
X13320Y1224320D02*
X13320Y1242320D01*
X27320Y1242320D01*
X27320Y1224320D01*
X27320Y1230020D02*
X13320Y1230020D01*
X13320Y1235720D02*
X27320Y1235720D01*
X27320Y1241420D02*
X13320Y1241420D01*
X74320Y1338320D02*
X88320Y1338320D01*
X74320Y1338320D02*
X74320Y1356320D01*
X88320Y1356320D01*
X88320Y1338320D01*
X88320Y1344020D02*
X74320Y1344020D01*
X74320Y1349720D02*
X88320Y1349720D01*
X88320Y1355420D02*
X74320Y1355420D01*
X74320Y1224320D02*
X88320Y1224320D01*
X74320Y1224320D02*
X74320Y1242320D01*
X88320Y1242320D01*
X88320Y1224320D01*
X88320Y1230020D02*
X74320Y1230020D01*
X74320Y1235720D02*
X88320Y1235720D01*
X88320Y1241420D02*
X74320Y1241420D01*
D23*
X603610Y1362560D03*
X603610Y1375560D03*
X585110Y1369060D03*
D11*
X602860Y1394460D03*
X585860Y1394460D03*
X602860Y1343660D03*
X585860Y1343660D03*
D24*
X462026Y1379160D03*
X462026Y1387160D03*
X462026Y1395160D03*
X462026Y1403160D03*
X462026Y1411160D03*
X462026Y1419160D03*
X462026Y1427160D03*
X462026Y1435160D03*
D25*
X447100Y1450086D03*
X439100Y1450086D03*
X431100Y1450086D03*
X423100Y1450086D03*
X415100Y1450086D03*
X407100Y1450086D03*
X399100Y1450086D03*
X391100Y1450086D03*
D24*
X376174Y1435160D03*
X376174Y1427160D03*
X376174Y1419160D03*
X376174Y1411160D03*
X376174Y1403160D03*
X376174Y1395160D03*
X376174Y1387160D03*
X376174Y1379160D03*
D25*
X391100Y1364234D03*
X399100Y1364234D03*
X407100Y1364234D03*
X415100Y1364234D03*
X423100Y1364234D03*
X431100Y1364234D03*
X439100Y1364234D03*
X447100Y1364234D03*
D26*
X190199Y1391260D03*
X190199Y1381760D03*
X190199Y1372260D03*
X216201Y1372260D03*
X216201Y1391260D03*
D11*
X211700Y1407160D03*
X194700Y1407160D03*
X118500Y1534160D03*
X135500Y1534160D03*
D20*
X294400Y1534160D03*
X264400Y1534160D03*
D11*
X287900Y1515110D03*
X270900Y1515110D03*
X131200Y1661160D03*
X148200Y1661160D03*
X287900Y1553210D03*
X270900Y1553210D03*
D20*
X294400Y1572260D03*
X264400Y1572260D03*
D27*
X671750Y1341060D03*
X671750Y1397060D03*
D28*
X635000Y1354060D03*
X635000Y1364060D03*
X635000Y1374060D03*
X635000Y1384060D03*
D23*
X549550Y1375560D03*
X549550Y1362560D03*
X568050Y1369060D03*
D11*
X550300Y1394460D03*
X567300Y1394460D03*
X550300Y1343660D03*
X567300Y1343660D03*
D29*
X63500Y1590160D03*
X63500Y1595160D03*
D30*
X63500Y1565410D03*
D31*
X63500Y1573160D03*
D29*
X63500Y1580160D03*
X63500Y1585160D03*
X63500Y1605160D03*
X63500Y1600160D03*
D30*
X63500Y1629910D03*
D31*
X63500Y1622160D03*
D29*
X63500Y1615160D03*
X63500Y1610160D03*
D32*
X99000Y1642110D03*
X99000Y1629410D03*
X99000Y1616710D03*
X99000Y1604010D03*
X99000Y1591310D03*
X99000Y1578610D03*
X99000Y1565910D03*
X99000Y1553210D03*
X155000Y1553210D03*
X155000Y1565910D03*
X155000Y1578610D03*
X155000Y1591310D03*
X155000Y1604010D03*
X155000Y1616710D03*
X155000Y1629410D03*
X155000Y1642110D03*
D11*
X9280Y1517650D03*
X26280Y1517650D03*
X110100Y1661160D03*
X93100Y1661160D03*
D33*
X78740Y1680210D03*
X22860Y1680210D03*
X78740Y1718310D03*
X22860Y1718310D03*
D34*
X42150Y1508760D03*
X72150Y1508760D03*
D35*
X304400Y1384610D03*
X279400Y1384610D03*
X254400Y1384610D03*
X304400Y1328110D03*
X279400Y1328110D03*
X254400Y1328110D03*
D10*
X1075690Y1390260D03*
X1075690Y1373260D03*
D11*
X1007990Y1592580D03*
X990990Y1592580D03*
X1295790Y1541780D03*
X1312790Y1541780D03*
X1007990Y1477010D03*
X990990Y1477010D03*
D10*
X1075690Y1444160D03*
X1075690Y1427160D03*
D12*
X937290Y1338580D03*
X909290Y1338580D03*
D11*
X813190Y1465580D03*
X830190Y1465580D03*
D13*
X935990Y1286380D03*
X935990Y1238380D03*
D10*
X758190Y1480430D03*
X758190Y1463430D03*
D14*
X773590Y1482700D03*
X773590Y1463700D03*
X794590Y1473200D03*
D11*
X990990Y1497330D03*
X1007990Y1497330D03*
X746370Y1499870D03*
X729370Y1499870D03*
D15*
X826490Y1397153D03*
X826490Y1419860D03*
X826490Y1442745D03*
D16*
X767080Y1419860D03*
D11*
X861940Y1376680D03*
X844940Y1376680D03*
X844940Y1402080D03*
X861940Y1402080D03*
X813190Y1480820D03*
X830190Y1480820D03*
D12*
X840770Y1508760D03*
X812770Y1508760D03*
D17*
X1060450Y1695460D03*
X1009650Y1695460D03*
X958850Y1695460D03*
X1085850Y1728460D03*
X1035050Y1728460D03*
X984250Y1728460D03*
X933450Y1728460D03*
X908050Y1728460D03*
X933450Y1695460D03*
X958850Y1728460D03*
X984250Y1695460D03*
X1009650Y1728460D03*
X1035050Y1695460D03*
X1060450Y1728460D03*
X1085850Y1695460D03*
X908050Y1695460D03*
X1111250Y1728460D03*
X1136650Y1728460D03*
X1111250Y1695460D03*
X1136650Y1695460D03*
X1024890Y1245860D03*
X1075690Y1245860D03*
X1126490Y1245860D03*
X999490Y1212860D03*
X1050290Y1212860D03*
X1101090Y1212860D03*
X1151890Y1212860D03*
X1177290Y1212860D03*
X1151890Y1245860D03*
X1126490Y1212860D03*
X1101090Y1245860D03*
X1075690Y1212860D03*
X1050290Y1245860D03*
X1024890Y1212860D03*
X999490Y1245860D03*
X1177290Y1245860D03*
D18*
X1208115Y1415480D02*
X1222665Y1415480D01*
X1222665Y1427480D02*
X1208115Y1427480D01*
X1208115Y1439480D02*
X1222665Y1439480D01*
D19*
X1393190Y1483360D03*
X1342390Y1483360D03*
X1342390Y1457960D03*
X1393190Y1457960D03*
X1393190Y1508760D03*
X1342390Y1508760D03*
D12*
X909290Y1427480D03*
X937290Y1427480D03*
D20*
X1289290Y1560830D03*
X1319290Y1560830D03*
X984490Y1611630D03*
X1014490Y1611630D03*
D21*
X880110Y1266280D03*
X880110Y1309280D03*
D17*
X1202690Y1728460D03*
X1253490Y1728460D03*
X1304290Y1728460D03*
X1177290Y1695460D03*
X1228090Y1695460D03*
X1278890Y1695460D03*
X1329690Y1695460D03*
X1355090Y1695460D03*
X1329690Y1728460D03*
X1304290Y1695460D03*
X1278890Y1728460D03*
X1253490Y1695460D03*
X1228090Y1728460D03*
X1202690Y1695460D03*
X1177290Y1728460D03*
X1355090Y1728460D03*
X1329690Y1212860D03*
X1278890Y1212860D03*
X1228090Y1212860D03*
X1355090Y1245860D03*
X1304290Y1245860D03*
X1253490Y1245860D03*
X1228090Y1245860D03*
X1253490Y1212860D03*
X1278890Y1245860D03*
X1304290Y1212860D03*
X1329690Y1245860D03*
X1355090Y1212860D03*
D22*
X747410Y1338320D02*
X733410Y1338320D01*
X733410Y1356320D01*
X747410Y1356320D01*
X747410Y1338320D01*
X747410Y1344020D02*
X733410Y1344020D01*
X733410Y1349720D02*
X747410Y1349720D01*
X747410Y1355420D02*
X733410Y1355420D01*
X733410Y1224320D02*
X747410Y1224320D01*
X733410Y1224320D02*
X733410Y1242320D01*
X747410Y1242320D01*
X747410Y1224320D01*
X747410Y1230020D02*
X733410Y1230020D01*
X733410Y1235720D02*
X747410Y1235720D01*
X747410Y1241420D02*
X733410Y1241420D01*
X794410Y1338320D02*
X808410Y1338320D01*
X794410Y1338320D02*
X794410Y1356320D01*
X808410Y1356320D01*
X808410Y1338320D01*
X808410Y1344020D02*
X794410Y1344020D01*
X794410Y1349720D02*
X808410Y1349720D01*
X808410Y1355420D02*
X794410Y1355420D01*
X794410Y1224320D02*
X808410Y1224320D01*
X794410Y1224320D02*
X794410Y1242320D01*
X808410Y1242320D01*
X808410Y1224320D01*
X808410Y1230020D02*
X794410Y1230020D01*
X794410Y1235720D02*
X808410Y1235720D01*
X808410Y1241420D02*
X794410Y1241420D01*
D23*
X1323700Y1362560D03*
X1323700Y1375560D03*
X1305200Y1369060D03*
D11*
X1322950Y1394460D03*
X1305950Y1394460D03*
X1322950Y1343660D03*
X1305950Y1343660D03*
D24*
X1182116Y1379160D03*
X1182116Y1387160D03*
X1182116Y1395160D03*
X1182116Y1403160D03*
X1182116Y1411160D03*
X1182116Y1419160D03*
X1182116Y1427160D03*
X1182116Y1435160D03*
D25*
X1167190Y1450086D03*
X1159190Y1450086D03*
X1151190Y1450086D03*
X1143190Y1450086D03*
X1135190Y1450086D03*
X1127190Y1450086D03*
X1119190Y1450086D03*
X1111190Y1450086D03*
D24*
X1096264Y1435160D03*
X1096264Y1427160D03*
X1096264Y1419160D03*
X1096264Y1411160D03*
X1096264Y1403160D03*
X1096264Y1395160D03*
X1096264Y1387160D03*
X1096264Y1379160D03*
D25*
X1111190Y1364234D03*
X1119190Y1364234D03*
X1127190Y1364234D03*
X1135190Y1364234D03*
X1143190Y1364234D03*
X1151190Y1364234D03*
X1159190Y1364234D03*
X1167190Y1364234D03*
D26*
X910289Y1391260D03*
X910289Y1381760D03*
X910289Y1372260D03*
X936291Y1372260D03*
X936291Y1391260D03*
D11*
X931790Y1407160D03*
X914790Y1407160D03*
X838590Y1534160D03*
X855590Y1534160D03*
D20*
X1014490Y1534160D03*
X984490Y1534160D03*
D11*
X1007990Y1515110D03*
X990990Y1515110D03*
X851290Y1661160D03*
X868290Y1661160D03*
X1007990Y1553210D03*
X990990Y1553210D03*
D20*
X1014490Y1572260D03*
X984490Y1572260D03*
D27*
X1391840Y1341060D03*
X1391840Y1397060D03*
D28*
X1355090Y1354060D03*
X1355090Y1364060D03*
X1355090Y1374060D03*
X1355090Y1384060D03*
D23*
X1269640Y1375560D03*
X1269640Y1362560D03*
X1288140Y1369060D03*
D11*
X1270390Y1394460D03*
X1287390Y1394460D03*
X1270390Y1343660D03*
X1287390Y1343660D03*
D29*
X783590Y1590160D03*
X783590Y1595160D03*
D30*
X783590Y1565410D03*
D31*
X783590Y1573160D03*
D29*
X783590Y1580160D03*
X783590Y1585160D03*
X783590Y1605160D03*
X783590Y1600160D03*
D30*
X783590Y1629910D03*
D31*
X783590Y1622160D03*
D29*
X783590Y1615160D03*
X783590Y1610160D03*
D32*
X819090Y1642110D03*
X819090Y1629410D03*
X819090Y1616710D03*
X819090Y1604010D03*
X819090Y1591310D03*
X819090Y1578610D03*
X819090Y1565910D03*
X819090Y1553210D03*
X875090Y1553210D03*
X875090Y1565910D03*
X875090Y1578610D03*
X875090Y1591310D03*
X875090Y1604010D03*
X875090Y1616710D03*
X875090Y1629410D03*
X875090Y1642110D03*
D11*
X729370Y1517650D03*
X746370Y1517650D03*
X830190Y1661160D03*
X813190Y1661160D03*
D33*
X798830Y1680210D03*
X742950Y1680210D03*
X798830Y1718310D03*
X742950Y1718310D03*
D34*
X762240Y1508760D03*
X792240Y1508760D03*
D35*
X1024490Y1384610D03*
X999490Y1384610D03*
X974490Y1384610D03*
X1024490Y1328110D03*
X999490Y1328110D03*
X974490Y1328110D03*
D10*
X1795780Y1390260D03*
X1795780Y1373260D03*
D11*
X1728080Y1592580D03*
X1711080Y1592580D03*
X2015880Y1541780D03*
X2032880Y1541780D03*
X1728080Y1477010D03*
X1711080Y1477010D03*
D10*
X1795780Y1444160D03*
X1795780Y1427160D03*
D12*
X1657380Y1338580D03*
X1629380Y1338580D03*
D11*
X1533280Y1465580D03*
X1550280Y1465580D03*
D13*
X1656080Y1286380D03*
X1656080Y1238380D03*
D10*
X1478280Y1480430D03*
X1478280Y1463430D03*
D14*
X1493680Y1482700D03*
X1493680Y1463700D03*
X1514680Y1473200D03*
D11*
X1711080Y1497330D03*
X1728080Y1497330D03*
X1466460Y1499870D03*
X1449460Y1499870D03*
D15*
X1546580Y1397153D03*
X1546580Y1419860D03*
X1546580Y1442745D03*
D16*
X1487170Y1419860D03*
D11*
X1582030Y1376680D03*
X1565030Y1376680D03*
X1565030Y1402080D03*
X1582030Y1402080D03*
X1533280Y1480820D03*
X1550280Y1480820D03*
D12*
X1560860Y1508760D03*
X1532860Y1508760D03*
D17*
X1780540Y1695460D03*
X1729740Y1695460D03*
X1678940Y1695460D03*
X1805940Y1728460D03*
X1755140Y1728460D03*
X1704340Y1728460D03*
X1653540Y1728460D03*
X1628140Y1728460D03*
X1653540Y1695460D03*
X1678940Y1728460D03*
X1704340Y1695460D03*
X1729740Y1728460D03*
X1755140Y1695460D03*
X1780540Y1728460D03*
X1805940Y1695460D03*
X1628140Y1695460D03*
X1831340Y1728460D03*
X1856740Y1728460D03*
X1831340Y1695460D03*
X1856740Y1695460D03*
X1744980Y1245860D03*
X1795780Y1245860D03*
X1846580Y1245860D03*
X1719580Y1212860D03*
X1770380Y1212860D03*
X1821180Y1212860D03*
X1871980Y1212860D03*
X1897380Y1212860D03*
X1871980Y1245860D03*
X1846580Y1212860D03*
X1821180Y1245860D03*
X1795780Y1212860D03*
X1770380Y1245860D03*
X1744980Y1212860D03*
X1719580Y1245860D03*
X1897380Y1245860D03*
D18*
X1928205Y1415480D02*
X1942755Y1415480D01*
X1942755Y1427480D02*
X1928205Y1427480D01*
X1928205Y1439480D02*
X1942755Y1439480D01*
D19*
X2113280Y1483360D03*
X2062480Y1483360D03*
X2062480Y1457960D03*
X2113280Y1457960D03*
X2113280Y1508760D03*
X2062480Y1508760D03*
D12*
X1629380Y1427480D03*
X1657380Y1427480D03*
D20*
X2009380Y1560830D03*
X2039380Y1560830D03*
X1704580Y1611630D03*
X1734580Y1611630D03*
D21*
X1600200Y1266280D03*
X1600200Y1309280D03*
D17*
X1922780Y1728460D03*
X1973580Y1728460D03*
X2024380Y1728460D03*
X1897380Y1695460D03*
X1948180Y1695460D03*
X1998980Y1695460D03*
X2049780Y1695460D03*
X2075180Y1695460D03*
X2049780Y1728460D03*
X2024380Y1695460D03*
X1998980Y1728460D03*
X1973580Y1695460D03*
X1948180Y1728460D03*
X1922780Y1695460D03*
X1897380Y1728460D03*
X2075180Y1728460D03*
X2049780Y1212860D03*
X1998980Y1212860D03*
X1948180Y1212860D03*
X2075180Y1245860D03*
X2024380Y1245860D03*
X1973580Y1245860D03*
X1948180Y1245860D03*
X1973580Y1212860D03*
X1998980Y1245860D03*
X2024380Y1212860D03*
X2049780Y1245860D03*
X2075180Y1212860D03*
D22*
X1467500Y1338320D02*
X1453500Y1338320D01*
X1453500Y1356320D01*
X1467500Y1356320D01*
X1467500Y1338320D01*
X1467500Y1344020D02*
X1453500Y1344020D01*
X1453500Y1349720D02*
X1467500Y1349720D01*
X1467500Y1355420D02*
X1453500Y1355420D01*
X1453500Y1224320D02*
X1467500Y1224320D01*
X1453500Y1224320D02*
X1453500Y1242320D01*
X1467500Y1242320D01*
X1467500Y1224320D01*
X1467500Y1230020D02*
X1453500Y1230020D01*
X1453500Y1235720D02*
X1467500Y1235720D01*
X1467500Y1241420D02*
X1453500Y1241420D01*
X1514500Y1338320D02*
X1528500Y1338320D01*
X1514500Y1338320D02*
X1514500Y1356320D01*
X1528500Y1356320D01*
X1528500Y1338320D01*
X1528500Y1344020D02*
X1514500Y1344020D01*
X1514500Y1349720D02*
X1528500Y1349720D01*
X1528500Y1355420D02*
X1514500Y1355420D01*
X1514500Y1224320D02*
X1528500Y1224320D01*
X1514500Y1224320D02*
X1514500Y1242320D01*
X1528500Y1242320D01*
X1528500Y1224320D01*
X1528500Y1230020D02*
X1514500Y1230020D01*
X1514500Y1235720D02*
X1528500Y1235720D01*
X1528500Y1241420D02*
X1514500Y1241420D01*
D23*
X2043790Y1362560D03*
X2043790Y1375560D03*
X2025290Y1369060D03*
D11*
X2043040Y1394460D03*
X2026040Y1394460D03*
X2043040Y1343660D03*
X2026040Y1343660D03*
D24*
X1902206Y1379160D03*
X1902206Y1387160D03*
X1902206Y1395160D03*
X1902206Y1403160D03*
X1902206Y1411160D03*
X1902206Y1419160D03*
X1902206Y1427160D03*
X1902206Y1435160D03*
D25*
X1887280Y1450086D03*
X1879280Y1450086D03*
X1871280Y1450086D03*
X1863280Y1450086D03*
X1855280Y1450086D03*
X1847280Y1450086D03*
X1839280Y1450086D03*
X1831280Y1450086D03*
D24*
X1816354Y1435160D03*
X1816354Y1427160D03*
X1816354Y1419160D03*
X1816354Y1411160D03*
X1816354Y1403160D03*
X1816354Y1395160D03*
X1816354Y1387160D03*
X1816354Y1379160D03*
D25*
X1831280Y1364234D03*
X1839280Y1364234D03*
X1847280Y1364234D03*
X1855280Y1364234D03*
X1863280Y1364234D03*
X1871280Y1364234D03*
X1879280Y1364234D03*
X1887280Y1364234D03*
D26*
X1630379Y1391260D03*
X1630379Y1381760D03*
X1630379Y1372260D03*
X1656381Y1372260D03*
X1656381Y1391260D03*
D11*
X1651880Y1407160D03*
X1634880Y1407160D03*
X1558680Y1534160D03*
X1575680Y1534160D03*
D20*
X1734580Y1534160D03*
X1704580Y1534160D03*
D11*
X1728080Y1515110D03*
X1711080Y1515110D03*
X1571380Y1661160D03*
X1588380Y1661160D03*
X1728080Y1553210D03*
X1711080Y1553210D03*
D20*
X1734580Y1572260D03*
X1704580Y1572260D03*
D27*
X2111930Y1341060D03*
X2111930Y1397060D03*
D28*
X2075180Y1354060D03*
X2075180Y1364060D03*
X2075180Y1374060D03*
X2075180Y1384060D03*
D23*
X1989730Y1375560D03*
X1989730Y1362560D03*
X2008230Y1369060D03*
D11*
X1990480Y1394460D03*
X2007480Y1394460D03*
X1990480Y1343660D03*
X2007480Y1343660D03*
D29*
X1503680Y1590160D03*
X1503680Y1595160D03*
D30*
X1503680Y1565410D03*
D31*
X1503680Y1573160D03*
D29*
X1503680Y1580160D03*
X1503680Y1585160D03*
X1503680Y1605160D03*
X1503680Y1600160D03*
D30*
X1503680Y1629910D03*
D31*
X1503680Y1622160D03*
D29*
X1503680Y1615160D03*
X1503680Y1610160D03*
D32*
X1539180Y1642110D03*
X1539180Y1629410D03*
X1539180Y1616710D03*
X1539180Y1604010D03*
X1539180Y1591310D03*
X1539180Y1578610D03*
X1539180Y1565910D03*
X1539180Y1553210D03*
X1595180Y1553210D03*
X1595180Y1565910D03*
X1595180Y1578610D03*
X1595180Y1591310D03*
X1595180Y1604010D03*
X1595180Y1616710D03*
X1595180Y1629410D03*
X1595180Y1642110D03*
D11*
X1449460Y1517650D03*
X1466460Y1517650D03*
X1550280Y1661160D03*
X1533280Y1661160D03*
D33*
X1518920Y1680210D03*
X1463040Y1680210D03*
X1518920Y1718310D03*
X1463040Y1718310D03*
D34*
X1482330Y1508760D03*
X1512330Y1508760D03*
D35*
X1744580Y1384610D03*
X1719580Y1384610D03*
X1694580Y1384610D03*
X1744580Y1328110D03*
X1719580Y1328110D03*
X1694580Y1328110D03*
M02*
