%
M48
M72
T01C0.0150
T02C0.0260
T03C0.0276
T04C0.0709
T05C0.0800
T06C0.1300
%
T01
X6125Y4200
X4975Y4900
X11025Y8850
X13525Y8150
X13675Y6850
X15670Y5645
X17675Y6350
X20670Y5645
X20675Y3900
X18675Y3850
X16675Y3850
X18175Y8850
X20175Y9850
X20832Y10043
X21375Y9963
X22975Y10150
X22982Y10693
X21275Y11100
X20175Y11350
X19675Y10650
X17175Y11850
X16675Y11350
X15675Y12850
X14250Y13825
X14325Y15100
X13375Y16450
X14325Y16600
X12725Y17600
X13675Y18350
X13975Y19150
X14375Y19550
X13075Y19400
X15675Y20350
X11175Y18350
X8175Y16850
X9175Y15850
X9675Y14600
X9175Y13350
X6175Y12405
X5175Y12155
X5175Y11405
X5175Y10655
X6175Y10405
X10975Y9950
X11175Y10650
X13675Y10850
X17675Y13000
X18225Y12850
X18985Y12660
X19725Y13300
X18875Y13650
X22675Y12900
X23675Y12850
X26175Y11850
X26175Y11350
X29175Y12850
X30175Y12850
X30675Y11850
X33025Y13300
X33675Y12155
X33675Y11405
X33675Y10655
X34675Y10405
X34675Y12405
X37675Y13350
X38175Y14600
X37675Y15850
X35175Y15850
X34025Y15100
X33175Y16550
X30175Y14850
X30175Y13850
X29175Y13850
X29175Y14850
X29675Y18350
X33175Y20150
X34325Y20150
X35025Y19200
X36675Y20850
X34675Y22350
X34625Y25400
X33475Y26100
X28675Y25050
X27675Y25100
X27675Y22850
X28675Y22850
X20675Y25100
X20670Y26845
X18675Y25050
X16675Y25050
X15670Y26845
X17675Y27550
X13675Y28050
X13525Y29350
X11025Y30050
X10975Y31150
X11175Y31850
X13675Y32050
X16675Y32550
X17175Y33050
X17675Y34200
X18225Y34050
X18985Y33860
X19725Y34500
X18875Y34850
X22675Y34100
X23675Y34050
X26175Y33050
X26175Y32550
X22982Y31893
X22975Y31350
X21375Y31163
X20832Y31243
X20175Y31050
X18175Y30050
X19675Y31850
X20175Y32550
X21275Y32300
X24675Y29550
X25175Y29550
X26875Y30050
X30175Y30550
X33675Y31855
X33675Y32605
X33675Y33355
X34675Y33605
X33025Y34500
X30675Y33050
X30175Y34050
X30175Y35050
X29175Y35050
X29175Y34050
X29175Y36050
X30175Y36050
X33175Y37750
X35175Y37050
X34025Y36300
X37675Y37050
X38175Y35800
X37675Y34550
X39675Y31850
X39475Y31150
X42175Y32050
X45175Y32550
X45675Y33050
X48175Y31850
X48675Y32550
X49775Y32300
X49875Y31163
X49332Y31243
X48675Y31050
X46675Y30050
X42025Y29350
X39525Y30050
X42175Y28050
X44170Y26845
X46175Y27550
X49170Y26845
X49175Y25100
X47175Y25050
X45175Y25050
X43575Y22850
X44175Y20350
X42875Y19550
X42475Y19150
X42175Y18350
X41225Y17600
X39675Y18350
X41575Y19400
X42825Y16600
X41875Y16450
X42825Y15100
X42750Y13825
X44175Y12850
X45675Y11850
X45175Y11350
X46175Y13000
X46725Y12850
X47485Y12660
X48225Y13300
X47375Y13650
X51175Y12900
X52175Y12850
X54675Y11850
X54675Y11350
X51482Y10693
X51475Y10150
X49875Y9963
X49332Y10043
X48675Y9850
X48175Y10650
X48675Y11350
X49775Y11100
X46675Y8850
X46175Y6350
X44170Y5645
X42175Y6850
X42025Y8150
X39525Y8850
X39475Y9950
X39675Y10650
X42175Y10850
X49170Y5645
X49175Y3900
X47175Y3850
X45175Y3850
X34625Y4200
X33475Y4900
X28675Y3850
X27675Y3900
X26875Y8850
X25175Y8350
X24675Y8350
X30175Y9350
X36675Y16850
X53175Y8350
X53675Y8350
X55375Y8850
X58675Y9350
X62175Y10655
X62175Y11405
X62175Y12155
X63175Y12405
X61525Y13300
X62525Y15100
X63675Y15850
X61675Y16550
X58675Y14850
X58675Y13850
X57675Y13850
X57675Y14850
X57675Y12850
X58675Y12850
X59175Y11850
X63175Y10405
X67975Y9950
X68175Y10650
X70675Y10850
X73675Y11350
X74175Y11850
X74675Y13000
X75225Y12850
X75985Y12660
X76725Y13300
X75875Y13650
X72675Y12850
X71250Y13825
X71325Y15100
X70375Y16450
X71325Y16600
X69725Y17600
X70675Y18350
X70975Y19150
X71375Y19550
X70075Y19400
X68175Y18350
X65175Y16850
X66175Y15850
X66675Y14600
X66175Y13350
X76675Y10650
X77175Y11350
X78275Y11100
X79982Y10693
X79975Y10150
X78375Y9963
X77832Y10043
X77175Y9850
X75175Y8850
X74675Y6350
X72670Y5645
X70675Y6850
X70525Y8150
X68025Y8850
X61975Y4900
X63125Y4200
X57175Y3850
X56175Y3900
X73675Y3850
X75675Y3850
X77675Y3900
X77670Y5645
X81675Y8350
X82175Y8350
X83875Y8850
X87175Y9350
X90675Y10655
X90675Y11405
X90675Y12155
X91675Y12405
X90025Y13300
X91025Y15100
X92175Y15850
X90175Y16550
X87175Y14850
X87175Y13850
X86175Y13850
X86175Y14850
X86175Y12850
X87175Y12850
X87675Y11850
X91675Y10405
X96475Y9950
X96675Y10650
X99175Y10850
X102175Y11350
X102675Y11850
X103175Y13000
X103725Y12850
X104485Y12660
X105225Y13300
X104375Y13650
X101175Y12850
X99750Y13825
X99825Y15100
X98875Y16450
X99825Y16600
X98225Y17600
X99175Y18350
X99475Y19150
X99875Y19550
X98575Y19400
X96675Y18350
X93675Y16850
X94675Y15850
X95175Y14600
X94675Y13350
X105175Y10650
X105675Y11350
X106775Y11100
X106875Y9963
X106332Y10043
X105675Y9850
X108475Y10150
X108482Y10693
X111675Y11350
X111675Y11850
X114675Y12850
X115675Y12850
X116175Y11850
X118525Y13300
X119175Y12155
X119175Y11405
X119175Y10655
X120175Y10405
X120175Y12405
X123175Y13350
X123675Y14600
X123175Y15850
X122175Y16850
X120675Y15850
X119525Y15100
X118675Y16550
X115675Y14850
X115675Y13850
X114675Y13850
X114675Y14850
X109175Y12850
X108175Y12900
X115675Y9350
X112375Y8850
X110675Y8350
X110175Y8350
X106170Y5645
X103175Y6350
X101170Y5645
X99175Y6850
X99025Y8150
X96525Y8850
X103675Y8850
X104175Y3850
X106175Y3900
X102175Y3850
X91625Y4200
X90475Y4900
X85675Y3850
X84675Y3900
X83175Y11350
X83175Y11850
X80675Y12850
X79675Y12900
X86675Y18350
X90175Y20150
X91325Y20150
X93675Y20850
X91675Y22350
X91625Y25400
X90475Y26100
X85675Y25050
X84675Y25100
X84675Y22850
X85675Y22850
X77675Y25100
X75675Y25050
X73675Y25050
X72670Y26845
X74675Y27550
X77670Y26845
X81675Y29550
X82175Y29550
X83875Y30050
X87175Y30550
X90675Y31855
X90675Y32605
X90675Y33355
X91675Y33605
X90025Y34500
X87675Y33050
X87175Y34050
X87175Y35050
X86175Y35050
X86175Y34050
X83175Y33050
X83175Y32550
X80675Y34050
X79675Y34100
X77175Y32550
X76675Y31850
X77832Y31243
X78375Y31163
X78275Y32300
X79982Y31893
X79975Y31350
X77175Y31050
X75175Y30050
X70525Y29350
X68025Y30050
X67975Y31150
X68175Y31850
X70675Y32050
X73675Y32550
X74175Y33050
X74675Y34200
X75225Y34050
X75985Y33860
X76725Y34500
X75875Y34850
X72675Y34050
X71250Y35025
X71325Y36300
X71325Y37800
X70375Y37650
X69725Y38800
X70675Y39550
X70975Y40350
X71375Y40750
X70075Y40600
X68175Y39550
X65175Y38050
X66175Y37050
X66675Y35800
X66175Y34550
X63175Y33605
X62175Y33355
X62175Y32605
X62175Y31855
X63175Y31605
X59175Y33050
X58675Y34050
X58675Y35050
X57675Y35050
X57675Y34050
X54675Y33050
X54675Y32550
X52175Y34050
X51175Y34100
X48225Y34500
X47375Y34850
X47485Y33860
X46725Y34050
X46175Y34200
X44175Y34050
X42750Y35025
X42825Y36300
X42825Y37800
X41875Y37650
X41225Y38800
X42175Y39550
X42475Y40350
X42875Y40750
X41575Y40600
X39675Y39550
X36675Y38050
X35025Y40400
X34325Y41350
X33175Y41350
X36675Y42050
X34675Y43550
X34625Y46600
X33475Y47300
X28675Y46250
X27675Y46300
X27675Y44050
X28675Y44050
X20675Y46300
X20670Y48045
X17675Y48750
X15670Y48045
X13675Y49250
X13525Y50550
X11025Y51250
X10975Y52350
X11175Y53050
X13675Y53250
X15675Y55250
X17175Y54250
X16675Y53750
X18225Y55250
X17675Y55400
X18985Y55060
X19725Y55700
X18875Y56050
X22675Y55300
X23675Y55250
X26175Y54250
X26175Y53750
X22982Y53093
X22975Y52550
X21375Y52363
X20832Y52443
X20175Y52250
X19675Y53050
X20175Y53750
X21275Y53500
X18175Y51250
X24675Y50750
X25175Y50750
X26875Y51250
X30175Y51750
X33675Y53055
X33675Y53805
X33675Y54555
X34675Y54805
X33025Y55700
X30675Y54250
X30175Y55250
X29175Y55250
X29175Y56250
X29175Y57250
X30175Y57250
X30175Y56250
X34025Y57500
X35175Y58250
X36675Y59250
X37675Y58250
X38175Y57000
X37675Y55750
X42175Y53250
X39675Y53050
X39475Y52350
X39525Y51250
X42025Y50550
X42175Y49250
X44170Y48045
X46175Y48750
X49170Y48045
X49175Y46300
X47175Y46250
X45175Y46250
X43575Y44050
X44175Y41550
X56175Y44050
X57175Y44050
X57175Y46250
X56175Y46300
X61975Y47300
X63125Y46600
X63175Y43550
X65175Y42050
X63525Y40400
X62825Y41350
X61675Y41350
X58175Y39550
X61675Y37750
X63675Y37050
X62525Y36300
X58675Y36050
X57675Y36050
X61525Y34500
X58675Y30550
X55375Y30050
X53675Y29550
X53175Y29550
X51475Y31350
X51482Y31893
X61975Y26100
X63125Y25400
X63175Y22350
X65175Y20850
X62825Y20150
X61675Y20150
X63525Y19200
X58175Y18350
X57175Y22850
X56175Y22850
X56175Y25100
X57175Y25050
X70675Y28050
X72075Y22850
X72675Y20350
X92025Y19200
X101175Y20350
X100575Y22850
X102175Y25050
X104175Y25050
X106175Y25100
X106170Y26845
X103175Y27550
X101170Y26845
X99175Y28050
X99025Y29350
X96525Y30050
X96475Y31150
X96675Y31850
X99175Y32050
X102175Y32550
X102675Y33050
X105175Y31850
X105675Y32550
X106775Y32300
X106875Y31163
X106332Y31243
X105675Y31050
X108475Y31350
X108482Y31893
X111675Y32550
X111675Y33050
X109175Y34050
X108175Y34100
X105225Y34500
X104375Y34850
X104485Y33860
X103725Y34050
X103175Y34200
X101175Y34050
X99750Y35025
X99825Y36300
X99825Y37800
X98875Y37650
X98225Y38800
X99175Y39550
X99475Y40350
X99875Y40750
X98575Y40600
X96675Y39550
X93675Y38050
X94675Y37050
X95175Y35800
X94675Y34550
X92175Y37050
X91025Y36300
X90175Y37750
X87175Y36050
X86175Y36050
X86675Y39550
X90175Y41350
X91325Y41350
X92025Y40400
X93675Y42050
X91675Y43550
X91625Y46600
X90475Y47300
X85675Y46250
X84675Y46300
X84675Y44050
X85675Y44050
X77675Y46300
X75675Y46250
X73675Y46250
X72670Y48045
X74675Y48750
X77670Y48045
X81675Y50750
X82175Y50750
X83875Y51250
X87175Y51750
X90675Y53055
X90675Y53805
X90675Y54555
X91675Y54805
X90025Y55700
X87675Y54250
X87175Y55250
X86175Y55250
X86175Y56250
X86175Y57250
X87175Y57250
X87175Y56250
X91025Y57500
X92175Y58250
X93675Y59250
X94675Y58250
X95175Y57000
X94675Y55750
X99750Y56225
X99825Y57500
X99825Y59000
X98875Y58850
X98225Y60000
X99175Y60750
X99475Y61550
X99875Y61950
X98575Y61800
X96675Y60750
X92025Y61600
X91325Y62550
X90175Y62550
X93675Y63250
X91675Y64750
X85675Y65250
X84675Y65250
X86675Y60750
X90175Y58950
X80675Y55250
X79675Y55300
X76725Y55700
X75875Y56050
X74675Y55400
X75225Y55250
X75985Y55060
X74175Y54250
X73675Y53750
X72675Y55250
X71250Y56225
X71325Y57500
X71325Y59000
X70375Y58850
X69725Y60000
X70675Y60750
X68175Y60750
X70075Y61800
X70975Y61550
X71375Y61950
X72675Y62750
X72075Y65250
X65175Y63250
X63525Y61600
X62825Y62550
X61675Y62550
X63175Y64750
X57175Y65250
X56175Y65250
X58175Y60750
X61675Y58950
X63675Y58250
X62525Y57500
X65175Y59250
X66175Y58250
X66675Y57000
X66175Y55750
X63175Y54805
X62175Y54555
X62175Y53805
X62175Y53055
X63175Y52805
X59175Y54250
X58675Y55250
X57675Y55250
X57675Y56250
X57675Y57250
X58675Y57250
X58675Y56250
X61525Y55700
X68175Y53050
X67975Y52350
X68025Y51250
X70525Y50550
X70675Y49250
X75175Y51250
X77175Y52250
X77832Y52443
X78375Y52363
X79975Y52550
X79982Y53093
X78275Y53500
X77175Y53750
X76675Y53050
X70675Y53250
X58675Y51750
X55375Y51250
X53675Y50750
X53175Y50750
X49875Y52363
X49332Y52443
X48675Y52250
X48175Y53050
X48675Y53750
X49775Y53500
X51482Y53093
X51475Y52550
X54675Y53750
X54675Y54250
X52175Y55250
X51175Y55300
X48225Y55700
X47375Y56050
X46175Y55400
X46725Y55250
X47485Y55060
X45675Y54250
X45175Y53750
X44175Y55250
X42750Y56225
X42825Y57500
X42825Y59000
X41875Y58850
X41225Y60000
X42175Y60750
X39675Y60750
X41575Y61800
X42475Y61550
X42875Y61950
X44175Y62750
X43575Y65250
X36675Y63250
X35025Y61600
X34325Y62550
X33175Y62550
X34675Y64750
X28675Y65250
X27675Y65250
X29675Y60750
X33175Y58950
X34675Y52805
X46675Y51250
X72075Y44050
X72675Y41550
X91675Y31605
X103675Y30050
X110175Y29550
X110675Y29550
X112375Y30050
X115675Y30550
X119175Y31855
X119175Y32605
X119175Y33355
X120175Y33605
X118525Y34500
X116175Y33050
X115675Y34050
X115675Y35050
X114675Y35050
X114675Y34050
X114675Y36050
X115675Y36050
X118675Y37750
X120675Y37050
X119525Y36300
X123175Y37050
X123675Y35800
X123175Y34550
X128250Y35025
X129675Y34050
X131675Y34200
X132225Y34050
X132985Y33860
X133725Y34500
X132875Y34850
X136675Y34100
X137675Y34050
X140175Y33050
X140175Y32550
X136982Y31893
X136975Y31350
X135375Y31163
X134832Y31243
X134175Y31050
X132175Y30050
X133675Y31850
X134175Y32550
X135275Y32300
X131175Y33050
X130675Y32550
X127675Y32050
X125175Y31850
X124975Y31150
X125025Y30050
X127525Y29350
X127675Y28050
X129670Y26845
X131675Y27550
X134670Y26845
X134675Y25100
X132675Y25050
X130675Y25050
X129075Y22850
X129675Y20350
X128375Y19550
X127975Y19150
X127675Y18350
X126725Y17600
X125175Y18350
X127075Y19400
X122175Y20850
X119825Y20150
X118675Y20150
X120525Y19200
X115175Y18350
X120175Y22350
X120125Y25400
X118975Y26100
X114175Y25050
X113175Y25100
X113175Y22850
X114175Y22850
X128325Y16600
X127375Y16450
X128325Y15100
X128250Y13825
X129675Y12850
X131175Y11850
X130675Y11350
X131675Y13000
X132225Y12850
X132985Y12660
X133725Y13300
X132875Y13650
X136675Y12900
X137675Y12850
X140175Y11850
X140175Y11350
X136982Y10693
X136975Y10150
X135375Y9963
X134832Y10043
X134175Y9850
X133675Y10650
X134175Y11350
X135275Y11100
X132175Y8850
X131675Y6350
X129670Y5645
X127675Y6850
X127525Y8150
X125025Y8850
X124975Y9950
X125175Y10650
X127675Y10850
X134670Y5645
X134675Y3900
X132675Y3850
X130675Y3850
X138675Y8350
X139175Y8350
X140875Y8850
X144175Y9350
X144675Y11850
X144175Y12850
X143175Y12850
X143175Y13850
X144175Y13850
X144175Y14850
X143175Y14850
X143675Y18350
X142675Y22850
X141675Y22850
X141675Y25100
X142675Y25050
X139175Y29550
X138675Y29550
X140875Y30050
X144175Y30550
X144675Y33050
X144175Y34050
X143175Y34050
X143175Y35050
X144175Y35050
X144175Y36050
X143175Y36050
X143675Y39550
X142675Y44050
X141675Y44050
X142675Y46250
X141675Y46300
X134675Y46300
X132675Y46250
X130675Y46250
X129670Y48045
X131675Y48750
X134670Y48045
X138675Y50750
X139175Y50750
X140875Y51250
X144175Y51750
X140175Y53750
X140175Y54250
X137675Y55250
X136675Y55300
X133725Y55700
X132875Y56050
X131675Y55400
X132225Y55250
X132985Y55060
X131175Y54250
X130675Y53750
X129675Y55250
X128250Y56225
X128325Y57500
X128325Y59000
X127375Y58850
X126725Y60000
X127675Y60750
X127975Y61550
X128375Y61950
X127075Y61800
X125175Y60750
X122175Y59250
X123175Y58250
X123675Y57000
X123175Y55750
X120175Y54805
X119175Y54555
X119175Y53805
X119175Y53055
X120175Y52805
X116175Y54250
X115675Y55250
X114675Y55250
X111675Y54250
X111675Y53750
X109175Y55250
X108175Y55300
X105225Y55700
X104375Y56050
X103175Y55400
X103725Y55250
X104485Y55060
X102675Y54250
X102175Y53750
X99175Y53250
X96675Y53050
X96475Y52350
X96525Y51250
X99025Y50550
X99175Y49250
X101170Y48045
X103175Y48750
X106170Y48045
X106175Y46300
X104175Y46250
X102175Y46250
X100575Y44050
X101175Y41550
X113175Y44050
X114175Y44050
X114175Y46250
X113175Y46300
X118975Y47300
X120125Y46600
X120175Y43550
X122175Y42050
X119825Y41350
X118675Y41350
X120525Y40400
X122175Y38050
X125175Y39550
X126725Y38800
X127675Y39550
X127975Y40350
X128375Y40750
X127075Y40600
X129675Y41550
X129075Y44050
X127675Y49250
X127525Y50550
X125025Y51250
X124975Y52350
X125175Y53050
X127675Y53250
X132175Y51250
X134175Y52250
X134832Y52443
X135375Y52363
X136975Y52550
X136982Y53093
X135275Y53500
X134175Y53750
X133675Y53050
X143175Y55250
X144175Y55250
X144675Y54250
X144175Y56250
X143175Y56250
X143175Y57250
X144175Y57250
X143675Y60750
X142675Y65250
X141675Y65250
X129675Y62750
X129075Y65250
X122175Y63250
X119825Y62550
X118675Y62550
X120525Y61600
X115175Y60750
X118675Y58950
X120675Y58250
X119525Y57500
X118525Y55700
X115675Y56250
X115675Y57250
X114675Y57250
X114675Y56250
X108482Y53093
X108475Y52550
X106875Y52363
X106332Y52443
X105675Y52250
X105175Y53050
X105675Y53750
X106775Y53500
X103675Y51250
X101175Y55250
X91675Y52805
X83175Y53750
X83175Y54250
X101175Y62750
X100575Y65250
X113175Y65250
X114175Y65250
X120175Y64750
X115675Y51750
X112375Y51250
X110675Y50750
X110175Y50750
X115175Y39550
X127375Y37650
X128325Y37800
X128325Y36300
X120175Y31605
X118975Y4900
X120125Y4200
X114175Y3850
X113175Y3900
X141675Y3900
X142675Y3850
X34675Y31605
X29675Y39550
X18675Y46250
X16675Y46250
X15075Y44050
X15675Y41550
X14375Y40750
X13975Y40350
X13675Y39550
X13075Y40600
X11175Y39550
X12725Y38800
X13375Y37650
X14325Y37800
X14325Y36300
X14250Y35025
X15675Y34050
X9675Y35800
X9175Y34550
X6175Y33605
X5175Y33355
X5175Y32605
X5175Y31855
X6175Y31605
X4525Y34500
X5525Y36300
X6675Y37050
X9175Y37050
X8175Y38050
X6525Y40400
X5825Y41350
X4675Y41350
X8175Y42050
X6175Y43550
X6125Y46600
X4975Y47300
X6175Y52805
X5175Y53055
X5175Y53805
X5175Y54555
X6175Y54805
X4525Y55700
X5525Y57500
X6675Y58250
X8175Y59250
X9175Y58250
X9675Y57000
X9175Y55750
X14250Y56225
X14325Y57500
X14325Y59000
X13375Y58850
X12725Y60000
X13675Y60750
X11175Y60750
X13075Y61800
X13975Y61550
X14375Y61950
X15675Y62750
X15075Y65250
X8175Y63250
X6525Y61600
X5825Y62550
X4675Y62550
X6175Y64750
X4675Y58950
X4675Y37750
X4975Y26100
X6125Y25400
X6175Y22350
X8175Y20850
X5825Y20150
X4675Y20150
X6525Y19200
X4675Y16550
X5525Y15100
X6675Y15850
X4525Y13300
X15075Y22850
T02
X5892Y19279
X5841Y19275
X5782Y19279
X5739Y19277
X5782Y17373
X5739Y17371
X5841Y17369
X5892Y17373
X34239Y17371
X34282Y17373
X34341Y17369
X34392Y17373
X34341Y19275
X34392Y19279
X34282Y19279
X34239Y19277
X62739Y19277
X62782Y19279
X62841Y19275
X62892Y19279
X62892Y17373
X62841Y17369
X62782Y17373
X62739Y17371
X91239Y17371
X91282Y17373
X91341Y17369
X91392Y17373
X91341Y19275
X91392Y19279
X91282Y19279
X91239Y19277
X119739Y19277
X119782Y19279
X119841Y19275
X119892Y19279
X119892Y17373
X119841Y17369
X119782Y17373
X119739Y17371
X119841Y38569
X119892Y38573
X119782Y38573
X119739Y38571
X119739Y40477
X119782Y40479
X119841Y40475
X119892Y40479
X91392Y40479
X91341Y40475
X91282Y40479
X91239Y40477
X91282Y38573
X91239Y38571
X91341Y38569
X91392Y38573
X62892Y38573
X62841Y38569
X62782Y38573
X62739Y38571
X62739Y40477
X62782Y40479
X62841Y40475
X62892Y40479
X34392Y40479
X34341Y40475
X34282Y40479
X34239Y40477
X34282Y38573
X34239Y38571
X34341Y38569
X34392Y38573
X5892Y38573
X5841Y38569
X5782Y38573
X5739Y38571
X5739Y40477
X5782Y40479
X5841Y40475
X5892Y40479
X5841Y59769
X5892Y59773
X5782Y59773
X5739Y59771
X5739Y61677
X5782Y61679
X5841Y61675
X5892Y61679
X34239Y61677
X34282Y61679
X34341Y61675
X34392Y61679
X34392Y59773
X34341Y59769
X34282Y59773
X34239Y59771
X62739Y59771
X62782Y59773
X62841Y59769
X62892Y59773
X62841Y61675
X62892Y61679
X62782Y61679
X62739Y61677
X91239Y61677
X91282Y61679
X91341Y61675
X91392Y61679
X91392Y59773
X91341Y59769
X91282Y59773
X91239Y59771
X119739Y59771
X119782Y59773
X119841Y59769
X119892Y59773
X119841Y61675
X119892Y61679
X119782Y61679
X119739Y61677
T03
X118729Y61810
X118663Y61810
X118585Y61810
X118520Y61810
X118520Y59661
X118586Y59661
X118662Y59660
X118729Y59660
X90229Y59660
X90162Y59660
X90086Y59661
X90020Y59661
X90020Y61810
X90085Y61810
X90163Y61810
X90229Y61810
X61729Y61810
X61663Y61810
X61585Y61810
X61520Y61810
X61520Y59661
X61586Y59661
X61662Y59660
X61729Y59660
X33229Y59660
X33162Y59660
X33086Y59661
X33020Y59661
X33020Y61810
X33085Y61810
X33163Y61810
X33229Y61810
X4729Y61810
X4663Y61810
X4585Y61810
X4520Y61810
X4520Y59661
X4586Y59661
X4662Y59660
X4729Y59660
X4729Y40610
X4663Y40610
X4585Y40610
X4520Y40610
X4520Y38461
X4586Y38461
X4662Y38460
X4729Y38460
X33020Y38461
X33086Y38461
X33162Y38460
X33229Y38460
X33229Y40610
X33163Y40610
X33085Y40610
X33020Y40610
X61520Y40610
X61585Y40610
X61663Y40610
X61729Y40610
X61729Y38460
X61662Y38460
X61586Y38461
X61520Y38461
X90020Y38461
X90086Y38461
X90162Y38460
X90229Y38460
X90229Y40610
X90163Y40610
X90085Y40610
X90020Y40610
X118520Y40610
X118585Y40610
X118663Y40610
X118729Y40610
X118729Y38460
X118662Y38460
X118586Y38461
X118520Y38461
X118520Y19410
X118585Y19410
X118663Y19410
X118729Y19410
X118729Y17260
X118662Y17260
X118586Y17261
X118520Y17261
X90229Y17260
X90162Y17260
X90086Y17261
X90020Y17261
X90020Y19410
X90085Y19410
X90163Y19410
X90229Y19410
X61729Y19410
X61663Y19410
X61585Y19410
X61520Y19410
X61520Y17261
X61586Y17261
X61662Y17260
X61729Y17260
X33229Y17260
X33162Y17260
X33086Y17261
X33020Y17261
X33020Y19410
X33085Y19410
X33163Y19410
X33229Y19410
X4729Y19410
X4663Y19410
X4585Y19410
X4520Y19410
X4520Y17261
X4586Y17261
X4662Y17260
X4729Y17260
T04
X29675Y14350
X29675Y13350
X58175Y13350
X58175Y14350
X86675Y14350
X86675Y13350
X115175Y13350
X115175Y14350
X143675Y14350
X143675Y13350
X143675Y34550
X143675Y35550
X115175Y35550
X115175Y34550
X86675Y34550
X86675Y35550
X58175Y35550
X58175Y34550
X29675Y34550
X29675Y35550
X29675Y55750
X29675Y56750
X58175Y56750
X58175Y55750
X86675Y55750
X86675Y56750
X115175Y56750
X115175Y55750
X143675Y55750
X143675Y56750
T05
X120775Y48650
X118975Y48650
X92275Y48650
X90475Y48650
X63775Y48650
X61975Y48650
X35275Y48650
X33475Y48650
X6775Y48650
X4975Y48650
X4975Y27450
X6775Y27450
X33475Y27450
X35275Y27450
X61975Y27450
X63775Y27450
X90475Y27450
X92275Y27450
X118975Y27450
X120775Y27450
X120775Y6250
X118975Y6250
X92275Y6250
X90475Y6250
X63775Y6250
X61975Y6250
X35275Y6250
X33475Y6250
X6775Y6250
X4975Y6250
T06
X9675Y3850
X30175Y5850
X38175Y3850
X58675Y5850
X66675Y3850
X87175Y5850
X95175Y3850
X115675Y5850
X123675Y3850
X144175Y5850
X144175Y16850
X124175Y22850
X123675Y25050
X115675Y27050
X95675Y22850
X95175Y25050
X87175Y27050
X67175Y22850
X66675Y25050
X58675Y27050
X38675Y22850
X38175Y25050
X30175Y27050
X10175Y22850
X9675Y25050
X30175Y16850
X58675Y16850
X87175Y16850
X115675Y16850
X144175Y27050
X144175Y38050
X124175Y44050
X123675Y46250
X115675Y48250
X95675Y44050
X95175Y46250
X87175Y48250
X67175Y44050
X66675Y46250
X58675Y48250
X38675Y44050
X38175Y46250
X30175Y48250
X10175Y44050
X9675Y46250
X30175Y38050
X58675Y38050
X87175Y38050
X115675Y38050
X144175Y48250
X144175Y59250
X124175Y65250
X115675Y59250
X95675Y65250
X87175Y59250
X67175Y65250
X58675Y59250
X38675Y65250
X30175Y59250
X10175Y65250
M30
