G75*
%MOIN*%
%OFA0B0*%
%FSLAX25Y25*%
%IPPOS*%
%LPD*%
%AMOC8*
5,1,8,0,0,1.08239X$1,22.5*
%
%ADD10R,0.04737X0.05131*%
%ADD11R,0.05131X0.04737*%
%ADD12R,0.06312X0.07099*%
%ADD13R,0.06312X0.12611*%
%ADD14R,0.04343X0.03950*%
%ADD15R,0.06800X0.04000*%
%ADD16R,0.08300X0.13100*%
%ADD17C,0.13800*%
%ADD18C,0.04737*%
%ADD19R,0.04737X0.08674*%
%ADD20C,0.02572*%
%ADD21R,0.06040X0.13760*%
%ADD22C,0.07887*%
%ADD23R,0.13280X0.04737*%
%ADD24R,0.05524X0.06312*%
%ADD25R,0.06800X0.03800*%
%ADD26R,0.06587X0.06800*%
%ADD27R,0.03950X0.05524*%
%ADD28C,0.02602*%
%ADD29C,0.08800*%
%ADD30R,0.03556X0.03556*%
%ADD31R,0.05800X0.03000*%
%ADD32R,0.03000X0.05800*%
%ADD33R,0.05524X0.02965*%
%ADD34R,0.05524X0.03162*%
%ADD35R,0.05131X0.05524*%
%ADD36R,0.07690X0.02375*%
%ADD37R,0.06548X0.08674*%
%ADD38R,0.10643X0.06410*%
%ADD39C,0.04737*%
%ADD40C,0.05131*%
%ADD41C,0.03556*%
%ADD42C,0.00400*%
%ADD43C,0.03398*%
%ADD44R,0.03300X0.05800*%
%ADD45C,0.00500*%
%ADD46R,0.08674X0.05524*%
%ADD47R,0.06115X0.03162*%
%ADD48C,0.05000*%
%ADD49C,0.06706*%
D10*
X0181750Y0095154D03*
X0181750Y0101846D03*
X0181750Y0116374D03*
X0181750Y0123067D03*
X0056750Y0130654D03*
X0056750Y0137346D03*
X0341750Y0137346D03*
X0341750Y0130654D03*
X0466750Y0123067D03*
X0466750Y0116374D03*
X0466750Y0101846D03*
X0466750Y0095154D03*
X0626750Y0130654D03*
X0626750Y0137346D03*
X0751750Y0123067D03*
X0751750Y0116374D03*
X0751750Y0101846D03*
X0751750Y0095154D03*
X0911750Y0130654D03*
X0911750Y0137346D03*
X1036750Y0123067D03*
X1036750Y0116374D03*
X1036750Y0101846D03*
X1036750Y0095154D03*
X1196750Y0130654D03*
X1196750Y0137346D03*
X1321750Y0123067D03*
X1321750Y0116374D03*
X1321750Y0101846D03*
X1321750Y0095154D03*
X1321750Y0307154D03*
X1321750Y0313846D03*
X1321750Y0328374D03*
X1321750Y0335067D03*
X1196750Y0342654D03*
X1196750Y0349346D03*
X1036750Y0335067D03*
X1036750Y0328374D03*
X1036750Y0313846D03*
X1036750Y0307154D03*
X0911750Y0342654D03*
X0911750Y0349346D03*
X0751750Y0335067D03*
X0751750Y0328374D03*
X0751750Y0313846D03*
X0751750Y0307154D03*
X0626750Y0342654D03*
X0626750Y0349346D03*
X0466750Y0335067D03*
X0466750Y0328374D03*
X0466750Y0313846D03*
X0466750Y0307154D03*
X0341750Y0342654D03*
X0341750Y0349346D03*
X0181750Y0335067D03*
X0181750Y0328374D03*
X0181750Y0313846D03*
X0181750Y0307154D03*
X0056750Y0342654D03*
X0056750Y0349346D03*
X0181750Y0519154D03*
X0181750Y0525846D03*
X0181750Y0540374D03*
X0181750Y0547067D03*
X0056750Y0554654D03*
X0056750Y0561346D03*
X0341750Y0561346D03*
X0341750Y0554654D03*
X0466750Y0547067D03*
X0466750Y0540374D03*
X0466750Y0525846D03*
X0466750Y0519154D03*
X0626750Y0554654D03*
X0626750Y0561346D03*
X0751750Y0547067D03*
X0751750Y0540374D03*
X0751750Y0525846D03*
X0751750Y0519154D03*
X0911750Y0554654D03*
X0911750Y0561346D03*
X1036750Y0547067D03*
X1036750Y0540374D03*
X1036750Y0525846D03*
X1036750Y0519154D03*
X1196750Y0554654D03*
X1196750Y0561346D03*
X1321750Y0547067D03*
X1321750Y0540374D03*
X1321750Y0525846D03*
X1321750Y0519154D03*
D11*
X1265096Y0532500D03*
X1258404Y0532500D03*
X1237596Y0530500D03*
X1230904Y0530500D03*
X1230904Y0520500D03*
X1237596Y0520500D03*
X1225096Y0555500D03*
X1225096Y0561500D03*
X1218404Y0561500D03*
X1218404Y0555500D03*
X1195096Y0570000D03*
X1188404Y0570000D03*
X1218404Y0582500D03*
X1225096Y0582500D03*
X1238404Y0605000D03*
X1245096Y0605000D03*
X1245096Y0612500D03*
X1238404Y0612500D03*
X1238404Y0632500D03*
X1245096Y0632500D03*
X1288404Y0605500D03*
X1295096Y0605500D03*
X1295096Y0590000D03*
X1288404Y0590000D03*
X1288404Y0575000D03*
X1295096Y0575000D03*
X1295096Y0568000D03*
X1288404Y0568000D03*
X1288404Y0560000D03*
X1295096Y0560000D03*
X1398404Y0527500D03*
X1405096Y0527500D03*
X1412404Y0527500D03*
X1419096Y0527500D03*
X1419096Y0507500D03*
X1412404Y0507500D03*
X1405096Y0507500D03*
X1398404Y0507500D03*
X1408404Y0585500D03*
X1415096Y0585500D03*
X1134096Y0527500D03*
X1127404Y0527500D03*
X1120096Y0527500D03*
X1113404Y0527500D03*
X1113404Y0507500D03*
X1120096Y0507500D03*
X1127404Y0507500D03*
X1134096Y0507500D03*
X1010096Y0560000D03*
X1003404Y0560000D03*
X1003404Y0568000D03*
X1010096Y0568000D03*
X1010096Y0575000D03*
X1003404Y0575000D03*
X1003404Y0590000D03*
X1010096Y0590000D03*
X1010096Y0605500D03*
X1003404Y0605500D03*
X0960096Y0605000D03*
X0953404Y0605000D03*
X0953404Y0612500D03*
X0960096Y0612500D03*
X0960096Y0632500D03*
X0953404Y0632500D03*
X0940096Y0582500D03*
X0933404Y0582500D03*
X0910096Y0570000D03*
X0903404Y0570000D03*
X0933404Y0561500D03*
X0933404Y0555500D03*
X0940096Y0555500D03*
X0940096Y0561500D03*
X0973404Y0532500D03*
X0980096Y0532500D03*
X0952596Y0530500D03*
X0945904Y0530500D03*
X0945904Y0520500D03*
X0952596Y0520500D03*
X0849096Y0527500D03*
X0842404Y0527500D03*
X0835096Y0527500D03*
X0828404Y0527500D03*
X0828404Y0507500D03*
X0835096Y0507500D03*
X0842404Y0507500D03*
X0849096Y0507500D03*
X0725096Y0560000D03*
X0718404Y0560000D03*
X0718404Y0568000D03*
X0725096Y0568000D03*
X0725096Y0575000D03*
X0718404Y0575000D03*
X0718404Y0590000D03*
X0725096Y0590000D03*
X0725096Y0605500D03*
X0718404Y0605500D03*
X0675096Y0605000D03*
X0668404Y0605000D03*
X0668404Y0612500D03*
X0675096Y0612500D03*
X0675096Y0632500D03*
X0668404Y0632500D03*
X0655096Y0582500D03*
X0648404Y0582500D03*
X0625096Y0570000D03*
X0618404Y0570000D03*
X0648404Y0561500D03*
X0648404Y0555500D03*
X0655096Y0555500D03*
X0655096Y0561500D03*
X0688404Y0532500D03*
X0695096Y0532500D03*
X0667596Y0530500D03*
X0660904Y0530500D03*
X0660904Y0520500D03*
X0667596Y0520500D03*
X0564096Y0527500D03*
X0557404Y0527500D03*
X0550096Y0527500D03*
X0543404Y0527500D03*
X0543404Y0507500D03*
X0550096Y0507500D03*
X0557404Y0507500D03*
X0564096Y0507500D03*
X0440096Y0560000D03*
X0433404Y0560000D03*
X0433404Y0568000D03*
X0440096Y0568000D03*
X0440096Y0575000D03*
X0433404Y0575000D03*
X0433404Y0590000D03*
X0440096Y0590000D03*
X0440096Y0605500D03*
X0433404Y0605500D03*
X0390096Y0605000D03*
X0383404Y0605000D03*
X0383404Y0612500D03*
X0390096Y0612500D03*
X0390096Y0632500D03*
X0383404Y0632500D03*
X0370096Y0582500D03*
X0363404Y0582500D03*
X0340096Y0570000D03*
X0333404Y0570000D03*
X0363404Y0561500D03*
X0363404Y0555500D03*
X0370096Y0555500D03*
X0370096Y0561500D03*
X0403404Y0532500D03*
X0410096Y0532500D03*
X0382596Y0530500D03*
X0375904Y0530500D03*
X0375904Y0520500D03*
X0382596Y0520500D03*
X0279096Y0527500D03*
X0272404Y0527500D03*
X0265096Y0527500D03*
X0258404Y0527500D03*
X0258404Y0507500D03*
X0265096Y0507500D03*
X0272404Y0507500D03*
X0279096Y0507500D03*
X0155096Y0560000D03*
X0148404Y0560000D03*
X0148404Y0568000D03*
X0155096Y0568000D03*
X0155096Y0575000D03*
X0148404Y0575000D03*
X0148404Y0590000D03*
X0155096Y0590000D03*
X0155096Y0605500D03*
X0148404Y0605500D03*
X0105096Y0605000D03*
X0098404Y0605000D03*
X0098404Y0612500D03*
X0105096Y0612500D03*
X0105096Y0632500D03*
X0098404Y0632500D03*
X0085096Y0582500D03*
X0078404Y0582500D03*
X0055096Y0570000D03*
X0048404Y0570000D03*
X0078404Y0561500D03*
X0078404Y0555500D03*
X0085096Y0555500D03*
X0085096Y0561500D03*
X0118404Y0532500D03*
X0125096Y0532500D03*
X0097596Y0530500D03*
X0090904Y0530500D03*
X0090904Y0520500D03*
X0097596Y0520500D03*
X0268404Y0585500D03*
X0275096Y0585500D03*
X0553404Y0585500D03*
X0560096Y0585500D03*
X0838404Y0585500D03*
X0845096Y0585500D03*
X1123404Y0585500D03*
X1130096Y0585500D03*
X1238404Y0420500D03*
X1245096Y0420500D03*
X1245096Y0400500D03*
X1238404Y0400500D03*
X1238404Y0393000D03*
X1245096Y0393000D03*
X1288404Y0393500D03*
X1295096Y0393500D03*
X1295096Y0378000D03*
X1288404Y0378000D03*
X1288404Y0363000D03*
X1295096Y0363000D03*
X1295096Y0356000D03*
X1288404Y0356000D03*
X1288404Y0348000D03*
X1295096Y0348000D03*
X1265096Y0320500D03*
X1258404Y0320500D03*
X1237596Y0318500D03*
X1230904Y0318500D03*
X1230904Y0308500D03*
X1237596Y0308500D03*
X1225096Y0343500D03*
X1225096Y0349500D03*
X1218404Y0349500D03*
X1218404Y0343500D03*
X1195096Y0358000D03*
X1188404Y0358000D03*
X1218404Y0370500D03*
X1225096Y0370500D03*
X1130096Y0373500D03*
X1123404Y0373500D03*
X1010096Y0378000D03*
X1003404Y0378000D03*
X1003404Y0363000D03*
X1010096Y0363000D03*
X1010096Y0356000D03*
X1003404Y0356000D03*
X1003404Y0348000D03*
X1010096Y0348000D03*
X0980096Y0320500D03*
X0973404Y0320500D03*
X0952596Y0318500D03*
X0945904Y0318500D03*
X0945904Y0308500D03*
X0952596Y0308500D03*
X0940096Y0343500D03*
X0940096Y0349500D03*
X0933404Y0349500D03*
X0933404Y0343500D03*
X0910096Y0358000D03*
X0903404Y0358000D03*
X0933404Y0370500D03*
X0940096Y0370500D03*
X0953404Y0393000D03*
X0960096Y0393000D03*
X0960096Y0400500D03*
X0953404Y0400500D03*
X0953404Y0420500D03*
X0960096Y0420500D03*
X1003404Y0393500D03*
X1010096Y0393500D03*
X1113404Y0315500D03*
X1120096Y0315500D03*
X1127404Y0315500D03*
X1134096Y0315500D03*
X1134096Y0295500D03*
X1127404Y0295500D03*
X1120096Y0295500D03*
X1113404Y0295500D03*
X1238404Y0208500D03*
X1245096Y0208500D03*
X1245096Y0188500D03*
X1238404Y0188500D03*
X1238404Y0181000D03*
X1245096Y0181000D03*
X1288404Y0181500D03*
X1295096Y0181500D03*
X1295096Y0166000D03*
X1288404Y0166000D03*
X1288404Y0151000D03*
X1295096Y0151000D03*
X1295096Y0144000D03*
X1288404Y0144000D03*
X1288404Y0136000D03*
X1295096Y0136000D03*
X1265096Y0108500D03*
X1258404Y0108500D03*
X1237596Y0106500D03*
X1230904Y0106500D03*
X1230904Y0096500D03*
X1237596Y0096500D03*
X1225096Y0131500D03*
X1225096Y0137500D03*
X1218404Y0137500D03*
X1218404Y0131500D03*
X1195096Y0146000D03*
X1188404Y0146000D03*
X1218404Y0158500D03*
X1225096Y0158500D03*
X1130096Y0161500D03*
X1123404Y0161500D03*
X1010096Y0166000D03*
X1003404Y0166000D03*
X1003404Y0181500D03*
X1010096Y0181500D03*
X0960096Y0181000D03*
X0953404Y0181000D03*
X0953404Y0188500D03*
X0960096Y0188500D03*
X0960096Y0208500D03*
X0953404Y0208500D03*
X0845096Y0161500D03*
X0838404Y0161500D03*
X0903404Y0146000D03*
X0910096Y0146000D03*
X0933404Y0137500D03*
X0933404Y0131500D03*
X0940096Y0131500D03*
X0940096Y0137500D03*
X0940096Y0158500D03*
X0933404Y0158500D03*
X1003404Y0151000D03*
X1010096Y0151000D03*
X1010096Y0144000D03*
X1003404Y0144000D03*
X1003404Y0136000D03*
X1010096Y0136000D03*
X0980096Y0108500D03*
X0973404Y0108500D03*
X0952596Y0106500D03*
X0945904Y0106500D03*
X0945904Y0096500D03*
X0952596Y0096500D03*
X0849096Y0103500D03*
X0842404Y0103500D03*
X0835096Y0103500D03*
X0828404Y0103500D03*
X0828404Y0083500D03*
X0835096Y0083500D03*
X0842404Y0083500D03*
X0849096Y0083500D03*
X0725096Y0136000D03*
X0718404Y0136000D03*
X0718404Y0144000D03*
X0725096Y0144000D03*
X0725096Y0151000D03*
X0718404Y0151000D03*
X0718404Y0166000D03*
X0725096Y0166000D03*
X0725096Y0181500D03*
X0718404Y0181500D03*
X0675096Y0181000D03*
X0668404Y0181000D03*
X0668404Y0188500D03*
X0675096Y0188500D03*
X0675096Y0208500D03*
X0668404Y0208500D03*
X0560096Y0161500D03*
X0553404Y0161500D03*
X0618404Y0146000D03*
X0625096Y0146000D03*
X0648404Y0137500D03*
X0648404Y0131500D03*
X0655096Y0131500D03*
X0655096Y0137500D03*
X0655096Y0158500D03*
X0648404Y0158500D03*
X0660904Y0106500D03*
X0667596Y0106500D03*
X0688404Y0108500D03*
X0695096Y0108500D03*
X0667596Y0096500D03*
X0660904Y0096500D03*
X0564096Y0103500D03*
X0557404Y0103500D03*
X0550096Y0103500D03*
X0543404Y0103500D03*
X0543404Y0083500D03*
X0550096Y0083500D03*
X0557404Y0083500D03*
X0564096Y0083500D03*
X0440096Y0136000D03*
X0433404Y0136000D03*
X0433404Y0144000D03*
X0440096Y0144000D03*
X0440096Y0151000D03*
X0433404Y0151000D03*
X0433404Y0166000D03*
X0440096Y0166000D03*
X0440096Y0181500D03*
X0433404Y0181500D03*
X0390096Y0181000D03*
X0383404Y0181000D03*
X0383404Y0188500D03*
X0390096Y0188500D03*
X0390096Y0208500D03*
X0383404Y0208500D03*
X0275096Y0161500D03*
X0268404Y0161500D03*
X0333404Y0146000D03*
X0340096Y0146000D03*
X0363404Y0137500D03*
X0363404Y0131500D03*
X0370096Y0131500D03*
X0370096Y0137500D03*
X0370096Y0158500D03*
X0363404Y0158500D03*
X0375904Y0106500D03*
X0382596Y0106500D03*
X0403404Y0108500D03*
X0410096Y0108500D03*
X0382596Y0096500D03*
X0375904Y0096500D03*
X0279096Y0103500D03*
X0272404Y0103500D03*
X0265096Y0103500D03*
X0258404Y0103500D03*
X0258404Y0083500D03*
X0265096Y0083500D03*
X0272404Y0083500D03*
X0279096Y0083500D03*
X0155096Y0136000D03*
X0148404Y0136000D03*
X0148404Y0144000D03*
X0155096Y0144000D03*
X0155096Y0151000D03*
X0148404Y0151000D03*
X0148404Y0166000D03*
X0155096Y0166000D03*
X0155096Y0181500D03*
X0148404Y0181500D03*
X0105096Y0181000D03*
X0098404Y0181000D03*
X0098404Y0188500D03*
X0105096Y0188500D03*
X0105096Y0208500D03*
X0098404Y0208500D03*
X0085096Y0158500D03*
X0078404Y0158500D03*
X0055096Y0146000D03*
X0048404Y0146000D03*
X0078404Y0137500D03*
X0078404Y0131500D03*
X0085096Y0131500D03*
X0085096Y0137500D03*
X0090904Y0106500D03*
X0097596Y0106500D03*
X0118404Y0108500D03*
X0125096Y0108500D03*
X0097596Y0096500D03*
X0090904Y0096500D03*
X0258404Y0295500D03*
X0265096Y0295500D03*
X0272404Y0295500D03*
X0279096Y0295500D03*
X0279096Y0315500D03*
X0272404Y0315500D03*
X0265096Y0315500D03*
X0258404Y0315500D03*
X0333404Y0358000D03*
X0340096Y0358000D03*
X0363404Y0349500D03*
X0363404Y0343500D03*
X0370096Y0343500D03*
X0370096Y0349500D03*
X0370096Y0370500D03*
X0363404Y0370500D03*
X0383404Y0393000D03*
X0390096Y0393000D03*
X0390096Y0400500D03*
X0383404Y0400500D03*
X0383404Y0420500D03*
X0390096Y0420500D03*
X0433404Y0393500D03*
X0440096Y0393500D03*
X0440096Y0378000D03*
X0433404Y0378000D03*
X0433404Y0363000D03*
X0440096Y0363000D03*
X0440096Y0356000D03*
X0433404Y0356000D03*
X0433404Y0348000D03*
X0440096Y0348000D03*
X0410096Y0320500D03*
X0403404Y0320500D03*
X0382596Y0318500D03*
X0375904Y0318500D03*
X0375904Y0308500D03*
X0382596Y0308500D03*
X0275096Y0373500D03*
X0268404Y0373500D03*
X0155096Y0378000D03*
X0148404Y0378000D03*
X0148404Y0363000D03*
X0155096Y0363000D03*
X0155096Y0356000D03*
X0148404Y0356000D03*
X0148404Y0348000D03*
X0155096Y0348000D03*
X0125096Y0320500D03*
X0118404Y0320500D03*
X0097596Y0318500D03*
X0090904Y0318500D03*
X0090904Y0308500D03*
X0097596Y0308500D03*
X0085096Y0343500D03*
X0085096Y0349500D03*
X0078404Y0349500D03*
X0078404Y0343500D03*
X0055096Y0358000D03*
X0048404Y0358000D03*
X0078404Y0370500D03*
X0085096Y0370500D03*
X0098404Y0393000D03*
X0105096Y0393000D03*
X0105096Y0400500D03*
X0098404Y0400500D03*
X0098404Y0420500D03*
X0105096Y0420500D03*
X0148404Y0393500D03*
X0155096Y0393500D03*
X0543404Y0315500D03*
X0550096Y0315500D03*
X0557404Y0315500D03*
X0564096Y0315500D03*
X0564096Y0295500D03*
X0557404Y0295500D03*
X0550096Y0295500D03*
X0543404Y0295500D03*
X0648404Y0343500D03*
X0648404Y0349500D03*
X0655096Y0349500D03*
X0655096Y0343500D03*
X0625096Y0358000D03*
X0618404Y0358000D03*
X0648404Y0370500D03*
X0655096Y0370500D03*
X0668404Y0393000D03*
X0675096Y0393000D03*
X0675096Y0400500D03*
X0668404Y0400500D03*
X0668404Y0420500D03*
X0675096Y0420500D03*
X0718404Y0393500D03*
X0725096Y0393500D03*
X0725096Y0378000D03*
X0718404Y0378000D03*
X0718404Y0363000D03*
X0725096Y0363000D03*
X0725096Y0356000D03*
X0718404Y0356000D03*
X0718404Y0348000D03*
X0725096Y0348000D03*
X0695096Y0320500D03*
X0688404Y0320500D03*
X0667596Y0318500D03*
X0660904Y0318500D03*
X0660904Y0308500D03*
X0667596Y0308500D03*
X0560096Y0373500D03*
X0553404Y0373500D03*
X0828404Y0315500D03*
X0835096Y0315500D03*
X0842404Y0315500D03*
X0849096Y0315500D03*
X0849096Y0295500D03*
X0842404Y0295500D03*
X0835096Y0295500D03*
X0828404Y0295500D03*
X0838404Y0373500D03*
X0845096Y0373500D03*
X1398404Y0315500D03*
X1405096Y0315500D03*
X1412404Y0315500D03*
X1419096Y0315500D03*
X1419096Y0295500D03*
X1412404Y0295500D03*
X1405096Y0295500D03*
X1398404Y0295500D03*
X1408404Y0373500D03*
X1415096Y0373500D03*
X1415096Y0161500D03*
X1408404Y0161500D03*
X1405096Y0103500D03*
X1398404Y0103500D03*
X1412404Y0103500D03*
X1419096Y0103500D03*
X1419096Y0083500D03*
X1412404Y0083500D03*
X1405096Y0083500D03*
X1398404Y0083500D03*
X1134096Y0083500D03*
X1127404Y0083500D03*
X1120096Y0083500D03*
X1113404Y0083500D03*
X1113404Y0103500D03*
X1120096Y0103500D03*
X1127404Y0103500D03*
X1134096Y0103500D03*
D12*
X1218238Y0146000D03*
X1229262Y0146000D03*
X1256238Y0116500D03*
X1267262Y0116500D03*
X1267262Y0081500D03*
X1256238Y0081500D03*
X0982262Y0081500D03*
X0971238Y0081500D03*
X0971238Y0116500D03*
X0982262Y0116500D03*
X0944262Y0146000D03*
X0933238Y0146000D03*
X0697262Y0116500D03*
X0686238Y0116500D03*
X0686238Y0081500D03*
X0697262Y0081500D03*
X0659262Y0146000D03*
X0648238Y0146000D03*
X0412262Y0116500D03*
X0401238Y0116500D03*
X0401238Y0081500D03*
X0412262Y0081500D03*
X0374262Y0146000D03*
X0363238Y0146000D03*
X0127262Y0116500D03*
X0116238Y0116500D03*
X0116238Y0081500D03*
X0127262Y0081500D03*
X0089262Y0146000D03*
X0078238Y0146000D03*
X0116238Y0293500D03*
X0127262Y0293500D03*
X0127262Y0328500D03*
X0116238Y0328500D03*
X0089262Y0358000D03*
X0078238Y0358000D03*
X0363238Y0358000D03*
X0374262Y0358000D03*
X0401238Y0328500D03*
X0412262Y0328500D03*
X0412262Y0293500D03*
X0401238Y0293500D03*
X0648238Y0358000D03*
X0659262Y0358000D03*
X0686238Y0328500D03*
X0697262Y0328500D03*
X0697262Y0293500D03*
X0686238Y0293500D03*
X0933238Y0358000D03*
X0944262Y0358000D03*
X0971238Y0328500D03*
X0982262Y0328500D03*
X0982262Y0293500D03*
X0971238Y0293500D03*
X1218238Y0358000D03*
X1229262Y0358000D03*
X1256238Y0328500D03*
X1267262Y0328500D03*
X1267262Y0293500D03*
X1256238Y0293500D03*
X1256238Y0505500D03*
X1267262Y0505500D03*
X1267262Y0540500D03*
X1256238Y0540500D03*
X1229262Y0570000D03*
X1218238Y0570000D03*
X0982262Y0540500D03*
X0971238Y0540500D03*
X0944262Y0570000D03*
X0933238Y0570000D03*
X0971238Y0505500D03*
X0982262Y0505500D03*
X0697262Y0505500D03*
X0686238Y0505500D03*
X0686238Y0540500D03*
X0697262Y0540500D03*
X0659262Y0570000D03*
X0648238Y0570000D03*
X0412262Y0540500D03*
X0401238Y0540500D03*
X0374262Y0570000D03*
X0363238Y0570000D03*
X0401238Y0505500D03*
X0412262Y0505500D03*
X0127262Y0505500D03*
X0116238Y0505500D03*
X0116238Y0540500D03*
X0127262Y0540500D03*
X0089262Y0570000D03*
X0078238Y0570000D03*
D13*
X0126750Y0484949D03*
X0126750Y0466051D03*
X0411750Y0466051D03*
X0411750Y0484949D03*
X0696750Y0484949D03*
X0696750Y0466051D03*
X0981750Y0466051D03*
X0981750Y0484949D03*
X1266750Y0484949D03*
X1266750Y0466051D03*
X1266750Y0272949D03*
X1266750Y0254051D03*
X0981750Y0254051D03*
X0981750Y0272949D03*
X0696750Y0272949D03*
X0696750Y0254051D03*
X0411750Y0254051D03*
X0411750Y0272949D03*
X0126750Y0272949D03*
X0126750Y0254051D03*
X0126750Y0060949D03*
X0126750Y0042051D03*
X0411750Y0042051D03*
X0411750Y0060949D03*
X0696750Y0060949D03*
X0696750Y0042051D03*
X0981750Y0042051D03*
X0981750Y0060949D03*
X1266750Y0060949D03*
X1266750Y0042051D03*
D14*
X1202813Y0130760D03*
X1211081Y0134500D03*
X1202813Y0138240D03*
X0926081Y0134500D03*
X0917813Y0130760D03*
X0917813Y0138240D03*
X0641081Y0134500D03*
X0632813Y0130760D03*
X0632813Y0138240D03*
X0356081Y0134500D03*
X0347813Y0130760D03*
X0347813Y0138240D03*
X0071081Y0134500D03*
X0062813Y0130760D03*
X0062813Y0138240D03*
X0062813Y0342760D03*
X0062813Y0350240D03*
X0071081Y0346500D03*
X0347813Y0342760D03*
X0347813Y0350240D03*
X0356081Y0346500D03*
X0632813Y0342760D03*
X0632813Y0350240D03*
X0641081Y0346500D03*
X0917813Y0342760D03*
X0917813Y0350240D03*
X0926081Y0346500D03*
X1202813Y0342760D03*
X1202813Y0350240D03*
X1211081Y0346500D03*
X1202813Y0554760D03*
X1202813Y0562240D03*
X1211081Y0558500D03*
X0926081Y0558500D03*
X0917813Y0554760D03*
X0917813Y0562240D03*
X0641081Y0558500D03*
X0632813Y0554760D03*
X0632813Y0562240D03*
X0356081Y0558500D03*
X0347813Y0554760D03*
X0347813Y0562240D03*
X0071081Y0558500D03*
X0062813Y0562240D03*
X0062813Y0554760D03*
D15*
X0083640Y0546510D03*
X0083640Y0537500D03*
X0083640Y0528560D03*
X0368640Y0528560D03*
X0368640Y0537500D03*
X0368640Y0546510D03*
X0653640Y0546510D03*
X0653640Y0537500D03*
X0653640Y0528560D03*
X0938640Y0528560D03*
X0938640Y0537500D03*
X0938640Y0546510D03*
X1223640Y0546510D03*
X1223640Y0537500D03*
X1223640Y0528560D03*
X1223640Y0334510D03*
X1223640Y0325500D03*
X1223640Y0316560D03*
X0938640Y0316560D03*
X0938640Y0325500D03*
X0938640Y0334510D03*
X0653640Y0334510D03*
X0653640Y0325500D03*
X0653640Y0316560D03*
X0368640Y0316560D03*
X0368640Y0325500D03*
X0368640Y0334510D03*
X0083640Y0334510D03*
X0083640Y0325500D03*
X0083640Y0316560D03*
X0083640Y0122510D03*
X0083640Y0113500D03*
X0083640Y0104560D03*
X0368640Y0104560D03*
X0368640Y0113500D03*
X0368640Y0122510D03*
X0653640Y0122510D03*
X0653640Y0113500D03*
X0653640Y0104560D03*
X0938640Y0104560D03*
X0938640Y0113500D03*
X0938640Y0122510D03*
X1223640Y0122510D03*
X1223640Y0113500D03*
X1223640Y0104560D03*
D16*
X1200250Y0113500D03*
X0915250Y0113500D03*
X0630250Y0113500D03*
X0345250Y0113500D03*
X0060250Y0113500D03*
X0060250Y0325500D03*
X0345250Y0325500D03*
X0630250Y0325500D03*
X0915250Y0325500D03*
X1200250Y0325500D03*
X1200250Y0537500D03*
X0915250Y0537500D03*
X0630250Y0537500D03*
X0345250Y0537500D03*
X0060250Y0537500D03*
D17*
X0096750Y0462500D03*
X0101750Y0440500D03*
X0301750Y0482500D03*
X0381750Y0462500D03*
X0386750Y0440500D03*
X0301750Y0380500D03*
X0301750Y0270500D03*
X0381750Y0250500D03*
X0386750Y0228500D03*
X0301750Y0168500D03*
X0101750Y0228500D03*
X0096750Y0250500D03*
X0301750Y0058500D03*
X0381750Y0038500D03*
X0586750Y0058500D03*
X0666750Y0038500D03*
X0871750Y0058500D03*
X0951750Y0038500D03*
X1156750Y0058500D03*
X1236750Y0038500D03*
X1441750Y0058500D03*
X1441750Y0168500D03*
X1241750Y0228500D03*
X1236750Y0250500D03*
X1156750Y0270500D03*
X0956750Y0228500D03*
X0951750Y0250500D03*
X0871750Y0270500D03*
X0671750Y0228500D03*
X0666750Y0250500D03*
X0586750Y0270500D03*
X0586750Y0168500D03*
X0871750Y0168500D03*
X1156750Y0168500D03*
X1441750Y0270500D03*
X1441750Y0380500D03*
X1241750Y0440500D03*
X1236750Y0462500D03*
X1156750Y0482500D03*
X0956750Y0440500D03*
X0951750Y0462500D03*
X0871750Y0482500D03*
X0671750Y0440500D03*
X0666750Y0462500D03*
X0586750Y0482500D03*
X0586750Y0380500D03*
X0871750Y0380500D03*
X1156750Y0380500D03*
X1441750Y0482500D03*
X1441750Y0592500D03*
X1241750Y0652500D03*
X1156750Y0592500D03*
X0956750Y0652500D03*
X0871750Y0592500D03*
X0671750Y0652500D03*
X0586750Y0592500D03*
X0386750Y0652500D03*
X0301750Y0592500D03*
X0101750Y0652500D03*
X0096750Y0038500D03*
D18*
X0301750Y0073500D03*
X0586750Y0073500D03*
X0871750Y0073500D03*
X1156750Y0073500D03*
X1441750Y0073500D03*
X1226750Y0233500D03*
X1156750Y0285500D03*
X0941750Y0233500D03*
X0871750Y0285500D03*
X0656750Y0233500D03*
X0586750Y0285500D03*
X0371750Y0233500D03*
X0301750Y0285500D03*
X0086750Y0233500D03*
X0086750Y0445500D03*
X0301750Y0497500D03*
X0371750Y0445500D03*
X0586750Y0497500D03*
X0656750Y0445500D03*
X0871750Y0497500D03*
X0941750Y0445500D03*
X1156750Y0497500D03*
X1226750Y0445500D03*
X1441750Y0497500D03*
X1226750Y0657500D03*
X1411750Y0670750D03*
X0941750Y0657500D03*
X0656750Y0657500D03*
X0371750Y0657500D03*
X0086750Y0657500D03*
X0081750Y0670750D03*
X1441750Y0285500D03*
D19*
X1431750Y0256996D03*
X1421750Y0256996D03*
X1411750Y0256996D03*
X1401750Y0256996D03*
X1391750Y0256996D03*
X1381750Y0256996D03*
X1361750Y0256996D03*
X1351750Y0256996D03*
X1341750Y0256996D03*
X1331750Y0256996D03*
X1321750Y0256996D03*
X1311750Y0256996D03*
X1301750Y0256996D03*
X1291750Y0256996D03*
X1291750Y0244004D03*
X1295750Y0234996D03*
X1285750Y0234996D03*
X1275750Y0234996D03*
X1265750Y0234996D03*
X1255750Y0234996D03*
X1255750Y0222004D03*
X1265750Y0222004D03*
X1275750Y0222004D03*
X1285750Y0222004D03*
X1295750Y0222004D03*
X1305750Y0222004D03*
X1315750Y0222004D03*
X1325750Y0222004D03*
X1335750Y0222004D03*
X1345750Y0222004D03*
X1361750Y0222004D03*
X1371750Y0222004D03*
X1381750Y0222004D03*
X1391750Y0222004D03*
X1401750Y0222004D03*
X1411750Y0222004D03*
X1421750Y0222004D03*
X1431750Y0222004D03*
X1431750Y0234996D03*
X1431750Y0244004D03*
X1421750Y0244004D03*
X1421750Y0234996D03*
X1411750Y0234996D03*
X1411750Y0244004D03*
X1401750Y0244004D03*
X1401750Y0234996D03*
X1391750Y0234996D03*
X1391750Y0244004D03*
X1381750Y0244004D03*
X1381750Y0234996D03*
X1371750Y0234996D03*
X1361750Y0234996D03*
X1361750Y0244004D03*
X1351750Y0244004D03*
X1341750Y0244004D03*
X1345750Y0234996D03*
X1335750Y0234996D03*
X1331750Y0244004D03*
X1321750Y0244004D03*
X1325750Y0234996D03*
X1315750Y0234996D03*
X1311750Y0244004D03*
X1301750Y0244004D03*
X1305750Y0234996D03*
X1146750Y0234996D03*
X1146750Y0244004D03*
X1136750Y0244004D03*
X1136750Y0234996D03*
X1126750Y0234996D03*
X1126750Y0244004D03*
X1116750Y0244004D03*
X1116750Y0234996D03*
X1106750Y0234996D03*
X1106750Y0244004D03*
X1096750Y0244004D03*
X1096750Y0234996D03*
X1086750Y0234996D03*
X1076750Y0234996D03*
X1076750Y0244004D03*
X1066750Y0244004D03*
X1056750Y0244004D03*
X1060750Y0234996D03*
X1050750Y0234996D03*
X1046750Y0244004D03*
X1036750Y0244004D03*
X1040750Y0234996D03*
X1030750Y0234996D03*
X1026750Y0244004D03*
X1016750Y0244004D03*
X1020750Y0234996D03*
X1010750Y0234996D03*
X1006750Y0244004D03*
X1000750Y0234996D03*
X0990750Y0234996D03*
X0980750Y0234996D03*
X0970750Y0234996D03*
X0970750Y0222004D03*
X0980750Y0222004D03*
X0990750Y0222004D03*
X1000750Y0222004D03*
X1010750Y0222004D03*
X1020750Y0222004D03*
X1030750Y0222004D03*
X1040750Y0222004D03*
X1050750Y0222004D03*
X1060750Y0222004D03*
X1076750Y0222004D03*
X1086750Y0222004D03*
X1096750Y0222004D03*
X1106750Y0222004D03*
X1116750Y0222004D03*
X1126750Y0222004D03*
X1136750Y0222004D03*
X1146750Y0222004D03*
X1146750Y0256996D03*
X1136750Y0256996D03*
X1126750Y0256996D03*
X1116750Y0256996D03*
X1106750Y0256996D03*
X1096750Y0256996D03*
X1076750Y0256996D03*
X1066750Y0256996D03*
X1056750Y0256996D03*
X1046750Y0256996D03*
X1036750Y0256996D03*
X1026750Y0256996D03*
X1016750Y0256996D03*
X1006750Y0256996D03*
X0861750Y0256996D03*
X0851750Y0256996D03*
X0841750Y0256996D03*
X0831750Y0256996D03*
X0821750Y0256996D03*
X0811750Y0256996D03*
X0791750Y0256996D03*
X0781750Y0256996D03*
X0771750Y0256996D03*
X0761750Y0256996D03*
X0751750Y0256996D03*
X0741750Y0256996D03*
X0731750Y0256996D03*
X0721750Y0256996D03*
X0721750Y0244004D03*
X0725750Y0234996D03*
X0735750Y0234996D03*
X0731750Y0244004D03*
X0741750Y0244004D03*
X0745750Y0234996D03*
X0755750Y0234996D03*
X0751750Y0244004D03*
X0761750Y0244004D03*
X0765750Y0234996D03*
X0775750Y0234996D03*
X0771750Y0244004D03*
X0781750Y0244004D03*
X0791750Y0244004D03*
X0791750Y0234996D03*
X0801750Y0234996D03*
X0811750Y0234996D03*
X0811750Y0244004D03*
X0821750Y0244004D03*
X0821750Y0234996D03*
X0831750Y0234996D03*
X0831750Y0244004D03*
X0841750Y0244004D03*
X0841750Y0234996D03*
X0851750Y0234996D03*
X0851750Y0244004D03*
X0861750Y0244004D03*
X0861750Y0234996D03*
X0861750Y0222004D03*
X0851750Y0222004D03*
X0841750Y0222004D03*
X0831750Y0222004D03*
X0821750Y0222004D03*
X0811750Y0222004D03*
X0801750Y0222004D03*
X0791750Y0222004D03*
X0775750Y0222004D03*
X0765750Y0222004D03*
X0755750Y0222004D03*
X0745750Y0222004D03*
X0735750Y0222004D03*
X0725750Y0222004D03*
X0715750Y0222004D03*
X0705750Y0222004D03*
X0695750Y0222004D03*
X0685750Y0222004D03*
X0685750Y0234996D03*
X0695750Y0234996D03*
X0705750Y0234996D03*
X0715750Y0234996D03*
X0576750Y0234996D03*
X0576750Y0244004D03*
X0566750Y0244004D03*
X0566750Y0234996D03*
X0556750Y0234996D03*
X0556750Y0244004D03*
X0546750Y0244004D03*
X0546750Y0234996D03*
X0536750Y0234996D03*
X0536750Y0244004D03*
X0526750Y0244004D03*
X0526750Y0234996D03*
X0516750Y0234996D03*
X0506750Y0234996D03*
X0506750Y0244004D03*
X0496750Y0244004D03*
X0486750Y0244004D03*
X0490750Y0234996D03*
X0480750Y0234996D03*
X0476750Y0244004D03*
X0466750Y0244004D03*
X0470750Y0234996D03*
X0460750Y0234996D03*
X0456750Y0244004D03*
X0446750Y0244004D03*
X0450750Y0234996D03*
X0440750Y0234996D03*
X0436750Y0244004D03*
X0430750Y0234996D03*
X0420750Y0234996D03*
X0410750Y0234996D03*
X0400750Y0234996D03*
X0400750Y0222004D03*
X0410750Y0222004D03*
X0420750Y0222004D03*
X0430750Y0222004D03*
X0440750Y0222004D03*
X0450750Y0222004D03*
X0460750Y0222004D03*
X0470750Y0222004D03*
X0480750Y0222004D03*
X0490750Y0222004D03*
X0506750Y0222004D03*
X0516750Y0222004D03*
X0526750Y0222004D03*
X0536750Y0222004D03*
X0546750Y0222004D03*
X0556750Y0222004D03*
X0566750Y0222004D03*
X0576750Y0222004D03*
X0576750Y0256996D03*
X0566750Y0256996D03*
X0556750Y0256996D03*
X0546750Y0256996D03*
X0536750Y0256996D03*
X0526750Y0256996D03*
X0506750Y0256996D03*
X0496750Y0256996D03*
X0486750Y0256996D03*
X0476750Y0256996D03*
X0466750Y0256996D03*
X0456750Y0256996D03*
X0446750Y0256996D03*
X0436750Y0256996D03*
X0291750Y0256996D03*
X0281750Y0256996D03*
X0271750Y0256996D03*
X0261750Y0256996D03*
X0251750Y0256996D03*
X0241750Y0256996D03*
X0221750Y0256996D03*
X0211750Y0256996D03*
X0201750Y0256996D03*
X0191750Y0256996D03*
X0181750Y0256996D03*
X0171750Y0256996D03*
X0161750Y0256996D03*
X0151750Y0256996D03*
X0151750Y0244004D03*
X0155750Y0234996D03*
X0145750Y0234996D03*
X0135750Y0234996D03*
X0125750Y0234996D03*
X0115750Y0234996D03*
X0115750Y0222004D03*
X0125750Y0222004D03*
X0135750Y0222004D03*
X0145750Y0222004D03*
X0155750Y0222004D03*
X0165750Y0222004D03*
X0175750Y0222004D03*
X0185750Y0222004D03*
X0195750Y0222004D03*
X0205750Y0222004D03*
X0221750Y0222004D03*
X0231750Y0222004D03*
X0241750Y0222004D03*
X0251750Y0222004D03*
X0261750Y0222004D03*
X0271750Y0222004D03*
X0281750Y0222004D03*
X0291750Y0222004D03*
X0291750Y0234996D03*
X0291750Y0244004D03*
X0281750Y0244004D03*
X0281750Y0234996D03*
X0271750Y0234996D03*
X0271750Y0244004D03*
X0261750Y0244004D03*
X0261750Y0234996D03*
X0251750Y0234996D03*
X0251750Y0244004D03*
X0241750Y0244004D03*
X0241750Y0234996D03*
X0231750Y0234996D03*
X0221750Y0234996D03*
X0221750Y0244004D03*
X0211750Y0244004D03*
X0201750Y0244004D03*
X0205750Y0234996D03*
X0195750Y0234996D03*
X0191750Y0244004D03*
X0181750Y0244004D03*
X0185750Y0234996D03*
X0175750Y0234996D03*
X0171750Y0244004D03*
X0161750Y0244004D03*
X0165750Y0234996D03*
X0161750Y0044996D03*
X0171750Y0044996D03*
X0181750Y0044996D03*
X0191750Y0044996D03*
X0201750Y0044996D03*
X0211750Y0044996D03*
X0221750Y0044996D03*
X0241750Y0044996D03*
X0251750Y0044996D03*
X0261750Y0044996D03*
X0271750Y0044996D03*
X0281750Y0044996D03*
X0291750Y0044996D03*
X0291750Y0032004D03*
X0281750Y0032004D03*
X0271750Y0032004D03*
X0261750Y0032004D03*
X0251750Y0032004D03*
X0241750Y0032004D03*
X0221750Y0032004D03*
X0211750Y0032004D03*
X0201750Y0032004D03*
X0191750Y0032004D03*
X0181750Y0032004D03*
X0171750Y0032004D03*
X0161750Y0032004D03*
X0151750Y0032004D03*
X0151750Y0044996D03*
X0436750Y0044996D03*
X0446750Y0044996D03*
X0456750Y0044996D03*
X0466750Y0044996D03*
X0476750Y0044996D03*
X0486750Y0044996D03*
X0496750Y0044996D03*
X0506750Y0044996D03*
X0526750Y0044996D03*
X0536750Y0044996D03*
X0546750Y0044996D03*
X0556750Y0044996D03*
X0566750Y0044996D03*
X0576750Y0044996D03*
X0576750Y0032004D03*
X0566750Y0032004D03*
X0556750Y0032004D03*
X0546750Y0032004D03*
X0536750Y0032004D03*
X0526750Y0032004D03*
X0506750Y0032004D03*
X0496750Y0032004D03*
X0486750Y0032004D03*
X0476750Y0032004D03*
X0466750Y0032004D03*
X0456750Y0032004D03*
X0446750Y0032004D03*
X0436750Y0032004D03*
X0721750Y0032004D03*
X0731750Y0032004D03*
X0741750Y0032004D03*
X0751750Y0032004D03*
X0761750Y0032004D03*
X0771750Y0032004D03*
X0781750Y0032004D03*
X0791750Y0032004D03*
X0811750Y0032004D03*
X0821750Y0032004D03*
X0831750Y0032004D03*
X0841750Y0032004D03*
X0851750Y0032004D03*
X0861750Y0032004D03*
X0861750Y0044996D03*
X0851750Y0044996D03*
X0841750Y0044996D03*
X0831750Y0044996D03*
X0821750Y0044996D03*
X0811750Y0044996D03*
X0791750Y0044996D03*
X0781750Y0044996D03*
X0771750Y0044996D03*
X0761750Y0044996D03*
X0751750Y0044996D03*
X0741750Y0044996D03*
X0731750Y0044996D03*
X0721750Y0044996D03*
X1006750Y0044996D03*
X1016750Y0044996D03*
X1026750Y0044996D03*
X1036750Y0044996D03*
X1046750Y0044996D03*
X1056750Y0044996D03*
X1066750Y0044996D03*
X1076750Y0044996D03*
X1096750Y0044996D03*
X1106750Y0044996D03*
X1116750Y0044996D03*
X1126750Y0044996D03*
X1136750Y0044996D03*
X1146750Y0044996D03*
X1146750Y0032004D03*
X1136750Y0032004D03*
X1126750Y0032004D03*
X1116750Y0032004D03*
X1106750Y0032004D03*
X1096750Y0032004D03*
X1076750Y0032004D03*
X1066750Y0032004D03*
X1056750Y0032004D03*
X1046750Y0032004D03*
X1036750Y0032004D03*
X1026750Y0032004D03*
X1016750Y0032004D03*
X1006750Y0032004D03*
X1291750Y0032004D03*
X1301750Y0032004D03*
X1311750Y0032004D03*
X1321750Y0032004D03*
X1331750Y0032004D03*
X1341750Y0032004D03*
X1351750Y0032004D03*
X1361750Y0032004D03*
X1381750Y0032004D03*
X1391750Y0032004D03*
X1401750Y0032004D03*
X1411750Y0032004D03*
X1421750Y0032004D03*
X1431750Y0032004D03*
X1431750Y0044996D03*
X1421750Y0044996D03*
X1411750Y0044996D03*
X1401750Y0044996D03*
X1391750Y0044996D03*
X1381750Y0044996D03*
X1361750Y0044996D03*
X1351750Y0044996D03*
X1341750Y0044996D03*
X1331750Y0044996D03*
X1321750Y0044996D03*
X1311750Y0044996D03*
X1301750Y0044996D03*
X1291750Y0044996D03*
X1295750Y0434004D03*
X1285750Y0434004D03*
X1275750Y0434004D03*
X1265750Y0434004D03*
X1255750Y0434004D03*
X1255750Y0446996D03*
X1265750Y0446996D03*
X1275750Y0446996D03*
X1285750Y0446996D03*
X1295750Y0446996D03*
X1291750Y0456004D03*
X1301750Y0456004D03*
X1305750Y0446996D03*
X1315750Y0446996D03*
X1311750Y0456004D03*
X1321750Y0456004D03*
X1325750Y0446996D03*
X1335750Y0446996D03*
X1331750Y0456004D03*
X1341750Y0456004D03*
X1345750Y0446996D03*
X1351750Y0456004D03*
X1361750Y0456004D03*
X1361750Y0446996D03*
X1371750Y0446996D03*
X1381750Y0446996D03*
X1381750Y0456004D03*
X1391750Y0456004D03*
X1391750Y0446996D03*
X1401750Y0446996D03*
X1401750Y0456004D03*
X1411750Y0456004D03*
X1411750Y0446996D03*
X1421750Y0446996D03*
X1421750Y0456004D03*
X1431750Y0456004D03*
X1431750Y0446996D03*
X1431750Y0434004D03*
X1421750Y0434004D03*
X1411750Y0434004D03*
X1401750Y0434004D03*
X1391750Y0434004D03*
X1381750Y0434004D03*
X1371750Y0434004D03*
X1361750Y0434004D03*
X1345750Y0434004D03*
X1335750Y0434004D03*
X1325750Y0434004D03*
X1315750Y0434004D03*
X1305750Y0434004D03*
X1301750Y0468996D03*
X1291750Y0468996D03*
X1311750Y0468996D03*
X1321750Y0468996D03*
X1331750Y0468996D03*
X1341750Y0468996D03*
X1351750Y0468996D03*
X1361750Y0468996D03*
X1381750Y0468996D03*
X1391750Y0468996D03*
X1401750Y0468996D03*
X1411750Y0468996D03*
X1421750Y0468996D03*
X1431750Y0468996D03*
X1146750Y0468996D03*
X1136750Y0468996D03*
X1126750Y0468996D03*
X1116750Y0468996D03*
X1106750Y0468996D03*
X1096750Y0468996D03*
X1076750Y0468996D03*
X1066750Y0468996D03*
X1056750Y0468996D03*
X1046750Y0468996D03*
X1036750Y0468996D03*
X1026750Y0468996D03*
X1016750Y0468996D03*
X1006750Y0468996D03*
X1006750Y0456004D03*
X1010750Y0446996D03*
X1020750Y0446996D03*
X1016750Y0456004D03*
X1026750Y0456004D03*
X1030750Y0446996D03*
X1040750Y0446996D03*
X1036750Y0456004D03*
X1046750Y0456004D03*
X1050750Y0446996D03*
X1060750Y0446996D03*
X1056750Y0456004D03*
X1066750Y0456004D03*
X1076750Y0456004D03*
X1076750Y0446996D03*
X1086750Y0446996D03*
X1096750Y0446996D03*
X1096750Y0456004D03*
X1106750Y0456004D03*
X1106750Y0446996D03*
X1116750Y0446996D03*
X1116750Y0456004D03*
X1126750Y0456004D03*
X1126750Y0446996D03*
X1136750Y0446996D03*
X1136750Y0456004D03*
X1146750Y0456004D03*
X1146750Y0446996D03*
X1146750Y0434004D03*
X1136750Y0434004D03*
X1126750Y0434004D03*
X1116750Y0434004D03*
X1106750Y0434004D03*
X1096750Y0434004D03*
X1086750Y0434004D03*
X1076750Y0434004D03*
X1060750Y0434004D03*
X1050750Y0434004D03*
X1040750Y0434004D03*
X1030750Y0434004D03*
X1020750Y0434004D03*
X1010750Y0434004D03*
X1000750Y0434004D03*
X0990750Y0434004D03*
X0980750Y0434004D03*
X0970750Y0434004D03*
X0970750Y0446996D03*
X0980750Y0446996D03*
X0990750Y0446996D03*
X1000750Y0446996D03*
X0861750Y0446996D03*
X0861750Y0456004D03*
X0851750Y0456004D03*
X0851750Y0446996D03*
X0841750Y0446996D03*
X0841750Y0456004D03*
X0831750Y0456004D03*
X0831750Y0446996D03*
X0821750Y0446996D03*
X0821750Y0456004D03*
X0811750Y0456004D03*
X0811750Y0446996D03*
X0801750Y0446996D03*
X0791750Y0446996D03*
X0791750Y0456004D03*
X0781750Y0456004D03*
X0771750Y0456004D03*
X0775750Y0446996D03*
X0765750Y0446996D03*
X0761750Y0456004D03*
X0751750Y0456004D03*
X0755750Y0446996D03*
X0745750Y0446996D03*
X0741750Y0456004D03*
X0731750Y0456004D03*
X0735750Y0446996D03*
X0725750Y0446996D03*
X0721750Y0456004D03*
X0715750Y0446996D03*
X0705750Y0446996D03*
X0695750Y0446996D03*
X0685750Y0446996D03*
X0685750Y0434004D03*
X0695750Y0434004D03*
X0705750Y0434004D03*
X0715750Y0434004D03*
X0725750Y0434004D03*
X0735750Y0434004D03*
X0745750Y0434004D03*
X0755750Y0434004D03*
X0765750Y0434004D03*
X0775750Y0434004D03*
X0791750Y0434004D03*
X0801750Y0434004D03*
X0811750Y0434004D03*
X0821750Y0434004D03*
X0831750Y0434004D03*
X0841750Y0434004D03*
X0851750Y0434004D03*
X0861750Y0434004D03*
X0861750Y0468996D03*
X0851750Y0468996D03*
X0841750Y0468996D03*
X0831750Y0468996D03*
X0821750Y0468996D03*
X0811750Y0468996D03*
X0791750Y0468996D03*
X0781750Y0468996D03*
X0771750Y0468996D03*
X0761750Y0468996D03*
X0751750Y0468996D03*
X0741750Y0468996D03*
X0731750Y0468996D03*
X0721750Y0468996D03*
X0576750Y0468996D03*
X0566750Y0468996D03*
X0556750Y0468996D03*
X0546750Y0468996D03*
X0536750Y0468996D03*
X0526750Y0468996D03*
X0506750Y0468996D03*
X0496750Y0468996D03*
X0486750Y0468996D03*
X0476750Y0468996D03*
X0466750Y0468996D03*
X0456750Y0468996D03*
X0446750Y0468996D03*
X0436750Y0468996D03*
X0436750Y0456004D03*
X0440750Y0446996D03*
X0450750Y0446996D03*
X0446750Y0456004D03*
X0456750Y0456004D03*
X0460750Y0446996D03*
X0470750Y0446996D03*
X0466750Y0456004D03*
X0476750Y0456004D03*
X0480750Y0446996D03*
X0490750Y0446996D03*
X0486750Y0456004D03*
X0496750Y0456004D03*
X0506750Y0456004D03*
X0506750Y0446996D03*
X0516750Y0446996D03*
X0526750Y0446996D03*
X0526750Y0456004D03*
X0536750Y0456004D03*
X0536750Y0446996D03*
X0546750Y0446996D03*
X0546750Y0456004D03*
X0556750Y0456004D03*
X0556750Y0446996D03*
X0566750Y0446996D03*
X0566750Y0456004D03*
X0576750Y0456004D03*
X0576750Y0446996D03*
X0576750Y0434004D03*
X0566750Y0434004D03*
X0556750Y0434004D03*
X0546750Y0434004D03*
X0536750Y0434004D03*
X0526750Y0434004D03*
X0516750Y0434004D03*
X0506750Y0434004D03*
X0490750Y0434004D03*
X0480750Y0434004D03*
X0470750Y0434004D03*
X0460750Y0434004D03*
X0450750Y0434004D03*
X0440750Y0434004D03*
X0430750Y0434004D03*
X0420750Y0434004D03*
X0410750Y0434004D03*
X0400750Y0434004D03*
X0400750Y0446996D03*
X0410750Y0446996D03*
X0420750Y0446996D03*
X0430750Y0446996D03*
X0291750Y0446996D03*
X0291750Y0456004D03*
X0281750Y0456004D03*
X0281750Y0446996D03*
X0271750Y0446996D03*
X0271750Y0456004D03*
X0261750Y0456004D03*
X0261750Y0446996D03*
X0251750Y0446996D03*
X0251750Y0456004D03*
X0241750Y0456004D03*
X0241750Y0446996D03*
X0231750Y0446996D03*
X0221750Y0446996D03*
X0221750Y0456004D03*
X0211750Y0456004D03*
X0201750Y0456004D03*
X0205750Y0446996D03*
X0195750Y0446996D03*
X0191750Y0456004D03*
X0181750Y0456004D03*
X0185750Y0446996D03*
X0175750Y0446996D03*
X0171750Y0456004D03*
X0161750Y0456004D03*
X0165750Y0446996D03*
X0155750Y0446996D03*
X0151750Y0456004D03*
X0145750Y0446996D03*
X0135750Y0446996D03*
X0125750Y0446996D03*
X0115750Y0446996D03*
X0115750Y0434004D03*
X0125750Y0434004D03*
X0135750Y0434004D03*
X0145750Y0434004D03*
X0155750Y0434004D03*
X0165750Y0434004D03*
X0175750Y0434004D03*
X0185750Y0434004D03*
X0195750Y0434004D03*
X0205750Y0434004D03*
X0221750Y0434004D03*
X0231750Y0434004D03*
X0241750Y0434004D03*
X0251750Y0434004D03*
X0261750Y0434004D03*
X0271750Y0434004D03*
X0281750Y0434004D03*
X0291750Y0434004D03*
X0291750Y0468996D03*
X0281750Y0468996D03*
X0271750Y0468996D03*
X0261750Y0468996D03*
X0251750Y0468996D03*
X0241750Y0468996D03*
X0221750Y0468996D03*
X0211750Y0468996D03*
X0201750Y0468996D03*
X0191750Y0468996D03*
X0181750Y0468996D03*
X0171750Y0468996D03*
X0161750Y0468996D03*
X0151750Y0468996D03*
X0155750Y0646004D03*
X0145750Y0646004D03*
X0135750Y0646004D03*
X0125750Y0646004D03*
X0115750Y0646004D03*
X0115750Y0658996D03*
X0125750Y0658996D03*
X0135750Y0658996D03*
X0145750Y0658996D03*
X0155750Y0658996D03*
X0165750Y0658996D03*
X0175750Y0658996D03*
X0185750Y0658996D03*
X0195750Y0658996D03*
X0205750Y0658996D03*
X0221750Y0658996D03*
X0231750Y0658996D03*
X0241750Y0658996D03*
X0251750Y0658996D03*
X0261750Y0658996D03*
X0271750Y0658996D03*
X0281750Y0658996D03*
X0291750Y0658996D03*
X0291750Y0646004D03*
X0281750Y0646004D03*
X0271750Y0646004D03*
X0261750Y0646004D03*
X0251750Y0646004D03*
X0241750Y0646004D03*
X0231750Y0646004D03*
X0221750Y0646004D03*
X0205750Y0646004D03*
X0195750Y0646004D03*
X0185750Y0646004D03*
X0175750Y0646004D03*
X0165750Y0646004D03*
X0400750Y0646004D03*
X0410750Y0646004D03*
X0420750Y0646004D03*
X0430750Y0646004D03*
X0440750Y0646004D03*
X0450750Y0646004D03*
X0460750Y0646004D03*
X0470750Y0646004D03*
X0480750Y0646004D03*
X0490750Y0646004D03*
X0506750Y0646004D03*
X0516750Y0646004D03*
X0526750Y0646004D03*
X0536750Y0646004D03*
X0546750Y0646004D03*
X0556750Y0646004D03*
X0566750Y0646004D03*
X0576750Y0646004D03*
X0576750Y0658996D03*
X0566750Y0658996D03*
X0556750Y0658996D03*
X0546750Y0658996D03*
X0536750Y0658996D03*
X0526750Y0658996D03*
X0516750Y0658996D03*
X0506750Y0658996D03*
X0490750Y0658996D03*
X0480750Y0658996D03*
X0470750Y0658996D03*
X0460750Y0658996D03*
X0450750Y0658996D03*
X0440750Y0658996D03*
X0430750Y0658996D03*
X0420750Y0658996D03*
X0410750Y0658996D03*
X0400750Y0658996D03*
X0685750Y0658996D03*
X0695750Y0658996D03*
X0705750Y0658996D03*
X0715750Y0658996D03*
X0725750Y0658996D03*
X0735750Y0658996D03*
X0745750Y0658996D03*
X0755750Y0658996D03*
X0765750Y0658996D03*
X0775750Y0658996D03*
X0791750Y0658996D03*
X0801750Y0658996D03*
X0811750Y0658996D03*
X0821750Y0658996D03*
X0831750Y0658996D03*
X0841750Y0658996D03*
X0851750Y0658996D03*
X0861750Y0658996D03*
X0861750Y0646004D03*
X0851750Y0646004D03*
X0841750Y0646004D03*
X0831750Y0646004D03*
X0821750Y0646004D03*
X0811750Y0646004D03*
X0801750Y0646004D03*
X0791750Y0646004D03*
X0775750Y0646004D03*
X0765750Y0646004D03*
X0755750Y0646004D03*
X0745750Y0646004D03*
X0735750Y0646004D03*
X0725750Y0646004D03*
X0715750Y0646004D03*
X0705750Y0646004D03*
X0695750Y0646004D03*
X0685750Y0646004D03*
X0970750Y0646004D03*
X0980750Y0646004D03*
X0990750Y0646004D03*
X1000750Y0646004D03*
X1010750Y0646004D03*
X1020750Y0646004D03*
X1030750Y0646004D03*
X1040750Y0646004D03*
X1050750Y0646004D03*
X1060750Y0646004D03*
X1076750Y0646004D03*
X1086750Y0646004D03*
X1096750Y0646004D03*
X1106750Y0646004D03*
X1116750Y0646004D03*
X1126750Y0646004D03*
X1136750Y0646004D03*
X1146750Y0646004D03*
X1146750Y0658996D03*
X1136750Y0658996D03*
X1126750Y0658996D03*
X1116750Y0658996D03*
X1106750Y0658996D03*
X1096750Y0658996D03*
X1086750Y0658996D03*
X1076750Y0658996D03*
X1060750Y0658996D03*
X1050750Y0658996D03*
X1040750Y0658996D03*
X1030750Y0658996D03*
X1020750Y0658996D03*
X1010750Y0658996D03*
X1000750Y0658996D03*
X0990750Y0658996D03*
X0980750Y0658996D03*
X0970750Y0658996D03*
X1255750Y0658996D03*
X1265750Y0658996D03*
X1275750Y0658996D03*
X1285750Y0658996D03*
X1295750Y0658996D03*
X1305750Y0658996D03*
X1315750Y0658996D03*
X1325750Y0658996D03*
X1335750Y0658996D03*
X1345750Y0658996D03*
X1361750Y0658996D03*
X1371750Y0658996D03*
X1381750Y0658996D03*
X1391750Y0658996D03*
X1401750Y0658996D03*
X1411750Y0658996D03*
X1421750Y0658996D03*
X1431750Y0658996D03*
X1431750Y0646004D03*
X1421750Y0646004D03*
X1411750Y0646004D03*
X1401750Y0646004D03*
X1391750Y0646004D03*
X1381750Y0646004D03*
X1371750Y0646004D03*
X1361750Y0646004D03*
X1345750Y0646004D03*
X1335750Y0646004D03*
X1325750Y0646004D03*
X1315750Y0646004D03*
X1305750Y0646004D03*
X1295750Y0646004D03*
X1285750Y0646004D03*
X1275750Y0646004D03*
X1265750Y0646004D03*
X1255750Y0646004D03*
D20*
X1373886Y0545224D02*
X1379614Y0545224D01*
X1379614Y0540500D02*
X1373886Y0540500D01*
X1373886Y0535776D02*
X1379614Y0535776D01*
X1094614Y0535776D02*
X1088886Y0535776D01*
X1088886Y0540500D02*
X1094614Y0540500D01*
X1094614Y0545224D02*
X1088886Y0545224D01*
X0809614Y0545224D02*
X0803886Y0545224D01*
X0803886Y0540500D02*
X0809614Y0540500D01*
X0809614Y0535776D02*
X0803886Y0535776D01*
X0524614Y0535776D02*
X0518886Y0535776D01*
X0518886Y0540500D02*
X0524614Y0540500D01*
X0524614Y0545224D02*
X0518886Y0545224D01*
X0239614Y0545224D02*
X0233886Y0545224D01*
X0233886Y0540500D02*
X0239614Y0540500D01*
X0239614Y0535776D02*
X0233886Y0535776D01*
X0233886Y0333224D02*
X0239614Y0333224D01*
X0239614Y0328500D02*
X0233886Y0328500D01*
X0233886Y0323776D02*
X0239614Y0323776D01*
X0518886Y0323776D02*
X0524614Y0323776D01*
X0524614Y0328500D02*
X0518886Y0328500D01*
X0518886Y0333224D02*
X0524614Y0333224D01*
X0803886Y0333224D02*
X0809614Y0333224D01*
X0809614Y0328500D02*
X0803886Y0328500D01*
X0803886Y0323776D02*
X0809614Y0323776D01*
X1088886Y0323776D02*
X1094614Y0323776D01*
X1094614Y0328500D02*
X1088886Y0328500D01*
X1088886Y0333224D02*
X1094614Y0333224D01*
X1373886Y0333224D02*
X1379614Y0333224D01*
X1379614Y0328500D02*
X1373886Y0328500D01*
X1373886Y0323776D02*
X1379614Y0323776D01*
X1379614Y0121224D02*
X1373886Y0121224D01*
X1373886Y0116500D02*
X1379614Y0116500D01*
X1379614Y0111776D02*
X1373886Y0111776D01*
X1094614Y0111776D02*
X1088886Y0111776D01*
X1088886Y0116500D02*
X1094614Y0116500D01*
X1094614Y0121224D02*
X1088886Y0121224D01*
X0809614Y0121224D02*
X0803886Y0121224D01*
X0803886Y0116500D02*
X0809614Y0116500D01*
X0809614Y0111776D02*
X0803886Y0111776D01*
X0524614Y0111776D02*
X0518886Y0111776D01*
X0518886Y0116500D02*
X0524614Y0116500D01*
X0524614Y0121224D02*
X0518886Y0121224D01*
X0239614Y0121224D02*
X0233886Y0121224D01*
X0233886Y0116500D02*
X0239614Y0116500D01*
X0239614Y0111776D02*
X0233886Y0111776D01*
D21*
X0236760Y0116490D03*
X0521760Y0116490D03*
X0806760Y0116490D03*
X1091760Y0116490D03*
X1376760Y0116490D03*
X1376760Y0328490D03*
X1091760Y0328490D03*
X0806760Y0328490D03*
X0521760Y0328490D03*
X0236760Y0328490D03*
X0236760Y0540490D03*
X0521760Y0540490D03*
X0806760Y0540490D03*
X1091760Y0540490D03*
X1376760Y0540490D03*
D22*
X1436750Y0557500D03*
X1436750Y0567500D03*
X1151750Y0567500D03*
X1151750Y0557500D03*
X0866750Y0557500D03*
X0866750Y0567500D03*
X0581750Y0567500D03*
X0581750Y0557500D03*
X0296750Y0557500D03*
X0296750Y0567500D03*
X0296750Y0355500D03*
X0296750Y0345500D03*
X0581750Y0345500D03*
X0581750Y0355500D03*
X0866750Y0355500D03*
X0866750Y0345500D03*
X1151750Y0345500D03*
X1151750Y0355500D03*
X1436750Y0355500D03*
X1436750Y0345500D03*
X1436750Y0143500D03*
X1436750Y0133500D03*
X1151750Y0133500D03*
X1151750Y0143500D03*
X0866750Y0143500D03*
X0866750Y0133500D03*
X0581750Y0133500D03*
X0581750Y0143500D03*
X0296750Y0143500D03*
X0296750Y0133500D03*
D23*
X0286750Y0128500D03*
X0306750Y0128500D03*
X0306750Y0138500D03*
X0306750Y0148500D03*
X0286750Y0148500D03*
X0286750Y0138500D03*
X0571750Y0138500D03*
X0571750Y0148500D03*
X0591750Y0148500D03*
X0591750Y0138500D03*
X0591750Y0128500D03*
X0571750Y0128500D03*
X0856750Y0128500D03*
X0876750Y0128500D03*
X0876750Y0138500D03*
X0876750Y0148500D03*
X0856750Y0148500D03*
X0856750Y0138500D03*
X1141750Y0138500D03*
X1141750Y0148500D03*
X1161750Y0148500D03*
X1161750Y0138500D03*
X1161750Y0128500D03*
X1141750Y0128500D03*
X1426750Y0128500D03*
X1426750Y0138500D03*
X1426750Y0148500D03*
X1446750Y0148500D03*
X1446750Y0138500D03*
X1446750Y0128500D03*
X1446750Y0340500D03*
X1446750Y0350500D03*
X1446750Y0360500D03*
X1426750Y0360500D03*
X1426750Y0350500D03*
X1426750Y0340500D03*
X1161750Y0340500D03*
X1161750Y0350500D03*
X1141750Y0350500D03*
X1141750Y0340500D03*
X1141750Y0360500D03*
X1161750Y0360500D03*
X0876750Y0360500D03*
X0856750Y0360500D03*
X0856750Y0350500D03*
X0856750Y0340500D03*
X0876750Y0340500D03*
X0876750Y0350500D03*
X0591750Y0350500D03*
X0591750Y0340500D03*
X0571750Y0340500D03*
X0571750Y0350500D03*
X0571750Y0360500D03*
X0591750Y0360500D03*
X0306750Y0360500D03*
X0286750Y0360500D03*
X0286750Y0350500D03*
X0286750Y0340500D03*
X0306750Y0340500D03*
X0306750Y0350500D03*
X0306750Y0552500D03*
X0286750Y0552500D03*
X0286750Y0562500D03*
X0286750Y0572500D03*
X0306750Y0572500D03*
X0306750Y0562500D03*
X0571750Y0562500D03*
X0571750Y0572500D03*
X0591750Y0572500D03*
X0591750Y0562500D03*
X0591750Y0552500D03*
X0571750Y0552500D03*
X0856750Y0552500D03*
X0876750Y0552500D03*
X0876750Y0562500D03*
X0876750Y0572500D03*
X0856750Y0572500D03*
X0856750Y0562500D03*
X1141750Y0562500D03*
X1141750Y0572500D03*
X1161750Y0572500D03*
X1161750Y0562500D03*
X1161750Y0552500D03*
X1141750Y0552500D03*
X1426750Y0552500D03*
X1426750Y0562500D03*
X1426750Y0572500D03*
X1446750Y0572500D03*
X1446750Y0562500D03*
X1446750Y0552500D03*
D24*
X1417656Y0593000D03*
X1405844Y0593000D03*
X1297656Y0597500D03*
X1285844Y0597500D03*
X1285844Y0582500D03*
X1297656Y0582500D03*
X1297656Y0613000D03*
X1285844Y0613000D03*
X1132656Y0593000D03*
X1120844Y0593000D03*
X1012656Y0597500D03*
X1000844Y0597500D03*
X1000844Y0582500D03*
X1012656Y0582500D03*
X1012656Y0613000D03*
X1000844Y0613000D03*
X0847656Y0593000D03*
X0835844Y0593000D03*
X0727656Y0597500D03*
X0715844Y0597500D03*
X0715844Y0582500D03*
X0727656Y0582500D03*
X0727656Y0613000D03*
X0715844Y0613000D03*
X0562656Y0593000D03*
X0550844Y0593000D03*
X0442656Y0597500D03*
X0430844Y0597500D03*
X0430844Y0582500D03*
X0442656Y0582500D03*
X0442656Y0613000D03*
X0430844Y0613000D03*
X0277656Y0593000D03*
X0265844Y0593000D03*
X0157656Y0597500D03*
X0145844Y0597500D03*
X0145844Y0582500D03*
X0157656Y0582500D03*
X0157656Y0613000D03*
X0145844Y0613000D03*
X0145844Y0401000D03*
X0157656Y0401000D03*
X0157656Y0385500D03*
X0145844Y0385500D03*
X0145844Y0370500D03*
X0157656Y0370500D03*
X0265844Y0381000D03*
X0277656Y0381000D03*
X0430844Y0385500D03*
X0442656Y0385500D03*
X0442656Y0370500D03*
X0430844Y0370500D03*
X0430844Y0401000D03*
X0442656Y0401000D03*
X0550844Y0381000D03*
X0562656Y0381000D03*
X0715844Y0385500D03*
X0727656Y0385500D03*
X0727656Y0370500D03*
X0715844Y0370500D03*
X0715844Y0401000D03*
X0727656Y0401000D03*
X0835844Y0381000D03*
X0847656Y0381000D03*
X1000844Y0385500D03*
X1012656Y0385500D03*
X1012656Y0370500D03*
X1000844Y0370500D03*
X1000844Y0401000D03*
X1012656Y0401000D03*
X1120844Y0381000D03*
X1132656Y0381000D03*
X1285844Y0385500D03*
X1297656Y0385500D03*
X1297656Y0370500D03*
X1285844Y0370500D03*
X1285844Y0401000D03*
X1297656Y0401000D03*
X1405844Y0381000D03*
X1417656Y0381000D03*
X1297656Y0189000D03*
X1285844Y0189000D03*
X1285844Y0173500D03*
X1297656Y0173500D03*
X1297656Y0158500D03*
X1285844Y0158500D03*
X1405844Y0169000D03*
X1417656Y0169000D03*
X1132656Y0169000D03*
X1120844Y0169000D03*
X1012656Y0173500D03*
X1000844Y0173500D03*
X1000844Y0189000D03*
X1012656Y0189000D03*
X1012656Y0158500D03*
X1000844Y0158500D03*
X0847656Y0169000D03*
X0835844Y0169000D03*
X0727656Y0173500D03*
X0715844Y0173500D03*
X0715844Y0189000D03*
X0727656Y0189000D03*
X0727656Y0158500D03*
X0715844Y0158500D03*
X0562656Y0169000D03*
X0550844Y0169000D03*
X0442656Y0173500D03*
X0430844Y0173500D03*
X0430844Y0189000D03*
X0442656Y0189000D03*
X0442656Y0158500D03*
X0430844Y0158500D03*
X0277656Y0169000D03*
X0265844Y0169000D03*
X0157656Y0173500D03*
X0145844Y0173500D03*
X0145844Y0189000D03*
X0157656Y0189000D03*
X0157656Y0158500D03*
X0145844Y0158500D03*
D25*
X0072750Y0216000D03*
X0050750Y0216000D03*
X0050750Y0231000D03*
X0072750Y0231000D03*
X0335750Y0231000D03*
X0357750Y0231000D03*
X0357750Y0216000D03*
X0335750Y0216000D03*
X0620750Y0216000D03*
X0642750Y0216000D03*
X0642750Y0231000D03*
X0620750Y0231000D03*
X0905750Y0231000D03*
X0905750Y0216000D03*
X0927750Y0216000D03*
X0927750Y0231000D03*
X1190750Y0231000D03*
X1190750Y0216000D03*
X1212750Y0216000D03*
X1212750Y0231000D03*
X1212750Y0428000D03*
X1190750Y0428000D03*
X1190750Y0443000D03*
X1212750Y0443000D03*
X0927750Y0443000D03*
X0905750Y0443000D03*
X0905750Y0428000D03*
X0927750Y0428000D03*
X0642750Y0428000D03*
X0620750Y0428000D03*
X0620750Y0443000D03*
X0642750Y0443000D03*
X0357750Y0443000D03*
X0335750Y0443000D03*
X0335750Y0428000D03*
X0357750Y0428000D03*
X0072750Y0428000D03*
X0050750Y0428000D03*
X0050750Y0443000D03*
X0072750Y0443000D03*
X0072750Y0640000D03*
X0050750Y0640000D03*
X0050750Y0655000D03*
X0072750Y0655000D03*
X0335750Y0655000D03*
X0357750Y0655000D03*
X0357750Y0640000D03*
X0335750Y0640000D03*
X0620750Y0640000D03*
X0642750Y0640000D03*
X0642750Y0655000D03*
X0620750Y0655000D03*
X0905750Y0655000D03*
X0905750Y0640000D03*
X0927750Y0640000D03*
X0927750Y0655000D03*
X1190750Y0655000D03*
X1190750Y0640000D03*
X1212750Y0640000D03*
X1212750Y0655000D03*
D26*
X1244750Y0494465D03*
X1244750Y0476535D03*
X0959750Y0476535D03*
X0959750Y0494465D03*
X0674750Y0494465D03*
X0674750Y0476535D03*
X0389750Y0476535D03*
X0389750Y0494465D03*
X0104750Y0494465D03*
X0104750Y0476535D03*
X0104750Y0282465D03*
X0104750Y0264535D03*
X0389750Y0264535D03*
X0389750Y0282465D03*
X0674750Y0282465D03*
X0674750Y0264535D03*
X0959750Y0264535D03*
X0959750Y0282465D03*
X1244750Y0282465D03*
X1244750Y0264535D03*
X1244750Y0070465D03*
X1244750Y0052535D03*
X0959750Y0052535D03*
X0959750Y0070465D03*
X0674750Y0070465D03*
X0674750Y0052535D03*
X0389750Y0052535D03*
X0389750Y0070465D03*
X0104750Y0070465D03*
X0104750Y0052535D03*
D27*
X0070293Y0146000D03*
X0063207Y0146000D03*
X0348207Y0146000D03*
X0355293Y0146000D03*
X0633207Y0146000D03*
X0640293Y0146000D03*
X0918207Y0146000D03*
X0925293Y0146000D03*
X1203207Y0146000D03*
X1210293Y0146000D03*
X1210293Y0358000D03*
X1203207Y0358000D03*
X0925293Y0358000D03*
X0918207Y0358000D03*
X0640293Y0358000D03*
X0633207Y0358000D03*
X0355293Y0358000D03*
X0348207Y0358000D03*
X0070293Y0358000D03*
X0063207Y0358000D03*
X0063207Y0570000D03*
X0070293Y0570000D03*
X0348207Y0570000D03*
X0355293Y0570000D03*
X0633207Y0570000D03*
X0640293Y0570000D03*
X0918207Y0570000D03*
X0925293Y0570000D03*
X1203207Y0570000D03*
X1210293Y0570000D03*
D28*
X0052786Y0036236D02*
X0046714Y0036236D01*
X0046714Y0043882D01*
X0052786Y0043882D01*
X0052786Y0036236D01*
X0052786Y0038837D02*
X0046714Y0038837D01*
X0046714Y0041438D02*
X0052786Y0041438D01*
X0070730Y0036236D02*
X0076802Y0036236D01*
X0070730Y0036236D02*
X0070730Y0043882D01*
X0076802Y0043882D01*
X0076802Y0036236D01*
X0076802Y0038837D02*
X0070730Y0038837D01*
X0070730Y0041438D02*
X0076802Y0041438D01*
X0076802Y0081118D02*
X0070730Y0081118D01*
X0070730Y0088764D01*
X0076802Y0088764D01*
X0076802Y0081118D01*
X0076802Y0083719D02*
X0070730Y0083719D01*
X0070730Y0086320D02*
X0076802Y0086320D01*
X0052786Y0081118D02*
X0046714Y0081118D01*
X0046714Y0088764D01*
X0052786Y0088764D01*
X0052786Y0081118D01*
X0052786Y0083719D02*
X0046714Y0083719D01*
X0046714Y0086320D02*
X0052786Y0086320D01*
X0331714Y0081118D02*
X0337786Y0081118D01*
X0331714Y0081118D02*
X0331714Y0088764D01*
X0337786Y0088764D01*
X0337786Y0081118D01*
X0337786Y0083719D02*
X0331714Y0083719D01*
X0331714Y0086320D02*
X0337786Y0086320D01*
X0355730Y0081118D02*
X0361802Y0081118D01*
X0355730Y0081118D02*
X0355730Y0088764D01*
X0361802Y0088764D01*
X0361802Y0081118D01*
X0361802Y0083719D02*
X0355730Y0083719D01*
X0355730Y0086320D02*
X0361802Y0086320D01*
X0361802Y0036236D02*
X0355730Y0036236D01*
X0355730Y0043882D01*
X0361802Y0043882D01*
X0361802Y0036236D01*
X0361802Y0038837D02*
X0355730Y0038837D01*
X0355730Y0041438D02*
X0361802Y0041438D01*
X0337786Y0036236D02*
X0331714Y0036236D01*
X0331714Y0043882D01*
X0337786Y0043882D01*
X0337786Y0036236D01*
X0337786Y0038837D02*
X0331714Y0038837D01*
X0331714Y0041438D02*
X0337786Y0041438D01*
X0616714Y0036236D02*
X0622786Y0036236D01*
X0616714Y0036236D02*
X0616714Y0043882D01*
X0622786Y0043882D01*
X0622786Y0036236D01*
X0622786Y0038837D02*
X0616714Y0038837D01*
X0616714Y0041438D02*
X0622786Y0041438D01*
X0640730Y0036236D02*
X0646802Y0036236D01*
X0640730Y0036236D02*
X0640730Y0043882D01*
X0646802Y0043882D01*
X0646802Y0036236D01*
X0646802Y0038837D02*
X0640730Y0038837D01*
X0640730Y0041438D02*
X0646802Y0041438D01*
X0646802Y0081118D02*
X0640730Y0081118D01*
X0640730Y0088764D01*
X0646802Y0088764D01*
X0646802Y0081118D01*
X0646802Y0083719D02*
X0640730Y0083719D01*
X0640730Y0086320D02*
X0646802Y0086320D01*
X0622786Y0081118D02*
X0616714Y0081118D01*
X0616714Y0088764D01*
X0622786Y0088764D01*
X0622786Y0081118D01*
X0622786Y0083719D02*
X0616714Y0083719D01*
X0616714Y0086320D02*
X0622786Y0086320D01*
X0901714Y0081118D02*
X0907786Y0081118D01*
X0901714Y0081118D02*
X0901714Y0088764D01*
X0907786Y0088764D01*
X0907786Y0081118D01*
X0907786Y0083719D02*
X0901714Y0083719D01*
X0901714Y0086320D02*
X0907786Y0086320D01*
X0925730Y0081118D02*
X0931802Y0081118D01*
X0925730Y0081118D02*
X0925730Y0088764D01*
X0931802Y0088764D01*
X0931802Y0081118D01*
X0931802Y0083719D02*
X0925730Y0083719D01*
X0925730Y0086320D02*
X0931802Y0086320D01*
X0931802Y0036236D02*
X0925730Y0036236D01*
X0925730Y0043882D01*
X0931802Y0043882D01*
X0931802Y0036236D01*
X0931802Y0038837D02*
X0925730Y0038837D01*
X0925730Y0041438D02*
X0931802Y0041438D01*
X0907786Y0036236D02*
X0901714Y0036236D01*
X0901714Y0043882D01*
X0907786Y0043882D01*
X0907786Y0036236D01*
X0907786Y0038837D02*
X0901714Y0038837D01*
X0901714Y0041438D02*
X0907786Y0041438D01*
X1186714Y0036236D02*
X1192786Y0036236D01*
X1186714Y0036236D02*
X1186714Y0043882D01*
X1192786Y0043882D01*
X1192786Y0036236D01*
X1192786Y0038837D02*
X1186714Y0038837D01*
X1186714Y0041438D02*
X1192786Y0041438D01*
X1210730Y0036236D02*
X1216802Y0036236D01*
X1210730Y0036236D02*
X1210730Y0043882D01*
X1216802Y0043882D01*
X1216802Y0036236D01*
X1216802Y0038837D02*
X1210730Y0038837D01*
X1210730Y0041438D02*
X1216802Y0041438D01*
X1216802Y0081118D02*
X1210730Y0081118D01*
X1210730Y0088764D01*
X1216802Y0088764D01*
X1216802Y0081118D01*
X1216802Y0083719D02*
X1210730Y0083719D01*
X1210730Y0086320D02*
X1216802Y0086320D01*
X1192786Y0081118D02*
X1186714Y0081118D01*
X1186714Y0088764D01*
X1192786Y0088764D01*
X1192786Y0081118D01*
X1192786Y0083719D02*
X1186714Y0083719D01*
X1186714Y0086320D02*
X1192786Y0086320D01*
X1192786Y0248236D02*
X1186714Y0248236D01*
X1186714Y0255882D01*
X1192786Y0255882D01*
X1192786Y0248236D01*
X1192786Y0250837D02*
X1186714Y0250837D01*
X1186714Y0253438D02*
X1192786Y0253438D01*
X1210730Y0248236D02*
X1216802Y0248236D01*
X1210730Y0248236D02*
X1210730Y0255882D01*
X1216802Y0255882D01*
X1216802Y0248236D01*
X1216802Y0250837D02*
X1210730Y0250837D01*
X1210730Y0253438D02*
X1216802Y0253438D01*
X1216802Y0293118D02*
X1210730Y0293118D01*
X1210730Y0300764D01*
X1216802Y0300764D01*
X1216802Y0293118D01*
X1216802Y0295719D02*
X1210730Y0295719D01*
X1210730Y0298320D02*
X1216802Y0298320D01*
X1192786Y0293118D02*
X1186714Y0293118D01*
X1186714Y0300764D01*
X1192786Y0300764D01*
X1192786Y0293118D01*
X1192786Y0295719D02*
X1186714Y0295719D01*
X1186714Y0298320D02*
X1192786Y0298320D01*
X0931802Y0293118D02*
X0925730Y0293118D01*
X0925730Y0300764D01*
X0931802Y0300764D01*
X0931802Y0293118D01*
X0931802Y0295719D02*
X0925730Y0295719D01*
X0925730Y0298320D02*
X0931802Y0298320D01*
X0907786Y0293118D02*
X0901714Y0293118D01*
X0901714Y0300764D01*
X0907786Y0300764D01*
X0907786Y0293118D01*
X0907786Y0295719D02*
X0901714Y0295719D01*
X0901714Y0298320D02*
X0907786Y0298320D01*
X0907786Y0248236D02*
X0901714Y0248236D01*
X0901714Y0255882D01*
X0907786Y0255882D01*
X0907786Y0248236D01*
X0907786Y0250837D02*
X0901714Y0250837D01*
X0901714Y0253438D02*
X0907786Y0253438D01*
X0925730Y0248236D02*
X0931802Y0248236D01*
X0925730Y0248236D02*
X0925730Y0255882D01*
X0931802Y0255882D01*
X0931802Y0248236D01*
X0931802Y0250837D02*
X0925730Y0250837D01*
X0925730Y0253438D02*
X0931802Y0253438D01*
X0646802Y0248236D02*
X0640730Y0248236D01*
X0640730Y0255882D01*
X0646802Y0255882D01*
X0646802Y0248236D01*
X0646802Y0250837D02*
X0640730Y0250837D01*
X0640730Y0253438D02*
X0646802Y0253438D01*
X0622786Y0248236D02*
X0616714Y0248236D01*
X0616714Y0255882D01*
X0622786Y0255882D01*
X0622786Y0248236D01*
X0622786Y0250837D02*
X0616714Y0250837D01*
X0616714Y0253438D02*
X0622786Y0253438D01*
X0622786Y0293118D02*
X0616714Y0293118D01*
X0616714Y0300764D01*
X0622786Y0300764D01*
X0622786Y0293118D01*
X0622786Y0295719D02*
X0616714Y0295719D01*
X0616714Y0298320D02*
X0622786Y0298320D01*
X0640730Y0293118D02*
X0646802Y0293118D01*
X0640730Y0293118D02*
X0640730Y0300764D01*
X0646802Y0300764D01*
X0646802Y0293118D01*
X0646802Y0295719D02*
X0640730Y0295719D01*
X0640730Y0298320D02*
X0646802Y0298320D01*
X0361802Y0293118D02*
X0355730Y0293118D01*
X0355730Y0300764D01*
X0361802Y0300764D01*
X0361802Y0293118D01*
X0361802Y0295719D02*
X0355730Y0295719D01*
X0355730Y0298320D02*
X0361802Y0298320D01*
X0337786Y0293118D02*
X0331714Y0293118D01*
X0331714Y0300764D01*
X0337786Y0300764D01*
X0337786Y0293118D01*
X0337786Y0295719D02*
X0331714Y0295719D01*
X0331714Y0298320D02*
X0337786Y0298320D01*
X0337786Y0248236D02*
X0331714Y0248236D01*
X0331714Y0255882D01*
X0337786Y0255882D01*
X0337786Y0248236D01*
X0337786Y0250837D02*
X0331714Y0250837D01*
X0331714Y0253438D02*
X0337786Y0253438D01*
X0355730Y0248236D02*
X0361802Y0248236D01*
X0355730Y0248236D02*
X0355730Y0255882D01*
X0361802Y0255882D01*
X0361802Y0248236D01*
X0361802Y0250837D02*
X0355730Y0250837D01*
X0355730Y0253438D02*
X0361802Y0253438D01*
X0076802Y0248236D02*
X0070730Y0248236D01*
X0070730Y0255882D01*
X0076802Y0255882D01*
X0076802Y0248236D01*
X0076802Y0250837D02*
X0070730Y0250837D01*
X0070730Y0253438D02*
X0076802Y0253438D01*
X0052786Y0248236D02*
X0046714Y0248236D01*
X0046714Y0255882D01*
X0052786Y0255882D01*
X0052786Y0248236D01*
X0052786Y0250837D02*
X0046714Y0250837D01*
X0046714Y0253438D02*
X0052786Y0253438D01*
X0052786Y0293118D02*
X0046714Y0293118D01*
X0046714Y0300764D01*
X0052786Y0300764D01*
X0052786Y0293118D01*
X0052786Y0295719D02*
X0046714Y0295719D01*
X0046714Y0298320D02*
X0052786Y0298320D01*
X0070730Y0293118D02*
X0076802Y0293118D01*
X0070730Y0293118D02*
X0070730Y0300764D01*
X0076802Y0300764D01*
X0076802Y0293118D01*
X0076802Y0295719D02*
X0070730Y0295719D01*
X0070730Y0298320D02*
X0076802Y0298320D01*
X0076802Y0460236D02*
X0070730Y0460236D01*
X0070730Y0467882D01*
X0076802Y0467882D01*
X0076802Y0460236D01*
X0076802Y0462837D02*
X0070730Y0462837D01*
X0070730Y0465438D02*
X0076802Y0465438D01*
X0052786Y0460236D02*
X0046714Y0460236D01*
X0046714Y0467882D01*
X0052786Y0467882D01*
X0052786Y0460236D01*
X0052786Y0462837D02*
X0046714Y0462837D01*
X0046714Y0465438D02*
X0052786Y0465438D01*
X0052786Y0505118D02*
X0046714Y0505118D01*
X0046714Y0512764D01*
X0052786Y0512764D01*
X0052786Y0505118D01*
X0052786Y0507719D02*
X0046714Y0507719D01*
X0046714Y0510320D02*
X0052786Y0510320D01*
X0070730Y0505118D02*
X0076802Y0505118D01*
X0070730Y0505118D02*
X0070730Y0512764D01*
X0076802Y0512764D01*
X0076802Y0505118D01*
X0076802Y0507719D02*
X0070730Y0507719D01*
X0070730Y0510320D02*
X0076802Y0510320D01*
X0331714Y0505118D02*
X0337786Y0505118D01*
X0331714Y0505118D02*
X0331714Y0512764D01*
X0337786Y0512764D01*
X0337786Y0505118D01*
X0337786Y0507719D02*
X0331714Y0507719D01*
X0331714Y0510320D02*
X0337786Y0510320D01*
X0355730Y0505118D02*
X0361802Y0505118D01*
X0355730Y0505118D02*
X0355730Y0512764D01*
X0361802Y0512764D01*
X0361802Y0505118D01*
X0361802Y0507719D02*
X0355730Y0507719D01*
X0355730Y0510320D02*
X0361802Y0510320D01*
X0361802Y0460236D02*
X0355730Y0460236D01*
X0355730Y0467882D01*
X0361802Y0467882D01*
X0361802Y0460236D01*
X0361802Y0462837D02*
X0355730Y0462837D01*
X0355730Y0465438D02*
X0361802Y0465438D01*
X0337786Y0460236D02*
X0331714Y0460236D01*
X0331714Y0467882D01*
X0337786Y0467882D01*
X0337786Y0460236D01*
X0337786Y0462837D02*
X0331714Y0462837D01*
X0331714Y0465438D02*
X0337786Y0465438D01*
X0616714Y0460236D02*
X0622786Y0460236D01*
X0616714Y0460236D02*
X0616714Y0467882D01*
X0622786Y0467882D01*
X0622786Y0460236D01*
X0622786Y0462837D02*
X0616714Y0462837D01*
X0616714Y0465438D02*
X0622786Y0465438D01*
X0640730Y0460236D02*
X0646802Y0460236D01*
X0640730Y0460236D02*
X0640730Y0467882D01*
X0646802Y0467882D01*
X0646802Y0460236D01*
X0646802Y0462837D02*
X0640730Y0462837D01*
X0640730Y0465438D02*
X0646802Y0465438D01*
X0646802Y0505118D02*
X0640730Y0505118D01*
X0640730Y0512764D01*
X0646802Y0512764D01*
X0646802Y0505118D01*
X0646802Y0507719D02*
X0640730Y0507719D01*
X0640730Y0510320D02*
X0646802Y0510320D01*
X0622786Y0505118D02*
X0616714Y0505118D01*
X0616714Y0512764D01*
X0622786Y0512764D01*
X0622786Y0505118D01*
X0622786Y0507719D02*
X0616714Y0507719D01*
X0616714Y0510320D02*
X0622786Y0510320D01*
X0901714Y0505118D02*
X0907786Y0505118D01*
X0901714Y0505118D02*
X0901714Y0512764D01*
X0907786Y0512764D01*
X0907786Y0505118D01*
X0907786Y0507719D02*
X0901714Y0507719D01*
X0901714Y0510320D02*
X0907786Y0510320D01*
X0925730Y0505118D02*
X0931802Y0505118D01*
X0925730Y0505118D02*
X0925730Y0512764D01*
X0931802Y0512764D01*
X0931802Y0505118D01*
X0931802Y0507719D02*
X0925730Y0507719D01*
X0925730Y0510320D02*
X0931802Y0510320D01*
X0931802Y0460236D02*
X0925730Y0460236D01*
X0925730Y0467882D01*
X0931802Y0467882D01*
X0931802Y0460236D01*
X0931802Y0462837D02*
X0925730Y0462837D01*
X0925730Y0465438D02*
X0931802Y0465438D01*
X0907786Y0460236D02*
X0901714Y0460236D01*
X0901714Y0467882D01*
X0907786Y0467882D01*
X0907786Y0460236D01*
X0907786Y0462837D02*
X0901714Y0462837D01*
X0901714Y0465438D02*
X0907786Y0465438D01*
X1186714Y0460236D02*
X1192786Y0460236D01*
X1186714Y0460236D02*
X1186714Y0467882D01*
X1192786Y0467882D01*
X1192786Y0460236D01*
X1192786Y0462837D02*
X1186714Y0462837D01*
X1186714Y0465438D02*
X1192786Y0465438D01*
X1210730Y0460236D02*
X1216802Y0460236D01*
X1210730Y0460236D02*
X1210730Y0467882D01*
X1216802Y0467882D01*
X1216802Y0460236D01*
X1216802Y0462837D02*
X1210730Y0462837D01*
X1210730Y0465438D02*
X1216802Y0465438D01*
X1216802Y0505118D02*
X1210730Y0505118D01*
X1210730Y0512764D01*
X1216802Y0512764D01*
X1216802Y0505118D01*
X1216802Y0507719D02*
X1210730Y0507719D01*
X1210730Y0510320D02*
X1216802Y0510320D01*
X1192786Y0505118D02*
X1186714Y0505118D01*
X1186714Y0512764D01*
X1192786Y0512764D01*
X1192786Y0505118D01*
X1192786Y0507719D02*
X1186714Y0507719D01*
X1186714Y0510320D02*
X1192786Y0510320D01*
D29*
X1189750Y0486500D03*
X1207750Y0486500D03*
X0922750Y0486500D03*
X0904750Y0486500D03*
X0637750Y0486500D03*
X0619750Y0486500D03*
X0352750Y0486500D03*
X0334750Y0486500D03*
X0067750Y0486500D03*
X0049750Y0486500D03*
X0049750Y0274500D03*
X0067750Y0274500D03*
X0334750Y0274500D03*
X0352750Y0274500D03*
X0619750Y0274500D03*
X0637750Y0274500D03*
X0904750Y0274500D03*
X0922750Y0274500D03*
X1189750Y0274500D03*
X1207750Y0274500D03*
X1207750Y0062500D03*
X1189750Y0062500D03*
X0922750Y0062500D03*
X0904750Y0062500D03*
X0637750Y0062500D03*
X0619750Y0062500D03*
X0352750Y0062500D03*
X0334750Y0062500D03*
X0067750Y0062500D03*
X0049750Y0062500D03*
D30*
X0258108Y0090941D03*
X0258108Y0096059D03*
X0265392Y0093500D03*
X0272108Y0093500D03*
X0279392Y0096059D03*
X0279392Y0090941D03*
X0543108Y0090941D03*
X0543108Y0096059D03*
X0550392Y0093500D03*
X0557108Y0093500D03*
X0564392Y0096059D03*
X0564392Y0090941D03*
X0828108Y0090941D03*
X0828108Y0096059D03*
X0835392Y0093500D03*
X0842108Y0093500D03*
X0849392Y0096059D03*
X0849392Y0090941D03*
X1113108Y0090941D03*
X1113108Y0096059D03*
X1120392Y0093500D03*
X1127108Y0093500D03*
X1134392Y0096059D03*
X1134392Y0090941D03*
X1398108Y0090941D03*
X1398108Y0096059D03*
X1405392Y0093500D03*
X1412108Y0093500D03*
X1419392Y0096059D03*
X1419392Y0090941D03*
X1419392Y0302941D03*
X1419392Y0308059D03*
X1412108Y0305500D03*
X1405392Y0305500D03*
X1398108Y0302941D03*
X1398108Y0308059D03*
X1134392Y0308059D03*
X1134392Y0302941D03*
X1127108Y0305500D03*
X1120392Y0305500D03*
X1113108Y0302941D03*
X1113108Y0308059D03*
X0849392Y0308059D03*
X0849392Y0302941D03*
X0842108Y0305500D03*
X0835392Y0305500D03*
X0828108Y0302941D03*
X0828108Y0308059D03*
X0564392Y0308059D03*
X0564392Y0302941D03*
X0557108Y0305500D03*
X0550392Y0305500D03*
X0543108Y0302941D03*
X0543108Y0308059D03*
X0279392Y0308059D03*
X0279392Y0302941D03*
X0272108Y0305500D03*
X0265392Y0305500D03*
X0258108Y0308059D03*
X0258108Y0302941D03*
X0258108Y0514941D03*
X0258108Y0520059D03*
X0265392Y0517500D03*
X0272108Y0517500D03*
X0279392Y0514941D03*
X0279392Y0520059D03*
X0543108Y0520059D03*
X0543108Y0514941D03*
X0550392Y0517500D03*
X0557108Y0517500D03*
X0564392Y0514941D03*
X0564392Y0520059D03*
X0828108Y0520059D03*
X0828108Y0514941D03*
X0835392Y0517500D03*
X0842108Y0517500D03*
X0849392Y0520059D03*
X0849392Y0514941D03*
X1113108Y0514941D03*
X1113108Y0520059D03*
X1120392Y0517500D03*
X1127108Y0517500D03*
X1134392Y0520059D03*
X1134392Y0514941D03*
X1398108Y0514941D03*
X1398108Y0520059D03*
X1405392Y0517500D03*
X1412108Y0517500D03*
X1419392Y0520059D03*
X1419392Y0514941D03*
D31*
X1363650Y0521476D03*
X1363650Y0524626D03*
X1363650Y0527776D03*
X1363650Y0530925D03*
X1363650Y0534075D03*
X1363650Y0537224D03*
X1363650Y0540374D03*
X1363650Y0543524D03*
X1329850Y0543524D03*
X1329850Y0540374D03*
X1329850Y0537224D03*
X1329850Y0534075D03*
X1329850Y0530925D03*
X1329850Y0527776D03*
X1329850Y0524626D03*
X1329850Y0521476D03*
X1078650Y0521476D03*
X1078650Y0524626D03*
X1078650Y0527776D03*
X1078650Y0530925D03*
X1078650Y0534075D03*
X1078650Y0537224D03*
X1078650Y0540374D03*
X1078650Y0543524D03*
X1044850Y0543524D03*
X1044850Y0540374D03*
X1044850Y0537224D03*
X1044850Y0534075D03*
X1044850Y0530925D03*
X1044850Y0527776D03*
X1044850Y0524626D03*
X1044850Y0521476D03*
X0793650Y0521476D03*
X0793650Y0524626D03*
X0793650Y0527776D03*
X0793650Y0530925D03*
X0793650Y0534075D03*
X0793650Y0537224D03*
X0793650Y0540374D03*
X0793650Y0543524D03*
X0759850Y0543524D03*
X0759850Y0540374D03*
X0759850Y0537224D03*
X0759850Y0534075D03*
X0759850Y0530925D03*
X0759850Y0527776D03*
X0759850Y0524626D03*
X0759850Y0521476D03*
X0508650Y0521476D03*
X0508650Y0524626D03*
X0508650Y0527776D03*
X0508650Y0530925D03*
X0508650Y0534075D03*
X0508650Y0537224D03*
X0508650Y0540374D03*
X0508650Y0543524D03*
X0474850Y0543524D03*
X0474850Y0540374D03*
X0474850Y0537224D03*
X0474850Y0534075D03*
X0474850Y0530925D03*
X0474850Y0527776D03*
X0474850Y0524626D03*
X0474850Y0521476D03*
X0223650Y0521476D03*
X0223650Y0524626D03*
X0223650Y0527776D03*
X0223650Y0530925D03*
X0223650Y0534075D03*
X0223650Y0537224D03*
X0223650Y0540374D03*
X0223650Y0543524D03*
X0189850Y0543524D03*
X0189850Y0540374D03*
X0189850Y0537224D03*
X0189850Y0534075D03*
X0189850Y0530925D03*
X0189850Y0527776D03*
X0189850Y0524626D03*
X0189850Y0521476D03*
X0189850Y0331524D03*
X0189850Y0328374D03*
X0189850Y0325224D03*
X0189850Y0322075D03*
X0189850Y0318925D03*
X0189850Y0315776D03*
X0189850Y0312626D03*
X0189850Y0309476D03*
X0223650Y0309476D03*
X0223650Y0312626D03*
X0223650Y0315776D03*
X0223650Y0318925D03*
X0223650Y0322075D03*
X0223650Y0325224D03*
X0223650Y0328374D03*
X0223650Y0331524D03*
X0474850Y0331524D03*
X0474850Y0328374D03*
X0474850Y0325224D03*
X0474850Y0322075D03*
X0474850Y0318925D03*
X0474850Y0315776D03*
X0474850Y0312626D03*
X0474850Y0309476D03*
X0508650Y0309476D03*
X0508650Y0312626D03*
X0508650Y0315776D03*
X0508650Y0318925D03*
X0508650Y0322075D03*
X0508650Y0325224D03*
X0508650Y0328374D03*
X0508650Y0331524D03*
X0759850Y0331524D03*
X0759850Y0328374D03*
X0759850Y0325224D03*
X0759850Y0322075D03*
X0759850Y0318925D03*
X0759850Y0315776D03*
X0759850Y0312626D03*
X0759850Y0309476D03*
X0793650Y0309476D03*
X0793650Y0312626D03*
X0793650Y0315776D03*
X0793650Y0318925D03*
X0793650Y0322075D03*
X0793650Y0325224D03*
X0793650Y0328374D03*
X0793650Y0331524D03*
X1044850Y0331524D03*
X1044850Y0328374D03*
X1044850Y0325224D03*
X1044850Y0322075D03*
X1044850Y0318925D03*
X1044850Y0315776D03*
X1044850Y0312626D03*
X1044850Y0309476D03*
X1078650Y0309476D03*
X1078650Y0312626D03*
X1078650Y0315776D03*
X1078650Y0318925D03*
X1078650Y0322075D03*
X1078650Y0325224D03*
X1078650Y0328374D03*
X1078650Y0331524D03*
X1329850Y0331524D03*
X1329850Y0328374D03*
X1329850Y0325224D03*
X1329850Y0322075D03*
X1329850Y0318925D03*
X1329850Y0315776D03*
X1329850Y0312626D03*
X1329850Y0309476D03*
X1363650Y0309476D03*
X1363650Y0312626D03*
X1363650Y0315776D03*
X1363650Y0318925D03*
X1363650Y0322075D03*
X1363650Y0325224D03*
X1363650Y0328374D03*
X1363650Y0331524D03*
X1363650Y0119524D03*
X1363650Y0116374D03*
X1363650Y0113224D03*
X1363650Y0110075D03*
X1363650Y0106925D03*
X1363650Y0103776D03*
X1363650Y0100626D03*
X1363650Y0097476D03*
X1329850Y0097476D03*
X1329850Y0100626D03*
X1329850Y0103776D03*
X1329850Y0106925D03*
X1329850Y0110075D03*
X1329850Y0113224D03*
X1329850Y0116374D03*
X1329850Y0119524D03*
X1078650Y0119524D03*
X1078650Y0116374D03*
X1078650Y0113224D03*
X1078650Y0110075D03*
X1078650Y0106925D03*
X1078650Y0103776D03*
X1078650Y0100626D03*
X1078650Y0097476D03*
X1044850Y0097476D03*
X1044850Y0100626D03*
X1044850Y0103776D03*
X1044850Y0106925D03*
X1044850Y0110075D03*
X1044850Y0113224D03*
X1044850Y0116374D03*
X1044850Y0119524D03*
X0793650Y0119524D03*
X0793650Y0116374D03*
X0793650Y0113224D03*
X0793650Y0110075D03*
X0793650Y0106925D03*
X0793650Y0103776D03*
X0793650Y0100626D03*
X0793650Y0097476D03*
X0759850Y0097476D03*
X0759850Y0100626D03*
X0759850Y0103776D03*
X0759850Y0106925D03*
X0759850Y0110075D03*
X0759850Y0113224D03*
X0759850Y0116374D03*
X0759850Y0119524D03*
X0508650Y0119524D03*
X0508650Y0116374D03*
X0508650Y0113224D03*
X0508650Y0110075D03*
X0508650Y0106925D03*
X0508650Y0103776D03*
X0508650Y0100626D03*
X0508650Y0097476D03*
X0474850Y0097476D03*
X0474850Y0100626D03*
X0474850Y0103776D03*
X0474850Y0106925D03*
X0474850Y0110075D03*
X0474850Y0113224D03*
X0474850Y0116374D03*
X0474850Y0119524D03*
X0223650Y0119524D03*
X0223650Y0116374D03*
X0223650Y0113224D03*
X0223650Y0110075D03*
X0223650Y0106925D03*
X0223650Y0103776D03*
X0223650Y0100626D03*
X0223650Y0097476D03*
X0189850Y0097476D03*
X0189850Y0100626D03*
X0189850Y0103776D03*
X0189850Y0106925D03*
X0189850Y0110075D03*
X0189850Y0113224D03*
X0189850Y0116374D03*
X0189850Y0119524D03*
D32*
X0195726Y0125400D03*
X0198876Y0125400D03*
X0202026Y0125400D03*
X0205175Y0125400D03*
X0208325Y0125400D03*
X0211474Y0125400D03*
X0214624Y0125400D03*
X0217774Y0125400D03*
X0217774Y0091600D03*
X0214624Y0091600D03*
X0211474Y0091600D03*
X0208325Y0091600D03*
X0205175Y0091600D03*
X0202026Y0091600D03*
X0198876Y0091600D03*
X0195726Y0091600D03*
X0480726Y0091600D03*
X0483876Y0091600D03*
X0487026Y0091600D03*
X0490175Y0091600D03*
X0493325Y0091600D03*
X0496474Y0091600D03*
X0499624Y0091600D03*
X0502774Y0091600D03*
X0502774Y0125400D03*
X0499624Y0125400D03*
X0496474Y0125400D03*
X0493325Y0125400D03*
X0490175Y0125400D03*
X0487026Y0125400D03*
X0483876Y0125400D03*
X0480726Y0125400D03*
X0765726Y0125400D03*
X0768876Y0125400D03*
X0772026Y0125400D03*
X0775175Y0125400D03*
X0778325Y0125400D03*
X0781474Y0125400D03*
X0784624Y0125400D03*
X0787774Y0125400D03*
X0787774Y0091600D03*
X0784624Y0091600D03*
X0781474Y0091600D03*
X0778325Y0091600D03*
X0775175Y0091600D03*
X0772026Y0091600D03*
X0768876Y0091600D03*
X0765726Y0091600D03*
X1050726Y0091600D03*
X1053876Y0091600D03*
X1057026Y0091600D03*
X1060175Y0091600D03*
X1063325Y0091600D03*
X1066474Y0091600D03*
X1069624Y0091600D03*
X1072774Y0091600D03*
X1072774Y0125400D03*
X1069624Y0125400D03*
X1066474Y0125400D03*
X1063325Y0125400D03*
X1060175Y0125400D03*
X1057026Y0125400D03*
X1053876Y0125400D03*
X1050726Y0125400D03*
X1335726Y0125400D03*
X1338876Y0125400D03*
X1342026Y0125400D03*
X1345175Y0125400D03*
X1348325Y0125400D03*
X1351474Y0125400D03*
X1354624Y0125400D03*
X1357774Y0125400D03*
X1357774Y0091600D03*
X1354624Y0091600D03*
X1351474Y0091600D03*
X1348325Y0091600D03*
X1345175Y0091600D03*
X1342026Y0091600D03*
X1338876Y0091600D03*
X1335726Y0091600D03*
X1335726Y0303600D03*
X1338876Y0303600D03*
X1342026Y0303600D03*
X1345175Y0303600D03*
X1348325Y0303600D03*
X1351474Y0303600D03*
X1354624Y0303600D03*
X1357774Y0303600D03*
X1357774Y0337400D03*
X1354624Y0337400D03*
X1351474Y0337400D03*
X1348325Y0337400D03*
X1345175Y0337400D03*
X1342026Y0337400D03*
X1338876Y0337400D03*
X1335726Y0337400D03*
X1072774Y0337400D03*
X1069624Y0337400D03*
X1066474Y0337400D03*
X1063325Y0337400D03*
X1060175Y0337400D03*
X1057026Y0337400D03*
X1053876Y0337400D03*
X1050726Y0337400D03*
X1050726Y0303600D03*
X1053876Y0303600D03*
X1057026Y0303600D03*
X1060175Y0303600D03*
X1063325Y0303600D03*
X1066474Y0303600D03*
X1069624Y0303600D03*
X1072774Y0303600D03*
X0787774Y0303600D03*
X0784624Y0303600D03*
X0781474Y0303600D03*
X0778325Y0303600D03*
X0775175Y0303600D03*
X0772026Y0303600D03*
X0768876Y0303600D03*
X0765726Y0303600D03*
X0765726Y0337400D03*
X0768876Y0337400D03*
X0772026Y0337400D03*
X0775175Y0337400D03*
X0778325Y0337400D03*
X0781474Y0337400D03*
X0784624Y0337400D03*
X0787774Y0337400D03*
X0502774Y0337400D03*
X0499624Y0337400D03*
X0496474Y0337400D03*
X0493325Y0337400D03*
X0490175Y0337400D03*
X0487026Y0337400D03*
X0483876Y0337400D03*
X0480726Y0337400D03*
X0480726Y0303600D03*
X0483876Y0303600D03*
X0487026Y0303600D03*
X0490175Y0303600D03*
X0493325Y0303600D03*
X0496474Y0303600D03*
X0499624Y0303600D03*
X0502774Y0303600D03*
X0217774Y0303600D03*
X0214624Y0303600D03*
X0211474Y0303600D03*
X0208325Y0303600D03*
X0205175Y0303600D03*
X0202026Y0303600D03*
X0198876Y0303600D03*
X0195726Y0303600D03*
X0195726Y0337400D03*
X0198876Y0337400D03*
X0202026Y0337400D03*
X0205175Y0337400D03*
X0208325Y0337400D03*
X0211474Y0337400D03*
X0214624Y0337400D03*
X0217774Y0337400D03*
X0217774Y0515600D03*
X0214624Y0515600D03*
X0211474Y0515600D03*
X0208325Y0515600D03*
X0205175Y0515600D03*
X0202026Y0515600D03*
X0198876Y0515600D03*
X0195726Y0515600D03*
X0195726Y0549400D03*
X0198876Y0549400D03*
X0202026Y0549400D03*
X0205175Y0549400D03*
X0208325Y0549400D03*
X0211474Y0549400D03*
X0214624Y0549400D03*
X0217774Y0549400D03*
X0480726Y0549400D03*
X0483876Y0549400D03*
X0487026Y0549400D03*
X0490175Y0549400D03*
X0493325Y0549400D03*
X0496474Y0549400D03*
X0499624Y0549400D03*
X0502774Y0549400D03*
X0502774Y0515600D03*
X0499624Y0515600D03*
X0496474Y0515600D03*
X0493325Y0515600D03*
X0490175Y0515600D03*
X0487026Y0515600D03*
X0483876Y0515600D03*
X0480726Y0515600D03*
X0765726Y0515600D03*
X0768876Y0515600D03*
X0772026Y0515600D03*
X0775175Y0515600D03*
X0778325Y0515600D03*
X0781474Y0515600D03*
X0784624Y0515600D03*
X0787774Y0515600D03*
X0787774Y0549400D03*
X0784624Y0549400D03*
X0781474Y0549400D03*
X0778325Y0549400D03*
X0775175Y0549400D03*
X0772026Y0549400D03*
X0768876Y0549400D03*
X0765726Y0549400D03*
X1050726Y0549400D03*
X1053876Y0549400D03*
X1057026Y0549400D03*
X1060175Y0549400D03*
X1063325Y0549400D03*
X1066474Y0549400D03*
X1069624Y0549400D03*
X1072774Y0549400D03*
X1072774Y0515600D03*
X1069624Y0515600D03*
X1066474Y0515600D03*
X1063325Y0515600D03*
X1060175Y0515600D03*
X1057026Y0515600D03*
X1053876Y0515600D03*
X1050726Y0515600D03*
X1335726Y0515600D03*
X1338876Y0515600D03*
X1342026Y0515600D03*
X1345175Y0515600D03*
X1348325Y0515600D03*
X1351474Y0515600D03*
X1354624Y0515600D03*
X1357774Y0515600D03*
X1357774Y0549400D03*
X1354624Y0549400D03*
X1351474Y0549400D03*
X1348325Y0549400D03*
X1345175Y0549400D03*
X1342026Y0549400D03*
X1338876Y0549400D03*
X1335726Y0549400D03*
D33*
X1266869Y0526240D03*
X1266869Y0518760D03*
X1256631Y0518760D03*
X1256631Y0522500D03*
X1256631Y0526240D03*
X0981869Y0526240D03*
X0981869Y0518760D03*
X0971631Y0518760D03*
X0971631Y0522500D03*
X0971631Y0526240D03*
X0696869Y0526240D03*
X0696869Y0518760D03*
X0686631Y0518760D03*
X0686631Y0522500D03*
X0686631Y0526240D03*
X0411869Y0526240D03*
X0411869Y0518760D03*
X0401631Y0518760D03*
X0401631Y0522500D03*
X0401631Y0526240D03*
X0126869Y0526240D03*
X0126869Y0518760D03*
X0116631Y0518760D03*
X0116631Y0522500D03*
X0116631Y0526240D03*
X0116631Y0314240D03*
X0116631Y0310500D03*
X0116631Y0306760D03*
X0126869Y0306760D03*
X0126869Y0314240D03*
X0401631Y0314240D03*
X0401631Y0310500D03*
X0401631Y0306760D03*
X0411869Y0306760D03*
X0411869Y0314240D03*
X0686631Y0314240D03*
X0686631Y0310500D03*
X0686631Y0306760D03*
X0696869Y0306760D03*
X0696869Y0314240D03*
X0971631Y0314240D03*
X0971631Y0310500D03*
X0971631Y0306760D03*
X0981869Y0306760D03*
X0981869Y0314240D03*
X1256631Y0314240D03*
X1256631Y0310500D03*
X1256631Y0306760D03*
X1266869Y0306760D03*
X1266869Y0314240D03*
X1266869Y0102240D03*
X1266869Y0094760D03*
X1256631Y0094760D03*
X1256631Y0098500D03*
X1256631Y0102240D03*
X0981869Y0102240D03*
X0981869Y0094760D03*
X0971631Y0094760D03*
X0971631Y0098500D03*
X0971631Y0102240D03*
X0696869Y0102240D03*
X0696869Y0094760D03*
X0686631Y0094760D03*
X0686631Y0098500D03*
X0686631Y0102240D03*
X0411869Y0102240D03*
X0411869Y0094760D03*
X0401631Y0094760D03*
X0401631Y0098500D03*
X0401631Y0102240D03*
X0126869Y0102240D03*
X0126869Y0094760D03*
X0116631Y0094760D03*
X0116631Y0098500D03*
X0116631Y0102240D03*
D34*
X0092774Y0166000D03*
X0092774Y0171000D03*
X0092774Y0176000D03*
X0092774Y0181000D03*
X0092774Y0186000D03*
X0092774Y0191000D03*
X0092774Y0196000D03*
X0092774Y0201000D03*
X0070726Y0201000D03*
X0070726Y0196000D03*
X0070726Y0191000D03*
X0070726Y0186000D03*
X0070726Y0181000D03*
X0070726Y0176000D03*
X0070726Y0171000D03*
X0070726Y0166000D03*
X0355726Y0166000D03*
X0355726Y0171000D03*
X0355726Y0176000D03*
X0355726Y0181000D03*
X0355726Y0186000D03*
X0355726Y0191000D03*
X0355726Y0196000D03*
X0355726Y0201000D03*
X0377774Y0201000D03*
X0377774Y0196000D03*
X0377774Y0191000D03*
X0377774Y0186000D03*
X0377774Y0181000D03*
X0377774Y0176000D03*
X0377774Y0171000D03*
X0377774Y0166000D03*
X0640726Y0166000D03*
X0640726Y0171000D03*
X0640726Y0176000D03*
X0640726Y0181000D03*
X0640726Y0186000D03*
X0640726Y0191000D03*
X0640726Y0196000D03*
X0640726Y0201000D03*
X0662774Y0201000D03*
X0662774Y0196000D03*
X0662774Y0191000D03*
X0662774Y0186000D03*
X0662774Y0181000D03*
X0662774Y0176000D03*
X0662774Y0171000D03*
X0662774Y0166000D03*
X0925726Y0166000D03*
X0925726Y0171000D03*
X0925726Y0176000D03*
X0925726Y0181000D03*
X0925726Y0186000D03*
X0925726Y0191000D03*
X0925726Y0196000D03*
X0925726Y0201000D03*
X0947774Y0201000D03*
X0947774Y0196000D03*
X0947774Y0191000D03*
X0947774Y0186000D03*
X0947774Y0181000D03*
X0947774Y0176000D03*
X0947774Y0171000D03*
X0947774Y0166000D03*
X1210726Y0166000D03*
X1210726Y0171000D03*
X1210726Y0176000D03*
X1210726Y0181000D03*
X1210726Y0186000D03*
X1210726Y0191000D03*
X1210726Y0196000D03*
X1210726Y0201000D03*
X1232774Y0201000D03*
X1232774Y0196000D03*
X1232774Y0191000D03*
X1232774Y0186000D03*
X1232774Y0181000D03*
X1232774Y0176000D03*
X1232774Y0171000D03*
X1232774Y0166000D03*
X1232774Y0378000D03*
X1232774Y0383000D03*
X1232774Y0388000D03*
X1232774Y0393000D03*
X1232774Y0398000D03*
X1232774Y0403000D03*
X1232774Y0408000D03*
X1232774Y0413000D03*
X1210726Y0413000D03*
X1210726Y0408000D03*
X1210726Y0403000D03*
X1210726Y0398000D03*
X1210726Y0393000D03*
X1210726Y0388000D03*
X1210726Y0383000D03*
X1210726Y0378000D03*
X0947774Y0378000D03*
X0947774Y0383000D03*
X0947774Y0388000D03*
X0947774Y0393000D03*
X0947774Y0398000D03*
X0947774Y0403000D03*
X0947774Y0408000D03*
X0947774Y0413000D03*
X0925726Y0413000D03*
X0925726Y0408000D03*
X0925726Y0403000D03*
X0925726Y0398000D03*
X0925726Y0393000D03*
X0925726Y0388000D03*
X0925726Y0383000D03*
X0925726Y0378000D03*
X0662774Y0378000D03*
X0662774Y0383000D03*
X0662774Y0388000D03*
X0662774Y0393000D03*
X0662774Y0398000D03*
X0662774Y0403000D03*
X0662774Y0408000D03*
X0662774Y0413000D03*
X0640726Y0413000D03*
X0640726Y0408000D03*
X0640726Y0403000D03*
X0640726Y0398000D03*
X0640726Y0393000D03*
X0640726Y0388000D03*
X0640726Y0383000D03*
X0640726Y0378000D03*
X0377774Y0378000D03*
X0377774Y0383000D03*
X0377774Y0388000D03*
X0377774Y0393000D03*
X0377774Y0398000D03*
X0377774Y0403000D03*
X0377774Y0408000D03*
X0377774Y0413000D03*
X0355726Y0413000D03*
X0355726Y0408000D03*
X0355726Y0403000D03*
X0355726Y0398000D03*
X0355726Y0393000D03*
X0355726Y0388000D03*
X0355726Y0383000D03*
X0355726Y0378000D03*
X0092774Y0378000D03*
X0092774Y0383000D03*
X0092774Y0388000D03*
X0092774Y0393000D03*
X0092774Y0398000D03*
X0092774Y0403000D03*
X0092774Y0408000D03*
X0092774Y0413000D03*
X0070726Y0413000D03*
X0070726Y0408000D03*
X0070726Y0403000D03*
X0070726Y0398000D03*
X0070726Y0393000D03*
X0070726Y0388000D03*
X0070726Y0383000D03*
X0070726Y0378000D03*
X0070726Y0590000D03*
X0070726Y0595000D03*
X0070726Y0600000D03*
X0070726Y0605000D03*
X0070726Y0610000D03*
X0070726Y0615000D03*
X0070726Y0620000D03*
X0070726Y0625000D03*
X0092774Y0625000D03*
X0092774Y0620000D03*
X0092774Y0615000D03*
X0092774Y0610000D03*
X0092774Y0605000D03*
X0092774Y0600000D03*
X0092774Y0595000D03*
X0092774Y0590000D03*
X0355726Y0590000D03*
X0355726Y0595000D03*
X0355726Y0600000D03*
X0355726Y0605000D03*
X0355726Y0610000D03*
X0355726Y0615000D03*
X0355726Y0620000D03*
X0355726Y0625000D03*
X0377774Y0625000D03*
X0377774Y0620000D03*
X0377774Y0615000D03*
X0377774Y0610000D03*
X0377774Y0605000D03*
X0377774Y0600000D03*
X0377774Y0595000D03*
X0377774Y0590000D03*
X0640726Y0590000D03*
X0640726Y0595000D03*
X0640726Y0600000D03*
X0640726Y0605000D03*
X0640726Y0610000D03*
X0640726Y0615000D03*
X0640726Y0620000D03*
X0640726Y0625000D03*
X0662774Y0625000D03*
X0662774Y0620000D03*
X0662774Y0615000D03*
X0662774Y0610000D03*
X0662774Y0605000D03*
X0662774Y0600000D03*
X0662774Y0595000D03*
X0662774Y0590000D03*
X0925726Y0590000D03*
X0925726Y0595000D03*
X0925726Y0600000D03*
X0925726Y0605000D03*
X0925726Y0610000D03*
X0925726Y0615000D03*
X0925726Y0620000D03*
X0925726Y0625000D03*
X0947774Y0625000D03*
X0947774Y0620000D03*
X0947774Y0615000D03*
X0947774Y0610000D03*
X0947774Y0605000D03*
X0947774Y0600000D03*
X0947774Y0595000D03*
X0947774Y0590000D03*
X1210726Y0590000D03*
X1210726Y0595000D03*
X1210726Y0600000D03*
X1210726Y0605000D03*
X1210726Y0610000D03*
X1210726Y0615000D03*
X1210726Y0620000D03*
X1210726Y0625000D03*
X1232774Y0625000D03*
X1232774Y0620000D03*
X1232774Y0615000D03*
X1232774Y0610000D03*
X1232774Y0605000D03*
X1232774Y0600000D03*
X1232774Y0595000D03*
X1232774Y0590000D03*
D35*
X1238305Y0617874D03*
X1245195Y0617874D03*
X1245195Y0627126D03*
X1238305Y0627126D03*
X0960195Y0627126D03*
X0953305Y0627126D03*
X0953305Y0617874D03*
X0960195Y0617874D03*
X0675195Y0617874D03*
X0668305Y0617874D03*
X0668305Y0627126D03*
X0675195Y0627126D03*
X0390195Y0627126D03*
X0383305Y0627126D03*
X0383305Y0617874D03*
X0390195Y0617874D03*
X0105195Y0617874D03*
X0098305Y0617874D03*
X0098305Y0627126D03*
X0105195Y0627126D03*
X0105195Y0415126D03*
X0098305Y0415126D03*
X0098305Y0405874D03*
X0105195Y0405874D03*
X0383305Y0405874D03*
X0390195Y0405874D03*
X0390195Y0415126D03*
X0383305Y0415126D03*
X0668305Y0415126D03*
X0675195Y0415126D03*
X0675195Y0405874D03*
X0668305Y0405874D03*
X0953305Y0405874D03*
X0960195Y0405874D03*
X0960195Y0415126D03*
X0953305Y0415126D03*
X1238305Y0415126D03*
X1245195Y0415126D03*
X1245195Y0405874D03*
X1238305Y0405874D03*
X1238305Y0203126D03*
X1245195Y0203126D03*
X1245195Y0193874D03*
X1238305Y0193874D03*
X0960195Y0193874D03*
X0953305Y0193874D03*
X0953305Y0203126D03*
X0960195Y0203126D03*
X0675195Y0203126D03*
X0668305Y0203126D03*
X0668305Y0193874D03*
X0675195Y0193874D03*
X0390195Y0193874D03*
X0383305Y0193874D03*
X0383305Y0203126D03*
X0390195Y0203126D03*
X0105195Y0203126D03*
X0098305Y0203126D03*
X0098305Y0193874D03*
X0105195Y0193874D03*
D36*
X0056990Y0188494D03*
X0056990Y0185935D03*
X0056990Y0183376D03*
X0056990Y0180817D03*
X0056990Y0178258D03*
X0341990Y0178258D03*
X0341990Y0180817D03*
X0341990Y0183376D03*
X0341990Y0185935D03*
X0341990Y0188494D03*
X0626990Y0188494D03*
X0626990Y0185935D03*
X0626990Y0183376D03*
X0626990Y0180817D03*
X0626990Y0178258D03*
X0911990Y0178258D03*
X0911990Y0180817D03*
X0911990Y0183376D03*
X0911990Y0185935D03*
X0911990Y0188494D03*
X1196990Y0188494D03*
X1196990Y0185935D03*
X1196990Y0183376D03*
X1196990Y0180817D03*
X1196990Y0178258D03*
X1196990Y0390258D03*
X1196990Y0392817D03*
X1196990Y0395376D03*
X1196990Y0397935D03*
X1196990Y0400494D03*
X0911990Y0400494D03*
X0911990Y0397935D03*
X0911990Y0395376D03*
X0911990Y0392817D03*
X0911990Y0390258D03*
X0626990Y0390258D03*
X0626990Y0392817D03*
X0626990Y0395376D03*
X0626990Y0397935D03*
X0626990Y0400494D03*
X0341990Y0400494D03*
X0341990Y0397935D03*
X0341990Y0395376D03*
X0341990Y0392817D03*
X0341990Y0390258D03*
X0056990Y0390258D03*
X0056990Y0392817D03*
X0056990Y0395376D03*
X0056990Y0397935D03*
X0056990Y0400494D03*
X0056990Y0602258D03*
X0056990Y0604817D03*
X0056990Y0607376D03*
X0056990Y0609935D03*
X0056990Y0612494D03*
X0341990Y0612494D03*
X0341990Y0609935D03*
X0341990Y0607376D03*
X0341990Y0604817D03*
X0341990Y0602258D03*
X0626990Y0602258D03*
X0626990Y0604817D03*
X0626990Y0607376D03*
X0626990Y0609935D03*
X0626990Y0612494D03*
X0911990Y0612494D03*
X0911990Y0609935D03*
X0911990Y0607376D03*
X0911990Y0604817D03*
X0911990Y0602258D03*
X1196990Y0602258D03*
X1196990Y0604817D03*
X1196990Y0607376D03*
X1196990Y0609935D03*
X1196990Y0612494D03*
D37*
X1198073Y0618498D03*
X1198073Y0596354D03*
X0913073Y0596354D03*
X0913073Y0618498D03*
X0628073Y0618498D03*
X0628073Y0596354D03*
X0343073Y0596354D03*
X0343073Y0618498D03*
X0058073Y0618498D03*
X0058073Y0596354D03*
X0058073Y0406498D03*
X0058073Y0384354D03*
X0343073Y0384354D03*
X0343073Y0406498D03*
X0628073Y0406498D03*
X0628073Y0384354D03*
X0913073Y0384354D03*
X0913073Y0406498D03*
X1198073Y0406498D03*
X1198073Y0384354D03*
X1198073Y0194498D03*
X1198073Y0172354D03*
X0913073Y0172354D03*
X0913073Y0194498D03*
X0628073Y0194498D03*
X0628073Y0172354D03*
X0343073Y0172354D03*
X0343073Y0194498D03*
X0058073Y0194498D03*
X0058073Y0172354D03*
D38*
X0046428Y0179578D03*
X0046439Y0187353D03*
X0331439Y0187353D03*
X0331428Y0179578D03*
X0616428Y0179578D03*
X0616439Y0187353D03*
X0901439Y0187353D03*
X0901428Y0179578D03*
X1186428Y0179578D03*
X1186439Y0187353D03*
X1186428Y0391578D03*
X1186439Y0399353D03*
X0901439Y0399353D03*
X0901428Y0391578D03*
X0616428Y0391578D03*
X0616439Y0399353D03*
X0331439Y0399353D03*
X0331428Y0391578D03*
X0046428Y0391578D03*
X0046439Y0399353D03*
X0046428Y0603578D03*
X0046439Y0611353D03*
X0331439Y0611353D03*
X0331428Y0603578D03*
X0616428Y0603578D03*
X0616439Y0611353D03*
X0901439Y0611353D03*
X0901428Y0603578D03*
X1186428Y0603578D03*
X1186439Y0611353D03*
D39*
X1197474Y0616823D02*
X1198656Y0616823D01*
X1197474Y0616823D02*
X1197474Y0616823D01*
X1198656Y0616823D01*
X1198656Y0616823D01*
X1198616Y0597707D02*
X1197434Y0597707D01*
X1197434Y0597707D01*
X1198616Y0597707D01*
X1198616Y0597707D01*
X0913616Y0597707D02*
X0912434Y0597707D01*
X0912434Y0597707D01*
X0913616Y0597707D01*
X0913616Y0597707D01*
X0913656Y0616823D02*
X0912474Y0616823D01*
X0912474Y0616823D01*
X0913656Y0616823D01*
X0913656Y0616823D01*
X0628656Y0616823D02*
X0627474Y0616823D01*
X0627474Y0616823D01*
X0628656Y0616823D01*
X0628656Y0616823D01*
X0628616Y0597707D02*
X0627434Y0597707D01*
X0627434Y0597707D01*
X0628616Y0597707D01*
X0628616Y0597707D01*
X0343616Y0597707D02*
X0342434Y0597707D01*
X0342434Y0597707D01*
X0343616Y0597707D01*
X0343616Y0597707D01*
X0343656Y0616823D02*
X0342474Y0616823D01*
X0342474Y0616823D01*
X0343656Y0616823D01*
X0343656Y0616823D01*
X0058656Y0616823D02*
X0057474Y0616823D01*
X0057474Y0616823D01*
X0058656Y0616823D01*
X0058656Y0616823D01*
X0058616Y0597707D02*
X0057434Y0597707D01*
X0057434Y0597707D01*
X0058616Y0597707D01*
X0058616Y0597707D01*
X0058656Y0404823D02*
X0057474Y0404823D01*
X0057474Y0404823D01*
X0058656Y0404823D01*
X0058656Y0404823D01*
X0058616Y0385707D02*
X0057434Y0385707D01*
X0057434Y0385707D01*
X0058616Y0385707D01*
X0058616Y0385707D01*
X0342434Y0385707D02*
X0343616Y0385707D01*
X0342434Y0385707D02*
X0342434Y0385707D01*
X0343616Y0385707D01*
X0343616Y0385707D01*
X0343656Y0404823D02*
X0342474Y0404823D01*
X0342474Y0404823D01*
X0343656Y0404823D01*
X0343656Y0404823D01*
X0627474Y0404823D02*
X0628656Y0404823D01*
X0627474Y0404823D02*
X0627474Y0404823D01*
X0628656Y0404823D01*
X0628656Y0404823D01*
X0628616Y0385707D02*
X0627434Y0385707D01*
X0627434Y0385707D01*
X0628616Y0385707D01*
X0628616Y0385707D01*
X0912434Y0385707D02*
X0913616Y0385707D01*
X0912434Y0385707D02*
X0912434Y0385707D01*
X0913616Y0385707D01*
X0913616Y0385707D01*
X0913656Y0404823D02*
X0912474Y0404823D01*
X0912474Y0404823D01*
X0913656Y0404823D01*
X0913656Y0404823D01*
X1197474Y0404823D02*
X1198656Y0404823D01*
X1197474Y0404823D02*
X1197474Y0404823D01*
X1198656Y0404823D01*
X1198656Y0404823D01*
X1198616Y0385707D02*
X1197434Y0385707D01*
X1197434Y0385707D01*
X1198616Y0385707D01*
X1198616Y0385707D01*
X1198656Y0192823D02*
X1197474Y0192823D01*
X1197474Y0192823D01*
X1198656Y0192823D01*
X1198656Y0192823D01*
X1198616Y0173707D02*
X1197434Y0173707D01*
X1197434Y0173707D01*
X1198616Y0173707D01*
X1198616Y0173707D01*
X0913616Y0173707D02*
X0912434Y0173707D01*
X0912434Y0173707D01*
X0913616Y0173707D01*
X0913616Y0173707D01*
X0913656Y0192823D02*
X0912474Y0192823D01*
X0912474Y0192823D01*
X0913656Y0192823D01*
X0913656Y0192823D01*
X0628656Y0192823D02*
X0627474Y0192823D01*
X0627474Y0192823D01*
X0628656Y0192823D01*
X0628656Y0192823D01*
X0628616Y0173707D02*
X0627434Y0173707D01*
X0627434Y0173707D01*
X0628616Y0173707D01*
X0628616Y0173707D01*
X0343616Y0173707D02*
X0342434Y0173707D01*
X0342434Y0173707D01*
X0343616Y0173707D01*
X0343616Y0173707D01*
X0343656Y0192823D02*
X0342474Y0192823D01*
X0342474Y0192823D01*
X0343656Y0192823D01*
X0343656Y0192823D01*
X0058656Y0192823D02*
X0057474Y0192823D01*
X0057474Y0192823D01*
X0058656Y0192823D01*
X0058656Y0192823D01*
X0058616Y0173707D02*
X0057434Y0173707D01*
X0057434Y0173707D01*
X0058616Y0173707D01*
X0058616Y0173707D01*
D40*
X0048042Y0172864D02*
X0046466Y0172864D01*
X0046466Y0172864D01*
X0048042Y0172864D01*
X0048042Y0172864D01*
X0048035Y0193967D02*
X0046459Y0193967D01*
X0046459Y0193967D01*
X0048035Y0193967D01*
X0048035Y0193967D01*
X0331459Y0193967D02*
X0333035Y0193967D01*
X0331459Y0193967D02*
X0331459Y0193967D01*
X0333035Y0193967D01*
X0333035Y0193967D01*
X0333042Y0172864D02*
X0331466Y0172864D01*
X0331466Y0172864D01*
X0333042Y0172864D01*
X0333042Y0172864D01*
X0616466Y0172864D02*
X0618042Y0172864D01*
X0616466Y0172864D02*
X0616466Y0172864D01*
X0618042Y0172864D01*
X0618042Y0172864D01*
X0618035Y0193967D02*
X0616459Y0193967D01*
X0616459Y0193967D01*
X0618035Y0193967D01*
X0618035Y0193967D01*
X0901459Y0193967D02*
X0903035Y0193967D01*
X0901459Y0193967D02*
X0901459Y0193967D01*
X0903035Y0193967D01*
X0903035Y0193967D01*
X0903042Y0172864D02*
X0901466Y0172864D01*
X0901466Y0172864D01*
X0903042Y0172864D01*
X0903042Y0172864D01*
X1186466Y0172864D02*
X1188042Y0172864D01*
X1186466Y0172864D02*
X1186466Y0172864D01*
X1188042Y0172864D01*
X1188042Y0172864D01*
X1188035Y0193967D02*
X1186459Y0193967D01*
X1186459Y0193967D01*
X1188035Y0193967D01*
X1188035Y0193967D01*
X1188042Y0384864D02*
X1186466Y0384864D01*
X1186466Y0384864D01*
X1188042Y0384864D01*
X1188042Y0384864D01*
X1188035Y0405967D02*
X1186459Y0405967D01*
X1186459Y0405967D01*
X1188035Y0405967D01*
X1188035Y0405967D01*
X0903035Y0405967D02*
X0901459Y0405967D01*
X0901459Y0405967D01*
X0903035Y0405967D01*
X0903035Y0405967D01*
X0903042Y0384864D02*
X0901466Y0384864D01*
X0901466Y0384864D01*
X0903042Y0384864D01*
X0903042Y0384864D01*
X0618042Y0384864D02*
X0616466Y0384864D01*
X0616466Y0384864D01*
X0618042Y0384864D01*
X0618042Y0384864D01*
X0618035Y0405967D02*
X0616459Y0405967D01*
X0616459Y0405967D01*
X0618035Y0405967D01*
X0618035Y0405967D01*
X0333035Y0405967D02*
X0331459Y0405967D01*
X0331459Y0405967D01*
X0333035Y0405967D01*
X0333035Y0405967D01*
X0333042Y0384864D02*
X0331466Y0384864D01*
X0331466Y0384864D01*
X0333042Y0384864D01*
X0333042Y0384864D01*
X0048042Y0384864D02*
X0046466Y0384864D01*
X0046466Y0384864D01*
X0048042Y0384864D01*
X0048042Y0384864D01*
X0048035Y0405967D02*
X0046459Y0405967D01*
X0046459Y0405967D01*
X0048035Y0405967D01*
X0048035Y0405967D01*
X0048042Y0596864D02*
X0046466Y0596864D01*
X0046466Y0596864D01*
X0048042Y0596864D01*
X0048042Y0596864D01*
X0048035Y0617967D02*
X0046459Y0617967D01*
X0046459Y0617967D01*
X0048035Y0617967D01*
X0048035Y0617967D01*
X0331459Y0617967D02*
X0333035Y0617967D01*
X0331459Y0617967D02*
X0331459Y0617967D01*
X0333035Y0617967D01*
X0333035Y0617967D01*
X0333042Y0596864D02*
X0331466Y0596864D01*
X0331466Y0596864D01*
X0333042Y0596864D01*
X0333042Y0596864D01*
X0616466Y0596864D02*
X0618042Y0596864D01*
X0616466Y0596864D02*
X0616466Y0596864D01*
X0618042Y0596864D01*
X0618042Y0596864D01*
X0618035Y0617967D02*
X0616459Y0617967D01*
X0616459Y0617967D01*
X0618035Y0617967D01*
X0618035Y0617967D01*
X0901459Y0617967D02*
X0903035Y0617967D01*
X0901459Y0617967D02*
X0901459Y0617967D01*
X0903035Y0617967D01*
X0903035Y0617967D01*
X0903042Y0596864D02*
X0901466Y0596864D01*
X0901466Y0596864D01*
X0903042Y0596864D01*
X0903042Y0596864D01*
X1186466Y0596864D02*
X1188042Y0596864D01*
X1186466Y0596864D02*
X1186466Y0596864D01*
X1188042Y0596864D01*
X1188042Y0596864D01*
X1188035Y0617967D02*
X1186459Y0617967D01*
X1186459Y0617967D01*
X1188035Y0617967D01*
X1188035Y0617967D01*
D41*
X1187285Y0618101D03*
X1186632Y0618101D03*
X1185848Y0618105D03*
X1185198Y0618105D03*
X1185198Y0596609D03*
X1185860Y0596609D03*
X1186620Y0596605D03*
X1187285Y0596601D03*
X0902285Y0596601D03*
X0901620Y0596605D03*
X0900860Y0596609D03*
X0900198Y0596609D03*
X0900198Y0618105D03*
X0900848Y0618105D03*
X0901632Y0618101D03*
X0902285Y0618101D03*
X0617285Y0618101D03*
X0616632Y0618101D03*
X0615848Y0618105D03*
X0615198Y0618105D03*
X0615198Y0596609D03*
X0615860Y0596609D03*
X0616620Y0596605D03*
X0617285Y0596601D03*
X0332285Y0596601D03*
X0331620Y0596605D03*
X0330860Y0596609D03*
X0330198Y0596609D03*
X0330198Y0618105D03*
X0330848Y0618105D03*
X0331632Y0618101D03*
X0332285Y0618101D03*
X0047285Y0618101D03*
X0046632Y0618101D03*
X0045848Y0618105D03*
X0045198Y0618105D03*
X0045198Y0596609D03*
X0045860Y0596609D03*
X0046620Y0596605D03*
X0047285Y0596601D03*
X0047285Y0406101D03*
X0046632Y0406101D03*
X0045848Y0406105D03*
X0045198Y0406105D03*
X0045198Y0384609D03*
X0045860Y0384609D03*
X0046620Y0384605D03*
X0047285Y0384601D03*
X0330198Y0384609D03*
X0330860Y0384609D03*
X0331620Y0384605D03*
X0332285Y0384601D03*
X0332285Y0406101D03*
X0331632Y0406101D03*
X0330848Y0406105D03*
X0330198Y0406105D03*
X0615198Y0406105D03*
X0615848Y0406105D03*
X0616632Y0406101D03*
X0617285Y0406101D03*
X0617285Y0384601D03*
X0616620Y0384605D03*
X0615860Y0384609D03*
X0615198Y0384609D03*
X0900198Y0384609D03*
X0900860Y0384609D03*
X0901620Y0384605D03*
X0902285Y0384601D03*
X0902285Y0406101D03*
X0901632Y0406101D03*
X0900848Y0406105D03*
X0900198Y0406105D03*
X1185198Y0406105D03*
X1185848Y0406105D03*
X1186632Y0406101D03*
X1187285Y0406101D03*
X1187285Y0384601D03*
X1186620Y0384605D03*
X1185860Y0384609D03*
X1185198Y0384609D03*
X1185198Y0194105D03*
X1185848Y0194105D03*
X1186632Y0194101D03*
X1187285Y0194101D03*
X1187285Y0172601D03*
X1186620Y0172605D03*
X1185860Y0172609D03*
X1185198Y0172609D03*
X0902285Y0172601D03*
X0901620Y0172605D03*
X0900860Y0172609D03*
X0900198Y0172609D03*
X0900198Y0194105D03*
X0900848Y0194105D03*
X0901632Y0194101D03*
X0902285Y0194101D03*
X0617285Y0194101D03*
X0616632Y0194101D03*
X0615848Y0194105D03*
X0615198Y0194105D03*
X0615198Y0172609D03*
X0615860Y0172609D03*
X0616620Y0172605D03*
X0617285Y0172601D03*
X0332285Y0172601D03*
X0331620Y0172605D03*
X0330860Y0172609D03*
X0330198Y0172609D03*
X0330198Y0194105D03*
X0330848Y0194105D03*
X0331632Y0194101D03*
X0332285Y0194101D03*
X0047285Y0194101D03*
X0046632Y0194101D03*
X0045848Y0194105D03*
X0045198Y0194105D03*
X0045198Y0172609D03*
X0045860Y0172609D03*
X0046620Y0172605D03*
X0047285Y0172601D03*
D42*
X0044430Y0169870D02*
X0051325Y0169870D01*
X0051325Y0167870D01*
X0054630Y0167870D01*
X0054630Y0175970D01*
X0044230Y0175870D01*
X0043909Y0175823D01*
X0043606Y0175705D01*
X0043337Y0175522D01*
X0043115Y0175285D01*
X0042952Y0175004D01*
X0042855Y0174694D01*
X0042830Y0174370D01*
X0042830Y0171370D01*
X0042880Y0171026D01*
X0043005Y0170702D01*
X0043199Y0170415D01*
X0043453Y0170177D01*
X0043753Y0170002D01*
X0044084Y0169898D01*
X0044430Y0169870D01*
X0043849Y0169972D02*
X0054630Y0169972D01*
X0054630Y0170370D02*
X0043247Y0170370D01*
X0042980Y0170769D02*
X0054630Y0170769D01*
X0054630Y0171167D02*
X0042860Y0171167D01*
X0042830Y0171566D02*
X0054630Y0171566D01*
X0054630Y0171964D02*
X0042830Y0171964D01*
X0042830Y0172363D02*
X0054630Y0172363D01*
X0054630Y0172761D02*
X0042830Y0172761D01*
X0042830Y0173160D02*
X0054630Y0173160D01*
X0054630Y0173558D02*
X0042830Y0173558D01*
X0042830Y0173957D02*
X0054630Y0173957D01*
X0054630Y0174355D02*
X0042830Y0174355D01*
X0042874Y0174754D02*
X0054630Y0174754D01*
X0054630Y0175152D02*
X0043038Y0175152D01*
X0043378Y0175551D02*
X0054630Y0175551D01*
X0054630Y0175949D02*
X0052465Y0175949D01*
X0051325Y0169573D02*
X0054630Y0169573D01*
X0054630Y0169174D02*
X0051325Y0169174D01*
X0051325Y0168776D02*
X0054630Y0168776D01*
X0054630Y0168377D02*
X0051325Y0168377D01*
X0051325Y0167979D02*
X0054630Y0167979D01*
X0054630Y0190870D02*
X0051230Y0190870D01*
X0044830Y0190970D01*
X0044330Y0190970D01*
X0044006Y0190995D01*
X0043696Y0191092D01*
X0043415Y0191255D01*
X0043178Y0191477D01*
X0042995Y0191746D01*
X0042877Y0192049D01*
X0042830Y0192370D01*
X0042830Y0195270D01*
X0042858Y0195616D01*
X0042962Y0195947D01*
X0043137Y0196247D01*
X0043374Y0196501D01*
X0043662Y0196695D01*
X0043986Y0196820D01*
X0044330Y0196870D01*
X0051286Y0196850D01*
X0051286Y0198750D01*
X0054630Y0198770D01*
X0054630Y0190870D01*
X0054630Y0191093D02*
X0043695Y0191093D01*
X0043168Y0191491D02*
X0054630Y0191491D01*
X0054630Y0191890D02*
X0042939Y0191890D01*
X0042842Y0192288D02*
X0054630Y0192288D01*
X0054630Y0192687D02*
X0042830Y0192687D01*
X0042830Y0193085D02*
X0054630Y0193085D01*
X0054630Y0193484D02*
X0042830Y0193484D01*
X0042830Y0193882D02*
X0054630Y0193882D01*
X0054630Y0194281D02*
X0042830Y0194281D01*
X0042830Y0194679D02*
X0054630Y0194679D01*
X0054630Y0195078D02*
X0042830Y0195078D01*
X0042847Y0195476D02*
X0054630Y0195476D01*
X0054630Y0195875D02*
X0042939Y0195875D01*
X0043161Y0196273D02*
X0054630Y0196273D01*
X0054630Y0196672D02*
X0043628Y0196672D01*
X0051286Y0197070D02*
X0054630Y0197070D01*
X0054630Y0197469D02*
X0051286Y0197469D01*
X0051286Y0197867D02*
X0054630Y0197867D01*
X0054630Y0198266D02*
X0051286Y0198266D01*
X0051286Y0198664D02*
X0054630Y0198664D01*
X0327830Y0195270D02*
X0327830Y0192370D01*
X0327877Y0192049D01*
X0327995Y0191746D01*
X0328178Y0191477D01*
X0328415Y0191255D01*
X0328696Y0191092D01*
X0329006Y0190995D01*
X0329330Y0190970D01*
X0329830Y0190970D01*
X0336230Y0190870D01*
X0339630Y0190870D01*
X0339630Y0198770D01*
X0336286Y0198750D01*
X0336286Y0196850D01*
X0329330Y0196870D01*
X0328986Y0196820D01*
X0328662Y0196695D01*
X0328374Y0196501D01*
X0328137Y0196247D01*
X0327962Y0195947D01*
X0327858Y0195616D01*
X0327830Y0195270D01*
X0327830Y0195078D02*
X0339630Y0195078D01*
X0339630Y0195476D02*
X0327847Y0195476D01*
X0327939Y0195875D02*
X0339630Y0195875D01*
X0339630Y0196273D02*
X0328161Y0196273D01*
X0328628Y0196672D02*
X0339630Y0196672D01*
X0339630Y0197070D02*
X0336286Y0197070D01*
X0336286Y0197469D02*
X0339630Y0197469D01*
X0339630Y0197867D02*
X0336286Y0197867D01*
X0336286Y0198266D02*
X0339630Y0198266D01*
X0339630Y0198664D02*
X0336286Y0198664D01*
X0339630Y0194679D02*
X0327830Y0194679D01*
X0327830Y0194281D02*
X0339630Y0194281D01*
X0339630Y0193882D02*
X0327830Y0193882D01*
X0327830Y0193484D02*
X0339630Y0193484D01*
X0339630Y0193085D02*
X0327830Y0193085D01*
X0327830Y0192687D02*
X0339630Y0192687D01*
X0339630Y0192288D02*
X0327842Y0192288D01*
X0327939Y0191890D02*
X0339630Y0191890D01*
X0339630Y0191491D02*
X0328168Y0191491D01*
X0328695Y0191093D02*
X0339630Y0191093D01*
X0339630Y0175970D02*
X0329230Y0175870D01*
X0328909Y0175823D01*
X0328606Y0175705D01*
X0328337Y0175522D01*
X0328115Y0175285D01*
X0327952Y0175004D01*
X0327855Y0174694D01*
X0327830Y0174370D01*
X0327830Y0171370D01*
X0327880Y0171026D01*
X0328005Y0170702D01*
X0328199Y0170415D01*
X0328453Y0170177D01*
X0328753Y0170002D01*
X0329084Y0169898D01*
X0329430Y0169870D01*
X0336325Y0169870D01*
X0336325Y0167870D01*
X0339630Y0167870D01*
X0339630Y0175970D01*
X0339630Y0175949D02*
X0337465Y0175949D01*
X0339630Y0175551D02*
X0328378Y0175551D01*
X0328038Y0175152D02*
X0339630Y0175152D01*
X0339630Y0174754D02*
X0327874Y0174754D01*
X0327830Y0174355D02*
X0339630Y0174355D01*
X0339630Y0173957D02*
X0327830Y0173957D01*
X0327830Y0173558D02*
X0339630Y0173558D01*
X0339630Y0173160D02*
X0327830Y0173160D01*
X0327830Y0172761D02*
X0339630Y0172761D01*
X0339630Y0172363D02*
X0327830Y0172363D01*
X0327830Y0171964D02*
X0339630Y0171964D01*
X0339630Y0171566D02*
X0327830Y0171566D01*
X0327860Y0171167D02*
X0339630Y0171167D01*
X0339630Y0170769D02*
X0327980Y0170769D01*
X0328247Y0170370D02*
X0339630Y0170370D01*
X0339630Y0169972D02*
X0328849Y0169972D01*
X0336325Y0169573D02*
X0339630Y0169573D01*
X0339630Y0169174D02*
X0336325Y0169174D01*
X0336325Y0168776D02*
X0339630Y0168776D01*
X0339630Y0168377D02*
X0336325Y0168377D01*
X0336325Y0167979D02*
X0339630Y0167979D01*
X0612830Y0171370D02*
X0612830Y0174370D01*
X0612855Y0174694D01*
X0612952Y0175004D01*
X0613115Y0175285D01*
X0613337Y0175522D01*
X0613606Y0175705D01*
X0613909Y0175823D01*
X0614230Y0175870D01*
X0624630Y0175970D01*
X0624630Y0167870D01*
X0621325Y0167870D01*
X0621325Y0169870D01*
X0614430Y0169870D01*
X0614084Y0169898D01*
X0613753Y0170002D01*
X0613453Y0170177D01*
X0613199Y0170415D01*
X0613005Y0170702D01*
X0612880Y0171026D01*
X0612830Y0171370D01*
X0612830Y0171566D02*
X0624630Y0171566D01*
X0624630Y0171964D02*
X0612830Y0171964D01*
X0612830Y0172363D02*
X0624630Y0172363D01*
X0624630Y0172761D02*
X0612830Y0172761D01*
X0612830Y0173160D02*
X0624630Y0173160D01*
X0624630Y0173558D02*
X0612830Y0173558D01*
X0612830Y0173957D02*
X0624630Y0173957D01*
X0624630Y0174355D02*
X0612830Y0174355D01*
X0612874Y0174754D02*
X0624630Y0174754D01*
X0624630Y0175152D02*
X0613038Y0175152D01*
X0613378Y0175551D02*
X0624630Y0175551D01*
X0624630Y0175949D02*
X0622465Y0175949D01*
X0624630Y0171167D02*
X0612860Y0171167D01*
X0612980Y0170769D02*
X0624630Y0170769D01*
X0624630Y0170370D02*
X0613247Y0170370D01*
X0613849Y0169972D02*
X0624630Y0169972D01*
X0624630Y0169573D02*
X0621325Y0169573D01*
X0621325Y0169174D02*
X0624630Y0169174D01*
X0624630Y0168776D02*
X0621325Y0168776D01*
X0621325Y0168377D02*
X0624630Y0168377D01*
X0624630Y0167979D02*
X0621325Y0167979D01*
X0621230Y0190870D02*
X0614830Y0190970D01*
X0614330Y0190970D01*
X0614006Y0190995D01*
X0613696Y0191092D01*
X0613415Y0191255D01*
X0613178Y0191477D01*
X0612995Y0191746D01*
X0612877Y0192049D01*
X0612830Y0192370D01*
X0612830Y0195270D01*
X0612858Y0195616D01*
X0612962Y0195947D01*
X0613137Y0196247D01*
X0613374Y0196501D01*
X0613662Y0196695D01*
X0613986Y0196820D01*
X0614330Y0196870D01*
X0621286Y0196850D01*
X0621286Y0198750D01*
X0624630Y0198770D01*
X0624630Y0190870D01*
X0621230Y0190870D01*
X0624630Y0191093D02*
X0613695Y0191093D01*
X0613168Y0191491D02*
X0624630Y0191491D01*
X0624630Y0191890D02*
X0612939Y0191890D01*
X0612842Y0192288D02*
X0624630Y0192288D01*
X0624630Y0192687D02*
X0612830Y0192687D01*
X0612830Y0193085D02*
X0624630Y0193085D01*
X0624630Y0193484D02*
X0612830Y0193484D01*
X0612830Y0193882D02*
X0624630Y0193882D01*
X0624630Y0194281D02*
X0612830Y0194281D01*
X0612830Y0194679D02*
X0624630Y0194679D01*
X0624630Y0195078D02*
X0612830Y0195078D01*
X0612847Y0195476D02*
X0624630Y0195476D01*
X0624630Y0195875D02*
X0612939Y0195875D01*
X0613161Y0196273D02*
X0624630Y0196273D01*
X0624630Y0196672D02*
X0613628Y0196672D01*
X0621286Y0197070D02*
X0624630Y0197070D01*
X0624630Y0197469D02*
X0621286Y0197469D01*
X0621286Y0197867D02*
X0624630Y0197867D01*
X0624630Y0198266D02*
X0621286Y0198266D01*
X0621286Y0198664D02*
X0624630Y0198664D01*
X0897830Y0195270D02*
X0897830Y0192370D01*
X0897877Y0192049D01*
X0897995Y0191746D01*
X0898178Y0191477D01*
X0898415Y0191255D01*
X0898696Y0191092D01*
X0899006Y0190995D01*
X0899330Y0190970D01*
X0899830Y0190970D01*
X0906230Y0190870D01*
X0909630Y0190870D01*
X0909630Y0198770D01*
X0906286Y0198750D01*
X0906286Y0196850D01*
X0899330Y0196870D01*
X0898986Y0196820D01*
X0898662Y0196695D01*
X0898374Y0196501D01*
X0898137Y0196247D01*
X0897962Y0195947D01*
X0897858Y0195616D01*
X0897830Y0195270D01*
X0897830Y0195078D02*
X0909630Y0195078D01*
X0909630Y0195476D02*
X0897847Y0195476D01*
X0897939Y0195875D02*
X0909630Y0195875D01*
X0909630Y0196273D02*
X0898161Y0196273D01*
X0898628Y0196672D02*
X0909630Y0196672D01*
X0909630Y0197070D02*
X0906286Y0197070D01*
X0906286Y0197469D02*
X0909630Y0197469D01*
X0909630Y0197867D02*
X0906286Y0197867D01*
X0906286Y0198266D02*
X0909630Y0198266D01*
X0909630Y0198664D02*
X0906286Y0198664D01*
X0909630Y0194679D02*
X0897830Y0194679D01*
X0897830Y0194281D02*
X0909630Y0194281D01*
X0909630Y0193882D02*
X0897830Y0193882D01*
X0897830Y0193484D02*
X0909630Y0193484D01*
X0909630Y0193085D02*
X0897830Y0193085D01*
X0897830Y0192687D02*
X0909630Y0192687D01*
X0909630Y0192288D02*
X0897842Y0192288D01*
X0897939Y0191890D02*
X0909630Y0191890D01*
X0909630Y0191491D02*
X0898168Y0191491D01*
X0898695Y0191093D02*
X0909630Y0191093D01*
X0909630Y0175970D02*
X0899230Y0175870D01*
X0898909Y0175823D01*
X0898606Y0175705D01*
X0898337Y0175522D01*
X0898115Y0175285D01*
X0897952Y0175004D01*
X0897855Y0174694D01*
X0897830Y0174370D01*
X0897830Y0171370D01*
X0897880Y0171026D01*
X0898005Y0170702D01*
X0898199Y0170415D01*
X0898453Y0170177D01*
X0898753Y0170002D01*
X0899084Y0169898D01*
X0899430Y0169870D01*
X0906325Y0169870D01*
X0906325Y0167870D01*
X0909630Y0167870D01*
X0909630Y0175970D01*
X0909630Y0175949D02*
X0907465Y0175949D01*
X0909630Y0175551D02*
X0898378Y0175551D01*
X0898038Y0175152D02*
X0909630Y0175152D01*
X0909630Y0174754D02*
X0897874Y0174754D01*
X0897830Y0174355D02*
X0909630Y0174355D01*
X0909630Y0173957D02*
X0897830Y0173957D01*
X0897830Y0173558D02*
X0909630Y0173558D01*
X0909630Y0173160D02*
X0897830Y0173160D01*
X0897830Y0172761D02*
X0909630Y0172761D01*
X0909630Y0172363D02*
X0897830Y0172363D01*
X0897830Y0171964D02*
X0909630Y0171964D01*
X0909630Y0171566D02*
X0897830Y0171566D01*
X0897860Y0171167D02*
X0909630Y0171167D01*
X0909630Y0170769D02*
X0897980Y0170769D01*
X0898247Y0170370D02*
X0909630Y0170370D01*
X0909630Y0169972D02*
X0898849Y0169972D01*
X0906325Y0169573D02*
X0909630Y0169573D01*
X0909630Y0169174D02*
X0906325Y0169174D01*
X0906325Y0168776D02*
X0909630Y0168776D01*
X0909630Y0168377D02*
X0906325Y0168377D01*
X0906325Y0167979D02*
X0909630Y0167979D01*
X1182830Y0171370D02*
X1182830Y0174370D01*
X1182855Y0174694D01*
X1182952Y0175004D01*
X1183115Y0175285D01*
X1183337Y0175522D01*
X1183606Y0175705D01*
X1183909Y0175823D01*
X1184230Y0175870D01*
X1194630Y0175970D01*
X1194630Y0167870D01*
X1191325Y0167870D01*
X1191325Y0169870D01*
X1184430Y0169870D01*
X1184084Y0169898D01*
X1183753Y0170002D01*
X1183453Y0170177D01*
X1183199Y0170415D01*
X1183005Y0170702D01*
X1182880Y0171026D01*
X1182830Y0171370D01*
X1182830Y0171566D02*
X1194630Y0171566D01*
X1194630Y0171964D02*
X1182830Y0171964D01*
X1182830Y0172363D02*
X1194630Y0172363D01*
X1194630Y0172761D02*
X1182830Y0172761D01*
X1182830Y0173160D02*
X1194630Y0173160D01*
X1194630Y0173558D02*
X1182830Y0173558D01*
X1182830Y0173957D02*
X1194630Y0173957D01*
X1194630Y0174355D02*
X1182830Y0174355D01*
X1182874Y0174754D02*
X1194630Y0174754D01*
X1194630Y0175152D02*
X1183038Y0175152D01*
X1183378Y0175551D02*
X1194630Y0175551D01*
X1194630Y0175949D02*
X1192465Y0175949D01*
X1194630Y0171167D02*
X1182860Y0171167D01*
X1182980Y0170769D02*
X1194630Y0170769D01*
X1194630Y0170370D02*
X1183247Y0170370D01*
X1183849Y0169972D02*
X1194630Y0169972D01*
X1194630Y0169573D02*
X1191325Y0169573D01*
X1191325Y0169174D02*
X1194630Y0169174D01*
X1194630Y0168776D02*
X1191325Y0168776D01*
X1191325Y0168377D02*
X1194630Y0168377D01*
X1194630Y0167979D02*
X1191325Y0167979D01*
X1191230Y0190870D02*
X1184830Y0190970D01*
X1184330Y0190970D01*
X1184006Y0190995D01*
X1183696Y0191092D01*
X1183415Y0191255D01*
X1183178Y0191477D01*
X1182995Y0191746D01*
X1182877Y0192049D01*
X1182830Y0192370D01*
X1182830Y0195270D01*
X1182858Y0195616D01*
X1182962Y0195947D01*
X1183137Y0196247D01*
X1183374Y0196501D01*
X1183662Y0196695D01*
X1183986Y0196820D01*
X1184330Y0196870D01*
X1191286Y0196850D01*
X1191286Y0198750D01*
X1194630Y0198770D01*
X1194630Y0190870D01*
X1191230Y0190870D01*
X1194630Y0191093D02*
X1183695Y0191093D01*
X1183168Y0191491D02*
X1194630Y0191491D01*
X1194630Y0191890D02*
X1182939Y0191890D01*
X1182842Y0192288D02*
X1194630Y0192288D01*
X1194630Y0192687D02*
X1182830Y0192687D01*
X1182830Y0193085D02*
X1194630Y0193085D01*
X1194630Y0193484D02*
X1182830Y0193484D01*
X1182830Y0193882D02*
X1194630Y0193882D01*
X1194630Y0194281D02*
X1182830Y0194281D01*
X1182830Y0194679D02*
X1194630Y0194679D01*
X1194630Y0195078D02*
X1182830Y0195078D01*
X1182847Y0195476D02*
X1194630Y0195476D01*
X1194630Y0195875D02*
X1182939Y0195875D01*
X1183161Y0196273D02*
X1194630Y0196273D01*
X1194630Y0196672D02*
X1183628Y0196672D01*
X1191286Y0197070D02*
X1194630Y0197070D01*
X1194630Y0197469D02*
X1191286Y0197469D01*
X1191286Y0197867D02*
X1194630Y0197867D01*
X1194630Y0198266D02*
X1191286Y0198266D01*
X1191286Y0198664D02*
X1194630Y0198664D01*
X1194630Y0379870D02*
X1191325Y0379870D01*
X1191325Y0381870D01*
X1184430Y0381870D01*
X1184084Y0381898D01*
X1183753Y0382002D01*
X1183453Y0382177D01*
X1183199Y0382415D01*
X1183005Y0382702D01*
X1182880Y0383026D01*
X1182830Y0383370D01*
X1182830Y0386370D01*
X1182855Y0386694D01*
X1182952Y0387004D01*
X1183115Y0387285D01*
X1183337Y0387522D01*
X1183606Y0387705D01*
X1183909Y0387823D01*
X1184230Y0387870D01*
X1194630Y0387970D01*
X1194630Y0379870D01*
X1194630Y0379987D02*
X1191325Y0379987D01*
X1191325Y0380385D02*
X1194630Y0380385D01*
X1194630Y0380784D02*
X1191325Y0380784D01*
X1191325Y0381183D02*
X1194630Y0381183D01*
X1194630Y0381581D02*
X1191325Y0381581D01*
X1194630Y0381980D02*
X1183823Y0381980D01*
X1183238Y0382378D02*
X1194630Y0382378D01*
X1194630Y0382777D02*
X1182977Y0382777D01*
X1182858Y0383175D02*
X1194630Y0383175D01*
X1194630Y0383574D02*
X1182830Y0383574D01*
X1182830Y0383972D02*
X1194630Y0383972D01*
X1194630Y0384371D02*
X1182830Y0384371D01*
X1182830Y0384769D02*
X1194630Y0384769D01*
X1194630Y0385168D02*
X1182830Y0385168D01*
X1182830Y0385566D02*
X1194630Y0385566D01*
X1194630Y0385965D02*
X1182830Y0385965D01*
X1182830Y0386363D02*
X1194630Y0386363D01*
X1194630Y0386762D02*
X1182876Y0386762D01*
X1183043Y0387160D02*
X1194630Y0387160D01*
X1194630Y0387559D02*
X1183390Y0387559D01*
X1193299Y0387957D02*
X1194630Y0387957D01*
X1194630Y0402870D02*
X1191230Y0402870D01*
X1184830Y0402970D01*
X1184330Y0402970D01*
X1184006Y0402995D01*
X1183696Y0403092D01*
X1183415Y0403255D01*
X1183178Y0403477D01*
X1182995Y0403746D01*
X1182877Y0404049D01*
X1182830Y0404370D01*
X1182830Y0407270D01*
X1182858Y0407616D01*
X1182962Y0407947D01*
X1183137Y0408247D01*
X1183374Y0408501D01*
X1183662Y0408695D01*
X1183986Y0408820D01*
X1184330Y0408870D01*
X1191286Y0408850D01*
X1191286Y0410750D01*
X1194630Y0410770D01*
X1194630Y0402870D01*
X1194630Y0403101D02*
X1183681Y0403101D01*
X1183162Y0403499D02*
X1194630Y0403499D01*
X1194630Y0403898D02*
X1182936Y0403898D01*
X1182841Y0404296D02*
X1194630Y0404296D01*
X1194630Y0404695D02*
X1182830Y0404695D01*
X1182830Y0405093D02*
X1194630Y0405093D01*
X1194630Y0405492D02*
X1182830Y0405492D01*
X1182830Y0405890D02*
X1194630Y0405890D01*
X1194630Y0406289D02*
X1182830Y0406289D01*
X1182830Y0406687D02*
X1194630Y0406687D01*
X1194630Y0407086D02*
X1182830Y0407086D01*
X1182847Y0407484D02*
X1194630Y0407484D01*
X1194630Y0407883D02*
X1182941Y0407883D01*
X1183169Y0408281D02*
X1194630Y0408281D01*
X1194630Y0408680D02*
X1183640Y0408680D01*
X1191286Y0409078D02*
X1194630Y0409078D01*
X1194630Y0409477D02*
X1191286Y0409477D01*
X1191286Y0409875D02*
X1194630Y0409875D01*
X1194630Y0410274D02*
X1191286Y0410274D01*
X1191286Y0410672D02*
X1194630Y0410672D01*
X0909630Y0410672D02*
X0906286Y0410672D01*
X0906286Y0410750D02*
X0909630Y0410770D01*
X0909630Y0402870D01*
X0906230Y0402870D01*
X0899830Y0402970D01*
X0899330Y0402970D01*
X0899006Y0402995D01*
X0898696Y0403092D01*
X0898415Y0403255D01*
X0898178Y0403477D01*
X0897995Y0403746D01*
X0897877Y0404049D01*
X0897830Y0404370D01*
X0897830Y0407270D01*
X0897858Y0407616D01*
X0897962Y0407947D01*
X0898137Y0408247D01*
X0898374Y0408501D01*
X0898662Y0408695D01*
X0898986Y0408820D01*
X0899330Y0408870D01*
X0906286Y0408850D01*
X0906286Y0410750D01*
X0906286Y0410274D02*
X0909630Y0410274D01*
X0909630Y0409875D02*
X0906286Y0409875D01*
X0906286Y0409477D02*
X0909630Y0409477D01*
X0909630Y0409078D02*
X0906286Y0409078D01*
X0909630Y0408680D02*
X0898640Y0408680D01*
X0898169Y0408281D02*
X0909630Y0408281D01*
X0909630Y0407883D02*
X0897941Y0407883D01*
X0897847Y0407484D02*
X0909630Y0407484D01*
X0909630Y0407086D02*
X0897830Y0407086D01*
X0897830Y0406687D02*
X0909630Y0406687D01*
X0909630Y0406289D02*
X0897830Y0406289D01*
X0897830Y0405890D02*
X0909630Y0405890D01*
X0909630Y0405492D02*
X0897830Y0405492D01*
X0897830Y0405093D02*
X0909630Y0405093D01*
X0909630Y0404695D02*
X0897830Y0404695D01*
X0897841Y0404296D02*
X0909630Y0404296D01*
X0909630Y0403898D02*
X0897936Y0403898D01*
X0898162Y0403499D02*
X0909630Y0403499D01*
X0909630Y0403101D02*
X0898681Y0403101D01*
X0899230Y0387870D02*
X0909630Y0387970D01*
X0909630Y0379870D01*
X0906325Y0379870D01*
X0906325Y0381870D01*
X0899430Y0381870D01*
X0899084Y0381898D01*
X0898753Y0382002D01*
X0898453Y0382177D01*
X0898199Y0382415D01*
X0898005Y0382702D01*
X0897880Y0383026D01*
X0897830Y0383370D01*
X0897830Y0386370D01*
X0897855Y0386694D01*
X0897952Y0387004D01*
X0898115Y0387285D01*
X0898337Y0387522D01*
X0898606Y0387705D01*
X0898909Y0387823D01*
X0899230Y0387870D01*
X0898390Y0387559D02*
X0909630Y0387559D01*
X0909630Y0387957D02*
X0908299Y0387957D01*
X0909630Y0387160D02*
X0898043Y0387160D01*
X0897876Y0386762D02*
X0909630Y0386762D01*
X0909630Y0386363D02*
X0897830Y0386363D01*
X0897830Y0385965D02*
X0909630Y0385965D01*
X0909630Y0385566D02*
X0897830Y0385566D01*
X0897830Y0385168D02*
X0909630Y0385168D01*
X0909630Y0384769D02*
X0897830Y0384769D01*
X0897830Y0384371D02*
X0909630Y0384371D01*
X0909630Y0383972D02*
X0897830Y0383972D01*
X0897830Y0383574D02*
X0909630Y0383574D01*
X0909630Y0383175D02*
X0897858Y0383175D01*
X0897977Y0382777D02*
X0909630Y0382777D01*
X0909630Y0382378D02*
X0898238Y0382378D01*
X0898823Y0381980D02*
X0909630Y0381980D01*
X0909630Y0381581D02*
X0906325Y0381581D01*
X0906325Y0381183D02*
X0909630Y0381183D01*
X0909630Y0380784D02*
X0906325Y0380784D01*
X0906325Y0380385D02*
X0909630Y0380385D01*
X0909630Y0379987D02*
X0906325Y0379987D01*
X0624630Y0379987D02*
X0621325Y0379987D01*
X0621325Y0379870D02*
X0621325Y0381870D01*
X0614430Y0381870D01*
X0614084Y0381898D01*
X0613753Y0382002D01*
X0613453Y0382177D01*
X0613199Y0382415D01*
X0613005Y0382702D01*
X0612880Y0383026D01*
X0612830Y0383370D01*
X0612830Y0386370D01*
X0612855Y0386694D01*
X0612952Y0387004D01*
X0613115Y0387285D01*
X0613337Y0387522D01*
X0613606Y0387705D01*
X0613909Y0387823D01*
X0614230Y0387870D01*
X0624630Y0387970D01*
X0624630Y0379870D01*
X0621325Y0379870D01*
X0621325Y0380385D02*
X0624630Y0380385D01*
X0624630Y0380784D02*
X0621325Y0380784D01*
X0621325Y0381183D02*
X0624630Y0381183D01*
X0624630Y0381581D02*
X0621325Y0381581D01*
X0624630Y0381980D02*
X0613823Y0381980D01*
X0613238Y0382378D02*
X0624630Y0382378D01*
X0624630Y0382777D02*
X0612977Y0382777D01*
X0612858Y0383175D02*
X0624630Y0383175D01*
X0624630Y0383574D02*
X0612830Y0383574D01*
X0612830Y0383972D02*
X0624630Y0383972D01*
X0624630Y0384371D02*
X0612830Y0384371D01*
X0612830Y0384769D02*
X0624630Y0384769D01*
X0624630Y0385168D02*
X0612830Y0385168D01*
X0612830Y0385566D02*
X0624630Y0385566D01*
X0624630Y0385965D02*
X0612830Y0385965D01*
X0612830Y0386363D02*
X0624630Y0386363D01*
X0624630Y0386762D02*
X0612876Y0386762D01*
X0613043Y0387160D02*
X0624630Y0387160D01*
X0624630Y0387559D02*
X0613390Y0387559D01*
X0623299Y0387957D02*
X0624630Y0387957D01*
X0624630Y0402870D02*
X0621230Y0402870D01*
X0614830Y0402970D01*
X0614330Y0402970D01*
X0614006Y0402995D01*
X0613696Y0403092D01*
X0613415Y0403255D01*
X0613178Y0403477D01*
X0612995Y0403746D01*
X0612877Y0404049D01*
X0612830Y0404370D01*
X0612830Y0407270D01*
X0612858Y0407616D01*
X0612962Y0407947D01*
X0613137Y0408247D01*
X0613374Y0408501D01*
X0613662Y0408695D01*
X0613986Y0408820D01*
X0614330Y0408870D01*
X0621286Y0408850D01*
X0621286Y0410750D01*
X0624630Y0410770D01*
X0624630Y0402870D01*
X0624630Y0403101D02*
X0613681Y0403101D01*
X0613162Y0403499D02*
X0624630Y0403499D01*
X0624630Y0403898D02*
X0612936Y0403898D01*
X0612841Y0404296D02*
X0624630Y0404296D01*
X0624630Y0404695D02*
X0612830Y0404695D01*
X0612830Y0405093D02*
X0624630Y0405093D01*
X0624630Y0405492D02*
X0612830Y0405492D01*
X0612830Y0405890D02*
X0624630Y0405890D01*
X0624630Y0406289D02*
X0612830Y0406289D01*
X0612830Y0406687D02*
X0624630Y0406687D01*
X0624630Y0407086D02*
X0612830Y0407086D01*
X0612847Y0407484D02*
X0624630Y0407484D01*
X0624630Y0407883D02*
X0612941Y0407883D01*
X0613169Y0408281D02*
X0624630Y0408281D01*
X0624630Y0408680D02*
X0613640Y0408680D01*
X0621286Y0409078D02*
X0624630Y0409078D01*
X0624630Y0409477D02*
X0621286Y0409477D01*
X0621286Y0409875D02*
X0624630Y0409875D01*
X0624630Y0410274D02*
X0621286Y0410274D01*
X0621286Y0410672D02*
X0624630Y0410672D01*
X0339630Y0410672D02*
X0336286Y0410672D01*
X0336286Y0410750D02*
X0339630Y0410770D01*
X0339630Y0402870D01*
X0336230Y0402870D01*
X0329830Y0402970D01*
X0329330Y0402970D01*
X0329006Y0402995D01*
X0328696Y0403092D01*
X0328415Y0403255D01*
X0328178Y0403477D01*
X0327995Y0403746D01*
X0327877Y0404049D01*
X0327830Y0404370D01*
X0327830Y0407270D01*
X0327858Y0407616D01*
X0327962Y0407947D01*
X0328137Y0408247D01*
X0328374Y0408501D01*
X0328662Y0408695D01*
X0328986Y0408820D01*
X0329330Y0408870D01*
X0336286Y0408850D01*
X0336286Y0410750D01*
X0336286Y0410274D02*
X0339630Y0410274D01*
X0339630Y0409875D02*
X0336286Y0409875D01*
X0336286Y0409477D02*
X0339630Y0409477D01*
X0339630Y0409078D02*
X0336286Y0409078D01*
X0339630Y0408680D02*
X0328640Y0408680D01*
X0328169Y0408281D02*
X0339630Y0408281D01*
X0339630Y0407883D02*
X0327941Y0407883D01*
X0327847Y0407484D02*
X0339630Y0407484D01*
X0339630Y0407086D02*
X0327830Y0407086D01*
X0327830Y0406687D02*
X0339630Y0406687D01*
X0339630Y0406289D02*
X0327830Y0406289D01*
X0327830Y0405890D02*
X0339630Y0405890D01*
X0339630Y0405492D02*
X0327830Y0405492D01*
X0327830Y0405093D02*
X0339630Y0405093D01*
X0339630Y0404695D02*
X0327830Y0404695D01*
X0327841Y0404296D02*
X0339630Y0404296D01*
X0339630Y0403898D02*
X0327936Y0403898D01*
X0328162Y0403499D02*
X0339630Y0403499D01*
X0339630Y0403101D02*
X0328681Y0403101D01*
X0329230Y0387870D02*
X0339630Y0387970D01*
X0339630Y0379870D01*
X0336325Y0379870D01*
X0336325Y0381870D01*
X0329430Y0381870D01*
X0329084Y0381898D01*
X0328753Y0382002D01*
X0328453Y0382177D01*
X0328199Y0382415D01*
X0328005Y0382702D01*
X0327880Y0383026D01*
X0327830Y0383370D01*
X0327830Y0386370D01*
X0327855Y0386694D01*
X0327952Y0387004D01*
X0328115Y0387285D01*
X0328337Y0387522D01*
X0328606Y0387705D01*
X0328909Y0387823D01*
X0329230Y0387870D01*
X0328390Y0387559D02*
X0339630Y0387559D01*
X0339630Y0387957D02*
X0338299Y0387957D01*
X0339630Y0387160D02*
X0328043Y0387160D01*
X0327876Y0386762D02*
X0339630Y0386762D01*
X0339630Y0386363D02*
X0327830Y0386363D01*
X0327830Y0385965D02*
X0339630Y0385965D01*
X0339630Y0385566D02*
X0327830Y0385566D01*
X0327830Y0385168D02*
X0339630Y0385168D01*
X0339630Y0384769D02*
X0327830Y0384769D01*
X0327830Y0384371D02*
X0339630Y0384371D01*
X0339630Y0383972D02*
X0327830Y0383972D01*
X0327830Y0383574D02*
X0339630Y0383574D01*
X0339630Y0383175D02*
X0327858Y0383175D01*
X0327977Y0382777D02*
X0339630Y0382777D01*
X0339630Y0382378D02*
X0328238Y0382378D01*
X0328823Y0381980D02*
X0339630Y0381980D01*
X0339630Y0381581D02*
X0336325Y0381581D01*
X0336325Y0381183D02*
X0339630Y0381183D01*
X0339630Y0380784D02*
X0336325Y0380784D01*
X0336325Y0380385D02*
X0339630Y0380385D01*
X0339630Y0379987D02*
X0336325Y0379987D01*
X0054630Y0379987D02*
X0051325Y0379987D01*
X0051325Y0379870D02*
X0051325Y0381870D01*
X0044430Y0381870D01*
X0044084Y0381898D01*
X0043753Y0382002D01*
X0043453Y0382177D01*
X0043199Y0382415D01*
X0043005Y0382702D01*
X0042880Y0383026D01*
X0042830Y0383370D01*
X0042830Y0386370D01*
X0042855Y0386694D01*
X0042952Y0387004D01*
X0043115Y0387285D01*
X0043337Y0387522D01*
X0043606Y0387705D01*
X0043909Y0387823D01*
X0044230Y0387870D01*
X0054630Y0387970D01*
X0054630Y0379870D01*
X0051325Y0379870D01*
X0051325Y0380385D02*
X0054630Y0380385D01*
X0054630Y0380784D02*
X0051325Y0380784D01*
X0051325Y0381183D02*
X0054630Y0381183D01*
X0054630Y0381581D02*
X0051325Y0381581D01*
X0054630Y0381980D02*
X0043823Y0381980D01*
X0043238Y0382378D02*
X0054630Y0382378D01*
X0054630Y0382777D02*
X0042977Y0382777D01*
X0042858Y0383175D02*
X0054630Y0383175D01*
X0054630Y0383574D02*
X0042830Y0383574D01*
X0042830Y0383972D02*
X0054630Y0383972D01*
X0054630Y0384371D02*
X0042830Y0384371D01*
X0042830Y0384769D02*
X0054630Y0384769D01*
X0054630Y0385168D02*
X0042830Y0385168D01*
X0042830Y0385566D02*
X0054630Y0385566D01*
X0054630Y0385965D02*
X0042830Y0385965D01*
X0042830Y0386363D02*
X0054630Y0386363D01*
X0054630Y0386762D02*
X0042876Y0386762D01*
X0043043Y0387160D02*
X0054630Y0387160D01*
X0054630Y0387559D02*
X0043390Y0387559D01*
X0053299Y0387957D02*
X0054630Y0387957D01*
X0054630Y0402870D02*
X0051230Y0402870D01*
X0044830Y0402970D01*
X0044330Y0402970D01*
X0044006Y0402995D01*
X0043696Y0403092D01*
X0043415Y0403255D01*
X0043178Y0403477D01*
X0042995Y0403746D01*
X0042877Y0404049D01*
X0042830Y0404370D01*
X0042830Y0407270D01*
X0042858Y0407616D01*
X0042962Y0407947D01*
X0043137Y0408247D01*
X0043374Y0408501D01*
X0043662Y0408695D01*
X0043986Y0408820D01*
X0044330Y0408870D01*
X0051286Y0408850D01*
X0051286Y0410750D01*
X0054630Y0410770D01*
X0054630Y0402870D01*
X0054630Y0403101D02*
X0043681Y0403101D01*
X0043162Y0403499D02*
X0054630Y0403499D01*
X0054630Y0403898D02*
X0042936Y0403898D01*
X0042841Y0404296D02*
X0054630Y0404296D01*
X0054630Y0404695D02*
X0042830Y0404695D01*
X0042830Y0405093D02*
X0054630Y0405093D01*
X0054630Y0405492D02*
X0042830Y0405492D01*
X0042830Y0405890D02*
X0054630Y0405890D01*
X0054630Y0406289D02*
X0042830Y0406289D01*
X0042830Y0406687D02*
X0054630Y0406687D01*
X0054630Y0407086D02*
X0042830Y0407086D01*
X0042847Y0407484D02*
X0054630Y0407484D01*
X0054630Y0407883D02*
X0042941Y0407883D01*
X0043169Y0408281D02*
X0054630Y0408281D01*
X0054630Y0408680D02*
X0043640Y0408680D01*
X0051286Y0409078D02*
X0054630Y0409078D01*
X0054630Y0409477D02*
X0051286Y0409477D01*
X0051286Y0409875D02*
X0054630Y0409875D01*
X0054630Y0410274D02*
X0051286Y0410274D01*
X0051286Y0410672D02*
X0054630Y0410672D01*
X0054630Y0591870D02*
X0051325Y0591870D01*
X0051325Y0593870D01*
X0044430Y0593870D01*
X0044084Y0593898D01*
X0043753Y0594002D01*
X0043453Y0594177D01*
X0043199Y0594415D01*
X0043005Y0594702D01*
X0042880Y0595026D01*
X0042830Y0595370D01*
X0042830Y0598370D01*
X0042855Y0598694D01*
X0042952Y0599004D01*
X0043115Y0599285D01*
X0043337Y0599522D01*
X0043606Y0599705D01*
X0043909Y0599823D01*
X0044230Y0599870D01*
X0054630Y0599970D01*
X0054630Y0591870D01*
X0054630Y0591995D02*
X0051325Y0591995D01*
X0051325Y0592394D02*
X0054630Y0592394D01*
X0054630Y0592792D02*
X0051325Y0592792D01*
X0051325Y0593191D02*
X0054630Y0593191D01*
X0054630Y0593589D02*
X0051325Y0593589D01*
X0054630Y0593988D02*
X0043798Y0593988D01*
X0043230Y0594386D02*
X0054630Y0594386D01*
X0054630Y0594785D02*
X0042973Y0594785D01*
X0042857Y0595183D02*
X0054630Y0595183D01*
X0054630Y0595582D02*
X0042830Y0595582D01*
X0042830Y0595980D02*
X0054630Y0595980D01*
X0054630Y0596379D02*
X0042830Y0596379D01*
X0042830Y0596777D02*
X0054630Y0596777D01*
X0054630Y0597176D02*
X0042830Y0597176D01*
X0042830Y0597574D02*
X0054630Y0597574D01*
X0054630Y0597973D02*
X0042830Y0597973D01*
X0042830Y0598371D02*
X0054630Y0598371D01*
X0054630Y0598770D02*
X0042879Y0598770D01*
X0043047Y0599168D02*
X0054630Y0599168D01*
X0054630Y0599567D02*
X0043402Y0599567D01*
X0054134Y0599965D02*
X0054630Y0599965D01*
X0054630Y0614870D02*
X0051230Y0614870D01*
X0044830Y0614970D01*
X0044330Y0614970D01*
X0044006Y0614995D01*
X0043696Y0615092D01*
X0043415Y0615255D01*
X0043178Y0615477D01*
X0042995Y0615746D01*
X0042877Y0616049D01*
X0042830Y0616370D01*
X0042830Y0619270D01*
X0042858Y0619616D01*
X0042962Y0619947D01*
X0043137Y0620247D01*
X0043374Y0620501D01*
X0043662Y0620695D01*
X0043986Y0620820D01*
X0044330Y0620870D01*
X0051286Y0620850D01*
X0051286Y0622750D01*
X0054630Y0622770D01*
X0054630Y0614870D01*
X0054630Y0615109D02*
X0043667Y0615109D01*
X0043157Y0615507D02*
X0054630Y0615507D01*
X0054630Y0615906D02*
X0042933Y0615906D01*
X0042840Y0616304D02*
X0054630Y0616304D01*
X0054630Y0616703D02*
X0042830Y0616703D01*
X0042830Y0617101D02*
X0054630Y0617101D01*
X0054630Y0617500D02*
X0042830Y0617500D01*
X0042830Y0617898D02*
X0054630Y0617898D01*
X0054630Y0618297D02*
X0042830Y0618297D01*
X0042830Y0618695D02*
X0054630Y0618695D01*
X0054630Y0619094D02*
X0042830Y0619094D01*
X0042848Y0619492D02*
X0054630Y0619492D01*
X0054630Y0619891D02*
X0042944Y0619891D01*
X0043176Y0620289D02*
X0054630Y0620289D01*
X0054630Y0620688D02*
X0043652Y0620688D01*
X0051286Y0621086D02*
X0054630Y0621086D01*
X0054630Y0621485D02*
X0051286Y0621485D01*
X0051286Y0621883D02*
X0054630Y0621883D01*
X0054630Y0622282D02*
X0051286Y0622282D01*
X0051286Y0622680D02*
X0054630Y0622680D01*
X0327830Y0619270D02*
X0327858Y0619616D01*
X0327962Y0619947D01*
X0328137Y0620247D01*
X0328374Y0620501D01*
X0328662Y0620695D01*
X0328986Y0620820D01*
X0329330Y0620870D01*
X0336286Y0620850D01*
X0336286Y0622750D01*
X0339630Y0622770D01*
X0339630Y0614870D01*
X0336230Y0614870D01*
X0329830Y0614970D01*
X0329330Y0614970D01*
X0329006Y0614995D01*
X0328696Y0615092D01*
X0328415Y0615255D01*
X0328178Y0615477D01*
X0327995Y0615746D01*
X0327877Y0616049D01*
X0327830Y0616370D01*
X0327830Y0619270D01*
X0327830Y0619094D02*
X0339630Y0619094D01*
X0339630Y0619492D02*
X0327848Y0619492D01*
X0327944Y0619891D02*
X0339630Y0619891D01*
X0339630Y0620289D02*
X0328176Y0620289D01*
X0328652Y0620688D02*
X0339630Y0620688D01*
X0339630Y0621086D02*
X0336286Y0621086D01*
X0336286Y0621485D02*
X0339630Y0621485D01*
X0339630Y0621883D02*
X0336286Y0621883D01*
X0336286Y0622282D02*
X0339630Y0622282D01*
X0339630Y0622680D02*
X0336286Y0622680D01*
X0339630Y0618695D02*
X0327830Y0618695D01*
X0327830Y0618297D02*
X0339630Y0618297D01*
X0339630Y0617898D02*
X0327830Y0617898D01*
X0327830Y0617500D02*
X0339630Y0617500D01*
X0339630Y0617101D02*
X0327830Y0617101D01*
X0327830Y0616703D02*
X0339630Y0616703D01*
X0339630Y0616304D02*
X0327840Y0616304D01*
X0327933Y0615906D02*
X0339630Y0615906D01*
X0339630Y0615507D02*
X0328157Y0615507D01*
X0328667Y0615109D02*
X0339630Y0615109D01*
X0339630Y0599970D02*
X0329230Y0599870D01*
X0328909Y0599823D01*
X0328606Y0599705D01*
X0328337Y0599522D01*
X0328115Y0599285D01*
X0327952Y0599004D01*
X0327855Y0598694D01*
X0327830Y0598370D01*
X0327830Y0595370D01*
X0327880Y0595026D01*
X0328005Y0594702D01*
X0328199Y0594415D01*
X0328453Y0594177D01*
X0328753Y0594002D01*
X0329084Y0593898D01*
X0329430Y0593870D01*
X0336325Y0593870D01*
X0336325Y0591870D01*
X0339630Y0591870D01*
X0339630Y0599970D01*
X0339630Y0599965D02*
X0339134Y0599965D01*
X0339630Y0599567D02*
X0328402Y0599567D01*
X0328047Y0599168D02*
X0339630Y0599168D01*
X0339630Y0598770D02*
X0327879Y0598770D01*
X0327830Y0598371D02*
X0339630Y0598371D01*
X0339630Y0597973D02*
X0327830Y0597973D01*
X0327830Y0597574D02*
X0339630Y0597574D01*
X0339630Y0597176D02*
X0327830Y0597176D01*
X0327830Y0596777D02*
X0339630Y0596777D01*
X0339630Y0596379D02*
X0327830Y0596379D01*
X0327830Y0595980D02*
X0339630Y0595980D01*
X0339630Y0595582D02*
X0327830Y0595582D01*
X0327857Y0595183D02*
X0339630Y0595183D01*
X0339630Y0594785D02*
X0327973Y0594785D01*
X0328230Y0594386D02*
X0339630Y0594386D01*
X0339630Y0593988D02*
X0328798Y0593988D01*
X0336325Y0593589D02*
X0339630Y0593589D01*
X0339630Y0593191D02*
X0336325Y0593191D01*
X0336325Y0592792D02*
X0339630Y0592792D01*
X0339630Y0592394D02*
X0336325Y0592394D01*
X0336325Y0591995D02*
X0339630Y0591995D01*
X0612830Y0595370D02*
X0612830Y0598370D01*
X0612855Y0598694D01*
X0612952Y0599004D01*
X0613115Y0599285D01*
X0613337Y0599522D01*
X0613606Y0599705D01*
X0613909Y0599823D01*
X0614230Y0599870D01*
X0624630Y0599970D01*
X0624630Y0591870D01*
X0621325Y0591870D01*
X0621325Y0593870D01*
X0614430Y0593870D01*
X0614084Y0593898D01*
X0613753Y0594002D01*
X0613453Y0594177D01*
X0613199Y0594415D01*
X0613005Y0594702D01*
X0612880Y0595026D01*
X0612830Y0595370D01*
X0612857Y0595183D02*
X0624630Y0595183D01*
X0624630Y0594785D02*
X0612973Y0594785D01*
X0613230Y0594386D02*
X0624630Y0594386D01*
X0624630Y0593988D02*
X0613798Y0593988D01*
X0612830Y0595582D02*
X0624630Y0595582D01*
X0624630Y0595980D02*
X0612830Y0595980D01*
X0612830Y0596379D02*
X0624630Y0596379D01*
X0624630Y0596777D02*
X0612830Y0596777D01*
X0612830Y0597176D02*
X0624630Y0597176D01*
X0624630Y0597574D02*
X0612830Y0597574D01*
X0612830Y0597973D02*
X0624630Y0597973D01*
X0624630Y0598371D02*
X0612830Y0598371D01*
X0612879Y0598770D02*
X0624630Y0598770D01*
X0624630Y0599168D02*
X0613047Y0599168D01*
X0613402Y0599567D02*
X0624630Y0599567D01*
X0624630Y0599965D02*
X0624134Y0599965D01*
X0624630Y0593589D02*
X0621325Y0593589D01*
X0621325Y0593191D02*
X0624630Y0593191D01*
X0624630Y0592792D02*
X0621325Y0592792D01*
X0621325Y0592394D02*
X0624630Y0592394D01*
X0624630Y0591995D02*
X0621325Y0591995D01*
X0621230Y0614870D02*
X0614830Y0614970D01*
X0614330Y0614970D01*
X0614006Y0614995D01*
X0613696Y0615092D01*
X0613415Y0615255D01*
X0613178Y0615477D01*
X0612995Y0615746D01*
X0612877Y0616049D01*
X0612830Y0616370D01*
X0612830Y0619270D01*
X0612858Y0619616D01*
X0612962Y0619947D01*
X0613137Y0620247D01*
X0613374Y0620501D01*
X0613662Y0620695D01*
X0613986Y0620820D01*
X0614330Y0620870D01*
X0621286Y0620850D01*
X0621286Y0622750D01*
X0624630Y0622770D01*
X0624630Y0614870D01*
X0621230Y0614870D01*
X0624630Y0615109D02*
X0613667Y0615109D01*
X0613157Y0615507D02*
X0624630Y0615507D01*
X0624630Y0615906D02*
X0612933Y0615906D01*
X0612840Y0616304D02*
X0624630Y0616304D01*
X0624630Y0616703D02*
X0612830Y0616703D01*
X0612830Y0617101D02*
X0624630Y0617101D01*
X0624630Y0617500D02*
X0612830Y0617500D01*
X0612830Y0617898D02*
X0624630Y0617898D01*
X0624630Y0618297D02*
X0612830Y0618297D01*
X0612830Y0618695D02*
X0624630Y0618695D01*
X0624630Y0619094D02*
X0612830Y0619094D01*
X0612848Y0619492D02*
X0624630Y0619492D01*
X0624630Y0619891D02*
X0612944Y0619891D01*
X0613176Y0620289D02*
X0624630Y0620289D01*
X0624630Y0620688D02*
X0613652Y0620688D01*
X0621286Y0621086D02*
X0624630Y0621086D01*
X0624630Y0621485D02*
X0621286Y0621485D01*
X0621286Y0621883D02*
X0624630Y0621883D01*
X0624630Y0622282D02*
X0621286Y0622282D01*
X0621286Y0622680D02*
X0624630Y0622680D01*
X0897830Y0619270D02*
X0897858Y0619616D01*
X0897962Y0619947D01*
X0898137Y0620247D01*
X0898374Y0620501D01*
X0898662Y0620695D01*
X0898986Y0620820D01*
X0899330Y0620870D01*
X0906286Y0620850D01*
X0906286Y0622750D01*
X0909630Y0622770D01*
X0909630Y0614870D01*
X0906230Y0614870D01*
X0899830Y0614970D01*
X0899330Y0614970D01*
X0899006Y0614995D01*
X0898696Y0615092D01*
X0898415Y0615255D01*
X0898178Y0615477D01*
X0897995Y0615746D01*
X0897877Y0616049D01*
X0897830Y0616370D01*
X0897830Y0619270D01*
X0897830Y0619094D02*
X0909630Y0619094D01*
X0909630Y0619492D02*
X0897848Y0619492D01*
X0897944Y0619891D02*
X0909630Y0619891D01*
X0909630Y0620289D02*
X0898176Y0620289D01*
X0898652Y0620688D02*
X0909630Y0620688D01*
X0909630Y0621086D02*
X0906286Y0621086D01*
X0906286Y0621485D02*
X0909630Y0621485D01*
X0909630Y0621883D02*
X0906286Y0621883D01*
X0906286Y0622282D02*
X0909630Y0622282D01*
X0909630Y0622680D02*
X0906286Y0622680D01*
X0909630Y0618695D02*
X0897830Y0618695D01*
X0897830Y0618297D02*
X0909630Y0618297D01*
X0909630Y0617898D02*
X0897830Y0617898D01*
X0897830Y0617500D02*
X0909630Y0617500D01*
X0909630Y0617101D02*
X0897830Y0617101D01*
X0897830Y0616703D02*
X0909630Y0616703D01*
X0909630Y0616304D02*
X0897840Y0616304D01*
X0897933Y0615906D02*
X0909630Y0615906D01*
X0909630Y0615507D02*
X0898157Y0615507D01*
X0898667Y0615109D02*
X0909630Y0615109D01*
X0909630Y0599970D02*
X0899230Y0599870D01*
X0898909Y0599823D01*
X0898606Y0599705D01*
X0898337Y0599522D01*
X0898115Y0599285D01*
X0897952Y0599004D01*
X0897855Y0598694D01*
X0897830Y0598370D01*
X0897830Y0595370D01*
X0897880Y0595026D01*
X0898005Y0594702D01*
X0898199Y0594415D01*
X0898453Y0594177D01*
X0898753Y0594002D01*
X0899084Y0593898D01*
X0899430Y0593870D01*
X0906325Y0593870D01*
X0906325Y0591870D01*
X0909630Y0591870D01*
X0909630Y0599970D01*
X0909630Y0599965D02*
X0909134Y0599965D01*
X0909630Y0599567D02*
X0898402Y0599567D01*
X0898047Y0599168D02*
X0909630Y0599168D01*
X0909630Y0598770D02*
X0897879Y0598770D01*
X0897830Y0598371D02*
X0909630Y0598371D01*
X0909630Y0597973D02*
X0897830Y0597973D01*
X0897830Y0597574D02*
X0909630Y0597574D01*
X0909630Y0597176D02*
X0897830Y0597176D01*
X0897830Y0596777D02*
X0909630Y0596777D01*
X0909630Y0596379D02*
X0897830Y0596379D01*
X0897830Y0595980D02*
X0909630Y0595980D01*
X0909630Y0595582D02*
X0897830Y0595582D01*
X0897857Y0595183D02*
X0909630Y0595183D01*
X0909630Y0594785D02*
X0897973Y0594785D01*
X0898230Y0594386D02*
X0909630Y0594386D01*
X0909630Y0593988D02*
X0898798Y0593988D01*
X0906325Y0593589D02*
X0909630Y0593589D01*
X0909630Y0593191D02*
X0906325Y0593191D01*
X0906325Y0592792D02*
X0909630Y0592792D01*
X0909630Y0592394D02*
X0906325Y0592394D01*
X0906325Y0591995D02*
X0909630Y0591995D01*
X1182830Y0595370D02*
X1182830Y0598370D01*
X1182855Y0598694D01*
X1182952Y0599004D01*
X1183115Y0599285D01*
X1183337Y0599522D01*
X1183606Y0599705D01*
X1183909Y0599823D01*
X1184230Y0599870D01*
X1194630Y0599970D01*
X1194630Y0591870D01*
X1191325Y0591870D01*
X1191325Y0593870D01*
X1184430Y0593870D01*
X1184084Y0593898D01*
X1183753Y0594002D01*
X1183453Y0594177D01*
X1183199Y0594415D01*
X1183005Y0594702D01*
X1182880Y0595026D01*
X1182830Y0595370D01*
X1182857Y0595183D02*
X1194630Y0595183D01*
X1194630Y0594785D02*
X1182973Y0594785D01*
X1183230Y0594386D02*
X1194630Y0594386D01*
X1194630Y0593988D02*
X1183798Y0593988D01*
X1182830Y0595582D02*
X1194630Y0595582D01*
X1194630Y0595980D02*
X1182830Y0595980D01*
X1182830Y0596379D02*
X1194630Y0596379D01*
X1194630Y0596777D02*
X1182830Y0596777D01*
X1182830Y0597176D02*
X1194630Y0597176D01*
X1194630Y0597574D02*
X1182830Y0597574D01*
X1182830Y0597973D02*
X1194630Y0597973D01*
X1194630Y0598371D02*
X1182830Y0598371D01*
X1182879Y0598770D02*
X1194630Y0598770D01*
X1194630Y0599168D02*
X1183047Y0599168D01*
X1183402Y0599567D02*
X1194630Y0599567D01*
X1194630Y0599965D02*
X1194134Y0599965D01*
X1194630Y0593589D02*
X1191325Y0593589D01*
X1191325Y0593191D02*
X1194630Y0593191D01*
X1194630Y0592792D02*
X1191325Y0592792D01*
X1191325Y0592394D02*
X1194630Y0592394D01*
X1194630Y0591995D02*
X1191325Y0591995D01*
X1191230Y0614870D02*
X1184830Y0614970D01*
X1184330Y0614970D01*
X1184006Y0614995D01*
X1183696Y0615092D01*
X1183415Y0615255D01*
X1183178Y0615477D01*
X1182995Y0615746D01*
X1182877Y0616049D01*
X1182830Y0616370D01*
X1182830Y0619270D01*
X1182858Y0619616D01*
X1182962Y0619947D01*
X1183137Y0620247D01*
X1183374Y0620501D01*
X1183662Y0620695D01*
X1183986Y0620820D01*
X1184330Y0620870D01*
X1191286Y0620850D01*
X1191286Y0622750D01*
X1194630Y0622770D01*
X1194630Y0614870D01*
X1191230Y0614870D01*
X1194630Y0615109D02*
X1183667Y0615109D01*
X1183157Y0615507D02*
X1194630Y0615507D01*
X1194630Y0615906D02*
X1182933Y0615906D01*
X1182840Y0616304D02*
X1194630Y0616304D01*
X1194630Y0616703D02*
X1182830Y0616703D01*
X1182830Y0617101D02*
X1194630Y0617101D01*
X1194630Y0617500D02*
X1182830Y0617500D01*
X1182830Y0617898D02*
X1194630Y0617898D01*
X1194630Y0618297D02*
X1182830Y0618297D01*
X1182830Y0618695D02*
X1194630Y0618695D01*
X1194630Y0619094D02*
X1182830Y0619094D01*
X1182848Y0619492D02*
X1194630Y0619492D01*
X1194630Y0619891D02*
X1182944Y0619891D01*
X1183176Y0620289D02*
X1194630Y0620289D01*
X1194630Y0620688D02*
X1183652Y0620688D01*
X1191286Y0621086D02*
X1194630Y0621086D01*
X1194630Y0621485D02*
X1191286Y0621485D01*
X1191286Y0621883D02*
X1194630Y0621883D01*
X1194630Y0622282D02*
X1191286Y0622282D01*
X1191286Y0622680D02*
X1194630Y0622680D01*
D43*
X1197387Y0616767D03*
X1197817Y0616788D03*
X1198407Y0616749D03*
X1198919Y0616788D03*
X1198919Y0597733D03*
X1198407Y0597694D03*
X1197817Y0597733D03*
X1197387Y0597712D03*
X0913919Y0597733D03*
X0913407Y0597694D03*
X0912817Y0597733D03*
X0912387Y0597712D03*
X0912387Y0616767D03*
X0912817Y0616788D03*
X0913407Y0616749D03*
X0913919Y0616788D03*
X0628919Y0616788D03*
X0628407Y0616749D03*
X0627817Y0616788D03*
X0627387Y0616767D03*
X0627817Y0597733D03*
X0627387Y0597712D03*
X0628407Y0597694D03*
X0628919Y0597733D03*
X0343919Y0597733D03*
X0343407Y0597694D03*
X0342817Y0597733D03*
X0342387Y0597712D03*
X0342387Y0616767D03*
X0342817Y0616788D03*
X0343407Y0616749D03*
X0343919Y0616788D03*
X0058919Y0616788D03*
X0058407Y0616749D03*
X0057817Y0616788D03*
X0057387Y0616767D03*
X0057817Y0597733D03*
X0057387Y0597712D03*
X0058407Y0597694D03*
X0058919Y0597733D03*
X0058919Y0404788D03*
X0058407Y0404749D03*
X0057817Y0404788D03*
X0057387Y0404767D03*
X0057817Y0385733D03*
X0057387Y0385712D03*
X0058407Y0385694D03*
X0058919Y0385733D03*
X0342387Y0385712D03*
X0342817Y0385733D03*
X0343407Y0385694D03*
X0343919Y0385733D03*
X0343407Y0404749D03*
X0343919Y0404788D03*
X0342817Y0404788D03*
X0342387Y0404767D03*
X0627387Y0404767D03*
X0627817Y0404788D03*
X0628407Y0404749D03*
X0628919Y0404788D03*
X0628919Y0385733D03*
X0628407Y0385694D03*
X0627817Y0385733D03*
X0627387Y0385712D03*
X0912387Y0385712D03*
X0912817Y0385733D03*
X0913407Y0385694D03*
X0913919Y0385733D03*
X0913407Y0404749D03*
X0913919Y0404788D03*
X0912817Y0404788D03*
X0912387Y0404767D03*
X1197387Y0404767D03*
X1197817Y0404788D03*
X1198407Y0404749D03*
X1198919Y0404788D03*
X1198919Y0385733D03*
X1198407Y0385694D03*
X1197817Y0385733D03*
X1197387Y0385712D03*
X1197817Y0192788D03*
X1197387Y0192767D03*
X1198407Y0192749D03*
X1198919Y0192788D03*
X1198919Y0173733D03*
X1198407Y0173694D03*
X1197817Y0173733D03*
X1197387Y0173712D03*
X0913919Y0173733D03*
X0913407Y0173694D03*
X0912817Y0173733D03*
X0912387Y0173712D03*
X0912387Y0192767D03*
X0912817Y0192788D03*
X0913407Y0192749D03*
X0913919Y0192788D03*
X0628919Y0192788D03*
X0628407Y0192749D03*
X0627817Y0192788D03*
X0627387Y0192767D03*
X0627817Y0173733D03*
X0627387Y0173712D03*
X0628407Y0173694D03*
X0628919Y0173733D03*
X0343919Y0173733D03*
X0343407Y0173694D03*
X0342817Y0173733D03*
X0342387Y0173712D03*
X0342387Y0192767D03*
X0342817Y0192788D03*
X0343407Y0192749D03*
X0343919Y0192788D03*
X0058919Y0192788D03*
X0058407Y0192749D03*
X0057817Y0192788D03*
X0057387Y0192767D03*
X0057817Y0173733D03*
X0057387Y0173712D03*
X0058407Y0173694D03*
X0058919Y0173733D03*
D44*
X0147750Y0108500D03*
X0151750Y0108500D03*
X0155750Y0108500D03*
X0432750Y0108500D03*
X0436750Y0108500D03*
X0440750Y0108500D03*
X0717750Y0108500D03*
X0721750Y0108500D03*
X0725750Y0108500D03*
X1002750Y0108500D03*
X1006750Y0108500D03*
X1010750Y0108500D03*
X1287750Y0108500D03*
X1291750Y0108500D03*
X1295750Y0108500D03*
X1295750Y0320500D03*
X1291750Y0320500D03*
X1287750Y0320500D03*
X1010750Y0320500D03*
X1006750Y0320500D03*
X1002750Y0320500D03*
X0725750Y0320500D03*
X0721750Y0320500D03*
X0717750Y0320500D03*
X0440750Y0320500D03*
X0436750Y0320500D03*
X0432750Y0320500D03*
X0155750Y0320500D03*
X0151750Y0320500D03*
X0147750Y0320500D03*
X0147750Y0532500D03*
X0151750Y0532500D03*
X0155750Y0532500D03*
X0432750Y0532500D03*
X0436750Y0532500D03*
X0440750Y0532500D03*
X0717750Y0532500D03*
X0721750Y0532500D03*
X0725750Y0532500D03*
X1002750Y0532500D03*
X1006750Y0532500D03*
X1010750Y0532500D03*
X1287750Y0532500D03*
X1291750Y0532500D03*
X1295750Y0532500D03*
D45*
X1294500Y0532495D02*
X1293000Y0532495D01*
X1293000Y0532000D02*
X1293000Y0533000D01*
X1294500Y0533000D01*
X1294500Y0532000D01*
X1293000Y0532000D01*
X1293000Y0532993D02*
X1294500Y0532993D01*
X1009500Y0533000D02*
X1009500Y0532000D01*
X1008000Y0532000D01*
X1008000Y0533000D01*
X1009500Y0533000D01*
X1009500Y0532993D02*
X1008000Y0532993D01*
X1008000Y0532495D02*
X1009500Y0532495D01*
X0724500Y0532495D02*
X0723000Y0532495D01*
X0723000Y0532000D02*
X0723000Y0533000D01*
X0724500Y0533000D01*
X0724500Y0532000D01*
X0723000Y0532000D01*
X0723000Y0532993D02*
X0724500Y0532993D01*
X0439500Y0533000D02*
X0439500Y0532000D01*
X0438000Y0532000D01*
X0438000Y0533000D01*
X0439500Y0533000D01*
X0439500Y0532993D02*
X0438000Y0532993D01*
X0438000Y0532495D02*
X0439500Y0532495D01*
X0154500Y0532495D02*
X0153000Y0532495D01*
X0153000Y0532000D02*
X0153000Y0533000D01*
X0154500Y0533000D01*
X0154500Y0532000D01*
X0153000Y0532000D01*
X0153000Y0532993D02*
X0154500Y0532993D01*
X0154500Y0321000D02*
X0154500Y0320000D01*
X0153000Y0320000D01*
X0153000Y0321000D01*
X0154500Y0321000D01*
X0154500Y0320628D02*
X0153000Y0320628D01*
X0153000Y0320129D02*
X0154500Y0320129D01*
X0438000Y0320129D02*
X0439500Y0320129D01*
X0439500Y0320000D02*
X0438000Y0320000D01*
X0438000Y0321000D01*
X0439500Y0321000D01*
X0439500Y0320000D01*
X0439500Y0320628D02*
X0438000Y0320628D01*
X0723000Y0320628D02*
X0724500Y0320628D01*
X0724500Y0321000D02*
X0724500Y0320000D01*
X0723000Y0320000D01*
X0723000Y0321000D01*
X0724500Y0321000D01*
X0724500Y0320129D02*
X0723000Y0320129D01*
X1008000Y0320129D02*
X1009500Y0320129D01*
X1009500Y0320000D02*
X1008000Y0320000D01*
X1008000Y0321000D01*
X1009500Y0321000D01*
X1009500Y0320000D01*
X1009500Y0320628D02*
X1008000Y0320628D01*
X1293000Y0320628D02*
X1294500Y0320628D01*
X1294500Y0321000D02*
X1294500Y0320000D01*
X1293000Y0320000D01*
X1293000Y0321000D01*
X1294500Y0321000D01*
X1294500Y0320129D02*
X1293000Y0320129D01*
X1293000Y0109000D02*
X1293000Y0108000D01*
X1294500Y0108000D01*
X1294500Y0109000D01*
X1293000Y0109000D01*
X1293000Y0108760D02*
X1294500Y0108760D01*
X1294500Y0108262D02*
X1293000Y0108262D01*
X1009500Y0108262D02*
X1008000Y0108262D01*
X1008000Y0108000D02*
X1008000Y0109000D01*
X1009500Y0109000D01*
X1009500Y0108000D01*
X1008000Y0108000D01*
X1008000Y0108760D02*
X1009500Y0108760D01*
X0724500Y0108760D02*
X0723000Y0108760D01*
X0723000Y0109000D02*
X0723000Y0108000D01*
X0724500Y0108000D01*
X0724500Y0109000D01*
X0723000Y0109000D01*
X0723000Y0108262D02*
X0724500Y0108262D01*
X0439500Y0108262D02*
X0438000Y0108262D01*
X0438000Y0108000D02*
X0438000Y0109000D01*
X0439500Y0109000D01*
X0439500Y0108000D01*
X0438000Y0108000D01*
X0438000Y0108760D02*
X0439500Y0108760D01*
X0154500Y0108760D02*
X0153000Y0108760D01*
X0153000Y0109000D02*
X0153000Y0108000D01*
X0154500Y0108000D01*
X0154500Y0109000D01*
X0153000Y0109000D01*
X0153000Y0108262D02*
X0154500Y0108262D01*
D46*
X0306219Y0104524D03*
X0306219Y0082476D03*
X0591219Y0082476D03*
X0591219Y0104524D03*
X0876219Y0104524D03*
X0876219Y0082476D03*
X1161219Y0082476D03*
X1161219Y0104524D03*
X1446219Y0104524D03*
X1446219Y0082476D03*
X1446219Y0294476D03*
X1446219Y0316524D03*
X1161219Y0316524D03*
X1161219Y0294476D03*
X0876219Y0294476D03*
X0876219Y0316524D03*
X0591219Y0316524D03*
X0591219Y0294476D03*
X0306219Y0294476D03*
X0306219Y0316524D03*
X0306219Y0506476D03*
X0306219Y0528524D03*
X0591219Y0528524D03*
X0591219Y0506476D03*
X0876219Y0506476D03*
X0876219Y0528524D03*
X1161219Y0528524D03*
X1161219Y0506476D03*
X1446219Y0506476D03*
X1446219Y0528524D03*
D47*
X1431750Y0523406D03*
X1431750Y0519469D03*
X1431750Y0515531D03*
X1431750Y0511594D03*
X1146750Y0511594D03*
X1146750Y0515531D03*
X1146750Y0519469D03*
X1146750Y0523406D03*
X0861750Y0523406D03*
X0861750Y0519469D03*
X0861750Y0515531D03*
X0861750Y0511594D03*
X0576750Y0511594D03*
X0576750Y0515531D03*
X0576750Y0519469D03*
X0576750Y0523406D03*
X0291750Y0523406D03*
X0291750Y0519469D03*
X0291750Y0515531D03*
X0291750Y0511594D03*
X0291750Y0311406D03*
X0291750Y0307469D03*
X0291750Y0303531D03*
X0291750Y0299594D03*
X0576750Y0299594D03*
X0576750Y0303531D03*
X0576750Y0307469D03*
X0576750Y0311406D03*
X0861750Y0311406D03*
X0861750Y0307469D03*
X0861750Y0303531D03*
X0861750Y0299594D03*
X1146750Y0299594D03*
X1146750Y0303531D03*
X1146750Y0307469D03*
X1146750Y0311406D03*
X1431750Y0311406D03*
X1431750Y0307469D03*
X1431750Y0303531D03*
X1431750Y0299594D03*
X1431750Y0099406D03*
X1431750Y0095469D03*
X1431750Y0091531D03*
X1431750Y0087594D03*
X1146750Y0087594D03*
X1146750Y0091531D03*
X1146750Y0095469D03*
X1146750Y0099406D03*
X0861750Y0099406D03*
X0861750Y0095469D03*
X0861750Y0091531D03*
X0861750Y0087594D03*
X0576750Y0087594D03*
X0576750Y0091531D03*
X0576750Y0095469D03*
X0576750Y0099406D03*
X0291750Y0099406D03*
X0291750Y0095469D03*
X0291750Y0091531D03*
X0291750Y0087594D03*
D48*
X0078185Y0020250D02*
X0078187Y0020369D01*
X0078193Y0020488D01*
X0078203Y0020607D01*
X0078217Y0020725D01*
X0078235Y0020843D01*
X0078256Y0020960D01*
X0078282Y0021076D01*
X0078312Y0021192D01*
X0078345Y0021306D01*
X0078382Y0021419D01*
X0078423Y0021531D01*
X0078468Y0021642D01*
X0078516Y0021751D01*
X0078568Y0021858D01*
X0078624Y0021963D01*
X0078683Y0022067D01*
X0078745Y0022168D01*
X0078811Y0022268D01*
X0078880Y0022365D01*
X0078952Y0022459D01*
X0079028Y0022552D01*
X0079106Y0022641D01*
X0079187Y0022728D01*
X0079272Y0022813D01*
X0079359Y0022894D01*
X0079448Y0022972D01*
X0079541Y0023048D01*
X0079635Y0023120D01*
X0079732Y0023189D01*
X0079832Y0023255D01*
X0079933Y0023317D01*
X0080037Y0023376D01*
X0080142Y0023432D01*
X0080249Y0023484D01*
X0080358Y0023532D01*
X0080469Y0023577D01*
X0080581Y0023618D01*
X0080694Y0023655D01*
X0080808Y0023688D01*
X0080924Y0023718D01*
X0081040Y0023744D01*
X0081157Y0023765D01*
X0081275Y0023783D01*
X0081393Y0023797D01*
X0081512Y0023807D01*
X0081631Y0023813D01*
X0081750Y0023815D01*
X0081869Y0023813D01*
X0081988Y0023807D01*
X0082107Y0023797D01*
X0082225Y0023783D01*
X0082343Y0023765D01*
X0082460Y0023744D01*
X0082576Y0023718D01*
X0082692Y0023688D01*
X0082806Y0023655D01*
X0082919Y0023618D01*
X0083031Y0023577D01*
X0083142Y0023532D01*
X0083251Y0023484D01*
X0083358Y0023432D01*
X0083463Y0023376D01*
X0083567Y0023317D01*
X0083668Y0023255D01*
X0083768Y0023189D01*
X0083865Y0023120D01*
X0083959Y0023048D01*
X0084052Y0022972D01*
X0084141Y0022894D01*
X0084228Y0022813D01*
X0084313Y0022728D01*
X0084394Y0022641D01*
X0084472Y0022552D01*
X0084548Y0022459D01*
X0084620Y0022365D01*
X0084689Y0022268D01*
X0084755Y0022168D01*
X0084817Y0022067D01*
X0084876Y0021963D01*
X0084932Y0021858D01*
X0084984Y0021751D01*
X0085032Y0021642D01*
X0085077Y0021531D01*
X0085118Y0021419D01*
X0085155Y0021306D01*
X0085188Y0021192D01*
X0085218Y0021076D01*
X0085244Y0020960D01*
X0085265Y0020843D01*
X0085283Y0020725D01*
X0085297Y0020607D01*
X0085307Y0020488D01*
X0085313Y0020369D01*
X0085315Y0020250D01*
X0085313Y0020131D01*
X0085307Y0020012D01*
X0085297Y0019893D01*
X0085283Y0019775D01*
X0085265Y0019657D01*
X0085244Y0019540D01*
X0085218Y0019424D01*
X0085188Y0019308D01*
X0085155Y0019194D01*
X0085118Y0019081D01*
X0085077Y0018969D01*
X0085032Y0018858D01*
X0084984Y0018749D01*
X0084932Y0018642D01*
X0084876Y0018537D01*
X0084817Y0018433D01*
X0084755Y0018332D01*
X0084689Y0018232D01*
X0084620Y0018135D01*
X0084548Y0018041D01*
X0084472Y0017948D01*
X0084394Y0017859D01*
X0084313Y0017772D01*
X0084228Y0017687D01*
X0084141Y0017606D01*
X0084052Y0017528D01*
X0083959Y0017452D01*
X0083865Y0017380D01*
X0083768Y0017311D01*
X0083668Y0017245D01*
X0083567Y0017183D01*
X0083463Y0017124D01*
X0083358Y0017068D01*
X0083251Y0017016D01*
X0083142Y0016968D01*
X0083031Y0016923D01*
X0082919Y0016882D01*
X0082806Y0016845D01*
X0082692Y0016812D01*
X0082576Y0016782D01*
X0082460Y0016756D01*
X0082343Y0016735D01*
X0082225Y0016717D01*
X0082107Y0016703D01*
X0081988Y0016693D01*
X0081869Y0016687D01*
X0081750Y0016685D01*
X0081631Y0016687D01*
X0081512Y0016693D01*
X0081393Y0016703D01*
X0081275Y0016717D01*
X0081157Y0016735D01*
X0081040Y0016756D01*
X0080924Y0016782D01*
X0080808Y0016812D01*
X0080694Y0016845D01*
X0080581Y0016882D01*
X0080469Y0016923D01*
X0080358Y0016968D01*
X0080249Y0017016D01*
X0080142Y0017068D01*
X0080037Y0017124D01*
X0079933Y0017183D01*
X0079832Y0017245D01*
X0079732Y0017311D01*
X0079635Y0017380D01*
X0079541Y0017452D01*
X0079448Y0017528D01*
X0079359Y0017606D01*
X0079272Y0017687D01*
X0079187Y0017772D01*
X0079106Y0017859D01*
X0079028Y0017948D01*
X0078952Y0018041D01*
X0078880Y0018135D01*
X0078811Y0018232D01*
X0078745Y0018332D01*
X0078683Y0018433D01*
X0078624Y0018537D01*
X0078568Y0018642D01*
X0078516Y0018749D01*
X0078468Y0018858D01*
X0078423Y0018969D01*
X0078382Y0019081D01*
X0078345Y0019194D01*
X0078312Y0019308D01*
X0078282Y0019424D01*
X0078256Y0019540D01*
X0078235Y0019657D01*
X0078217Y0019775D01*
X0078203Y0019893D01*
X0078193Y0020012D01*
X0078187Y0020131D01*
X0078185Y0020250D01*
D49*
X0081750Y0020250D03*
M02*
